<?xml version="1.0" encoding="utf-8"?>
<!-- Generator: Adobe Illustrator 18.1.0, SVG Export Plug-In . SVG Version: 6.00 Build 0)  -->
<svg version="1.1" id="Layer_1" xmlns="http://www.w3.org/2000/svg" xmlns:xlink="http://www.w3.org/1999/xlink" x="0px" y="0px"
	 viewBox="0 301.6 612 461.3" enable-background="new 0 301.6 612 461.3" xml:space="preserve">
<g id="Layer_1_1_" display="none">
	<rect x="-202.8" y="439.6" display="inline" fill="#FFCC29" width="153.4" height="153.4"/>
	<rect x="-199" y="443.4" display="inline" fill="#FFE7AC" width="145.7" height="145.7"/>
	<circle display="inline" fill="#EF484A" cx="-126.1" cy="516.3" r="44.4"/>
	<circle display="inline" fill="#2C4415" cx="-77.6" cy="466.4" r="12.8"/>
	<circle display="inline" fill="#B5FF66" cx="-77.6" cy="466.4" r="6.4"/>
	<rect x="-319.6" y="-0.7" display="inline" fill="#FFE7AC" width="1287.7" height="1200.7"/>
</g>
<g id="Layer_2" display="none">
	<polygon display="inline" fill="#EF484A" stroke="#EF484A" stroke-width="32" stroke-miterlimit="10" points="500.2,186.6 
		443.6,177.4 408,179.7 333.2,165.5 267.3,181.2 122,186.6 121.4,137 203.4,146.6 237.3,148.2 290.9,140.6 344.1,168.5 408,142.1 
		445.6,161.1 479,141 497.4,144 	"/>
	<g display="inline">
		<path fill="#EF484A" stroke="#EF484A" stroke-width="32" stroke-miterlimit="10" d="M157.4,183.9h-25.1v-14h17.1
			c4.3,0,7.9-3.5,7.9-7.9s-3.5-7.9-7.9-7.9h-17.1v-13.5h23.9c4.4,0,8-3.5,8-8s-3.5-8-8-8h-32.5c-4.8,0-8.6,3.9-8.6,8.6v58
			c0,4.8,3.9,8.6,8.6,8.6h33.7c4.4,0,8-3.5,8-8C165.4,187.5,161.8,183.9,157.4,183.9z"/>
		<path fill="#EF484A" stroke="#EF484A" stroke-width="32" stroke-miterlimit="10" d="M225.3,157.2h-20.2c-4.3,0-7.9,3.5-7.9,7.9
			s3.5,7.9,7.9,7.9h11.6v8.1c-3.5,3.1-8,4.4-14.6,4.4c-6.3,0-10.5-1.6-13.3-5c-2.9-3.6-4.3-9.6-4.3-18.1c0-20.5,9.4-23.1,17.5-23.1
			c7.2,0,10.8,2.5,14.4,6.5c2.2,2.4,4.6,2.9,6.1,2.9c4.5,0,8.2-3.6,8.2-8.1c0-1.7-0.5-3.3-1.6-4.9c-3.2-4.6-10.9-12.4-27.2-12.4
			c-11.2,0-19.9,3.4-26,9.8c-6.1,6.6-9.2,16.5-9.2,29.3c0,13.1,3.1,23,9.2,29.6c5.9,6.3,14.6,9.5,26,9.5c12,0,23.6-5,29.2-12.3
			c1.6-2,2.3-4.2,2.3-7.1v-16.7C233.6,160.9,229.7,157.2,225.3,157.2z"/>
		<path fill="#EF484A" stroke="#EF484A" stroke-width="32" stroke-miterlimit="10" d="M295.6,157.2h-20.2c-4.3,0-7.9,3.5-7.9,7.9
			s3.5,7.9,7.9,7.9H287v8.1c-3.5,3.1-8,4.4-14.6,4.4c-6.3,0-10.5-1.6-13.3-5c-2.9-3.6-4.3-9.6-4.3-18.1c0-20.5,9.4-23.1,17.5-23.1
			c7.2,0,10.8,2.5,14.4,6.5c2.2,2.4,4.6,2.9,6.1,2.9c4.5,0,8.2-3.6,8.2-8.1c0-1.7-0.5-3.3-1.6-4.9c-3.2-4.6-10.9-12.4-27.2-12.4
			c-11.2,0-19.9,3.4-26,9.8c-6.1,6.6-9.2,16.5-9.2,29.3c0,13.1,3.1,23,9.2,29.6c5.9,6.3,14.6,9.5,26,9.5c12,0,23.6-5,29.2-12.3
			c1.6-2,2.3-4.2,2.3-7.1v-16.7C304,160.9,300.1,157.2,295.6,157.2z"/>
		<path fill="#EF484A" stroke="#EF484A" stroke-width="32" stroke-miterlimit="10" d="M359.8,123.9c-4.6,0-8.5,3.9-8.5,8.5v32.9
			l-26.1-37.9c-1.5-2.3-4.1-3.6-6.9-3.6c-4.6,0-8.5,3.9-8.5,8.5v59.9c0,4.6,3.9,8.5,8.5,8.5c4.6,0,8.5-3.9,8.5-8.5v-32.8l26,37.6
			c1.5,2.3,4.3,3.7,7,3.7c4.6,0,8.5-3.9,8.5-8.5v-59.9C368.4,127.7,364.5,123.9,359.8,123.9z"/>
		<path fill="#EF484A" stroke="#EF484A" stroke-width="32" stroke-miterlimit="10" d="M408,123.2c-11.3,0-20.2,3.3-26.3,9.8
			c-6.2,6.6-9.3,16.5-9.3,29.3c0,12.7,3.1,22.5,9.3,29.1c6.1,6.6,15,9.9,26.3,9.9c11.3,0,20.2-3.4,26.3-9.9
			c6.2-6.6,9.3-16.5,9.3-29.1c0-12.8-3.1-22.7-9.3-29.3C428.3,126.5,419.5,123.2,408,123.2z M408,185.3c-7.7,0-18-2.4-18-23
			c0-20.7,10.3-23.1,18-23.1c7.7,0,18,2.4,18,23.1C426,182.9,415.7,185.3,408,185.3z"/>
		<path fill="#EF484A" stroke="#EF484A" stroke-width="32" stroke-miterlimit="10" d="M504,157.2h-20.2c-4.3,0-7.9,3.5-7.9,7.9
			s3.5,7.9,7.9,7.9h11.6v8.1c-3.5,3.1-8,4.4-14.6,4.4c-6.3,0-10.5-1.6-13.3-5c-2.9-3.6-4.3-9.6-4.3-18.1c0-20.5,9.4-23.1,17.5-23.1
			c7.2,0,10.8,2.5,14.4,6.5c2.2,2.4,4.6,2.9,6.1,2.9c4.5,0,8.2-3.6,8.2-8.1c0-1.7-0.5-3.3-1.6-4.9c-3.2-4.6-10.9-12.4-27.2-12.4
			c-11.2,0-19.9,3.4-26,9.8c-6.1,6.6-9.2,16.5-9.2,29.3c0,13.1,3.1,23,9.2,29.6c5.9,6.3,14.6,9.5,26,9.5c12,0,23.6-5,29.2-12.3
			c1.6-2,2.3-4.2,2.3-7.1v-16.7C512.3,160.9,508.4,157.2,504,157.2z"/>
	</g>
	<g display="inline">
		<path fill="#FFCC29" d="M157.4,181.4h-25.1v-14h17.1c4.3,0,7.9-3.5,7.9-7.9s-3.5-7.9-7.9-7.9h-17.1v-13.5h23.9c4.4,0,8-3.5,8-8
			c0-4.4-3.5-8-8-8h-32.5c-4.8,0-8.6,3.9-8.6,8.6v58c0,4.8,3.9,8.6,8.6,8.6h33.7c4.4,0,8-3.5,8-8
			C165.4,185.1,161.8,181.4,157.4,181.4z"/>
		<path fill="#FFCC29" d="M225.3,154.7h-20.2c-4.3,0-7.9,3.5-7.9,7.9c0,4.3,3.5,7.9,7.9,7.9h11.6v8.1c-3.5,3.1-8,4.4-14.6,4.4
			c-6.3,0-10.5-1.6-13.3-5c-2.9-3.6-4.3-9.6-4.3-18.1c0-20.5,9.4-23.1,17.5-23.1c7.2,0,10.8,2.5,14.4,6.5c2.2,2.4,4.6,2.9,6.1,2.9
			c4.5,0,8.2-3.6,8.2-8.1c0-1.7-0.5-3.3-1.6-4.9c-3.2-4.6-10.9-12.4-27.2-12.4c-11.2,0-19.9,3.4-26,9.8c-6.1,6.6-9.2,16.5-9.2,29.3
			c0,13.1,3.1,23,9.2,29.6c5.9,6.3,14.6,9.5,26,9.5c12,0,23.6-5,29.2-12.3c1.6-2,2.3-4.2,2.3-7.1v-16.7
			C233.6,158.5,229.7,154.7,225.3,154.7z"/>
		<path fill="#FFF5DC" d="M295.6,154.7h-20.2c-4.3,0-7.9,3.5-7.9,7.9c0,4.3,3.5,7.9,7.9,7.9H287v8.1c-3.5,3.1-8,4.4-14.6,4.4
			c-6.3,0-10.5-1.6-13.3-5c-2.9-3.6-4.3-9.6-4.3-18.1c0-20.5,9.4-23.1,17.5-23.1c7.2,0,10.8,2.5,14.4,6.5c2.2,2.4,4.6,2.9,6.1,2.9
			c4.5,0,8.2-3.6,8.2-8.1c0-1.7-0.5-3.3-1.6-4.9c-3.2-4.6-10.9-12.4-27.2-12.4c-11.2,0-19.9,3.4-26,9.8c-6.1,6.6-9.2,16.5-9.2,29.3
			c0,13.1,3.1,23,9.2,29.6c5.9,6.3,14.6,9.5,26,9.5c12,0,23.6-5,29.2-12.3c1.6-2,2.3-4.2,2.3-7.1v-16.7
			C304,158.5,300.1,154.7,295.6,154.7z"/>
		<path fill="#FFF5DC" d="M359.8,121.4c-4.6,0-8.5,3.9-8.5,8.5v33L325.2,125c-1.5-2.3-4.1-3.6-6.9-3.6c-4.6,0-8.5,3.9-8.5,8.5v59.9
			c0,4.6,3.9,8.5,8.5,8.5c4.6,0,8.5-3.9,8.5-8.5V157l26,37.6c1.5,2.3,4.3,3.7,7,3.7c4.6,0,8.5-3.9,8.5-8.5v-59.9
			C368.4,125.3,364.5,121.4,359.8,121.4z"/>
		<path fill="#FFF5DC" d="M408,120.7c-11.3,0-20.2,3.3-26.3,9.8c-6.2,6.6-9.3,16.5-9.3,29.3c0,12.7,3.1,22.4,9.3,29.1
			c6.1,6.6,15,9.9,26.3,9.9c11.3,0,20.2-3.4,26.3-9.9c6.2-6.6,9.3-16.5,9.3-29.1c0-12.8-3.1-22.7-9.3-29.3
			C428.3,124,419.5,120.7,408,120.7z M408,182.9c-7.7,0-18-2.4-18-23c0-20.7,10.3-23.1,18-23.1c7.7,0,18,2.3,18,23
			S415.7,182.9,408,182.9z"/>
		<path fill="#FFF5DC" d="M504,154.7h-20.2c-4.3,0-7.9,3.5-7.9,7.9c0,4.3,3.5,7.9,7.9,7.9h11.6v8.1c-3.5,3.1-8,4.4-14.6,4.4
			c-6.3,0-10.5-1.6-13.3-5c-2.9-3.6-4.3-9.6-4.3-18.1c0-20.5,9.4-23.1,17.5-23.1c7.2,0,10.8,2.5,14.4,6.5c2.2,2.4,4.6,2.9,6.1,2.9
			c4.5,0,8.2-3.6,8.2-8.1c0-1.7-0.5-3.3-1.6-4.9c-3.2-4.6-10.9-12.4-27.2-12.4c-11.2,0-19.9,3.4-26,9.8c-6.1,6.6-9.2,16.5-9.2,29.3
			c0,13.1,3.1,23,9.2,29.6c5.8,6.3,14.6,9.5,26,9.5c12,0,23.6-5,29.2-12.3c1.6-2,2.3-4.2,2.3-7.1v-16.7
			C512.3,158.5,508.4,154.7,504,154.7z"/>
	</g>
	<path display="inline" fill="none" stroke="#EF484A" stroke-width="8" stroke-linecap="round" stroke-miterlimit="10" d="
		M88.1,190.2h-3c-3,0-5.4,2.5-5.4,5.4l0,0c0,3,2.5,5.4,5.4,5.4h2.8c5.4,0,9.8-4.4,9.8-9.8v-5c0-5.5-4.4-9.9-9.9-9.9h-5.2
		c-7.6,0-13.8,6.2-13.8,13.8v10.6c0,9.6,7.7,17.3,17.3,17.3h208.6c3.2,0,5.8,2.6,5.8,5.8l0,0c0,3.2-2.6,5.8-5.8,5.8h-8.6"/>
	<path display="inline" fill="none" stroke="#EF484A" stroke-width="8" stroke-linecap="round" stroke-miterlimit="10" d="M165,218
		H65.5c-4.2,0-7.5,3.4-7.5,7.5l0,0c0,4.2,3.4,7.5,7.5,7.5h1.2c4.2,0,7.5-3.4,7.5-7.5l0,0"/>
	<path display="inline" fill="none" stroke="#EF484A" stroke-width="8" stroke-linecap="round" stroke-miterlimit="10" d="
		M536.5,190.2h3c3,0,5.4,2.5,5.4,5.4l0,0c0,3-2.5,5.4-5.4,5.4h-2.8c-5.4,0-9.8-4.4-9.8-9.8v-5c0-5.5,4.4-9.9,9.9-9.9h5.2
		c7.6,0,13.8,6.2,13.8,13.8v10.6c0,9.6-7.7,17.3-17.3,17.3H330c-3.2,0-5.8,2.6-5.8,5.8l0,0c0,3.2,2.6,5.8,5.8,5.8h8.6"/>
	<path display="inline" fill="none" stroke="#EF484A" stroke-width="8" stroke-linecap="round" stroke-miterlimit="10" d="
		M459.6,218h99.5c4.2,0,7.5,3.4,7.5,7.5l0,0c0,4.2-3.4,7.5-7.5,7.5H558c-4.2,0-7.5-3.4-7.5-7.5l0,0"/>
	<path display="inline" fill="none" stroke="#FFCC29" stroke-width="8" stroke-linecap="round" stroke-miterlimit="10" d="
		M276.3,225.5H122.5c-6.1,0-11.1,5-11.1,11.1l0,0c0,6.4,5.1,11.5,11.5,11.5h12.3c4.2,0,7.6-3.5,7.6-7.6l0,0c0-4.1-3.3-7.4-7.4-7.4
		h-2.1c-4.3,0-7.7,3.5-7.7,7.7l0,0"/>
	<path display="inline" fill="none" stroke="#FFCC29" stroke-width="8" stroke-linecap="round" stroke-miterlimit="10" d="
		M348.3,225.5h153.8c6.1,0,11.1,5,11.1,11.1l0,0c0,6.4-5.1,11.5-11.5,11.5h-12.3c-4.2,0-7.6-3.5-7.6-7.6l0,0c0-4.1,3.3-7.4,7.4-7.4
		h2.1c4.3,0,7.7,3.5,7.7,7.7l0,0"/>
	<circle display="inline" fill="#FFF5DC" cx="102" cy="228.3" r="2.7"/>
	<circle display="inline" fill="#FFF5DC" cx="86.6" cy="228.3" r="2.7"/>
	<circle display="inline" fill="#FFF5DC" cx="94.8" cy="242.7" r="2.7"/>
	<circle display="inline" fill="#FFF5DC" cx="156.7" cy="236.9" r="2.7"/>
	<circle display="inline" fill="#FFF5DC" cx="522.6" cy="228.3" r="2.7"/>
	<circle display="inline" fill="#FFF5DC" cx="538" cy="228.3" r="2.7"/>
	<circle display="inline" fill="#FFF5DC" cx="529.9" cy="242.7" r="2.7"/>
	<circle display="inline" fill="#FFF5DC" cx="468" cy="236.9" r="2.7"/>
	
		<text transform="matrix(1 0 0 1 222.2256 107.7866)" display="inline" fill="#FFF5DC" font-family="'Bariol-Bold'" font-size="35.6004">THE SECRET</text>
	<g display="inline">
		<text transform="matrix(1 0 0 1 35.9218 846.4942)" fill="#EF484A" font-family="'Bariol-Bold'" font-size="21.8286">Once a year, a strange </text>
		<text transform="matrix(1 0 0 1 235.2466 846.4942)" fill="#FFCC29" font-family="'Bariol-Bold'" font-size="21.8286">GNOG</text>
		<text transform="matrix(1 0 0 1 293.6402 846.4942)" fill="#EF484A" font-family="'Bariol-Bold'" font-size="21.8286"> shows up. It is the </text>
		<text transform="matrix(1 0 0 1 457.7169 846.4942)" fill="#FFF5DC" font-family="'Bariol-Bold'" font-size="21.8286">EGGNOG</text>
		<text transform="matrix(1 0 0 1 542.2823 846.4942)" fill="#EF484A" font-family="'Bariol-Bold'" font-size="21.8286">. </text>
		<text transform="matrix(1 0 0 1 -19.1289 874.6357)" fill="#EF484A" font-family="'Bariol-Bold'" font-size="21.8286">Mistaken for a sweet beverage, he hides souvenirs of a beautiful voyage...</text>
		
			<line fill="none" stroke="#EF484A" stroke-width="8" stroke-linecap="round" stroke-miterlimit="10" x1="-19.1" y1="887.9" x2="612.1" y2="887.9"/>
	</g>
	<path display="inline" fill="#FFF5DC" d="M15.4,547.7l15.1-3.6c2.7-0.7,3.7-4,1.8-6l-42.5-44.9c-1.9-2-5.3-1.2-6.1,1.4L-34,553.8
		c-0.8,2.7,1.6,5.2,4.3,4.6l15.1-3.6c2.7-0.7,5.1,1.9,4.3,4.6l-12.4,41.8c-0.8,2.7,1.6,5.2,4.3,4.6l15.1-3.5
		c2.7-0.7,5.1,1.9,4.3,4.6l-12.4,41.8c-0.8,2.7,1.6,5.2,4.3,4.6l18.3-4.4c1.9-0.4,3.9,0.7,4.4,2.7l9.3,38.9
		c1.1,4.5,5.7,7.4,10.2,6.3l0,0c4.5-1.1,7.4-5.7,6.3-10.2l-9.3-38.9c-0.4-1.9,0.7-3.9,2.7-4.4l18.3-4.4c2.7-0.7,3.7-4,1.8-6
		l-29.9-31.6c-1.9-2-1-5.4,1.8-6l15.1-3.6c2.7-0.7,3.7-4,1.8-6l-29.9-31.6C11.7,551.6,12.7,548.3,15.4,547.7z"/>
	<path display="inline" fill="#FFF5DC" d="M-42.3,678.9l6-1.4c1.1-0.3,1.5-1.6,0.7-2.4L-52.7,657c-0.8-0.8-2.1-0.4-2.5,0.5
		l-7.1,23.8c-0.4,1.1,0.6,2.1,1.8,1.9l6-1.4c1.1-0.3,2,0.8,1.8,1.9l-5,16.8c-0.4,1.1,0.6,2.1,1.8,1.9l6-1.4c1.1-0.3,2,0.8,1.8,1.9
		l-5,16.8c-0.4,1.1,0.6,2.1,1.8,1.9l7.4-1.8c0.8-0.2,1.6,0.3,1.8,1.1l3.7,15.7c0.4,1.8,2.3,2.9,4.1,2.5l0,0c1.8-0.4,2.9-2.3,2.5-4.1
		l-3.7-15.7c-0.2-0.8,0.3-1.6,1.1-1.8l7.4-1.8c1.1-0.3,1.5-1.6,0.7-2.4l-12-12.8c-0.8-0.8-0.4-2.2,0.7-2.4l6-1.4
		c1.1-0.3,1.5-1.6,0.7-2.4l-12-12.8C-43.8,680.5-43.5,679.2-42.3,678.9z"/>
	<path display="inline" fill="#FFF5DC" d="M588.5,547.7l-15.1-3.6c-2.7-0.7-3.7-4-1.8-6l42.5-44.9c1.9-2,5.3-1.2,6.1,1.4l17.6,59.3
		c0.8,2.7-1.6,5.2-4.3,4.6l-15.1-3.6c-2.7-0.7-5.1,1.9-4.3,4.6l12.4,41.8c0.8,2.7-1.6,5.2-4.3,4.6l-15.1-3.6
		c-2.7-0.7-5.1,1.9-4.3,4.6l12.4,41.8c0.8,2.7-1.6,5.2-4.3,4.6l-18.3-4.4c-1.9-0.4-3.9,0.7-4.4,2.7l-9.3,38.9
		c-1.1,4.5-5.7,7.4-10.2,6.3l0,0c-4.5-1.1-7.4-5.7-6.3-10.2l9.3-38.9c0.4-1.9-0.7-3.9-2.7-4.4l-18.3-4.4c-2.7-0.7-3.7-4-1.8-6
		l29.9-31.6c1.9-2,1-5.4-1.8-6l-15.1-3.6c-2.7-0.7-3.7-4-1.8-6l29.9-31.6C592.2,551.6,591.3,548.3,588.5,547.7z"/>
	<path display="inline" fill="#FFF5DC" d="M646.3,678.9l-6-1.4c-1.1-0.3-1.5-1.6-0.7-2.4l17.1-18.1c0.8-0.8,2.1-0.4,2.5,0.5
		l7.1,23.8c0.4,1.1-0.6,2.1-1.8,1.9l-6-1.4c-1.1-0.3-2,0.8-1.8,1.9l5,16.8c0.4,1.1-0.6,2.1-1.8,1.9l-6-1.4c-1.1-0.3-2,0.8-1.8,1.9
		l5,16.8c0.4,1.1-0.6,2.1-1.8,1.9l-7.4-1.8c-0.8-0.2-1.6,0.3-1.8,1.1l-3.7,15.7c-0.4,1.8-2.3,2.9-4.1,2.5l0,0
		c-1.9-0.4-2.9-2.3-2.5-4.1l3.7-15.7c0.2-0.8-0.3-1.6-1.1-1.8l-7.4-1.8c-1.1-0.3-1.5-1.6-0.7-2.4l12-12.8c0.8-0.8,0.4-2.2-0.7-2.4
		l-6-1.4c-1.1-0.3-1.5-1.6-0.7-2.4l12-12.8C647.8,680.5,647.3,679.2,646.3,678.9z"/>
	<path display="inline" fill="#FFF5DC" d="M-71.5,527.6l-5.2,0.4c-0.6,0-1.2,0.4-1.3,1.2l-1.2,5.1c-0.4,1.4-2.3,1.5-2.8,0.2
		l-1.9-4.9c-0.3-0.6-0.9-1-1.5-0.9l-5.2,0.4c-1.4,0.1-2.1-1.7-1.1-2.6l4-3.4c0.4-0.4,0.7-1.1,0.4-1.7l-1.9-4.9
		c-0.5-1.3,1-2.6,2.1-1.8l4.4,2.7c0.5,0.4,1.2,0.3,1.7-0.1l4-3.4c1.1-0.9,2.7,0.1,2.4,1.5l-1.2,5.1c-0.2,0.6,0.1,1.2,0.6,1.6
		l4.4,2.7C-69.6,525.7-70.1,527.6-71.5,527.6z"/>
	<path display="inline" fill="#FFF5DC" d="M734.4,516.7l-5.2,0.4c-0.6,0-1.2,0.4-1.3,1.2l-1.2,5.1c-0.4,1.4-2.3,1.5-2.8,0.2
		l-1.9-4.9c-0.3-0.6-0.9-1-1.5-0.9l-5.2,0.4c-1.4,0.1-2.1-1.7-1.1-2.6l4-3.4c0.4-0.4,0.7-1.1,0.4-1.7l-1.9-4.9
		c-0.5-1.3,1-2.6,2.1-1.8l4.5,2.7c0.5,0.4,1.2,0.3,1.7-0.1l4-3.4c1.1-0.9,2.7,0.1,2.4,1.5l-1.2,5.1c-0.2,0.6,0.1,1.2,0.6,1.6
		l4.4,2.7C736.3,514.8,735.8,516.7,734.4,516.7z"/>
	<path display="inline" fill="#FFF5DC" d="M-13.3,411.1l-5.2,0.4c-0.6,0-1.2,0.4-1.3,1.2l-1.2,5.1c-0.4,1.4-2.3,1.5-2.8,0.2
		l-1.9-4.9c-0.3-0.6-0.9-1-1.5-0.9l-5.2,0.4c-1.4,0.1-2.1-1.7-1.1-2.6l4.1-3.4c0.4-0.4,0.7-1.1,0.4-1.7l-1.9-4.9
		c-0.5-1.3,1-2.6,2.1-1.8l4.4,2.7c0.5,0.4,1.2,0.3,1.7-0.1l4-3.4c1.1-0.9,2.7,0.1,2.4,1.5l-1.2,5.1c-0.2,0.6,0.1,1.2,0.6,1.6
		l4.4,2.7C-11.3,409-11.9,411-13.3,411.1z"/>
	<path display="inline" fill="#FFF5DC" d="M669,454.7l-5.2,0.4c-0.6,0-1.2,0.4-1.3,1.2l-1.2,5.1c-0.4,1.4-2.3,1.5-2.8,0.2l-1.9-4.9
		c-0.3-0.6-0.9-1-1.5-0.9l-5.2,0.4c-1.4,0.1-2.1-1.7-1.1-2.6l4-3.4c0.4-0.4,0.7-1.1,0.4-1.7l-1.9-4.9c-0.5-1.3,1-2.6,2.1-1.8
		l4.5,2.7c0.5,0.4,1.2,0.3,1.7-0.1l4-3.4c1.1-0.9,2.7,0.1,2.4,1.5l-1.2,5.1c-0.2,0.6,0.1,1.2,0.6,1.6l4.4,2.7
		C670.9,452.8,670.5,454.7,669,454.7z"/>
	<path display="inline" fill="#FFF5DC" d="M54.5,472.5l-5.2,0.4c-0.6,0-1.2,0.4-1.3,1.2l-1.2,5.1c-0.4,1.4-2.3,1.5-2.8,0.2l-1.9-4.9
		c-0.3-0.6-0.9-1-1.5-0.9l-5.2,0.4c-1.4,0.1-2.1-1.7-1.1-2.6l4.1-3.4c0.4-0.4,0.7-1.1,0.4-1.7l-1.9-4.9c-0.5-1.3,1-2.6,2.1-1.8
		l4.4,2.7c0.5,0.4,1.2,0.3,1.7-0.1l4-3.4c1.1-0.9,2.7,0.1,2.4,1.5l-1.2,5.1c-0.2,0.6,0.1,1.2,0.6,1.6l4.4,2.7
		C56.3,470.5,55.9,472.4,54.5,472.5z"/>
	<path display="inline" fill="#FFF5DC" d="M687.2,605l-5.2,0.4c-0.6,0-1.2,0.4-1.3,1.2l-1.2,5.1c-0.4,1.4-2.3,1.5-2.8,0.2l-1.9-4.9
		c-0.3-0.6-0.9-1-1.5-0.9l-5.3,0.3c-1.4,0.1-2.1-1.7-1.1-2.6l4-3.4c0.4-0.4,0.7-1.1,0.4-1.7l-1.9-4.9c-0.5-1.3,1-2.6,2.1-1.8
		l4.5,2.7c0.5,0.4,1.2,0.3,1.7-0.1l4-3.4c1.1-0.9,2.7,0.1,2.4,1.5l-1.2,5.1c-0.2,0.6,0.1,1.2,0.6,1.6l4.4,2.7
		C689.1,603.1,688.6,605,687.2,605z"/>
</g>
<g id="Layer_3">
	<g>
		<g>
			<path fill="#FFF5DC" d="M74.8,529.7c4.8,24.3,25.4,42.9,50.7,44.5h-12.9c-5.4,0-9.8,4.4-9.8,9.8l0,0c0,5.4,4.4,9.8,9.8,9.8H124
				c-1.7,1.8-2.7,4.2-2.7,6.8l0,0c0,5.4,4.4,9.8,9.8,9.8h11.5c-1.7,1.8-2.7,4.2-2.7,6.8l0,0c0,5.4,4.4,9.8,9.8,9.8h11.5
				c-1.7,1.8-2.7,4.2-2.7,6.8l0,0c0,5.4,4.4,9.8,9.8,9.8h14.5l1.2,3.5c4,18.2-2.3,37.2-16.4,49.4l-51.2,40.6
				c-3.4,2.7-5.3,6.8-5.2,11.1c0.2,7.5,6.3,13.6,13.8,13.6h356.7c7.9,0,14.3-6.5,14.1-14.4l0,0c-0.1-4.3-2.2-8.4-5.8-11.1
				l-53.7-39.9c-14.3-12.2-20.7-31.4-16.7-49.7l1.2-3.2h18.4c5.4,0,9.8-4.4,9.8-9.8l0,0c0-2.7-1.1-5-2.7-6.8h11.5
				c5.4,0,9.8-4.4,9.8-9.8l0,0c0-2.7-1.1-5-2.7-6.8h11.5c5.4,0,9.8-4.4,9.8-9.8l0,0c0-2.7-1.1-5-2.7-6.8h11.5c5.4,0,9.8-4.4,9.8-9.8
				l0,0c0-5.4-4.4-9.8-9.8-9.8h-12.9c28.8-1.9,51.6-25.9,51.6-55.2c0-18.6-9.3-35.2-23.4-45.2V322.4h21.6c5.4,0,9.9-4.4,9.9-9.9l0,0
				c0-5.4-4.4-9.9-9.9-9.9H73.5c-5.4,0-9.9,4.4-9.9,9.9l0,0c0,5.4,4.4,9.9,9.9,9.9h24.2c0,4.1-0.1,9.2-0.1,15.1c-0.1,0-0.3,0-0.4,0
				C43.7,337.7,0,381.3,0,435C0,480.9,32,519.5,74.8,529.7z M46.3,435c0-28.1,22.9-51,51-51c0.1,0,0.1,0,0.2,0
				c-0.1,28.3-0.2,61-0.3,89.7c-4.3,3.1-8.2,6.7-11.5,10.9C63.1,479.4,46.3,459.1,46.3,435z"/>
		</g>
		<g>
			<path fill="#EF484A" d="M441.1,321.7H160.9c-22.3,0-40.4,18.1-40.4,40.4v171.3c0,22.3,18.1,40.4,40.4,40.4h19.4
				c22.3,0,40.4,18.1,40.4,40.4v58.5c0,22.3,18.1,40.4,40.4,40.4H341c22.3,0,40.4-18.1,40.4-40.4v-58.5c0-22.3,18.1-40.4,40.4-40.4
				h19.4c22.3,0,40.4-18.1,40.4-40.4V362.1C481.5,339.8,463.4,321.7,441.1,321.7z"/>
		</g>
		<g>
			<polyline fill="#FFCC29" points="120.6,463.7 224.2,510.6 154.9,531.7 120.6,528 			"/>
		</g>
		<g>
			<path fill="#EF484A" stroke="#EF484A" stroke-width="65.3559" stroke-miterlimit="10" d="M120.6,514.6"/>
		</g>
		<g>
			<rect x="179.6" y="402.8" fill="#873533" width="106.6" height="84.9"/>
		</g>
		<g>
			<rect x="179.6" y="487.6" fill="#631D1D" width="10.2" height="40.4"/>
		</g>
		<g>
			<rect x="276.1" y="487.6" fill="#631D1D" width="10.2" height="40.4"/>
		</g>
		<g>
			<path fill="#873533" d="M359.3,528h-10.2v-68.1c0-2.8,2.3-5,5-5l0,0c2.8,0,5,2.3,5,5L359.3,528z"/>
		</g>
		<g>
			<path fill="#83FFD6" d="M464.8,510.7c-3.6,1.5-6.7,2.7-13.4,2.7c-6.6,0-9.7-1.2-13.4-2.7c-3.9-1.6-8.3-3.5-16.7-3.5
				c-8.4,0-12.8,1.8-16.7,3.5c-3.6,1.5-6.7,2.7-13.4,2.7c-6.6,0-9.7-1.2-13.4-2.7c-3.9-1.6-8.3-3.5-16.7-3.5
				c-8.4,0-12.8,1.8-16.7,3.5c-3.6,1.5-6.7,2.7-13.4,2.7s-9.7-1.2-13.4-2.7c-3.9-1.6-8.3-3.5-16.7-3.5c-8.4,0-12.8,1.8-16.7,3.5
				c-3.6,1.5-6.7,2.7-13.4,2.7s-9.7-1.2-13.4-2.7c-3.9-1.6-8.3-3.5-16.7-3.5c-8.4,0-12.8,1.8-16.7,3.5c-3.6,1.5-6.7,2.7-13.4,2.7
				s-9.7-1.2-13.4-2.7c-3.9-1.6-8.3-3.5-16.7-3.5c-8.4,0-12.8,1.8-16.7,3.5c-3.6,1.5-6.7,2.7-13.4,2.7s-9.7-1.2-13.4-2.7
				c-3.9-1.6-8.3-3.5-16.7-3.5v7.4v1.2v17.4c0,22.3,18.1,40.4,40.4,40.4h19.4c22.3,0,40.4,18.1,40.4,40.4v58.5
				c0,22.3,18.1,40.4,40.4,40.4H341c22.3,0,40.4-18.1,40.4-40.4v-58.5c0-22.3,18.1-40.4,40.4-40.4h19.3c22.3,0,40.4-18.1,40.4-40.4
				v-17.4v-1.2v-7.4C473,507.3,468.7,509,464.8,510.7z"/>
		</g>
		<g>
			<polygon fill="#9B4242" points="305.7,416.8 163,416.8 175.3,376.5 293.3,376.5 			"/>
		</g>
		<g>
			<polygon fill="#9B4242" points="376.9,489.5 470.3,489.5 462.2,515.9 384.9,515.9 			"/>
		</g>
		<g>
			<circle fill="#FFCC29" cx="415.3" cy="389.8" r="40.2"/>
		</g>
		<g>
			<rect x="286.2" y="478.5" fill="#9B4242" width="63.1" height="9.3"/>
		</g>
		<g>
			<rect x="189.8" y="424.7" fill="#631D1D" width="86.2" height="34"/>
		</g>
		<g>
			<rect x="231" y="424.7" fill="#9B4242" width="5.1" height="34"/>
		</g>
		<g>
			<g>
				<path fill="#FFF5DC" d="M412.1,378.4h-74.4c-3.4,0-6,2.7-6,6l0,0c0,3.4,2.7,6,6,6h74.4c3.4,0,6-2.7,6-6l0,0
					C418.2,381.1,415.5,378.4,412.1,378.4z"/>
			</g>
			<g>
				<path fill="#FFF5DC" d="M396.8,395.9h-11.2c-1.5,0-2.7-1.2-2.7-2.7s1.2-2.7,2.7-2.7h-20.7c1.5,0,2.7,1.2,2.7,2.7l0,0
					c0,1.5-1.2,2.7-2.7,2.7h-11.6c-1.9,0-3.5,1.6-3.5,3.5c0,1.9,1.6,3.5,3.5,3.5h43.6c1.9,0,3.5-1.6,3.5-3.5l0,0
					C400.2,397.5,398.6,395.9,396.8,395.9z"/>
			</g>
		</g>
		<g>
			<g>
				<path fill="#FFF5DC" d="M409.2,366h53.8c2.4,0,4.3-1.9,4.3-4.3l0,0c0-2.4-1.9-4.3-4.3-4.3h-53.8c-2.4,0-4.3,1.9-4.3,4.3l0,0
					C404.8,364.1,406.8,366,409.2,366z"/>
			</g>
			<g>
				<path fill="#FFF5DC" d="M420.3,353.3h8.1c1.1,0,1.9,0.9,1.9,1.9s-0.9,1.9-1.9,1.9h15c-1.1,0-1.9-0.9-1.9-1.9l0,0
					c0-1.1,0.9-1.9,1.9-1.9h8.4c1.4,0,2.6-1.2,2.6-2.6c0-1.4-1.2-2.6-2.6-2.6h-31.4c-1.4,0-2.6,1.2-2.6,2.6l0,0
					C417.8,352.2,418.9,353.3,420.3,353.3z"/>
			</g>
		</g>
		<g>
			<path fill="#FFF5DC" d="M405.4,410.6h-10.2c-0.5,0-1.1-0.4-1.1-1.1v-0.6c0-0.5,0.4-1.1,1.1-1.1h10.2c0.5,0,1.1,0.4,1.1,1.1v0.7
				C406.4,410.1,406,410.6,405.4,410.6z"/>
		</g>
		<g>
			<path fill="#FFF5DC" d="M470.4,431.5h-10.2c-0.5,0-1.1-0.4-1.1-1.1v-0.7c0-0.5,0.4-1.1,1.1-1.1h10.2c0.5,0,1.1,0.4,1.1,1.1v0.7
				C471.4,431,471,431.5,470.4,431.5z"/>
		</g>
		<g>
			<path fill="#FFF5DC" d="M336.7,372.4h-10.2c-0.5,0-1.1-0.4-1.1-1.1v-0.7c0-0.5,0.4-1.1,1.1-1.1h10.2c0.5,0,1.1,0.4,1.1,1.1v0.7
				C337.9,371.9,337.4,372.4,336.7,372.4z"/>
		</g>
		<g>
			<path fill="#FFF5DC" d="M399.2,348.3H389c-0.5,0-1.1-0.4-1.1-1.1v-0.7c0-0.5,0.4-1.1,1.1-1.1h10.2c0.5,0,1.1,0.4,1.1,1.1v0.7
				C400.2,347.8,399.8,348.3,399.2,348.3z"/>
		</g>
		<g>
			<path fill="#83FFD6" d="M464.2,510.7c-3.6,1.5-6.7,2.7-13.4,2.7c-6.6,0-9.7-1.2-13.4-2.7c-3.9-1.6-8.3-3.5-16.7-3.5
				c-8.4,0-12.8,1.8-16.7,3.5c-3.6,1.5-6.7,2.7-13.4,2.7s-9.7-1.2-13.4-2.7c-3.9-1.6-8.3-3.5-16.7-3.5c-8.4,0-12.8,1.8-16.7,3.5
				c-3.6,1.5-6.7,2.7-13.4,2.7s-9.7-1.2-13.4-2.7c-3.9-1.6-8.3-3.5-16.7-3.5c-8.4,0-12.8,1.8-16.7,3.5c-3.6,1.5-6.7,2.7-13.4,2.7
				s-9.7-1.2-13.4-2.7c-3.9-1.6-8.3-3.5-16.7-3.5c-8.4,0-12.8,1.8-16.7,3.5c-3.6,1.5-6.7,2.7-13.4,2.7s-9.7-1.2-13.4-2.7
				c-3.9-1.6-8.3-3.5-16.7-3.5c-8.4,0-12.8,1.8-16.7,3.5c-3.6,1.5-6.7,2.7-13.4,2.7s-9.7-1.2-13.4-2.7c-3.9-1.6-8.3-3.5-16.7-3.5
				v7.4v1.2v17.4c0,22.3,18.1,40.4,40.4,40.4h19.4c22.3,0,40.4,18.1,40.4,40.4v58.5c0,22.3,18.1,40.4,40.4,40.4h79.3
				c22.3,0,40.4-18.1,40.4-40.4v-58.5c0-22.3,18.1-40.4,40.4-40.4h19.3c22.3,0,40.4-18.1,40.4-40.4v-17.4v-1.2v-7.4
				C472.4,507.3,468.1,509,464.2,510.7z"/>
		</g>
		<g>
			<g>
				<path fill="#4BE0AA" d="M260.2,639.6c0,0,18.2-23,40.8-23s40.8,23.1,40.8,23.1s-18.2,23-40.8,23
					C278.5,662.6,260.2,639.6,260.2,639.6z"/>
			</g>
			<g>
				<path fill="#4BE0AA" d="M335.3,641.1c0,0-0.8-6.6,2.8-10.1c3.5-3.5,10.1-2.8,10.1-2.8s0.7,6.6-2.8,10.1
					C341.9,641.8,335.3,641.1,335.3,641.1z"/>
			</g>
			<g>
				<path fill="#4BE0AA" d="M335.3,635.6c0,0-0.8,6.6,2.8,10.1c3.5,3.5,10.1,2.8,10.1,2.8s0.8-6.6-2.8-10.1
					C341.9,634.9,335.3,635.6,335.3,635.6z"/>
			</g>
			<g>
				<circle fill="#83FFD6" cx="286.8" cy="639.6" r="9.9"/>
			</g>
			<g>
				<circle fill="#4BE0AA" cx="286.8" cy="639.6" r="4.1"/>
			</g>
			<g>
				<path fill="#4BE0AA" d="M421.4,547.9c0,0-7.4,9.4-16.6,9.4c-9.1,0-16.5-9.4-16.5-9.4s7.4-9.4,16.6-9.4
					C414.1,538.5,421.4,547.9,421.4,547.9z"/>
			</g>
			<g>
				<path fill="#4BE0AA" d="M390.9,547.4c0,0,0.3,2.7-1.2,4.1c-1.4,1.4-4.1,1.2-4.1,1.2s-0.3-2.7,1.2-4.1
					C388.3,547,390.9,547.4,390.9,547.4z"/>
			</g>
			<g>
				<path fill="#4BE0AA" d="M390.9,549.5c0,0,0.3-2.7-1.2-4.1c-1.4-1.4-4.1-1.2-4.1-1.2s-0.3,2.7,1.2,4.1
					C388.3,549.8,390.9,549.5,390.9,549.5z"/>
			</g>
			<g>
				<circle fill="#83FFD6" cx="410.6" cy="547.9" r="4"/>
			</g>
			<g>
				<circle fill="#4BE0AA" cx="410.6" cy="547.9" r="1.7"/>
			</g>
			<g>
				<path fill="#4BE0AA" d="M321.2,574.3c0,0,7.4-9.4,16.6-9.4c9.1,0,16.6,9.4,16.6,9.4s-7.4,9.4-16.6,9.4
					C328.6,583.6,321.2,574.3,321.2,574.3z"/>
			</g>
			<g>
				<path fill="#4BE0AA" d="M351.6,574.9c0,0-0.3-2.7,1.2-4.1c1.4-1.4,4.1-1.2,4.1-1.2s0.3,2.7-1.2,4.1
					C354.3,575.2,351.6,574.9,351.6,574.9z"/>
			</g>
			<g>
				<path fill="#4BE0AA" d="M351.6,572.7c0,0-0.3,2.7,1.2,4.1c1.4,1.4,4.1,1.2,4.1,1.2s0.3-2.7-1.2-4.1
					C354.3,572.4,351.6,572.7,351.6,572.7z"/>
			</g>
			<g>
				<circle fill="#83FFD6" cx="332" cy="574.3" r="4"/>
			</g>
			<g>
				<circle fill="#4BE0AA" cx="332" cy="574.3" r="1.7"/>
			</g>
			<g>
				<path fill="#4BE0AA" d="M179.5,539.7c0,0-5.9,7.4-13.2,7.4c-7.4,0-13.2-7.4-13.2-7.4s5.9-7.4,13.2-7.4
					C173.6,532.2,179.5,539.7,179.5,539.7z"/>
			</g>
			<g>
				<path fill="#4BE0AA" d="M155.2,539.2c0,0,0.3,2.1-0.9,3.3c-1.2,1.2-3.3,0.9-3.3,0.9s-0.3-2.1,0.9-3.3
					C153,538.9,155.2,539.2,155.2,539.2z"/>
			</g>
			<g>
				<path fill="#4BE0AA" d="M155.2,540.9c0,0,0.3-2.1-0.9-3.3c-1.2-1.2-3.3-0.9-3.3-0.9s-0.3,2.1,0.9,3.3
					C153,541.2,155.2,540.9,155.2,540.9z"/>
			</g>
			<g>
				<circle fill="#83FFD6" cx="170.8" cy="539.7" r="3.2"/>
			</g>
			<g>
				<circle fill="#4BE0AA" cx="170.8" cy="539.7" r="1.3"/>
			</g>
			<g>
				<circle fill="#4BE0AA" cx="254.1" cy="619.9" r="3.4"/>
			</g>
			<g>
				<circle fill="#4BE0AA" cx="261" cy="607.4" r="1.8"/>
			</g>
			<g>
				<circle fill="#4BE0AA" cx="238.1" cy="572.7" r="2.1"/>
			</g>
			<g>
				<circle fill="#4BE0AA" cx="232.1" cy="580.7" r="1.3"/>
			</g>
			<g>
				<circle fill="#4BE0AA" cx="265.1" cy="617.1" r="1.2"/>
			</g>
			<g>
				<circle fill="#4BE0AA" cx="274.5" cy="535.2" r="3.5"/>
			</g>
		</g>
		<g>
			<path fill="#9B4242" d="M384.4,492.9c-9-1.2-16.9-6.5-22.9-15.5c-4.4-6.7-6.1-13-6.2-13.3l3-0.8l0,0l0,0c0,0.1,1.7,6.2,5.8,12.5
				c5.4,8.3,12.3,13,20.5,14.1L384.4,492.9z"/>
		</g>
		<g>
			<rect x="349.2" y="462.2" fill="#9B4242" width="10.2" height="3.1"/>
		</g>
		<g>
			<rect x="189.8" y="365.4" fill="#873533" width="17.7" height="11.2"/>
		</g>
		<g>
			<rect x="145" y="424.7" fill="#FFCC29" width="5.4" height="63.1"/>
		</g>
		<g>
			<path fill="#FFCC29" d="M129.6,438.8c0,0,1.6-6.6,6.6-11.5c5-5,11.5-6.6,11.5-6.6s-1.6,6.6-6.6,11.5
				C136,437.2,129.6,438.8,129.6,438.8z"/>
		</g>
		<g>
			<path fill="#FFCC29" d="M165.7,438.8c0,0-1.6-6.6-6.6-11.5c-5-5-11.5-6.6-11.5-6.6s1.6,6.6,6.6,11.5
				C159.2,437.2,165.7,438.8,165.7,438.8z"/>
		</g>
		<g>
			<path fill="#FFCC29" d="M166.2,486.1c0,0,0.5-4.1-1.6-7.4c-2.1-3.3-6-4.5-6-4.5s-0.5,4.1,1.6,7.4
				C162.3,484.9,166.2,486.1,166.2,486.1z"/>
		</g>
		<g>
			<path fill="#FFCC29" d="M165.5,486.1c0,0-0.5-4.1,1.6-7.4c2.1-3.3,6-4.5,6-4.5s0.5,4.1-1.6,7.4
				C169.4,484.9,165.5,486.1,165.5,486.1z"/>
		</g>
		<g>
			<path fill="#FFCC29" d="M169.4,423c0,0-5.8-3.5-12.8-3.5s-12.8,3.5-12.8,3.5s5.8,3.5,12.8,3.5S169.4,423,169.4,423z"/>
		</g>
		<g>
			<path fill="#FFCC29" d="M125.4,423c0,0,5.8-3.5,12.8-3.5c7.1,0,12.8,3.5,12.8,3.5s-5.8,3.5-12.8,3.5S125.4,423,125.4,423z"/>
		</g>
		<g>
			<path fill="#FFCC29" d="M132.9,406.7c0,0,6.6,1.6,11.5,6.6s6.6,11.5,6.6,11.5s-6.6-1.6-11.5-6.6
				C134.5,413.3,132.9,406.7,132.9,406.7z"/>
		</g>
		<g>
			<path fill="#FFCC29" d="M161.6,407c0,0-6.6,1.6-11.5,6.6c-5,5-6.6,11.5-6.6,11.5s6.6-1.6,11.5-6.6S161.6,407,161.6,407z"/>
		</g>
		<g>
			<rect x="184.4" y="365.4" fill="#631D1D" width="28.7" height="4.2"/>
		</g>
		<g>
			<rect x="372.6" y="489.5" fill="#631D1D" width="102.6" height="5.1"/>
		</g>
	</g>
</g>
<g id="Layer_4" display="none">
	<g display="inline">
		<g>
			<path fill="#FFF5DC" d="M110.1,451.6l384.8,1.2l-73.2,194.7c-4.1,18.2,2.1,37.2,16.2,49.5l51,40.7c3.4,2.7,5.3,6.8,5.1,11.1l0,0
				c-0.2,7.5-6.3,13.6-13.8,13.6l-356.8-1.2c-7.9,0-14.3-6.6-14.1-14.4l0,0c0.1-4.3,2.2-8.4,5.8-11.1L169,696
				c14.3-12.1,20.8-31.3,16.8-49.7L110.1,451.6z"/>
		</g>
		<g>
			
				<rect x="251.2" y="609.3" transform="matrix(1 3.197084e-03 -3.197084e-03 1 2.0452 -0.9668)" fill="#491016" width="104.4" height="59.9"/>
		</g>
		<g>
			<path fill="#FFF5DC" d="M509.1,533h-0.3c-13.1,0-25.9-2.7-37.8-7.8c-11.6-5-22-12-30.8-20.9s-15.9-19.4-20.7-31
				c-5-12-7.5-24.8-7.5-37.9s2.7-25.8,7.7-37.8c5-11.5,12-22,20.9-30.8c8.9-8.9,19.3-15.9,30.9-20.7c12-5,24.7-7.6,37.8-7.6h0.3
				c13.1,0,25.9,2.7,37.8,7.8c11.6,5,22,12,30.8,20.9c8.9,8.9,15.9,19.4,20.7,31c5,12,7.5,24.8,7.5,37.9s-2.7,25.8-7.7,37.8
				c-5,11.5-12,22-20.9,30.8c-8.9,8.9-19.3,15.9-30.9,20.7C534.9,530.5,522.2,533,509.1,533z M509.1,384.8c-13.6,0-26.4,5.3-36,14.9
				c-9.7,9.6-15,22.3-15,36c-0.1,28.1,22.7,51,50.8,51.1h0.2c13.6,0,26.4-5.3,36-14.9c9.7-9.6,15-22.3,15-36
				c0-13.6-5.2-26.5-14.8-36.1s-22.4-15-36-15.1L509.1,384.8z"/>
		</g>
		<g>
			<path fill="#FFF5DC" d="M201.4,593.4l-90.7-0.3c-5.4,0-9.8-4.4-9.7-9.8l0,0c0-5.4,4.4-9.8,9.8-9.7l90.7,0.3
				c5.4,0,9.8,4.4,9.7,9.8l0,0C211.2,589.1,206.8,593.4,201.4,593.4z"/>
		</g>
		<g>
			<path fill="#FFF5DC" d="M219.9,610.2l-90.7-0.3c-5.4,0-9.8-4.4-9.7-9.8l0,0c0-5.4,4.4-9.8,9.8-9.7l90.7,0.3
				c5.4,0,9.8,4.4,9.7,9.8l0,0C229.7,605.8,225.3,610.2,219.9,610.2z"/>
		</g>
		<g>
			<path fill="#FFF5DC" d="M238.4,626.8l-90.7-0.3c-5.4,0-9.8-4.4-9.7-9.8l0,0c0-5.4,4.4-9.8,9.8-9.7l90.7,0.3
				c5.4,0,9.8,4.4,9.7,9.8l0,0C248.3,622.4,243.8,626.8,238.4,626.8z"/>
		</g>
		<g>
			<path fill="#FFF5DC" d="M222.7,643.4l-58.2-0.2c-4.4,0-8.1-3.6-8.1-8.1v-3.5c0-4.4,3.6-8.1,8.1-8.1l58.2,0.2
				c4.4,0,8.1,3.6,8.1,8.1v3.5C230.7,639.8,227.1,643.4,222.7,643.4z"/>
		</g>
		<g>
			<path fill="#FFF5DC" d="M402.7,594.2l90.7,0.3c5.4,0,9.8-4.4,9.8-9.7l0,0c0-5.4-4.4-9.8-9.7-9.8l-90.7-0.4
				c-5.4,0-9.8,4.4-9.8,9.7l0,0C392.9,589.6,397.3,594.1,402.7,594.2z"/>
		</g>
		<g>
			<path fill="#FFF5DC" d="M384.1,610.7l90.7,0.3c5.4,0,9.8-4.4,9.8-9.7l0,0c0-5.4-4.4-9.8-9.7-9.8l-90.7-0.3
				c-5.4,0-9.8,4.4-9.8,9.7l0,0C374.3,606.2,378.7,610.6,384.1,610.7z"/>
		</g>
		<g>
			<path fill="#FFF5DC" d="M365.5,627.2l90.7,0.3c5.4,0,9.8-4.4,9.8-9.7l0,0c0-5.4-4.4-9.8-9.7-9.8l-90.7-0.3
				c-5.4,0-9.8,4.4-9.8,9.7l0,0C355.8,622.8,360.1,627.2,365.5,627.2z"/>
		</g>
		<g>
			<path fill="#FFF5DC" d="M382.2,643.9l57.2,0.2c4.4,0,8-3.5,8.1-8v-3.6c0-4.4-3.5-8-8-8.1l-57.2-0.2c-4.4,0-8,3.5-8.1,8v3.6
				C374.2,640.3,377.8,643.8,382.2,643.9z"/>
		</g>
		<g>
			<path fill="#FFF5DC" d="M508.7,312.9v-5.6L96.2,306l-0.7,227.9l-0.1,16.5v-2c0,8.8,7.1,15.9,15.9,15.9l0,0
				c8.8,0,15.9-7.1,15.9-15.9c0,8.8,7.1,15.9,15.9,15.9l0,0c8.8,0,15.9-7.1,15.9-15.9c0,8.8,7.1,15.9,15.9,15.9l0,0
				c8.8,0,15.9-7.1,15.9-15.9c0,8.8,7.1,15.9,15.9,15.9l0,0c8.8,0,15.9-7.1,15.9-15.9c0,8.8,7.1,15.9,15.9,15.9l0,0
				c8.8,0,15.9-7.1,15.9-15.9c0,8.8,7.1,15.9,15.9,15.9l0,0c8.8,0,15.9-7.1,15.9-15.9c0,8.8,7.1,15.9,15.9,15.9l0,0
				c8.8,0,15.9-7.1,15.9-15.9c0,8.8,7.1,15.9,15.9,15.9l0,0c8.8,0,15.9-7.1,15.9-15.9c0,8.8,7.1,15.9,15.9,15.9l0,0
				c8.8,0,15.9-7.1,15.9-15.9c0,8.8,7.1,15.9,15.9,15.9l0,0c8.8,0,15.9-7.1,15.9-15.9c0,8.8,7.1,15.9,15.9,15.9l0,0
				c8.8,0,15.9-7.1,15.9-15.9c0,8.8,7.1,15.9,15.9,15.9l0,0c8.8,0,15.9-7.1,15.9-15.9c0,8.8,7.1,15.9,15.9,15.9l0,0
				c8.8,0,15.9-7.1,15.9-15.9l0,0C508.9,547.8,509.4,314.5,508.7,312.9z"/>
		</g>
		<g>
			<g>
				<path fill="#FCD98D" d="M127.4,500.9C127.5,500.9,127.5,500.9,127.4,500.9l112.3,0.4c9.7,0,17.5,8,17.5,17.6l0,0
					c0,9.7-8,17.5-17.5,17.5c0,0,0,0-0.1,0l-112.2-0.4c-9.7,0-17.5-8-17.5-17.6C109.9,508.8,117.9,500.9,127.4,500.9 M127.4,463.3
					L127.4,463.3L127.4,463.3c-7.4,0-14.7,1.5-21.5,4.3c-6.6,2.7-12.4,6.7-17.4,11.8c-5,5-9,10.9-11.9,17.4
					c-2.9,6.8-4.4,14.1-4.4,21.5c-0.1,30.5,24.6,55.4,55.1,55.4l112.1,0.4c0.1,0,0.2,0,0.2,0c7.4,0,14.7-1.5,21.5-4.3
					c6.6-2.7,12.4-6.7,17.4-11.8s9-10.9,11.9-17.4c2.9-6.8,4.4-14.1,4.4-21.5c0.1-30.5-24.6-55.4-55.1-55.4l-112.1-0.4
					C127.6,463.3,127.5,463.3,127.4,463.3L127.4,463.3z"/>
			</g>
		</g>
		<g>
			<g>
				<path fill="#FCD98D" d="M364.9,501.7C365,501.7,365,501.7,364.9,501.7l112.3,0.4c9.7,0,17.5,8,17.5,17.6c0,9.7-8,17.5-17.5,17.5
					c0,0,0,0-0.1,0l-112.2-0.4c-9.7,0-17.5-8-17.5-17.6l0,0C347.4,509.6,355.3,501.7,364.9,501.7 M364.9,464L364.9,464L364.9,464
					c-7.4,0-14.7,1.5-21.5,4.3c-6.6,2.7-12.4,6.7-17.4,11.8c-5,5-9,10.9-11.9,17.4c-2.9,6.8-4.4,14.1-4.4,21.5
					c-0.1,30.5,24.6,55.4,55.1,55.4l112.1,0.4c0.1,0,0.2,0,0.2,0c7.4,0,14.7-1.5,21.5-4.3c6.6-2.7,12.4-6.7,17.4-11.8
					c5-5,9-10.9,11.9-17.4c2.9-6.8,4.4-14.1,4.4-21.5c0.1-30.5-24.6-55.4-55.1-55.4L365.1,464C365.1,464,365,464,364.9,464
					L364.9,464z"/>
			</g>
		</g>
		<g>
			<g>
				<path fill="#EF484A" d="M236.3,593l54.9-94.4c5-8.6,17.4-8.6,22.3,0.1l54.3,94.8c5,8.6-1.3,19.4-11.2,19.3l-109.2-0.4
					C237.4,612.4,231.3,601.6,236.3,593z"/>
			</g>
		</g>
		<g>
			<g>
				<path fill="#EF484A" d="M263.8,545.9l-27.5,47.2c-5,8.6,1.2,19.4,11.1,19.4l54.6,0.2C267.8,612.5,246.6,575.5,263.8,545.9z"/>
			</g>
			<g>
				<path fill="#FF6E75" d="M313.5,498.8c-5-8.6-17.4-8.7-22.3-0.1l-27.5,47.2c17.2-29.6,60-29.4,77,0.3l0,0"/>
			</g>
		</g>
		<g>
			<g>
				<path fill="#CE000B" d="M362.3,680.2L307,727.8c-3.1,2.7-7.5,2.6-10.6,0l-55-48c-5.7-5-2.1-14.3,5.3-14.3l110.4,0.4
					C364.5,666,368,675.3,362.3,680.2z"/>
			</g>
		</g>
		<g>
			<g>
				<path fill="#FFCC29" d="M127.4,539.8c-5.7,0-11-2.3-15-6.3c-4-4.1-6.2-9.4-6.2-15.1c0-11.7,9.6-21.2,21.3-21.2l112.3,0.4
					c11.8,0,21.3,9.7,21.2,21.3c0,11.7-9.6,21.2-21.3,21.2L127.4,539.8z"/>
			</g>
			<g>
				<g>
					<path fill="#FFF5DC" d="M127.4,500.9C127.5,500.9,127.5,500.9,127.4,500.9l112.3,0.4c9.7,0,17.5,8,17.5,17.6
						c0,9.7-8,17.5-17.5,17.5c0,0,0,0-0.1,0l-112.2-0.4c-9.7,0-17.5-8-17.5-17.6l0,0C109.9,508.8,117.9,500.9,127.4,500.9
						 M127.4,493.5c-13.7,0-25,11.2-25,24.9c0,13.8,11.2,25.1,24.9,25.1l112.2,0.4h0.1c13.7,0,25-11.2,25-24.9
						c0-13.8-11.2-25.1-24.9-25.1L127.4,493.5L127.4,493.5L127.4,493.5z"/>
				</g>
			</g>
		</g>
		<g>
			<g>
				<path fill="#FFCC29" d="M364.9,540.6c-5.7,0-11-2.3-15-6.3c-4-4.1-6.2-9.4-6.2-15.1c0-11.7,9.6-21.2,21.3-21.2l112.3,0.4
					c11.8,0,21.3,9.7,21.2,21.3c0,11.7-9.6,21.2-21.3,21.2L364.9,540.6z"/>
			</g>
			<g>
				<g>
					<path fill="#FFF5DC" d="M364.9,501.7C365,501.7,365,501.7,364.9,501.7l112.3,0.4c9.7,0,17.5,8,17.5,17.6
						c0,9.7-8,17.5-17.5,17.5c0,0,0,0-0.1,0l-112.2-0.4c-9.7,0-17.5-8-17.5-17.6C347.4,509.6,355.3,501.7,364.9,501.7 M364.9,494.2
						c-13.7,0-25,11.2-25,24.9c0,6.6,2.6,12.9,7.3,17.7c4.7,4.8,11,7.4,17.6,7.4l112.2,0.4h0.1c13.7,0,25-11.2,25-24.9
						c0-13.8-11.2-25.1-24.9-25.1L364.9,494.2L364.9,494.2L364.9,494.2z"/>
				</g>
			</g>
		</g>
		<g>
			<g>
				<path fill="#CE000B" d="M292.4,582L292.4,582c2,0,3.7,1.7,3.7,3.7V598c0,2-1.7,3.7-3.7,3.7l0,0c-2,0-3.7-1.7-3.7-3.7v-12.3
					C288.7,583.7,290.4,582,292.4,582z"/>
			</g>
			<g>
				<path fill="#CE000B" d="M311.8,582.1L311.8,582.1c2,0,3.7,1.7,3.7,3.7v12.3c0,2-1.7,3.7-3.7,3.7l0,0c-2,0-3.7-1.7-3.7-3.7v-12.3
					C308,583.8,309.7,582.1,311.8,582.1z"/>
			</g>
		</g>
		<g>
			<path fill="#EF484A" d="M215.5,513.8l-63.8-0.2c-2.7,0-5,2.2-5,5l0,0c0,2.7,2.2,5,5,5l63.8,0.2c2.7,0,5-2.2,5-5l0,0
				C220.4,516,218.2,513.8,215.5,513.8z"/>
		</g>
		<g>
			<path fill="#EF484A" d="M452.9,514.6l-63.8-0.2c-2.7,0-5,2.2-5,5l0,0c0,2.7,2.2,5,5,5l63.8,0.2c2.7,0,5-2.2,5-5l0,0
				C457.9,516.8,455.7,514.6,452.9,514.6z"/>
		</g>
		<g>
			<path fill="#FFF5DC" d="M533.2,323.3l-458.5-1.4c-5.4,0-9.8-4.5-9.8-9.9l0,0c0-5.4,4.5-9.8,9.9-9.8l458.4,1.3
				c5.4,0,9.8,4.5,9.8,9.9l0,0C543,318.9,538.6,323.3,533.2,323.3z"/>
		</g>
		<g>
			
				<rect x="169.6" y="513.6" transform="matrix(1 3.197084e-03 -3.197084e-03 1 1.659 -0.5844)" fill="#CE000B" width="28" height="9.9"/>
		</g>
		<g>
			
				<rect x="407" y="514.4" transform="matrix(1 3.197084e-03 -3.197084e-03 1 1.6627 -1.3433)" fill="#CE000B" width="28" height="9.9"/>
		</g>
		<g>
			<g>
				<path fill="#FF6E75" d="M249.6,570.2L236.3,593c-5,8.6,1.2,19.4,11.1,19.4l26.3,0.1C252.1,612.5,238.7,589,249.6,570.2z"/>
			</g>
			<g>
				<path fill="#FF6E75" d="M326.6,521.5l14.1,24.5l-27.2-47.3c-5-8.6-17.4-8.7-22.3-0.1L278,521.4
					C288.8,502.8,315.8,502.8,326.6,521.5z"/>
			</g>
			<g>
				<path fill="#FF6E75" d="M367.8,593.4l-13.1-22.9c10.8,18.8-2.8,42.2-24.4,42.1l26.3,0.1C366.6,612.8,372.8,602.1,367.8,593.4z"
					/>
			</g>
		</g>
		<g>
			<path fill="#FFF5DC" d="M262.8,624L262.8,624c-3.1,0-5.6-2.5-5.6-5.6v-5.9h11.2v5.9C268.3,621.5,265.8,624.1,262.8,624z"/>
		</g>
		<g>
			<path fill="#FFF5DC" d="M282.4,624.1L282.4,624.1c-3.1,0-5.6-2.5-5.6-5.6v-5.9h11.2v5.9C287.9,621.6,285.5,624.1,282.4,624.1z"/>
		</g>
		<g>
			<path fill="#FFF5DC" d="M302,624.2L302,624.2c-3.1,0-5.6-2.5-5.6-5.6v-5.9h11.2v5.9C307.5,621.7,305,624.2,302,624.2z"/>
		</g>
		<g>
			<path fill="#FFCC29" d="M321.6,624.2L321.6,624.2c-3.1,0-5.6-2.5-5.6-5.6v-5.9h11.2v5.9C327.2,621.8,324.7,624.3,321.6,624.2z"/>
		</g>
		<g>
			<path fill="#FFF5DC" d="M341.2,624.3L341.2,624.3c-3.1,0-5.6-2.5-5.6-5.6v-5.9h11.2v5.9C346.8,621.8,344.3,624.3,341.2,624.3z"/>
		</g>
		<g>
			<path fill="#EF484A" d="M365.5,683.1L238,682.7c-4.7,0-8.5-3.9-8.5-8.6l0,0c0-4.7,3.9-8.5,8.6-8.5l127.5,0.4
				c4.7,0,8.5,3.9,8.5,8.6l0,0C374.1,679.3,370.2,683.1,365.5,683.1z"/>
		</g>
		<g>
			<rect x="110.4" y="329.5" fill="#FCD98D" width="0" height="30.8"/>
		</g>
		<g>
			<path fill="#FFE7AC" d="M509.4,323.6l-413.3-1.3L96,336.7l15.9,0.1c6.6,0,12,5.4,12,12.1l-0.2,63.3c0,6.5,5.1,11.7,11.6,11.7l0,0
				c6.5,0,11.7-5.1,11.7-11.6l0.2-65.7c0-5.3,4.3-9.7,9.7-9.7l0,0c5.3,0,9.7,4.3,9.7,9.7l-0.1,31.8c0,3.5,2.7,6.6,6.4,6.7
				s6.6-2.8,6.6-6.5l0.1-31c0-5.9,4.8-10.6,10.7-10.6l221.9,0.7c7.7,0,13.9,6.3,13.8,13.9l-0.1,20.8c0,4.9,3.9,8.8,8.8,8.9l0,0
				c4.9,0,8.8-3.9,8.9-8.8l0.1-27.5c0-4.1,3.3-7.4,7.4-7.4l0,0c4.1,0,7.4,3.3,7.4,7.4l-0.3,81c0,7.4,6,13.6,13.5,13.6l0,0
				c7.4,0,13.6-6,13.6-13.5l0.2-64.4c0-13.2,10.8-23.9,24-23.9l0,0L509.4,323.6z"/>
		</g>
	</g>
</g>
</svg>
