<?xml version="1.0" encoding="utf-8"?>
<!-- Generator: Adobe Illustrator 18.1.0, SVG Export Plug-In . SVG Version: 6.00 Build 0)  -->
<svg version="1.1" xmlns="http://www.w3.org/2000/svg" xmlns:xlink="http://www.w3.org/1999/xlink" x="0px" y="0px"
	 viewBox="0 0 4256.1 3968.6" enable-background="new 0 0 4256.1 3968.6" xml:space="preserve">
<g id="Layer_1">
	<rect x="386" y="1455.4" fill="#FFCC29" width="507" height="507"/>
	<rect x="398.7" y="1468" fill="#FFE7AC" width="481.6" height="481.6"/>
	<circle fill="#EF484A" cx="639.5" cy="1708.8" r="146.8"/>
	<circle fill="#2C4415" cx="800" cy="1544.1" r="42.2"/>
	<circle fill="#B5FF66" cx="800" cy="1544.1" r="21.1"/>
	<rect x="0" y="0" fill="#FFE7AC" width="4256.1" height="3968.6"/>
</g>
<g id="Layer_2">
	<polygon fill="#EF484A" stroke="#EF484A" stroke-width="32" stroke-miterlimit="10" points="2709.6,618.9 2522.7,588.9 2405,596.2 
		2157.6,549.2 1939.8,601 1459.6,618.9 1457.6,454.9 1728.3,486.9 1840.5,492.2 2017.6,466.9 2193.6,559.3 2405,472 2529.1,534.7 
		2639.3,468.4 2700.2,478.3 	"/>
	<g>
		<path fill="#EF484A" stroke="#EF484A" stroke-width="32" stroke-miterlimit="10" d="M1576.7,610.2h-82.7v-46.3h56.6
			c14.4,0,26.1-11.7,26.1-26.1s-11.7-26.1-26.1-26.1h-56.6v-44.6h78.9c14.6,0,26.4-11.8,26.4-26.4s-11.8-26.4-26.4-26.4h-107.4
			c-15.7,0-28.5,12.8-28.5,28.5v191.8c0,15.7,12.8,28.5,28.5,28.5h111.2c14.6,0,26.4-11.8,26.4-26.4S1591.2,610.2,1576.7,610.2z"/>
		<path fill="#EF484A" stroke="#EF484A" stroke-width="32" stroke-miterlimit="10" d="M1801.1,521.8h-66.8
			c-14.4,0-26.1,11.7-26.1,26.1s11.7,26.1,26.1,26.1h38.3v26.5c-11.3,10.2-26.3,14.7-48.3,14.7c-20.8,0-34.7-5.3-43.8-16.6
			c-9.6-12-14.2-31.5-14.2-59.6c0-67.8,31-76.5,57.9-76.5c23.6,0,35.8,8.2,47.8,21.4c7.4,7.9,15.1,9.6,20.3,9.6
			c14.9,0,27.1-12,27.1-26.7c0-5.6-1.7-10.7-5.3-16.2c-10.4-15.3-36-40.9-90-40.9c-37.1,0-66,11-85.8,32.6
			c-20.2,22-30.4,54.5-30.4,96.8c0,43.3,10.3,76.1,30.5,97.7c19.5,20.8,48.4,31.3,85.8,31.3c39.4,0,78.2-16.4,96.6-40.8
			c5.3-6.7,7.6-13.8,7.6-23.5v-55.1C1828.6,534.3,1815.8,521.8,1801.1,521.8z"/>
		<path fill="#EF484A" stroke="#EF484A" stroke-width="32" stroke-miterlimit="10" d="M2033.5,521.8h-66.8
			c-14.4,0-26.1,11.7-26.1,26.1s11.7,26.1,26.1,26.1h38.3v26.5c-11.3,10.2-26.3,14.7-48.3,14.7c-20.8,0-34.7-5.3-43.8-16.6
			c-9.6-12-14.2-31.5-14.2-59.6c0-67.8,31-76.5,57.9-76.5c23.6,0,35.8,8.2,47.8,21.4c7.4,7.9,15.1,9.6,20.3,9.6
			c14.9,0,27.1-12,27.1-26.7c0-5.6-1.7-10.7-5.3-16.2c-10.4-15.3-36-40.9-90-40.9c-37.1,0-66,11-85.8,32.6
			c-20.2,22-30.4,54.5-30.4,96.8c0,43.3,10.3,76.1,30.5,97.7c19.5,20.8,48.3,31.3,85.8,31.3c39.4,0,78.2-16.4,96.6-40.8
			c5.3-6.7,7.6-13.8,7.6-23.5v-55.1C2061,534.3,2048.2,521.8,2033.5,521.8z"/>
		<path fill="#EF484A" stroke="#EF484A" stroke-width="32" stroke-miterlimit="10" d="M2245.6,411.6c-15.2,0-28.1,12.9-28.1,28.1
			v109.1l-86.4-125.2c-5.1-7.6-13.4-12-22.9-12c-15.2,0-28.1,12.9-28.1,28.1v198c0,15.2,12.9,28.1,28.1,28.1s28.1-12.9,28.1-28.1
			V529.2l86,124.2c5.1,7.6,14,12.3,23.2,12.3c15.2,0,28.1-12.9,28.1-28.1v-198C2273.7,424.5,2260.9,411.6,2245.6,411.6z"/>
		<path fill="#EF484A" stroke="#EF484A" stroke-width="32" stroke-miterlimit="10" d="M2405,409.5c-37.6,0-66.8,10.9-86.9,32.5
			c-20.4,22-30.8,54.5-30.8,96.8c0,41.8,10.3,74.2,30.8,96.2c20.2,21.7,49.4,32.8,86.9,32.8c37.5,0,66.7-11,86.9-32.8
			c20.4-22,30.8-54.4,30.8-96.2c0-42.3-10.3-74.8-30.8-96.8C2471.8,420.5,2442.6,409.5,2405,409.5z M2405,615.1
			c-25.5,0-59.3-7.9-59.3-76.2c0-68.6,33.9-76.5,59.3-76.5s59.3,7.9,59.3,76.5C2464.3,607.2,2430.5,615.1,2405,615.1z"/>
		<path fill="#EF484A" stroke="#EF484A" stroke-width="32" stroke-miterlimit="10" d="M2722.1,521.8h-66.8
			c-14.4,0-26.1,11.7-26.1,26.1s11.7,26.1,26.1,26.1h38.3v26.5c-11.3,10.2-26.3,14.7-48.3,14.7c-20.8,0-34.7-5.3-43.8-16.6
			c-9.6-12-14.2-31.5-14.2-59.6c0-67.8,31-76.5,57.9-76.5c23.6,0,35.8,8.2,47.8,21.4c7.4,7.9,15.1,9.6,20.3,9.6
			c14.9,0,27.1-12,27.1-26.7c0-5.6-1.7-10.7-5.3-16.2c-10.4-15.3-36-40.9-90-40.9c-37.1,0-66,11-85.8,32.6
			c-20.2,22-30.4,54.5-30.4,96.8c0,43.3,10.3,76.1,30.5,97.7c19.5,20.8,48.3,31.3,85.8,31.3c39.4,0,78.2-16.4,96.6-40.8
			c5.3-6.7,7.6-13.8,7.6-23.5v-55.1C2749.5,534.3,2736.7,521.8,2722.1,521.8z"/>
	</g>
	<g>
		<path fill="#FFCC29" d="M1576.7,602.1h-82.7v-46.3h56.6c14.4,0,26.1-11.7,26.1-26.1s-11.7-26.1-26.1-26.1h-56.6V459h78.9
			c14.6,0,26.4-11.8,26.4-26.4s-11.8-26.4-26.4-26.4h-107.4c-15.7,0-28.5,12.8-28.5,28.5v191.8c0,15.7,12.8,28.5,28.5,28.5h111.2
			c14.6,0,26.4-11.8,26.4-26.4S1591.2,602.1,1576.7,602.1z"/>
		<path fill="#FFCC29" d="M1801.1,513.6h-66.8c-14.4,0-26.1,11.7-26.1,26.1s11.7,26.1,26.1,26.1h38.3v26.5
			c-11.3,10.2-26.3,14.7-48.3,14.7c-20.8,0-34.7-5.3-43.8-16.6c-9.6-12-14.2-31.5-14.2-59.6c0-67.8,31-76.5,57.9-76.5
			c23.6,0,35.8,8.2,47.8,21.4c7.4,7.9,15.1,9.6,20.3,9.6c14.9,0,27.1-12,27.1-26.7c0-5.6-1.7-10.7-5.3-16.2
			c-10.4-15.3-36-40.9-90-40.9c-37.1,0-66,11-85.8,32.6c-20.2,22-30.4,54.5-30.4,96.8c0,43.3,10.3,76.1,30.5,97.7
			c19.5,20.8,48.4,31.3,85.8,31.3c39.4,0,78.2-16.4,96.6-40.8c5.3-6.7,7.6-13.8,7.6-23.5v-55.1
			C1828.6,526.1,1815.8,513.6,1801.1,513.6z"/>
		<path fill="#FFF5DC" d="M2033.5,513.6h-66.8c-14.4,0-26.1,11.7-26.1,26.1s11.7,26.1,26.1,26.1h38.3v26.5
			c-11.3,10.2-26.3,14.7-48.3,14.7c-20.8,0-34.7-5.3-43.8-16.6c-9.6-12-14.2-31.5-14.2-59.6c0-67.8,31-76.5,57.9-76.5
			c23.6,0,35.8,8.2,47.8,21.4c7.4,7.9,15.1,9.6,20.3,9.6c14.9,0,27.1-12,27.1-26.7c0-5.6-1.7-10.7-5.3-16.2
			c-10.4-15.3-36-40.9-90-40.9c-37.1,0-66,11-85.8,32.6c-20.2,22-30.4,54.5-30.4,96.8c0,43.3,10.3,76.1,30.5,97.7
			c19.5,20.8,48.3,31.3,85.8,31.3c39.4,0,78.2-16.4,96.6-40.8c5.3-6.7,7.6-13.8,7.6-23.5v-55.1
			C2061,526.1,2048.2,513.6,2033.5,513.6z"/>
		<path fill="#FFF5DC" d="M2245.6,403.4c-15.2,0-28.1,12.9-28.1,28.1v109.1l-86.4-125.2c-5.1-7.6-13.4-12-22.9-12
			c-15.2,0-28.1,12.9-28.1,28.1v198c0,15.2,12.9,28.1,28.1,28.1s28.1-12.9,28.1-28.1V521.1l86,124.2c5.1,7.6,14,12.3,23.2,12.3
			c15.2,0,28.1-12.9,28.1-28.1v-198C2273.7,416.3,2260.9,403.4,2245.6,403.4z"/>
		<path fill="#FFF5DC" d="M2405,401.4c-37.6,0-66.8,10.9-86.9,32.5c-20.4,22-30.8,54.5-30.8,96.8c0,41.8,10.3,74.2,30.8,96.2
			c20.2,21.7,49.4,32.8,86.9,32.8c37.5,0,66.7-11,86.9-32.8c20.4-22,30.8-54.4,30.8-96.2c0-42.3-10.3-74.8-30.8-96.8
			C2471.8,412.3,2442.6,401.4,2405,401.4z M2405,606.9c-25.5,0-59.3-7.9-59.3-76.2c0-68.6,33.9-76.5,59.3-76.5s59.3,7.9,59.3,76.5
			C2464.3,599,2430.5,606.9,2405,606.9z"/>
		<path fill="#FFF5DC" d="M2722.1,513.6h-66.8c-14.4,0-26.1,11.7-26.1,26.1s11.7,26.1,26.1,26.1h38.3v26.5
			c-11.3,10.2-26.3,14.7-48.3,14.7c-20.8,0-34.7-5.3-43.8-16.6c-9.6-12-14.2-31.5-14.2-59.6c0-67.8,31-76.5,57.9-76.5
			c23.6,0,35.8,8.2,47.8,21.4c7.4,7.9,15.1,9.6,20.3,9.6c14.9,0,27.1-12,27.1-26.7c0-5.6-1.7-10.7-5.3-16.2
			c-10.4-15.3-36-40.9-90-40.9c-37.1,0-66,11-85.8,32.6c-20.2,22-30.4,54.5-30.4,96.8c0,43.3,10.3,76.1,30.5,97.7
			c19.5,20.8,48.3,31.3,85.8,31.3c39.4,0,78.2-16.4,96.6-40.8c5.3-6.7,7.6-13.8,7.6-23.5v-55.1
			C2749.5,526.1,2736.7,513.6,2722.1,513.6z"/>
	</g>
	<path fill="none" stroke="#EF484A" stroke-width="8" stroke-linecap="round" stroke-miterlimit="10" d="M1347.6,630.9h-10
		c-9.9,0-18,8.1-18,18v0c0,9.9,8.1,18,18,18h9.5c17.9,0,32.5-14.5,32.5-32.5v-16.6c0-18.2-14.7-32.9-32.9-32.9h-17.3
		c-25.3,0-45.8,20.5-45.8,45.8v35.2c0,31.5,25.5,57,57,57H2030c10.5,0,19,8.5,19,19v0c0,10.5-8.5,19-19,19h-28.4"/>
	<path fill="none" stroke="#EF484A" stroke-width="8" stroke-linecap="round" stroke-miterlimit="10" d="M1601.6,722.9h-329
		c-13.8,0-25,11.2-25,25v0c0,13.8,11.2,25,25,25h4c13.8,0,25-11.2,25-25v0"/>
	<path fill="none" stroke="#EF484A" stroke-width="8" stroke-linecap="round" stroke-miterlimit="10" d="M2829.4,630.9h10
		c9.9,0,18,8.1,18,18v0c0,9.9-8.1,18-18,18h-9.5c-17.9,0-32.5-14.5-32.5-32.5v-16.6c0-18.2,14.7-32.9,32.9-32.9h17.3
		c25.3,0,45.8,20.5,45.8,45.8v35.2c0,31.5-25.5,57-57,57H2147c-10.5,0-19,8.5-19,19v0c0,10.5,8.5,19,19,19h28.4"/>
	<path fill="none" stroke="#EF484A" stroke-width="8" stroke-linecap="round" stroke-miterlimit="10" d="M2575.4,722.9h329
		c13.8,0,25,11.2,25,25v0c0,13.8-11.2,25-25,25h-4c-13.8,0-25-11.2-25-25v0"/>
	<path fill="none" stroke="#FFCC29" stroke-width="8" stroke-linecap="round" stroke-miterlimit="10" d="M1969.5,747.9h-508.4
		c-20.2,0-36.5,16.3-36.5,36.5v0c0,21,17.1,38.1,38.1,38.1h40.6c13.9,0,25.2-11.3,25.2-25.2v0c0-13.5-10.9-24.4-24.4-24.4h-7
		c-14.1,0-25.6,11.5-25.6,25.6l0,0"/>
	<path fill="none" stroke="#FFCC29" stroke-width="8" stroke-linecap="round" stroke-miterlimit="10" d="M2207.8,747.9h508.4
		c20.2,0,36.5,16.3,36.5,36.5v0c0,21-17.1,38.1-38.1,38.1H2674c-13.9,0-25.2-11.3-25.2-25.2v0c0-13.5,10.9-24.4,24.4-24.4h7
		c14.1,0,25.6,11.5,25.6,25.6l0,0"/>
	<circle fill="#FFF5DC" cx="1393.7" cy="756.9" r="9"/>
	<circle fill="#FFF5DC" cx="1342.7" cy="756.9" r="9"/>
	<circle fill="#FFF5DC" cx="1369.7" cy="804.6" r="9"/>
	<circle fill="#FFF5DC" cx="1574.1" cy="785.2" r="9"/>
	<circle fill="#FFF5DC" cx="2783.6" cy="756.9" r="9"/>
	<circle fill="#FFF5DC" cx="2834.6" cy="756.9" r="9"/>
	<circle fill="#FFF5DC" cx="2807.6" cy="804.6" r="9"/>
	<circle fill="#FFF5DC" cx="2603.2" cy="785.2" r="9"/>
	<text transform="matrix(1 0 0 1 1790.8265 358.6113)" fill="#FFF5DC" font-family="'Bariol-Bold'" font-size="117.665">THE SECRET</text>
	<g>
		<text transform="matrix(1 0 0 1 1175.0642 2800.1597)"><tspan x="0" y="0" fill="#EF484A" font-family="'Bariol-Bold'" font-size="72.1468">Once a year, a strange </tspan><tspan x="658.8" y="0" fill="#FFCC29" font-family="'Bariol-Bold'" font-size="72.1468">GNOG</tspan><tspan x="851.8" y="0" fill="#EF484A" font-family="'Bariol-Bold'" font-size="72.1468"> shows up. It is the </tspan><tspan x="1394.1" y="0" fill="#FFF5DC" font-family="'Bariol-Bold'" font-size="72.1468">EGGNOG</tspan><tspan x="1673.6" y="0" fill="#EF484A" font-family="'Bariol-Bold'" font-size="72.1468">. </tspan></text>
		<text transform="matrix(1 0 0 1 993.1136 2893.1689)" fill="#EF484A" font-family="'Bariol-Bold'" font-size="72.1468">Mistaken for a sweet beverage, he hides souvenirs of a beautiful voyage...</text>
		
			<line fill="none" stroke="#EF484A" stroke-width="8" stroke-linecap="round" stroke-miterlimit="10" x1="993.1" y1="2937.3" x2="3079.4" y2="2937.3"/>
	</g>
	<path fill="#FFF5DC" d="M1107.1,1812.5l49.8-11.9c9-2.2,12.3-13.2,5.9-20l-140.6-148.4c-6.4-6.7-17.6-4-20.2,4.8L943.8,1833
		c-2.6,8.9,5.3,17.3,14.3,15.1l49.8-11.9c9-2.2,17,6.2,14.3,15.1l-41,138.1c-2.6,8.9,5.3,17.3,14.3,15.1l49.8-11.9
		c9-2.2,17,6.2,14.3,15.1l-41,138.1c-2.6,8.9,5.3,17.3,14.3,15.1l60.5-14.5c6.5-1.5,12.9,2.4,14.5,8.9l30.7,128.6
		c3.6,15,18.7,24.3,33.7,20.7l0,0c15-3.6,24.3-18.7,20.7-33.7l-30.7-128.6c-1.5-6.5,2.4-12.9,8.9-14.5l60.5-14.5
		c9-2.2,12.3-13.2,5.9-20l-99-104.6c-6.4-6.7-3.1-17.8,5.9-20l49.8-11.9c9-2.2,12.3-13.2,5.9-20l-99-104.6
		C1094.8,1825.8,1098.1,1814.7,1107.1,1812.5z"/>
	<path fill="#FFF5DC" d="M916.3,2246.2l20-4.8c3.6-0.9,4.9-5.3,2.4-8l-56.5-59.7c-2.6-2.7-7.1-1.6-8.1,1.9l-23.4,78.8
		c-1.1,3.6,2.1,6.9,5.8,6.1l20-4.8c3.6-0.9,6.8,2.5,5.8,6.1l-16.5,55.5c-1.1,3.6,2.1,6.9,5.8,6.1l20-4.8c3.6-0.9,6.8,2.5,5.8,6.1
		l-16.5,55.5c-1.1,3.6,2.1,6.9,5.8,6.1l24.3-5.8c2.6-0.6,5.2,1,5.8,3.6l12.4,51.7c1.4,6,7.5,9.8,13.6,8.3l0,0
		c6-1.4,9.8-7.5,8.3-13.6l-12.4-51.7c-0.6-2.6,1-5.2,3.6-5.8l24.3-5.8c3.6-0.9,4.9-5.3,2.4-8l-39.8-42.1c-2.6-2.7-1.2-7.2,2.4-8
		l20-4.8c3.6-0.9,4.9-5.3,2.4-8l-39.8-42.1C911.4,2251.5,912.7,2247,916.3,2246.2z"/>
	<path fill="#FFF5DC" d="M3001.6,1812.5l-49.8-11.9c-9-2.2-12.3-13.2-5.9-20l140.6-148.4c6.4-6.7,17.6-4,20.2,4.8L3165,1833
		c2.6,8.9-5.3,17.3-14.3,15.1l-49.8-11.9c-9-2.2-17,6.2-14.3,15.1l41,138.1c2.6,8.9-5.3,17.3-14.3,15.1l-49.8-11.9
		c-9-2.2-17,6.2-14.3,15.1l41,138.1c2.6,8.9-5.3,17.3-14.3,15.1l-60.5-14.5c-6.5-1.5-12.9,2.4-14.5,8.9l-30.7,128.6
		c-3.6,15-18.7,24.3-33.7,20.7l0,0c-15-3.6-24.3-18.7-20.7-33.7l30.7-128.6c1.5-6.5-2.4-12.9-8.9-14.5l-60.5-14.5
		c-9-2.2-12.3-13.2-5.9-20l99-104.6c6.4-6.7,3.1-17.8-5.9-20l-49.8-11.9c-9-2.2-12.3-13.2-5.9-20l99-104.6
		C3013.9,1825.8,3010.6,1814.7,3001.6,1812.5z"/>
	<path fill="#FFF5DC" d="M3192.4,2246.2l-20-4.8c-3.6-0.9-4.9-5.3-2.4-8l56.5-59.7c2.6-2.7,7.1-1.6,8.1,1.9l23.4,78.8
		c1.1,3.6-2.1,6.9-5.8,6.1l-20-4.8c-3.6-0.9-6.8,2.5-5.8,6.1l16.5,55.5c1.1,3.6-2.1,6.9-5.8,6.1l-20-4.8c-3.6-0.9-6.8,2.5-5.8,6.1
		l16.5,55.5c1.1,3.6-2.1,6.9-5.8,6.1l-24.3-5.8c-2.6-0.6-5.2,1-5.8,3.6l-12.4,51.7c-1.4,6-7.5,9.8-13.6,8.3l0,0
		c-6-1.4-9.8-7.5-8.3-13.6l12.4-51.7c0.6-2.6-1-5.2-3.6-5.8l-24.3-5.8c-3.6-0.9-4.9-5.3-2.4-8l39.8-42.1c2.6-2.7,1.2-7.2-2.4-8
		l-20-4.8c-3.6-0.9-4.9-5.3-2.4-8l39.8-42.1C3197.4,2251.5,3196,2247,3192.4,2246.2z"/>
	<path fill="#FFF5DC" d="M820.1,1746.3l-17.4,1.2c-2.1,0.1-3.9,1.6-4.4,3.7l-4.2,16.9c-1.1,4.6-7.5,5-9.3,0.6l-6.5-16.1
		c-0.8-2-2.8-3.2-4.9-3l-17.4,1.2c-4.7,0.3-7.1-5.6-3.5-8.6L766,1731c1.6-1.4,2.2-3.6,1.4-5.6l-6.5-16.1c-1.8-4.4,3.1-8.5,7.1-6
		l14.7,9.2c1.8,1.1,4.1,1,5.7-0.4l13.3-11.2c3.6-3,9,0.3,7.9,4.9l-4.2,16.9c-0.5,2,0.4,4.2,2.1,5.3l14.7,9.2
		C826.3,1739.8,824.8,1746,820.1,1746.3z"/>
	<path fill="#FFF5DC" d="M3483.7,1710.3l-17.4,1.2c-2.1,0.1-3.9,1.6-4.4,3.7l-4.2,16.9c-1.1,4.6-7.5,5-9.3,0.6l-6.5-16.1
		c-0.8-2-2.8-3.2-4.9-3l-17.4,1.2c-4.7,0.3-7.1-5.6-3.5-8.6l13.3-11.2c1.6-1.4,2.2-3.6,1.4-5.6l-6.5-16.1c-1.8-4.4,3.1-8.5,7.1-6
		l14.8,9.2c1.8,1.1,4.1,1,5.7-0.4l13.3-11.2c3.6-3,9,0.3,7.9,4.9l-4.2,16.9c-0.5,2,0.4,4.2,2.1,5.3l14.8,9.2
		C3490,1703.9,3488.4,1710,3483.7,1710.3z"/>
	<path fill="#FFF5DC" d="M1012.5,1361l-17.4,1.2c-2.1,0.1-3.9,1.6-4.4,3.7l-4.2,16.9c-1.1,4.6-7.5,5-9.3,0.6l-6.5-16.1
		c-0.8-2-2.8-3.2-4.9-3l-17.4,1.2c-4.7,0.3-7.1-5.6-3.5-8.6l13.3-11.2c1.6-1.4,2.2-3.6,1.4-5.6l-6.5-16.1c-1.8-4.4,3.1-8.5,7.1-6
		l14.7,9.2c1.8,1.1,4.1,1,5.7-0.4l13.3-11.2c3.6-3,9,0.3,7.9,4.9l-4.2,16.9c-0.5,2,0.4,4.2,2.1,5.3l14.7,9.2
		C1018.7,1354.5,1017.2,1360.6,1012.5,1361z"/>
	<path fill="#FFF5DC" d="M3267.6,1505.3l-17.4,1.2c-2.1,0.1-3.9,1.6-4.4,3.7l-4.2,16.9c-1.1,4.6-7.5,5-9.3,0.6l-6.5-16.1
		c-0.8-2-2.8-3.2-4.9-3l-17.4,1.2c-4.7,0.3-7.1-5.6-3.5-8.6l13.3-11.2c1.6-1.4,2.2-3.6,1.4-5.6l-6.5-16.1c-1.8-4.4,3.1-8.5,7.1-6
		l14.8,9.2c1.8,1.1,4.1,1,5.7-0.4l13.3-11.2c3.6-3,9,0.3,7.9,4.9l-4.2,16.9c-0.5,2,0.4,4.2,2.1,5.3l14.8,9.2
		C3273.9,1498.8,3272.3,1505,3267.6,1505.3z"/>
	<path fill="#FFF5DC" d="M1236.4,1563.9l-17.4,1.2c-2.1,0.1-3.9,1.6-4.4,3.7l-4.2,16.9c-1.1,4.6-7.5,5-9.3,0.6l-6.5-16.1
		c-0.8-2-2.8-3.2-4.9-3l-17.4,1.2c-4.7,0.3-7.1-5.6-3.5-8.6l13.3-11.2c1.6-1.4,2.2-3.6,1.4-5.6l-6.5-16.1c-1.8-4.4,3.1-8.5,7.1-6
		l14.7,9.2c1.8,1.1,4.1,1,5.7-0.4l13.3-11.2c3.6-3,9,0.3,7.9,4.9l-4.2,16.9c-0.5,2,0.4,4.2,2.1,5.3l14.7,9.2
		C1242.6,1557.5,1241.1,1563.6,1236.4,1563.9z"/>
	<path fill="#FFF5DC" d="M3327.5,2002.2l-17.4,1.2c-2.1,0.1-3.9,1.6-4.4,3.7l-4.2,16.9c-1.1,4.6-7.5,5-9.3,0.6l-6.5-16.1
		c-0.8-2-2.8-3.2-4.9-3l-17.4,1.2c-4.7,0.3-7.1-5.6-3.5-8.6l13.3-11.2c1.6-1.4,2.2-3.6,1.4-5.6l-6.5-16.1c-1.8-4.4,3.1-8.5,7.1-6
		l14.7,9.2c1.8,1.1,4.1,1,5.7-0.4l13.3-11.2c3.6-3,9,0.3,7.9,4.9l-4.2,16.9c-0.5,2,0.4,4.2,2.1,5.3l14.8,9.2
		C3333.7,1995.7,3332.2,2001.8,3327.5,2002.2z"/>
</g>
<g id="Layer_3" display="none">
	<g display="inline">
		<path fill="#FFF5DC" d="M1303.4,1753c15.8,80.1,84,141.6,167.4,147l-42.6,0c-17.8,0-32.4,14.6-32.4,32.4l0,0
			c0,17.8,14.6,32.4,32.4,32.4l38,0c-5.7,5.8-9.2,13.8-9.2,22.5v0c0,17.8,14.6,32.4,32.4,32.4l38,0c-5.7,5.8-9.2,13.8-9.2,22.5v0
			c0,17.8,14.6,32.4,32.4,32.4l38,0c-5.7,5.8-9.2,13.8-9.2,22.5l0,0c0,17.8,14.6,32.4,32.4,32.4l48,0l4.2,11.3
			c13.3,60.3-7.5,123-54.1,163.4L1441,2438.3c-11.1,8.8-17.5,22.4-17.3,36.6c0.5,24.9,20.8,44.8,45.7,44.8l1179.5,0
			c26.1,0,47.1-21.4,46.6-47.6v0c-0.3-14.4-7.3-27.9-18.9-36.5l-177.5-131.6c-47.3-40.4-68.5-103.5-55.1-164.3l4.1-10.4l61,0
			c17.8,0,32.4-14.6,32.4-32.4v0c0-8.7-3.5-16.7-9.2-22.5l38,0c17.8,0,32.4-14.6,32.4-32.4v0c0-8.7-3.5-16.7-9.2-22.5l38,0
			c17.8,0,32.4-14.6,32.4-32.4v0c0-8.7-3.5-16.7-9.2-22.5l38,0c17.8,0,32.4-14.6,32.4-32.4l0,0c0-17.8-14.6-32.4-32.4-32.4l-42.6,0
			c95.2-6.1,170.8-85.5,170.8-182.3c0-61.5-30.6-116.1-77.3-149.2l0-500.3l71.4,0c18,0,32.7-14.7,32.7-32.7v0
			c0-18-14.7-32.7-32.7-32.7l-1515.4,0c-18,0-32.7,14.7-32.7,32.7v0c0,18,14.7,32.7,32.7,32.7l80,0c-0.1,13.4-0.3,30.4-0.4,50.2
			c-0.4,0-0.9,0-1.3,0c-177.4,0-321.7,144.3-321.7,321.7C1056.3,1591.7,1161.9,1719.2,1303.4,1753z M1209.5,1440
			c0-92.9,75.6-168.5,168.5-168.5c0.2,0,0.4,0,0.6,0c-0.3,93.8-0.6,201.7-0.8,296.6c-14.4,10.1-27.2,22.2-38.1,35.9
			C1265.2,1586.7,1209.5,1519.7,1209.5,1440z"/>
		<path fill="#EF484A" d="M2514.2,1065.7l-925.9,0c-73.7,0-133.4,59.7-133.4,133.4l0,566.2c0,73.7,59.7,133.4,133.4,133.4l64.1,0
			c73.7,0,133.4,59.7,133.4,133.4l0,193.5c0,73.7,59.7,133.4,133.4,133.4l264.2,0c73.7,0,133.4-59.7,133.4-133.4l0-193.5
			c0-73.7,59.7-133.4,133.4-133.4l64.1,0c73.7,0,133.4-59.7,133.4-133.4l0-566.2C2647.6,1125.4,2587.9,1065.7,2514.2,1065.7z"/>
		<polyline fill="#FFCC29" points="1454.9,1534.9 1797.3,1690.2 1568.4,1759.6 1454.9,1747.4 		"/>
		<path fill="#EF484A" stroke="#EF484A" stroke-width="65.3559" stroke-miterlimit="10" d="M1454.9,1703.4"/>
		<rect x="1650.1" y="1333.8" fill="#873533" width="352.3" height="280.8"/>
		<rect x="1650.1" y="1613.8" fill="#631D1D" width="33.7" height="133.6"/>
		<rect x="1968.7" y="1613.8" fill="#631D1D" width="33.7" height="133.6"/>
		<path fill="#873533" d="M2244,1747.4l-33.7,0l0-225.2c0-9.3,7.5-16.8,16.8-16.8l0,0c9.3,0,16.8,7.5,16.8,16.8L2244,1747.4z"/>
		<path fill="#83FFD6" d="M2592.4,1690.2c-11.9,4.9-22.2,9.1-44.3,9.1c-22,0-32.3-4.2-44.3-9.1c-12.9-5.3-27.5-11.3-55.1-11.3
			c-27.7,0-42.3,6-55.1,11.3c-11.9,4.9-22.2,9.1-44.3,9.1c-22,0-32.3-4.2-44.3-9.1c-12.9-5.3-27.5-11.3-55.1-11.3
			c-27.7,0-42.3,6-55.1,11.3c-11.9,4.9-22.2,9.1-44.3,9.1c-22,0-32.3-4.2-44.3-9.1c-12.9-5.3-27.5-11.3-55.1-11.3
			c-27.7,0-42.3,6-55.1,11.3c-11.9,4.9-22.2,9.1-44.3,9.1c-22,0-32.3-4.2-44.3-9.1c-12.9-5.3-27.5-11.3-55.1-11.3
			c-27.7,0-42.3,6-55.1,11.3c-11.9,4.9-22.2,9.1-44.3,9.1c-22,0-32.3-4.2-44.3-9.1c-12.9-5.3-27.5-11.3-55.1-11.3
			c-27.7,0-42.3,6-55.1,11.3c-11.9,4.9-22.2,9.1-44.3,9.1c-22,0-32.3-4.2-44.3-9.1c-12.9-5.3-27.5-11.3-55.1-11.3l0,24.5l0,4.1
			l0,57.7c0,73.7,59.7,133.4,133.4,133.4l64.1,0c73.7,0,133.4,59.7,133.4,133.4l0,193.5c0,73.7,59.7,133.4,133.4,133.4l264.2,0
			c73.7,0,133.4-59.7,133.4-133.4l0-193.5c0-73.7,59.7-133.4,133.4-133.4l64.1,0c73.7,0,133.4-59.7,133.4-133.4l0-57.7l0-4.1l0-24.5
			C2619.9,1678.9,2605.3,1684.9,2592.4,1690.2z"/>
		<polygon fill="#9B4242" points="2066.7,1379.8 1594.9,1379.8 1635.8,1247 2025.8,1247 		"/>
		<polygon fill="#9B4242" points="2301.9,1620.3 2610.8,1620.3 2584,1707.2 2328.6,1707.2 		"/>
		<circle fill="#FFCC29" cx="2429.1" cy="1291" r="132.9"/>
		<rect x="2002.3" y="1584" fill="#9B4242" width="208.5" height="30.6"/>
		<rect x="1683.8" y="1406.3" fill="#631D1D" width="284.9" height="112.3"/>
		<rect x="1819.8" y="1406.2" fill="#9B4242" width="17.1" height="112.4"/>
		<g>
			<path fill="#FFF5DC" d="M2418.6,1253.1l-246,0c-11,0-20,9-20,20v0c0,11,9,20,20,20l246,0c11,0,20-9,20-20l0,0
				C2438.5,1262.1,2429.5,1253.1,2418.6,1253.1z"/>
			<path fill="#FFF5DC" d="M2367.6,1310.9l-37.1,0c-4.9,0-9-4-9-9c0-4.9,4-9,9-9l-68.6,0c4.9,0,9,4,9,9v0c0,4.9-4,9-9,9l-38.4,0
				c-6.4,0-11.7,5.3-11.7,11.7s5.3,11.7,11.7,11.7l144.1,0c6.4,0,11.7-5.3,11.7-11.7v0C2379.3,1316.2,2374,1310.9,2367.6,1310.9z"/>
		</g>
		<g>
			<path fill="#FFF5DC" d="M2408.8,1212l177.6,0c7.9,0,14.4-6.5,14.4-14.4v0c0-7.9-6.5-14.4-14.4-14.4l-177.6,0
				c-7.9,0-14.4,6.5-14.4,14.4l0,0C2394.4,1205.6,2400.9,1212,2408.8,1212z"/>
			<path fill="#FFF5DC" d="M2445.6,1170.3l26.8,0c3.6,0,6.5,2.9,6.5,6.5c0,3.6-2.9,6.5-6.5,6.5l49.5,0c-3.6,0-6.5-2.9-6.5-6.5l0,0
				c0-3.6,2.9-6.5,6.5-6.5l27.7,0c4.6,0,8.4-3.8,8.4-8.4c0-4.6-3.8-8.4-8.4-8.4l-104,0c-4.6,0-8.4,3.8-8.4,8.4v0
				C2437.1,1166.5,2440.9,1170.3,2445.6,1170.3z"/>
		</g>
		<path fill="#FFF5DC" d="M2396.2,1359.4l-33.8,0c-1.9,0-3.5-1.6-3.5-3.5l0-2.2c0-1.9,1.6-3.5,3.5-3.5l33.8,0c1.9,0,3.5,1.6,3.5,3.5
			l0,2.2C2399.7,1357.8,2398.1,1359.4,2396.2,1359.4z"/>
		<path fill="#FFF5DC" d="M2611.1,1428.5l-33.8,0c-1.9,0-3.5-1.6-3.5-3.5v-2.2c0-1.9,1.6-3.5,3.5-3.5l33.8,0c1.9,0,3.5,1.6,3.5,3.5
			v2.2C2614.6,1426.9,2613,1428.5,2611.1,1428.5z"/>
		<path fill="#FFF5DC" d="M2169.5,1233.2l-33.8,0c-1.9,0-3.5-1.6-3.5-3.5l0-2.2c0-1.9,1.6-3.5,3.5-3.5l33.8,0c1.9,0,3.5,1.6,3.5,3.5
			l0,2.2C2173,1231.6,2171.4,1233.2,2169.5,1233.2z"/>
		<path fill="#FFF5DC" d="M2375.7,1153.4l-33.8,0c-1.9,0-3.5-1.6-3.5-3.5v-2.2c0-1.9,1.6-3.5,3.5-3.5l33.8,0c1.9,0,3.5,1.6,3.5,3.5
			v2.2C2379.3,1151.8,2377.7,1153.4,2375.7,1153.4z"/>
		<path fill="#83FFD6" d="M2592.4,1690.2c-11.9,4.9-22.2,9.1-44.3,9.1c-22,0-32.3-4.2-44.3-9.1c-12.9-5.3-27.5-11.3-55.1-11.3
			c-27.7,0-42.3,6-55.1,11.3c-11.9,4.9-22.2,9.1-44.3,9.1c-22,0-32.3-4.2-44.3-9.1c-12.9-5.3-27.5-11.3-55.1-11.3
			c-27.7,0-42.3,6-55.1,11.3c-11.9,4.9-22.2,9.1-44.3,9.1c-22,0-32.3-4.2-44.3-9.1c-12.9-5.3-27.5-11.3-55.1-11.3
			c-27.7,0-42.3,6-55.1,11.3c-11.9,4.9-22.2,9.1-44.3,9.1c-22,0-32.3-4.2-44.3-9.1c-12.9-5.3-27.5-11.3-55.1-11.3
			c-27.7,0-42.3,6-55.1,11.3c-11.9,4.9-22.2,9.1-44.3,9.1c-22,0-32.3-4.2-44.3-9.1c-12.9-5.3-27.5-11.3-55.1-11.3
			c-27.7,0-42.3,6-55.1,11.3c-11.9,4.9-22.2,9.1-44.3,9.1c-22,0-32.3-4.2-44.3-9.1c-12.9-5.3-27.5-11.3-55.1-11.3l0,24.5l0,4.1
			l0,57.7c0,73.7,59.7,133.4,133.4,133.4l64.1,0c73.7,0,133.4,59.7,133.4,133.4l0,193.5c0,73.7,59.7,133.4,133.4,133.4l264.2,0
			c73.7,0,133.4-59.7,133.4-133.4l0-193.5c0-73.7,59.7-133.4,133.4-133.4l64.1,0c73.7,0,133.4-59.7,133.4-133.4l0-57.7l0-4.1l0-24.5
			C2619.9,1678.9,2605.3,1684.9,2592.4,1690.2z"/>
		<g>
			<path fill="#4BE0AA" d="M1916.3,2116.3c0,0,60.4-76.2,134.9-76.2c74.5,0,134.9,76.3,134.9,76.3s-60.4,76.2-134.9,76.2
				C1976.7,2192.6,1916.3,2116.3,1916.3,2116.3z"/>
			<path fill="#4BE0AA" d="M2164.6,2121.3c0,0-2.5-21.6,9.3-33.3s33.3-9.3,33.3-9.3s2.5,21.6-9.3,33.3S2164.6,2121.3,2164.6,2121.3z
				"/>
			<path fill="#4BE0AA" d="M2164.6,2103.2c0,0-2.5,21.6,9.3,33.3s33.3,9.3,33.3,9.3s2.5-21.6-9.3-33.3S2164.6,2103.2,2164.6,2103.2z
				"/>
			<circle fill="#83FFD6" cx="2004.1" cy="2116.3" r="32.7"/>
			<circle fill="#4BE0AA" cx="2004.1" cy="2116.3" r="13.6"/>
			<path fill="#4BE0AA" d="M2449,1813.4c0,0-24.5,30.9-54.6,30.9c-30.2,0-54.6-30.9-54.6-30.9s24.5-30.9,54.6-30.9
				C2424.6,1782.5,2449,1813.4,2449,1813.4z"/>
			<path fill="#4BE0AA" d="M2348.5,1811.4c0,0,1,8.7-3.8,13.5s-13.5,3.7-13.5,3.7s-1-8.7,3.8-13.5S2348.5,1811.4,2348.5,1811.4z"/>
			<path fill="#4BE0AA" d="M2348.5,1818.8c0,0,1-8.7-3.7-13.5c-4.8-4.8-13.5-3.8-13.5-3.8s-1,8.7,3.7,13.5
				C2339.7,1819.8,2348.5,1818.8,2348.5,1818.8z"/>
			<circle fill="#83FFD6" cx="2413.5" cy="1813.4" r="13.2"/>
			<circle fill="#4BE0AA" cx="2413.5" cy="1813.4" r="5.5"/>
			<path fill="#4BE0AA" d="M2118,1900.5c0,0,24.5-30.9,54.6-30.9c30.2,0,54.6,30.9,54.6,30.9s-24.5,30.9-54.6,30.9
				C2142.4,1931.4,2118,1900.5,2118,1900.5z"/>
			<path fill="#4BE0AA" d="M2218.5,1902.6c0,0-1-8.7,3.8-13.5s13.5-3.7,13.5-3.7s1,8.7-3.7,13.5S2218.5,1902.6,2218.5,1902.6z"/>
			<path fill="#4BE0AA" d="M2218.5,1895.2c0,0-1,8.7,3.7,13.5c4.8,4.8,13.5,3.8,13.5,3.8s1-8.7-3.7-13.5
				C2227.3,1894.2,2218.5,1895.2,2218.5,1895.2z"/>
			<circle fill="#83FFD6" cx="2153.5" cy="1900.5" r="13.2"/>
			<circle fill="#4BE0AA" cx="2153.5" cy="1900.5" r="5.5"/>
			<path fill="#4BE0AA" d="M1649.6,1786c0,0-19.6,24.7-43.7,24.7c-24.2,0-43.7-24.7-43.7-24.7s19.6-24.7,43.7-24.7
				S1649.6,1786,1649.6,1786z"/>
			<path fill="#4BE0AA" d="M1569.1,1784.4c0,0,0.8,7-3,10.8s-10.8,3-10.8,3s-0.8-7,3-10.8S1569.1,1784.4,1569.1,1784.4z"/>
			<path fill="#4BE0AA" d="M1569.1,1790.3c0,0,0.8-7-3-10.8s-10.8-3-10.8-3s-0.8,7,3,10.8S1569.1,1790.3,1569.1,1790.3z"/>
			<circle fill="#83FFD6" cx="1621.2" cy="1786" r="10.6"/>
			<circle fill="#4BE0AA" cx="1621.2" cy="1786" r="4.4"/>
			<circle fill="#4BE0AA" cx="1896.2" cy="2051.3" r="11.2"/>
			<circle fill="#4BE0AA" cx="1919" cy="2010" r="5.9"/>
			<circle fill="#4BE0AA" cx="1843.1" cy="1895.4" r="7.1"/>
			<circle fill="#4BE0AA" cx="1823.5" cy="1921.7" r="4.3"/>
			<circle fill="#4BE0AA" cx="1932.5" cy="2041.9" r="4.1"/>
			<circle fill="#4BE0AA" cx="1963.5" cy="1771.1" r="11.5"/>
		</g>
		<path fill="none" stroke="#9B4242" stroke-width="10.2119" stroke-miterlimit="10" d="M2235.9,1534.9c0,0,22,82.8,91.5,91.5"/>
		
			<line fill="none" stroke="#9B4242" stroke-width="10.2119" stroke-miterlimit="10" x1="2210.7" y1="1534.9" x2="2244.4" y2="1534.9"/>
		<rect x="1683.8" y="1210.2" fill="#873533" width="58.4" height="36.9"/>
		<rect x="1535.5" y="1406.2" fill="#FFCC29" width="17.8" height="208.3"/>
		<path fill="#FFCC29" d="M1484.5,1452.7c0,0,5.2-21.6,21.7-38.1c16.5-16.5,38.1-21.7,38.1-21.7s-5.2,21.6-21.7,38.1
			C1506.1,1447.5,1484.5,1452.7,1484.5,1452.7z"/>
		<path fill="#FFCC29" d="M1603.9,1452.7c0,0-5.2-21.6-21.7-38.1c-16.5-16.5-38.1-21.7-38.1-21.7s5.2,21.6,21.7,38.1
			C1582.3,1447.5,1603.9,1452.7,1603.9,1452.7z"/>
		<path fill="#FFCC29" d="M1605.5,1609c0,0,1.7-13.5-5.3-24.4s-20-15-20-15s-1.7,13.5,5.3,24.4
			C1592.5,1604.9,1605.5,1609,1605.5,1609z"/>
		<path fill="#FFCC29" d="M1603.4,1609c0,0-1.7-13.5,5.3-24.4c7-10.9,20-15,20-15s1.7,13.5-5.3,24.4S1603.4,1609,1603.4,1609z"/>
		<path fill="#FFCC29" d="M1616.3,1400.7c0,0-18.9-11.6-42.3-11.6s-42.3,11.6-42.3,11.6s18.9,11.6,42.3,11.6
			C1597.4,1412.2,1616.3,1400.7,1616.3,1400.7z"/>
		<path fill="#FFCC29" d="M1470.8,1400.7c0,0,18.9-11.6,42.3-11.6s42.3,11.6,42.3,11.6s-18.9,11.6-42.3,11.6
			C1489.7,1412.2,1470.8,1400.7,1470.8,1400.7z"/>
		<path fill="#FFCC29" d="M1495.8,1346.8c0,0,21.6,5.2,38.1,21.7s21.7,38.1,21.7,38.1s-21.6-5.2-38.1-21.7
			S1495.8,1346.8,1495.8,1346.8z"/>
		<path fill="#FFCC29" d="M1590.4,1347.7c0,0-21.6,5.2-38.1,21.7s-21.7,38.1-21.7,38.1s21.6-5.2,38.1-21.7
			S1590.4,1347.7,1590.4,1347.7z"/>
		<rect x="1665.9" y="1210.2" fill="#631D1D" width="94.9" height="13.8"/>
		<rect x="2287.8" y="1620.3" fill="#631D1D" width="339" height="17.1"/>
	</g>
</g>
<g id="Layer_4">
	<g>
		<path fill="#FFF5DC" d="M1420.3,1494.8l1271.9,4.1l-241.7,643.4c-13.5,60.2,7.1,123,53.6,163.6l168.6,134.8
			c11.1,8.9,17.5,22.4,17.1,36.7l0,0c-0.5,24.9-20.9,44.7-45.8,44.7l-1179.5-3.8c-26.1-0.1-47.1-21.6-46.5-47.7l0,0
			c0.3-14.4,7.3-27.9,19-36.5l177.9-131c47.4-40.2,68.8-103.3,55.7-164.1L1420.3,1494.8z"/>
		
			<rect x="1886.8" y="2016.1" transform="matrix(1 3.197182e-03 -3.197182e-03 1 6.7725 -6.5733)" fill="#491016" width="345.1" height="197.9"/>
		<circle fill="none" stroke="#FFF5DC" stroke-width="153.1779" stroke-miterlimit="10" cx="2738.9" cy="1442.5" r="245.1"/>
		<path fill="#FFF5DC" d="M1722.1,1963.9l-299.7-1c-17.8-0.1-32.4-14.7-32.3-32.5v0c0.1-17.8,14.7-32.4,32.5-32.3l299.7,1
			c17.8,0.1,32.4,14.7,32.3,32.5l0,0C1754.6,1949.4,1739.9,1964,1722.1,1963.9z"/>
		<path fill="#FFF5DC" d="M1783.2,2019l-299.7-1c-17.8-0.1-32.4-14.7-32.3-32.5l0,0c0.1-17.8,14.7-32.4,32.5-32.3l299.7,1
			c17.8,0.1,32.4,14.7,32.3,32.5l0,0C1815.7,2004.5,1801,2019.1,1783.2,2019z"/>
		<path fill="#FFF5DC" d="M1844.3,2074.1l-299.7-1c-17.8-0.1-32.4-14.7-32.3-32.5l0,0c0.1-17.8,14.7-32.4,32.5-32.3l299.7,1
			c17.8,0.1,32.4,14.7,32.3,32.5l0,0C1876.7,2059.6,1862.1,2074.1,1844.3,2074.1z"/>
		<path fill="#FFF5DC" d="M1792.2,2128.8l-192.4-0.6c-14.6,0-26.6-12.1-26.5-26.7l0-11.6c0-14.6,12.1-26.6,26.7-26.5l192.4,0.6
			c14.6,0,26.6,12.1,26.5,26.7l0,11.6C1818.9,2116.9,1806.9,2128.9,1792.2,2128.8z"/>
		<path fill="#FFF5DC" d="M2387.3,1966l299.7,1c17.8,0.1,32.4-14.5,32.5-32.3l0,0c0.1-17.8-14.5-32.4-32.3-32.5l-299.7-1
			c-17.8-0.1-32.4,14.5-32.5,32.3l0,0C2355,1951.4,2369.5,1966,2387.3,1966z"/>
		<path fill="#FFF5DC" d="M2325.9,2020.7l299.7,1c17.8,0.1,32.4-14.5,32.5-32.3v0c0.1-17.8-14.5-32.4-32.3-32.5l-299.7-1
			c-17.8-0.1-32.4,14.5-32.5,32.3v0C2293.5,2006,2308.1,2020.7,2325.9,2020.7z"/>
		<path fill="#FFF5DC" d="M2264.5,2075.4l299.7,1c17.8,0.1,32.4-14.5,32.5-32.3l0,0c0.1-17.8-14.5-32.4-32.3-32.5l-299.7-1
			c-17.8-0.1-32.4,14.5-32.5,32.3l0,0C2232.1,2060.7,2246.6,2075.4,2264.5,2075.4z"/>
		<path fill="#FFF5DC" d="M2319.5,2130.5l189.2,0.6c14.5,0,26.4-11.8,26.5-26.3l0-12c0-14.5-11.8-26.4-26.3-26.5l-189.2-0.6
			c-14.5,0-26.4,11.8-26.5,26.3l0,12C2293.2,2118.5,2305,2130.5,2319.5,2130.5z"/>
		<path fill="#FFF5DC" d="M2737.9,1036.4l0.1-18.4l-1363.3-4.4l-2.4,753.2l-0.2,54.5l0-6.6c-0.1,28.9,23.5,52.6,52.4,52.7h0
			c28.9,0.1,52.6-23.5,52.7-52.4c-0.1,28.9,23.5,52.6,52.4,52.7h0c28.9,0.1,52.6-23.5,52.7-52.4c-0.1,28.9,23.5,52.6,52.4,52.7h0
			c28.9,0.1,52.6-23.5,52.7-52.4c-0.1,28.9,23.5,52.6,52.4,52.7h0c28.9,0.1,52.6-23.5,52.7-52.4c-0.1,28.9,23.5,52.6,52.4,52.7h0
			c28.9,0.1,52.6-23.5,52.7-52.4c-0.1,28.9,23.5,52.6,52.4,52.7h0c28.9,0.1,52.6-23.5,52.7-52.4c-0.1,28.9,23.5,52.6,52.4,52.7h0
			c28.9,0.1,52.6-23.5,52.7-52.4c-0.1,28.9,23.5,52.6,52.4,52.7h0c28.9,0.1,52.6-23.5,52.7-52.4c-0.1,28.9,23.5,52.6,52.4,52.7h0
			c28.9,0.1,52.6-23.5,52.7-52.4c-0.1,28.9,23.5,52.6,52.4,52.7h0c28.9,0.1,52.6-23.5,52.7-52.4c-0.1,28.9,23.5,52.6,52.4,52.7h0
			c28.9,0.1,52.6-23.5,52.7-52.4c-0.1,28.9,23.5,52.6,52.4,52.7h0c28.9,0.1,52.6-23.5,52.7-52.4c-0.1,28.9,23.5,52.6,52.4,52.7h0
			c28.9,0.1,52.6-23.5,52.7-52.4l0,0C2738.4,1813.1,2739.8,1041.9,2737.9,1036.4z"/>
		<g>
			<g>
				<path fill="#FCD98D" d="M1477.7,1657.9c0.1,0,0.1,0,0.2,0l370.9,1.2c32,0.1,58,26.3,57.9,58.3v0c-0.1,31.9-26.2,57.9-58.1,57.9
					c-0.1,0-0.1,0-0.2,0l-370.9-1.2c-32-0.1-58-26.3-57.9-58.3v0C1419.7,1683.9,1445.8,1657.9,1477.7,1657.9 M1477.7,1533.3
					L1477.7,1533.3L1477.7,1533.3c-24.6,0-48.5,4.9-71.1,14.4c-21.7,9.2-41.1,22.3-57.8,38.9c-16.7,16.6-29.9,36-39.1,57.7
					c-9.7,22.6-14.6,46.5-14.7,71.1c-0.3,100.7,81.4,183,182.1,183.3l370.7,1.2c0.2,0,0.5,0,0.7,0c24.6,0,48.5-4.9,71.1-14.4
					c21.7-9.2,41.1-22.3,57.8-38.9c16.7-16.6,29.9-36,39.1-57.7c9.7-22.6,14.6-46.5,14.7-71.1c0.3-100.7-81.4-183-182.1-183.3
					l-370.7-1.2C1478.2,1533.3,1477.9,1533.3,1477.7,1533.3L1477.7,1533.3z"/>
			</g>
		</g>
		<g>
			<g>
				<path fill="#FCD98D" d="M2262.5,1660.4c0.1,0,0.1,0,0.2,0l370.9,1.2c32,0.1,58,26.3,57.9,58.3v0c-0.1,31.9-26.2,57.9-58.1,57.9
					c-0.1,0-0.1,0-0.2,0l-370.9-1.2c-32-0.1-58-26.3-57.9-58.3v0C2204.5,1686.5,2230.6,1660.4,2262.5,1660.4 M2262.5,1535.8
					L2262.5,1535.8L2262.5,1535.8c-24.6,0-48.5,4.9-71.1,14.4c-21.7,9.2-41.1,22.3-57.8,38.9c-16.7,16.6-29.9,36-39.1,57.7
					c-9.7,22.6-14.6,46.5-14.7,71.1c-0.3,100.7,81.4,183,182.1,183.3l370.7,1.2c0.2,0,0.5,0,0.7,0c24.6,0,48.5-4.9,71.1-14.4
					c21.7-9.2,41.1-22.3,57.8-38.9c16.7-16.6,29.9-36,39.1-57.7c9.7-22.6,14.6-46.5,14.7-71.1c0.3-100.7-81.4-183-182.1-183.3
					l-370.7-1.2C2263,1535.8,2262.7,1535.8,2262.5,1535.8L2262.5,1535.8z"/>
			</g>
		</g>
		<g>
			<path fill="#EF484A" d="M1837.3,1962.5l181.4-312c16.5-28.4,57.6-28.3,73.9,0.2l179.4,313.1c16.3,28.5-4.3,64-37.1,63.9
				l-360.9-1.2C1841.2,2026.5,1820.8,1990.8,1837.3,1962.5z"/>
		</g>
		<g>
			<path fill="#EF484A" d="M1928.1,1806.5l-90.7,156c-16.5,28.4,3.9,64,36.7,64.1l180.4,0.6
				C1941.5,2026.8,1871.2,1904.2,1928.1,1806.5z"/>
			<path fill="#FF6E75" d="M2092.7,1650.7c-16.3-28.5-57.4-28.6-73.9-0.2l-90.7,156c56.8-97.7,198.1-97.3,254.3,0.8v0"/>
		</g>
		<g>
			<path fill="#CE000B" d="M2253.8,2250.5l-183,157.4c-10.1,8.7-25,8.6-35.1-0.1l-181.9-158.6c-18.7-16.3-7.1-47.1,17.7-47
				l364.9,1.2C2261.2,2203.4,2272.6,2234.3,2253.8,2250.5z"/>
		</g>
		<g>
			<path fill="#FFCC29" d="M1477.5,1786.4c-18.7-0.1-36.4-7.5-49.6-20.8c-13.3-13.4-20.6-31-20.5-49.8c0.1-38.7,31.7-70.1,70.4-70.1
				l371.1,1.2c38.8,0.1,70.3,31.8,70.1,70.6c-0.1,38.7-31.7,70.1-70.4,70.1L1477.5,1786.4z"/>
			<g>
				<path fill="#FFF5DC" d="M1477.7,1657.9c0.1,0,0.1,0,0.2,0l370.9,1.2c32,0.1,58,26.3,57.9,58.3v0c-0.1,31.9-26.2,57.9-58.1,57.9
					c-0.1,0-0.1,0-0.2,0l-370.9-1.2c-32-0.1-58-26.3-57.9-58.3v0C1419.7,1683.9,1445.8,1657.9,1477.7,1657.9 M1477.7,1633.4
					c-45.4,0-82.5,36.9-82.6,82.4c-0.1,45.6,36.8,82.7,82.4,82.9l370.9,1.2l0.3,0c45.4,0,82.5-36.9,82.6-82.4
					c0.1-45.6-36.8-82.7-82.4-82.9l-370.9-1.2L1477.7,1633.4L1477.7,1633.4z"/>
			</g>
		</g>
		<g>
			<path fill="#FFCC29" d="M2262.2,1788.9c-18.7-0.1-36.4-7.5-49.6-20.8c-13.3-13.4-20.6-31-20.5-49.8c0.1-38.7,31.7-70.1,70.4-70.1
				l371.1,1.2c38.8,0.1,70.3,31.8,70.1,70.6c-0.1,38.7-31.7,70.1-70.4,70.1L2262.2,1788.9z"/>
			<g>
				<path fill="#FFF5DC" d="M2262.5,1660.4c0.1,0,0.1,0,0.2,0l370.9,1.2c32,0.1,58,26.3,57.9,58.3v0c-0.1,31.9-26.2,57.9-58.1,57.9
					c-0.1,0-0.1,0-0.2,0l-370.9-1.2c-32-0.1-58-26.3-57.9-58.3v0C2204.5,1686.5,2230.6,1660.4,2262.5,1660.4 M2262.5,1635.9
					c-45.4,0-82.5,36.9-82.6,82.4c-0.1,22,8.5,42.8,24.1,58.4c15.6,15.7,36.3,24.4,58.3,24.4l370.9,1.2l0.3,0
					c45.4,0,82.5-36.9,82.6-82.4c0.1-45.6-36.8-82.7-82.4-82.9l-370.9-1.2L2262.5,1635.9L2262.5,1635.9z"/>
			</g>
		</g>
		<g>
			<path fill="#CE000B" d="M2023,1926.1L2023,1926.1c6.7,0,12.2,5.6,12.2,12.3l-0.1,40.8c0,6.7-5.6,12.2-12.3,12.2l0,0
				c-6.7,0-12.2-5.6-12.2-12.3l0.1-40.8C2010.7,1931.6,2016.3,1926.1,2023,1926.1z"/>
			<path fill="#CE000B" d="M2086.7,1926.3L2086.7,1926.3c6.7,0,12.2,5.6,12.2,12.3l-0.1,40.8c0,6.7-5.6,12.2-12.3,12.2h0
				c-6.7,0-12.2-5.6-12.2-12.3l0.1-40.8C2074.4,1931.8,2080,1926.3,2086.7,1926.3z"/>
		</g>
		<path fill="#EF484A" d="M1768.6,1700.6l-210.9-0.7c-9,0-16.4,7.3-16.4,16.3l0,0c0,9,7.3,16.4,16.3,16.4l210.9,0.7
			c9,0,16.4-7.3,16.4-16.3l0,0C1784.9,1708,1777.6,1700.6,1768.6,1700.6z"/>
		<path fill="#EF484A" d="M2553.4,1703.1l-210.9-0.7c-9,0-16.4,7.3-16.4,16.3l0,0c0,9,7.3,16.4,16.3,16.4l210.9,0.7
			c9,0,16.4-7.3,16.4-16.3l0,0C2569.7,1710.5,2562.4,1703.2,2553.4,1703.1z"/>
		<path fill="#FFF5DC" d="M2818.4,1070.8L1303,1066c-18-0.1-32.6-14.8-32.6-32.8l0,0c0.1-18,14.8-32.6,32.8-32.6l1515.4,4.8
			c18,0.1,32.6,14.8,32.6,32.8l0,0C2851.1,1056.2,2836.4,1070.9,2818.4,1070.8z"/>
		
			<rect x="1616.9" y="1700.3" transform="matrix(1 3.197182e-03 -3.197182e-03 1 5.4968 -5.3085)" fill="#CE000B" width="92.5" height="32.7"/>
		
			<rect x="2401.7" y="1702.8" transform="matrix(1 3.197182e-03 -3.197182e-03 1 5.5089 -7.8176)" fill="#CE000B" width="92.5" height="32.7"/>
		<g>
			<path fill="#FF6E75" d="M1881.1,1887.3l-43.7,75.2c-16.5,28.4,3.9,64,36.7,64.1l87,0.3
				C1889.6,2026.6,1845.1,1949.1,1881.1,1887.3z"/>
			<path fill="#FF6E75" d="M2135.9,1726.2l46.5,81.1l-89.7-156.6c-16.3-28.5-57.4-28.6-73.9-0.2l-43.7,75.2
				C2011,1663.9,2100.4,1664.2,2135.9,1726.2z"/>
			<path fill="#FF6E75" d="M2272.1,1963.9l-43.3-75.5c35.6,62-9.4,139.3-80.9,139.1l87,0.3
				C2267.8,2027.8,2288.4,1992.3,2272.1,1963.9z"/>
		</g>
		<path fill="#FFF5DC" d="M1924.7,2064.9L1924.7,2064.9c-10.2,0-18.4-8.3-18.3-18.5l0.1-19.7l36.8,0.1l-0.1,19.7
			C1943.2,2056.7,1934.9,2064.9,1924.7,2064.9z"/>
		<path fill="#FFF5DC" d="M1989.6,2065.1L1989.6,2065.1c-10.2,0-18.4-8.3-18.3-18.5l0.1-19.7l36.8,0.1l-0.1,19.7
			C2008,2056.9,1999.7,2065.1,1989.6,2065.1z"/>
		<path fill="#FFF5DC" d="M2054.4,2065.3L2054.4,2065.3c-10.2,0-18.4-8.3-18.3-18.5l0.1-19.7l36.8,0.1l-0.1,19.7
			C2072.9,2057.1,2064.6,2065.3,2054.4,2065.3z"/>
		<path fill="#FFCC29" d="M2119.3,2065.5L2119.3,2065.5c-10.2,0-18.4-8.3-18.3-18.5l0.1-19.7l36.8,0.1l-0.1,19.7
			C2137.7,2057.3,2129.5,2065.5,2119.3,2065.5z"/>
		<path fill="#FFF5DC" d="M2184.2,2065.7L2184.2,2065.7c-10.2,0-18.4-8.3-18.3-18.5l0.1-19.7l36.8,0.1l-0.1,19.7
			C2202.6,2057.5,2194.3,2065.7,2184.2,2065.7z"/>
		<path fill="#EF484A" d="M2264.5,2260l-421.4-1.3c-15.5,0-28.2-12.8-28.2-28.3l0,0c0-15.5,12.8-28.2,28.3-28.2l421.4,1.3
			c15.5,0,28.2,12.8,28.2,28.3v0C2292.8,2247.3,2280,2260,2264.5,2260z"/>
		<rect x="1421.4" y="1091.3" fill="#FCD98D" width="0" height="101.9"/>
		<path fill="#FFE7AC" d="M2740.3,1071.7l-1366.4-4.4l-0.2,47.6l52.6,0.2c22,0.1,39.8,18,39.7,40l-0.7,209.4
			c-0.1,21.3,17.1,38.6,38.4,38.7l0,0c21.3,0.1,38.6-17.1,38.7-38.4l0.7-217.3c0.1-17.6,14.4-31.9,32-31.8l0,0
			c17.6,0.1,31.9,14.4,31.8,32l-0.3,105c0,11.8,9.2,22,21,22.2c12,0.3,21.9-9.4,21.9-21.4l0.3-102.4c0.1-19.5,15.9-35.2,35.4-35.1
			l733.7,2.3c25.4,0.1,45.9,20.7,45.8,46.1l-0.2,68.8c-0.1,16.1,12.9,29.1,29,29.2l0,0c16.1,0.1,29.1-12.9,29.2-29l0.3-90.5
			c0-13.4,10.9-24.2,24.3-24.2l0,0c13.4,0,24.2,10.9,24.2,24.3l-0.9,267.9c-0.1,24.7,19.9,44.7,44.5,44.8h0
			c24.7,0.1,44.7-19.9,44.8-44.5l0.7-212.9c0.1-43.7,35.7-79.1,79.4-78.9l0,0L2740.3,1071.7z"/>
	</g>
</g>
</svg>
