<?xml version="1.0" encoding="utf-8"?>
<!-- Generator: Adobe Illustrator 18.1.0, SVG Export Plug-In . SVG Version: 6.00 Build 0)  -->
<svg version="1.1" id="Layer_1" xmlns="http://www.w3.org/2000/svg" xmlns:xlink="http://www.w3.org/1999/xlink" x="0px" y="0px"
	 viewBox="-78 136.2 690 520.1" enable-background="new -78 136.2 690 520.1" xml:space="preserve">
<g id="Layer_1_1_" display="none">
	<rect x="-302.3" y="291.6" display="inline" fill="#FFCC29" width="173.3" height="173.3"/>
	<rect x="-298" y="296" display="inline" fill="#FFE7AC" width="164.6" height="164.6"/>
	<circle display="inline" fill="#EF484A" cx="-215.7" cy="378.3" r="50.2"/>
	<circle display="inline" fill="#2C4415" cx="-160.8" cy="322" r="14.4"/>
	<circle display="inline" fill="#B5FF66" cx="-160.8" cy="322" r="7.2"/>
	<rect x="-434.3" y="-205.9" display="inline" fill="#FFE7AC" width="1455" height="1356.7"/>
</g>
<g id="Layer_2" display="none">
	<polygon display="inline" fill="#EF484A" stroke="#EF484A" stroke-width="32" stroke-miterlimit="10" points="492,5.7 428.1,-4.6 
		387.9,-2.1 303.3,-18.1 228.8,-0.4 64.7,5.7 64,-50.4 156.6,-39.4 194.9,-37.6 255.4,-46.3 315.6,-14.7 387.9,-44.5 430.3,-23.1 
		468,-45.8 488.8,-42.4 	"/>
	<g display="inline">
		<path fill="#EF484A" stroke="#EF484A" stroke-width="32" stroke-miterlimit="10" d="M104.7,2.7H76.4v-15.8h19.3
			c4.9,0,8.9-4,8.9-8.9s-4-8.9-8.9-8.9H76.4v-15.2h27c5,0,9-4,9-9s-4-9-9-9H66.7c-5.4,0-9.7,4.4-9.7,9.7v65.6c0,5.4,4.4,9.7,9.7,9.7
			h38c5,0,9-4,9-9S109.7,2.7,104.7,2.7z"/>
		<path fill="#EF484A" stroke="#EF484A" stroke-width="32" stroke-miterlimit="10" d="M181.5-27.5h-22.8c-4.9,0-8.9,4-8.9,8.9
			s4,8.9,8.9,8.9h13.1v9.1c-3.9,3.5-9,5-16.5,5c-7.1,0-11.9-1.8-15-5.7c-3.3-4.1-4.9-10.8-4.9-20.4c0-23.2,10.6-26.2,19.8-26.2
			c8.1,0,12.2,2.8,16.3,7.3c2.5,2.7,5.2,3.3,6.9,3.3c5.1,0,9.3-4.1,9.3-9.1c0-1.9-0.6-3.7-1.8-5.5c-3.6-5.2-12.3-14-30.8-14
			c-12.7,0-22.6,3.8-29.3,11.1c-6.9,7.5-10.4,18.6-10.4,33.1c0,14.8,3.5,26,10.4,33.4c6.7,7.1,16.5,10.7,29.3,10.7
			c13.5,0,26.7-5.6,33-13.9c1.8-2.3,2.6-4.7,2.6-8v-18.8C190.8-23.3,186.5-27.5,181.5-27.5z"/>
		<path fill="#EF484A" stroke="#EF484A" stroke-width="32" stroke-miterlimit="10" d="M260.9-27.5H238c-4.9,0-8.9,4-8.9,8.9
			s4,8.9,8.9,8.9h13.1v9.1c-3.9,3.5-9,5-16.5,5c-7.1,0-11.9-1.8-15-5.7c-3.3-4.1-4.9-10.8-4.9-20.4c0-23.2,10.6-26.2,19.8-26.2
			c8.1,0,12.2,2.8,16.3,7.3c2.5,2.7,5.2,3.3,6.9,3.3c5.1,0,9.3-4.1,9.3-9.1c0-1.9-0.6-3.7-1.8-5.5c-3.6-5.2-12.3-14-30.8-14
			c-12.7,0-22.6,3.8-29.3,11.1c-6.9,7.5-10.4,18.6-10.4,33.1c0,14.8,3.5,26,10.4,33.4c6.7,7.1,16.5,10.7,29.3,10.7
			c13.5,0,26.7-5.6,33-13.9c1.8-2.3,2.6-4.7,2.6-8v-18.8C270.3-23.3,265.9-27.5,260.9-27.5z"/>
		<path fill="#EF484A" stroke="#EF484A" stroke-width="32" stroke-miterlimit="10" d="M333.4-65.2c-5.2,0-9.6,4.4-9.6,9.6v37.3
			l-29.5-42.8c-1.7-2.6-4.6-4.1-7.8-4.1c-5.2,0-9.6,4.4-9.6,9.6v67.7c0,5.2,4.4,9.6,9.6,9.6c5.2,0,9.6-4.4,9.6-9.6V-25l29.4,42.5
			c1.7,2.6,4.8,4.2,7.9,4.2c5.2,0,9.6-4.4,9.6-9.6v-67.7C343-60.8,338.6-65.2,333.4-65.2z"/>
		<path fill="#EF484A" stroke="#EF484A" stroke-width="32" stroke-miterlimit="10" d="M387.9-65.9c-12.9,0-22.8,3.7-29.7,11.1
			c-7,7.5-10.5,18.6-10.5,33.1c0,14.3,3.5,25.4,10.5,32.9c6.9,7.4,16.9,11.2,29.7,11.2s22.8-3.8,29.7-11.2
			c7-7.5,10.5-18.6,10.5-32.9c0-14.5-3.5-25.6-10.5-33.1C410.7-62.2,400.7-65.9,387.9-65.9z M387.9,4.4c-8.7,0-20.3-2.7-20.3-26
			c0-23.5,11.6-26.2,20.3-26.2s20.3,2.7,20.3,26.2C408.2,1.7,396.6,4.4,387.9,4.4z"/>
		<path fill="#EF484A" stroke="#EF484A" stroke-width="32" stroke-miterlimit="10" d="M496.3-27.5h-22.8c-4.9,0-8.9,4-8.9,8.9
			s4,8.9,8.9,8.9h13.1v9.1c-3.9,3.5-9,5-16.5,5c-7.1,0-11.9-1.8-15-5.7c-3.3-4.1-4.9-10.8-4.9-20.4c0-23.2,10.6-26.2,19.8-26.2
			c8.1,0,12.2,2.8,16.3,7.3c2.5,2.7,5.2,3.3,6.9,3.3c5.1,0,9.3-4.1,9.3-9.1c0-1.9-0.6-3.7-1.8-5.5c-3.6-5.2-12.3-14-30.8-14
			c-12.7,0-22.6,3.8-29.3,11.1c-6.9,7.5-10.4,18.6-10.4,33.1c0,14.8,3.5,26,10.4,33.4c6.7,7.1,16.5,10.7,29.3,10.7
			c13.5,0,26.7-5.6,33-13.9c1.8-2.3,2.6-4.7,2.6-8v-18.8C505.6-23.3,501.3-27.5,496.3-27.5z"/>
	</g>
	<g display="inline">
		<path fill="#FFCC29" d="M104.7,0H76.4v-15.8h19.3c4.9,0,8.9-4,8.9-8.9s-4-8.9-9-8.9H76.4V-49h27c5,0,9-4,9-9s-4-9-9-9H66.7
			c-5.4,0-9.7,4.4-9.7,9.7V8.3c0,5.4,4.4,9.7,9.7,9.7h38c5,0,9-4,9-9S109.7,0,104.7,0z"/>
		<path fill="#FFCC29" d="M181.5-30.3h-22.8c-4.9,0-8.9,4-8.9,8.9s4,8.9,8.9,8.9h13.1v9.1c-3.9,3.5-9,5-16.5,5
			c-7.1,0-11.9-1.8-15-5.7c-3.3-4.1-4.9-10.8-4.9-20.4c0-23.2,10.6-26.2,19.8-26.2c8.1,0,12.2,2.8,16.3,7.3c2.5,2.7,5.2,3.3,6.9,3.3
			c5.1,0,9.3-4.1,9.3-9.1c0-1.9-0.6-3.7-1.8-5.5c-3.6-5.2-12.3-14-30.8-14c-12.7,0-22.6,3.8-29.3,11.1c-6.9,7.5-10.4,18.6-10.4,33.1
			c0,14.8,3.5,26,10.4,33.4c6.7,7.1,16.5,10.7,29.3,10.7c13.5,0,26.7-5.6,33-13.9c1.8-2.3,2.6-4.7,2.6-8v-18.8
			C190.8-26,186.5-30.3,181.5-30.3z"/>
		<path fill="#FFF5DC" d="M260.9-30.3H238c-4.9,0-8.9,4-8.9,8.9s4,8.9,8.9,8.9h13.1v9.1c-3.9,3.5-9,5-16.5,5c-7.1,0-11.9-1.8-15-5.7
			c-3.3-4.1-4.9-10.8-4.9-20.4c0-23.2,10.6-26.2,19.8-26.2c8.1,0,12.2,2.8,16.3,7.3c2.5,2.7,5.2,3.3,6.9,3.3c5.1,0,9.3-4.1,9.3-9.1
			c0-1.9-0.6-3.7-1.8-5.5c-3.6-5.2-12.3-14-30.8-14c-12.7,0-22.6,3.8-29.3,11.1c-6.9,7.5-10.4,18.6-10.4,33.1
			c0,14.8,3.5,26,10.4,33.4c6.7,7.1,16.5,10.7,29.3,10.7c13.5,0,26.7-5.6,33-13.9c1.8-2.3,2.6-4.7,2.6-8v-18.8
			C270.3-26,265.9-30.3,260.9-30.3z"/>
		<path fill="#FFF5DC" d="M333.4-68c-5.2,0-9.6,4.4-9.6,9.6v37.3l-29.5-42.8c-1.7-2.6-4.6-4.1-7.8-4.1c-5.2,0-9.6,4.4-9.6,9.6V9.3
			c0,5.2,4.4,9.6,9.6,9.6c5.2,0,9.6-4.4,9.6-9.6v-37.1l29.4,42.5c1.7,2.6,4.8,4.2,7.9,4.2c5.2,0,9.6-4.4,9.6-9.6v-67.7
			C343-63.6,338.6-68,333.4-68z"/>
		<path fill="#FFF5DC" d="M387.9-68.7c-12.9,0-22.8,3.7-29.7,11.1c-7,7.5-10.5,18.6-10.5,33.1c0,14.3,3.5,25.4,10.5,32.9
			c6.9,7.4,16.9,11.2,29.7,11.2s22.8-3.8,29.7-11.2c7-7.5,10.5-18.6,10.5-32.9c0-14.5-3.5-25.6-10.5-33.1
			C410.7-64.9,400.7-68.7,387.9-68.7z M387.9,1.6c-8.7,0-20.3-2.7-20.3-26c0-23.5,11.6-26.2,20.3-26.2s20.3,2.7,20.3,26.2
			C408.2-1.1,396.6,1.6,387.9,1.6z"/>
		<path fill="#FFF5DC" d="M496.3-30.3h-22.8c-4.9,0-8.9,4-8.9,8.9s4,8.9,8.9,8.9h13.1v9.1c-3.9,3.5-9,5-16.5,5
			c-7.1,0-11.9-1.8-15-5.7c-3.3-4.1-4.9-10.8-4.9-20.4c0-23.2,10.6-26.2,19.8-26.2c8.1,0,12.2,2.8,16.3,7.3c2.5,2.7,5.2,3.3,6.9,3.3
			c5.1,0,9.3-4.1,9.3-9.1c0-1.9-0.6-3.7-1.8-5.5c-3.6-5.2-12.3-14-30.8-14c-12.7,0-22.6,3.8-29.3,11.1c-6.9,7.5-10.4,18.6-10.4,33.1
			c0,14.8,3.5,26,10.4,33.4c6.7,7.1,16.5,10.7,29.3,10.7c13.5,0,26.7-5.6,33-13.9c1.8-2.3,2.6-4.7,2.6-8v-18.8
			C505.6-26,501.3-30.3,496.3-30.3z"/>
	</g>
	<path display="inline" fill="none" stroke="#EF484A" stroke-width="8" stroke-linecap="round" stroke-miterlimit="10" d="M26.4,9.8
		H23c-3.4,0-6.2,2.8-6.2,6.2l0,0c0,3.4,2.8,6.2,6.2,6.2h3.2c6.1,0,11.1-5,11.1-11.1V5.3c0-6.2-5-11.2-11.2-11.2h-5.9
		c-8.6,0-15.7,7-15.7,15.7v12c0,10.8,8.7,19.5,19.5,19.5h235.7c3.6,0,6.5,2.9,6.5,6.5l0,0c0,3.6-2.9,6.5-6.5,6.5H250"/>
	<path display="inline" fill="none" stroke="#EF484A" stroke-width="8" stroke-linecap="round" stroke-miterlimit="10" d="
		M113.2,41.3H0.8c-4.7,0-8.5,3.8-8.5,8.5l0,0c0,4.7,3.8,8.5,8.5,8.5h1.4c4.7,0,8.5-3.8,8.5-8.5l0,0"/>
	<path display="inline" fill="none" stroke="#EF484A" stroke-width="8" stroke-linecap="round" stroke-miterlimit="10" d="M533,9.8
		h3.4c3.4,0,6.2,2.8,6.2,6.2l0,0c0,3.4-2.8,6.2-6.2,6.2h-3.2c-6.1,0-11.1-5-11.1-11.1V5.3c0-6.2,5-11.2,11.2-11.2h5.9
		c8.6,0,15.7,7,15.7,15.7v12c0,10.8-8.7,19.5-19.5,19.5H299.7c-3.6,0-6.5,2.9-6.5,6.5l0,0c0,3.6,2.9,6.5,6.5,6.5h9.7"/>
	<path display="inline" fill="none" stroke="#EF484A" stroke-width="8" stroke-linecap="round" stroke-miterlimit="10" d="
		M446.1,41.3h112.5c4.7,0,8.5,3.8,8.5,8.5l0,0c0,4.7-3.8,8.5-8.5,8.5h-1.4c-4.7,0-8.5-3.8-8.5-8.5l0,0"/>
	<path display="inline" fill="none" stroke="#FFCC29" stroke-width="8" stroke-linecap="round" stroke-miterlimit="10" d="M239,49.8
		H65.2c-6.9,0-12.5,5.6-12.5,12.5l0,0c0,7.2,5.8,13,13,13h13.9c4.8,0,8.6-3.9,8.6-8.6l0,0c0-4.6-3.7-8.3-8.3-8.3h-2.4
		c-4.8,0-8.8,3.9-8.8,8.8l0,0"/>
	<path display="inline" fill="none" stroke="#FFCC29" stroke-width="8" stroke-linecap="round" stroke-miterlimit="10" d="
		M320.5,49.8h173.8c6.9,0,12.5,5.6,12.5,12.5l0,0c0,7.2-5.8,13-13,13h-13.9c-4.8,0-8.6-3.9-8.6-8.6l0,0c0-4.6,3.7-8.3,8.3-8.3h2.4
		c4.8,0,8.8,3.9,8.8,8.8l0,0"/>
	<circle display="inline" fill="#FFF5DC" cx="42.2" cy="52.9" r="3.1"/>
	<circle display="inline" fill="#FFF5DC" cx="24.7" cy="52.9" r="3.1"/>
	<circle display="inline" fill="#FFF5DC" cx="33.9" cy="69.1" r="3.1"/>
	<circle display="inline" fill="#FFF5DC" cx="103.8" cy="62.5" r="3.1"/>
	<circle display="inline" fill="#FFF5DC" cx="517.3" cy="52.9" r="3.1"/>
	<circle display="inline" fill="#FFF5DC" cx="534.7" cy="52.9" r="3.1"/>
	<circle display="inline" fill="#FFF5DC" cx="525.5" cy="69.1" r="3.1"/>
	<circle display="inline" fill="#FFF5DC" cx="455.6" cy="62.5" r="3.1"/>
	
		<text transform="matrix(1 0 0 1 177.9151 -83.2972)" display="inline" fill="#FFF5DC" font-family="'Bariol-Bold'" font-size="40.2251">THE SECRET</text>
	<g display="inline">
		<text transform="matrix(1 0 0 1 -32.5899 751.3729)" fill="#EF484A" font-family="'Bariol-Bold'" font-size="24.6642">Once a year, a strange </text>
		<text transform="matrix(1 0 0 1 192.6279 751.3729)" fill="#FFCC29" font-family="'Bariol-Bold'" font-size="24.6642">GNOG</text>
		<text transform="matrix(1 0 0 1 258.6076 751.3729)" fill="#EF484A" font-family="'Bariol-Bold'" font-size="24.6642"> shows up. It is the </text>
		<text transform="matrix(1 0 0 1 443.9991 751.3729)" fill="#FFF5DC" font-family="'Bariol-Bold'" font-size="24.6642">EGGNOG</text>
		<text transform="matrix(1 0 0 1 539.549 751.3729)" fill="#EF484A" font-family="'Bariol-Bold'" font-size="24.6642">. </text>
		<text transform="matrix(1 0 0 1 -94.7918 783.1697)" fill="#EF484A" font-family="'Bariol-Bold'" font-size="24.6642">Mistaken for a sweet beverage, he hides souvenirs of a beautiful voyage...</text>
		
			<line fill="none" stroke="#EF484A" stroke-width="8" stroke-linecap="round" stroke-miterlimit="10" x1="-94.8" y1="798.2" x2="618.4" y2="798.2"/>
	</g>
	<path display="inline" fill="#FFF5DC" d="M-55.8,413.7l17-4.1c3.1-0.8,4.2-4.5,2-6.8l-48.1-50.7c-2.2-2.3-6-1.4-6.9,1.6l-19.9,67
		c-0.9,3,1.8,5.9,4.9,5.2l17-4.1c3.1-0.8,5.8,2.1,4.9,5.2l-14,47.2c-0.9,3,1.8,5.9,4.9,5.2l17-4.1c3.1-0.8,5.8,2.1,4.9,5.2l-14,47.2
		c-0.9,3,1.8,5.9,4.9,5.2l20.7-5c2.2-0.5,4.4,0.8,5,3l10.5,44c1.2,5.1,6.4,8.3,11.5,7.1l0,0c5.1-1.2,8.3-6.4,7.1-11.5l-10.5-44
		c-0.5-2.2,0.8-4.4,3-5l20.7-5c3.1-0.8,4.2-4.5,2-6.8l-33.8-35.8c-2.2-2.3-1.1-6.1,2-6.8l17-4.1c3.1-0.8,4.2-4.5,2-6.8l-33.8-35.8
		C-60,418.3-58.9,414.5-55.8,413.7z"/>
	<path display="inline" fill="#FFF5DC" d="M-121,562l6.8-1.6c1.2-0.3,1.7-1.8,0.8-2.7l-19.3-20.4c-0.9-0.9-2.4-0.5-2.8,0.6l-8,26.9
		c-0.4,1.2,0.7,2.4,2,2.1l6.8-1.6c1.2-0.3,2.3,0.9,2,2.1l-5.6,19c-0.4,1.2,0.7,2.4,2,2.1l6.8-1.6c1.2-0.3,2.3,0.9,2,2.1l-5.6,19
		c-0.4,1.2,0.7,2.4,2,2.1l8.3-2c0.9-0.2,1.8,0.3,2,1.2l4.2,17.7c0.5,2.1,2.6,3.4,4.6,2.8l0,0c2.1-0.5,3.4-2.6,2.8-4.6l-4.2-17.7
		c-0.2-0.9,0.3-1.8,1.2-2l8.3-2c1.2-0.3,1.7-1.8,0.8-2.7l-13.6-14.4c-0.9-0.9-0.4-2.5,0.8-2.7l6.8-1.6c1.2-0.3,1.7-1.8,0.8-2.7
		l-13.6-14.4C-122.7,563.8-122.3,562.3-121,562z"/>
	<path display="inline" fill="#FFF5DC" d="M591.8,413.7l-17-4.1c-3.1-0.8-4.2-4.5-2-6.8l48.1-50.7c2.2-2.3,6-1.4,6.9,1.6l19.9,67
		c0.9,3-1.8,5.9-4.9,5.2l-17-4.1c-3.1-0.8-5.8,2.1-4.9,5.2l14,47.2c0.9,3-1.8,5.9-4.9,5.2l-17-4.1c-3.1-0.8-5.8,2.1-4.9,5.2l14,47.2
		c0.9,3-1.8,5.9-4.9,5.2l-20.7-5c-2.2-0.5-4.4,0.8-5,3l-10.5,44c-1.2,5.1-6.4,8.3-11.5,7.1l0,0c-5.1-1.2-8.3-6.4-7.1-11.5l10.5-44
		c0.5-2.2-0.8-4.4-3-5l-20.7-5c-3.1-0.8-4.2-4.5-2-6.8l33.8-35.8c2.2-2.3,1.1-6.1-2-6.8l-17-4.1c-3.1-0.8-4.2-4.5-2-6.8l33.8-35.8
		C596,418.3,594.9,414.5,591.8,413.7z"/>
	<path display="inline" fill="#FFF5DC" d="M657.1,562l-6.8-1.6c-1.2-0.3-1.7-1.8-0.8-2.7l19.3-20.4c0.9-0.9,2.4-0.5,2.8,0.6l8,26.9
		c0.4,1.2-0.7,2.4-2,2.1l-6.8-1.6c-1.2-0.3-2.3,0.9-2,2.1l5.6,19c0.4,1.2-0.7,2.4-2,2.1l-6.8-1.6c-1.2-0.3-2.3,0.9-2,2.1l5.6,19
		c0.4,1.2-0.7,2.4-2,2.1l-8.3-2c-0.9-0.2-1.8,0.3-2,1.2l-4.2,17.7c-0.5,2.1-2.6,3.4-4.6,2.8l0,0c-2.1-0.5-3.4-2.6-2.8-4.6l4.2-17.7
		c0.2-0.9-0.3-1.8-1.2-2l-8.3-2c-1.2-0.3-1.7-1.8-0.8-2.7l13.6-14.4c0.9-0.9,0.4-2.5-0.8-2.7l-6.8-1.6c-1.2-0.3-1.7-1.8-0.8-2.7
		l13.6-14.4C658.8,563.8,658.3,562.3,657.1,562z"/>
	<path display="inline" fill="#FFF5DC" d="M-153.9,391.1l-5.9,0.4c-0.7,0-1.3,0.5-1.5,1.3l-1.4,5.8c-0.4,1.6-2.6,1.7-3.2,0.2
		l-2.2-5.5c-0.3-0.7-1-1.1-1.7-1l-5.9,0.4c-1.6,0.1-2.4-1.9-1.2-2.9l4.5-3.8c0.5-0.5,0.8-1.2,0.5-1.9l-2.2-5.5
		c-0.6-1.5,1.1-2.9,2.4-2.1l5,3.1c0.6,0.4,1.4,0.3,1.9-0.1l4.5-3.8c1.2-1,3.1,0.1,2.7,1.7l-1.4,5.8c-0.2,0.7,0.1,1.4,0.7,1.8l5,3.1
		C-151.8,388.9-152.3,391-153.9,391.1z"/>
	<path display="inline" fill="#FFF5DC" d="M756.6,378.8l-5.9,0.4c-0.7,0-1.3,0.5-1.5,1.3l-1.4,5.8c-0.4,1.6-2.6,1.7-3.2,0.2
		l-2.2-5.5c-0.3-0.7-1-1.1-1.7-1l-5.9,0.4c-1.6,0.1-2.4-1.9-1.2-2.9l4.5-3.8c0.5-0.5,0.8-1.2,0.5-1.9l-2.2-5.5
		c-0.6-1.5,1.1-2.9,2.4-2.1l5,3.1c0.6,0.4,1.4,0.3,1.9-0.1l4.5-3.8c1.2-1,3.1,0.1,2.7,1.7l-1.4,5.8c-0.2,0.7,0.1,1.4,0.7,1.8
		l5.1,3.1C758.8,376.6,758.3,378.7,756.6,378.8z"/>
	<path display="inline" fill="#FFF5DC" d="M-88.2,259.4l-5.9,0.4c-0.7,0-1.3,0.5-1.5,1.3l-1.4,5.8c-0.4,1.6-2.6,1.7-3.2,0.2
		l-2.2-5.5c-0.3-0.7-1-1.1-1.7-1l-5.9,0.4c-1.6,0.1-2.4-1.9-1.2-2.9l4.6-3.8c0.5-0.5,0.8-1.2,0.5-1.9l-2.2-5.5
		c-0.6-1.5,1.1-2.9,2.4-2.1l5,3.1c0.6,0.4,1.4,0.3,1.9-0.1l4.5-3.8c1.2-1,3.1,0.1,2.7,1.7l-1.4,5.8c-0.2,0.7,0.1,1.4,0.7,1.8l5,3.1
		C-86,257.1-86.6,259.3-88.2,259.4z"/>
	<path display="inline" fill="#FFF5DC" d="M682.8,308.7l-5.9,0.4c-0.7,0-1.3,0.5-1.5,1.3l-1.4,5.8c-0.4,1.6-2.6,1.7-3.2,0.2
		l-2.2-5.5c-0.3-0.7-1-1.1-1.7-1l-5.9,0.4c-1.6,0.1-2.4-1.9-1.2-2.9l4.5-3.8c0.5-0.5,0.8-1.2,0.5-1.9l-2.2-5.5
		c-0.6-1.5,1.1-2.9,2.4-2.1l5,3.1c0.6,0.4,1.4,0.3,1.9-0.1l4.5-3.8c1.2-1,3.1,0.1,2.7,1.7l-1.4,5.8c-0.2,0.7,0.1,1.4,0.7,1.8l5,3.1
		C684.9,306.5,684.4,308.6,682.8,308.7z"/>
	<path display="inline" fill="#FFF5DC" d="M-11.6,328.8l-5.9,0.4c-0.7,0-1.3,0.5-1.5,1.3l-1.4,5.8c-0.4,1.6-2.6,1.7-3.2,0.2
		l-2.2-5.5c-0.3-0.7-1-1.1-1.7-1l-5.9,0.4c-1.6,0.1-2.4-1.9-1.2-2.9l4.5-3.8c0.5-0.5,0.8-1.2,0.5-1.9l-2.2-5.5
		c-0.6-1.5,1.1-2.9,2.4-2.1l5,3.1c0.6,0.4,1.4,0.3,1.9-0.1l4.5-3.8c1.2-1,3.1,0.1,2.7,1.7l-1.4,5.8c-0.2,0.7,0.1,1.4,0.7,1.8l5,3.1
		C-9.5,326.5-10,328.7-11.6,328.8z"/>
	<path display="inline" fill="#FFF5DC" d="M703.2,478.6l-5.9,0.4c-0.7,0-1.3,0.5-1.5,1.3l-1.4,5.8c-0.4,1.6-2.6,1.7-3.2,0.2
		l-2.2-5.5c-0.3-0.7-1-1.1-1.7-1l-5.9,0.4c-1.6,0.1-2.4-1.9-1.2-2.9l4.5-3.8c0.5-0.5,0.8-1.2,0.5-1.9l-2.2-5.5
		c-0.6-1.5,1.1-2.9,2.4-2.1l5,3.1c0.6,0.4,1.4,0.3,1.9-0.1l4.5-3.8c1.2-1,3.1,0.1,2.7,1.7l-1.4,5.8c-0.2,0.7,0.1,1.4,0.7,1.8
		l5.1,3.1C705.4,476.3,704.8,478.5,703.2,478.6z"/>
</g>
<g id="Layer_3" display="none">
	<g display="inline">
		<path fill="#FFF5DC" d="M11.3,393.4c5.4,27.4,28.7,48.4,57.2,50.3H53.9c-6.1,0-11.1,5-11.1,11.1l0,0c0,6.1,5,11.1,11.1,11.1h13
			c-1.9,2-3.1,4.7-3.1,7.7l0,0c0,6.1,5,11.1,11.1,11.1h13c-1.9,2-3.1,4.7-3.1,7.7l0,0c0,6.1,5,11.1,11.1,11.1h13
			c-1.9,2-3.1,4.7-3.1,7.7l0,0c0,6.1,5,11.1,11.1,11.1h16.4l1.4,3.9c4.5,20.6-2.6,42-18.5,55.9l-57.8,45.9c-3.8,3-6,7.7-5.9,12.5
			c0.2,8.5,7.1,15.3,15.6,15.3h403.2c8.9,0,16.1-7.3,15.9-16.3l0,0c-0.1-4.9-2.5-9.5-6.5-12.5l-60.7-45
			c-16.2-13.8-23.4-35.4-18.8-56.2l1.4-3.6h20.9c6.1,0,11.1-5,11.1-11.1l0,0c0-3-1.2-5.7-3.1-7.7h13c6.1,0,11.1-5,11.1-11.1l0,0
			c0-3-1.2-5.7-3.1-7.7h13c6.1,0,11.1-5,11.1-11.1l0,0c0-3-1.2-5.7-3.1-7.7h13c6.1,0,11.1-5,11.1-11.1l0,0c0-6.1-5-11.1-11.1-11.1
			h-14.6c32.5-2.1,58.4-29.2,58.4-62.3c0-21-10.5-39.7-26.4-51v-171H528c6.2,0,11.2-5,11.2-11.2l0,0c0-6.2-5-11.2-11.2-11.2l-518,0
			c-6.2,0-11.2,5-11.2,11.2l0,0c0,6.2,5,11.2,11.2,11.2h27.3c0,4.6-0.1,10.4-0.1,17.2c-0.1,0-0.3,0-0.4,0c-60.6,0-110,49.3-110,110
			C-73.2,338.3-37.1,381.8,11.3,393.4z M-20.8,286.4c0-31.8,25.8-57.6,57.6-57.6c0.1,0,0.1,0,0.2,0c-0.1,32.1-0.2,69-0.3,101.4
			c-4.9,3.5-9.3,7.6-13,12.3C-1.8,336.5-20.8,313.6-20.8,286.4z"/>
		<path fill="#EF484A" d="M425.2,158.4H108.7c-25.2,0-45.6,20.4-45.6,45.6v193.6c0,25.2,20.4,45.6,45.6,45.6h21.9
			c25.2,0,45.6,20.4,45.6,45.6V555c0,25.2,20.4,45.6,45.6,45.6h90.3c25.2,0,45.6-20.4,45.6-45.6v-66.2c0-25.2,20.4-45.6,45.6-45.6
			h21.9c25.2,0,45.6-20.4,45.6-45.6V204C470.8,178.8,450.4,158.4,425.2,158.4z"/>
		<polyline fill="#FFCC29" points="63.1,318.8 180.1,371.9 101.9,395.7 63.1,391.5 		"/>
		<path fill="#EF484A" stroke="#EF484A" stroke-width="65.3559" stroke-miterlimit="10" d="M63.1,376.4"/>
		<rect x="129.8" y="250.1" fill="#873533" width="120.4" height="96"/>
		<rect x="129.8" y="345.8" fill="#631D1D" width="11.5" height="45.7"/>
		<rect x="238.7" y="345.8" fill="#631D1D" width="11.5" height="45.7"/>
		<path fill="#873533" d="M332.8,391.5h-11.5v-77c0-3.2,2.6-5.7,5.7-5.7l0,0c3.2,0,5.7,2.6,5.7,5.7L332.8,391.5z"/>
		<path fill="#83FFD6" d="M452,371.9c-4.1,1.7-7.6,3.1-15.1,3.1c-7.5,0-11-1.4-15.1-3.1c-4.4-1.8-9.4-3.9-18.8-3.9
			c-9.5,0-14.5,2.1-18.8,3.9c-4.1,1.7-7.6,3.1-15.1,3.1c-7.5,0-11-1.4-15.1-3.1c-4.4-1.8-9.4-3.9-18.8-3.9c-9.5,0-14.5,2.1-18.8,3.9
			c-4.1,1.7-7.6,3.1-15.1,3.1c-7.5,0-11-1.4-15.1-3.1c-4.4-1.8-9.4-3.9-18.8-3.9c-9.5,0-14.5,2.1-18.8,3.9
			c-4.1,1.7-7.6,3.1-15.1,3.1c-7.5,0-11-1.4-15.1-3.1c-4.4-1.8-9.4-3.9-18.8-3.9c-9.5,0-14.5,2.1-18.8,3.9
			c-4.1,1.7-7.6,3.1-15.1,3.1c-7.5,0-11-1.4-15.1-3.1c-4.4-1.8-9.4-3.9-18.8-3.9c-9.5,0-14.5,2.1-18.8,3.9
			c-4.1,1.7-7.6,3.1-15.1,3.1c-7.5,0-11-1.4-15.1-3.1c-4.4-1.8-9.4-3.9-18.8-3.9v8.4v1.4v19.7c0,25.2,20.4,45.6,45.6,45.6h21.9
			c25.2,0,45.6,20.4,45.6,45.6v66.2c0,25.2,20.4,45.6,45.6,45.6h90.3c25.2,0,45.6-20.4,45.6-45.6v-66.2c0-25.2,20.4-45.6,45.6-45.6
			h21.9c25.2,0,45.6-20.4,45.6-45.6v-19.7v-1.4v-8.4C461.3,368.1,456.4,370.1,452,371.9z"/>
		<polygon fill="#9B4242" points="272.2,265.8 110.9,265.8 124.9,220.4 258.3,220.4 		"/>
		<polygon fill="#9B4242" points="352.6,348 458.2,348 449.1,377.7 361.8,377.7 		"/>
		<circle fill="#FFCC29" cx="396.1" cy="235.4" r="45.4"/>
		<rect x="250.2" y="335.6" fill="#9B4242" width="71.3" height="10.5"/>
		<rect x="141.3" y="274.8" fill="#631D1D" width="97.4" height="38.4"/>
		<rect x="187.8" y="274.8" fill="#9B4242" width="5.8" height="38.4"/>
		<g>
			<path fill="#FFF5DC" d="M392.5,222.5h-84.1c-3.8,0-6.8,3.1-6.8,6.8l0,0c0,3.8,3.1,6.8,6.8,6.8h84.1c3.8,0,6.8-3.1,6.8-6.8l0,0
				C399.3,225.5,396.3,222.5,392.5,222.5z"/>
			<path fill="#FFF5DC" d="M375.1,242.3h-12.7c-1.7,0-3.1-1.4-3.1-3.1c0-1.7,1.4-3.1,3.1-3.1H339c1.7,0,3.1,1.4,3.1,3.1l0,0
				c0,1.7-1.4,3.1-3.1,3.1h-13.1c-2.2,0-4,1.8-4,4c0,2.2,1.8,4,4,4h49.3c2.2,0,4-1.8,4-4l0,0C379.1,244,377.3,242.3,375.1,242.3z"/>
		</g>
		<g>
			<path fill="#FFF5DC" d="M389.2,208.5h60.7c2.7,0,4.9-2.2,4.9-4.9l0,0c0-2.7-2.2-4.9-4.9-4.9h-60.7c-2.7,0-4.9,2.2-4.9,4.9l0,0
				C384.3,206.2,386.5,208.5,389.2,208.5z"/>
			<path fill="#FFF5DC" d="M401.8,194.2h9.2c1.2,0,2.2,1,2.2,2.2c0,1.2-1,2.2-2.2,2.2h16.9c-1.2,0-2.2-1-2.2-2.2l0,0
				c0-1.2,1-2.2,2.2-2.2h9.5c1.6,0,2.9-1.3,2.9-2.9c0-1.6-1.3-2.9-2.9-2.9h-35.6c-1.6,0-2.9,1.3-2.9,2.9l0,0
				C398.8,192.9,400.1,194.2,401.8,194.2z"/>
		</g>
		<path fill="#FFF5DC" d="M384.9,258.8h-11.6c-0.6,0-1.2-0.5-1.2-1.2v-0.8c0-0.6,0.5-1.2,1.2-1.2h11.6c0.6,0,1.2,0.5,1.2,1.2v0.8
			C386.1,258.3,385.5,258.8,384.9,258.8z"/>
		<path fill="#FFF5DC" d="M458.3,282.5h-11.6c-0.6,0-1.2-0.5-1.2-1.2v-0.8c0-0.6,0.5-1.2,1.2-1.2h11.6c0.6,0,1.2,0.5,1.2,1.2v0.8
			C459.5,281.9,459,282.5,458.3,282.5z"/>
		<path fill="#FFF5DC" d="M307.4,215.7h-11.6c-0.6,0-1.2-0.5-1.2-1.2v-0.8c0-0.6,0.5-1.2,1.2-1.2h11.6c0.6,0,1.2,0.5,1.2,1.2v0.8
			C308.6,215.2,308,215.7,307.4,215.7z"/>
		<path fill="#FFF5DC" d="M377.9,188.4h-11.6c-0.6,0-1.2-0.5-1.2-1.2v-0.8c0-0.6,0.5-1.2,1.2-1.2h11.6c0.6,0,1.2,0.5,1.2,1.2v0.8
			C379.1,187.9,378.5,188.4,377.9,188.4z"/>
		<path fill="#83FFD6" d="M452,371.9c-4.1,1.7-7.6,3.1-15.1,3.1c-7.5,0-11-1.4-15.1-3.1c-4.4-1.8-9.4-3.9-18.8-3.9
			c-9.5,0-14.5,2.1-18.8,3.9c-4.1,1.7-7.6,3.1-15.1,3.1c-7.5,0-11-1.4-15.1-3.1c-4.4-1.8-9.4-3.9-18.8-3.9c-9.5,0-14.5,2.1-18.8,3.9
			c-4.1,1.7-7.6,3.1-15.1,3.1c-7.5,0-11-1.4-15.1-3.1c-4.4-1.8-9.4-3.9-18.8-3.9c-9.5,0-14.5,2.1-18.8,3.9
			c-4.1,1.7-7.6,3.1-15.1,3.1c-7.5,0-11-1.4-15.1-3.1c-4.4-1.8-9.4-3.9-18.8-3.9c-9.5,0-14.5,2.1-18.8,3.9
			c-4.1,1.7-7.6,3.1-15.1,3.1c-7.5,0-11-1.4-15.1-3.1c-4.4-1.8-9.4-3.9-18.8-3.9c-9.5,0-14.5,2.1-18.8,3.9
			c-4.1,1.7-7.6,3.1-15.1,3.1c-7.5,0-11-1.4-15.1-3.1c-4.4-1.8-9.4-3.9-18.8-3.9v8.4v1.4v19.7c0,25.2,20.4,45.6,45.6,45.6h21.9
			c25.2,0,45.6,20.4,45.6,45.6v66.2c0,25.2,20.4,45.6,45.6,45.6h90.3c25.2,0,45.6-20.4,45.6-45.6v-66.2c0-25.2,20.4-45.6,45.6-45.6
			h21.9c25.2,0,45.6-20.4,45.6-45.6v-19.7v-1.4v-8.4C461.3,368.1,456.4,370.1,452,371.9z"/>
		<g>
			<path fill="#4BE0AA" d="M220.8,517.6c0,0,20.6-26,46.1-26s46.1,26.1,46.1,26.1s-20.6,26-46.1,26
				C241.5,543.6,220.8,517.6,220.8,517.6z"/>
			<path fill="#4BE0AA" d="M305.7,519.3c0,0-0.9-7.4,3.2-11.4c4-4,11.4-3.2,11.4-3.2s0.9,7.4-3.2,11.4
				C313.1,520.2,305.7,519.3,305.7,519.3z"/>
			<path fill="#4BE0AA" d="M305.7,513.1c0,0-0.9,7.4,3.2,11.4c4,4,11.4,3.2,11.4,3.2s0.9-7.4-3.2-11.4
				C313,512.3,305.7,513.1,305.7,513.1z"/>
			<circle fill="#83FFD6" cx="250.8" cy="517.6" r="11.2"/>
			<circle fill="#4BE0AA" cx="250.8" cy="517.6" r="4.6"/>
			<path fill="#4BE0AA" d="M402.9,414.1c0,0-8.4,10.6-18.7,10.6s-18.7-10.6-18.7-10.6s8.4-10.6,18.7-10.6S402.9,414.1,402.9,414.1z"
				/>
			<path fill="#4BE0AA" d="M368.6,413.4c0,0,0.3,3-1.3,4.6c-1.6,1.6-4.6,1.3-4.6,1.3s-0.3-3,1.3-4.6
				C365.6,413,368.6,413.4,368.6,413.4z"/>
			<path fill="#4BE0AA" d="M368.6,415.9c0,0,0.3-3-1.3-4.6c-1.6-1.6-4.6-1.3-4.6-1.3s-0.3,3,1.3,4.6
				C365.6,416.2,368.6,415.9,368.6,415.9z"/>
			<circle fill="#83FFD6" cx="390.8" cy="414.1" r="4.5"/>
			<circle fill="#4BE0AA" cx="390.8" cy="414.1" r="1.9"/>
			<path fill="#4BE0AA" d="M289.8,443.8c0,0,8.4-10.6,18.7-10.6c10.3,0,18.7,10.6,18.7,10.6s-8.4,10.6-18.7,10.6
				C298.1,454.4,289.8,443.8,289.8,443.8z"/>
			<path fill="#4BE0AA" d="M324.1,444.5c0,0-0.3-3,1.3-4.6c1.6-1.6,4.6-1.3,4.6-1.3s0.3,3-1.3,4.6
				C327.1,444.9,324.1,444.5,324.1,444.5z"/>
			<path fill="#4BE0AA" d="M324.1,442c0,0-0.3,3,1.3,4.6c1.6,1.6,4.6,1.3,4.6,1.3s0.3-3-1.3-4.6C327.1,441.7,324.1,442,324.1,442z"
				/>
			<circle fill="#83FFD6" cx="301.9" cy="443.8" r="4.5"/>
			<circle fill="#4BE0AA" cx="301.9" cy="443.8" r="1.9"/>
			<path fill="#4BE0AA" d="M129.6,404.7c0,0-6.7,8.4-14.9,8.4c-8.3,0-14.9-8.4-14.9-8.4s6.7-8.4,14.9-8.4
				C122.9,396.2,129.6,404.7,129.6,404.7z"/>
			<path fill="#4BE0AA" d="M102.1,404.1c0,0,0.3,2.4-1,3.7c-1.3,1.3-3.7,1-3.7,1s-0.3-2.4,1-3.7C99.7,403.8,102.1,404.1,102.1,404.1
				z"/>
			<path fill="#4BE0AA" d="M102.1,406.1c0,0,0.3-2.4-1-3.7c-1.3-1.3-3.7-1-3.7-1s-0.3,2.4,1,3.7C99.7,406.4,102.1,406.1,102.1,406.1
				z"/>
			<circle fill="#83FFD6" cx="119.9" cy="404.7" r="3.6"/>
			<circle fill="#4BE0AA" cx="119.9" cy="404.7" r="1.5"/>
			<circle fill="#4BE0AA" cx="213.9" cy="495.4" r="3.8"/>
			<circle fill="#4BE0AA" cx="221.7" cy="481.3" r="2"/>
			<circle fill="#4BE0AA" cx="195.8" cy="442.1" r="2.4"/>
			<circle fill="#4BE0AA" cx="189.1" cy="451.1" r="1.5"/>
			<circle fill="#4BE0AA" cx="226.3" cy="492.2" r="1.4"/>
			<circle fill="#4BE0AA" cx="236.9" cy="399.6" r="3.9"/>
		</g>
		<path fill="none" stroke="#9B4242" stroke-width="10.2119" stroke-miterlimit="10" d="M330.1,318.8c0,0,7.5,28.3,31.3,31.3"/>
		<line fill="none" stroke="#9B4242" stroke-width="10.2119" stroke-miterlimit="10" x1="321.5" y1="318.8" x2="333" y2="318.8"/>
		<rect x="141.3" y="207.8" fill="#873533" width="20" height="12.6"/>
		<rect x="90.6" y="274.8" fill="#FFCC29" width="6.1" height="71.2"/>
		<path fill="#FFCC29" d="M73.2,290.7c0,0,1.8-7.4,7.4-13c5.6-5.6,13-7.4,13-7.4s-1.8,7.4-7.4,13C80.6,289,73.2,290.7,73.2,290.7z"
			/>
		<path fill="#FFCC29" d="M114,290.7c0,0-1.8-7.4-7.4-13c-5.6-5.6-13-7.4-13-7.4s1.8,7.4,7.4,13S114,290.7,114,290.7z"/>
		<path fill="#FFCC29" d="M114.6,344.2c0,0,0.6-4.6-1.8-8.3c-2.4-3.7-6.8-5.1-6.8-5.1s-0.6,4.6,1.8,8.3
			C110.1,342.7,114.6,344.2,114.6,344.2z"/>
		<path fill="#FFCC29" d="M113.8,344.2c0,0-0.6-4.6,1.8-8.3s6.8-5.1,6.8-5.1s0.6,4.6-1.8,8.3C118.3,342.7,113.8,344.2,113.8,344.2z"
			/>
		<path fill="#FFCC29" d="M118.2,272.9c0,0-6.5-4-14.5-4c-8,0-14.5,4-14.5,4s6.5,4,14.5,4S118.2,272.9,118.2,272.9z"/>
		<path fill="#FFCC29" d="M68.5,272.9c0,0,6.5-4,14.5-4s14.5,4,14.5,4s-6.5,4-14.5,4S68.5,272.9,68.5,272.9z"/>
		<path fill="#FFCC29" d="M77.1,254.5c0,0,7.4,1.8,13,7.4c5.6,5.6,7.4,13,7.4,13s-7.4-1.8-13-7.4C78.8,261.9,77.1,254.5,77.1,254.5z
			"/>
		<path fill="#FFCC29" d="M109.4,254.8c0,0-7.4,1.8-13,7.4s-7.4,13-7.4,13s7.4-1.8,13-7.4C107.6,262.2,109.4,254.8,109.4,254.8z"/>
		<rect x="135.2" y="207.8" fill="#631D1D" width="32.4" height="4.7"/>
		<rect x="347.8" y="348" fill="#631D1D" width="115.9" height="5.8"/>
	</g>
</g>
<g id="Layer_4">
	<g>
		<g>
			<path fill="#FFF5DC" d="M51.2,305.1l434.8,1.4l-82.6,220c-4.6,20.6,2.4,42,18.3,55.9l57.6,46.1c3.8,3,6,7.7,5.8,12.5l0,0
				c-0.2,8.5-7.1,15.3-15.7,15.3L66.4,655c-8.9,0-16.1-7.4-15.9-16.3l0,0c0.1-4.9,2.5-9.5,6.5-12.5l60.8-44.8
				c16.2-13.7,23.5-35.3,19-56.1L51.2,305.1z"/>
		</g>
		<g>
			
				<rect x="210.7" y="483.3" transform="matrix(-1 -3.197100e-03 3.197100e-03 -1 537.7709 1035.1406)" fill="#491016" width="118" height="67.7"/>
		</g>
		<g>
			<path fill="#FFF5DC" d="M502,397.2h-0.3c-14.8,0-29.2-3-42.8-8.8c-13.1-5.6-24.8-13.5-34.9-23.7c-10.1-10.1-17.9-21.9-23.5-35
				c-5.7-13.6-8.5-28-8.5-42.8c0-14.8,3-29.2,8.8-42.7c5.6-13.1,13.5-24.8,23.6-34.8s21.8-17.9,34.9-23.5
				c13.5-5.7,27.9-8.6,42.7-8.6h0.3c14.8,0,29.2,3,42.8,8.8c13.1,5.6,24.8,13.5,34.9,23.7c10.1,10.1,17.9,21.9,23.5,35
				c5.7,13.6,8.5,28,8.5,42.8c0,14.8-3,29.2-8.8,42.7c-5.6,13.1-13.5,24.8-23.6,34.8s-21.8,17.9-34.9,23.5
				C531.2,394.3,516.8,397.2,502,397.2z M502,229.7c-15.3,0-29.8,6-40.6,16.8c-10.9,10.8-16.9,25.3-17,40.6
				c-0.1,31.8,25.6,57.7,57.4,57.8h0.2c15.3,0,29.8-6,40.6-16.8c10.9-10.8,16.9-25.3,16.9-40.6c0-15.4-5.9-29.9-16.8-40.8
				c-10.8-10.9-25.3-17-40.7-17H502z"/>
		</g>
		<g>
			<path fill="#FFF5DC" d="M154.4,465.5L52,465.2c-6.1,0-11.1-5-11-11.1l0,0c0-6.1,5-11.1,11.1-11l102.5,0.3c6.1,0,11.1,5,11,11.1
				l0,0C165.5,460.5,160.5,465.5,154.4,465.5z"/>
		</g>
		<g>
			<path fill="#FFF5DC" d="M175.3,484.3L72.9,484c-6.1,0-11.1-5-11-11.1l0,0c0-6.1,5-11.1,11.1-11l102.5,0.3c6.1,0,11.1,5,11,11.1
				l0,0C186.4,479.4,181.4,484.3,175.3,484.3z"/>
		</g>
		<g>
			<path fill="#FFF5DC" d="M196.2,503.2l-102.5-0.3c-6.1,0-11.1-5-11-11.1l0,0c0-6.1,5-11.1,11.1-11l102.5,0.3c6.1,0,11.1,5,11,11.1
				l0,0C207.3,498.2,202.3,503.2,196.2,503.2z"/>
		</g>
		<g>
			<path fill="#FFF5DC" d="M178.4,521.9l-65.8-0.2c-5,0-9.1-4.1-9.1-9.1v-4c0-5,4.1-9.1,9.1-9.1l65.8,0.2c5,0,9.1,4.1,9.1,9.1v4
				C187.5,517.8,183.4,521.9,178.4,521.9z"/>
		</g>
		<g>
			<path fill="#FFF5DC" d="M381.8,466.2l102.5,0.3c6.1,0,11.1-5,11.1-11l0,0c0-6.1-5-11.1-11-11.1l-102.5-0.3c-6.1,0-11.1,5-11.1,11
				l0,0C370.8,461.2,375.7,466.2,381.8,466.2z"/>
		</g>
		<g>
			<path fill="#FFF5DC" d="M360.8,484.9l102.5,0.3c6.1,0,11.1-5,11.1-11l0,0c0-6.1-5-11.1-11-11.1l-102.5-0.3c-6.1,0-11.1,5-11.1,11
				l0,0C349.8,479.9,354.7,484.9,360.8,484.9z"/>
		</g>
		<g>
			<path fill="#FFF5DC" d="M339.8,503.6l102.5,0.3c6.1,0,11.1-5,11.1-11l0,0c0-6.1-5-11.1-11-11.1l-102.5-0.3c-6.1,0-11.1,5-11.1,11
				l0,0C328.8,498.6,333.7,503.6,339.8,503.6z"/>
		</g>
		<g>
			<path fill="#FFF5DC" d="M358.6,522.5l64.7,0.2c5,0,9-4,9.1-9v-4.1c0-5-4-9-9-9.1l-64.7-0.2c-5,0-9,4-9.1,9v4.1
				C349.7,518.4,353.7,522.4,358.6,522.5z"/>
		</g>
		<g>
			<path fill="#FFF5DC" d="M501.7,148.4l0-6.3l-466.1-1.5l-0.8,257.5l-0.1,18.6v-2.3c0,9.9,8,18,17.9,18l0,0c9.9,0,18-8,18-17.9
				c0,9.9,8,18,17.9,18l0,0c9.9,0,18-8,18-17.9c0,9.9,8,18,17.9,18l0,0c9.9,0,18-8,18-17.9c0,9.9,8,18,17.9,18l0,0
				c9.9,0,18-8,18-17.9c0,9.9,8,18,17.9,18l0,0c9.9,0,18-8,18-17.9c0,9.9,8,18,17.9,18l0,0c9.9,0,18-8,18-17.9c0,9.9,8,18,17.9,18
				l0,0c9.9,0,18-8,18-17.9c0,9.9,8,18,17.9,18l0,0c9.9,0,18-8,18-17.9c0,9.9,8,18,17.9,18l0,0c9.9,0,18-8,18-17.9
				c0,9.9,8,18,17.9,18l0,0c9.9,0,18-8,18-17.9c0,9.9,8,18,17.9,18l0,0c9.9,0,18-8,18-17.9c0,9.9,8,18,17.9,18l0,0
				c9.9,0,18-8,18-17.9c0,9.9,8,18,17.9,18l0,0c9.9,0,18-8,18-17.9l0,0C501.9,413.9,502.3,150.3,501.7,148.4z"/>
		</g>
		<g>
			<g>
				<path fill="#FCD98D" d="M70.9,360.9C70.9,360.9,70.9,360.9,70.9,360.9l126.9,0.4c10.9,0,19.8,9,19.8,19.9l0,0
					c0,10.9-9,19.8-19.9,19.8c0,0,0,0-0.1,0l-126.8-0.4c-10.9,0-19.8-9-19.8-19.9C51,369.8,60,360.9,70.9,360.9 M70.9,318.3
					L70.9,318.3L70.9,318.3c-8.4,0-16.6,1.7-24.3,4.9c-7.4,3.1-14.1,7.6-19.8,13.3s-10.2,12.3-13.4,19.7c-3.3,7.7-5,15.9-5,24.3
					c-0.1,34.4,27.8,62.6,62.3,62.7l126.7,0.4c0.1,0,0.2,0,0.2,0c8.4,0,16.6-1.7,24.3-4.9c7.4-3.1,14.1-7.6,19.8-13.3
					c5.7-5.7,10.2-12.3,13.4-19.7c3.3-7.7,5-15.9,5-24.3c0.1-34.4-27.8-62.6-62.3-62.7l-126.7-0.4C71,318.3,70.9,318.3,70.9,318.3
					L70.9,318.3z"/>
			</g>
		</g>
		<g>
			<g>
				<path fill="#FCD98D" d="M339.2,361.7C339.2,361.7,339.2,361.7,339.2,361.7l126.9,0.4c10.9,0,19.8,9,19.8,19.9
					c0,10.9-9,19.8-19.9,19.8c0,0,0,0-0.1,0l-126.8-0.4c-10.9,0-19.8-9-19.8-19.9l0,0C319.3,370.6,328.3,361.7,339.2,361.7
					 M339.2,319.1L339.2,319.1L339.2,319.1c-8.4,0-16.6,1.7-24.3,4.9c-7.4,3.1-14.1,7.6-19.8,13.3s-10.2,12.3-13.4,19.7
					c-3.3,7.7-5,15.9-5,24.3c-0.1,34.4,27.8,62.6,62.3,62.7l126.7,0.4c0.1,0,0.2,0,0.2,0c8.4,0,16.6-1.7,24.3-4.9
					c7.4-3.1,14.1-7.6,19.8-13.3c5.7-5.7,10.2-12.3,13.4-19.7c3.3-7.7,5-15.9,5-24.3c0.1-34.4-27.8-62.6-62.3-62.7l-126.7-0.4
					C339.3,319.1,339.2,319.1,339.2,319.1L339.2,319.1z"/>
			</g>
		</g>
		<g>
			<g>
				<path fill="#EF484A" d="M193.8,465l62-106.7c5.6-9.7,19.7-9.7,25.3,0.1l61.3,107c5.6,9.7-1.5,21.9-12.7,21.8l-123.4-0.4
					C195.2,486.9,188.2,474.7,193.8,465z"/>
			</g>
		</g>
		<g>
			<g>
				<path fill="#EF484A" d="M224.8,411.7l-31,53.3c-5.6,9.7,1.3,21.9,12.5,21.9l61.7,0.2C229.4,487,205.4,445.1,224.8,411.7z"/>
			</g>
			<g>
				<path fill="#FF6E75" d="M281.1,358.4c-5.6-9.7-19.6-9.8-25.3-0.1l-31,53.3c19.4-33.4,67.7-33.3,86.9,0.3l0,0"/>
			</g>
		</g>
		<g>
			<g>
				<path fill="#CE000B" d="M336.2,563.4l-62.6,53.8c-3.5,3-8.5,2.9-12,0L199.4,563c-6.4-5.6-2.4-16.1,6.1-16.1l124.7,0.4
					C338.7,547.4,342.6,557.9,336.2,563.4z"/>
			</g>
		</g>
		<g>
			<g>
				<path fill="#FFCC29" d="M70.8,404.8c-6.4,0-12.4-2.6-17-7.1c-4.5-4.6-7-10.6-7-17c0-13.2,10.8-24,24.1-24l126.9,0.4
					c13.3,0,24,10.9,24,24.1c0,13.2-10.8,24-24.1,24L70.8,404.8z"/>
			</g>
			<g>
				<g>
					<path fill="#FFF5DC" d="M70.9,360.9C70.9,360.9,70.9,360.9,70.9,360.9l126.9,0.4c10.9,0,19.8,9,19.8,19.9
						c0,10.9-9,19.8-19.9,19.8c0,0,0,0-0.1,0l-126.8-0.4c-10.9,0-19.8-9-19.8-19.9l0,0C51,369.8,60,360.9,70.9,360.9 M70.9,352.5
						c-15.5,0-28.2,12.6-28.2,28.2c0,15.6,12.6,28.3,28.2,28.3l126.8,0.4h0.1c15.5,0,28.2-12.6,28.2-28.2
						c0-15.6-12.6-28.3-28.2-28.3L71,352.5H70.9L70.9,352.5z"/>
				</g>
			</g>
		</g>
		<g>
			<g>
				<path fill="#FFCC29" d="M339.1,405.7c-6.4,0-12.4-2.6-17-7.1c-4.5-4.6-7-10.6-7-17c0-13.2,10.8-24,24.1-24L466,358
					c13.3,0,24,10.9,24,24.1c0,13.2-10.8,24-24.1,24L339.1,405.7z"/>
			</g>
			<g>
				<g>
					<path fill="#FFF5DC" d="M339.2,361.7C339.2,361.7,339.2,361.7,339.2,361.7l126.9,0.4c10.9,0,19.8,9,19.8,19.9
						c0,10.9-9,19.8-19.9,19.8c0,0,0,0-0.1,0l-126.8-0.4c-10.9,0-19.8-9-19.8-19.9C319.3,370.6,328.3,361.7,339.2,361.7
						 M339.2,353.4c-15.5,0-28.2,12.6-28.2,28.2c0,7.5,2.9,14.6,8.2,20c5.3,5.4,12.4,8.3,19.9,8.3l126.8,0.4h0.1
						c15.5,0,28.2-12.6,28.2-28.2c0-15.6-12.6-28.3-28.2-28.3l-126.8-0.4L339.2,353.4L339.2,353.4z"/>
				</g>
			</g>
		</g>
		<g>
			<g>
				<path fill="#CE000B" d="M257.3,452.6L257.3,452.6c2.3,0,4.2,1.9,4.2,4.2l0,13.9c0,2.3-1.9,4.2-4.2,4.2l0,0
					c-2.3,0-4.2-1.9-4.2-4.2l0-13.9C253.1,454.4,255,452.5,257.3,452.6z"/>
			</g>
			<g>
				<path fill="#CE000B" d="M279.1,452.6L279.1,452.6c2.3,0,4.2,1.9,4.2,4.2l0,13.9c0,2.3-1.9,4.2-4.2,4.2l0,0
					c-2.3,0-4.2-1.9-4.2-4.2l0-13.9C274.9,454.5,276.8,452.6,279.1,452.6z"/>
			</g>
		</g>
		<g>
			<path fill="#EF484A" d="M170.3,375.5l-72.1-0.2c-3.1,0-5.6,2.5-5.6,5.6l0,0c0,3.1,2.5,5.6,5.6,5.6l72.1,0.2
				c3.1,0,5.6-2.5,5.6-5.6l0,0C175.9,378,173.4,375.5,170.3,375.5z"/>
		</g>
		<g>
			<path fill="#EF484A" d="M438.6,376.3l-72.1-0.2c-3.1,0-5.6,2.5-5.6,5.6l0,0c0,3.1,2.5,5.6,5.6,5.6l72.1,0.2
				c3.1,0,5.6-2.5,5.6-5.6l0,0C444.2,378.9,441.7,376.3,438.6,376.3z"/>
		</g>
		<g>
			<path fill="#FFF5DC" d="M529.2,160.2l-518.1-1.6C5,158.5,0,153.4,0,147.3l0,0c0-6.2,5.1-11.2,11.2-11.1l518.1,1.6
				c6.2,0,11.1,5.1,11.1,11.2l0,0C540.4,155.2,535.4,160.2,529.2,160.2z"/>
		</g>
		<g>
			
				<rect x="118.5" y="375.4" transform="matrix(-1 -3.197100e-03 3.197100e-03 -1 267.3148 762.3118)" fill="#CE000B" width="31.6" height="11.2"/>
		</g>
		<g>
			
				<rect x="386.7" y="376.2" transform="matrix(-1 -3.197100e-03 3.197100e-03 -1 803.8986 764.9474)" fill="#CE000B" width="31.6" height="11.2"/>
		</g>
		<g>
			<g>
				<path fill="#FF6E75" d="M208.8,439.3L193.8,465c-5.6,9.7,1.3,21.9,12.5,21.9l29.7,0.1C211.7,486.9,196.5,460.4,208.8,439.3z"/>
			</g>
			<g>
				<path fill="#FF6E75" d="M295.9,384.2l15.9,27.7l-30.7-53.5c-5.6-9.7-19.6-9.8-25.3-0.1l-14.9,25.7
					C253.2,362.9,283.7,363,295.9,384.2z"/>
			</g>
			<g>
				<path fill="#FF6E75" d="M342.4,465.5l-14.8-25.8c12.2,21.2-3.2,47.6-27.7,47.6l29.7,0.1C341,487.3,348,475.2,342.4,465.5z"/>
			</g>
		</g>
		<g>
			<path fill="#FFF5DC" d="M223.7,500L223.7,500c-3.5,0-6.3-2.8-6.3-6.3l0-6.7l12.6,0l0,6.7C230,497.2,227.2,500,223.7,500z"/>
		</g>
		<g>
			<path fill="#FFF5DC" d="M245.9,500.1L245.9,500.1c-3.5,0-6.3-2.8-6.3-6.3l0-6.7l12.6,0l0,6.7
				C252.2,497.3,249.4,500.1,245.9,500.1z"/>
		</g>
		<g>
			<path fill="#FFF5DC" d="M268.1,500.1L268.1,500.1c-3.5,0-6.3-2.8-6.3-6.3l0-6.7l12.6,0l0,6.7
				C274.3,497.4,271.5,500.2,268.1,500.1z"/>
		</g>
		<g>
			<path fill="#FFCC29" d="M290.2,500.2L290.2,500.2c-3.5,0-6.3-2.8-6.3-6.3l0-6.7l12.6,0l0,6.7
				C296.5,497.4,293.7,500.2,290.2,500.2z"/>
		</g>
		<g>
			<path fill="#FFF5DC" d="M312.4,500.3L312.4,500.3c-3.5,0-6.3-2.8-6.3-6.3l0-6.7l12.6,0l0,6.7
				C318.7,497.5,315.8,500.3,312.4,500.3z"/>
		</g>
		<g>
			<path fill="#EF484A" d="M339.8,566.7l-144.1-0.4c-5.3,0-9.6-4.4-9.6-9.7l0,0c0-5.3,4.4-9.6,9.7-9.6l144.1,0.4
				c5.3,0,9.6,4.4,9.6,9.7l0,0C349.5,562.4,345.1,566.7,339.8,566.7z"/>
		</g>
		<g>
			<rect x="51.6" y="167.2" fill="#FCD98D" width="0" height="34.8"/>
		</g>
		<g>
			<path fill="#FFE7AC" d="M502.5,160.5L35.4,159l-0.1,16.3l18,0.1c7.5,0,13.6,6.2,13.6,13.7l-0.2,71.6c0,7.3,5.8,13.2,13.1,13.2
				l0,0c7.3,0,13.2-5.8,13.2-13.1l0.2-74.3c0-6,4.9-10.9,10.9-10.9l0,0c6,0,10.9,4.9,10.9,10.9l-0.1,35.9c0,4,3.1,7.5,7.2,7.6
				c4.1,0.1,7.5-3.2,7.5-7.3l0.1-35c0-6.7,5.4-12,12.1-12l250.8,0.8c8.7,0,15.7,7.1,15.7,15.8l-0.1,23.5c0,5.5,4.4,9.9,9.9,10l0,0
				c5.5,0,9.9-4.4,10-9.9l0.1-30.9c0-4.6,3.7-8.3,8.3-8.3l0,0c4.6,0,8.3,3.7,8.3,8.3l-0.3,91.6c0,8.4,6.8,15.3,15.2,15.3l0,0
				c8.4,0,15.3-6.8,15.3-15.2l0.2-72.8c0-14.9,12.2-27,27.1-27l0,0L502.5,160.5z"/>
		</g>
	</g>
</g>
</svg>
