<?xml version="1.0" encoding="utf-8"?>
<!-- Generator: Adobe Illustrator 18.1.0, SVG Export Plug-In . SVG Version: 6.00 Build 0)  -->
<svg version="1.1" xmlns="http://www.w3.org/2000/svg" xmlns:xlink="http://www.w3.org/1999/xlink" x="0px" y="0px"
	 viewBox="0 0 1689.8 547.1" enable-background="new 0 0 1689.8 547.1" xml:space="preserve">
<g id="Layer_1">
</g>
<g id="Layer_2">
	<g>
		<polygon fill="#EF484A" points="1466,339.5 1279.1,309.5 1161.4,316.7 914,269.8 696.2,321.6 216,339.5 214,175.5 484.7,207.5 
			596.9,212.8 774,187.5 950,279.8 1161.4,192.6 1285.5,255.3 1395.7,188.9 1456.6,198.9 		"/>
		<path fill="#EF484A" d="M1483.3,358.5l-205-32.9l-117.9,7.2L957,294.3l-7.8,3.2l-14-7.3l-20.9-4l-216,51.3l-498.2,18.6l-2.4-198.6
			l288.3,34.1l110.1,5.1l180.7-25.8l169,88.6l7.7,1.5l208.5-86l122.7,62l107.7-64.8l79.2,12.9L1483.3,358.5z M230.2,193.5l1.6,129.4
			L694,305.6l186.3-44.3l-109.2-57.3l-173.5,24.7l-114.8-5.4L230.2,193.5z M1279.8,293.4l168.8,27.1l-7.2-107.9l-42.6-6.9
			l-112.8,67.8l-125.4-63.3l-149.7,61.7l151.3,28.7L1279.8,293.4z"/>
	</g>
	<g>
		<g>
			<path fill="#EF484A" d="M333.1,330.8h-82.7v-46.3h56.6c14.4,0,26.1-11.7,26.1-26.1s-11.7-26.1-26.1-26.1h-56.6v-44.6h78.9
				c14.6,0,26.4-11.8,26.4-26.4s-11.8-26.4-26.4-26.4H221.9c-15.7,0-28.5,12.8-28.5,28.5v191.8c0,15.7,12.8,28.5,28.5,28.5h111.2
				c14.6,0,26.4-11.8,26.4-26.4S347.6,330.8,333.1,330.8z"/>
			<path fill="#EF484A" d="M333.1,399.6H221.9c-24.5,0-44.5-19.9-44.5-44.5V163.4c0-24.5,19.9-44.5,44.5-44.5h107.4
				c23.4,0,42.4,19,42.4,42.4s-19,42.4-42.4,42.4h-62.9v12.6h40.6c23.2,0,42.1,18.9,42.1,42.1c0,23.2-18.9,42.1-42.1,42.1h-40.6
				v14.3h66.7c23.4,0,42.4,19,42.4,42.4S356.5,399.6,333.1,399.6z M221.9,150.9c-6.9,0-12.5,5.6-12.5,12.5v191.8
				c0,6.9,5.6,12.5,12.5,12.5h111.2c5.7,0,10.4-4.7,10.4-10.4s-4.7-10.4-10.4-10.4h-98.7v-78.3h72.6c5.5,0,10.1-4.5,10.1-10.1
				s-4.5-10.1-10.1-10.1h-72.6v-76.6h94.9c5.7,0,10.4-4.7,10.4-10.4s-4.7-10.4-10.4-10.4H221.9z"/>
		</g>
		<g>
			<path fill="#EF484A" d="M557.5,242.3h-66.8c-14.4,0-26.1,11.7-26.1,26.1s11.7,26.1,26.1,26.1h38.3v26.5
				c-11.3,10.2-26.3,14.7-48.3,14.7c-20.8,0-34.7-5.3-43.8-16.6c-9.6-12-14.2-31.5-14.2-59.6c0-67.8,31-76.5,57.9-76.5
				c23.6,0,35.8,8.2,47.8,21.4c7.4,7.9,15.1,9.6,20.3,9.6c14.9,0,27.1-12,27.1-26.7c0-5.6-1.7-10.7-5.3-16.2
				c-10.4-15.3-36-40.9-90-40.9c-37.1,0-66,11-85.8,32.6c-20.2,22-30.4,54.5-30.4,96.8c0,43.3,10.3,76.1,30.5,97.7
				c19.5,20.8,48.4,31.3,85.8,31.3c39.4,0,78.2-16.4,96.6-40.8c5.3-6.7,7.6-13.8,7.6-23.5v-55.1C585,254.8,572.2,242.3,557.5,242.3z
				"/>
			<path fill="#EF484A" d="M480.8,404.4c-42,0-74.8-12.2-97.4-36.4c-23.1-24.6-34.8-61.2-34.8-108.6c0-46.4,11.7-82.6,34.6-107.6
				c23-25.1,55.8-37.8,97.6-37.8c61.3,0,91,30,103.2,47.9l0.1,0.1c5.4,8,8,16.2,8,25c0,18.1-11.4,33.5-27.4,39.8
				c20.3,3.5,36.3,21.4,36.3,42.1v55.1c0,13.2-3.5,23.7-11,33.2C568.4,386,525.5,404.4,480.8,404.4z M480.8,146.1
				c-32.4,0-57.4,9.2-74,27.4c-17.4,18.9-26.2,47.9-26.2,85.9c0,39.1,8.8,68.3,26.2,86.7c16.3,17.4,41.3,26.3,74.1,26.3
				c34.1,0,68.5-14.2,83.8-34.4l0.3-0.3c2.6-3.3,4.2-6.6,4.2-13.5v-55.1c0-5.4-5.7-10.7-11.4-10.7h-66.8c-5.5,0-10.1,4.5-10.1,10.1
				s4.5,10.1,10.1,10.1h54.3V328l-5.3,4.8c-14.2,12.9-33,18.9-59,18.9c-25.7,0-44.1-7.4-56.3-22.6c-11.9-14.9-17.7-37.7-17.7-69.6
				c0-35.3,7.8-59.9,23.8-75.3c16.2-15.5,36.4-17.3,50.2-17.3c31.1,0,47,12.7,59.6,26.5c2.8,2.9,5.6,4.4,8.6,4.4
				c6.1,0,11.1-4.8,11.1-10.7c0-1.8-0.3-3.8-2.5-7.2C548.8,167.3,527.3,146.1,480.8,146.1z M480.8,198.9c-13.3,0-22,2.6-28,8.4
				c-9.2,8.9-13.9,26.4-13.9,52.2c0,24.1,3.6,40.8,10.7,49.7c3.9,4.9,11,10.5,31.2,10.5c14.3,0,24.6-2.1,32.3-6.7v-2.5h-22.3
				c-23.2,0-42.1-18.9-42.1-42.1s18.9-42.1,42.1-42.1h41.5c-5.6-2.5-10.9-6.3-15.4-11.2l-0.1-0.1C507,204.4,498.8,198.9,480.8,198.9
				z"/>
		</g>
		<g>
			<path fill="#EF484A" d="M789.9,242.3h-66.8c-14.4,0-26.1,11.7-26.1,26.1s11.7,26.1,26.1,26.1h38.3v26.5
				c-11.3,10.2-26.3,14.7-48.3,14.7c-20.8,0-34.7-5.3-43.8-16.6c-9.6-12-14.2-31.5-14.2-59.6c0-67.8,31-76.5,57.9-76.5
				c23.6,0,35.8,8.2,47.8,21.4c7.4,7.9,15.1,9.6,20.3,9.6c14.9,0,27.1-12,27.1-26.7c0-5.6-1.7-10.7-5.3-16.2
				c-10.4-15.3-36-40.9-90-40.9c-37.1,0-66,11-85.8,32.6c-20.2,22-30.4,54.5-30.4,96.8c0,43.3,10.3,76.1,30.5,97.7
				c19.5,20.8,48.3,31.3,85.8,31.3c39.4,0,78.2-16.4,96.6-40.8c5.3-6.7,7.6-13.8,7.6-23.5v-55.1
				C817.4,254.8,804.6,242.3,789.9,242.3z"/>
			<path fill="#EF484A" d="M713.2,404.4c-42,0-74.8-12.2-97.4-36.4c-23.1-24.6-34.8-61.2-34.8-108.6c0-46.4,11.7-82.6,34.6-107.6
				c23-25.1,55.8-37.8,97.6-37.8c61.3,0,91,30,103.2,47.9l0.1,0.2c5.4,8,8,16.2,8,25c0,18.1-11.4,33.5-27.4,39.8
				c20.3,3.5,36.3,21.4,36.3,42.1v55.1c0,13.2-3.5,23.7-11,33.2C800.8,386,757.9,404.4,713.2,404.4z M713.2,146.1
				c-32.4,0-57.4,9.2-74,27.4c-17.4,18.9-26.2,47.9-26.2,85.9c0,39.1,8.8,68.3,26.2,86.7c16.3,17.4,41.3,26.3,74.1,26.3
				c34.1,0,68.5-14.2,83.8-34.4l0.3-0.3c2.6-3.3,4.2-6.6,4.2-13.5v-55.1c0-5.4-5.7-10.7-11.4-10.7h-66.8c-5.5,0-10.1,4.5-10.1,10.1
				s4.5,10.1,10.1,10.1h54.3V328l-5.3,4.8c-14.2,12.9-33,18.9-59,18.9c-25.7,0-44.1-7.4-56.3-22.6c-11.9-14.9-17.7-37.7-17.7-69.6
				c0-35.3,7.8-59.9,23.8-75.3c16.2-15.5,36.4-17.3,50.2-17.3c31.1,0,47,12.8,59.6,26.5c2.8,2.9,5.6,4.4,8.6,4.4
				c6.1,0,11.1-4.8,11.1-10.7c0-1.8-0.3-3.8-2.5-7.2C781.2,167.3,759.7,146.1,713.2,146.1z M713.2,198.9c-13.3,0-22,2.6-28,8.4
				c-9.2,8.9-13.9,26.4-13.9,52.2c0,24.1,3.6,40.8,10.7,49.7c3.9,4.9,11,10.5,31.2,10.5c14.3,0,24.6-2.1,32.3-6.7v-2.5h-22.3
				c-23.2,0-42.1-18.9-42.1-42.1s18.9-42.1,42.1-42.1h41.5c-5.6-2.5-10.9-6.3-15.4-11.2l-0.1-0.1
				C739.4,204.4,731.1,198.9,713.2,198.9z"/>
		</g>
		<g>
			<path fill="#EF484A" d="M1002,132.2c-15.2,0-28.1,12.9-28.1,28.1v109.1l-86.4-125.2c-5.1-7.6-13.4-12-22.9-12
				c-15.2,0-28.1,12.9-28.1,28.1v198c0,15.2,12.9,28.1,28.1,28.1s28.1-12.9,28.1-28.1V249.8l86,124.2c5.1,7.6,14,12.3,23.2,12.3
				c15.2,0,28.1-12.9,28.1-28.1v-198C1030.1,145,1017.3,132.2,1002,132.2z"/>
			<path fill="#EF484A" d="M1002,402.4c-14.4,0-28.4-7.4-36.4-19.3L908.8,301v57.2c0,23.9-20.2,44.1-44.1,44.1s-44.1-20.2-44.1-44.1
				v-198c0-23.9,20.2-44.1,44.1-44.1c14.8,0,28,6.9,36.1,19l57.2,82.8v-57.7c0-23.9,20.2-44.1,44.1-44.1s44.1,20.2,44.1,44.1v198
				C1046.1,382.2,1025.9,402.4,1002,402.4z M876.8,198.6l115.3,166.5c2.1,3.2,6,5.2,9.9,5.2c6.5,0,12.1-5.7,12.1-12.1v-198
				c0-6.5-5.7-12.1-12.1-12.1s-12.1,5.7-12.1,12.1v160.4L874.2,153.1c-2.1-3.2-5.5-4.9-9.6-4.9c-6.5,0-12.1,5.7-12.1,12.1v198
				c0,6.5,5.7,12.1,12.1,12.1s12.1-5.7,12.1-12.1V198.6z"/>
		</g>
		<g>
			<path fill="#EF484A" d="M1161.4,130.1c-37.6,0-66.8,10.9-86.9,32.5c-20.4,22-30.8,54.5-30.8,96.8c0,41.8,10.3,74.2,30.8,96.2
				c20.2,21.7,49.4,32.8,86.9,32.8c37.5,0,66.7-11,86.9-32.8c20.4-22,30.8-54.4,30.8-96.2c0-42.3-10.3-74.8-30.8-96.8
				C1228.2,141,1199,130.1,1161.4,130.1z M1161.4,335.6c-25.5,0-59.3-7.9-59.3-76.2c0-68.6,33.9-76.5,59.3-76.5s59.3,7.9,59.3,76.5
				C1220.7,327.7,1186.9,335.6,1161.4,335.6z"/>
			<path fill="#EF484A" d="M1161.4,404.4c-42.1,0-75.3-12.7-98.6-37.9c-23.2-25.1-35-61.1-35-107.1c0-46.4,11.8-82.7,35-107.7
				c23.2-25,56.4-37.6,98.6-37.6s75.4,12.7,98.6,37.6c23.3,25,35,61.3,35,107.7c0,46-11.8,82-35,107.1
				C1236.7,391.7,1203.6,404.4,1161.4,404.4z M1161.4,146.1c-33,0-58.2,9.2-75.2,27.4c-17.6,18.9-26.5,47.8-26.5,85.9
				c0,37.7,8.9,66.4,26.5,85.4c17,18.3,42.3,27.6,75.1,27.6c32.9,0,58.1-9.3,75.1-27.6c17.6-19,26.5-47.7,26.5-85.4
				c0-38.1-8.9-67-26.5-85.9C1219.7,155.3,1194.4,146.1,1161.4,146.1z M1161.4,351.6c-31.5,0-45.4-12.5-49.9-16.6
				c-17.1-15.4-25.4-40.1-25.4-75.6c0-35.6,8.3-60.4,25.4-75.9c18.4-16.7,42.2-16.7,50-16.7c31.5,0,45.4,12.6,50,16.7
				c17.1,15.5,25.4,40.3,25.4,75.9c0,35.4-8.3,60.2-25.4,75.6C1193,351.6,1169.2,351.6,1161.4,351.6z M1161.4,198.9
				c-13.3,0-22.1,2.6-28.5,8.4c-9.9,8.9-14.9,26.5-14.9,52.1c0,25.5,5,42.9,14.8,51.8c6.4,5.8,15.2,8.4,28.5,8.4s22.1-2.6,28.5-8.4
				c9.8-8.9,14.8-26.3,14.8-51.8c0-25.7-5-43.2-14.9-52.1C1183.5,201.5,1174.7,198.9,1161.4,198.9z"/>
		</g>
		<g>
			<path fill="#EF484A" d="M1478.5,242.3h-66.8c-14.4,0-26.1,11.7-26.1,26.1s11.7,26.1,26.1,26.1h38.3v26.5
				c-11.3,10.2-26.3,14.7-48.3,14.7c-20.8,0-34.7-5.3-43.8-16.6c-9.6-12-14.2-31.5-14.2-59.6c0-67.8,31-76.5,57.9-76.5
				c23.6,0,35.8,8.2,47.8,21.4c7.4,7.9,15.1,9.6,20.3,9.6c14.9,0,27.1-12,27.1-26.7c0-5.6-1.7-10.7-5.3-16.2
				c-10.4-15.3-36-40.9-90-40.9c-37.1,0-66,11-85.8,32.6c-20.2,22-30.4,54.5-30.4,96.8c0,43.3,10.3,76.1,30.5,97.7
				c19.5,20.8,48.3,31.3,85.8,31.3c39.4,0,78.2-16.4,96.6-40.8c5.3-6.7,7.6-13.8,7.6-23.5v-55.1
				C1505.9,254.8,1493.1,242.3,1478.5,242.3z"/>
			<path fill="#EF484A" d="M1401.7,404.4c-42,0-74.8-12.2-97.4-36.4c-23.1-24.6-34.8-61.2-34.8-108.6c0-46.4,11.7-82.6,34.6-107.6
				c23-25.1,55.8-37.8,97.6-37.8c61.3,0,91,30,103.2,47.9l0.1,0.2c5.4,8,8,16.2,8,25c0,18.1-11.4,33.5-27.4,39.8
				c20.3,3.5,36.3,21.4,36.3,42.1v55.1c0,13.2-3.5,23.7-11,33.2C1489.3,386,1446.5,404.4,1401.7,404.4z M1401.7,146.1
				c-32.4,0-57.4,9.2-74,27.4c-17.4,18.9-26.2,47.9-26.2,85.9c0,39.1,8.8,68.3,26.2,86.7c16.3,17.4,41.3,26.3,74.1,26.3
				c34.1,0,68.5-14.2,83.8-34.4l0.3-0.3c2.6-3.3,4.2-6.6,4.2-13.5v-55.1c0-5.4-5.7-10.7-11.4-10.7h-66.8c-5.5,0-10.1,4.5-10.1,10.1
				s4.5,10.1,10.1,10.1h54.3V328l-5.3,4.8c-14.2,12.9-33,18.9-59,18.9c-25.7,0-44.1-7.4-56.3-22.6c-11.9-14.9-17.7-37.7-17.7-69.6
				c0-35.3,7.8-59.9,23.8-75.3c16.2-15.5,36.4-17.3,50.2-17.3c31.1,0,47,12.7,59.6,26.5c2.8,2.9,5.6,4.4,8.6,4.4
				c6.1,0,11.1-4.8,11.1-10.7c0-1.8-0.3-3.8-2.5-7.2C1469.8,167.3,1448.3,146.1,1401.7,146.1z M1401.7,198.9c-13.3,0-22,2.6-28,8.4
				c-9.2,8.9-13.9,26.4-13.9,52.2c0,24.1,3.6,40.8,10.7,49.7c3.9,4.9,11,10.5,31.2,10.5c14.3,0,24.6-2.1,32.3-6.7v-2.5h-22.3
				c-23.2,0-42.1-18.9-42.1-42.1s18.9-42.1,42.1-42.1h41.5c-5.6-2.5-10.9-6.3-15.4-11.2l-0.1-0.1
				C1428,204.4,1419.7,198.9,1401.7,198.9z"/>
		</g>
	</g>
	<g>
		<g>
			<path fill="#FFCC29" d="M333.1,322.7h-82.7v-46.3h56.6c14.4,0,26.1-11.7,26.1-26.1c0-14.4-11.7-26.1-26.1-26.1h-56.6v-44.6h78.9
				c14.6,0,26.4-11.8,26.4-26.4s-11.8-26.4-26.4-26.4H221.9c-15.7,0-28.5,12.8-28.5,28.5V347c0,15.7,12.8,28.5,28.5,28.5h111.2
				c14.6,0,26.4-11.8,26.4-26.4S347.6,322.7,333.1,322.7z"/>
		</g>
		<g>
			<path fill="#FFCC29" d="M557.5,234.2h-66.8c-14.4,0-26.1,11.7-26.1,26.1c0,14.4,11.7,26.1,26.1,26.1h38.3v26.5
				c-11.3,10.2-26.3,14.7-48.3,14.7c-20.8,0-34.7-5.3-43.8-16.6c-9.6-12-14.2-31.5-14.2-59.6c0-67.8,31-76.5,57.9-76.5
				c23.6,0,35.8,8.2,47.8,21.4c7.4,7.9,15.1,9.6,20.3,9.6c14.9,0,27.1-12,27.1-26.7c0-5.6-1.7-10.7-5.3-16.2
				c-10.4-15.3-36-40.9-90-40.9c-37.1,0-66,11-85.8,32.6c-20.2,22-30.4,54.5-30.4,96.8c0,43.3,10.3,76.1,30.5,97.7
				c19.5,20.8,48.4,31.3,85.8,31.3c39.4,0,78.2-16.4,96.6-40.8c5.3-6.7,7.6-13.8,7.6-23.5v-55.1C585,246.7,572.2,234.2,557.5,234.2z
				"/>
		</g>
		<g>
			<path fill="#FFF5DC" d="M789.9,234.2h-66.8c-14.4,0-26.1,11.7-26.1,26.1c0,14.4,11.7,26.1,26.1,26.1h38.3v26.5
				c-11.3,10.2-26.3,14.7-48.3,14.7c-20.8,0-34.7-5.3-43.8-16.6c-9.6-12-14.2-31.5-14.2-59.6c0-67.8,31-76.5,57.9-76.5
				c23.6,0,35.8,8.2,47.8,21.4c7.4,7.9,15.1,9.6,20.3,9.6c14.9,0,27.1-12,27.1-26.7c0-5.6-1.7-10.7-5.3-16.2
				c-10.4-15.3-36-40.9-90-40.9c-37.1,0-66,11-85.8,32.6c-20.2,22-30.4,54.5-30.4,96.8c0,43.3,10.3,76.1,30.5,97.7
				c19.5,20.8,48.3,31.3,85.8,31.3c39.4,0,78.2-16.4,96.6-40.8c5.3-6.7,7.6-13.8,7.6-23.5v-55.1
				C817.4,246.7,804.6,234.2,789.9,234.2z"/>
		</g>
		<g>
			<path fill="#FFF5DC" d="M1002,124c-15.2,0-28.1,12.9-28.1,28.1v109.1L887.5,136c-5.1-7.6-13.4-12-22.9-12
				c-15.2,0-28.1,12.9-28.1,28.1v198c0,15.2,12.9,28.1,28.1,28.1s28.1-12.9,28.1-28.1V241.7l86,124.2c5.1,7.6,14,12.3,23.2,12.3
				c15.2,0,28.1-12.9,28.1-28.1v-198C1030.1,136.9,1017.3,124,1002,124z"/>
		</g>
		<g>
			<path fill="#FFF5DC" d="M1161.4,121.9c-37.6,0-66.8,10.9-86.9,32.5c-20.4,22-30.8,54.5-30.8,96.8c0,41.8,10.3,74.2,30.8,96.2
				c20.2,21.7,49.4,32.8,86.9,32.8c37.5,0,66.7-11,86.9-32.8c20.4-22,30.8-54.4,30.8-96.2c0-42.3-10.3-74.8-30.8-96.8
				C1228.2,132.9,1199,121.9,1161.4,121.9z M1161.4,327.5c-25.5,0-59.3-7.9-59.3-76.2c0-68.6,33.9-76.5,59.3-76.5
				s59.3,7.9,59.3,76.5C1220.7,319.6,1186.9,327.5,1161.4,327.5z"/>
		</g>
		<g>
			<path fill="#FFF5DC" d="M1478.5,234.2h-66.8c-14.4,0-26.1,11.7-26.1,26.1c0,14.4,11.7,26.1,26.1,26.1h38.3v26.5
				c-11.3,10.2-26.3,14.7-48.3,14.7c-20.8,0-34.7-5.3-43.8-16.6c-9.6-12-14.2-31.5-14.2-59.6c0-67.8,31-76.5,57.9-76.5
				c23.6,0,35.8,8.2,47.8,21.4c7.4,7.9,15.1,9.6,20.3,9.6c14.9,0,27.1-12,27.1-26.7c0-5.6-1.7-10.7-5.3-16.2
				c-10.4-15.3-36-40.9-90-40.9c-37.1,0-66,11-85.8,32.6c-20.2,22-30.4,54.5-30.4,96.8c0,43.3,10.3,76.1,30.5,97.7
				c19.5,20.8,48.3,31.3,85.8,31.3c39.4,0,78.2-16.4,96.6-40.8c5.3-6.7,7.6-13.8,7.6-23.5v-55.1
				C1505.9,246.7,1493.1,234.2,1478.5,234.2z"/>
		</g>
	</g>
	<g>
		<path fill="#EF484A" d="M786.4,485.5H758c-2.2,0-4-1.8-4-4s1.8-4,4-4h28.4c8.3,0,15-6.7,15-15s-6.7-15-15-15H97
			c-33.7,0-61-27.4-61-61v-35.2c0-27.5,22.3-49.8,49.8-49.8h17.3c20.4,0,36.9,16.6,36.9,36.9v16.6c0,20.1-16.4,36.5-36.5,36.5H94
			c-12.1,0-22-9.9-22-22s9.9-22,22-22h10c2.2,0,4,1.8,4,4s-1.8,4-4,4H94c-7.7,0-14,6.3-14,14s6.3,14,14,14h9.5
			c15.7,0,28.5-12.8,28.5-28.5v-16.6c0-15.9-13-28.9-28.9-28.9H85.8c-23,0-41.8,18.7-41.8,41.8v35.2c0,29.2,23.8,53,53,53h689.4
			c12.7,0,23,10.3,23,23S799.1,485.5,786.4,485.5z"/>
	</g>
	<g>
		<path fill="#EF484A" d="M33,497.5h-4c-16,0-29-13-29-29s13-29,29-29h329c2.2,0,4,1.8,4,4s-1.8,4-4,4H29c-11.6,0-21,9.4-21,21
			s9.4,21,21,21h4c11.6,0,21-9.4,21-21c0-2.2,1.8-4,4-4s4,1.8,4,4C62,484.5,49,497.5,33,497.5z"/>
	</g>
	<g>
		<path fill="#EF484A" d="M931.8,485.5h-28.4c-12.7,0-23-10.3-23-23s10.3-23,23-23h689.4c29.2,0,53-23.8,53-53v-35.2
			c0-23-18.7-41.8-41.8-41.8h-17.3c-16,0-28.9,13-28.9,28.9v16.6c0,15.7,12.8,28.5,28.5,28.5h9.5c7.7,0,14-6.3,14-14s-6.3-14-14-14
			h-10c-2.2,0-4-1.8-4-4s1.8-4,4-4h10c12.1,0,22,9.9,22,22s-9.9,22-22,22h-9.5c-20.1,0-36.5-16.4-36.5-36.5v-16.6
			c0-20.4,16.6-36.9,36.9-36.9h17.3c27.5,0,49.8,22.3,49.8,49.8v35.2c0,33.7-27.4,61-61,61H903.4c-8.3,0-15,6.7-15,15s6.7,15,15,15
			h28.4c2.2,0,4,1.8,4,4S934.1,485.5,931.8,485.5z"/>
	</g>
	<g>
		<path fill="#EF484A" d="M1660.8,497.5h-4c-16,0-29-13-29-29c0-2.2,1.8-4,4-4s4,1.8,4,4c0,11.6,9.4,21,21,21h4c11.6,0,21-9.4,21-21
			s-9.4-21-21-21h-329c-2.2,0-4-1.8-4-4s1.8-4,4-4h329c16,0,29,13,29,29S1676.8,497.5,1660.8,497.5z"/>
	</g>
	<g>
		<path fill="#FFCC29" d="M259.7,547.1h-40.6c-23.2,0-42.1-18.9-42.1-42.1c0-22.3,18.2-40.5,40.5-40.5h508.4c2.2,0,4,1.8,4,4
			s-1.8,4-4,4H217.5c-17.9,0-32.5,14.6-32.5,32.5c0,18.8,15.3,34.1,34.1,34.1h40.6c11.7,0,21.2-9.5,21.2-21.2
			c0-11.3-9.2-20.4-20.4-20.4h-7c-11.9,0-21.6,9.7-21.6,21.6c0,2.2-1.8,4-4,4s-4-1.8-4-4c0-16.3,13.3-29.6,29.6-29.6h7
			c15.7,0,28.4,12.8,28.4,28.4C288.9,534,275.8,547.1,259.7,547.1z"/>
	</g>
	<g>
		<path fill="#FFCC29" d="M1471,547.1h-40.6c-16.1,0-29.2-13.1-29.2-29.2c0-15.7,12.8-28.4,28.4-28.4h7c16.3,0,29.6,13.3,29.6,29.6
			c0,2.2-1.8,4-4,4s-4-1.8-4-4c0-11.9-9.7-21.6-21.6-21.6h-7c-11.3,0-20.4,9.2-20.4,20.4c0,11.7,9.5,21.2,21.2,21.2h40.6
			c18.8,0,34.1-15.3,34.1-34.1c0-17.9-14.6-32.5-32.5-32.5H964.2c-2.2,0-4-1.8-4-4s1.8-4,4-4h508.4c22.3,0,40.5,18.2,40.5,40.5
			C1513.1,528.2,1494.2,547.1,1471,547.1z"/>
	</g>
	<g>
		<circle fill="#FFF5DC" cx="150.1" cy="477.5" r="9"/>
	</g>
	<g>
		<circle fill="#FFF5DC" cx="99.1" cy="477.5" r="9"/>
	</g>
	<g>
		<circle fill="#FFF5DC" cx="126.1" cy="525.1" r="9"/>
	</g>
	<g>
		<circle fill="#FFF5DC" cx="330.5" cy="505.8" r="9"/>
	</g>
	<g>
		<circle fill="#FFF5DC" cx="1540" cy="477.5" r="9"/>
	</g>
	<g>
		<circle fill="#FFF5DC" cx="1591" cy="477.5" r="9"/>
	</g>
	<g>
		<circle fill="#FFF5DC" cx="1564" cy="525.1" r="9"/>
	</g>
	<g>
		<circle fill="#FFF5DC" cx="1359.6" cy="505.8" r="9"/>
	</g>
	<g>
		<path fill="#FFF5DC" d="M587.3,12v61.3c0,3.8-3.1,6.8-6.8,6.8c-3.8,0-6.8-3.1-6.8-6.8V12h-18c-3.3,0-6-2.7-6-6c0-3.3,2.7-6,6-6
			h49.7c3.3,0,6,2.7,6,6c0,3.3-2.7,6-6,6H587.3z"/>
		<path fill="#FFF5DC" d="M681.8,73.3c0,3.8-3.1,6.8-6.8,6.8c-3.8,0-6.8-3.1-6.8-6.8V44.9h-33.7v28.4c0,3.8-3.1,6.8-6.8,6.8
			c-3.8,0-6.8-3.1-6.8-6.8V5.9c0-3.8,3.1-6.8,6.8-6.8c3.8,0,6.8,3.1,6.8,6.8v26.6h33.7V5.9c0-3.8,3.1-6.8,6.8-6.8
			c3.8,0,6.8,3.1,6.8,6.8V73.3z"/>
		<path fill="#FFF5DC" d="M709.6,33.3h22.2c3.3,0,6,2.7,6,6c0,3.3-2.7,6-6,6h-22.2v21.6h31.2c3.4,0,6.1,2.7,6.1,6.1
			s-2.7,6.1-6.1,6.1h-38c-3.8,0-6.8-3.1-6.8-6.8V6.8c0-3.8,3.1-6.8,6.8-6.8h36.7c3.4,0,6.1,2.7,6.1,6.1c0,3.4-2.7,6.1-6.1,6.1h-29.9
			V33.3z"/>
		<path fill="#FFF5DC" d="M811.1,10.6c-9.8,0-13.4,4.6-13.4,9.3c0,15.4,42.9,8.2,42.9,37.7c0,14.4-10.1,23.3-29.5,23.3
			c-14,0-25.2-6.9-29.8-14.4c-0.6-0.9-0.9-2.1-0.9-3.3c0-3.5,2.8-6.4,6.2-6.4c2.6,0,4,1.4,5.2,2.6c4.9,4.9,11.2,8.9,19.3,8.9
			c10.7,0,15.9-3.5,15.9-10.8c0-17.2-42.9-9.3-42.9-37.7c0-11.6,8.4-21.5,27.1-21.5c11.8,0,22,4.4,26.7,11.1
			c0.7,1.1,1.2,2.4,1.2,3.8c0,3.4-2.8,6.2-6.4,6.2c-1.6,0-3.3-0.9-5.1-2.6C824,13.3,817.9,10.6,811.1,10.6z"/>
		<path fill="#FFF5DC" d="M865.2,33.3h22.2c3.3,0,6,2.7,6,6c0,3.3-2.7,6-6,6h-22.2v21.6h31.2c3.4,0,6.1,2.7,6.1,6.1
			s-2.7,6.1-6.1,6.1h-38c-3.8,0-6.8-3.1-6.8-6.8V6.8c0-3.8,3.1-6.8,6.8-6.8H895c3.4,0,6.1,2.7,6.1,6.1c0,3.4-2.7,6.1-6.1,6.1h-29.9
			V33.3z"/>
		<path fill="#FFF5DC" d="M910,39.7c0-27.9,13.4-41.3,36.8-41.3c14.2,0,23.5,5.6,28.4,12.7c0.9,1.4,1.3,2.6,1.3,3.9
			c0,3.4-2.8,6.2-6.4,6.2c-1.6,0-3.3-0.7-4.8-2.4c-4.8-5.3-9.9-8.2-18.5-8.2c-15.6,0-22.7,9.6-22.7,29.1c0,20.6,7.1,28.9,22.7,28.9
			c8.7,0,13.4-2,19.1-7.8c1.9-1.9,3.4-2.6,5.1-2.6c3.5,0,6.4,2.8,6.4,6.4c0,1.4-0.5,2.6-1.2,3.5c-5.6,7.5-16.7,12.7-29.3,12.7
			C923.4,80.8,910,68.5,910,39.7z"/>
		<path fill="#FFF5DC" d="M1002,48.8v24.5c0,3.8-3.1,6.8-6.8,6.8c-3.8,0-6.8-3.1-6.8-6.8V6.8c0-3.8,3.1-6.8,6.8-6.8h22.5
			c15.9,0,24.8,11.3,24.8,24.6c0,11.2-6.8,22-18.1,23.4l17.4,21.2c1.1,1.4,1.4,2.8,1.4,4.1c0,3.8-3.1,6.8-6.8,6.8
			c-2,0-4.1-0.9-5.3-2.5l-21.4-28.8H1002z M1002,12.2v24.6h15.9c7.3,0,10.5-6,10.5-12.2c0-6.4-3.2-12.4-10.8-12.4H1002z"/>
		<path fill="#FFF5DC" d="M1067.9,33.3h22.2c3.3,0,6,2.7,6,6c0,3.3-2.7,6-6,6h-22.2v21.6h31.2c3.4,0,6.1,2.7,6.1,6.1
			s-2.7,6.1-6.1,6.1h-38c-3.8,0-6.8-3.1-6.8-6.8V6.8c0-3.8,3.1-6.8,6.8-6.8h36.7c3.4,0,6.1,2.7,6.1,6.1c0,3.4-2.7,6.1-6.1,6.1h-29.9
			V33.3z"/>
		<path fill="#FFF5DC" d="M1148.8,12v61.3c0,3.8-3.1,6.8-6.8,6.8c-3.8,0-6.8-3.1-6.8-6.8V12h-18c-3.3,0-6-2.7-6-6c0-3.3,2.7-6,6-6
			h49.7c3.3,0,6,2.7,6,6c0,3.3-2.7,6-6,6H1148.8z"/>
	</g>
</g>
<g id="Layer_3" display="none">
	<g display="inline">
		<path fill="#FFF5DC" d="M59.8,1473.5c15.8,80.1,84,141.6,167.4,147l-42.6,0c-17.8,0-32.4,14.6-32.4,32.4l0,0
			c0,17.8,14.6,32.4,32.4,32.4l38,0c-5.7,5.8-9.2,13.8-9.2,22.5v0c0,17.8,14.6,32.4,32.4,32.4l38,0c-5.7,5.8-9.2,13.8-9.2,22.5v0
			c0,17.8,14.6,32.4,32.4,32.4l38,0c-5.7,5.8-9.2,13.8-9.2,22.5v0c0,17.8,14.6,32.4,32.4,32.4l48,0l4.2,11.3
			c13.3,60.3-7.5,123-54.1,163.4l-169.1,134.2c-11.1,8.8-17.5,22.4-17.3,36.6c0.5,24.9,20.8,44.8,45.7,44.8l1179.5,0
			c26.1,0,47.1-21.4,46.6-47.6v0c-0.3-14.4-7.3-27.9-18.9-36.5l-177.5-131.6c-47.3-40.4-68.5-103.5-55.1-164.3l4.1-10.4l61,0
			c17.8,0,32.4-14.6,32.4-32.4v0c0-8.7-3.5-16.7-9.2-22.5l38,0c17.8,0,32.4-14.6,32.4-32.4v0c0-8.7-3.5-16.7-9.2-22.5l38,0
			c17.8,0,32.4-14.6,32.4-32.4v0c0-8.7-3.5-16.7-9.2-22.5l38,0c17.8,0,32.4-14.6,32.4-32.4l0,0c0-17.8-14.6-32.4-32.4-32.4l-42.6,0
			c95.2-6.1,170.8-85.5,170.8-182.3c0-61.5-30.6-116.1-77.3-149.2l0-500.3l71.4,0c18,0,32.7-14.7,32.7-32.7v0
			c0-18-14.7-32.7-32.7-32.7l-1515.4,0c-18,0-32.7,14.7-32.7,32.7v0c0,18,14.7,32.7,32.7,32.7l80,0c-0.1,13.4-0.3,30.4-0.4,50.2
			c-0.4,0-0.9,0-1.3,0c-177.4,0-321.7,144.3-321.7,321.7C-187.3,1312.3-81.7,1439.8,59.8,1473.5z M-34.1,1160.6
			c0-92.9,75.6-168.5,168.5-168.5c0.2,0,0.4,0,0.6,0c-0.3,93.8-0.6,201.7-0.8,296.6c-14.4,10.1-27.2,22.2-38.1,35.9
			C21.6,1307.2-34.1,1240.3-34.1,1160.6z"/>
		<path fill="#EF484A" d="M1270.6,786.3l-925.9,0c-73.7,0-133.4,59.7-133.4,133.4l0,566.2c0,73.7,59.7,133.4,133.4,133.4l64.1,0
			c73.7,0,133.4,59.7,133.4,133.4l0,193.5c0,73.7,59.7,133.4,133.4,133.4l264.2,0c73.7,0,133.4-59.7,133.4-133.4l0-193.5
			c0-73.7,59.7-133.4,133.4-133.4l64.1,0c73.7,0,133.4-59.7,133.4-133.4l0-566.2C1404,846,1344.3,786.3,1270.6,786.3z"/>
		<polyline fill="#FFCC29" points="211.3,1255.5 553.7,1410.7 324.8,1480.2 211.3,1468 		"/>
		<path fill="#EF484A" stroke="#EF484A" stroke-width="65.3559" stroke-miterlimit="10" d="M211.3,1423.9"/>
		<rect x="406.5" y="1054.4" fill="#873533" width="352.3" height="280.8"/>
		<rect x="406.5" y="1334.4" fill="#631D1D" width="33.7" height="133.6"/>
		<rect x="725.1" y="1334.4" fill="#631D1D" width="33.7" height="133.6"/>
		<path fill="#873533" d="M1000.4,1468l-33.7,0l0-225.2c0-9.3,7.5-16.8,16.8-16.8l0,0c9.3,0,16.8,7.5,16.8,16.8L1000.4,1468z"/>
		<path fill="#83FFD6" d="M1348.9,1410.8c-11.9,4.9-22.2,9.1-44.3,9.1c-22,0-32.3-4.2-44.3-9.1c-12.9-5.3-27.5-11.3-55.1-11.3
			c-27.7,0-42.3,6-55.1,11.3c-11.9,4.9-22.2,9.1-44.3,9.1c-22,0-32.3-4.2-44.3-9.1c-12.9-5.3-27.5-11.3-55.1-11.3
			c-27.7,0-42.3,6-55.1,11.3c-11.9,4.9-22.2,9.1-44.3,9.1c-22,0-32.3-4.2-44.3-9.1c-12.9-5.3-27.5-11.3-55.1-11.3s-42.3,6-55.1,11.3
			c-11.9,4.9-22.2,9.1-44.3,9.1c-22,0-32.3-4.2-44.3-9.1c-12.9-5.3-27.5-11.3-55.1-11.3c-27.7,0-42.3,6-55.1,11.3
			c-11.9,4.9-22.2,9.1-44.3,9.1c-22,0-32.3-4.2-44.3-9.1c-12.9-5.3-27.5-11.3-55.1-11.3c-27.7,0-42.3,6-55.1,11.3
			c-11.9,4.9-22.2,9.1-44.3,9.1c-22,0-32.3-4.2-44.3-9.1c-12.9-5.3-27.5-11.3-55.1-11.3l0,24.5l0,4.1l0,57.7
			c0,73.7,59.7,133.4,133.4,133.4l64.1,0c73.7,0,133.4,59.7,133.4,133.4l0,193.5c0,73.7,59.7,133.4,133.4,133.4l264.2,0
			c73.7,0,133.4-59.7,133.4-133.4l0-193.5c0-73.7,59.7-133.4,133.4-133.4l64.1,0c73.7,0,133.4-59.7,133.4-133.4l0-57.7l0-4.1l0-24.5
			C1376.3,1399.5,1361.7,1405.5,1348.9,1410.8z"/>
		<polygon fill="#9B4242" points="823.1,1100.4 351.3,1100.3 392.2,967.6 782.2,967.6 		"/>
		<polygon fill="#9B4242" points="1058.3,1340.8 1367.2,1340.9 1340.4,1427.8 1085,1427.8 		"/>
		<circle fill="#FFCC29" cx="1185.5" cy="1011.5" r="132.9"/>
		<rect x="758.8" y="1304.5" fill="#9B4242" width="208.5" height="30.6"/>
		<rect x="440.2" y="1126.8" fill="#631D1D" width="284.9" height="112.3"/>
		<rect x="576.2" y="1126.8" fill="#9B4242" width="17.1" height="112.4"/>
		<g>
			<path fill="#FFF5DC" d="M1175,973.7l-246,0c-11,0-20,9-20,20v0c0,11,9,20,20,20l246,0c11,0,20-9,20-20l0,0
				C1194.9,982.7,1185.9,973.7,1175,973.7z"/>
			<path fill="#FFF5DC" d="M1124,1031.5l-37.1,0c-4.9,0-9-4-9-9c0-4.9,4-9,9-9l-68.6,0c4.9,0,9,4,9,9v0c0,4.9-4,9-9,9l-38.4,0
				c-6.4,0-11.7,5.3-11.7,11.7s5.3,11.7,11.7,11.7l144.1,0c6.4,0,11.7-5.3,11.7-11.7v0C1135.7,1036.8,1130.4,1031.5,1124,1031.5z"/>
		</g>
		<g>
			<path fill="#FFF5DC" d="M1165.2,932.6l177.6,0c7.9,0,14.4-6.5,14.4-14.4v0c0-7.9-6.5-14.4-14.4-14.4l-177.6,0
				c-7.9,0-14.4,6.5-14.4,14.4l0,0C1150.8,926.1,1157.3,932.6,1165.2,932.6z"/>
			<path fill="#FFF5DC" d="M1202,890.9l26.8,0c3.6,0,6.5,2.9,6.5,6.5c0,3.6-2.9,6.5-6.5,6.5l49.5,0c-3.6,0-6.5-2.9-6.5-6.5v0
				c0-3.6,2.9-6.5,6.5-6.5l27.7,0c4.6,0,8.4-3.8,8.4-8.4c0-4.6-3.8-8.4-8.4-8.4l-104,0c-4.6,0-8.4,3.8-8.4,8.4v0
				C1193.5,887.1,1197.3,890.9,1202,890.9z"/>
		</g>
		<path fill="#FFF5DC" d="M1152.6,1079.9l-33.8,0c-1.9,0-3.5-1.6-3.5-3.5l0-2.2c0-1.9,1.6-3.5,3.5-3.5l33.8,0c1.9,0,3.5,1.6,3.5,3.5
			l0,2.2C1156.1,1078.4,1154.5,1079.9,1152.6,1079.9z"/>
		<path fill="#FFF5DC" d="M1367.5,1149.1l-33.8,0c-1.9,0-3.5-1.6-3.5-3.5l0-2.2c0-1.9,1.6-3.5,3.5-3.5l33.8,0c1.9,0,3.5,1.6,3.5,3.5
			l0,2.2C1371,1147.5,1369.4,1149.1,1367.5,1149.1z"/>
		<path fill="#FFF5DC" d="M925.9,953.8l-33.8,0c-1.9,0-3.5-1.6-3.5-3.5l0-2.2c0-1.9,1.6-3.5,3.5-3.5l33.8,0c1.9,0,3.5,1.6,3.5,3.5
			l0,2.2C929.4,952.2,927.8,953.8,925.9,953.8z"/>
		<path fill="#FFF5DC" d="M1132.1,874l-33.8,0c-1.9,0-3.5-1.6-3.5-3.5l0-2.2c0-1.9,1.6-3.5,3.5-3.5l33.8,0c1.9,0,3.5,1.6,3.5,3.5
			l0,2.2C1135.7,872.4,1134.1,874,1132.1,874z"/>
		<path fill="#83FFD6" d="M1348.9,1410.8c-11.9,4.9-22.2,9.1-44.3,9.1c-22,0-32.3-4.2-44.3-9.1c-12.9-5.3-27.5-11.3-55.1-11.3
			c-27.7,0-42.3,6-55.1,11.3c-11.9,4.9-22.2,9.1-44.3,9.1c-22,0-32.3-4.2-44.3-9.1c-12.9-5.3-27.5-11.3-55.1-11.3
			c-27.7,0-42.3,6-55.1,11.3c-11.9,4.9-22.2,9.1-44.3,9.1c-22,0-32.3-4.2-44.3-9.1c-12.9-5.3-27.5-11.3-55.1-11.3s-42.3,6-55.1,11.3
			c-11.9,4.9-22.2,9.1-44.3,9.1c-22,0-32.3-4.2-44.3-9.1c-12.9-5.3-27.5-11.3-55.1-11.3c-27.7,0-42.3,6-55.1,11.3
			c-11.9,4.9-22.2,9.1-44.3,9.1c-22,0-32.3-4.2-44.3-9.1c-12.9-5.3-27.5-11.3-55.1-11.3c-27.7,0-42.3,6-55.1,11.3
			c-11.9,4.9-22.2,9.1-44.3,9.1c-22,0-32.3-4.2-44.3-9.1c-12.9-5.3-27.5-11.3-55.1-11.3l0,24.5l0,4.1l0,57.7
			c0,73.7,59.7,133.4,133.4,133.4l64.1,0c73.7,0,133.4,59.7,133.4,133.4l0,193.5c0,73.7,59.7,133.4,133.4,133.4l264.2,0
			c73.7,0,133.4-59.7,133.4-133.4l0-193.5c0-73.7,59.7-133.4,133.4-133.4l64.1,0c73.7,0,133.4-59.7,133.4-133.4l0-57.7l0-4.1l0-24.5
			C1376.3,1399.5,1361.7,1405.5,1348.9,1410.8z"/>
		<g>
			<path fill="#4BE0AA" d="M672.7,1836.9c0,0,60.4-76.2,134.9-76.2s134.9,76.3,134.9,76.3s-60.4,76.2-134.9,76.2
				S672.7,1836.9,672.7,1836.9z"/>
			<path fill="#4BE0AA" d="M921,1841.9c0,0-2.5-21.6,9.3-33.3c11.8-11.8,33.3-9.3,33.3-9.3s2.5,21.6-9.3,33.3
				C942.6,1844.4,921,1841.9,921,1841.9z"/>
			<path fill="#4BE0AA" d="M921,1823.7c0,0-2.5,21.6,9.3,33.3s33.3,9.3,33.3,9.3s2.5-21.6-9.3-33.3S921,1823.7,921,1823.7z"/>
			<circle fill="#83FFD6" cx="760.5" cy="1836.9" r="32.7"/>
			<circle fill="#4BE0AA" cx="760.5" cy="1836.9" r="13.6"/>
			<path fill="#4BE0AA" d="M1205.4,1534c0,0-24.5,30.9-54.6,30.9c-30.2,0-54.6-30.9-54.6-30.9s24.5-30.9,54.6-30.9
				C1181,1503.1,1205.4,1534,1205.4,1534z"/>
			<path fill="#4BE0AA" d="M1104.9,1532c0,0,1,8.7-3.7,13.5c-4.8,4.8-13.5,3.7-13.5,3.7s-1-8.7,3.7-13.5
				C1096.1,1530.9,1104.9,1532,1104.9,1532z"/>
			<path fill="#4BE0AA" d="M1104.9,1539.3c0,0,1-8.7-3.7-13.5c-4.8-4.8-13.5-3.8-13.5-3.8s-1,8.7,3.7,13.5
				C1096.1,1540.3,1104.9,1539.3,1104.9,1539.3z"/>
			<circle fill="#83FFD6" cx="1169.9" cy="1534" r="13.2"/>
			<circle fill="#4BE0AA" cx="1169.9" cy="1534" r="5.5"/>
			<path fill="#4BE0AA" d="M874.4,1621.1c0,0,24.5-30.9,54.6-30.9c30.2,0,54.6,30.9,54.6,30.9S959.2,1652,929,1652
				S874.4,1621.1,874.4,1621.1z"/>
			<path fill="#4BE0AA" d="M974.9,1623.1c0,0-1-8.7,3.7-13.5s13.5-3.7,13.5-3.7s1,8.7-3.7,13.5
				C983.7,1624.2,974.9,1623.1,974.9,1623.1z"/>
			<path fill="#4BE0AA" d="M974.9,1615.8c0,0-1,8.7,3.7,13.5c4.8,4.8,13.5,3.7,13.5,3.7s1-8.7-3.7-13.5
				C983.7,1614.8,974.9,1615.8,974.9,1615.8z"/>
			<circle fill="#83FFD6" cx="909.9" cy="1621.1" r="13.2"/>
			<circle fill="#4BE0AA" cx="909.9" cy="1621.1" r="5.5"/>
			<path fill="#4BE0AA" d="M406,1506.6c0,0-19.6,24.7-43.7,24.7s-43.7-24.7-43.7-24.7s19.6-24.7,43.7-24.7
				C386.4,1481.9,406,1506.6,406,1506.6z"/>
			<path fill="#4BE0AA" d="M325.5,1505c0,0,0.8,7-3,10.8s-10.8,3-10.8,3s-0.8-7,3-10.8S325.5,1505,325.5,1505z"/>
			<path fill="#4BE0AA" d="M325.5,1510.8c0,0,0.8-7-3-10.8c-3.8-3.8-10.8-3-10.8-3s-0.8,7,3,10.8
				C318.5,1511.7,325.5,1510.8,325.5,1510.8z"/>
			<circle fill="#83FFD6" cx="377.6" cy="1506.6" r="10.6"/>
			<circle fill="#4BE0AA" cx="377.6" cy="1506.6" r="4.4"/>
			<circle fill="#4BE0AA" cx="652.6" cy="1771.9" r="11.2"/>
			<circle fill="#4BE0AA" cx="675.4" cy="1730.6" r="5.9"/>
			<circle fill="#4BE0AA" cx="599.5" cy="1616" r="7.1"/>
			<circle fill="#4BE0AA" cx="579.9" cy="1642.3" r="4.3"/>
			<circle fill="#4BE0AA" cx="688.9" cy="1762.5" r="4.1"/>
			<circle fill="#4BE0AA" cx="719.9" cy="1491.7" r="11.5"/>
		</g>
		<path fill="none" stroke="#9B4242" stroke-width="10.2119" stroke-miterlimit="10" d="M992.3,1255.5c0,0,22,82.8,91.5,91.5"/>
		
			<line fill="none" stroke="#9B4242" stroke-width="10.2119" stroke-miterlimit="10" x1="967.1" y1="1255.5" x2="1000.8" y2="1255.5"/>
		<rect x="440.2" y="930.8" fill="#873533" width="58.4" height="36.9"/>
		<rect x="291.9" y="1126.8" fill="#FFCC29" width="17.8" height="208.3"/>
		<path fill="#FFCC29" d="M240.9,1173.3c0,0,5.2-21.6,21.7-38.1c16.5-16.5,38.1-21.7,38.1-21.7s-5.2,21.6-21.7,38.1
			C262.5,1168.1,240.9,1173.3,240.9,1173.3z"/>
		<path fill="#FFCC29" d="M360.3,1173.3c0,0-5.2-21.6-21.7-38.1c-16.5-16.5-38.1-21.7-38.1-21.7s5.2,21.6,21.7,38.1
			C338.7,1168.1,360.3,1173.3,360.3,1173.3z"/>
		<path fill="#FFCC29" d="M361.9,1329.6c0,0,1.7-13.5-5.3-24.4s-20-15-20-15s-1.7,13.5,5.3,24.4
			C348.9,1325.5,361.9,1329.6,361.9,1329.6z"/>
		<path fill="#FFCC29" d="M359.8,1329.6c0,0-1.7-13.5,5.3-24.4c7-10.9,20-15,20-15s1.7,13.5-5.3,24.4S359.8,1329.6,359.8,1329.6z"/>
		<path fill="#FFCC29" d="M372.7,1121.2c0,0-18.9-11.6-42.3-11.6c-23.3,0-42.3,11.6-42.3,11.6s18.9,11.6,42.3,11.6
			C353.8,1132.8,372.7,1121.2,372.7,1121.2z"/>
		<path fill="#FFCC29" d="M227.2,1121.2c0,0,18.9-11.6,42.3-11.6c23.3,0,42.3,11.6,42.3,11.6s-18.9,11.6-42.3,11.6
			C246.1,1132.8,227.2,1121.2,227.2,1121.2z"/>
		<path fill="#FFCC29" d="M252.2,1067.4c0,0,21.6,5.2,38.1,21.7s21.7,38.1,21.7,38.1s-21.6-5.2-38.1-21.7S252.2,1067.4,252.2,1067.4
			z"/>
		<path fill="#FFCC29" d="M346.8,1068.2c0,0-21.6,5.2-38.1,21.7S287,1128,287,1128s21.6-5.2,38.1-21.7S346.8,1068.2,346.8,1068.2z"
			/>
		<rect x="422.3" y="930.8" fill="#631D1D" width="94.9" height="13.8"/>
		<rect x="1044.2" y="1340.8" fill="#631D1D" width="339" height="17.1"/>
	</g>
</g>
<g id="Layer_4">
</g>
</svg>
