<?xml version="1.0" encoding="utf-8"?>
<!-- Generator: Adobe Illustrator 18.1.0, SVG Export Plug-In . SVG Version: 6.00 Build 0)  -->
<svg version="1.1" xmlns="http://www.w3.org/2000/svg" xmlns:xlink="http://www.w3.org/1999/xlink" x="0px" y="0px"
	 viewBox="0 0 2732.1 1130" enable-background="new 0 0 2732.1 1130" xml:space="preserve">
<g id="Layer_1" display="none">
	<rect x="-370.1" y="140.9" display="inline" fill="#FFCC29" width="507" height="507"/>
	<rect x="-357.5" y="153.6" display="inline" fill="#FFE7AC" width="481.6" height="481.6"/>
	<circle display="inline" fill="#EF484A" cx="-116.7" cy="394.4" r="146.8"/>
	<circle display="inline" fill="#2C4415" cx="43.9" cy="229.6" r="42.2"/>
	<circle display="inline" fill="#B5FF66" cx="43.9" cy="229.6" r="21.1"/>
	<rect x="-756.1" y="-1314.5" display="inline" fill="#FFE7AC" width="4256.1" height="3968.6"/>
</g>
<g id="Layer_2">
	<path fill="#FFF5DC" d="M351,498l49.8-11.9c9-2.2,12.3-13.2,5.9-20L266.2,317.8c-6.4-6.7-17.6-4-20.2,4.8l-58.3,195.9
		c-2.6,8.9,5.3,17.3,14.3,15.1l49.8-11.9c9-2.2,17,6.2,14.3,15.1l-41,138.1c-2.6,8.9,5.3,17.3,14.3,15.1l49.8-11.9
		c9-2.2,17,6.2,14.3,15.1l-41,138.1c-2.6,8.9,5.3,17.3,14.3,15.1l60.5-14.5c6.5-1.5,12.9,2.4,14.5,8.9l30.7,128.6
		c3.6,15,18.7,24.3,33.7,20.7h0c15-3.6,24.3-18.7,20.7-33.7l-30.7-128.6c-1.5-6.5,2.4-12.9,8.9-14.5l60.5-14.5
		c9-2.2,12.3-13.2,5.9-20l-99-104.6c-6.4-6.7-3.1-17.8,5.9-20l49.8-11.9c9-2.2,12.3-13.2,5.9-20l-99-104.6
		C338.7,511.3,342,500.2,351,498z"/>
	<path fill="#FFF5DC" d="M160.2,931.7l20-4.8c3.6-0.9,4.9-5.3,2.4-8l-56.5-59.7c-2.6-2.7-7.1-1.6-8.1,1.9l-23.4,78.8
		c-1.1,3.6,2.1,6.9,5.8,6.1l20-4.8c3.6-0.9,6.8,2.5,5.8,6.1l-16.5,55.5c-1.1,3.6,2.1,6.9,5.8,6.1l20-4.8c3.6-0.9,6.8,2.5,5.8,6.1
		l-16.5,55.5c-1.1,3.6,2.1,6.9,5.8,6.1l24.3-5.8c2.6-0.6,5.2,1,5.8,3.6l12.4,51.7c1.4,6,7.5,9.8,13.6,8.3h0c6-1.4,9.8-7.5,8.3-13.6
		l-12.4-51.7c-0.6-2.6,1-5.2,3.6-5.8l24.3-5.8c3.6-0.9,4.9-5.3,2.4-8l-39.8-42.1c-2.6-2.7-1.2-7.2,2.4-8l20-4.8
		c3.6-0.9,4.9-5.3,2.4-8l-39.8-42.1C155.3,937,156.6,932.6,160.2,931.7z"/>
	<path fill="#FFF5DC" d="M2245.5,498l-49.8-11.9c-9-2.2-12.3-13.2-5.9-20l140.6-148.4c6.4-6.7,17.6-4,20.2,4.8l58.3,195.9
		c2.6,8.9-5.3,17.3-14.3,15.1l-49.8-11.9c-9-2.2-17,6.2-14.3,15.1l41,138.1c2.6,8.9-5.3,17.3-14.3,15.1l-49.8-11.9
		c-9-2.2-17,6.2-14.3,15.1l41,138.1c2.6,8.9-5.3,17.3-14.3,15.1l-60.5-14.5c-6.5-1.5-12.9,2.4-14.5,8.9L2214,969.5
		c-3.6,15-18.7,24.3-33.7,20.7h0c-15-3.6-24.3-18.7-20.7-33.7l30.8-128.6c1.5-6.5-2.4-12.9-8.9-14.5l-60.5-14.5
		c-9-2.2-12.3-13.2-5.9-20l99-104.6c6.4-6.7,3.1-17.8-5.9-20l-49.8-11.9c-9-2.2-12.3-13.2-5.9-20l99-104.6
		C2257.8,511.3,2254.5,500.2,2245.5,498z"/>
	<path fill="#FFF5DC" d="M2436.3,931.7l-20-4.8c-3.6-0.9-4.9-5.3-2.4-8l56.5-59.7c2.6-2.7,7.1-1.6,8.1,1.9l23.4,78.8
		c1.1,3.6-2.1,6.9-5.8,6.1l-20-4.8c-3.6-0.9-6.8,2.5-5.8,6.1l16.5,55.5c1.1,3.6-2.1,6.9-5.8,6.1l-20-4.8c-3.6-0.9-6.8,2.5-5.8,6.1
		l16.5,55.5c1.1,3.6-2.1,6.9-5.8,6.1l-24.3-5.8c-2.6-0.6-5.2,1-5.8,3.6l-12.4,51.7c-1.4,6-7.5,9.8-13.6,8.3l0,0
		c-6-1.4-9.8-7.5-8.3-13.6l12.4-51.7c0.6-2.6-1-5.2-3.6-5.8l-24.3-5.8c-3.6-0.9-4.9-5.3-2.4-8l39.8-42.1c2.6-2.7,1.2-7.2-2.4-8
		l-20-4.8c-3.6-0.9-4.9-5.3-2.4-8l39.8-42.1C2441.2,937,2439.9,932.6,2436.3,931.7z"/>
	<path fill="#FFF5DC" d="M63.9,431.9l-17.4,1.2c-2.1,0.1-3.9,1.6-4.4,3.7L38,453.6c-1.1,4.6-7.5,5-9.3,0.6l-6.5-16.1
		c-0.8-2-2.8-3.2-4.9-3L0,436.3c-4.7,0.3-7.1-5.6-3.5-8.6l13.3-11.2c1.6-1.4,2.2-3.6,1.4-5.6l-6.5-16.1c-1.8-4.4,3.1-8.5,7.1-6
		l14.7,9.2c1.8,1.1,4.1,1,5.7-0.4l13.3-11.2c3.6-3,9,0.3,7.9,4.9l-4.2,16.9c-0.5,2,0.4,4.2,2.1,5.3l14.7,9.2
		C70.2,425.4,68.7,431.5,63.9,431.9z"/>
	<path fill="#FFF5DC" d="M2727.6,395.9l-17.4,1.2c-2.1,0.1-3.9,1.6-4.4,3.7l-4.2,16.9c-1.1,4.6-7.5,5-9.3,0.6l-6.5-16.1
		c-0.8-2-2.8-3.2-4.9-3l-17.4,1.2c-4.7,0.3-7.1-5.6-3.5-8.6l13.3-11.2c1.6-1.4,2.2-3.6,1.4-5.6l-6.5-16.1c-1.8-4.4,3.1-8.5,7.1-6
		l14.7,9.2c1.8,1.1,4.1,1,5.7-0.4l13.3-11.2c3.6-3,9,0.3,7.9,4.9l-4.2,16.9c-0.5,2,0.4,4.2,2.1,5.3l14.7,9.2
		C2733.8,389.4,2732.3,395.5,2727.6,395.9z"/>
	<path fill="#FFF5DC" d="M256.3,46.5L239,47.7c-2.1,0.1-3.9,1.6-4.4,3.7l-4.2,16.9c-1.1,4.6-7.5,5-9.3,0.6l-6.5-16.1
		c-0.8-2-2.8-3.2-4.9-3l-17.4,1.2c-4.7,0.3-7.1-5.6-3.5-8.6l13.3-11.2c1.6-1.4,2.2-3.6,1.4-5.6l-6.5-16.1c-1.8-4.4,3.1-8.5,7.1-6
		l14.7,9.2c1.8,1.1,4.1,1,5.7-0.4L238,1.2c3.6-3,9,0.3,7.9,4.9L241.7,23c-0.5,2,0.4,4.2,2.1,5.3l14.7,9.2
		C262.6,40,261,46.2,256.3,46.5z"/>
	<path fill="#FFF5DC" d="M2511.5,190.8l-17.4,1.2c-2.1,0.1-3.9,1.6-4.4,3.7l-4.2,16.9c-1.1,4.6-7.5,5-9.3,0.6l-6.5-16.1
		c-0.8-2-2.8-3.2-4.9-3l-17.4,1.2c-4.7,0.3-7.1-5.6-3.5-8.6l13.3-11.2c1.6-1.4,2.2-3.6,1.4-5.6l-6.5-16.1c-1.8-4.4,3.1-8.5,7.1-6
		l14.7,9.2c1.8,1.1,4.1,1,5.7-0.4l13.3-11.2c3.6-3,9,0.3,7.9,4.9l-4.2,16.9c-0.5,2,0.4,4.2,2.1,5.3l14.7,9.2
		C2517.7,184.3,2516.2,190.5,2511.5,190.8z"/>
	<path fill="#FFF5DC" d="M480.2,249.5l-17.4,1.2c-2.1,0.1-3.9,1.6-4.4,3.7l-4.2,16.9c-1.1,4.6-7.5,5-9.3,0.6l-6.5-16.1
		c-0.8-2-2.8-3.2-4.9-3l-17.4,1.2c-4.7,0.3-7.1-5.6-3.5-8.6l13.3-11.2c1.6-1.4,2.2-3.6,1.4-5.6l-6.5-16.1c-1.8-4.4,3.1-8.5,7.1-6
		l14.7,9.2c1.8,1.1,4.1,1,5.7-0.4l13.3-11.2c3.6-3,9,0.3,7.9,4.9l-4.2,16.9c-0.5,2,0.4,4.2,2.1,5.3l14.7,9.2
		C486.5,243,485,249.1,480.2,249.5z"/>
	<path fill="#FFF5DC" d="M2571.3,687.7l-17.4,1.2c-2.1,0.1-3.9,1.6-4.4,3.7l-4.2,16.9c-1.1,4.6-7.5,5-9.3,0.6l-6.5-16.1
		c-0.8-2-2.8-3.2-4.9-3l-17.4,1.2c-4.7,0.3-7.1-5.6-3.5-8.6l13.3-11.2c1.6-1.4,2.2-3.6,1.4-5.6l-6.5-16.1c-1.8-4.4,3.1-8.5,7.1-6
		l14.7,9.2c1.8,1.1,4.1,1,5.7-0.4l13.3-11.2c3.6-3,9,0.3,7.9,4.9l-4.2,16.9c-0.5,2,0.4,4.2,2.1,5.3l14.7,9.2
		C2577.6,681.2,2576.1,687.4,2571.3,687.7z"/>
</g>
<g id="Layer_3" display="none">
	<g display="inline">
		<g>
			<path fill="#FFF5DC" d="M547.3,438.5c15.8,80.1,84,141.6,167.4,147l-42.6,0c-17.8,0-32.4,14.6-32.4,32.4l0,0
				c0,17.8,14.6,32.4,32.4,32.4l38,0c-5.7,5.8-9.2,13.8-9.2,22.5v0c0,17.8,14.6,32.4,32.4,32.4l38,0c-5.7,5.8-9.2,13.8-9.2,22.5v0
				c0,17.8,14.6,32.4,32.4,32.4l38,0c-5.7,5.8-9.2,13.8-9.2,22.5v0c0,17.8,14.6,32.4,32.4,32.4l48,0l4.2,11.3
				c13.3,60.3-7.5,123-54.1,163.4l-169.1,134.2c-11.1,8.8-17.5,22.4-17.3,36.6c0.5,24.9,20.8,44.8,45.7,44.8l1179.5,0
				c26.1,0,47.1-21.4,46.6-47.6v0c-0.3-14.4-7.3-27.9-18.9-36.5L1743,989.6c-47.3-40.4-68.5-103.5-55.1-164.3l4.1-10.4l61,0
				c17.8,0,32.4-14.6,32.4-32.4v0c0-8.7-3.5-16.7-9.2-22.5l38,0c17.8,0,32.4-14.6,32.4-32.4v0c0-8.7-3.5-16.7-9.2-22.5l38,0
				c17.8,0,32.4-14.6,32.4-32.4v0c0-8.7-3.5-16.7-9.2-22.5l38,0c17.8,0,32.4-14.6,32.4-32.4l0,0c0-17.8-14.6-32.4-32.4-32.4l-42.6,0
				c95.2-6.1,170.8-85.5,170.8-182.3c0-61.5-30.6-116.1-77.3-149.2l0-500.3l71.4,0c18,0,32.7-14.7,32.7-32.7v0
				c0-18-14.7-32.7-32.7-32.7l-1515.4,0c-18,0-32.7,14.7-32.7,32.7v0c0,18,14.7,32.7,32.7,32.7l80,0c-0.1,13.4-0.3,30.4-0.4,50.2
				c-0.4,0-0.9,0-1.3,0c-177.4,0-321.7,144.3-321.7,321.7C300.2,277.3,405.8,404.8,547.3,438.5z M453.4,125.6
				c0-92.9,75.6-168.5,168.5-168.5c0.2,0,0.4,0,0.6,0c-0.3,93.8-0.6,201.7-0.8,296.6c-14.4,10.1-27.2,22.2-38.1,35.9
				C509,272.2,453.4,205.3,453.4,125.6z"/>
		</g>
		<g>
			<path fill="#EF484A" d="M1758.1-248.8l-925.9,0c-73.7,0-133.4,59.7-133.4,133.4l0,566.2c0,73.7,59.7,133.4,133.4,133.4l64.1,0
				c73.7,0,133.4,59.7,133.4,133.4l0,193.5c0,73.7,59.7,133.4,133.4,133.4l264.2,0c73.7,0,133.4-59.7,133.4-133.4l0-193.5
				c0-73.7,59.7-133.4,133.4-133.4l64.1,0c73.7,0,133.4-59.7,133.4-133.4l0-566.2C1891.5-189.1,1831.7-248.8,1758.1-248.8z"/>
		</g>
		<g>
			<polyline fill="#FFCC29" points="698.8,220.5 1041.2,375.7 812.2,445.1 698.8,432.9 			"/>
		</g>
		<g>
			<path fill="#EF484A" stroke="#EF484A" stroke-width="65.3559" stroke-miterlimit="10" d="M698.8,388.9"/>
		</g>
		<g>
			<rect x="893.9" y="19.4" fill="#873533" width="352.3" height="280.8"/>
		</g>
		<g>
			<rect x="893.9" y="299.3" fill="#631D1D" width="33.7" height="133.6"/>
		</g>
		<g>
			<rect x="1212.5" y="299.4" fill="#631D1D" width="33.7" height="133.6"/>
		</g>
		<g>
			<path fill="#873533" d="M1487.9,432.9l-33.7,0l0-225.2c0-9.3,7.5-16.8,16.8-16.8h0c9.3,0,16.8,7.5,16.8,16.8L1487.9,432.9z"/>
		</g>
		<g>
			<path fill="#83FFD6" d="M1836.3,375.7c-11.9,4.9-22.2,9.1-44.3,9.1c-22,0-32.3-4.2-44.3-9.1c-12.9-5.3-27.5-11.3-55.1-11.3
				c-27.7,0-42.3,6-55.1,11.3c-11.9,4.9-22.2,9.1-44.3,9.1c-22,0-32.3-4.2-44.3-9.1c-12.9-5.3-27.5-11.3-55.1-11.3
				c-27.7,0-42.3,6-55.1,11.3c-11.9,4.9-22.2,9.1-44.3,9.1c-22,0-32.3-4.2-44.3-9.1c-12.9-5.3-27.5-11.3-55.1-11.3
				c-27.7,0-42.3,6-55.1,11.3c-11.9,4.9-22.2,9.1-44.3,9.1c-22,0-32.3-4.2-44.3-9.1c-12.9-5.3-27.5-11.3-55.1-11.3
				c-27.7,0-42.3,6-55.1,11.3c-11.9,4.9-22.2,9.1-44.3,9.1c-22,0-32.3-4.2-44.3-9.1c-12.9-5.3-27.5-11.3-55.1-11.3
				c-27.7,0-42.3,6-55.1,11.3c-11.9,4.9-22.2,9.1-44.3,9.1c-22,0-32.3-4.2-44.3-9.1c-12.9-5.3-27.5-11.3-55.1-11.3l0,24.5l0,4.1
				l0,57.7c0,73.7,59.7,133.4,133.4,133.4l64.1,0c73.7,0,133.4,59.7,133.4,133.4l0,193.5c0,73.7,59.7,133.4,133.4,133.4l264.2,0
				c73.7,0,133.4-59.7,133.4-133.4l0-193.5c0-73.7,59.7-133.4,133.4-133.4l64.1,0c73.7,0,133.4-59.7,133.4-133.4l0-57.7l0-4.1
				l0-24.5C1863.8,364.4,1849.2,370.4,1836.3,375.7z"/>
		</g>
		<g>
			<polygon fill="#9B4242" points="1310.5,65.3 838.8,65.3 879.6,-67.4 1269.7,-67.4 			"/>
		</g>
		<g>
			<polygon fill="#9B4242" points="1545.7,305.8 1854.6,305.8 1827.9,392.7 1572.5,392.7 			"/>
		</g>
		<g>
			<circle fill="#FFCC29" cx="1672.9" cy="-23.5" r="132.9"/>
		</g>
		<g>
			<rect x="1246.2" y="269.5" fill="#9B4242" width="208.5" height="30.6"/>
		</g>
		<g>
			<rect x="927.6" y="91.8" fill="#631D1D" width="284.9" height="112.3"/>
		</g>
		<g>
			<rect x="1063.7" y="91.8" fill="#9B4242" width="17.1" height="112.4"/>
		</g>
		<g>
			<g>
				<path fill="#FFF5DC" d="M1662.4-61.4l-246,0c-11,0-20,9-20,20v0c0,11,9,20,20,20l246,0c11,0,20-9,20-20l0,0
					C1682.4-52.4,1673.4-61.4,1662.4-61.4z"/>
			</g>
			<g>
				<path fill="#FFF5DC" d="M1611.4-3.6l-37.1,0c-4.9,0-9-4-9-9c0-4.9,4-9,9-9l-68.6,0c4.9,0,9,4,9,9v0c0,4.9-4,9-9,9l-38.4,0
					c-6.4,0-11.7,5.3-11.7,11.7s5.3,11.7,11.7,11.7l144.1,0c6.4,0,11.7-5.3,11.7-11.7v0C1623.1,1.7,1617.9-3.6,1611.4-3.6z"/>
			</g>
		</g>
		<g>
			<g>
				<path fill="#FFF5DC" d="M1652.6-102.4l177.6,0c7.9,0,14.4-6.5,14.4-14.4v0c0-7.9-6.5-14.4-14.4-14.4l-177.6,0
					c-7.9,0-14.4,6.5-14.4,14.4l0,0C1638.2-108.9,1644.7-102.4,1652.6-102.4z"/>
			</g>
			<g>
				<path fill="#FFF5DC" d="M1689.4-144.2l26.8,0c3.6,0,6.5,2.9,6.5,6.5c0,3.6-2.9,6.5-6.5,6.5l49.5,0c-3.6,0-6.5-2.9-6.5-6.5v0
					c0-3.6,2.9-6.5,6.5-6.5l27.7,0c4.6,0,8.4-3.8,8.4-8.4c0-4.6-3.8-8.4-8.4-8.4l-104,0c-4.6,0-8.4,3.8-8.4,8.4v0
					C1681-148,1684.8-144.2,1689.4-144.2z"/>
			</g>
		</g>
		<g>
			<path fill="#FFF5DC" d="M1640,44.9l-33.8,0c-1.9,0-3.5-1.6-3.5-3.5v-2.2c0-1.9,1.6-3.5,3.5-3.5l33.8,0c1.9,0,3.5,1.6,3.5,3.5
				l0,2.2C1643.6,43.3,1642,44.9,1640,44.9z"/>
		</g>
		<g>
			<path fill="#FFF5DC" d="M1854.9,114l-33.8,0c-1.9,0-3.5-1.6-3.5-3.5v-2.2c0-1.9,1.6-3.5,3.5-3.5l33.8,0c1.9,0,3.5,1.6,3.5,3.5
				l0,2.2C1858.5,112.4,1856.9,114,1854.9,114z"/>
		</g>
		<g>
			<path fill="#FFF5DC" d="M1413.3-81.3l-33.8,0c-1.9,0-3.5-1.6-3.5-3.5l0-2.2c0-1.9,1.6-3.5,3.5-3.5l33.8,0c1.9,0,3.5,1.6,3.5,3.5
				l0,2.2C1416.9-82.9,1415.3-81.3,1413.3-81.3z"/>
		</g>
		<g>
			<path fill="#FFF5DC" d="M1619.6-161l-33.8,0c-1.9,0-3.5-1.6-3.5-3.5v-2.2c0-1.9,1.6-3.5,3.5-3.5l33.8,0c1.9,0,3.5,1.6,3.5,3.5
				v2.2C1623.1-162.6,1621.5-161,1619.6-161z"/>
		</g>
		<g>
			<path fill="#83FFD6" d="M1836.3,375.7c-11.9,4.9-22.2,9.1-44.3,9.1c-22,0-32.3-4.2-44.3-9.1c-12.9-5.3-27.5-11.3-55.1-11.3
				c-27.7,0-42.3,6-55.1,11.3c-11.9,4.9-22.2,9.1-44.3,9.1c-22,0-32.3-4.2-44.3-9.1c-12.9-5.3-27.5-11.3-55.1-11.3
				c-27.7,0-42.3,6-55.1,11.3c-11.9,4.9-22.2,9.1-44.3,9.1c-22,0-32.3-4.2-44.3-9.1c-12.9-5.3-27.5-11.3-55.1-11.3
				c-27.7,0-42.3,6-55.1,11.3c-11.9,4.9-22.2,9.1-44.3,9.1c-22,0-32.3-4.2-44.3-9.1c-12.9-5.3-27.5-11.3-55.1-11.3
				c-27.7,0-42.3,6-55.1,11.3c-11.9,4.9-22.2,9.1-44.3,9.1c-22,0-32.3-4.2-44.3-9.1c-12.9-5.3-27.5-11.3-55.1-11.3
				c-27.7,0-42.3,6-55.1,11.3c-11.9,4.9-22.2,9.1-44.3,9.1c-22,0-32.3-4.2-44.3-9.1c-12.9-5.3-27.5-11.3-55.1-11.3l0,24.5l0,4.1
				l0,57.7c0,73.7,59.7,133.4,133.4,133.4l64.1,0c73.7,0,133.4,59.7,133.4,133.4l0,193.5c0,73.7,59.7,133.4,133.4,133.4l264.2,0
				c73.7,0,133.4-59.7,133.4-133.4l0-193.5c0-73.7,59.7-133.4,133.4-133.4l64.1,0c73.7,0,133.4-59.7,133.4-133.4l0-57.7l0-4.1
				l0-24.5C1863.8,364.4,1849.2,370.4,1836.3,375.7z"/>
		</g>
		<g>
			<g>
				<path fill="#4BE0AA" d="M1160.2,801.9c0,0,60.4-76.2,134.9-76.2c74.5,0,134.9,76.3,134.9,76.3s-60.4,76.2-134.9,76.2
					C1220.6,878.1,1160.2,801.9,1160.2,801.9z"/>
			</g>
			<g>
				<path fill="#4BE0AA" d="M1408.5,806.9c0,0-2.5-21.6,9.3-33.3s33.3-9.3,33.3-9.3s2.5,21.6-9.3,33.3
					C1430,809.4,1408.5,806.9,1408.5,806.9z"/>
			</g>
			<g>
				<path fill="#4BE0AA" d="M1408.5,788.7c0,0-2.5,21.6,9.3,33.3s33.3,9.3,33.3,9.3s2.5-21.6-9.3-33.3
					C1430,786.2,1408.5,788.7,1408.5,788.7z"/>
			</g>
			<g>
				<circle fill="#83FFD6" cx="1248" cy="801.9" r="32.7"/>
			</g>
			<g>
				<circle fill="#4BE0AA" cx="1248" cy="801.9" r="13.6"/>
			</g>
			<g>
				<path fill="#4BE0AA" d="M1692.9,498.9c0,0-24.5,30.9-54.6,30.9s-54.6-30.9-54.6-30.9s24.5-30.9,54.6-30.9
					S1692.9,498.9,1692.9,498.9z"/>
			</g>
			<g>
				<path fill="#4BE0AA" d="M1592.3,496.9c0,0,1,8.7-3.8,13.5c-4.8,4.8-13.5,3.7-13.5,3.7s-1-8.7,3.8-13.5
					C1583.6,495.9,1592.3,496.9,1592.3,496.9z"/>
			</g>
			<g>
				<path fill="#4BE0AA" d="M1592.3,504.3c0,0,1-8.7-3.7-13.5s-13.5-3.7-13.5-3.7s-1,8.7,3.7,13.5
					C1583.6,505.3,1592.3,504.3,1592.3,504.3z"/>
			</g>
			<g>
				<circle fill="#83FFD6" cx="1657.3" cy="498.9" r="13.2"/>
			</g>
			<g>
				<circle fill="#4BE0AA" cx="1657.3" cy="498.9" r="5.5"/>
			</g>
			<g>
				<path fill="#4BE0AA" d="M1361.8,586.1c0,0,24.5-30.9,54.6-30.9s54.6,30.9,54.6,30.9s-24.5,30.9-54.6,30.9
					S1361.8,586.1,1361.8,586.1z"/>
			</g>
			<g>
				<path fill="#4BE0AA" d="M1462.4,588.1c0,0-1-8.7,3.7-13.5c4.8-4.8,13.5-3.7,13.5-3.7s1,8.7-3.7,13.5
					C1471.1,589.1,1462.4,588.1,1462.4,588.1z"/>
			</g>
			<g>
				<path fill="#4BE0AA" d="M1462.4,580.7c0,0-1,8.7,3.7,13.5c4.8,4.8,13.5,3.7,13.5,3.7s1-8.7-3.7-13.5
					C1471.1,579.7,1462.4,580.7,1462.4,580.7z"/>
			</g>
			<g>
				<circle fill="#83FFD6" cx="1397.4" cy="586.1" r="13.2"/>
			</g>
			<g>
				<circle fill="#4BE0AA" cx="1397.4" cy="586.1" r="5.5"/>
			</g>
			<g>
				<path fill="#4BE0AA" d="M893.5,471.5c0,0-19.6,24.7-43.7,24.7c-24.2,0-43.7-24.7-43.7-24.7s19.6-24.7,43.7-24.7
					C873.9,446.8,893.5,471.5,893.5,471.5z"/>
			</g>
			<g>
				<path fill="#4BE0AA" d="M813,469.9c0,0,0.8,7-3,10.8c-3.8,3.8-10.8,3-10.8,3s-0.8-7,3-10.8C806,469.1,813,469.9,813,469.9z"/>
			</g>
			<g>
				<path fill="#4BE0AA" d="M813,475.8c0,0,0.8-7-3-10.8c-3.8-3.8-10.8-3-10.8-3s-0.8,7,3,10.8S813,475.8,813,475.8z"/>
			</g>
			<g>
				<circle fill="#83FFD6" cx="865" cy="471.5" r="10.6"/>
			</g>
			<g>
				<circle fill="#4BE0AA" cx="865" cy="471.5" r="4.4"/>
			</g>
			<g>
				<circle fill="#4BE0AA" cx="1140.1" cy="736.8" r="11.2"/>
			</g>
			<g>
				<circle fill="#4BE0AA" cx="1162.8" cy="695.6" r="5.9"/>
			</g>
			<g>
				<circle fill="#4BE0AA" cx="1087" cy="580.9" r="7.1"/>
			</g>
			<g>
				<circle fill="#4BE0AA" cx="1067.3" cy="607.2" r="4.3"/>
			</g>
			<g>
				<circle fill="#4BE0AA" cx="1176.3" cy="727.5" r="4.1"/>
			</g>
			<g>
				<circle fill="#4BE0AA" cx="1207.4" cy="456.6" r="11.5"/>
			</g>
		</g>
		<g>
			<path fill="#9B4242" d="M1570.6,317c-29.9-3.7-56-21.4-75.4-51.2c-14.5-22.2-20.1-43.1-20.4-44l9.9-2.6c0,0,0,0,0,0l0,0
				c0.1,0.4,5.6,20.5,19.2,41.3c18,27.4,40.8,43.1,68,46.4L1570.6,317z"/>
		</g>
		<g>
			<rect x="1454.5" y="215.4" fill="#9B4242" width="33.7" height="10.2"/>
		</g>
		<g>
			<rect x="927.6" y="-104.3" fill="#873533" width="58.4" height="36.9"/>
		</g>
		<g>
			<rect x="779.3" y="91.8" fill="#FFCC29" width="17.8" height="208.3"/>
		</g>
		<g>
			<path fill="#FFCC29" d="M728.3,138.2c0,0,5.2-21.6,21.7-38.1c16.5-16.5,38.1-21.7,38.1-21.7s-5.2,21.6-21.7,38.1
				C749.9,133,728.3,138.2,728.3,138.2z"/>
		</g>
		<g>
			<path fill="#FFCC29" d="M847.8,138.2c0,0-5.2-21.6-21.7-38.1S788,78.5,788,78.5s5.2,21.6,21.7,38.1
				C826.2,133,847.8,138.2,847.8,138.2z"/>
		</g>
		<g>
			<path fill="#FFCC29" d="M849.4,294.5c0,0,1.7-13.5-5.3-24.4c-7-10.9-20-15-20-15s-1.7,13.5,5.3,24.4
				C836.4,290.4,849.4,294.5,849.4,294.5z"/>
		</g>
		<g>
			<path fill="#FFCC29" d="M847.2,294.5c0,0-1.7-13.5,5.3-24.4c7-10.9,20-15,20-15s1.7,13.5-5.3,24.4
				C860.2,290.4,847.2,294.5,847.2,294.5z"/>
		</g>
		<g>
			<path fill="#FFCC29" d="M860.1,86.2c0,0-18.9-11.6-42.3-11.6c-23.3,0-42.3,11.6-42.3,11.6s18.9,11.6,42.3,11.6
				S860.1,86.2,860.1,86.2z"/>
		</g>
		<g>
			<path fill="#FFCC29" d="M714.7,86.2c0,0,18.9-11.6,42.3-11.6c23.3,0,42.3,11.6,42.3,11.6s-18.9,11.6-42.3,11.6
				C733.6,97.8,714.7,86.2,714.7,86.2z"/>
		</g>
		<g>
			<path fill="#FFCC29" d="M739.7,32.3c0,0,21.6,5.2,38.1,21.7c16.5,16.5,21.7,38.1,21.7,38.1s-21.6-5.2-38.1-21.7
				C744.9,53.9,739.7,32.3,739.7,32.3z"/>
		</g>
		<g>
			<path fill="#FFCC29" d="M834.3,33.2c0,0-21.6,5.2-38.1,21.7C779.7,71.4,774.5,93,774.5,93s21.6-5.2,38.1-21.7
				C829.1,54.7,834.3,33.2,834.3,33.2z"/>
		</g>
		<g>
			<rect x="909.8" y="-104.3" fill="#631D1D" width="94.9" height="13.8"/>
		</g>
		<g>
			<rect x="1531.6" y="305.8" fill="#631D1D" width="339" height="17.1"/>
		</g>
	</g>
</g>
<g id="Layer_4" display="none">
	<g display="inline">
		<g>
			<path fill="#FFF5DC" d="M664.1,180.3l1271.9,4.1l-241.7,643.4c-13.5,60.2,7.1,123,53.6,163.6l168.6,134.8
				c11.1,8.9,17.5,22.4,17.1,36.7l0,0c-0.5,24.9-20.9,44.7-45.8,44.7l-1179.5-3.8c-26.1-0.1-47.1-21.6-46.5-47.7v0
				c0.3-14.4,7.3-27.9,19-36.5l177.9-131c47.4-40.2,68.8-103.3,55.7-164.1L664.1,180.3z"/>
		</g>
		<g>
			
				<rect x="1130.6" y="701.6" transform="matrix(1 3.197182e-03 -3.197182e-03 1 2.566 -4.1625)" fill="#491016" width="345.1" height="197.9"/>
		</g>
		<g>
			<path fill="#FFF5DC" d="M1982.8,449.7l-1,0c-43.4-0.1-85.5-8.8-125.1-25.7c-38.3-16.3-72.6-39.6-102-69.2s-52.5-64.1-68.6-102.4
				c-16.7-39.8-25-81.9-24.9-125.3c0.1-43.3,8.8-85.3,25.6-124.9c16.3-38.2,39.5-72.5,69-101.9c29.5-29.4,63.9-52.5,102.1-68.6
				c39.6-16.7,81.7-25.2,124.9-25.2l1,0c43.4,0.1,85.5,8.8,125.1,25.7c38.3,16.3,72.6,39.6,102,69.2s52.5,64.1,68.6,102.4
				c16.7,39.8,25,81.9,24.9,125.3c-0.1,43.3-8.8,85.3-25.6,124.9c-16.3,38.2-39.5,72.5-69,101.9c-29.5,29.4-63.9,52.5-102.1,68.6
				C2068.1,441.2,2026.1,449.7,1982.8,449.7z M1982.8-40.5c-44.9,0-87.1,17.5-118.9,49.2c-31.8,31.7-49.4,73.9-49.6,118.8
				c-0.3,92.9,75,168.7,167.9,169l0.6,0c44.9,0,87.1-17.5,118.9-49.2c31.8-31.7,49.4-73.9,49.5-118.8c0.1-45-17.2-87.4-49-119.3
				c-31.7-31.9-74-49.6-119-49.7L1982.8-40.5z"/>
		</g>
		<g>
			<path fill="#FFF5DC" d="M966,649.4l-299.7-1c-17.8-0.1-32.4-14.7-32.3-32.5v0c0.1-17.8,14.7-32.4,32.5-32.3l299.7,1
				c17.8,0.1,32.4,14.7,32.3,32.5v0C998.4,635,983.8,649.5,966,649.4z"/>
		</g>
		<g>
			<path fill="#FFF5DC" d="M1027.1,704.5l-299.7-1c-17.8-0.1-32.4-14.7-32.3-32.5v0c0.1-17.8,14.7-32.4,32.5-32.3l299.7,1
				c17.8,0.1,32.4,14.7,32.3,32.5v0C1059.5,690,1044.9,704.6,1027.1,704.5z"/>
		</g>
		<g>
			<path fill="#FFF5DC" d="M1088.1,759.6l-299.7-1c-17.8-0.1-32.4-14.7-32.3-32.5v0c0.1-17.8,14.7-32.4,32.5-32.3l299.7,1
				c17.8,0.1,32.4,14.7,32.3,32.5v0C1120.6,745.1,1106,759.7,1088.1,759.6z"/>
		</g>
		<g>
			<path fill="#FFF5DC" d="M1036.1,814.3l-192.4-0.6c-14.6,0-26.6-12.1-26.5-26.7l0-11.6c0-14.6,12.1-26.6,26.7-26.5l192.4,0.6
				c14.6,0,26.6,12.1,26.5,26.7l0,11.6C1062.7,802.5,1050.7,814.4,1036.1,814.3z"/>
		</g>
		<g>
			<path fill="#FFF5DC" d="M1631.2,651.6l299.7,1c17.8,0.1,32.4-14.5,32.5-32.3v0c0.1-17.8-14.5-32.4-32.3-32.5l-299.7-1
				c-17.8-0.1-32.4,14.5-32.5,32.3v0C1598.8,636.9,1613.4,651.5,1631.2,651.6z"/>
		</g>
		<g>
			<path fill="#FFF5DC" d="M1569.7,706.3l299.7,1c17.8,0.1,32.4-14.5,32.5-32.3v0c0.1-17.8-14.5-32.4-32.3-32.5l-299.7-1
				c-17.8-0.1-32.4,14.5-32.5,32.3v0C1537.4,691.6,1551.9,706.2,1569.7,706.3z"/>
		</g>
		<g>
			<path fill="#FFF5DC" d="M1508.3,761l299.7,1c17.8,0.1,32.4-14.5,32.5-32.3v0c0.1-17.8-14.5-32.4-32.3-32.5l-299.7-1
				c-17.8-0.1-32.4,14.5-32.5,32.3v0C1475.9,746.3,1490.5,760.9,1508.3,761z"/>
		</g>
		<g>
			<path fill="#FFF5DC" d="M1563.4,816l189.2,0.6c14.5,0,26.4-11.8,26.5-26.3l0-12c0-14.5-11.8-26.4-26.3-26.5l-189.2-0.6
				c-14.5,0-26.4,11.8-26.5,26.3l0,12C1537,804.1,1548.9,816,1563.4,816z"/>
		</g>
		<g>
			<path fill="#FFF5DC" d="M1981.7-278.1l0.1-18.4l-1363.3-4.4L616,452.4l-0.2,54.5l0-6.6c-0.1,28.9,23.5,52.6,52.4,52.7h0
				c28.9,0.1,52.6-23.5,52.7-52.4c-0.1,28.9,23.5,52.6,52.4,52.7h0c28.9,0.1,52.6-23.5,52.7-52.4c-0.1,28.9,23.5,52.6,52.4,52.7h0
				c28.9,0.1,52.6-23.5,52.7-52.4c-0.1,28.9,23.5,52.6,52.4,52.7h0c28.9,0.1,52.6-23.5,52.7-52.4c-0.1,28.9,23.5,52.6,52.4,52.7h0
				c28.9,0.1,52.6-23.5,52.7-52.4c-0.1,28.9,23.5,52.6,52.4,52.7h0c28.9,0.1,52.6-23.5,52.7-52.4c-0.1,28.9,23.5,52.6,52.4,52.7h0
				c28.9,0.1,52.6-23.5,52.7-52.4c-0.1,28.9,23.5,52.6,52.4,52.7h0c28.9,0.1,52.6-23.5,52.7-52.4c-0.1,28.9,23.5,52.6,52.4,52.7h0
				c28.9,0.1,52.6-23.5,52.7-52.4c-0.1,28.9,23.5,52.6,52.4,52.7h0c28.9,0.1,52.6-23.5,52.7-52.4c-0.1,28.9,23.5,52.6,52.4,52.7h0
				c28.9,0.1,52.6-23.5,52.7-52.4c-0.1,28.9,23.5,52.6,52.4,52.7h0c28.9,0.1,52.6-23.5,52.7-52.4c-0.1,28.9,23.5,52.6,52.4,52.7h0
				c28.9,0.1,52.6-23.5,52.7-52.4l0,0C1982.2,498.6,1983.6-272.6,1981.7-278.1z"/>
		</g>
		<g>
			<g>
				<path fill="#FCD98D" d="M721.5,343.4c0.1,0,0.1,0,0.2,0l370.9,1.2c32,0.1,58,26.3,57.9,58.3v0c-0.1,31.9-26.2,57.9-58.1,57.9
					c-0.1,0-0.1,0-0.2,0l-370.9-1.2c-32-0.1-58-26.3-57.9-58.3C663.5,369.5,689.7,343.4,721.5,343.4 M721.5,218.9L721.5,218.9
					L721.5,218.9c-24.6,0-48.5,4.9-71.1,14.4c-21.7,9.2-41.1,22.3-57.8,38.9c-16.7,16.6-29.9,36-39.1,57.7
					c-9.7,22.6-14.6,46.5-14.7,71.1c-0.3,100.7,81.4,183,182.1,183.3l370.7,1.2c0.2,0,0.5,0,0.7,0c24.6,0,48.5-4.9,71.1-14.4
					c21.7-9.2,41.1-22.3,57.8-38.9c16.7-16.6,29.9-36,39.1-57.7c9.7-22.6,14.6-46.5,14.7-71.1c0.3-100.7-81.4-183-182.1-183.3
					l-370.7-1.2C722,218.9,721.8,218.9,721.5,218.9L721.5,218.9z"/>
			</g>
		</g>
		<g>
			<g>
				<path fill="#FCD98D" d="M1506.3,346c0.1,0,0.1,0,0.2,0l370.9,1.2c32,0.1,58,26.3,57.9,58.3c-0.1,31.9-26.2,57.9-58.1,57.9
					c-0.1,0-0.1,0-0.2,0l-370.9-1.2c-32-0.1-58-26.3-57.9-58.3v0C1448.3,372,1474.4,346,1506.3,346 M1506.3,221.4L1506.3,221.4
					L1506.3,221.4c-24.6,0-48.5,4.9-71.1,14.4c-21.7,9.2-41.1,22.3-57.8,38.9c-16.7,16.6-29.9,36-39.1,57.7
					c-9.7,22.6-14.6,46.5-14.7,71.1c-0.3,100.7,81.4,183,182.1,183.3l370.7,1.2c0.2,0,0.5,0,0.7,0c24.6,0,48.5-4.9,71.1-14.4
					c21.7-9.2,41.1-22.3,57.8-38.9c16.7-16.6,29.9-36,39.1-57.7c9.7-22.6,14.6-46.5,14.7-71.1c0.3-100.7-81.4-183-182.1-183.3
					l-370.7-1.2C1506.8,221.4,1506.6,221.4,1506.3,221.4L1506.3,221.4z"/>
			</g>
		</g>
		<g>
			<g>
				<path fill="#EF484A" d="M1081.2,648l181.4-312c16.5-28.4,57.6-28.3,73.9,0.2L1516,649.4c16.3,28.5-4.3,64-37.1,63.9l-360.9-1.2
					C1085.1,712,1064.7,676.4,1081.2,648z"/>
			</g>
		</g>
		<g>
			<g>
				<path fill="#EF484A" d="M1171.9,492l-90.7,156c-16.5,28.4,3.9,64,36.7,64.1l180.4,0.6C1185.3,712.3,1115.1,589.7,1171.9,492z"/>
			</g>
			<g>
				<path fill="#FF6E75" d="M1336.5,336.3c-16.3-28.5-57.4-28.6-73.9-0.2l-90.7,156c56.8-97.7,198.1-97.3,254.3,0.8v0"/>
			</g>
		</g>
		<g>
			<g>
				<path fill="#CE000B" d="M1497.7,936l-183,157.4c-10.1,8.7-25,8.6-35.1-0.1l-181.9-158.6c-18.7-16.3-7.1-47.1,17.7-47l364.9,1.2
					C1505.1,889,1516.5,919.8,1497.7,936z"/>
			</g>
		</g>
		<g>
			<g>
				<path fill="#FFCC29" d="M721.3,471.9c-18.7-0.1-36.4-7.5-49.6-20.8c-13.3-13.4-20.6-31-20.5-49.8c0.1-38.7,31.7-70.1,70.4-70.1
					l371.1,1.2c38.8,0.1,70.3,31.8,70.1,70.6c-0.1,38.7-31.7,70.1-70.4,70.1L721.3,471.9z"/>
			</g>
			<g>
				<g>
					<path fill="#FFF5DC" d="M721.5,343.4c0.1,0,0.1,0,0.2,0l370.9,1.2c32,0.1,58,26.3,57.9,58.3c-0.1,31.9-26.2,57.9-58.1,57.9
						c-0.1,0-0.1,0-0.2,0l-370.9-1.2c-32-0.1-58-26.3-57.9-58.3v0C663.5,369.5,689.7,343.4,721.5,343.4 M721.5,318.9
						c-45.4,0-82.5,36.9-82.6,82.4c-0.1,45.6,36.8,82.7,82.4,82.9l370.9,1.2l0.3,0c45.4,0,82.5-36.9,82.6-82.4
						c0.1-45.6-36.8-82.7-82.4-82.9l-370.9-1.2L721.5,318.9L721.5,318.9z"/>
				</g>
			</g>
		</g>
		<g>
			<g>
				<path fill="#FFCC29" d="M1506.1,474.4c-18.7-0.1-36.4-7.5-49.6-20.8c-13.3-13.4-20.6-31-20.5-49.8c0.1-38.7,31.7-70.1,70.4-70.1
					l371.1,1.2c38.8,0.1,70.3,31.8,70.1,70.6c-0.1,38.7-31.7,70.1-70.4,70.1L1506.1,474.4z"/>
			</g>
			<g>
				<g>
					<path fill="#FFF5DC" d="M1506.3,346c0.1,0,0.1,0,0.2,0l370.9,1.2c32,0.1,58,26.3,57.9,58.3c-0.1,31.9-26.2,57.9-58.1,57.9
						c-0.1,0-0.1,0-0.2,0l-370.9-1.2c-32-0.1-58-26.3-57.9-58.3C1448.3,372,1474.4,346,1506.3,346 M1506.3,321.4
						c-45.4,0-82.5,36.9-82.6,82.4c-0.1,22,8.5,42.8,24.1,58.4c15.6,15.7,36.3,24.4,58.3,24.4l370.9,1.2l0.3,0
						c45.4,0,82.5-36.9,82.6-82.4c0.1-45.6-36.8-82.7-82.4-82.9l-370.9-1.2L1506.3,321.4L1506.3,321.4z"/>
				</g>
			</g>
		</g>
		<g>
			<g>
				<path fill="#CE000B" d="M1266.8,611.6L1266.8,611.6c6.7,0,12.2,5.6,12.2,12.3l-0.1,40.8c0,6.7-5.6,12.2-12.3,12.2l0,0
					c-6.7,0-12.2-5.6-12.2-12.3l0.1-40.8C1254.6,617.1,1260.1,611.6,1266.8,611.6z"/>
			</g>
			<g>
				<path fill="#CE000B" d="M1330.6,611.8L1330.6,611.8c6.7,0,12.2,5.6,12.2,12.3l-0.1,40.8c0,6.7-5.6,12.2-12.3,12.2l0,0
					c-6.7,0-12.2-5.6-12.2-12.3l0.1-40.8C1318.3,617.3,1323.8,611.8,1330.6,611.8z"/>
			</g>
		</g>
		<g>
			<path fill="#EF484A" d="M1012.5,386.1l-210.9-0.7c-9,0-16.4,7.3-16.4,16.3v0c0,9,7.3,16.4,16.3,16.4l210.9,0.7
				c9,0,16.4-7.3,16.4-16.3v0C1028.8,393.5,1021.5,386.2,1012.5,386.1z"/>
		</g>
		<g>
			<path fill="#EF484A" d="M1797.2,388.7l-210.9-0.7c-9,0-16.4,7.3-16.4,16.3v0c0,9,7.3,16.4,16.3,16.4l210.9,0.7
				c9,0,16.4-7.3,16.4-16.3v0C1813.6,396.1,1806.2,388.7,1797.2,388.7z"/>
		</g>
		<g>
			<path fill="#FFF5DC" d="M2062.3-243.6l-1515.4-4.8c-18-0.1-32.6-14.8-32.6-32.8v0c0.1-18,14.8-32.6,32.8-32.6l1515.4,4.8
				c18,0.1,32.6,14.8,32.6,32.8v0C2095-258.2,2080.2-243.6,2062.3-243.6z"/>
		</g>
		<g>
			
				<rect x="860.7" y="385.8" transform="matrix(1 3.197182e-03 -3.197182e-03 1 1.2904 -2.8977)" fill="#CE000B" width="92.5" height="32.7"/>
		</g>
		<g>
			
				<rect x="1645.5" y="388.3" transform="matrix(1 3.197182e-03 -3.197182e-03 1 1.3024 -5.4068)" fill="#CE000B" width="92.5" height="32.7"/>
		</g>
		<g>
			<g>
				<path fill="#FF6E75" d="M1124.9,572.8l-43.7,75.2c-16.5,28.4,3.9,64,36.7,64.1l87,0.3C1133.4,712.1,1089,634.6,1124.9,572.8z"/>
			</g>
			<g>
				<path fill="#FF6E75" d="M1379.8,411.8l46.5,81.1l-89.7-156.6c-16.3-28.5-57.4-28.6-73.9-0.2l-43.7,75.2
					C1254.9,349.4,1344.2,349.7,1379.8,411.8z"/>
			</g>
			<g>
				<path fill="#FF6E75" d="M1516,649.4l-43.3-75.5c35.6,62-9.4,139.3-80.9,139.1l87,0.3C1511.7,713.4,1532.3,677.9,1516,649.4z"/>
			</g>
		</g>
		<g>
			<path fill="#FFF5DC" d="M1168.6,750.4L1168.6,750.4c-10.2,0-18.4-8.3-18.3-18.5l0.1-19.7l36.8,0.1L1187,732
				C1187,742.2,1178.7,750.4,1168.6,750.4z"/>
		</g>
		<g>
			<path fill="#FFF5DC" d="M1233.4,750.6L1233.4,750.6c-10.2,0-18.4-8.3-18.3-18.5l0.1-19.7l36.8,0.1l-0.1,19.7
				C1251.9,742.4,1243.6,750.6,1233.4,750.6z"/>
		</g>
		<g>
			<path fill="#FFF5DC" d="M1298.3,750.8L1298.3,750.8c-10.2,0-18.4-8.3-18.3-18.5l0.1-19.7l36.8,0.1l-0.1,19.7
				C1316.7,742.6,1308.5,750.8,1298.3,750.8z"/>
		</g>
		<g>
			<path fill="#FFCC29" d="M1363.2,751L1363.2,751c-10.2,0-18.4-8.3-18.3-18.5l0.1-19.7l36.8,0.1l-0.1,19.7
				C1381.6,742.8,1373.3,751,1363.2,751z"/>
		</g>
		<g>
			<path fill="#FFF5DC" d="M1428,751.2L1428,751.2c-10.2,0-18.4-8.3-18.3-18.5l0.1-19.7l36.8,0.1l-0.1,19.7
				C1446.5,743,1438.2,751.2,1428,751.2z"/>
		</g>
		<g>
			<path fill="#EF484A" d="M1508.3,945.5l-421.4-1.3c-15.5,0-28.2-12.8-28.2-28.3v0c0-15.5,12.8-28.2,28.3-28.2l421.4,1.3
				c15.5,0,28.2,12.8,28.2,28.3v0C1536.6,932.9,1523.9,945.5,1508.3,945.5z"/>
		</g>
		<g>
			<rect x="665.3" y="-223.1" fill="#FCD98D" width="0" height="101.9"/>
		</g>
		<g>
			<path fill="#FFE7AC" d="M1984.1-242.7l-1366.4-4.4l-0.2,47.6l52.6,0.2c22,0.1,39.8,18,39.7,40L709.3,50
				c-0.1,21.3,17.1,38.6,38.4,38.7l0,0c21.3,0.1,38.6-17.1,38.7-38.4L787-167c0.1-17.6,14.4-31.9,32-31.8h0
				c17.6,0.1,31.9,14.4,31.8,32l-0.3,105c0,11.8,9.2,22,21,22.2c12,0.3,21.9-9.4,21.9-21.4l0.3-102.4c0.1-19.5,15.9-35.2,35.4-35.1
				l733.7,2.3c25.4,0.1,45.9,20.7,45.8,46.1l-0.2,68.8c-0.1,16.1,12.9,29.1,29,29.2h0c16.1,0.1,29.1-12.9,29.2-29l0.3-90.5
				c0-13.4,10.9-24.2,24.3-24.2l0,0c13.4,0,24.2,10.9,24.2,24.3l-0.9,267.9c-0.1,24.7,19.9,44.7,44.5,44.8h0
				c24.7,0.1,44.7-19.9,44.8-44.5l0.7-212.9c0.1-43.7,35.7-79.1,79.4-78.9h0L1984.1-242.7z"/>
		</g>
	</g>
</g>
</svg>
