<svg xmlns="http://www.w3.org/2000/svg" viewBox="0 0 240.43 69"><defs><style>.cls-1{fill:#1e0037;}.cls-2{fill:#fff;}</style></defs><title>appstore</title><g id="Layer_2" data-name="Layer 2"><g id="maininfo"><path class="cls-1" d="M240.43,62.08A6.92,6.92,0,0,1,233.5,69H6.93A6.92,6.92,0,0,1,0,62.08V6.93A6.93,6.93,0,0,1,6.93,0H233.5a6.92,6.92,0,0,1,6.92,6.93V62.08Z"/><path class="cls-2" d="M52.8,34.12a10.47,10.47,0,0,1,5-8.78,10.72,10.72,0,0,0-8.44-4.57c-3.55-.37-7,2.13-8.81,2.13s-4.63-2.09-7.63-2a11.24,11.24,0,0,0-9.46,5.77c-4.09,7.08-1,17.49,2.88,23.22,2,2.8,4.25,5.94,7.25,5.83s4-1.87,7.57-1.87,4.54,1.87,7.6,1.8,5.13-2.82,7-5.65A23.17,23.17,0,0,0,59,43.43,10.12,10.12,0,0,1,52.8,34.12Z"/><path class="cls-2" d="M47,17a10.3,10.3,0,0,0,2.36-7.38,10.5,10.5,0,0,0-6.79,3.51,9.81,9.81,0,0,0-2.42,7.11A8.67,8.67,0,0,0,47,17Z"/><path class="cls-2" d="M95.26,55.28h-4.1l-2.25-7.06H81.11L79,55.28H75l7.74-24h4.78Zm-7-10-2-6.28q-.32-1-1.21-4.53h-.07Q84.57,36,83.78,39l-2,6.28Z"/><path class="cls-2" d="M115.16,46.41a9.85,9.85,0,0,1-2.39,7,7,7,0,0,1-5.31,2.28,5.31,5.31,0,0,1-4.92-2.46h-.07v9.13H98.61V43.66q0-2.78-.14-5.7h3.39l.21,2.75h.07a6.85,6.85,0,0,1,11-.68A9.55,9.55,0,0,1,115.16,46.41Zm-3.92.14a7.13,7.13,0,0,0-1.14-4.17,3.94,3.94,0,0,0-3.35-1.71,4,4,0,0,0-2.58.94,4.38,4.38,0,0,0-1.52,2.48,5,5,0,0,0-.18,1.17v2.89a4.63,4.63,0,0,0,1.16,3.19,3.84,3.84,0,0,0,3,1.3A3.94,3.94,0,0,0,110,51,7.38,7.38,0,0,0,111.24,46.55Z"/><path class="cls-2" d="M135.09,46.41a9.84,9.84,0,0,1-2.39,7,7,7,0,0,1-5.31,2.28,5.31,5.31,0,0,1-4.92-2.46h-.07v9.13h-3.85V43.66q0-2.78-.14-5.7h3.39L122,40.7h.07A6.85,6.85,0,0,1,133,40,9.57,9.57,0,0,1,135.09,46.41Zm-3.92.14A7.13,7.13,0,0,0,130,42.37a3.94,3.94,0,0,0-3.35-1.71,4,4,0,0,0-2.59.94,4.38,4.38,0,0,0-1.51,2.48,5.14,5.14,0,0,0-.18,1.17v2.89a4.64,4.64,0,0,0,1.16,3.19,3.85,3.85,0,0,0,3,1.3A3.94,3.94,0,0,0,130,51,7.38,7.38,0,0,0,131.17,46.55Z"/><path class="cls-2" d="M157.37,48.54a6.4,6.4,0,0,1-2.13,5,9.46,9.46,0,0,1-6.55,2.1,11.46,11.46,0,0,1-6.23-1.5l.89-3.21a10.55,10.55,0,0,0,5.57,1.53,5.26,5.26,0,0,0,3.39-1,3.21,3.21,0,0,0,1.21-2.63,3.35,3.35,0,0,0-1-2.46,9.28,9.28,0,0,0-3.32-1.86q-6.31-2.35-6.31-6.89a6.1,6.1,0,0,1,2.21-4.86A8.72,8.72,0,0,1,151,30.9,11.66,11.66,0,0,1,156.45,32l-1,3.14a9.46,9.46,0,0,0-4.6-1.11,4.66,4.66,0,0,0-3.17,1,2.85,2.85,0,0,0-1,2.18,2.94,2.94,0,0,0,1.1,2.35,12.47,12.47,0,0,0,3.5,1.85,11.86,11.86,0,0,1,4.56,2.92A6.1,6.1,0,0,1,157.37,48.54Z"/><path class="cls-2" d="M170.1,40.84h-4.24v8.41q0,3.21,2.25,3.21a6.85,6.85,0,0,0,1.71-.18l.11,2.92a8.72,8.72,0,0,1-3,.43,4.62,4.62,0,0,1-3.57-1.39q-1.28-1.39-1.28-4.67V40.84h-2.53V38h2.53V34.78l3.78-1.14V38h4.24Z"/><path class="cls-2" d="M189.25,46.48A9.51,9.51,0,0,1,187,53a8.15,8.15,0,0,1-6.35,2.64,7.75,7.75,0,0,1-6.08-2.53,9.21,9.21,0,0,1-2.26-6.38,9.41,9.41,0,0,1,2.33-6.59,8.08,8.08,0,0,1,6.29-2.57A7.91,7.91,0,0,1,187,40.13,9.11,9.11,0,0,1,189.25,46.48Zm-4,.12a7.79,7.79,0,0,0-1-4.11,3.8,3.8,0,0,0-3.46-2.07,3.86,3.86,0,0,0-3.53,2.07,7.94,7.94,0,0,0-1,4.18,7.78,7.78,0,0,0,1,4.11,3.93,3.93,0,0,0,7,0A7.82,7.82,0,0,0,185.25,46.6Z"/><path class="cls-2" d="M201.76,41.34a6.68,6.68,0,0,0-1.21-.11,3.64,3.64,0,0,0-3.14,1.53,5.77,5.77,0,0,0-1,3.42v9.09H192.6l0-11.87q0-3-.14-5.46h3.35l.14,3.32h.11A5.93,5.93,0,0,1,198,38.53a4.66,4.66,0,0,1,2.78-.93,6.18,6.18,0,0,1,1,.07Z"/><path class="cls-2" d="M219,45.8a9,9,0,0,1-.14,1.75H207.29A5,5,0,0,0,209,51.47a5.72,5.72,0,0,0,3.78,1.21,12.77,12.77,0,0,0,4.67-.82l.6,2.67a14.45,14.45,0,0,1-5.81,1.07,8.42,8.42,0,0,1-6.33-2.37,8.76,8.76,0,0,1-2.3-6.36,9.93,9.93,0,0,1,2.14-6.52,7.38,7.38,0,0,1,6.06-2.78,6.46,6.46,0,0,1,5.67,2.78A9.37,9.37,0,0,1,219,45.8Zm-3.67-1a5.23,5.23,0,0,0-.75-3,3.36,3.36,0,0,0-3.07-1.61,3.65,3.65,0,0,0-3.06,1.57,5.75,5.75,0,0,0-1.14,3h8Z"/><path class="cls-2" d="M87,16.47a5.93,5.93,0,0,1-1.91,4.8,7.6,7.6,0,0,1-5,1.49,23.3,23.3,0,0,1-2.77-.14V11a20.43,20.43,0,0,1,3.26-.25A7,7,0,0,1,85.2,12.1,5.45,5.45,0,0,1,87,16.47Zm-2,.05a4.32,4.32,0,0,0-1.09-3.17,4.31,4.31,0,0,0-3.2-1.1,8,8,0,0,0-1.52.12V21.2a10,10,0,0,0,1.28.05A4.48,4.48,0,0,0,83.79,20,4.84,4.84,0,0,0,85,16.52Z"/><path class="cls-2" d="M97.55,18.32a4.67,4.67,0,0,1-1.12,3.22,4,4,0,0,1-3.12,1.3,3.8,3.8,0,0,1-3-1.24,4.53,4.53,0,0,1-1.11-3.13,4.62,4.62,0,0,1,1.15-3.24A4,4,0,0,1,93.45,14a3.89,3.89,0,0,1,3,1.24A4.49,4.49,0,0,1,97.55,18.32Zm-2,.06a3.85,3.85,0,0,0-.51-2,1.87,1.87,0,0,0-1.7-1,1.9,1.9,0,0,0-1.74,1,3.9,3.9,0,0,0-.51,2.05,3.85,3.85,0,0,0,.51,2,1.91,1.91,0,0,0,1.72,1,1.89,1.89,0,0,0,1.7-1A3.83,3.83,0,0,0,95.58,18.38Z"/><path class="cls-2" d="M111.73,14.14l-2.66,8.51h-1.73l-1.1-3.7a27.67,27.67,0,0,1-.68-2.75h0a20.13,20.13,0,0,1-.68,2.75l-1.17,3.7H101.9l-2.5-8.51h1.94l1,4q.35,1.44.58,2.73h0q.21-1.07.7-2.71l1.21-4.06h1.54l1.16,4q.42,1.45.68,2.8h.05a26.78,26.78,0,0,1,.58-2.8l1-4h1.86Z"/><path class="cls-2" d="M121.54,22.65h-1.89V17.77q0-2.25-1.72-2.25a1.71,1.71,0,0,0-1.37.62A2.2,2.2,0,0,0,116,17.6v5h-1.89V16.57q0-1.12-.07-2.44h1.66l.09,1.33h.05a2.73,2.73,0,0,1,1-1,3.2,3.2,0,0,1,1.72-.48,2.72,2.72,0,0,1,2,.77,3.75,3.75,0,0,1,1,2.82Z"/><path class="cls-2" d="M126.76,22.65h-1.89V10.23h1.89Z"/><path class="cls-2" d="M137.91,18.32a4.67,4.67,0,0,1-1.12,3.22,4,4,0,0,1-3.12,1.3,3.8,3.8,0,0,1-3-1.24,4.53,4.53,0,0,1-1.11-3.13,4.62,4.62,0,0,1,1.15-3.24A4,4,0,0,1,133.8,14a3.9,3.9,0,0,1,3,1.24A4.49,4.49,0,0,1,137.91,18.32Zm-2,.06a3.85,3.85,0,0,0-.51-2,1.87,1.87,0,0,0-1.7-1,1.89,1.89,0,0,0-1.74,1,3.9,3.9,0,0,0-.51,2.05,3.85,3.85,0,0,0,.51,2,1.91,1.91,0,0,0,1.72,1,1.89,1.89,0,0,0,1.7-1A3.81,3.81,0,0,0,135.94,18.38Z"/><path class="cls-2" d="M147.06,22.65h-1.7l-.14-1h-.05a2.91,2.91,0,0,1-2.49,1.17,2.57,2.57,0,0,1-1.94-.77,2.42,2.42,0,0,1-.67-1.73A2.64,2.64,0,0,1,141.38,18a6.78,6.78,0,0,1,3.67-.81V17q0-1.68-1.77-1.68a4,4,0,0,0-2.22.63l-.38-1.24A5.46,5.46,0,0,1,143.6,14q3.34,0,3.34,3.52v3.13A13.3,13.3,0,0,0,147.06,22.65Zm-2-2.93V18.41Q142,18.36,142,20.13a1.28,1.28,0,0,0,.36,1,1.32,1.32,0,0,0,.92.33,1.91,1.91,0,0,0,1.16-.39,1.62,1.62,0,0,0,.69-1.34Z"/><path class="cls-2" d="M157.82,22.65h-1.68L156,21.28H156a2.83,2.83,0,0,1-2.73,1.56,3.2,3.2,0,0,1-2.56-1.21,4.71,4.71,0,0,1-1-3.13,4.94,4.94,0,0,1,1.1-3.35A3.39,3.39,0,0,1,153.42,14a2.55,2.55,0,0,1,2.4,1.16h0V10.23h1.89V20.36Q157.75,21.6,157.82,22.65Zm-2-3.59V17.64a2.79,2.79,0,0,0-.05-.6,2.16,2.16,0,0,0-.68-1.15,1.86,1.86,0,0,0-1.27-.46,1.94,1.94,0,0,0-1.66.84,3.61,3.61,0,0,0-.61,2.15,3.36,3.36,0,0,0,.58,2,2,2,0,0,0,1.65.84,1.82,1.82,0,0,0,1.5-.7A2.33,2.33,0,0,0,155.86,19.06Z"/><path class="cls-2" d="M174,18.32a4.67,4.67,0,0,1-1.12,3.22,4,4,0,0,1-3.12,1.3,3.81,3.81,0,0,1-3-1.24,4.53,4.53,0,0,1-1.11-3.13,4.62,4.62,0,0,1,1.15-3.24A4,4,0,0,1,169.91,14a3.89,3.89,0,0,1,3,1.24A4.49,4.49,0,0,1,174,18.32Zm-2,.06a3.85,3.85,0,0,0-.51-2,1.87,1.87,0,0,0-1.7-1,1.9,1.9,0,0,0-1.74,1,3.9,3.9,0,0,0-.51,2.05,3.85,3.85,0,0,0,.51,2,1.93,1.93,0,0,0,3.42,0A3.84,3.84,0,0,0,172,18.38Z"/><path class="cls-2" d="M184.18,22.65h-1.89V17.77q0-2.25-1.72-2.25a1.7,1.7,0,0,0-1.37.62,2.19,2.19,0,0,0-.53,1.46v5h-1.89V16.57q0-1.12-.07-2.44h1.66l.09,1.33h.05a2.76,2.76,0,0,1,1-1,3.2,3.2,0,0,1,1.72-.48,2.72,2.72,0,0,1,2,.77,3.74,3.74,0,0,1,1,2.82Z"/><path class="cls-2" d="M196.91,15.56h-2.08v4.14c0,1.05.37,1.58,1.1,1.58a3.33,3.33,0,0,0,.84-.09l0,1.44a4.25,4.25,0,0,1-1.47.21,2.26,2.26,0,0,1-1.75-.68,3.34,3.34,0,0,1-.63-2.3V15.56h-1.24V14.14H193V12.58l1.85-.56v2.12h2.08v1.42Z"/><path class="cls-2" d="M206.93,22.65H205V17.81q0-2.29-1.71-2.29a1.81,1.81,0,0,0-1.81,1.33,2.38,2.38,0,0,0-.09.68v5.12h-1.89V10.23h1.89v5.13h0A2.86,2.86,0,0,1,204,14a2.64,2.64,0,0,1,1.95.77,3.88,3.88,0,0,1,1,2.85Z"/><path class="cls-2" d="M217.27,18a4.57,4.57,0,0,1-.07.86h-5.68a2.48,2.48,0,0,0,.82,1.93,2.82,2.82,0,0,0,1.86.6,6.27,6.27,0,0,0,2.3-.4l.3,1.31a7.13,7.13,0,0,1-2.86.53,4.13,4.13,0,0,1-3.11-1.16,4.29,4.29,0,0,1-1.13-3.13,4.87,4.87,0,0,1,1.05-3.21,3.62,3.62,0,0,1,3-1.37,3.17,3.17,0,0,1,2.78,1.37A4.54,4.54,0,0,1,217.27,18Zm-1.81-.49A2.55,2.55,0,0,0,215.1,16a1.65,1.65,0,0,0-1.51-.79,1.8,1.8,0,0,0-1.51.77,2.86,2.86,0,0,0-.56,1.47Z"/></g></g></svg>