<svg xmlns="http://www.w3.org/2000/svg" viewBox="0 0 250.44 69"><defs><style>.cls-1{fill:#1e0037;}.cls-2{fill:#fff;}</style></defs><title>ps4</title><g id="Layer_2" data-name="Layer 2"><g id="maininfo"><path class="cls-1" d="M250.44,62.08A6.92,6.92,0,0,1,243.51,69H6.93A6.92,6.92,0,0,1,0,62.08V6.93A6.93,6.93,0,0,1,6.93,0H243.51a6.92,6.92,0,0,1,6.92,6.93V62.08Z"/><polygon class="cls-2" points="226.4 45.94 225.37 45.94 225.37 45.56 227.75 45.56 227.75 45.94 226.78 45.94 226.78 48.64 226.4 48.64 226.4 45.94"/><polygon class="cls-2" points="229.41 48.64 228.58 46.14 228.58 48.64 228.13 48.64 228.13 45.56 228.71 45.56 229.61 48.19 230.44 45.56 231.02 45.56 231.02 48.64 230.63 48.64 230.63 46.14 229.8 48.64 229.41 48.64"/><path class="cls-2" d="M180.22,21.51H162.45c-5.13,0-7.7,3.14-7.7,7.31V41.39c0,2.57-1.22,4.43-3.78,4.43H134.29a.17.17,0,0,0-.19.19v2.5a.17.17,0,0,0,.19.19h18.6c5.13,0,7.7-3.14,7.7-7.31V28.75c0-2.57,1.22-4.43,3.78-4.43h15.84a.17.17,0,0,0,.19-.19v-2.5c0-.06-.13-.13-.19-.13"/><path class="cls-2" d="M127.75,21.51H95.61a.17.17,0,0,0-.19.19v2.5a.17.17,0,0,0,.19.19h30.21c2.57,0,3.78,1.86,3.78,4.43s-1.22,4.43-3.78,4.43H102c-3.72,0-6.48,3.14-6.48,7.25v8a.17.17,0,0,0,.19.19h5.45a.17.17,0,0,0,.19-.19V40.43c0-2.57,1.48-4.36,3.59-4.36h22.9c5.13,0,7.7-3.14,7.7-7.31s-2.63-7.25-7.76-7.25"/><path class="cls-2" d="M222.29,42.8h-5.45a.17.17,0,0,1-.19-.19V24.39c0-2.82-1.92-3.72-4.68-2.05L179.25,42.42c-1.28.77-1.73,1.67-1.41,2.31s1,1,2.37,1h30.4c.06,0,.13.06.19.13v2.57a.17.17,0,0,0,.19.19h5.45a.17.17,0,0,0,.19-.19v-2.5a.17.17,0,0,1,.19-.19h5.45a.17.17,0,0,0,.19-.19V43a.2.2,0,0,0-.19-.19m-11.42-.19a.17.17,0,0,1-.19.19H185.22c-.19,0-.32-.06-.32-.13s.06-.19.19-.32l25.34-15.59a.27.27,0,0,1,.45.26Z"/><path class="cls-2" d="M40.77,11.05V52.17l9.3,3V20.61c0-1.6.71-2.69,1.86-2.31,1.54.45,1.8,1.92,1.8,3.53V35.62c5.77,2.82,10.33,0,10.33-7.38,0-7.57-2.69-11-10.52-13.66A98.52,98.52,0,0,0,40.77,11.05Z"/><path class="cls-2" d="M51.8,49.09l14.95-5.32c1.67-.58,2-1.48.58-1.92a10.48,10.48,0,0,0-5.58.26L51.8,45.62V40l.58-.19a34,34,0,0,1,6.93-1.48A29.54,29.54,0,0,1,72.2,39.91c4.36,1.41,4.87,3.4,3.78,4.81s-3.85,2.44-3.85,2.44L51.8,54.48Z"/><path class="cls-2" d="M23.71,48.51c-4.49-1.28-5.26-3.91-3.21-5.45a21.77,21.77,0,0,1,5.13-2.44L39,35.87v5.39l-9.62,3.46c-1.67.58-1.92,1.48-.58,1.92a10.46,10.46,0,0,0,5.58-.26L39,44.73v4.81a5,5,0,0,1-.9.13,29.9,29.9,0,0,1-14.37-1.15"/><path class="cls-2" d="M71.24,52.87a1.75,1.75,0,1,1,.51,1.28A2,2,0,0,1,71.24,52.87ZM73,55.05a2.19,2.19,0,0,0,2.18-2.18,2.37,2.37,0,0,0-.64-1.54A2,2,0,0,0,73,50.69a2.16,2.16,0,0,0-2.18,2.18A2.19,2.19,0,0,0,73,55.05"/><path class="cls-2" d="M73.61,52.29c0,.13-.06.26-.13.26a.48.48,0,0,1-.32.06h-.64v-.71h.71a.39.39,0,0,1,.26.06A.49.49,0,0,1,73.61,52.29Zm.51,1.54a.22.22,0,0,1-.06-.13v-.51a.48.48,0,0,0-.06-.32l-.13-.13.19-.19a.69.69,0,0,0,.06-.38.52.52,0,0,0-.38-.58,1,1,0,0,0-.45-.06H72.13V54h.45V53h.64c.13,0,.19,0,.26.06a.33.33,0,0,1,.13.26V54h.45V53.9l.06-.06h0"/></g></g></svg>