<svg xmlns="http://www.w3.org/2000/svg" viewBox="0 0 197.89 69"><defs><style>.cls-1,.cls-3{fill:#1e0037;}.cls-2{fill:#fff;}.cls-3{stroke:#fff;stroke-miterlimit:10;}</style></defs><title>steam</title><g id="Layer_2" data-name="Layer 2"><g id="maininfo"><path class="cls-1" d="M197.89,62.08A6.92,6.92,0,0,1,191,69H6.93A6.92,6.92,0,0,1,0,62.08V6.93A6.93,6.93,0,0,1,6.93,0H191a6.92,6.92,0,0,1,6.92,6.93V62.08Z"/><g id="text"><g id="g2278"><path id="text2236" class="cls-2" d="M161.44,25.6h4.86l3.37,9.63,3.39-9.63h4.85v18h-3.61V30.43l-3.41,9.71h-2.42l-3.41-9.71V43.6h-3.62v-18"/><path id="text2258" class="cls-2" d="M150.07,40.32h-6l-1,3.28h-3.87l5.53-18h4.59l5.53,18H151l-.94-3.28M145,37h4.09l-2-7.16L145,37"/><path id="text2262" class="cls-2" d="M121.88,25.59h11.48V29.1h-7.22v3.35h6.79V36h-6.79V40.1h7.47v3.51H121.88v-18"/><path id="text2266" class="cls-2" d="M101.4,25.59h13.06V29.1h-4.7V43.6H106.1V29.1H101.4V25.59"/><path id="text2270" class="cls-2" d="M96.13,26.09v3.75a15.26,15.26,0,0,0-2.74-1,10.47,10.47,0,0,0-2.52-.33,4.67,4.67,0,0,0-2.33.45,1.52,1.52,0,0,0-.75,1.4,1.35,1.35,0,0,0,.5,1.12,4.94,4.94,0,0,0,1.85.68l1.87.39a8,8,0,0,1,4,1.81,4.69,4.69,0,0,1,1.2,3.44,5.44,5.44,0,0,1-1.68,4.37,7.72,7.72,0,0,1-5.11,1.43,16.87,16.87,0,0,1-3.26-.32,19.56,19.56,0,0,1-3.27-1V38.47a16.52,16.52,0,0,0,3.15,1.37,10.41,10.41,0,0,0,2.95.45,4,4,0,0,0,2.2-.5,1.76,1.76,0,0,0,.24-2.71,5.11,5.11,0,0,0-2.07-.81l-1.7-.39A7.25,7.25,0,0,1,85,34.07a4.7,4.7,0,0,1-1.18-3.36,5.1,5.1,0,0,1,1.64-4.07,7,7,0,0,1,4.73-1.43,19.24,19.24,0,0,1,2.89.23,24.77,24.77,0,0,1,3.07.65"/></g></g><path class="cls-3" d="M21.66,40.83a25.78,25.78,0,1,0-1-9.12c-.12,1.37.53,3.69,1,9.12Z"/><path class="cls-2" d="M45,27s0,.09,0,.13l-6.31,9.16a7.16,7.16,0,0,0-4.22,1.17L20,31.67a28.63,28.63,0,0,0,1,9.2L31.45,45a7.14,7.14,0,0,0,14.11-1.75l9-6.45h.22A9.8,9.8,0,1,0,45,27ZM43.5,45.53a5.5,5.5,0,0,1-10,.27l3.19,1.32a4.06,4.06,0,0,0,3.12-7.5l-3.29-1.36a5.51,5.51,0,0,1,7,7.28m11.3-12A6.53,6.53,0,1,1,61.32,27,6.53,6.53,0,0,1,54.8,33.5M49.92,27a4.9,4.9,0,1,1,4.9,4.91A4.9,4.9,0,0,1,49.92,27Z"/></g></g></svg>