<?xml version="1.0" encoding="utf-8"?>
<!-- Generator: Adobe Illustrator 15.1.0, SVG Export Plug-In . SVG Version: 6.00 Build 0)  -->
<!DOCTYPE svg PUBLIC "-//W3C//DTD SVG 1.1//EN" "http://www.w3.org/Graphics/SVG/1.1/DTD/svg11.dtd">
<svg version="1.1" id="Layer_1" xmlns="http://www.w3.org/2000/svg" xmlns:xlink="http://www.w3.org/1999/xlink" x="0px" y="0px"
	 width="951.116px" height="733.516px" viewBox="0 0 951.116 733.516" enable-background="new 0 0 951.116 733.516"
	 xml:space="preserve">
<rect y="1.298" fill="#FFFFFF" width="951.116" height="733.702"/>
<g>
	<g>
		<g>
			<g>
				<path fill="#52845E" d="M177.117,688.973c-44.539,0-80.774-36.232-80.774-80.772V333.2c0-44.539,36.235-80.774,80.774-80.774
					h680.581c44.538,0,80.773,36.235,80.773,80.774v275.001c0,44.54-36.235,80.772-80.773,80.772H177.117z"/>
			</g>
			<g>
				<path fill="#52845E" d="M857.698,263.774c38.341,0,69.425,31.085,69.425,69.426v275.001c0,38.342-31.083,69.428-69.425,69.428
					H177.117c-38.343,0-69.425-31.086-69.425-69.428V333.2c0-38.341,31.082-69.426,69.425-69.426H857.698 M857.698,241.078H177.117
					c-12.426,0-24.493,2.439-35.866,7.25c-10.972,4.642-20.821,11.28-29.274,19.733c-8.453,8.453-15.092,18.302-19.733,29.274
					c-4.81,11.372-7.248,23.439-7.248,35.865v275.001c0,12.428,2.438,24.494,7.248,35.865c4.642,10.974,11.281,20.823,19.733,29.274
					c8.454,8.455,18.302,15.092,29.274,19.734c11.373,4.809,23.44,7.247,35.866,7.247h680.581c12.426,0,24.492-2.438,35.864-7.247
					c10.972-4.643,20.822-11.279,29.274-19.734c8.453-8.451,15.092-18.301,19.734-29.274c4.809-11.371,7.249-23.438,7.249-35.865
					V333.2c0-12.426-2.439-24.493-7.249-35.865c-4.642-10.972-11.281-20.822-19.734-29.274
					c-8.453-8.453-18.303-15.091-29.274-19.733C882.19,243.517,870.124,241.078,857.698,241.078L857.698,241.078z"/>
			</g>
		</g>
		<g>
			<g>
				<path fill="#7DA886" d="M177.117,688.973c-44.539,0-80.774-36.232-80.774-80.772v-11.347h842.128v11.347
					c0,44.54-36.235,80.772-80.773,80.772H177.117z"/>
			</g>
			<g>
				<path fill="#7DA886" d="M927.123,608.201c0,38.342-31.083,69.428-69.425,69.428H177.117c-38.343,0-69.425-31.086-69.425-69.428
					H927.123 M949.819,585.502h-22.696H107.692H84.996v22.698c0,12.428,2.438,24.494,7.248,35.865
					c4.642,10.974,11.281,20.823,19.733,29.274c8.454,8.455,18.302,15.092,29.274,19.734c11.373,4.809,23.44,7.247,35.866,7.247
					h680.581c12.426,0,24.492-2.438,35.864-7.247c10.972-4.643,20.822-11.279,29.274-19.734
					c8.453-8.451,15.092-18.301,19.734-29.274c4.809-11.371,7.249-23.438,7.249-35.865V585.502L949.819,585.502z"/>
			</g>
		</g>
		<g>
			<path d="M712.824,405.877c0,47.038-38.132,85.17-85.172,85.17H407.16c-47.039,0-85.17-38.133-85.17-85.17l0,0
				c0-47.041,38.132-85.173,85.17-85.173h220.492C674.692,320.704,712.824,358.836,712.824,405.877L712.824,405.877z"/>
			<path fill="#1A2636" d="M627.652,497.721H407.16c-50.645,0-91.845-41.201-91.845-91.844c0-50.646,41.2-91.848,91.845-91.848
				h220.492c50.645,0,91.847,41.202,91.847,91.848C719.499,456.52,678.296,497.721,627.652,497.721z M407.16,327.38
				c-43.282,0-78.494,35.212-78.494,78.497c0,43.281,35.212,78.496,78.494,78.496h220.492c43.283,0,78.497-35.215,78.497-78.496
				c0-43.285-35.213-78.497-78.497-78.497H407.16z"/>
		</g>
		<g>
			<path fill="#FDD842" d="M660.295,405.877c0-19.644-15.922-35.569-35.567-35.569H410.086c-19.644,0-35.568,15.925-35.568,35.569
				l0,0c0,19.641,15.924,35.565,35.568,35.565h214.642C644.373,441.442,660.295,425.518,660.295,405.877L660.295,405.877z"/>
		</g>
		<g>
			<path fill="#F54D06" d="M641.202,405.877c0-11.513-9.333-20.847-20.845-20.847H414.455c-11.511,0-20.843,9.334-20.843,20.847l0,0
				c0,11.51,9.333,20.842,20.843,20.842h205.902C631.869,426.719,641.202,417.387,641.202,405.877L641.202,405.877z"/>
		</g>
		<g>
			<g>
				<path d="M209.853,676.385c-13.987,0-25.367-11.379-25.367-25.367v-16.02c0-13.987,11.38-25.365,25.367-25.365H824.96
					c13.988,0,25.368,11.378,25.368,25.365v16.02c0,13.988-11.379,25.367-25.368,25.367H209.853z"/>
			</g>
			<g>
				<path fill="#1A2636" d="M824.96,616.307c10.322,0,18.691,8.366,18.691,18.691v16.02c0,10.326-8.369,18.692-18.691,18.692
					H209.853c-10.321,0-18.691-8.366-18.691-18.692v-16.02c0-10.325,8.37-18.691,18.691-18.691H824.96 M824.96,602.956H209.853
					c-17.667,0-32.042,14.375-32.042,32.043v16.02c0,17.669,14.375,32.045,32.042,32.045H824.96
					c17.669,0,32.043-14.376,32.043-32.045v-16.02C857.003,617.331,842.629,602.956,824.96,602.956L824.96,602.956z"/>
			</g>
		</g>
		<g>
			<path fill="#1A2636" d="M571.855,540.77c0,16.172-13.112,29.285-29.288,29.285h-50.589c-16.175,0-29.29-13.113-29.29-29.285l0,0
				c0-16.18,13.115-29.289,29.29-29.289h50.589C558.743,511.481,571.855,524.59,571.855,540.77L571.855,540.77z"/>
		</g>
		<g>
			<g>
				<path d="M510.262,548.704c0,5.477-4.441,9.918-9.918,9.918l0,0c-5.478,0-9.919-4.441-9.919-9.918v-15.869
					c0-5.479,4.441-9.922,9.919-9.922l0,0c5.477,0,9.918,4.442,9.918,9.922V548.704z"/>
			</g>
			<g>
				<path d="M544.117,548.704c0,5.477-4.44,9.918-9.918,9.918l0,0c-5.478,0-9.918-4.441-9.918-9.918v-15.869
					c0-5.479,4.44-9.922,9.918-9.922l0,0c5.478,0,9.918,4.442,9.918,9.922V548.704z"/>
			</g>
		</g>
		<g>
			<g>
				<path fill="#FDD842" d="M239.473,616.434v19.586c0,7.532-6.106,13.637-13.637,13.637l0,0c-7.53,0-13.636-6.104-13.636-13.637
					v-19.586"/>
			</g>
			<g>
				<path fill="#FDD842" d="M312.366,616.434v19.586c0,7.532-6.106,13.637-13.636,13.637l0,0c-7.532,0-13.638-6.104-13.638-13.637
					v-19.586"/>
			</g>
			<g>
				<path fill="#FDD842" d="M385.258,616.434v19.586c0,7.532-6.106,13.637-13.637,13.637l0,0c-7.531,0-13.636-6.104-13.636-13.637
					v-19.586"/>
			</g>
			<g>
				<path fill="#FDD842" d="M458.151,616.434v19.586c0,7.532-6.106,13.637-13.637,13.637l0,0c-7.53,0-13.636-6.104-13.636-13.637
					v-19.586"/>
			</g>
			<g>
				<path fill="#FDD842" d="M531.043,616.434v19.586c0,7.532-6.105,13.637-13.637,13.637l0,0c-7.53,0-13.637-6.104-13.637-13.637
					v-19.586"/>
			</g>
			<g>
				<path fill="#FDD842" d="M603.936,616.434v19.586c0,7.532-6.106,13.637-13.636,13.637l0,0c-7.531,0-13.637-6.104-13.637-13.637
					v-19.586"/>
			</g>
			<g>
				<path fill="#FDD842" d="M676.829,616.434v19.586c0,7.532-6.105,13.637-13.636,13.637l0,0c-7.531,0-13.637-6.104-13.637-13.637
					v-19.586"/>
			</g>
			<g>
				<path fill="#FDD842" d="M749.723,616.434v19.586c0,7.532-6.107,13.637-13.638,13.637l0,0c-7.53,0-13.635-6.104-13.635-13.637
					v-19.586"/>
			</g>
			<g>
				<path fill="#FDD842" d="M822.614,616.434v19.586c0,7.532-6.105,13.637-13.636,13.637l0,0c-7.531,0-13.636-6.104-13.636-13.637
					v-19.586"/>
			</g>
		</g>
		<g>
			<path d="M669.562,299.723H365.253c-5.531,0-10.014-4.483-10.014-10.012c0-5.531,4.483-10.015,10.014-10.015h304.308
				c5.531,0,10.014,4.484,10.014,10.015C679.575,295.24,675.092,299.723,669.562,299.723z"/>
		</g>
		<g>
			<circle fill="#35603E" cx="173.403" cy="342.702" r="13.016"/>
		</g>
		<g>
			<circle fill="#35603E" cx="287.935" cy="289.053" r="13.016"/>
		</g>
		<g>
			<circle fill="#35603E" cx="831.599" cy="320.704" r="13.016"/>
		</g>
		<g>
			<circle fill="#7DA886" cx="217.757" cy="406.597" r="7.913"/>
		</g>
		<g>
			<circle fill="#35603E" cx="779.145" cy="370.311" r="7.912"/>
		</g>
		<g>
			<circle fill="#35603E" cx="906.936" cy="328.618" r="7.913"/>
		</g>
		<g>
			<circle fill="#7DA886" cx="775.662" cy="296.967" r="7.913"/>
		</g>
		<g>
			<circle fill="#7DA886" cx="738.702" cy="312.516" r="3.867"/>
		</g>
		<g>
			<circle fill="#7DA886" cx="818.047" cy="276.037" r="3.868"/>
		</g>
		<g>
			<circle fill="#7DA886" cx="818.047" cy="370.311" r="3.868"/>
		</g>
		<g>
			<circle fill="#7DA886" cx="875.531" cy="421.502" r="3.867"/>
		</g>
		<g>
			<path fill="#7DA886" d="M310.805,328.617c0,2.135-1.732,3.866-3.869,3.866s-3.869-1.731-3.869-3.866
				c0-2.138,1.732-3.869,3.869-3.869S310.805,326.479,310.805,328.617z"/>
		</g>
		<g>
			<circle fill="#7DA886" cx="209.846" cy="355.718" r="3.867"/>
		</g>
		<g>
			<circle fill="#35603E" cx="107.691" cy="354.484" r="3.867"/>
		</g>
		<g>
			<circle fill="#7DA886" cx="236.173" cy="272.169" r="3.869"/>
		</g>
		<g>
			<circle fill="#35603E" cx="728.111" cy="263.776" r="3.868"/>
		</g>
		<g>
			<circle fill="#7DA886" cx="749.33" cy="405.877" r="3.868"/>
		</g>
		<g>
			<circle fill="#7DA886" cx="147.345" cy="390.249" r="7.913"/>
		</g>
		<g>
			<circle fill="#7DA886" cx="246.368" cy="320.705" r="7.913"/>
		</g>
		<g>
			<circle fill="#35603E" cx="266.21" cy="362.396" r="7.912"/>
		</g>
		<g>
			<circle fill="#35603E" cx="197.367" cy="289.054" r="7.913"/>
		</g>
		<g>
			<circle fill="#7DA886" cx="859.706" cy="378.222" r="7.913"/>
		</g>
		<g>
			<circle fill="#35603E" cx="896.094" cy="390.249" r="7.913"/>
		</g>
		<g>
			<circle fill="#7DA886" cx="867.618" cy="276.039" r="7.912"/>
		</g>
		<g>
			<circle fill="#7DA886" cx="803.964" cy="415.445" r="7.913"/>
		</g>
		<g>
			<circle fill="#7DA886" cx="139.434" cy="304.878" r="7.913"/>
		</g>
		<g>
			<path fill="#FFFFFF" d="M554.813,406.039c0,3.053-2.476,5.528-5.532,5.528h-63.704c-3.054,0-5.529-2.476-5.529-5.528l0,0
				c0-3.055,2.475-5.53,5.529-5.53h63.704C552.337,400.509,554.813,402.984,554.813,406.039L554.813,406.039z"/>
		</g>
	</g>
	<g>
		<g>
			<path fill="#52845E" d="M177.117,688.973c-44.539,0-80.774-36.232-80.774-80.772V333.2c0-44.539,36.235-80.774,80.774-80.774
				h680.581c44.538,0,80.773,36.235,80.773,80.774v275.001c0,44.54-36.235,80.772-80.773,80.772H177.117z"/>
		</g>
		<g>
			<path fill="#52845E" d="M857.698,263.774c38.341,0,69.425,31.085,69.425,69.426v275.001c0,38.342-31.083,69.428-69.425,69.428
				H177.117c-38.343,0-69.425-31.086-69.425-69.428V333.2c0-38.341,31.082-69.426,69.425-69.426H857.698 M857.698,241.078H177.117
				c-12.426,0-24.493,2.439-35.866,7.25c-10.972,4.642-20.821,11.28-29.274,19.733c-8.453,8.453-15.092,18.302-19.733,29.274
				c-4.81,11.372-7.248,23.439-7.248,35.865v275.001c0,12.428,2.438,24.494,7.248,35.865c4.642,10.974,11.281,20.823,19.733,29.274
				c8.454,8.455,18.302,15.092,29.274,19.734c11.373,4.809,23.44,7.247,35.866,7.247h680.581c12.426,0,24.492-2.438,35.864-7.247
				c10.972-4.643,20.822-11.279,29.274-19.734c8.453-8.451,15.092-18.301,19.734-29.274c4.809-11.371,7.249-23.438,7.249-35.865
				V333.2c0-12.426-2.439-24.493-7.249-35.865c-4.642-10.972-11.281-20.822-19.734-29.274c-8.453-8.453-18.303-15.091-29.274-19.733
				C882.19,243.517,870.124,241.078,857.698,241.078L857.698,241.078z"/>
		</g>
	</g>
	<g>
		<g>
			<path fill="#7DA886" d="M177.117,688.973c-44.539,0-80.774-36.232-80.774-80.772v-11.347h842.128v11.347
				c0,44.54-36.235,80.772-80.773,80.772H177.117z"/>
		</g>
		<g>
			<path fill="#7DA886" d="M927.123,608.201c0,38.342-31.083,69.428-69.425,69.428H177.117c-38.343,0-69.425-31.086-69.425-69.428
				H927.123 M949.819,585.502h-22.696H107.692H84.996v22.698c0,12.428,2.438,24.494,7.248,35.865
				c4.642,10.974,11.281,20.823,19.733,29.274c8.454,8.455,18.302,15.092,29.274,19.734c11.373,4.809,23.44,7.247,35.866,7.247
				h680.581c12.426,0,24.492-2.438,35.864-7.247c10.972-4.643,20.822-11.279,29.274-19.734c8.453-8.451,15.092-18.301,19.734-29.274
				c4.809-11.371,7.249-23.438,7.249-35.865V585.502L949.819,585.502z"/>
		</g>
	</g>
	<g>
		<path d="M712.824,405.877c0,47.038-38.132,85.17-85.172,85.17H407.16c-47.039,0-85.17-38.133-85.17-85.17l0,0
			c0-47.041,38.132-85.173,85.17-85.173h220.492C674.692,320.704,712.824,358.836,712.824,405.877L712.824,405.877z"/>
		<path fill="#1A2636" d="M627.652,497.721H407.16c-50.645,0-91.845-41.201-91.845-91.844c0-50.646,41.2-91.848,91.845-91.848
			h220.492c50.645,0,91.847,41.202,91.847,91.848C719.499,456.52,678.296,497.721,627.652,497.721z M407.16,327.38
			c-43.282,0-78.494,35.212-78.494,78.497c0,43.281,35.212,78.496,78.494,78.496h220.492c43.283,0,78.497-35.215,78.497-78.496
			c0-43.285-35.213-78.497-78.497-78.497H407.16z"/>
	</g>
	<g>
		<path fill="#7DA886" d="M627.652,528.43c-1.474,0-2.669-1.197-2.669-2.67c0-1.475,1.195-2.672,2.669-2.672
			c64.632,0,117.213-52.58,117.213-117.211c0-1.476,1.196-2.671,2.671-2.671s2.67,1.195,2.67,2.671
			C750.206,473.452,695.229,528.43,627.652,528.43z"/>
	</g>
	<g>
		<path fill="#7DA886" d="M407.16,528.43c-67.575,0-122.553-54.979-122.553-122.553c0-1.476,1.195-2.671,2.671-2.671
			c1.475,0,2.669,1.195,2.669,2.671c0,64.631,52.582,117.211,117.213,117.211c1.476,0,2.67,1.197,2.67,2.672
			C409.831,527.233,408.636,528.43,407.16,528.43z"/>
	</g>
	<g>
		<path fill="#FDD842" d="M660.295,405.877c0-19.644-15.922-35.569-35.567-35.569H410.086c-19.644,0-35.568,15.925-35.568,35.569
			l0,0c0,19.641,15.924,35.565,35.568,35.565h214.642C644.373,441.442,660.295,425.518,660.295,405.877L660.295,405.877z"/>
	</g>
	<g>
		<path fill="#F54D06" d="M641.202,405.877c0-11.513-9.333-20.847-20.845-20.847H414.455c-11.511,0-20.843,9.334-20.843,20.847l0,0
			c0,11.51,9.333,20.842,20.843,20.842h205.902C631.869,426.719,641.202,417.387,641.202,405.877L641.202,405.877z"/>
	</g>
	<g>
		<g>
			<path d="M209.853,676.385c-13.987,0-25.367-11.379-25.367-25.367v-16.02c0-13.987,11.38-25.365,25.367-25.365H824.96
				c13.988,0,25.368,11.378,25.368,25.365v16.02c0,13.988-11.379,25.367-25.368,25.367H209.853z"/>
		</g>
		<g>
			<path fill="#1A2636" d="M824.96,616.307c10.322,0,18.691,8.366,18.691,18.691v16.02c0,10.326-8.369,18.692-18.691,18.692H209.853
				c-10.321,0-18.691-8.366-18.691-18.692v-16.02c0-10.325,8.37-18.691,18.691-18.691H824.96 M824.96,602.956H209.853
				c-17.667,0-32.042,14.375-32.042,32.043v16.02c0,17.669,14.375,32.045,32.042,32.045H824.96
				c17.669,0,32.043-14.376,32.043-32.045v-16.02C857.003,617.331,842.629,602.956,824.96,602.956L824.96,602.956z"/>
		</g>
	</g>
	<g>
		<path fill="#1A2636" d="M571.855,540.77c0,16.172-13.112,29.285-29.288,29.285h-50.589c-16.175,0-29.29-13.113-29.29-29.285l0,0
			c0-16.18,13.115-29.289,29.29-29.289h50.589C558.743,511.481,571.855,524.59,571.855,540.77L571.855,540.77z"/>
	</g>
	<g>
		<g>
			<path d="M511.697,547.079c0,4.354-3.531,7.888-7.888,7.888l0,0c-4.356,0-7.89-3.533-7.89-7.888v-12.62
				c0-4.356,3.534-7.89,7.89-7.89l0,0c4.356,0,7.888,3.533,7.888,7.89V547.079z"/>
		</g>
		<g>
			<path d="M538.621,547.079c0,4.354-3.53,7.888-7.888,7.888l0,0c-4.355,0-7.888-3.533-7.888-7.888v-12.62
				c0-4.356,3.533-7.89,7.888-7.89l0,0c4.358,0,7.888,3.533,7.888,7.89V547.079z"/>
		</g>
	</g>
	<g>
		<g>
			<path fill="#FDD842" d="M239.473,616.434v14.243c0,7.531-6.106,13.636-13.637,13.636l0,0c-7.53,0-13.636-6.104-13.636-13.636
				v-14.243"/>
		</g>
		<g>
			<path fill="#FDD842" d="M312.366,616.434v14.243c0,7.531-6.106,13.636-13.636,13.636l0,0c-7.532,0-13.638-6.104-13.638-13.636
				v-14.243"/>
		</g>
		<g>
			<path fill="#FDD842" d="M385.258,616.434v14.243c0,7.531-6.106,13.636-13.637,13.636l0,0c-7.531,0-13.636-6.104-13.636-13.636
				v-14.243"/>
		</g>
		<g>
			<path fill="#FDD842" d="M458.151,616.434v14.243c0,7.531-6.106,13.636-13.637,13.636l0,0c-7.53,0-13.636-6.104-13.636-13.636
				v-14.243"/>
		</g>
		<g>
			<path fill="#FDD842" d="M531.043,616.434v14.243c0,7.531-6.105,13.636-13.637,13.636l0,0c-7.53,0-13.637-6.104-13.637-13.636
				v-14.243"/>
		</g>
		<g>
			<path fill="#FDD842" d="M603.936,616.434v14.243c0,7.531-6.106,13.636-13.636,13.636l0,0c-7.531,0-13.637-6.104-13.637-13.636
				v-14.243"/>
		</g>
		<g>
			<path fill="#FDD842" d="M676.829,616.434v14.243c0,7.531-6.105,13.636-13.636,13.636l0,0c-7.531,0-13.637-6.104-13.637-13.636
				v-14.243"/>
		</g>
		<g>
			<path fill="#FDD842" d="M749.723,616.434v14.243c0,7.531-6.107,13.636-13.638,13.636l0,0c-7.53,0-13.635-6.104-13.635-13.636
				v-14.243"/>
		</g>
		<g>
			<path fill="#FDD842" d="M822.614,616.434v14.243c0,7.531-6.105,13.636-13.636,13.636l0,0c-7.531,0-13.636-6.104-13.636-13.636
				v-14.243"/>
		</g>
	</g>
	<g>
		<path fill="#35603E" d="M593.495,292.879c-11.197,0-17.08-2.379-22.271-4.479c-4.438-1.795-7.944-3.212-15.765-3.212
			c-7.823,0-11.328,1.417-15.767,3.212c-5.191,2.1-11.074,4.479-22.271,4.479c-11.197,0-17.083-2.379-22.273-4.479
			c-4.438-1.795-7.944-3.212-15.767-3.212c-7.821,0-11.327,1.417-15.766,3.212c-5.192,2.1-11.075,4.479-22.273,4.479
			c-11.199,0-17.083-2.379-22.274-4.478c-4.439-1.796-7.947-3.213-15.769-3.213c-7.825,0-11.332,1.417-15.772,3.212
			c-0.685,0.277-1.371,0.555-2.07,0.827c-4.466,1.738-9.497-0.473-11.235-4.938c-1.739-4.465,0.473-9.497,4.939-11.235
			c0.628-0.244,1.245-0.495,1.862-0.744c5.192-2.099,11.075-4.478,22.276-4.478c11.199,0,17.083,2.379,22.274,4.478
			c4.439,1.795,7.946,3.213,15.769,3.213s11.328-1.418,15.767-3.213c5.191-2.099,11.076-4.478,22.272-4.478
			c11.199,0,17.082,2.379,22.273,4.478c4.439,1.795,7.945,3.213,15.767,3.213c7.821,0,11.327-1.418,15.764-3.213
			c5.192-2.099,11.076-4.478,22.274-4.478c11.197,0,17.081,2.379,22.271,4.478c4.439,1.795,7.945,3.213,15.765,3.213
			c7.821,0,11.327-1.418,15.764-3.213c5.191-2.099,11.074-4.478,22.271-4.478c11.198,0,17.081,2.379,22.271,4.478
			c0.618,0.249,1.234,0.5,1.862,0.744c4.466,1.74,6.677,6.77,4.937,11.237c-1.739,4.465-6.77,6.675-11.237,4.936
			c-0.696-0.272-1.383-0.548-2.069-0.826c-4.438-1.795-7.943-3.212-15.765-3.212c-7.819,0-11.325,1.417-15.763,3.212
			C610.576,290.5,604.692,292.879,593.495,292.879z"/>
	</g>
	<g>
		<circle fill="#35603E" cx="180.311" cy="331.459" r="13.016"/>
	</g>
	<g>
		<path fill="#7DA886" d="M113.192,400.509c0-3.473,1.982-6.479,4.875-7.959c-1.222-0.627-2.603-0.987-4.07-0.987
			c-4.94,0-8.945,4.004-8.945,8.946c0,4.939,4.004,8.944,8.945,8.944c1.468,0,2.848-0.361,4.07-0.986
			C115.175,406.984,113.192,403.98,113.192,400.509z"/>
	</g>
	<g>
		<path fill="#7DA886" d="M168.527,276.037c0-3.472,1.982-6.477,4.875-7.958c-1.223-0.627-2.603-0.988-4.07-0.988
			c-4.94,0-8.945,4.005-8.945,8.946c0,4.939,4.004,8.946,8.945,8.946c1.467,0,2.848-0.362,4.07-0.988
			C170.509,282.513,168.527,279.509,168.527,276.037z"/>
	</g>
	<g>
		<path fill="#7DA886" d="M743.23,350.616c0-3.472,1.982-6.478,4.875-7.959c-1.223-0.628-2.604-0.986-4.071-0.986
			c-4.94,0-8.945,4.005-8.945,8.945c0,4.94,4.005,8.946,8.945,8.946c1.467,0,2.848-0.362,4.071-0.988
			C745.213,357.092,743.23,354.088,743.23,350.616z"/>
	</g>
	<g>
		<path fill="#7DA886" d="M900.655,296.966c0-3.472,1.984-6.478,4.875-7.958c-1.222-0.628-2.604-0.987-4.07-0.987
			c-4.94,0-8.946,4.004-8.946,8.945s4.006,8.945,8.946,8.945c1.467,0,2.848-0.361,4.07-0.986
			C902.639,303.442,900.655,300.438,900.655,296.966z"/>
	</g>
	<g>
		<circle fill="#35603E" cx="287.935" cy="289.053" r="13.016"/>
	</g>
	<g>
		<circle fill="#35603E" cx="831.599" cy="320.704" r="13.016"/>
	</g>
	<g>
		<circle fill="#7DA886" cx="217.757" cy="406.597" r="7.913"/>
	</g>
	<g>
		<circle fill="#35603E" cx="779.145" cy="370.311" r="7.912"/>
	</g>
	<g>
		<circle fill="#35603E" cx="896.094" cy="441.444" r="7.913"/>
	</g>
	<g>
		<circle fill="#35603E" cx="906.936" cy="328.618" r="7.913"/>
	</g>
	<g>
		<circle fill="#7DA886" cx="775.662" cy="289.054" r="7.913"/>
	</g>
	<g>
		<circle fill="#7DA886" cx="722.449" cy="308.646" r="3.868"/>
	</g>
	<g>
		<circle fill="#7DA886" cx="818.047" cy="276.037" r="3.868"/>
	</g>
	<g>
		<circle fill="#7DA886" cx="680.697" cy="259.909" r="3.868"/>
	</g>
	<g>
		<circle fill="#7DA886" cx="818.047" cy="370.311" r="3.868"/>
	</g>
	<g>
		<circle fill="#7DA886" cx="867.618" cy="404.375" r="3.868"/>
	</g>
	<g>
		<circle fill="#7DA886" cx="840.747" cy="479.038" r="3.868"/>
	</g>
	<g>
		<path fill="#7DA886" d="M310.805,328.617c0,2.135-1.732,3.866-3.869,3.866s-3.869-1.731-3.869-3.866
			c0-2.138,1.732-3.869,3.869-3.869S310.805,326.479,310.805,328.617z"/>
	</g>
	<g>
		<circle fill="#7DA886" cx="323.935" cy="263.776" r="3.867"/>
	</g>
	<g>
		<circle fill="#7DA886" cx="209.846" cy="355.718" r="3.867"/>
	</g>
	<g>
		<circle fill="#7DA886" cx="236.173" cy="445.309" r="3.868"/>
	</g>
	<g>
		<circle fill="#35603E" cx="107.691" cy="354.484" r="3.867"/>
	</g>
	<g>
		<circle fill="#35603E" cx="246.368" cy="398.684" r="3.868"/>
	</g>
	<g>
		<circle fill="#35603E" cx="225.671" cy="491.048" r="3.868"/>
	</g>
	<g>
		<circle fill="#52845E" cx="138.658" cy="608.201" r="3.868"/>
	</g>
	<g>
		<circle fill="#52845E" cx="147.346" cy="659.578" r="3.868"/>
	</g>
	<g>
		<circle fill="#52845E" cx="871.486" cy="612.069" r="3.868"/>
	</g>
	<g>
		<path fill="#52845E" d="M907.874,663.555c0,2.134-1.732,3.865-3.867,3.865c-2.137,0-3.869-1.731-3.869-3.865
			c0-2.139,1.732-3.87,3.869-3.87C906.142,659.685,907.874,661.417,907.874,663.555z"/>
	</g>
	<g>
		<circle fill="#52845E" cx="927.123" cy="636.53" r="3.867"/>
	</g>
	<g>
		<circle fill="#52845E" cx="122.833" cy="649.657" r="3.867"/>
	</g>
	<g>
		<circle fill="#52845E" cx="107.692" cy="630.374" r="6.158"/>
	</g>
	<g>
		<path fill="#52845E" d="M161.416,633.046c0,3.401-2.756,6.157-6.155,6.157c-3.403,0-6.16-2.756-6.16-6.157s2.756-6.158,6.16-6.158
			C158.66,626.888,161.416,629.645,161.416,633.046z"/>
	</g>
	<g>
		<circle fill="#52845E" cx="879.398" cy="669.711" r="6.157"/>
	</g>
	<g>
		<path fill="#52845E" d="M927.942,616.436c0,3.401-2.756,6.155-6.156,6.155c-3.402,0-6.159-2.754-6.159-6.155
			c0-3.402,2.756-6.158,6.159-6.158C925.186,610.278,927.942,613.034,927.942,616.436z"/>
	</g>
	<g>
		<circle fill="#52845E" cx="885.555" cy="630.374" r="6.157"/>
	</g>
	<g>
		<circle fill="#35603E" cx="844.614" cy="386.135" r="3.868"/>
	</g>
	<g>
		<circle fill="#35603E" cx="904.006" cy="503.624" r="3.868"/>
	</g>
	<g>
		<circle fill="#7DA886" cx="236.173" cy="272.169" r="3.869"/>
	</g>
	<g>
		<circle fill="#7DA886" cx="151.214" cy="441.443" r="3.868"/>
	</g>
	<g>
		<circle fill="#35603E" cx="735.089" cy="272.169" r="3.868"/>
	</g>
	<g>
		<circle fill="#7DA886" cx="927.942" cy="409.745" r="3.868"/>
	</g>
	<g>
		<circle fill="#7DA886" cx="818.047" cy="503.624" r="3.868"/>
	</g>
	<g>
		<circle fill="#7DA886" cx="147.345" cy="390.249" r="7.913"/>
	</g>
	<g>
		<circle fill="#7DA886" cx="246.368" cy="320.705" r="7.913"/>
	</g>
	<g>
		<circle fill="#35603E" cx="266.21" cy="362.396" r="7.912"/>
	</g>
	<g>
		<path fill="#35603E" d="M197.369,431.272c0,4.367-3.544,7.909-7.915,7.909c-4.37,0-7.912-3.542-7.912-7.909
			c0-4.372,3.542-7.916,7.912-7.916C193.825,423.356,197.369,426.9,197.369,431.272z"/>
	</g>
	<g>
		<circle fill="#35603E" cx="205.281" cy="288.021" r="7.912"/>
	</g>
	<g>
		<circle fill="#7DA886" cx="867.618" cy="350.617" r="7.912"/>
	</g>
	<g>
		<circle fill="#35603E" cx="896.094" cy="390.249" r="7.913"/>
	</g>
	<g>
		<circle fill="#7DA886" cx="867.618" cy="276.039" r="7.912"/>
	</g>
	<g>
		<circle fill="#7DA886" cx="803.964" cy="406.597" r="7.913"/>
	</g>
	<g>
		<circle fill="#7DA886" cx="130.746" cy="331.46" r="7.912"/>
	</g>
	<g>
		<path fill="#FFFFFF" d="M554.813,406.039c0,3.053-2.476,5.528-5.532,5.528h-63.704c-3.054,0-5.529-2.476-5.529-5.528l0,0
			c0-3.055,2.475-5.53,5.529-5.53h63.704C552.337,400.509,554.813,402.984,554.813,406.039L554.813,406.039z"/>
	</g>
	<g>
		<polygon fill="#35603E" points="180.289,392.256 182.975,386.385 178.221,382.017 184.633,382.759 187.319,376.886 
			188.598,383.214 195.012,383.955 189.387,387.126 190.666,393.455 185.912,389.086 		"/>
	</g>
	<g>
		<polygon fill="#35603E" points="274.557,267.394 268.181,266.375 265.243,272.125 264.24,265.747 257.865,264.73 263.621,261.806 
			262.619,255.426 267.18,259.998 272.935,257.076 269.997,262.823 		"/>
	</g>
	<g>
		<polygon fill="#35603E" points="143.393,292.67 137.015,291.653 134.077,297.401 133.077,291.023 126.7,290.006 132.458,287.082 
			131.456,280.704 136.015,285.275 141.771,282.352 138.833,288.1 		"/>
	</g>
	<g>
		<polygon fill="#35603E" points="786.049,343.129 783.437,337.224 777.015,337.882 781.824,333.575 779.212,327.67 
			784.797,330.913 789.605,326.604 788.247,332.917 793.83,336.16 787.407,336.818 		"/>
	</g>
	<g>
		<polygon fill="#35603E" points="919.487,377.947 919.722,371.496 913.657,369.28 919.866,367.508 920.1,361.056 923.703,366.414 
			929.913,364.642 925.93,369.725 929.533,375.082 923.469,372.866 		"/>
	</g>
	<g>
		<polygon fill="#35603E" points="834.581,441.976 834.815,435.524 828.753,433.307 834.961,431.536 835.193,425.085 
			838.798,430.442 845.006,428.67 841.023,433.752 844.627,439.11 838.563,436.893 		"/>
	</g>
	<g>
		<path fill="#7DA886" d="M442.609,528.43h-15.443c-1.475,0-2.67-1.197-2.67-2.67c0-1.475,1.195-2.672,2.67-2.672h15.443
			c1.474,0,2.669,1.197,2.669,2.672C445.278,527.233,444.083,528.43,442.609,528.43z"/>
	</g>
	<g>
		<path fill="#7DA886" d="M608.414,528.43h-15.44c-1.475,0-2.67-1.197-2.67-2.67c0-1.475,1.196-2.672,2.67-2.672h15.44
			c1.476,0,2.67,1.197,2.67,2.672C611.083,527.233,609.889,528.43,608.414,528.43z"/>
	</g>
	<g>
		<path fill="#7DA886" d="M747.536,392.673c-1.475,0-2.671-1.195-2.671-2.67v-12.056c0-1.475,1.196-2.67,2.671-2.67
			s2.67,1.195,2.67,2.67v12.056C750.206,391.478,749.011,392.673,747.536,392.673z"/>
	</g>
	<g>
		<path fill="#7DA886" d="M287.935,392.673c-1.475,0-2.671-1.195-2.671-2.67v-12.056c0-1.475,1.196-2.67,2.671-2.67
			c1.475,0,2.669,1.195,2.669,2.67v12.056C290.604,391.478,289.41,392.673,287.935,392.673z"/>
	</g>
	<g>
		<path fill="#35603E" d="M347.218,542.484c-0.3,0-0.606-0.052-0.905-0.159c-31.468-11.336-57.264-35.421-70.774-66.078
			c-0.594-1.35,0.018-2.926,1.367-3.52c1.348-0.594,2.925,0.016,3.52,1.365c12.923,29.326,37.599,52.365,67.698,63.209
			c1.386,0.498,2.106,2.027,1.606,3.416C349.339,541.807,348.313,542.484,347.218,542.484z"/>
	</g>
	<g>
		<path fill="#35603E" d="M685.36,542.484c-1.095,0-2.121-0.677-2.512-1.767c-0.5-1.389,0.219-2.918,1.606-3.416
			c30.1-10.844,54.773-33.881,67.697-63.209c0.595-1.349,2.17-1.959,3.521-1.365c1.349,0.594,1.961,2.17,1.366,3.52
			c-13.509,30.657-39.305,54.742-70.773,66.078C685.966,542.432,685.661,542.484,685.36,542.484z"/>
	</g>
</g>
</svg>
