<?xml version="1.0" encoding="utf-8"?>
<!-- Generator: Adobe Illustrator 15.1.0, SVG Export Plug-In . SVG Version: 6.00 Build 0)  -->
<!DOCTYPE svg PUBLIC "-//W3C//DTD SVG 1.1//EN" "http://www.w3.org/Graphics/SVG/1.1/DTD/svg11.dtd">
<svg version="1.1" id="Layer_1" xmlns="http://www.w3.org/2000/svg" xmlns:xlink="http://www.w3.org/1999/xlink" x="0px" y="0px"
	 width="951.116px" height="733.516px" viewBox="0 0 951.116 733.516" enable-background="new 0 0 951.116 733.516"
	 xml:space="preserve">
<rect y="1.298" fill="#FFFFFF" width="951.116" height="733.702"/>
<g>
	<g>
		<g>
			<path fill="#1A2636" d="M176.991,690.768c-44.538,0-80.771-36.234-80.771-80.771V335.002c0-44.537,36.234-80.771,80.771-80.771
				h680.562c44.537,0,80.771,36.233,80.771,80.771v274.995c0,44.537-36.233,80.771-80.771,80.771H176.991z"/>
		</g>
		<g>
			<path fill="#52845E" d="M857.553,265.58c38.341,0,69.422,31.082,69.422,69.422v274.995c0,38.34-31.082,69.423-69.422,69.423
				H176.991c-38.341,0-69.423-31.083-69.423-69.423V335.002c0-38.34,31.083-69.422,69.423-69.422H857.553 M857.553,242.883H176.991
				c-12.426,0-24.492,2.439-35.864,7.249c-10.972,4.641-20.822,11.279-29.274,19.732c-8.453,8.453-15.092,18.302-19.733,29.274
				c-4.81,11.371-7.249,23.438-7.249,35.863v274.995c0,12.426,2.439,24.492,7.249,35.863c4.641,10.973,11.28,20.822,19.733,29.274
				c8.452,8.452,18.302,15.092,29.274,19.732c11.372,4.81,23.438,7.249,35.864,7.249h680.562c12.426,0,24.492-2.439,35.864-7.249
				c10.972-4.641,20.821-11.28,29.274-19.732c8.452-8.452,15.091-18.302,19.732-29.274c4.81-11.371,7.249-23.438,7.249-35.863
				V335.002c0-12.425-2.439-24.492-7.249-35.863c-4.641-10.972-11.28-20.821-19.732-29.273
				c-8.453-8.453-18.302-15.092-29.274-19.733C882.045,245.323,869.979,242.883,857.553,242.883L857.553,242.883z"/>
		</g>
	</g>
	<g>
		<path fill="#0E151E" d="M107.568,533.158v77.808c0,38.34,31.083,69.422,69.423,69.422h680.562
			c38.341,0,69.422-31.082,69.422-69.422v-77.808H107.568z"/>
	</g>
	<g>
		<path fill="#FDD842" d="M618.358,653.195v-27.966c0-15.25-12.363-27.615-27.615-27.615H443.777
			c-15.251,0-27.616,12.365-27.616,27.615v27.966"/>
	</g>
	<g>
		<path fill="#F54D06" d="M560.157,597.571v-11.866c0-6.47-5.246-11.718-11.717-11.718h-62.36c-6.472,0-11.717,5.248-11.717,11.718
			v11.866H560.157z"/>
	</g>
	<g>
		<rect x="107.568" y="533.158" fill="#354659" width="819.408" height="10.087"/>
	</g>
	<g>
		<rect x="416.161" y="653.195" fill="#F54D06" width="15.151" height="27.791"/>
	</g>
	<g>
		<path fill="#FFFFFF" d="M437.63,678.162c0,1.56-1.265,2.824-2.823,2.824h-22.272c-1.56,0-2.823-1.265-2.823-2.824l0,0
			c0-1.558,1.263-2.821,2.823-2.821h22.272C436.365,675.34,437.63,676.604,437.63,678.162L437.63,678.162z"/>
	</g>
	<g>
		<circle fill="#FFFFFF" cx="777.8" cy="336.46" r="8.902"/>
	</g>
	<g>
		<rect x="603.139" y="653.195" fill="#F54D06" width="15.151" height="27.791"/>
	</g>
	<g>
		<path fill="#FFFFFF" d="M624.608,678.162c0,1.56-1.265,2.824-2.824,2.824h-22.271c-1.559,0-2.824-1.265-2.824-2.824l0,0
			c0-1.558,1.265-2.821,2.824-2.821h22.271C623.343,675.34,624.608,676.604,624.608,678.162L624.608,678.162z"/>
	</g>
	<g>
		<rect x="416.161" y="643.368" fill="#FFFFFF" width="202.197" height="9.827"/>
	</g>
	<g>
		<rect x="372.173" y="327.888" width="290.199" height="145.5"/>
	</g>
	<g>
		<rect x="422.749" y="430.208" fill="#0E151E" width="0.864" height="5.622"/>
	</g>
	<g>
		<rect x="425.369" y="430.208" fill="#0E151E" width="0.864" height="4.75"/>
	</g>
	<g>
		<g>
			<path fill="#0E151E" d="M404.082,355.45c0-0.855-0.693-1.549-1.549-1.549l0,0c-0.855,0-1.549,0.693-1.549,1.549v118.925
				c0,0.855,0.693,1.549,1.549,1.549l0,0c0.855,0,1.549-0.693,1.549-1.549V355.45z"/>
		</g>
		<g>
			<path fill="#0E151E" d="M426.644,435.094c0.605-0.605,0.605-1.585,0-2.191l0,0c-0.604-0.604-1.585-0.604-2.19,0l-22.961,22.96
				c-0.604,0.605-0.604,1.586,0,2.191l0,0c0.605,0.604,1.586,0.604,2.19,0L426.644,435.094z"/>
		</g>
		<g>
			<path fill="#0E151E" d="M426.644,395.628c0.605-0.605,0.605-1.585,0-2.191l0,0c-0.604-0.604-1.585-0.604-2.19,0l-22.961,22.96
				c-0.604,0.605-0.604,1.586,0,2.19l0,0c0.605,0.605,1.586,0.605,2.19,0L426.644,395.628z"/>
		</g>
		<g>
			<path fill="#0E151E" d="M417.056,365.75c0.605-0.605,0.605-1.586,0-2.191l0,0c-0.605-0.605-1.586-0.605-2.19,0l-13.373,13.372
				c-0.604,0.605-0.604,1.586,0,2.191l0,0c0.605,0.604,1.586,0.604,2.19,0L417.056,365.75z"/>
		</g>
		<g>
			<path fill="#0E151E" d="M385.236,386.519c-0.604-0.605-0.604-1.585,0-2.191l0,0c0.605-0.604,1.586-0.604,2.19,0l16.337,16.337
				c0.604,0.605,0.604,1.586,0,2.191l0,0c-0.605,0.604-1.586,0.604-2.19,0L385.236,386.519z"/>
		</g>
		<g>
			<path fill="#0E151E" d="M385.658,424.603c-0.605-0.605-0.605-1.585,0-2.19l0,0c0.604-0.605,1.585-0.605,2.19,0l15.916,15.915
				c0.604,0.605,0.604,1.586,0,2.191l0,0c-0.605,0.604-1.586,0.604-2.19,0L385.658,424.603z"/>
		</g>
	</g>
	<g>
		<g>
			<path fill="#0E151E" d="M487.358,387.226c0-0.63-0.511-1.141-1.14-1.141l0,0c-0.63,0-1.141,0.51-1.141,1.141v87.559
				c0,0.63,0.511,1.14,1.141,1.14l0,0c0.629,0,1.14-0.51,1.14-1.14V387.226z"/>
		</g>
		<g>
			<path fill="#0E151E" d="M503.969,445.864c0.446-0.446,0.446-1.168,0-1.614l0,0c-0.445-0.445-1.167-0.445-1.612,0l-16.905,16.905
				c-0.445,0.445-0.445,1.168,0,1.613l0,0c0.446,0.445,1.167,0.445,1.613,0L503.969,445.864z"/>
		</g>
		<g>
			<path fill="#0E151E" d="M503.969,416.807c0.446-0.445,0.446-1.167,0-1.613l0,0c-0.445-0.445-1.167-0.445-1.612,0l-16.905,16.905
				c-0.445,0.445-0.445,1.167,0,1.613l0,0c0.446,0.445,1.167,0.445,1.613,0L503.969,416.807z"/>
		</g>
		<g>
			<path fill="#0E151E" d="M496.91,394.809c0.446-0.445,0.446-1.167,0-1.613l0,0c-0.445-0.445-1.167-0.445-1.612,0l-9.846,9.845
				c-0.445,0.445-0.445,1.168,0,1.613l0,0c0.446,0.445,1.167,0.445,1.613,0L496.91,394.809z"/>
		</g>
		<g>
			<path fill="#0E151E" d="M473.483,410.099c-0.445-0.445-0.445-1.167,0-1.613l0,0c0.446-0.445,1.167-0.445,1.613,0l12.028,12.028
				c0.445,0.445,0.445,1.167,0,1.613l0,0c-0.445,0.445-1.167,0.445-1.613,0L473.483,410.099z"/>
		</g>
		<g>
			<path fill="#0E151E" d="M473.794,438.139c-0.445-0.445-0.445-1.167,0-1.613l0,0c0.445-0.446,1.167-0.446,1.613,0l11.717,11.718
				c0.445,0.445,0.445,1.167,0,1.613l0,0c-0.445,0.445-1.167,0.445-1.613,0L473.794,438.139z"/>
		</g>
	</g>
	<g>
		<g>
			<path fill="#0E151E" d="M619.609,345.127c0-0.929-0.754-1.682-1.683-1.682l0,0c-0.928,0-1.681,0.753-1.681,1.682v129.116
				c0,0.929,0.753,1.682,1.681,1.682l0,0c0.929,0,1.683-0.753,1.683-1.682V345.127z"/>
		</g>
		<g>
			<path fill="#0E151E" d="M644.105,431.596c0.656-0.658,0.656-1.721,0-2.378l0,0c-0.657-0.657-1.722-0.657-2.378,0l-24.928,24.928
				c-0.658,0.656-0.658,1.721,0,2.378l0,0c0.656,0.656,1.721,0.656,2.378,0L644.105,431.596z"/>
		</g>
		<g>
			<path fill="#0E151E" d="M644.105,388.748c0.656-0.657,0.656-1.722,0-2.378l0,0c-0.657-0.657-1.722-0.657-2.378,0l-24.928,24.928
				c-0.658,0.656-0.658,1.722,0,2.378l0,0c0.656,0.656,1.721,0.656,2.378,0L644.105,388.748z"/>
		</g>
		<g>
			<path fill="#0E151E" d="M633.695,356.31c0.657-0.657,0.657-1.721,0-2.378l0,0c-0.657-0.656-1.722-0.656-2.378,0l-14.519,14.518
				c-0.658,0.657-0.658,1.722,0,2.379l0,0c0.656,0.656,1.721,0.656,2.378,0L633.695,356.31z"/>
		</g>
		<g>
			<path fill="#0E151E" d="M599.149,378.858c-0.657-0.658-0.657-1.721,0-2.379l0,0c0.656-0.656,1.721-0.656,2.377,0l17.737,17.736
				c0.657,0.657,0.657,1.722,0,2.378l0,0c-0.657,0.657-1.721,0.657-2.378,0L599.149,378.858z"/>
		</g>
		<g>
			<path fill="#0E151E" d="M599.607,420.205c-0.657-0.658-0.657-1.722,0-2.378l0,0c0.656-0.657,1.721-0.657,2.377,0l17.279,17.278
				c0.657,0.657,0.657,1.722,0,2.378l0,0c-0.657,0.657-1.721,0.657-2.378,0L599.607,420.205z"/>
		</g>
	</g>
	<g>
		<g>
			<path fill="#0E151E" d="M582.574,415.571c0-0.429,0.348-0.776,0.776-0.776l0,0c0.428,0,0.776,0.347,0.776,0.776v59.578
				c0,0.428-0.348,0.775-0.776,0.775l0,0c-0.429,0-0.776-0.348-0.776-0.775V415.571z"/>
		</g>
		<g>
			<path fill="#0E151E" d="M571.271,455.47c-0.303-0.304-0.303-0.794,0-1.098l0,0c0.303-0.303,0.794-0.303,1.097,0l11.502,11.503
				c0.303,0.303,0.303,0.794,0,1.097l0,0c-0.303,0.303-0.794,0.303-1.097,0L571.271,455.47z"/>
		</g>
		<g>
			<path fill="#0E151E" d="M571.271,435.699c-0.303-0.303-0.303-0.794,0-1.098l0,0c0.303-0.303,0.794-0.303,1.097,0l11.502,11.502
				c0.303,0.303,0.303,0.795,0,1.098l0,0c-0.303,0.303-0.794,0.303-1.097,0L571.271,435.699z"/>
		</g>
		<g>
			<path fill="#0E151E" d="M576.075,420.731c-0.303-0.303-0.303-0.794,0-1.097l0,0c0.303-0.303,0.795-0.303,1.097,0l6.699,6.699
				c0.303,0.303,0.303,0.794,0,1.098l0,0c-0.303,0.303-0.794,0.303-1.097,0L576.075,420.731z"/>
		</g>
		<g>
			<path fill="#0E151E" d="M592.015,431.136c0.303-0.304,0.303-0.794,0-1.098l0,0c-0.303-0.303-0.794-0.303-1.097,0l-8.185,8.184
				c-0.303,0.304-0.303,0.795,0,1.098l0,0c0.303,0.303,0.794,0.303,1.097,0L592.015,431.136z"/>
		</g>
		<g>
			<path fill="#0E151E" d="M591.804,450.214c0.304-0.303,0.304-0.794,0-1.097l0,0c-0.303-0.303-0.794-0.303-1.097,0l-7.973,7.973
				c-0.303,0.303-0.303,0.794,0,1.097l0,0c0.303,0.303,0.794,0.303,1.097,0L591.804,450.214z"/>
		</g>
	</g>
	<g>
		<g>
			<path fill="#0E151E" d="M541.15,341.195c0-0.956,0.776-1.731,1.733-1.731l0,0c0.957,0,1.732,0.775,1.732,1.731v132.997
				c0,0.957-0.776,1.732-1.732,1.732l0,0c-0.957,0-1.733-0.775-1.733-1.732V341.195z"/>
		</g>
		<g>
			<path fill="#0E151E" d="M515.919,430.264c-0.677-0.678-0.677-1.773,0-2.451l0,0c0.677-0.675,1.773-0.675,2.449,0l25.677,25.679
				c0.676,0.675,0.676,1.772,0,2.449l0,0c-0.677,0.677-1.774,0.677-2.449,0L515.919,430.264z"/>
		</g>
		<g>
			<path fill="#0E151E" d="M515.919,386.127c-0.677-0.677-0.677-1.773,0-2.45l0,0c0.677-0.676,1.773-0.676,2.449,0l25.677,25.677
				c0.676,0.677,0.676,1.774,0,2.451l0,0c-0.677,0.676-1.774,0.676-2.449,0L515.919,386.127z"/>
		</g>
		<g>
			<path fill="#0E151E" d="M526.642,352.714c-0.677-0.677-0.677-1.773,0-2.45l0,0c0.677-0.675,1.773-0.675,2.449,0l14.955,14.955
				c0.676,0.677,0.676,1.774,0,2.451l0,0c-0.677,0.676-1.774,0.676-2.449,0L526.642,352.714z"/>
		</g>
		<g>
			<path fill="#0E151E" d="M562.226,375.94c0.676-0.676,0.676-1.773,0-2.45l0,0c-0.677-0.677-1.774-0.677-2.449,0l-18.271,18.269
				c-0.677,0.677-0.677,1.773,0,2.45l0,0c0.676,0.677,1.773,0.677,2.45,0L562.226,375.94z"/>
		</g>
		<g>
			<path fill="#0E151E" d="M561.754,418.53c0.677-0.677,0.677-1.773,0-2.449l0,0c-0.676-0.676-1.773-0.676-2.449,0l-17.799,17.797
				c-0.677,0.677-0.677,1.774,0,2.45l0,0c0.676,0.677,1.773,0.677,2.45,0L561.754,418.53z"/>
		</g>
	</g>
	<g>
		<path fill="#52845E" d="M657.699,332.561v136.155H376.845V332.561H657.699 M667.044,323.215h-9.345H376.845H367.5v9.346v136.155
			v9.346h9.345h280.854h9.345v-9.346V332.561V323.215L667.044,323.215z"/>
	</g>
	<g>
		<line x1="517.273" y1="332.561" x2="517.273" y2="468.715"/>
		<rect x="513.268" y="332.561" fill="#1A2636" width="8.01" height="136.155"/>
	</g>
	<g>
		<line x1="376.845" y1="400.639" x2="657.699" y2="400.639"/>
		<rect x="376.845" y="396.633" fill="#1A2636" width="280.854" height="8.01"/>
	</g>
	<g>
		<path d="M295.208,654.612c0,3.183-2.582,5.766-5.766,5.766H188.569c-3.184,0-5.765-2.583-5.765-5.766V511.299
			c0-3.182,2.581-5.764,5.765-5.764h100.873c3.185,0,5.766,2.582,5.766,5.764V654.612z"/>
	</g>
	<g>
		<rect x="182.804" y="654.612" width="14.56" height="26.44"/>
	</g>
	<g>
		<rect x="280.649" y="654.612" width="14.559" height="26.44"/>
	</g>
	<g>
		<g>
			<g>
				<path d="M283.954,552.019c0,2.32-1.881,4.2-4.2,4.2h-81.493c-2.321,0-4.201-1.88-4.201-4.2v-27.638
					c0-2.318,1.88-4.199,4.201-4.199h81.493c2.319,0,4.2,1.881,4.2,4.199V552.019z"/>
				<path fill="#1A2636" d="M279.754,557.661h-81.493c-3.111,0-5.642-2.531-5.642-5.642v-27.638c0-3.11,2.531-5.641,5.642-5.641
					h81.493c3.11,0,5.642,2.53,5.642,5.641v27.638C285.396,555.129,282.864,557.661,279.754,557.661z M198.261,521.624
					c-1.521,0-2.759,1.236-2.759,2.758v27.638c0,1.521,1.238,2.759,2.759,2.759h81.493c1.521,0,2.758-1.237,2.758-2.759v-27.638
					c0-1.521-1.237-2.758-2.758-2.758H198.261z"/>
			</g>
			<g>
				<circle fill="#1A2636" cx="239.007" cy="538.202" r="5.045"/>
			</g>
		</g>
		<g>
			<g>
				<path d="M283.954,597.665c0,2.319-1.881,4.201-4.2,4.201h-81.493c-2.321,0-4.201-1.882-4.201-4.201v-27.637
					c0-2.319,1.88-4.2,4.201-4.2h81.493c2.319,0,4.2,1.881,4.2,4.2V597.665z"/>
				<path fill="#1A2636" d="M279.754,603.307h-81.493c-3.111,0-5.642-2.531-5.642-5.643v-27.637c0-3.11,2.531-5.642,5.642-5.642
					h81.493c3.11,0,5.642,2.531,5.642,5.642v27.637C285.396,600.776,282.864,603.307,279.754,603.307z M198.261,567.27
					c-1.521,0-2.759,1.236-2.759,2.758v27.637c0,1.521,1.238,2.76,2.759,2.76h81.493c1.521,0,2.758-1.238,2.758-2.76v-27.637
					c0-1.521-1.237-2.758-2.758-2.758H198.261z"/>
			</g>
			<g>
				<circle fill="#1A2636" cx="239.007" cy="584.327" r="5.045"/>
			</g>
		</g>
		<g>
			<g>
				<path d="M283.954,643.311c0,2.318-1.881,4.201-4.2,4.201h-81.493c-2.321,0-4.201-1.883-4.201-4.201v-27.638
					c0-2.318,1.88-4.199,4.201-4.199h81.493c2.319,0,4.2,1.881,4.2,4.199V643.311z"/>
				<path fill="#1A2636" d="M279.754,648.954h-81.493c-3.111,0-5.642-2.531-5.642-5.643v-27.638c0-3.11,2.531-5.641,5.642-5.641
					h81.493c3.11,0,5.642,2.53,5.642,5.641v27.638C285.396,646.422,282.864,648.954,279.754,648.954z M198.261,612.916
					c-1.521,0-2.759,1.237-2.759,2.758v27.638c0,1.521,1.238,2.76,2.759,2.76h81.493c1.521,0,2.758-1.238,2.758-2.76v-27.638
					c0-1.521-1.237-2.758-2.758-2.758H198.261z"/>
			</g>
			<g>
				<circle fill="#1A2636" cx="239.007" cy="630.453" r="5.045"/>
			</g>
		</g>
	</g>
	<g>
		<rect x="314.36" y="634.53" fill="#52845E" width="19.136" height="28.236"/>
	</g>
	<g>
		<rect x="882.203" y="570.73" fill="#F54D06" width="19.137" height="28.237"/>
	</g>
	<g>
		<circle fill="#FFFFFF" cx="323.928" cy="648.649" r="5.841"/>
	</g>
	<g>
		<path d="M323.928,650.295c-0.738,0-1.335-0.598-1.335-1.336v-17.578c0-2.945-2.395-5.342-5.339-5.342h-4.657
			c-0.738,0-1.335-0.597-1.335-1.334c0-0.738,0.597-1.336,1.335-1.336h4.657c4.417,0,8.01,3.594,8.01,8.012v17.578
			C325.263,649.698,324.665,650.295,323.928,650.295z"/>
	</g>
	<g>
		<path d="M306.929,515.305c-0.738,0-1.335-0.598-1.335-1.335v-17.579c0-2.944-2.396-5.34-5.34-5.34h-43.21
			c-0.737,0-1.335-0.598-1.335-1.336c0-0.736,0.598-1.335,1.335-1.335h43.21c4.417,0,8.01,3.594,8.01,8.011v17.579
			C308.264,514.708,307.667,515.305,306.929,515.305z"/>
	</g>
	<g>
		<path d="M246.363,502.025c-0.738,0-1.335-0.598-1.335-1.335v-4.299c0-4.417,3.593-8.011,8.011-8.011h6.675
			c0.737,0,1.335,0.599,1.335,1.335c0,0.738-0.598,1.336-1.335,1.336h-6.675c-2.945,0-5.341,2.396-5.341,5.34v4.299
			C247.697,501.427,247.1,502.025,246.363,502.025z"/>
	</g>
	<g>
		<path d="M318.261,626.04h-4.657c-4.417,0-8.01-3.593-8.01-8.01V509.529c0-0.737,0.597-1.335,1.335-1.335
			c0.737,0,1.335,0.598,1.335,1.335V618.03c0,2.945,2.396,5.34,5.34,5.34h4.657c0.738,0,1.335,0.598,1.335,1.336
			C319.597,625.443,318.999,626.04,318.261,626.04z"/>
	</g>
	<g>
		<path fill="#52845E" d="M253.979,502.475c0,1.689-1.37,3.061-3.06,3.061h-23.824c-1.69,0-3.06-1.371-3.06-3.061l0,0
			c0-1.689,1.37-3.059,3.06-3.059h23.824C252.609,499.417,253.979,500.786,253.979,502.475L253.979,502.475z"/>
	</g>
	<g>
		<rect x="235.654" y="451.009" width="6.456" height="48.407"/>
	</g>
	<g>
		<polygon fill="#F54D06" points="225.158,446.951 252.854,446.951 266.206,474.648 211.808,474.648 		"/>
	</g>
	<g>
		<path fill="#FDD842" d="M269.082,475.067c0,0.875-0.711,1.586-1.585,1.586h-57.228c-0.876,0-1.586-0.711-1.586-1.586l0,0
			c0-0.876,0.71-1.588,1.586-1.588h57.228C268.37,473.479,269.082,474.191,269.082,475.067L269.082,475.067z"/>
	</g>
	<g>
		
			<path fill="none" stroke="#FDD842" stroke-width="4.5966" stroke-linecap="round" stroke-linejoin="round" stroke-miterlimit="10" d="
			M323.928,648.648"/>
	</g>
	<g>
		<path fill="#F54D06" d="M302.63,560.518c0-2.375,1.926-4.299,4.299-4.299l0,0c2.374,0,4.299,1.924,4.299,4.299v10.62
			c0,2.374-1.925,4.298-4.299,4.298l0,0c-2.374,0-4.299-1.924-4.299-4.298V560.518z"/>
	</g>
	<g>
		<circle fill="#FFFFFF" cx="306.97" cy="560.594" r="2.67"/>
	</g>
	<g>
		<path fill="#FFFFFF" d="M887.473,579.016c0-2.373,1.924-4.298,4.299-4.298l0,0c2.374,0,4.298,1.925,4.298,4.298v10.621
			c0,2.375-1.925,4.299-4.298,4.299l0,0c-2.375,0-4.299-1.924-4.299-4.299V579.016z"/>
	</g>
	<g>
		<circle fill="#0E151E" cx="891.812" cy="579.094" r="2.67"/>
	</g>
	<g>
		<g>
			<path d="M859.684,623.265c0,2.213-1.794,4.005-4.005,4.005H699.922c-2.213,0-4.005-1.792-4.005-4.005v-20.913
				c0-2.213,1.792-4.006,4.005-4.006h155.757c2.21,0,4.005,1.793,4.005,4.006V623.265z"/>
		</g>
		<g>
			<rect x="695.917" y="602.352" width="10.68" height="77.365"/>
		</g>
		<g>
			<rect x="849.002" y="602.352" width="10.682" height="77.365"/>
		</g>
	</g>
	<g>
		<g>
			<path d="M814.021,618.683c0,0.933-0.755,1.687-1.686,1.687h-69.07c-0.933,0-1.687-0.754-1.687-1.687v-11.095
				c0-0.932,0.754-1.686,1.687-1.686h69.07c0.931,0,1.686,0.754,1.686,1.686V618.683z"/>
			<path fill="#1A2636" d="M812.335,621.811h-69.07c-1.725,0-3.128-1.403-3.128-3.128v-11.095c0-1.725,1.403-3.126,3.128-3.126
				h69.07c1.725,0,3.127,1.401,3.127,3.126v11.095C815.462,620.408,814.06,621.811,812.335,621.811z M743.265,607.345
				c-0.136,0-0.245,0.108-0.245,0.243v11.095c0,0.138,0.107,0.245,0.245,0.245h69.07c0.134,0,0.244-0.109,0.244-0.245v-11.095
				c0-0.135-0.11-0.243-0.244-0.243H743.265z"/>
		</g>
		<g>
			<circle fill="#1A2636" cx="777.674" cy="613.136" r="2.978"/>
		</g>
	</g>
	<g>
		<g>
			<g>
				<rect x="188.776" y="324.852" width="108.398" height="76.455"/>
			</g>
			<g>
				<path fill="#52845E" d="M295.172,326.855v72.449H190.779v-72.449H295.172 M299.177,322.85H186.774v80.459h112.403V322.85
					L299.177,322.85z"/>
			</g>
		</g>
		<g>
			<circle fill="#1A2636" cx="227.877" cy="363.079" r="21.908"/>
		</g>
		<g>
			<circle fill="#52845E" cx="258.075" cy="363.079" r="21.907"/>
		</g>
		<g>
			<path fill="#82BC8E" d="M236.168,363.079c0,6.24,2.622,11.857,6.808,15.846c4.186-3.989,6.809-9.606,6.809-15.846
				s-2.623-11.857-6.809-15.847C238.79,351.222,236.168,356.839,236.168,363.079z"/>
		</g>
	</g>
	<g>
		<g>
			<path fill="#FFFFFF" d="M749.589,596.236h-36.486c-3.593,0-6.506-2.913-6.506-6.506l0,0c0-3.595,2.913-6.507,6.506-6.507h36.486"
				/>
		</g>
		<g>
			<path fill="#F54D06" d="M754.929,598.135h-41.827c-4.635,0-8.405-3.771-8.405-8.405c0-4.636,3.771-8.407,8.405-8.407h41.827
				c1.049,0,1.9,0.852,1.9,1.9c0,1.05-0.851,1.9-1.9,1.9h-41.827c-2.54,0-4.605,2.066-4.605,4.606s2.066,4.606,4.605,4.606h41.827
				c1.049,0,1.9,0.85,1.9,1.899C756.829,597.285,755.979,598.135,754.929,598.135z"/>
		</g>
	</g>
	<g>
		<path fill="#354659" d="M726.125,517.401c0,0.999-0.81,1.807-1.807,1.807l0,0c-0.997,0-1.807-0.808-1.807-1.807v-12.072
			c0-0.999,0.81-1.808,1.807-1.808l0,0c0.997,0,1.807,0.809,1.807,1.808V517.401z"/>
	</g>
	<g>
		<path fill="#354659" d="M835.189,517.401c0,0.999-0.808,1.807-1.807,1.807l0,0c-0.997,0-1.806-0.808-1.806-1.807v-12.072
			c0-0.999,0.809-1.808,1.806-1.808l0,0c1,0,1.807,0.809,1.807,1.808V517.401z"/>
	</g>
	<g>
		<g>
			<path fill="#FFFFFF" d="M749.589,579.87h-36.486c-3.593,0-6.506-2.912-6.506-6.504l0,0c0-3.594,2.913-6.508,6.506-6.508h36.486"
				/>
		</g>
		<g>
			<path fill="#52845E" d="M754.929,581.77h-41.827c-4.635,0-8.405-3.77-8.405-8.404c0-4.637,3.771-8.408,8.405-8.408h41.827
				c1.049,0,1.9,0.852,1.9,1.9s-0.851,1.9-1.9,1.9h-41.827c-2.54,0-4.605,2.066-4.605,4.607c0,2.539,2.066,4.604,4.605,4.604h41.827
				c1.049,0,1.9,0.851,1.9,1.899C756.829,580.92,755.979,581.77,754.929,581.77z"/>
		</g>
	</g>
	<g>
		<rect x="726.125" y="445.634" fill="#354659" width="106" height="47.554"/>
	</g>
	<g>
		<g>
			<path fill="#FDD842" d="M845.251,594h-22.64c-0.387,0-0.742-0.215-0.921-0.56c-0.179-0.344-0.152-0.758,0.07-1.075l11.352-16.226
				c0.194-0.277,0.513-0.443,0.852-0.443c0,0,0.001,0,0.001,0c0.339,0.001,0.657,0.168,0.851,0.445l11.289,16.227
				c0.22,0.316,0.247,0.731,0.068,1.074C845.993,593.786,845.638,594,845.251,594z M824.606,591.92h18.656l-9.302-13.369
				L824.606,591.92z"/>
		</g>
		<g>
			<circle fill="#52845E" cx="822.611" cy="592.96" r="4.585"/>
		</g>
		<g>
			<circle fill="#FFFFFF" cx="845.25" cy="592.96" r="4.585"/>
		</g>
		<g>
			<circle fill="#F54D06" cx="833.963" cy="576.735" r="4.585"/>
		</g>
	</g>
	<g>
		<rect x="775.776" y="266.547" width="3.797" height="56.303"/>
	</g>
	<g>
		<path fill="#52845E" d="M781.267,327.205c0,0.737-0.599,1.335-1.334,1.335H775.5c-0.738,0-1.335-0.598-1.335-1.335v-6.112
			c0-0.737,0.597-1.336,1.335-1.336h4.433c0.736,0,1.334,0.599,1.334,1.336V327.205z"/>
	</g>
	<g>
		<path d="M724.319,434.453c-0.999,0-1.807-0.81-1.807-1.807l0,0c0-0.998,0.808-1.808,1.807-1.808h107.807
			c0.998,0,1.806,0.81,1.806,1.808l0,0c0,0.997-0.808,1.807-1.806,1.807H724.319z"/>
	</g>
	<g>
		<path d="M859.684,502.877c0,2.213-1.794,4.005-4.005,4.005H699.922c-2.213,0-4.005-1.792-4.005-4.005v-2.071
			c0-2.212,1.792-4.005,4.005-4.005h155.757c2.21,0,4.005,1.793,4.005,4.005V502.877z"/>
	</g>
	<g>
		<path fill="#52845E" d="M726.125,494.995c0,0.999-0.81,1.807-1.807,1.807l0,0c-0.997,0-1.807-0.808-1.807-1.807v-62.35
			c0-0.998,0.81-1.807,1.807-1.807l0,0c0.997,0,1.807,0.809,1.807,1.807V494.995z"/>
	</g>
	<g>
		<path fill="#52845E" d="M835.189,494.995c0,0.999-0.808,1.807-1.807,1.807l0,0c-0.997,0-1.806-0.808-1.806-1.807v-62.35
			c0-0.998,0.809-1.807,1.806-1.807l0,0c1,0,1.807,0.809,1.807,1.807V494.995z"/>
	</g>
	<g>
		<path fill="#52845E" d="M724.319,496.801c-0.999,0-1.807-0.811-1.807-1.807l0,0c0-0.997,0.808-1.807,1.807-1.807h107.807
			c0.998,0,1.806,0.81,1.806,1.807l0,0c0,0.996-0.808,1.807-1.806,1.807H724.319z"/>
	</g>
	<g>
		<path fill="#FDD842" d="M802.421,468.52c0,3.688-2.989,6.676-6.675,6.676h-22.028c-3.687,0-6.676-2.988-6.676-6.676l0,0
			c0-3.688,2.989-6.676,6.676-6.676h22.028C799.432,461.844,802.421,464.833,802.421,468.52L802.421,468.52z"/>
	</g>
	<g>
		<path fill="#FDD842" d="M808.298,459.196c0.901,0.902,0.898,2.361,0,3.26l-5.381,5.382c-0.899,0.899-2.36,0.901-3.261,0l0,0
			c-0.899-0.9-0.899-2.361,0-3.263l5.381-5.379C805.936,458.295,807.396,458.295,808.298,459.196L808.298,459.196z"/>
	</g>
	<g>
		<path fill="#FDD842" d="M808.298,477.843c0.901-0.901,0.898-2.361,0-3.26l-5.381-5.382c-0.899-0.898-2.36-0.9-3.261,0l0,0
			c-0.899,0.901-0.899,2.359,0,3.261l5.381,5.381C805.936,478.745,807.396,478.745,808.298,477.843L808.298,477.843z"/>
	</g>
	<g>
		<circle fill="#FFFFFF" cx="773.472" cy="468.568" r="4.56"/>
	</g>
	<g>
		<path fill="#354659" d="M775.643,468.568c0,1.196-0.972,2.168-2.171,2.168c-1.198,0-2.169-0.972-2.169-2.168
			c0-1.2,0.972-2.172,2.169-2.172C774.671,466.396,775.643,467.368,775.643,468.568z"/>
	</g>
	<g>
		<path fill="#F54D06" d="M735.488,492.832c-0.369,0-0.667-0.299-0.667-0.667c0-1.172,0.653-1.768,1.179-2.246
			c0.489-0.445,0.744-0.703,0.744-1.26c0-0.555-0.255-0.814-0.744-1.26c-0.525-0.479-1.179-1.074-1.179-2.246
			c0-1.171,0.653-1.768,1.179-2.246c0.489-0.445,0.744-0.704,0.744-1.26c0-0.557-0.255-0.814-0.744-1.261
			c-0.525-0.479-1.179-1.075-1.179-2.246s0.653-1.768,1.179-2.247c0.489-0.445,0.744-0.704,0.744-1.261
			c0-0.556-0.255-0.813-0.744-1.259c-0.525-0.479-1.179-1.076-1.179-2.246c0-1.172,0.653-1.77,1.179-2.248
			c0.488-0.445,0.744-0.705,0.744-1.262s-0.255-0.816-0.744-1.262c-0.525-0.48-1.178-1.076-1.178-2.248
			c0-1.173,0.653-1.77,1.178-2.248c0.489-0.447,0.744-0.706,0.744-1.264c0-0.368,0.299-0.667,0.667-0.667
			c0.369,0,0.667,0.299,0.667,0.667c0,1.173-0.653,1.77-1.178,2.248c-0.489,0.447-0.744,0.705-0.744,1.264
			c0,0.557,0.255,0.816,0.744,1.262c0.525,0.48,1.178,1.076,1.178,2.248s-0.653,1.77-1.178,2.248
			c-0.489,0.445-0.744,0.705-0.744,1.262c0,0.555,0.255,0.813,0.744,1.26c0.525,0.479,1.178,1.074,1.178,2.245
			c0,1.172-0.653,1.769-1.178,2.247c-0.489,0.445-0.744,0.705-0.744,1.261s0.255,0.814,0.744,1.26
			c0.525,0.479,1.178,1.075,1.178,2.247c0,1.171-0.653,1.768-1.178,2.246c-0.489,0.445-0.744,0.703-0.744,1.26
			s0.255,0.814,0.744,1.26c0.525,0.479,1.178,1.076,1.178,2.246c0,1.172-0.653,1.768-1.179,2.246
			c-0.488,0.445-0.744,0.703-0.744,1.26C736.155,492.533,735.856,492.832,735.488,492.832z"/>
	</g>
	<g>
		<path fill="#F54D06" d="M741.801,484.822c-0.369,0-0.667-0.299-0.667-0.667c0-1.172,0.654-1.768,1.179-2.246
			c0.489-0.445,0.744-0.704,0.744-1.26s-0.255-0.814-0.744-1.26c-0.525-0.479-1.179-1.075-1.179-2.246
			c0-1.172,0.654-1.768,1.179-2.247c0.489-0.445,0.744-0.704,0.744-1.261c0-0.556-0.255-0.814-0.744-1.26
			c-0.525-0.479-1.179-1.074-1.179-2.246s0.654-1.768,1.179-2.247c0.489-0.446,0.744-0.704,0.744-1.261
			c0-0.556-0.255-0.813-0.744-1.259c-0.525-0.479-1.179-1.075-1.179-2.247c0-1.171,0.654-1.768,1.179-2.247
			c0.488-0.446,0.744-0.705,0.744-1.261c0-0.558-0.255-0.816-0.744-1.263c-0.524-0.48-1.178-1.077-1.178-2.249
			c0-1.173,0.654-1.769,1.178-2.249c0.489-0.446,0.744-0.705,0.744-1.263c0-0.369,0.299-0.667,0.667-0.667
			c0.369,0,0.667,0.299,0.667,0.667c0,1.172-0.654,1.769-1.179,2.249c-0.489,0.446-0.744,0.705-0.744,1.262
			c0,0.557,0.255,0.816,0.744,1.263c0.525,0.479,1.179,1.076,1.179,2.249c0,1.171-0.654,1.768-1.179,2.247
			c-0.489,0.446-0.744,0.704-0.744,1.261s0.255,0.815,0.744,1.26c0.525,0.479,1.179,1.075,1.179,2.246
			c0,1.172-0.654,1.768-1.179,2.247c-0.489,0.446-0.744,0.704-0.744,1.261c0,0.556,0.255,0.814,0.744,1.26
			c0.525,0.479,1.179,1.076,1.179,2.246c0,1.172-0.654,1.768-1.179,2.248c-0.489,0.445-0.744,0.703-0.744,1.26
			c0,0.556,0.255,0.814,0.744,1.26c0.525,0.479,1.179,1.075,1.179,2.246s-0.654,1.768-1.179,2.246
			c-0.489,0.445-0.744,0.703-0.744,1.26C742.468,484.523,742.17,484.822,741.801,484.822z"/>
	</g>
	<g>
		<path fill="#F54D06" d="M748.35,492.832c-0.368,0-0.667-0.299-0.667-0.667c0-1.172,0.653-1.768,1.179-2.246
			c0.488-0.445,0.744-0.703,0.744-1.26c0-0.555-0.255-0.814-0.744-1.26c-0.525-0.479-1.179-1.074-1.179-2.246
			c0-1.171,0.653-1.768,1.179-2.246c0.488-0.445,0.744-0.704,0.744-1.26c0-0.557-0.255-0.814-0.744-1.261
			c-0.525-0.479-1.179-1.075-1.179-2.246s0.653-1.768,1.179-2.247c0.488-0.445,0.744-0.704,0.744-1.261
			c0-0.556-0.255-0.813-0.744-1.259c-0.525-0.479-1.179-1.076-1.179-2.246c0-1.172,0.653-1.77,1.179-2.248
			c0.488-0.445,0.744-0.705,0.744-1.262s-0.255-0.816-0.744-1.262c-0.525-0.48-1.179-1.076-1.179-2.248
			c0-1.173,0.653-1.77,1.179-2.248c0.488-0.447,0.744-0.706,0.744-1.264c0-0.368,0.299-0.667,0.667-0.667s0.667,0.299,0.667,0.667
			c0,1.173-0.653,1.77-1.179,2.248c-0.488,0.447-0.744,0.705-0.744,1.264c0,0.557,0.255,0.816,0.744,1.262
			c0.525,0.48,1.179,1.076,1.179,2.248s-0.653,1.77-1.179,2.248c-0.488,0.445-0.743,0.705-0.743,1.262
			c0,0.555,0.255,0.813,0.743,1.26c0.526,0.479,1.179,1.074,1.179,2.245c0,1.172-0.653,1.769-1.179,2.247
			c-0.488,0.445-0.743,0.705-0.743,1.261s0.255,0.814,0.743,1.26c0.526,0.479,1.179,1.075,1.179,2.247
			c0,1.171-0.653,1.768-1.179,2.246c-0.488,0.445-0.743,0.703-0.743,1.26s0.255,0.814,0.743,1.26
			c0.526,0.479,1.179,1.076,1.179,2.246c0,1.172-0.654,1.768-1.179,2.246c-0.488,0.445-0.743,0.703-0.743,1.26
			C749.018,492.533,748.719,492.832,748.35,492.832z"/>
	</g>
	<g>
		<path d="M732.705,493.188c0-5.555,4.503-10.058,10.058-10.058c5.555,0,10.057,4.503,10.057,10.058"/>
	</g>
	<g>
		<rect x="849.002" y="351.325" fill="#354659" width="33.201" height="44.724"/>
	</g>
	<g>
		<rect x="130.743" y="465.371" fill="#354659" width="33.202" height="44.724"/>
	</g>
	<g>
		<rect x="885.228" y="458.521" fill="#354659" width="21.685" height="29.212"/>
	</g>
	<g>
		<rect x="288.335" y="437.979" fill="#354659" width="21.684" height="29.212"/>
	</g>
	<g>
		<rect x="865.603" y="419.042" fill="#0E151E" width="33.2" height="22.361"/>
	</g>
	<g>
		<rect x="143.783" y="423.271" fill="#0E151E" width="33.202" height="22.363"/>
	</g>
	<g>
		<path d="M814.021,642.987c0,2.924-2.37,5.295-5.294,5.295h-61.855c-2.923,0-5.293-2.371-5.293-5.295l0,0
			c0-2.922,2.371-5.293,5.293-5.293h61.855C811.651,637.694,814.021,640.065,814.021,642.987L814.021,642.987z"/>
	</g>
	<g>
		<rect x="746.872" y="648.282" width="5.005" height="32.105"/>
	</g>
	<g>
		<rect x="803.943" y="648.282" width="5.005" height="32.105"/>
	</g>
	<g>
		<path fill="#0E151E" d="M420.629,430.208v-11.102c0-2.099,1.701-3.799,3.799-3.799l0,0c2.098,0,3.799,1.701,3.799,3.799v11.102"/>
	</g>
	<g>
		<circle fill="#52845E" cx="422.749" cy="420.238" r="0.864"/>
	</g>
	<g>
		<circle fill="#52845E" cx="426.233" cy="420.238" r="0.865"/>
	</g>
	<g>
		<path d="M467.384,544.561"/>
	</g>
	<g>
		<rect x="440.01" y="597.614" fill="#FFFFFF" width="2.904" height="45.754"/>
	</g>
	<g>
		<rect x="452.921" y="597.614" fill="#FFFFFF" width="2.904" height="45.754"/>
	</g>
	<g>
		<rect x="465.833" y="597.614" fill="#FFFFFF" width="2.904" height="45.754"/>
	</g>
	<g>
		<rect x="478.746" y="597.614" fill="#FFFFFF" width="2.904" height="45.754"/>
	</g>
	<g>
		<rect x="491.657" y="597.614" fill="#FFFFFF" width="2.904" height="45.754"/>
	</g>
	<g>
		<rect x="504.569" y="597.614" fill="#FFFFFF" width="2.905" height="45.754"/>
	</g>
	<g>
		<rect x="517.481" y="597.614" fill="#FFFFFF" width="2.905" height="45.754"/>
	</g>
	<g>
		<rect x="530.393" y="597.614" fill="#FFFFFF" width="2.905" height="45.754"/>
	</g>
	<g>
		<rect x="543.305" y="597.614" fill="#FFFFFF" width="2.905" height="45.754"/>
	</g>
	<g>
		<rect x="556.217" y="597.614" fill="#FFFFFF" width="2.904" height="45.754"/>
	</g>
	<g>
		<rect x="569.129" y="597.614" fill="#FFFFFF" width="2.905" height="45.754"/>
	</g>
	<g>
		<rect x="582.041" y="597.614" fill="#FFFFFF" width="2.905" height="45.754"/>
	</g>
	<g>
		<g>
			<path fill="#FFFFFF" d="M597.858,598.543c-0.95-0.252-1.918-0.46-2.905-0.611v45.436h2.905V598.543z"/>
		</g>
		<g>
			<path fill="#FFFFFF" d="M430.002,601.299c-1.009,0.582-1.98,1.223-2.904,1.924v40.145h2.904V601.299z"/>
		</g>
		<g>
			<path fill="#FFFFFF" d="M607.865,603.571v39.797h2.905v-37.141C609.866,605.274,608.896,604.387,607.865,603.571z"/>
		</g>
	</g>
</g>
</svg>
