<?xml version="1.0" encoding="utf-8"?>
<!-- Generator: Adobe Illustrator 15.1.0, SVG Export Plug-In . SVG Version: 6.00 Build 0)  -->
<!DOCTYPE svg PUBLIC "-//W3C//DTD SVG 1.1//EN" "http://www.w3.org/Graphics/SVG/1.1/DTD/svg11.dtd">
<svg version="1.1" id="Layer_1" xmlns="http://www.w3.org/2000/svg" xmlns:xlink="http://www.w3.org/1999/xlink" x="0px" y="0px"
	 width="1504.742px" height="804.222px" viewBox="0 0 1504.742 804.222" enable-background="new 0 0 1504.742 804.222"
	 xml:space="preserve">
<g>
	<g>
		<g>
			<g>
				<path fill="#53855F" d="M158.584,780.909c-76.671,0-139.048-62.377-139.048-139.048V168.457
					c0-76.671,62.377-139.047,139.048-139.047h1171.59c76.671,0,139.047,62.376,139.047,139.047v473.404
					c0,76.671-62.376,139.048-139.047,139.048H158.584z"/>
			</g>
			<g>
				<path fill="#53855F" d="M1330.174,48.945c66.004,0,119.512,53.508,119.512,119.512v473.404
					c0,66.004-53.508,119.512-119.512,119.512H158.584c-66.005,0-119.513-53.508-119.513-119.512V168.457
					c0-66.004,53.507-119.512,119.513-119.512H1330.174 M1330.174,9.874H158.584c-21.392,0-42.164,4.199-61.74,12.479
					C77.956,30.342,61,41.771,46.448,56.322s-25.981,31.507-33.97,50.395C4.198,126.293,0,147.066,0,168.457v473.404
					c0,21.392,4.198,42.163,12.479,61.739c7.989,18.889,19.418,35.844,33.97,50.396s31.507,25.98,50.396,33.97
					c19.576,8.28,40.348,12.479,61.74,12.479h1171.59c21.391,0,42.163-4.198,61.739-12.479c18.889-7.989,35.844-19.418,50.396-33.97
					c14.551-14.552,25.98-31.507,33.97-50.396c8.28-19.576,12.479-40.348,12.479-61.739V168.457c0-21.391-4.198-42.164-12.479-61.74
					c-7.989-18.888-19.418-35.844-33.97-50.395c-14.552-14.551-31.507-25.98-50.396-33.97
					C1372.337,14.073,1351.565,9.874,1330.174,9.874L1330.174,9.874z"/>
			</g>
		</g>
		<g>
			<g>
				<path fill="#7DA887" d="M158.584,780.909c-76.671,0-139.048-62.377-139.048-139.048v-19.536h1449.686v19.536
					c0,76.671-62.376,139.048-139.047,139.048H158.584z"/>
			</g>
			<g>
				<path fill="#7DA887" d="M1449.686,641.861c0,66.004-53.508,119.512-119.512,119.512H158.584
					c-66.005,0-119.513-53.508-119.513-119.512H1449.686 M1488.757,602.79h-39.071H39.071H0v39.071
					c0,21.392,4.198,42.163,12.479,61.739c7.989,18.889,19.418,35.844,33.97,50.396s31.507,25.98,50.396,33.97
					c19.576,8.28,40.348,12.479,61.74,12.479h1171.59c21.391,0,42.163-4.198,61.739-12.479c18.889-7.989,35.844-19.418,50.396-33.97
					c14.551-14.552,25.98-31.507,33.97-50.396c8.28-19.576,12.479-40.348,12.479-61.739V602.79L1488.757,602.79z"/>
			</g>
		</g>
		<g>
			<path fill="#010101" d="M1080.779,293.566c0,80.975-65.643,146.618-146.618,146.618H554.594
				c-80.975,0-146.617-65.644-146.617-146.618l0,0c0-80.977,65.642-146.619,146.617-146.619h379.567
				C1015.136,146.947,1080.779,212.59,1080.779,293.566L1080.779,293.566z"/>
			<path fill="#1A2636" d="M934.161,451.676H554.594c-87.181,0-158.108-70.927-158.108-158.109
				c0-87.183,70.927-158.111,158.108-158.111h379.567c87.182,0,158.11,70.928,158.11,158.111
				C1092.271,380.749,1021.343,451.676,934.161,451.676z M554.594,158.439c-74.508,0-135.125,60.618-135.125,135.127
				c0,74.509,60.617,135.127,135.125,135.127h379.567c74.509,0,135.126-60.618,135.126-135.127
				c0-74.51-60.617-135.127-135.126-135.127H554.594z"/>
		</g>
		<g>
			<path fill="#FDD842" d="M990.353,293.566c0-33.814-27.41-61.228-61.228-61.228H559.629c-33.814,0-61.228,27.413-61.228,61.228
				l0,0c0,33.813,27.414,61.225,61.228,61.225h369.496C962.943,354.791,990.353,327.379,990.353,293.566L990.353,293.566z"/>
		</g>
		<g>
			<path fill="#F05123" d="M957.485,293.566c0-19.818-16.067-35.886-35.884-35.886H567.15c-19.815,0-35.881,16.067-35.881,35.886
				l0,0c0,19.816,16.065,35.882,35.881,35.882h354.451C941.418,329.448,957.485,313.383,957.485,293.566L957.485,293.566z"/>
		</g>
		<g>
			<g>
				<path fill="#010101" d="M214.937,759.237c-24.079,0-43.669-19.589-43.669-43.667v-27.58c0-24.078,19.59-43.667,43.669-43.667
					h1058.882c24.078,0,43.667,19.589,43.667,43.667v27.58c0,24.078-19.589,43.667-43.667,43.667H214.937z"/>
			</g>
			<g>
				<path fill="#1A2636" d="M1273.819,655.814c17.769,0,32.176,14.404,32.176,32.176v27.58c0,17.771-14.407,32.176-32.176,32.176
					H214.937c-17.769,0-32.177-14.404-32.177-32.176v-27.58c0-17.771,14.408-32.176,32.177-32.176H1273.819 M1273.819,632.831
					H214.937c-30.416,0-55.16,24.744-55.16,55.159v27.58c0,30.415,24.745,55.159,55.16,55.159h1058.882
					c30.415,0,55.159-24.744,55.159-55.159v-27.58C1328.978,657.575,1304.233,632.831,1273.819,632.831L1273.819,632.831z"/>
			</g>
		</g>
		<g>
			<path fill="#1A2636" d="M838.108,525.778c0,27.843-22.572,50.417-50.418,50.417h-87.086c-27.845,0-50.419-22.574-50.419-50.417
				l0,0c0-27.849,22.575-50.419,50.419-50.419h87.086C815.536,475.359,838.108,497.93,838.108,525.778L838.108,525.778z"/>
		</g>
		<g>
			<g>
				<path fill="#010101" d="M732.079,539.438c0,9.428-7.645,17.074-17.074,17.074l0,0c-9.428,0-17.074-7.646-17.074-17.074v-27.318
					c0-9.431,7.646-17.076,17.074-17.076l0,0c9.429,0,17.074,7.646,17.074,17.076V539.438z"/>
			</g>
			<g>
				<path fill="#010101" d="M790.358,539.438c0,9.428-7.642,17.074-17.074,17.074l0,0c-9.43,0-17.074-7.646-17.074-17.074v-27.318
					c0-9.431,7.644-17.076,17.074-17.076l0,0c9.432,0,17.074,7.646,17.074,17.076V539.438z"/>
			</g>
		</g>
		<g>
			<g>
				<path fill="#FDD842" d="M265.926,656.035v33.715c0,12.965-10.511,23.475-23.475,23.475l0,0
					c-12.964,0-23.474-10.51-23.474-23.475v-33.715"/>
			</g>
			<g>
				<path fill="#FDD842" d="M391.409,656.035v33.715c0,12.965-10.512,23.475-23.475,23.475l0,0
					c-12.965,0-23.476-10.51-23.476-23.475v-33.715"/>
			</g>
			<g>
				<path fill="#FDD842" d="M516.89,656.035v33.715c0,12.965-10.512,23.475-23.475,23.475l0,0c-12.964,0-23.474-10.51-23.474-23.475
					v-33.715"/>
			</g>
			<g>
				<path fill="#FDD842" d="M642.371,656.035v33.715c0,12.965-10.51,23.475-23.474,23.475l0,0c-12.964,0-23.475-10.51-23.475-23.475
					v-33.715"/>
			</g>
			<g>
				<path fill="#FDD842" d="M767.853,656.035v33.715c0,12.965-10.511,23.475-23.475,23.475l0,0
					c-12.962,0-23.474-10.51-23.474-23.475v-33.715"/>
			</g>
			<g>
				<path fill="#FDD842" d="M893.334,656.035v33.715c0,12.965-10.511,23.475-23.475,23.475l0,0
					c-12.964,0-23.475-10.51-23.475-23.475v-33.715"/>
			</g>
			<g>
				<path fill="#FDD842" d="M1018.816,656.035v33.715c0,12.965-10.51,23.475-23.474,23.475l0,0
					c-12.964,0-23.475-10.51-23.475-23.475v-33.715"/>
			</g>
			<g>
				<path fill="#FDD842" d="M1144.299,656.035v33.715c0,12.965-10.511,23.475-23.475,23.475l0,0
					c-12.964,0-23.474-10.51-23.474-23.475v-33.715"/>
			</g>
			<g>
				<path fill="#FDD842" d="M1269.781,656.035v33.715c0,12.965-10.511,23.475-23.475,23.475l0,0
					c-12.964,0-23.475-10.51-23.475-23.475v-33.715"/>
			</g>
		</g>
		<g>
			<path fill="#010101" d="M1006.306,110.829H482.451c-9.52,0-17.237-7.717-17.237-17.237s7.717-17.237,17.237-17.237h523.854
				c9.52,0,17.237,7.717,17.237,17.237S1015.826,110.829,1006.306,110.829z"/>
		</g>
		<g>
			<path fill="#36613F" d="M174.596,184.815c0,12.372-10.031,22.405-22.408,22.405c-12.372,0-22.405-10.033-22.405-22.405
				c0-12.374,10.034-22.405,22.405-22.405C164.565,162.41,174.596,172.441,174.596,184.815z"/>
		</g>
		<g>
			<circle fill="#36613F" cx="349.352" cy="92.461" r="22.406"/>
		</g>
		<g>
			<circle fill="#36613F" cx="1285.245" cy="146.947" r="22.406"/>
		</g>
		<g>
			<path fill="#7DA887" d="M242.166,294.809c0,7.521-6.097,13.619-13.621,13.619c-7.524,0-13.623-6.098-13.623-13.619
				c0-7.523,6.098-13.625,13.623-13.625C236.069,281.184,242.166,287.285,242.166,294.809z"/>
		</g>
		<g>
			<path fill="#36613F" d="M1208.57,232.342c0,7.521-6.098,13.617-13.621,13.617s-13.621-6.097-13.621-13.617
				c0-7.523,6.098-13.624,13.621-13.624S1208.57,224.818,1208.57,232.342z"/>
		</g>
		<g>
			<circle fill="#36613F" cx="1414.935" cy="160.57" r="13.622"/>
		</g>
		<g>
			<circle fill="#7DA887" cx="1188.954" cy="106.084" r="13.622"/>
		</g>
		<g>
			<circle fill="#7DA887" cx="1125.328" cy="132.852" r="6.658"/>
		</g>
		<g>
			<path fill="#7DA887" d="M1268.575,70.055c0,3.676-2.981,6.657-6.656,6.657c-3.68,0-6.659-2.981-6.659-6.657
				c0-3.679,2.979-6.66,6.659-6.66C1265.594,63.395,1268.575,66.376,1268.575,70.055z"/>
		</g>
		<g>
			<path fill="#7DA887" d="M1268.575,232.342c0,3.675-2.981,6.656-6.656,6.656c-3.68,0-6.659-2.981-6.659-6.656
				c0-3.68,2.979-6.66,6.659-6.66C1265.594,225.682,1268.575,228.662,1268.575,232.342z"/>
		</g>
		<g>
			<circle fill="#7DA887" cx="1360.872" cy="320.467" r="6.658"/>
		</g>
		<g>
			<path fill="#7DA887" d="M388.72,160.568c0,3.676-2.981,6.656-6.658,6.656c-3.678,0-6.659-2.98-6.659-6.656
				c0-3.68,2.981-6.659,6.659-6.659C385.739,153.909,388.72,156.889,388.72,160.568z"/>
		</g>
		<g>
			<path fill="#7DA887" d="M221.581,207.221c0,3.678-2.98,6.656-6.655,6.656c-3.68,0-6.659-2.979-6.659-6.656
				s2.979-6.658,6.659-6.658C218.601,200.563,221.581,203.543,221.581,207.221z"/>
		</g>
		<g>
			<path fill="#36613F" d="M45.729,205.098c0,3.678-2.981,6.656-6.658,6.656c-3.678,0-6.659-2.979-6.659-6.656
				c0-3.68,2.981-6.658,6.659-6.658C42.748,198.439,45.729,201.418,45.729,205.098z"/>
		</g>
		<g>
			<circle fill="#7DA887" cx="260.245" cy="63.397" r="6.66"/>
		</g>
		<g>
			<path fill="#36613F" d="M1113.753,48.948c0,3.677-2.979,6.656-6.656,6.656c-3.678,0-6.66-2.979-6.66-6.656
				c0-3.68,2.981-6.659,6.66-6.659C1110.774,42.289,1113.753,45.269,1113.753,48.948z"/>
		</g>
		<g>
			<circle fill="#7DA887" cx="1143.624" cy="293.566" r="6.658"/>
		</g>
		<g>
			<circle fill="#7DA887" cx="107.334" cy="266.665" r="13.622"/>
		</g>
		<g>
			<circle fill="#7DA887" cx="277.797" cy="146.949" r="13.621"/>
		</g>
		<g>
			<circle fill="#36613F" cx="311.954" cy="218.719" r="13.62"/>
		</g>
		<g>
			<circle fill="#36613F" cx="193.444" cy="92.463" r="13.622"/>
		</g>
		<g>
			<path fill="#7DA887" d="M1347.252,245.963c0,7.521-6.099,13.619-13.621,13.619c-7.523,0-13.622-6.099-13.622-13.619
				c0-7.524,6.099-13.624,13.622-13.624C1341.153,232.339,1347.252,238.438,1347.252,245.963z"/>
		</g>
		<g>
			<circle fill="#36613F" cx="1396.271" cy="266.665" r="13.622"/>
		</g>
		<g>
			<circle fill="#7DA887" cx="1347.252" cy="70.057" r="13.621"/>
		</g>
		<g>
			<circle fill="#7DA887" cx="1237.674" cy="310.039" r="13.622"/>
		</g>
		<g>
			<circle fill="#7DA887" cx="93.713" cy="119.705" r="13.622"/>
		</g>
		<g>
			<path fill="#FFFFFF" d="M808.771,293.848c0,5.256-4.261,9.518-9.52,9.518H689.585c-5.256,0-9.518-4.262-9.518-9.518l0,0
				c0-5.259,4.261-9.521,9.518-9.521H799.25C804.509,284.327,808.771,288.589,808.771,293.848L808.771,293.848z"/>
		</g>
	</g>
	<g>
		<g>
			<path fill="#53855F" d="M158.584,780.909c-76.671,0-139.048-62.377-139.048-139.048V168.457
				c0-76.671,62.377-139.047,139.048-139.047h1171.59c76.671,0,139.047,62.376,139.047,139.047v473.404
				c0,76.671-62.376,139.048-139.047,139.048H158.584z"/>
		</g>
		<g>
			<path fill="#53855F" d="M1330.174,48.945c66.004,0,119.512,53.508,119.512,119.512v473.404
				c0,66.004-53.508,119.512-119.512,119.512H158.584c-66.005,0-119.513-53.508-119.513-119.512V168.457
				c0-66.004,53.507-119.512,119.513-119.512H1330.174 M1330.174,9.874H158.584c-21.392,0-42.164,4.199-61.74,12.479
				C77.956,30.342,61,41.771,46.448,56.322s-25.981,31.507-33.97,50.395C4.198,126.293,0,147.066,0,168.457v473.404
				c0,21.392,4.198,42.163,12.479,61.739c7.989,18.889,19.418,35.844,33.97,50.396s31.507,25.98,50.396,33.97
				c19.576,8.28,40.348,12.479,61.74,12.479h1171.59c21.391,0,42.163-4.198,61.739-12.479c18.889-7.989,35.844-19.418,50.396-33.97
				c14.551-14.552,25.98-31.507,33.97-50.396c8.28-19.576,12.479-40.348,12.479-61.739V168.457c0-21.391-4.198-42.164-12.479-61.74
				c-7.989-18.888-19.418-35.844-33.97-50.395c-14.552-14.551-31.507-25.98-50.396-33.97
				C1372.337,14.073,1351.565,9.874,1330.174,9.874L1330.174,9.874z"/>
		</g>
	</g>
	<g>
		<g>
			<path fill="#7DA887" d="M158.584,780.909c-76.671,0-139.048-62.377-139.048-139.048v-19.536h1449.686v19.536
				c0,76.671-62.376,139.048-139.047,139.048H158.584z"/>
		</g>
		<g>
			<path fill="#7DA887" d="M1449.686,641.861c0,66.004-53.508,119.512-119.512,119.512H158.584
				c-66.005,0-119.513-53.508-119.513-119.512H1449.686 M1488.757,602.79h-39.071H39.071H0v39.071
				c0,21.392,4.198,42.163,12.479,61.739c7.989,18.889,19.418,35.844,33.97,50.396s31.507,25.98,50.396,33.97
				c19.576,8.28,40.348,12.479,61.74,12.479h1171.59c21.391,0,42.163-4.198,61.739-12.479c18.889-7.989,35.844-19.418,50.396-33.97
				c14.551-14.552,25.98-31.507,33.97-50.396c8.28-19.576,12.479-40.348,12.479-61.739V602.79L1488.757,602.79z"/>
		</g>
	</g>
	<g>
		<path fill="#010101" d="M1080.779,293.566c0,80.975-65.643,146.618-146.618,146.618H554.594
			c-80.975,0-146.617-65.644-146.617-146.618l0,0c0-80.977,65.642-146.619,146.617-146.619h379.567
			C1015.136,146.947,1080.779,212.59,1080.779,293.566L1080.779,293.566z"/>
		<path fill="#1A2636" d="M934.161,451.676H554.594c-87.181,0-158.108-70.927-158.108-158.109
			c0-87.183,70.927-158.111,158.108-158.111h379.567c87.182,0,158.11,70.928,158.11,158.111
			C1092.271,380.749,1021.343,451.676,934.161,451.676z M554.594,158.439c-74.508,0-135.125,60.618-135.125,135.127
			c0,74.509,60.617,135.127,135.125,135.127h379.567c74.509,0,135.126-60.618,135.126-135.127
			c0-74.51-60.617-135.127-135.126-135.127H554.594z"/>
	</g>
	<g>
		<path fill="#7DA887" d="M934.161,504.537c-2.539,0-4.597-2.058-4.597-4.597s2.058-4.597,4.597-4.597
			c111.26,0,201.777-90.517,201.777-201.777c0-2.539,2.058-4.597,4.597-4.597s4.597,2.058,4.597,4.597
			C1145.131,409.896,1050.49,504.537,934.161,504.537z"/>
	</g>
	<g>
		<path fill="#7DA887" d="M554.594,504.537c-116.33,0-210.971-94.642-210.971-210.971c0-2.539,2.058-4.597,4.597-4.597
			s4.597,2.058,4.597,4.597c0,111.26,90.517,201.777,201.777,201.777c2.539,0,4.597,2.058,4.597,4.597
			S557.132,504.537,554.594,504.537z"/>
	</g>
	<g>
		<path fill="#FDD842" d="M990.353,293.566c0-33.814-27.41-61.228-61.228-61.228H559.629c-33.814,0-61.228,27.413-61.228,61.228l0,0
			c0,33.813,27.414,61.225,61.228,61.225h369.496C962.943,354.791,990.353,327.379,990.353,293.566L990.353,293.566z"/>
	</g>
	<g>
		<path fill="#F05123" d="M957.485,293.566c0-19.818-16.067-35.886-35.884-35.886H567.15c-19.815,0-35.881,16.067-35.881,35.886l0,0
			c0,19.816,16.065,35.882,35.881,35.882h354.451C941.418,329.448,957.485,313.383,957.485,293.566L957.485,293.566z"/>
	</g>
	<g>
		<g>
			<path fill="#010101" d="M214.937,759.237c-24.079,0-43.669-19.589-43.669-43.667v-27.58c0-24.078,19.59-43.667,43.669-43.667
				h1058.882c24.078,0,43.667,19.589,43.667,43.667v27.58c0,24.078-19.589,43.667-43.667,43.667H214.937z"/>
		</g>
		<g>
			<path fill="#1A2636" d="M1273.819,655.814c17.769,0,32.176,14.404,32.176,32.176v27.58c0,17.771-14.407,32.176-32.176,32.176
				H214.937c-17.769,0-32.177-14.404-32.177-32.176v-27.58c0-17.771,14.408-32.176,32.177-32.176H1273.819 M1273.819,632.831
				H214.937c-30.416,0-55.16,24.744-55.16,55.159v27.58c0,30.415,24.745,55.159,55.16,55.159h1058.882
				c30.415,0,55.159-24.744,55.159-55.159v-27.58C1328.978,657.575,1304.233,632.831,1273.819,632.831L1273.819,632.831z"/>
		</g>
	</g>
	<g>
		<path fill="#1A2636" d="M838.108,525.778c0,27.843-22.572,50.417-50.418,50.417h-87.086c-27.845,0-50.419-22.574-50.419-50.417
			l0,0c0-27.849,22.575-50.419,50.419-50.419h87.086C815.536,475.359,838.108,497.93,838.108,525.778L838.108,525.778z"/>
	</g>
	<g>
		<g>
			<path fill="#010101" d="M734.548,536.643c0,7.495-6.079,13.578-13.577,13.578l0,0c-7.499,0-13.581-6.083-13.581-13.578v-21.727
				c0-7.502,6.082-13.582,13.581-13.582l0,0c7.498,0,13.577,6.08,13.577,13.582V536.643z"/>
		</g>
		<g>
			<path fill="#010101" d="M780.897,536.643c0,7.495-6.078,13.578-13.58,13.578l0,0c-7.498,0-13.578-6.083-13.578-13.578v-21.727
				c0-7.502,6.081-13.582,13.578-13.582l0,0c7.502,0,13.58,6.08,13.58,13.582V536.643z"/>
		</g>
	</g>
	<g>
		<g>
			<path fill="#FDD842" d="M265.926,656.035v24.518c0,12.963-10.511,23.475-23.475,23.475l0,0
				c-12.964,0-23.474-10.512-23.474-23.475v-24.518"/>
		</g>
		<g>
			<path fill="#FDD842" d="M391.409,656.035v24.518c0,12.963-10.512,23.475-23.475,23.475l0,0
				c-12.965,0-23.476-10.512-23.476-23.475v-24.518"/>
		</g>
		<g>
			<path fill="#FDD842" d="M516.89,656.035v24.518c0,12.963-10.512,23.475-23.475,23.475l0,0c-12.964,0-23.474-10.512-23.474-23.475
				v-24.518"/>
		</g>
		<g>
			<path fill="#FDD842" d="M642.371,656.035v24.518c0,12.963-10.51,23.475-23.474,23.475l0,0c-12.964,0-23.475-10.512-23.475-23.475
				v-24.518"/>
		</g>
		<g>
			<path fill="#FDD842" d="M767.853,656.035v24.518c0,12.963-10.511,23.475-23.475,23.475l0,0
				c-12.962,0-23.474-10.512-23.474-23.475v-24.518"/>
		</g>
		<g>
			<path fill="#FDD842" d="M893.334,656.035v24.518c0,12.963-10.511,23.475-23.475,23.475l0,0
				c-12.964,0-23.475-10.512-23.475-23.475v-24.518"/>
		</g>
		<g>
			<path fill="#FDD842" d="M1018.816,656.035v24.518c0,12.963-10.51,23.475-23.474,23.475l0,0
				c-12.964,0-23.475-10.512-23.475-23.475v-24.518"/>
		</g>
		<g>
			<path fill="#FDD842" d="M1144.299,656.035v24.518c0,12.963-10.511,23.475-23.475,23.475l0,0
				c-12.964,0-23.474-10.512-23.474-23.475v-24.518"/>
		</g>
		<g>
			<path fill="#FDD842" d="M1269.781,656.035v24.518c0,12.963-10.511,23.475-23.475,23.475l0,0
				c-12.964,0-23.475-10.512-23.475-23.475v-24.518"/>
		</g>
	</g>
	<g>
		<path fill="#36613F" d="M875.361,99.046c-19.275,0-29.403-4.095-38.339-7.708c-7.641-3.089-13.676-5.53-27.14-5.53
			c-13.465,0-19.501,2.44-27.142,5.53c-8.936,3.613-19.063,7.708-38.339,7.708c-19.277,0-29.405-4.095-38.342-7.708
			c-7.641-3.089-13.676-5.53-27.141-5.53c-13.466,0-19.501,2.44-27.143,5.53c-8.936,3.613-19.065,7.708-38.341,7.708
			c-19.278,0-29.408-4.095-38.345-7.708c-7.643-3.09-13.679-5.53-27.146-5.53c-13.469,0-19.506,2.44-27.149,5.529
			c-1.181,0.478-2.362,0.954-3.564,1.423c-7.692,2.992-16.348-0.813-19.341-8.501c-2.993-7.688,0.813-16.348,8.501-19.341
			c1.083-0.421,2.145-0.851,3.208-1.28c8.937-3.613,19.067-7.707,38.346-7.707c19.278,0,29.408,4.095,38.345,7.708
			c7.643,3.09,13.679,5.53,27.146,5.53c13.465,0,19.5-2.44,27.142-5.53c8.937-3.613,19.065-7.708,38.342-7.708
			c19.276,0,29.405,4.095,38.341,7.708c7.642,3.089,13.677,5.53,27.142,5.53c13.463,0,19.499-2.44,27.139-5.53
			c8.936-3.613,19.065-7.708,38.342-7.708c19.276,0,29.404,4.095,38.34,7.708c7.641,3.09,13.675,5.53,27.139,5.53
			c13.463,0,19.498-2.44,27.138-5.53c8.935-3.613,19.063-7.708,38.337-7.708c19.276,0,29.404,4.095,38.339,7.708
			c1.062,0.43,2.123,0.859,3.204,1.28c7.688,2.994,11.493,11.654,8.499,19.342c-2.994,7.688-11.655,11.494-19.342,8.499
			c-1.202-0.468-2.382-0.945-3.562-1.422c-7.64-3.089-13.675-5.529-27.139-5.529c-13.462,0-19.497,2.44-27.136,5.53
			C904.764,94.951,894.636,99.046,875.361,99.046z"/>
	</g>
	<g>
		<circle fill="#36613F" cx="164.08" cy="165.461" r="22.406"/>
	</g>
	<g>
		<path fill="#7DA887" d="M48.54,284.327c0-5.978,3.413-11.151,8.392-13.7c-2.104-1.08-4.48-1.699-7.006-1.699
			c-8.504,0-15.399,6.895-15.399,15.399c0,8.503,6.895,15.397,15.399,15.397c2.526,0,4.903-0.621,7.006-1.697
			C51.953,295.475,48.54,290.304,48.54,284.327z"/>
	</g>
	<g>
		<path fill="#7DA887" d="M143.797,70.055c0-5.977,3.412-11.15,8.391-13.7c-2.103-1.079-4.481-1.699-7.006-1.699
			c-8.504,0-15.399,6.895-15.399,15.399c0,8.504,6.895,15.399,15.399,15.399c2.525,0,4.903-0.622,7.006-1.699
			C147.209,81.203,143.797,76.031,143.797,70.055z"/>
	</g>
	<g>
		<path fill="#7DA887" d="M1133.123,198.439c0-5.977,3.414-11.15,8.392-13.701c-2.105-1.08-4.482-1.698-7.007-1.698
			c-8.505,0-15.4,6.896-15.4,15.399s6.895,15.398,15.4,15.398c2.525,0,4.902-0.623,7.007-1.699
			C1136.537,209.586,1133.123,204.415,1133.123,198.439z"/>
	</g>
	<g>
		<path fill="#7DA887" d="M1404.125,106.082c0-5.977,3.414-11.15,8.392-13.699c-2.104-1.08-4.48-1.699-7.007-1.699
			c-8.504,0-15.399,6.895-15.399,15.398s6.895,15.398,15.399,15.398c2.526,0,4.903-0.621,7.007-1.697
			C1407.539,117.23,1404.125,112.06,1404.125,106.082z"/>
	</g>
	<g>
		<circle fill="#36613F" cx="349.352" cy="92.461" r="22.406"/>
	</g>
	<g>
		<circle fill="#36613F" cx="1285.245" cy="146.947" r="22.406"/>
	</g>
	<g>
		<path fill="#7DA887" d="M242.166,294.809c0,7.521-6.097,13.619-13.621,13.619c-7.524,0-13.623-6.098-13.623-13.619
			c0-7.523,6.098-13.625,13.623-13.625C236.069,281.184,242.166,287.285,242.166,294.809z"/>
	</g>
	<g>
		<path fill="#36613F" d="M1208.57,232.342c0,7.521-6.098,13.617-13.621,13.617s-13.621-6.097-13.621-13.617
			c0-7.523,6.098-13.624,13.621-13.624S1208.57,224.818,1208.57,232.342z"/>
	</g>
	<g>
		<circle fill="#36613F" cx="1396.271" cy="354.795" r="13.622"/>
	</g>
	<g>
		<circle fill="#36613F" cx="1414.935" cy="160.57" r="13.622"/>
	</g>
	<g>
		<circle fill="#7DA887" cx="1188.954" cy="92.463" r="13.622"/>
	</g>
	<g>
		<circle fill="#7DA887" cx="1097.349" cy="126.191" r="6.658"/>
	</g>
	<g>
		<path fill="#7DA887" d="M1268.575,70.055c0,3.676-2.981,6.657-6.656,6.657c-3.68,0-6.659-2.981-6.659-6.657
			c0-3.679,2.979-6.66,6.659-6.66C1265.594,63.395,1268.575,66.376,1268.575,70.055z"/>
	</g>
	<g>
		<circle fill="#7DA887" cx="1025.475" cy="42.29" r="6.658"/>
	</g>
	<g>
		<path fill="#7DA887" d="M1268.575,232.342c0,3.675-2.981,6.656-6.656,6.656c-3.68,0-6.659-2.981-6.659-6.656
			c0-3.68,2.979-6.66,6.659-6.66C1265.594,225.682,1268.575,228.662,1268.575,232.342z"/>
	</g>
	<g>
		<circle fill="#7DA887" cx="1347.252" cy="290.984" r="6.658"/>
	</g>
	<g>
		<circle fill="#7DA887" cx="1300.993" cy="419.514" r="6.658"/>
	</g>
	<g>
		<path fill="#7DA887" d="M388.72,160.568c0,3.676-2.981,6.656-6.658,6.656c-3.678,0-6.659-2.98-6.659-6.656
			c0-3.68,2.981-6.659,6.659-6.659C385.739,153.909,388.72,156.889,388.72,160.568z"/>
	</g>
	<g>
		<path fill="#7DA887" d="M417.983,48.948c0,3.677-2.981,6.656-6.658,6.656c-3.678,0-6.658-2.979-6.658-6.656
			c0-3.68,2.98-6.659,6.658-6.659C415.002,42.289,417.983,45.269,417.983,48.948z"/>
	</g>
	<g>
		<path fill="#7DA887" d="M221.581,207.221c0,3.678-2.98,6.656-6.655,6.656c-3.68,0-6.659-2.979-6.659-6.656
			s2.979-6.658,6.659-6.658C218.601,200.563,221.581,203.543,221.581,207.221z"/>
	</g>
	<g>
		<circle fill="#7DA887" cx="260.245" cy="361.45" r="6.658"/>
	</g>
	<g>
		<path fill="#36613F" d="M45.729,205.098c0,3.678-2.981,6.656-6.658,6.656c-3.678,0-6.659-2.979-6.659-6.656
			c0-3.68,2.981-6.658,6.659-6.658C42.748,198.439,45.729,201.418,45.729,205.098z"/>
	</g>
	<g>
		<circle fill="#36613F" cx="277.797" cy="281.187" r="6.659"/>
	</g>
	<g>
		<path fill="#36613F" d="M248.824,440.188c0,3.676-2.98,6.656-6.657,6.656c-3.677,0-6.659-2.98-6.659-6.656
			c0-3.68,2.981-6.659,6.659-6.659C245.844,433.528,248.824,436.508,248.824,440.188z"/>
	</g>
	<g>
		<path fill="#53855F" d="M99.038,641.861c0,3.676-2.981,6.656-6.658,6.656c-3.678,0-6.66-2.98-6.66-6.656
			c0-3.68,2.981-6.66,6.66-6.66C96.057,635.201,99.038,638.182,99.038,641.861z"/>
	</g>
	<g>
		<circle fill="#53855F" cx="107.334" cy="730.303" r="6.658"/>
	</g>
	<g>
		<circle fill="#53855F" cx="1353.91" cy="648.521" r="6.658"/>
	</g>
	<g>
		<circle fill="#53855F" cx="1409.892" cy="737.148" r="6.658"/>
	</g>
	<g>
		<path fill="#53855F" d="M1456.344,690.631c0,3.676-2.98,6.656-6.656,6.656c-3.68,0-6.659-2.98-6.659-6.656
			c0-3.68,2.979-6.66,6.659-6.66C1453.364,683.971,1456.344,686.951,1456.344,690.631z"/>
	</g>
	<g>
		<circle fill="#53855F" cx="65.135" cy="713.227" r="6.657"/>
	</g>
	<g>
		<path fill="#53855F" d="M49.671,680.031c0,5.854-4.745,10.6-10.597,10.6c-5.857,0-10.604-4.745-10.604-10.6
			s4.747-10.6,10.604-10.6C44.927,669.432,49.671,674.177,49.671,680.031z"/>
	</g>
	<g>
		<path fill="#53855F" d="M131.555,684.631c0,5.853-4.745,10.599-10.596,10.599c-5.858,0-10.603-4.746-10.603-10.599
			c0-5.855,4.745-10.602,10.603-10.602C126.81,674.029,131.555,678.775,131.555,684.631z"/>
	</g>
	<g>
		<path fill="#53855F" d="M1378.129,747.749c0,5.853-4.745,10.599-10.596,10.599c-5.857,0-10.603-4.746-10.603-10.599
			c0-5.855,4.745-10.601,10.603-10.601C1373.385,737.148,1378.129,741.894,1378.129,747.749z"/>
	</g>
	<g>
		<path fill="#53855F" d="M1451.097,656.036c0,5.854-4.745,10.599-10.596,10.599c-5.857,0-10.603-4.744-10.603-10.599
			s4.745-10.6,10.603-10.6C1446.352,645.437,1451.097,650.182,1451.097,656.036z"/>
	</g>
	<g>
		<path fill="#53855F" d="M1388.729,680.031c0,5.854-4.745,10.6-10.596,10.6c-5.858,0-10.603-4.745-10.603-10.6
			s4.745-10.6,10.603-10.6C1383.985,669.432,1388.729,674.177,1388.729,680.031z"/>
	</g>
	<g>
		<circle fill="#36613F" cx="1307.651" cy="259.584" r="6.659"/>
	</g>
	<g>
		<circle fill="#36613F" cx="1409.892" cy="461.837" r="6.658"/>
	</g>
	<g>
		<circle fill="#7DA887" cx="260.245" cy="63.397" r="6.66"/>
	</g>
	<g>
		<circle fill="#7DA887" cx="113.992" cy="354.793" r="6.659"/>
	</g>
	<g>
		<circle fill="#36613F" cx="1119.108" cy="63.397" r="6.658"/>
	</g>
	<g>
		<path fill="#7DA887" d="M1457.754,300.227c0,3.676-2.979,6.656-6.656,6.656c-3.681,0-6.659-2.98-6.659-6.656
			c0-3.679,2.979-6.66,6.659-6.66C1454.775,293.566,1457.754,296.548,1457.754,300.227z"/>
	</g>
	<g>
		<path fill="#7DA887" d="M1268.575,461.837c0,3.677-2.981,6.657-6.656,6.657c-3.68,0-6.659-2.98-6.659-6.657
			c0-3.679,2.979-6.659,6.659-6.659C1265.594,455.178,1268.575,458.158,1268.575,461.837z"/>
	</g>
	<g>
		<circle fill="#7DA887" cx="107.334" cy="266.665" r="13.622"/>
	</g>
	<g>
		<circle fill="#7DA887" cx="277.797" cy="146.949" r="13.621"/>
	</g>
	<g>
		<circle fill="#36613F" cx="311.954" cy="218.719" r="13.62"/>
	</g>
	<g>
		<path fill="#36613F" d="M193.445,337.282c0,7.521-6.099,13.618-13.623,13.618c-7.523,0-13.62-6.098-13.62-13.618
			c0-7.524,6.097-13.624,13.62-13.624C187.346,323.658,193.445,329.758,193.445,337.282z"/>
	</g>
	<g>
		<circle fill="#36613F" cx="207.066" cy="90.686" r="13.621"/>
	</g>
	<g>
		<circle fill="#7DA887" cx="1347.252" cy="198.441" r="13.621"/>
	</g>
	<g>
		<circle fill="#36613F" cx="1396.271" cy="266.665" r="13.622"/>
	</g>
	<g>
		<circle fill="#7DA887" cx="1347.252" cy="70.057" r="13.621"/>
	</g>
	<g>
		<circle fill="#7DA887" cx="1237.674" cy="294.809" r="13.622"/>
	</g>
	<g>
		<circle fill="#7DA887" cx="78.758" cy="165.463" r="13.621"/>
	</g>
	<g>
		<path fill="#FFFFFF" d="M808.771,293.848c0,5.256-4.261,9.518-9.52,9.518H689.585c-5.256,0-9.518-4.262-9.518-9.518l0,0
			c0-5.259,4.261-9.521,9.518-9.521H799.25C804.509,284.327,808.771,288.589,808.771,293.848L808.771,293.848z"/>
	</g>
	<g>
		<polygon fill="#36613F" points="164.042,270.121 168.666,260.015 160.484,252.494 171.523,253.77 176.145,243.662 
			178.347,254.557 189.388,255.83 179.707,261.29 181.906,272.184 173.723,264.663 		"/>
	</g>
	<g>
		<polygon fill="#36613F" points="326.322,55.176 315.346,53.424 310.288,63.318 308.563,52.339 297.588,50.59 307.498,45.555 
			305.772,34.574 313.622,42.443 323.53,37.412 318.473,47.307 		"/>
	</g>
	<g>
		<polygon fill="#36613F" points="100.527,98.688 89.551,96.937 84.492,106.832 82.77,95.852 71.793,94.102 81.705,89.068 
			79.979,78.088 87.828,85.957 97.737,80.924 92.679,90.82 		"/>
	</g>
	<g>
		<polygon fill="#36613F" points="1206.833,185.551 1202.338,175.387 1191.282,176.519 1199.562,169.104 1195.066,158.939 
			1204.678,164.521 1212.957,157.104 1210.617,167.97 1220.228,173.553 1209.171,174.686 		"/>
	</g>
	<g>
		<polygon fill="#36613F" points="1436.541,245.488 1436.945,234.383 1426.506,230.566 1437.194,227.518 1437.596,216.412 
			1443.799,225.635 1454.487,222.584 1447.633,231.332 1453.834,240.555 1443.396,236.74 		"/>
	</g>
	<g>
		<polygon fill="#36613F" points="1290.379,355.711 1290.783,344.605 1280.345,340.787 1291.033,337.739 1291.433,326.635 
			1297.638,335.855 1308.325,332.807 1301.47,341.555 1307.672,350.777 1297.233,346.963 		"/>
	</g>
	<g>
		<path fill="#7DA887" d="M615.616,504.537h-26.583c-2.539,0-4.597-2.058-4.597-4.597s2.058-4.597,4.597-4.597h26.583
			c2.539,0,4.597,2.058,4.597,4.597S618.154,504.537,615.616,504.537z"/>
	</g>
	<g>
		<path fill="#7DA887" d="M901.042,504.537h-26.581c-2.539,0-4.597-2.058-4.597-4.597s2.058-4.597,4.597-4.597h26.581
			c2.539,0,4.597,2.058,4.597,4.597S903.581,504.537,901.042,504.537z"/>
	</g>
	<g>
		<path fill="#7DA887" d="M1140.534,270.838c-2.539,0-4.597-2.058-4.597-4.597v-20.753c0-2.539,2.058-4.597,4.597-4.597
			s4.597,2.058,4.597,4.597v20.753C1145.131,268.78,1143.073,270.838,1140.534,270.838z"/>
	</g>
	<g>
		<path fill="#7DA887" d="M349.351,270.838c-2.539,0-4.597-2.058-4.597-4.597v-20.753c0-2.539,2.058-4.597,4.597-4.597
			s4.597,2.058,4.597,4.597v20.753C353.948,268.78,351.89,270.838,349.351,270.838z"/>
	</g>
	<g>
		<path fill="#36613F" d="M451.406,528.73c-0.518,0-1.043-0.088-1.558-0.273c-54.17-19.515-98.577-60.976-121.834-113.75
			c-1.024-2.323,0.029-5.036,2.353-6.06c2.323-1.024,5.037,0.029,6.06,2.353c22.248,50.482,64.724,90.142,116.538,108.809
			c2.388,0.86,3.627,3.494,2.767,5.882C455.055,527.564,453.289,528.73,451.406,528.73z"/>
	</g>
	<g>
		<path fill="#36613F" d="M1033.501,528.73c-1.883,0-3.649-1.166-4.325-3.04c-0.86-2.388,0.378-5.021,2.767-5.882
			c51.814-18.666,94.291-58.325,116.538-108.809c1.023-2.322,3.738-3.376,6.06-2.353c2.323,1.023,3.376,3.736,2.353,6.06
			c-23.257,52.775-67.664,94.235-121.834,113.75C1034.545,528.643,1034.019,528.73,1033.501,528.73z"/>
	</g>
</g>
</svg>
