<?xml version="1.0" encoding="utf-8"?>
<!-- Generator: Adobe Illustrator 15.1.0, SVG Export Plug-In . SVG Version: 6.00 Build 0)  -->
<!DOCTYPE svg PUBLIC "-//W3C//DTD SVG 1.1//EN" "http://www.w3.org/Graphics/SVG/1.1/DTD/svg11.dtd">
<svg version="1.1" id="Layer_1" xmlns="http://www.w3.org/2000/svg" xmlns:xlink="http://www.w3.org/1999/xlink" x="0px" y="0px"
	 width="568.475px" height="340.006px" viewBox="-1.089 0 568.475 340.006" enable-background="new -1.089 0 568.475 340.006"
	 xml:space="preserve">
<polyline fill="none" stroke="#F1EEDD" stroke-width="2" stroke-linecap="round" stroke-linejoin="round" stroke-miterlimit="10" points="
	0,1.103 566.336,1.103 566.336,338.952 0,338.952 0,1.103 "/>
<polyline fill="none" points="606.137,1.103 1172.475,1.103 1172.475,338.952 606.137,338.952 606.137,1.103 "/>
<g>
	
		<line fill="none" stroke="#F1EEDD" stroke-width="2" stroke-linecap="round" stroke-linejoin="round" stroke-miterlimit="10" x1="23.235" y1="286.562" x2="96.259" y2="286.562"/>
	
		<line fill="none" stroke="#F1EEDD" stroke-width="2" stroke-linecap="round" stroke-linejoin="round" stroke-miterlimit="10" x1="23.235" y1="290.545" x2="23.235" y2="282.576"/>
	
		<line fill="none" stroke="#F1EEDD" stroke-width="2" stroke-linecap="round" stroke-linejoin="round" stroke-miterlimit="10" x1="96.259" y1="290.545" x2="96.259" y2="282.576"/>
</g>
<g>
	
		<line fill="none" stroke="#F1EEDD" stroke-width="2" stroke-linecap="round" stroke-linejoin="round" stroke-miterlimit="10" x1="145.83" y1="241.612" x2="145.83" y2="284.37"/>
	
		<line fill="none" stroke="#F1EEDD" stroke-width="2" stroke-linecap="round" stroke-linejoin="round" stroke-miterlimit="10" x1="141.845" y1="241.612" x2="149.815" y2="241.612"/>
	
		<line fill="none" stroke="#F1EEDD" stroke-width="2" stroke-linecap="round" stroke-linejoin="round" stroke-miterlimit="10" x1="141.845" y1="284.37" x2="149.815" y2="284.37"/>
</g>
<g>
	
		<line fill="none" stroke="#F1EEDD" stroke-width="2" stroke-linecap="round" stroke-linejoin="round" stroke-miterlimit="10" x1="427.721" y1="252.114" x2="541.559" y2="252.114"/>
	
		<line fill="none" stroke="#F1EEDD" stroke-width="2" stroke-linecap="round" stroke-linejoin="round" stroke-miterlimit="10" x1="427.721" y1="256.097" x2="427.721" y2="248.127"/>
	
		<line fill="none" stroke="#F1EEDD" stroke-width="2" stroke-linecap="round" stroke-linejoin="round" stroke-miterlimit="10" x1="541.559" y1="256.097" x2="541.559" y2="248.127"/>
</g>
<g>
	
		<line fill="none" stroke="#F1EEDD" stroke-width="2" stroke-linecap="round" stroke-linejoin="round" stroke-miterlimit="10" x1="193.161" y1="92.191" x2="193.161" y2="224.536"/>
	
		<line fill="none" stroke="#F1EEDD" stroke-width="2" stroke-linecap="round" stroke-linejoin="round" stroke-miterlimit="10" x1="189.176" y1="92.191" x2="197.145" y2="92.191"/>
	
		<line fill="none" stroke="#F1EEDD" stroke-width="2" stroke-linecap="round" stroke-linejoin="round" stroke-miterlimit="10" x1="189.176" y1="224.536" x2="197.145" y2="224.536"/>
</g>
<g>
	
		<line fill="none" stroke="#F1EEDD" stroke-width="2" stroke-linecap="round" stroke-linejoin="round" stroke-miterlimit="10" x1="26.106" y1="31.522" x2="26.106" y2="160.629"/>
	
		<line fill="none" stroke="#F1EEDD" stroke-width="2" stroke-linecap="round" stroke-linejoin="round" stroke-miterlimit="10" x1="22.122" y1="31.522" x2="30.091" y2="31.522"/>
	
		<line fill="none" stroke="#F1EEDD" stroke-width="2" stroke-linecap="round" stroke-linejoin="round" stroke-miterlimit="10" x1="22.122" y1="160.629" x2="30.091" y2="160.629"/>
</g>
<line fill="none" stroke="#F1EEDD" stroke-width="2" stroke-linecap="round" stroke-linejoin="round" stroke-miterlimit="10" x1="427.721" y1="183.233" x2="541.559" y2="183.233"/>
<line fill="none" stroke="#F1EEDD" stroke-width="2" stroke-linecap="round" stroke-linejoin="round" stroke-miterlimit="10" x1="427.721" y1="190.578" x2="541.559" y2="190.578"/>
<line fill="none" stroke="#F1EEDD" stroke-width="2" stroke-linecap="round" stroke-linejoin="round" stroke-miterlimit="10" x1="427.721" y1="197.921" x2="541.559" y2="197.921"/>
<line fill="none" stroke="#F1EEDD" stroke-width="2" stroke-linecap="round" stroke-linejoin="round" stroke-miterlimit="10" x1="427.721" y1="205.266" x2="541.559" y2="205.266"/>
<line fill="none" stroke="#F1EEDD" stroke-width="2" stroke-linecap="round" stroke-linejoin="round" stroke-miterlimit="10" x1="427.721" y1="212.611" x2="541.559" y2="212.611"/>
<line fill="none" stroke="#F1EEDD" stroke-width="2" stroke-linecap="round" stroke-linejoin="round" stroke-miterlimit="10" x1="427.721" y1="219.954" x2="541.559" y2="219.954"/>
<line fill="none" stroke="#F1EEDD" stroke-width="2" stroke-linecap="round" stroke-linejoin="round" stroke-miterlimit="10" x1="429.11" y1="227.299" x2="540.17" y2="227.299"/>
<path fill="none" stroke="#F1EEDD" stroke-width="2" stroke-linecap="round" stroke-linejoin="round" stroke-miterlimit="10" d="
	M216.854,250.908c2.389,0,2.389,2.406,4.779,2.406c2.39,0,2.39-2.406,4.779-2.406c2.391,0,2.391,2.406,4.782,2.406
	c2.39,0,2.39-2.406,4.78-2.406c2.393,0,2.393,2.406,4.784,2.406c2.391,0,2.392-2.406,4.783-2.406"/>
<g>
	<path fill="none" stroke="#F1EEDD" stroke-width="2" stroke-linecap="round" stroke-linejoin="round" stroke-miterlimit="10" d="
		M366.424,233.145c2.391,0,2.391,2.406,4.779,2.406s2.389-2.406,4.777-2.406s2.389,2.406,4.777,2.406
		c2.391,0,2.391-2.406,4.781-2.406c2.393,0,2.393,2.406,4.785,2.406s2.393-2.406,4.787-2.406"/>
</g>
<path fill="none" stroke="#F1EEDD" stroke-width="2" stroke-linecap="round" stroke-linejoin="round" stroke-miterlimit="10" d="
	M469.583,44.958c2.389,0,2.389,2.407,4.779,2.407c2.389,0,2.389-2.407,4.779-2.407s2.391,2.407,4.781,2.407s2.391-2.407,4.781-2.407
	c2.393,0,2.393,2.407,4.783,2.407s2.393-2.407,4.785-2.407"/>
<path fill="none" stroke="#F1EEDD" stroke-width="2" stroke-linecap="round" stroke-linejoin="round" stroke-miterlimit="10" d="
	M313.311,292.565c2.389,0,2.389,2.407,4.777,2.407c2.391,0,2.391-2.407,4.781-2.407s2.391,2.407,4.781,2.407
	s2.391-2.407,4.779-2.407c2.393,0,2.393,2.407,4.785,2.407c2.391,0,2.391-2.407,4.783-2.407"/>
<path fill="none" stroke="#F1EEDD" stroke-width="2" stroke-linecap="round" stroke-linejoin="round" stroke-miterlimit="10" d="
	M313.311,301.818c2.389,0,2.389,2.407,4.777,2.407c2.391,0,2.391-2.407,4.781-2.407s2.391,2.407,4.781,2.407
	s2.391-2.407,4.779-2.407c2.393,0,2.393,2.407,4.785,2.407c2.391,0,2.391-2.407,4.783-2.407"/>
<path fill="none" stroke="#F1EEDD" stroke-width="2" stroke-linecap="round" stroke-linejoin="round" stroke-miterlimit="10" d="
	M150.05,158.638c2.389,0,2.389,2.407,4.778,2.407c2.39,0,2.39-2.407,4.78-2.407s2.39,2.407,4.781,2.407
	c2.39,0,2.39-2.407,4.78-2.407c2.392,0,2.392,2.407,4.784,2.407s2.392-2.407,4.783-2.407"/>
<path fill="none" stroke="#F1EEDD" stroke-width="2" stroke-linecap="round" stroke-linejoin="round" stroke-miterlimit="10" d="
	M289.022,156.787c2.389,0,2.389,2.406,4.777,2.406c2.391,0,2.391-2.406,4.779-2.406c2.391,0,2.391,2.406,4.782,2.406
	c2.39,0,2.39-2.406,4.78-2.406c2.393,0,2.393,2.406,4.783,2.406c2.393,0,2.393-2.406,4.783-2.406"/>
<path fill="none" stroke="#F1EEDD" stroke-width="2" stroke-linecap="round" stroke-linejoin="round" stroke-miterlimit="10" d="
	M274.799,128.463c2.389,0,2.389,2.407,4.778,2.407c2.39,0,2.39-2.407,4.78-2.407c2.39,0,2.39,2.407,4.781,2.407
	c2.39,0,2.39-2.407,4.78-2.407c2.392,0,2.392,2.407,4.783,2.407c2.393,0,2.393-2.407,4.783-2.407"/>
<path fill="none" stroke="#F1EEDD" stroke-width="2" stroke-linecap="round" stroke-linejoin="round" stroke-miterlimit="10" d="
	M156.189,79.672h150.04c42.961,0,77.787,34.827,77.787,77.787l0,0c0,42.961-34.826,77.789-77.787,77.789h-150.04
	c-42.96,0-77.788-34.827-77.788-77.789l0,0C78.401,114.499,113.229,79.672,156.189,79.672"/>
<polyline fill="none" stroke="#F1EEDD" stroke-width="2" stroke-linecap="round" stroke-linejoin="round" stroke-miterlimit="10" points="
	371.905,84.073 404.325,84.073 404.325,157.459 384.184,157.459 324.526,157.459 "/>
<polyline fill="none" stroke="#F1EEDD" stroke-width="2" stroke-linecap="round" stroke-linejoin="round" stroke-miterlimit="10" points="
	288.896,46.161 288.896,79.145 288.896,120.766 "/>
<line fill="none" stroke="#F1EEDD" stroke-width="2" stroke-linecap="round" stroke-linejoin="round" stroke-miterlimit="10" x1="327.747" y1="46.161" x2="289.133" y2="46.161"/>
<polyline fill="none" stroke="#F1EEDD" stroke-width="2" stroke-linecap="round" stroke-linejoin="round" stroke-miterlimit="10" points="
	197.788,79.672 193.052,39.998 126.393,39.998 117.679,89.954 "/>
<polyline fill="none" stroke="#F1EEDD" stroke-width="2" stroke-linecap="round" stroke-linejoin="round" stroke-miterlimit="10" points="
	70.626,42.183 70.626,64.976 41.157,64.976 41.157,88.786 73.943,88.786 73.943,120.766 54.755,120.766 54.755,159.841 
	78.569,159.841 141.845,159.841 "/>
<path fill="none" stroke="#F1EEDD" stroke-width="2" stroke-linecap="round" stroke-linejoin="round" stroke-miterlimit="10" d="
	M156.873,235.248h149.395c-9.221,20.917-26.964,37.229-48.832,44.532c0,0-10.782,4.186-25.866,4.186"/>
<path fill="none" stroke="#F1EEDD" stroke-width="2" stroke-linecap="round" stroke-linejoin="round" stroke-miterlimit="10" d="
	M156.873,235.248c12.647,28.689,41.331,48.718,74.697,48.718"/>
<path fill="none" stroke="#F1EEDD" stroke-width="2" stroke-linecap="round" stroke-linejoin="round" stroke-miterlimit="10" d="
	M171.034,235.24h121.073c-8.568,18.235-26.216,31.871-47.57,35.855c0,0-7.185,1.192-12.966,1.192"/>
<path fill="none" stroke="#F1EEDD" stroke-width="2" stroke-linecap="round" stroke-linejoin="round" stroke-miterlimit="10" d="
	M171.034,235.24c10.25,21.816,33.496,37.049,60.536,37.049"/>
<path fill="none" stroke="#F1EEDD" stroke-width="2" stroke-linecap="round" stroke-linejoin="round" stroke-miterlimit="10" d="
	M288.896,55.208c-4.997,0-9.047-4.05-9.047-9.047c0-4.996,4.05-9.045,9.047-9.045c4.996,0,9.047,4.049,9.047,9.045
	c0,2.631-1.124,5-2.917,6.652C295.026,52.814,292.77,55.208,288.896,55.208"/>
<path fill="none" stroke="#F1EEDD" stroke-width="2" stroke-linecap="round" stroke-linejoin="round" stroke-miterlimit="10" d="
	M370.479,93.12c-4.996,0-9.047-4.051-9.047-9.047s4.051-9.046,9.047-9.046s9.047,4.05,9.047,9.046c0,2.631-1.123,5-2.916,6.652
	C376.61,90.725,374.352,93.12,370.479,93.12"/>
<path fill="none" stroke="#F1EEDD" stroke-width="2" stroke-linecap="round" stroke-linejoin="round" stroke-miterlimit="10" d="
	M231.197,198.71c-4.997,0-9.047-4.05-9.047-9.047c0-4.996,4.05-9.045,9.047-9.045c4.996,0,9.047,4.049,9.047,9.045
	c0,2.631-1.124,5-2.917,6.652C237.328,196.316,235.071,198.71,231.197,198.71"/>
<path fill="none" stroke="#F1EEDD" stroke-width="2" stroke-linecap="round" stroke-linejoin="round" stroke-miterlimit="10" d="
	M327.747,55.208c4.996,0,9.047-4.05,9.047-9.047c0-4.996-4.051-9.045-9.047-9.045"/>
<path fill="none" stroke="#F1EEDD" stroke-width="2" stroke-linecap="round" stroke-linejoin="round" stroke-miterlimit="10" d="
	M327.295,66.313c11.131,0,20.15-9.021,20.15-20.151c0-11.129-9.02-20.15-20.15-20.15"/>
<path fill="none" stroke="#F1EEDD" stroke-width="2" stroke-linecap="round" stroke-linejoin="round" stroke-miterlimit="10" d="
	M70.626,53.769c-6.398,0-11.586-5.188-11.586-11.586c0-6.397,5.188-11.584,11.586-11.584s11.585,5.188,11.585,11.584
	c0,3.199-1.296,6.096-3.393,8.192C78.818,50.375,76.032,53.769,70.626,53.769"/>
<path fill="none" stroke="#F1EEDD" stroke-width="2" stroke-linecap="round" stroke-linejoin="round" stroke-miterlimit="10" d="
	M231.209,211.708c-12.176,0-22.045-9.869-22.045-22.045s9.869-22.047,22.045-22.047s22.046,9.871,22.046,22.047
	c0,9.494-5.999,17.583-14.414,20.688C238.841,210.352,236.337,211.708,231.209,211.708"/>
<g>
	
		<polyline fill="none" stroke="#F1EEDD" stroke-width="2" stroke-linecap="round" stroke-linejoin="round" stroke-miterlimit="10" points="
		231.198,136.397 231.198,189.663 327.655,286.122 	"/>
	
		<line fill="none" stroke="#F1EEDD" stroke-width="2" stroke-linecap="round" stroke-linejoin="round" stroke-miterlimit="10" x1="231.198" y1="136.334" x2="236.276" y2="141.412"/>
	
		<line fill="none" stroke="#F1EEDD" stroke-width="2" stroke-linecap="round" stroke-linejoin="round" stroke-miterlimit="10" x1="231.198" y1="136.334" x2="226.119" y2="141.412"/>
</g>
<line fill="none" stroke="#F1EEDD" stroke-width="2" stroke-linecap="round" stroke-linejoin="round" stroke-miterlimit="10" x1="102.712" y1="39.998" x2="215.442" y2="39.998"/>
<path fill="#F1EEDD" d="M80.504,255.5l13.112-13.113c2.138-2.136,2.138-5.604,0-7.739c-2.137-2.138-5.604-2.138-7.739-0.002
	l-7.886,7.883H36.778c-6.826,0-12.473,4.982-13.543,11.507h7.503c1.592,0,2.881,1.289,2.881,2.878c0,1.595-1.289,2.883-2.881,2.883
	h-7.227c1.557,5.88,6.897,10.213,13.268,10.213H79.53l6.347,6.347c2.135,2.138,5.602,2.138,7.739,0c2.138-2.136,2.138-5.604,0-7.741
	L80.504,255.5z M41.85,254.034c-1.98,0-3.584-1.606-3.584-3.583c0-1.981,1.604-3.586,3.584-3.586c1.979,0,3.583,1.604,3.583,3.586
	C45.434,252.427,43.83,254.034,41.85,254.034z"/>
<path fill="none" stroke="#F1EEDD" stroke-width="2" stroke-linecap="round" stroke-linejoin="round" stroke-miterlimit="10" d="
	M440.215,79.672h88.852c6.898,0,12.492,5.593,12.492,12.493v130.591c0,6.899-5.592,12.492-12.492,12.492h-88.852
	c-6.9,0-12.494-5.593-12.494-12.492V92.165C427.721,85.265,433.315,79.672,440.215,79.672"/>
<line fill="none" stroke="#F1EEDD" stroke-width="2" stroke-linecap="round" stroke-linejoin="round" stroke-miterlimit="10" x1="484.641" y1="157.459" x2="484.641" y2="55.208"/>
<line fill="none" stroke="#F1EEDD" stroke-width="2" stroke-linecap="round" stroke-linejoin="round" stroke-miterlimit="10" x1="529.686" y1="92.191" x2="548.139" y2="73.736"/>
<line fill="none" stroke="#F1EEDD" stroke-width="2" stroke-linecap="round" stroke-linejoin="round" stroke-miterlimit="10" x1="439.596" y1="92.191" x2="421.141" y2="73.736"/>
<g>
	
		<line fill="none" stroke="#F1EEDD" stroke-width="2" stroke-linecap="round" stroke-linejoin="round" stroke-miterlimit="10" x1="454.292" y1="107.671" x2="454.292" y2="168.768"/>
	
		<line fill="none" stroke="#F1EEDD" stroke-width="2" stroke-linecap="round" stroke-linejoin="round" stroke-miterlimit="10" x1="454.292" y1="107.601" x2="459.924" y2="113.235"/>
	
		<line fill="none" stroke="#F1EEDD" stroke-width="2" stroke-linecap="round" stroke-linejoin="round" stroke-miterlimit="10" x1="454.292" y1="107.601" x2="448.657" y2="113.235"/>
	
		<line fill="none" stroke="#F1EEDD" stroke-width="2" stroke-linecap="round" stroke-linejoin="round" stroke-miterlimit="10" x1="454.29" y1="169.728" x2="448.657" y2="164.094"/>
	
		<line fill="none" stroke="#F1EEDD" stroke-width="2" stroke-linecap="round" stroke-linejoin="round" stroke-miterlimit="10" x1="454.29" y1="169.728" x2="459.924" y2="164.094"/>
</g>
<g>
	
		<line fill="none" stroke="#F1EEDD" stroke-width="2" stroke-linecap="round" stroke-linejoin="round" stroke-miterlimit="10" x1="514.991" y1="107.671" x2="514.991" y2="168.768"/>
	
		<line fill="none" stroke="#F1EEDD" stroke-width="2" stroke-linecap="round" stroke-linejoin="round" stroke-miterlimit="10" x1="514.991" y1="107.601" x2="509.356" y2="113.235"/>
	
		<line fill="none" stroke="#F1EEDD" stroke-width="2" stroke-linecap="round" stroke-linejoin="round" stroke-miterlimit="10" x1="514.991" y1="107.601" x2="520.625" y2="113.235"/>
	
		<line fill="none" stroke="#F1EEDD" stroke-width="2" stroke-linecap="round" stroke-linejoin="round" stroke-miterlimit="10" x1="514.991" y1="169.728" x2="520.625" y2="164.094"/>
	
		<line fill="none" stroke="#F1EEDD" stroke-width="2" stroke-linecap="round" stroke-linejoin="round" stroke-miterlimit="10" x1="514.991" y1="169.728" x2="509.356" y2="164.094"/>
</g>
<line fill="none" stroke="#F1EEDD" stroke-width="2" stroke-linecap="round" stroke-linejoin="round" stroke-miterlimit="10" x1="231.57" y1="272.288" x2="231.57" y2="283.965"/>
<path fill="none" d="M634.86,258.286c14.436,0,14.436,11.614,28.869,11.614c14.439,0,14.439-11.614,28.877-11.614
	c14.441,0,14.441,11.614,28.885,11.614"/>
<g>
	<path fill="none" d="M901.94,256.935c2.389,0,2.389,2.406,4.777,2.406c2.391,0,2.391-2.406,4.779-2.406
		c2.391,0,2.391,2.406,4.783,2.406c2.389,0,2.389-2.406,4.779-2.406c2.393,0,2.393,2.406,4.783,2.406s2.393-2.406,4.783-2.406"/>
</g>
<g>
	<path fill="none" d="M930.768,266.188c2.389,0,2.389,2.406,4.777,2.406c2.391,0,2.391-2.406,4.781-2.406
		c2.389,0,2.389,2.406,4.781,2.406c2.389,0,2.389-2.406,4.779-2.406c2.393,0,2.393,2.406,4.783,2.406
		c2.393,0,2.393-2.406,4.785-2.406"/>
	<path fill="none" d="M901.94,266.188c2.389,0,2.389,2.406,4.777,2.406c2.391,0,2.391-2.406,4.779-2.406
		c2.391,0,2.391,2.406,4.783,2.406c2.389,0,2.389-2.406,4.779-2.406c2.393,0,2.393,2.406,4.783,2.406s2.393-2.406,4.783-2.406"/>
</g>
<g>
	<path fill="none" d="M1072.588,226.391c2.391,0,2.391,2.406,4.779,2.406c2.391,0,2.391-2.406,4.779-2.406
		c2.391,0,2.391,2.406,4.781,2.406s2.391-2.406,4.779-2.406c2.393,0,2.393,2.406,4.783,2.406s2.393-2.406,4.783-2.406"/>
</g>
<g>
	<path fill="none" d="M1101.417,235.646c2.391,0,2.391,2.407,4.779,2.407s2.389-2.407,4.779-2.407s2.391,2.407,4.779,2.407
		c2.393,0,2.393-2.407,4.781-2.407c2.393,0,2.393,2.407,4.783,2.407s2.391-2.407,4.781-2.407"/>
	<path fill="none" d="M1072.588,235.646c2.391,0,2.391,2.407,4.779,2.407c2.391,0,2.391-2.407,4.779-2.407
		c2.391,0,2.391,2.407,4.781,2.407s2.391-2.407,4.779-2.407c2.393,0,2.393,2.407,4.783,2.407s2.393-2.407,4.783-2.407"/>
</g>
<g>
	<path fill="none" d="M930.768,275.441c2.389,0,2.389,2.406,4.777,2.406c2.391,0,2.391-2.406,4.781-2.406
		c2.389,0,2.389,2.406,4.781,2.406c2.389,0,2.389-2.406,4.779-2.406c2.393,0,2.393,2.406,4.783,2.406
		c2.393,0,2.393-2.406,4.785-2.406"/>
	<path fill="none" d="M901.94,275.441c2.389,0,2.389,2.406,4.777,2.406c2.391,0,2.391-2.406,4.779-2.406
		c2.391,0,2.391,2.406,4.783,2.406c2.389,0,2.389-2.406,4.779-2.406c2.393,0,2.393,2.406,4.783,2.406s2.393-2.406,4.783-2.406"/>
</g>
<g>
	<path fill="none" d="M930.768,284.697c2.389,0,2.389,2.406,4.777,2.406c2.391,0,2.391-2.406,4.781-2.406
		c2.389,0,2.389,2.406,4.781,2.406c2.389,0,2.389-2.406,4.779-2.406c2.393,0,2.393,2.406,4.783,2.406
		c2.393,0,2.393-2.406,4.785-2.406"/>
	<path fill="none" d="M901.94,284.697c2.389,0,2.389,2.406,4.777,2.406c2.391,0,2.391-2.406,4.779-2.406
		c2.391,0,2.391,2.406,4.783,2.406c2.389,0,2.389-2.406,4.779-2.406c2.393,0,2.393,2.406,4.783,2.406s2.393-2.406,4.783-2.406"/>
</g>
<path fill="none" d="M1024.002,217.997c-49.043,0-88.801-39.758-88.801-88.803c0-49.043,39.758-88.802,88.801-88.802
	c49.045,0,88.803,39.759,88.803,88.802c0,37.771-23.58,70.031-56.82,82.868C1055.985,212.063,1039.825,217.997,1024.002,217.997"/>
<path fill="none" d="M829.67,217.997c-49.043,0-88.801-39.758-88.801-88.803c0-49.043,39.758-88.802,88.801-88.802
	s88.801,39.759,88.801,88.802c0,42.817-30.303,78.558-70.633,86.941C847.838,216.136,839.836,217.997,829.67,217.997"/>
<g>
	<path fill="none" d="M829.67,206.754c-42.869,0-77.559-34.689-77.559-77.561c0-42.869,34.689-77.559,77.559-77.559
		c42.871,0,77.561,34.689,77.561,77.559c0,35.855-24.266,65.988-57.287,74.891C849.942,204.084,842.836,206.754,829.67,206.754"/>
	<path fill="none" d="M829.67,193.84c-35.711,0-64.645-28.934-64.645-64.646c0-35.711,28.934-64.645,64.645-64.645
		c35.713,0,64.646,28.934,64.646,64.645c0,29.433-19.652,54.261-46.555,62.082C847.762,191.276,840.301,193.84,829.67,193.84"/>
	<path fill="none" d="M829.67,180.89c-28.592,0-51.691-23.103-51.691-51.695c0-28.591,23.1-51.693,51.691-51.693
		c28.594,0,51.693,23.103,51.693,51.693c0,24.438-16.875,44.866-39.633,50.285C841.731,179.48,837.2,180.89,829.67,180.89"/>
	<path fill="none" d="M829.67,167.976c-21.434,0-38.779-17.345-38.779-38.781c0-21.435,17.346-38.779,38.779-38.779
		c21.438,0,38.781,17.345,38.781,38.779c0,17.417-11.451,32.134-27.242,37.038C841.209,166.233,836.834,167.976,829.67,167.976"/>
	<path fill="none" d="M829.67,155.061c-14.275,0-25.865-11.589-25.865-25.866c0-14.276,11.588-25.864,25.865-25.864
		s25.867,11.588,25.867,25.864c0,11.729-7.82,21.643-18.527,24.809C837.01,154.003,833.883,155.061,829.67,155.061"/>
</g>
<line fill="none" x1="1082.823" y1="62.676" x2="1123.323" y2="22.177"/>
<line fill="none" x1="976.959" y1="204.543" x2="955.239" y2="226.264"/>
<line fill="none" x1="1090.708" y1="188.023" x2="1112.625" y2="209.941"/>
<line fill="none" x1="953.44" y1="183.105" x2="943.997" y2="192.548"/>
<path fill="none" d="M1039.67,41.772"/>
<g>
	<line fill="none" x1="1138.196" y1="40.134" x2="1138.196" y2="218.458"/>
	<line fill="none" x1="1134.211" y1="40.134" x2="1142.182" y2="40.134"/>
	<line fill="none" x1="1134.211" y1="218.458" x2="1142.182" y2="218.458"/>
</g>
<path fill="none" d="M1038.866,128.485c0,7.775-6.303,14.078-14.076,14.078c-7.775,0-14.078-6.302-14.078-14.078
	c0-7.773,6.303-14.077,14.078-14.077"/>
<g>
	<line fill="none" x1="1038.586" y1="121.84" x2="1044.221" y2="127.476"/>
	<line fill="none" x1="1038.586" y1="121.84" x2="1032.952" y2="127.476"/>
</g>
<line fill="none" x1="943.417" y1="166.534" x2="1104" y2="166.534"/>
<line fill="none" x1="1024.002" y1="189.674" x2="1024.002" y2="246.406"/>
<path fill="none" d="M1009.196,255.535c2.391,0,2.391,2.406,4.777,2.406c2.393,0,2.393-2.406,4.781-2.406
	c2.393,0,2.393,2.406,4.783,2.406c2.389,0,2.391-2.406,4.779-2.406c2.391,0,2.391,2.406,4.781,2.406
	c2.393,0,2.393-2.406,4.783-2.406"/>
<path fill="none" d="M1009.196,264.788c2.391,0,2.391,2.406,4.777,2.406c2.393,0,2.393-2.406,4.781-2.406
	c2.393,0,2.393,2.406,4.783,2.406c2.389,0,2.391-2.406,4.779-2.406c2.391,0,2.391,2.406,4.781,2.406
	c2.393,0,2.393-2.406,4.783-2.406"/>
<g>
	<path fill="none" d="M662.809,311.64c2.391,0,2.391,2.406,4.779,2.406s2.389-2.406,4.777-2.406s2.389,2.406,4.777,2.406
		c2.393,0,2.393-2.406,4.783-2.406c2.393,0,2.393,2.406,4.785,2.406s2.393-2.406,4.785-2.406"/>
</g>
<path fill="none" d="M894.401,217.294c2.389,0,2.389,2.407,4.777,2.407c2.391,0,2.391-2.407,4.779-2.407
	c2.393,0,2.393,2.407,4.783,2.407s2.391-2.407,4.779-2.407c2.393,0,2.393,2.407,4.783,2.407c2.393,0,2.393-2.407,4.783-2.407"/>
<path fill="none" d="M936.034,46.699c2.389,0,2.389,2.406,4.779,2.406s2.391-2.406,4.779-2.406c2.393,0,2.393,2.406,4.783,2.406
	c2.389,0,2.389-2.406,4.779-2.406c2.393,0,2.393,2.406,4.785,2.406c2.389,0,2.389-2.406,4.781-2.406"/>
<line fill="none" x1="1024.002" y1="129.195" x2="951.303" y2="56.495"/>
<g>
	<path fill="none" d="M793.809,300.902c-15.381,0-27.852-12.47-27.852-27.853c0-15.381,12.471-27.852,27.852-27.852
		c15.383,0,27.854,12.471,27.854,27.852c0,6.729-2.387,12.902-6.361,17.716C815.301,290.765,807.868,300.902,793.809,300.902"/>
	<path fill="none" d="M865.534,300.902c-15.383,0-27.854-12.47-27.854-27.853c0-15.381,12.471-27.852,27.854-27.852
		c15.381,0,27.852,12.471,27.852,27.852c0,9.108-4.373,17.194-11.131,22.277C882.252,295.327,876.749,300.902,865.534,300.902"/>
	<line fill="none" x1="793.809" y1="245.198" x2="865.534" y2="245.198"/>
	<line fill="none" x1="793.809" y1="300.902" x2="865.534" y2="300.902"/>
</g>
<g>
	<g>
		<line fill="none" x1="722.559" y1="230.7" x2="631.028" y2="230.7"/>
		<line fill="none" x1="722.559" y1="226.714" x2="722.559" y2="234.684"/>
		<line fill="none" x1="631.028" y1="226.714" x2="631.028" y2="234.684"/>
	</g>
	<path fill="none" d="M629.881,203.837c0,7.156,5.801,12.956,12.957,12.956h67.457c7.156,0,12.957-5.8,12.957-12.956V54.74
		c0-7.155-5.801-12.956-12.957-12.956h-67.457c-7.156,0-12.957,5.801-12.957,12.956V203.837z"/>
	<g>
		<line fill="none" x1="707.569" y1="129.289" x2="646.473" y2="129.289"/>
		<line fill="none" x1="707.639" y1="129.289" x2="702.004" y2="134.923"/>
		<line fill="none" x1="707.639" y1="129.289" x2="702.004" y2="123.654"/>
		<line fill="none" x1="645.51" y1="129.289" x2="651.147" y2="123.653"/>
		<line fill="none" x1="645.51" y1="129.289" x2="651.147" y2="134.923"/>
	</g>
</g>
<line fill="none" x1="781.129" y1="285.901" x2="806.151" y2="260.877"/>
<line fill="none" x1="847.838" y1="273.391" x2="883.225" y2="273.391"/>
<line fill="none" x1="781.129" y1="260.877" x2="806.151" y2="285.901"/>
<g>
	<line fill="none" x1="918.471" y1="26.716" x2="740.87" y2="26.716"/>
	<line fill="none" x1="918.471" y1="22.732" x2="918.471" y2="30.702"/>
	<line fill="none" x1="740.87" y1="22.732" x2="740.87" y2="30.702"/>
</g>
<line fill="none" x1="1024.002" y1="40.393" x2="1024.002" y2="24.07"/>
<line fill="none" x1="829.67" y1="129.195" x2="909.637" y2="209.163"/>
<g>
	<line fill="none" x1="722.559" y1="296.734" x2="631.028" y2="296.734"/>
	<line fill="none" x1="722.559" y1="292.75" x2="722.559" y2="300.717"/>
	<line fill="none" x1="631.028" y1="292.75" x2="631.028" y2="300.717"/>
</g>
<polyline fill="none" points="1120.797,246.842 1087.395,246.842 1087.395,261.187 1120.797,261.187 "/>
<line fill="none" x1="1087.395" y1="246.842" x2="1087.395" y2="261.187"/>
<line fill="none" x1="1091.518" y1="246.842" x2="1091.518" y2="260.584"/>
<line fill="none" x1="1095.641" y1="246.842" x2="1095.641" y2="260.584"/>
<line fill="none" x1="1099.764" y1="246.842" x2="1099.764" y2="260.584"/>
<line fill="none" x1="1103.887" y1="246.842" x2="1103.887" y2="260.584"/>
<line fill="none" x1="1108.01" y1="246.842" x2="1108.01" y2="260.584"/>
<line fill="none" x1="1112.133" y1="246.842" x2="1112.133" y2="261.187"/>
<path fill="none" d="M1116.719,246.842"/>
<path fill="none" d="M1120.797,246.842"/>
<polyline fill="none" points="1073.051,261.187 1073.051,246.842 1087.395,246.842 1087.395,261.187 1073.051,261.187 "/>
<polyline fill="none" points="1130.436,246.842 1130.436,261.187 1116.092,261.187 1116.092,246.842 1130.436,246.842 "/>
<path fill="none" d="M665.708,41.31V22.163c0-2.301-1.863-4.164-4.164-4.164h-8.572c-2.301,0-4.166,1.862-4.166,4.164V41.31"/>
<path fill="none" d="M705.702,41.31v-5.356c0-2.312-1.846-4.186-4.123-4.186h-4.787c-2.277,0-4.123,1.874-4.123,4.186v5.356"/>
<path fill="none" d="M665.708,82.944c-5.596,0-10.133-4.536-10.133-10.134c0-5.597,4.537-10.134,10.133-10.134
	c5.598,0,10.135,4.537,10.135,10.134c0,3.078-1.371,5.835-3.537,7.694C672.305,80.503,670.165,82.944,665.708,82.944"/>
<path fill="none" d="M669.754,191.275c-3.836,0-6.945-3.11-6.945-6.944c0-3.837,3.109-6.946,6.945-6.946s6.945,3.109,6.945,6.946
	c0,1.705-0.613,3.266-1.633,4.475C675.067,188.805,673,191.275,669.754,191.275"/>
<path fill="none" d="M695.487,105.793c-2.848,0-5.154-2.308-5.154-5.153c0-2.845,2.307-5.152,5.154-5.152
	c2.846,0,5.152,2.308,5.152,5.152c0,1.499-0.641,2.847-1.66,3.789C698.979,104.429,697.692,105.793,695.487,105.793"/>
</svg>
