<?xml version="1.0" encoding="utf-8"?>
<!-- Generator: Adobe Illustrator 15.1.0, SVG Export Plug-In . SVG Version: 6.00 Build 0)  -->
<!DOCTYPE svg PUBLIC "-//W3C//DTD SVG 1.1//EN" "http://www.w3.org/Graphics/SVG/1.1/DTD/svg11.dtd">
<svg version="1.1" id="Layer_1" xmlns="http://www.w3.org/2000/svg" xmlns:xlink="http://www.w3.org/1999/xlink" x="0px" y="0px"
	 width="432.775px" height="432.778px" viewBox="0 0 432.775 432.778" enable-background="new 0 0 432.775 432.778"
	 xml:space="preserve">
<g>
	<circle fill="#5C4B8A" cx="216.388" cy="216.577" r="216.388"/>
	<g>
		<circle fill="#F0F1AC" cx="311.391" cy="252.232" r="13.994"/>
		<path fill="#9680BB" d="M311.392,252.232c0,27.109-21.978,49.088-49.087,49.088h-47.186c-27.109,0-49.087-21.979-49.087-49.088
			l0,0c0-27.11,21.978-49.087,49.087-49.087h47.186C289.414,203.146,311.392,225.122,311.392,252.232L311.392,252.232z"/>
		<g>
			<path fill="#372759" d="M205.309,244.608c-5.905,0-10.709-4.805-10.709-10.71V113.625c0-5.905,4.804-10.709,10.709-10.709
				c5.905,0,10.709,4.804,10.709,10.709v120.273C216.018,239.804,211.214,244.608,205.309,244.608z"/>
			<path fill="#9680BB" d="M205.309,107.622c3.31,0,6.003,2.693,6.003,6.003v120.273c0,3.311-2.693,6.003-6.003,6.003
				s-6.002-2.692-6.002-6.003V113.625C199.306,110.315,201.999,107.622,205.309,107.622 M205.309,98.209
				c-8.515,0-15.416,6.902-15.416,15.416v120.273c0,8.515,6.901,15.416,15.416,15.416c8.514,0,15.416-6.901,15.416-15.416V113.625
				C220.725,105.111,213.823,98.209,205.309,98.209L205.309,98.209z"/>
		</g>
		<path fill="#BDA6D0" d="M247.105,214.098c0,21.33-17.289,38.617-38.618,38.617h-56.031c-21.33,0-38.62-17.287-38.62-38.617l0,0
			c0-21.331,17.29-38.62,38.62-38.62h56.031C229.816,175.478,247.105,192.767,247.105,214.098L247.105,214.098z"/>
		<g>
			<g>
				<path fill="#372759" d="M179.913,214.098c0-14.028,11.37-25.401,25.396-25.401c14.026,0,25.397,11.373,25.397,25.401
					c0,14.024-11.371,25.396-25.397,25.396C191.283,239.493,179.913,228.122,179.913,214.098z"/>
			</g>
			<g>
				<circle fill="#F0F1AC" cx="205.308" cy="214.098" r="9.646"/>
			</g>
		</g>
		<path fill="#372759" d="M123.87,240.054h28.155c1.121,0,2.029-0.907,2.029-2.029c0-1.119-0.908-2.026-2.029-2.026h-31.366
			C121.64,237.421,122.711,238.778,123.87,240.054z"/>
		<circle fill="#BDA6D0" cx="275.239" cy="271.955" r="33.075"/>
		<path fill="#BDA6D0" d="M288.119,297.166c0,4.344-3.521,7.865-7.865,7.865h-63.907c-4.344,0-7.865-3.521-7.865-7.865l0,0
			c0-4.344,3.521-7.864,7.865-7.864h63.907C284.598,289.302,288.119,292.822,288.119,297.166L288.119,297.166z"/>
		<path fill="#BDA6D0" d="M194.452,297.166c0,4.344-3.521,7.865-7.864,7.865h-23.173c-4.343,0-7.865-3.521-7.865-7.865l0,0
			c0-4.344,3.521-7.864,7.865-7.864h23.173C190.931,289.302,194.452,292.822,194.452,297.166L194.452,297.166z"/>
		<path fill="#BDA6D0" d="M186.371,303.876c-4.345,0-7.865-3.521-7.865-7.864v-23.173c0-4.344,3.52-7.865,7.865-7.865l0,0
			c4.343,0,7.864,3.521,7.864,7.865v23.173C194.235,300.355,190.714,303.876,186.371,303.876L186.371,303.876z"/>
		<circle fill="#F0F1AC" cx="113.836" cy="215.603" r="12.457"/>
	</g>
</g>
</svg>
