<?xml version="1.0" encoding="utf-8"?>
<!-- Generator: Adobe Illustrator 15.1.0, SVG Export Plug-In . SVG Version: 6.00 Build 0)  -->
<!DOCTYPE svg PUBLIC "-//W3C//DTD SVG 1.1//EN" "http://www.w3.org/Graphics/SVG/1.1/DTD/svg11.dtd">
<svg version="1.1" id="Layer_1" xmlns="http://www.w3.org/2000/svg" xmlns:xlink="http://www.w3.org/1999/xlink" x="0px" y="0px"
	 width="432.775px" height="432.778px" viewBox="0 0 432.775 432.778" enable-background="new 0 0 432.775 432.778"
	 xml:space="preserve">
<g>
	<circle fill="#DB7752" cx="216.066" cy="215.9" r="215.657"/>
	<g>
		<g>
			<path fill="#501E1E" d="M281.065,343.854c0,3.93-3.184,7.112-7.111,7.112l0,0c-3.928,0-7.111-3.183-7.111-7.112V237.997
				c0-3.93,3.184,4.126,7.111,4.126l0,0c3.928,0,7.111-8.056,7.111-4.126V343.854z"/>
			<path fill="#501E1E" d="M173.853,343.854c0,3.93-3.183,7.112-7.111,7.112l0,0c-3.927,0-7.11-3.183-7.11-7.112V237.997
				c0-3.93,3.183,4.126,7.11,4.126l0,0c3.928,0,7.111-8.056,7.111-4.126V343.854z"/>
			<path fill="#6B2B2B" d="M314.506,255.766c0,5.084-4.119,9.203-9.201,9.203H168.832c-5.081,0-9.201-4.119-9.201-9.203v-43.543
				c0-5.081,4.12-9.201,9.201-9.201h136.473c5.082,0,9.201,4.12,9.201,9.201V255.766z"/>
			<path fill="#6B2B2B" d="M207.294,343.854c0,3.93-3.185,7.112-7.111,7.112l0,0c-3.929,0-7.112-3.183-7.112-7.112V237.997
				c0-3.93,3.183,4.126,7.112,4.126l0,0c3.927,0,7.111-8.056,7.111-4.126V343.854z"/>
			<path fill="#6B2B2B" d="M314.506,343.854c0,3.93-3.185,7.112-7.111,7.112l0,0c-3.928,0-7.111-3.183-7.111-7.112V237.997
				c0-3.93,3.184,4.126,7.111,4.126l0,0c3.927,0,7.111-8.056,7.111-4.126V343.854z"/>
			<path fill="#6B2B2B" d="M336.799,208.589c0,3.075-2.492,5.566-5.568,5.566h-29.602c-3.074,0-5.567-2.491-5.567-5.566l0,0
				c0-3.076,2.493-5.567,5.567-5.567h29.602C334.307,203.021,336.799,205.513,336.799,208.589L336.799,208.589z"/>
			<path fill="#6B2B2B" d="M179.02,174.001c0,3.1-2.513,5.614-5.614,5.614h-57.779c-3.101,0-5.614-2.515-5.614-5.614v-18.072
				c0-3.102,2.513-5.615,5.614-5.615h57.779c3.101,0,5.614,2.514,5.614,5.615V174.001z"/>
			<path fill="#6B2B2B" d="M189.964,155.929c0-3.102-2.514-5.615-5.616-5.615h-19.104c-3.101,0-5.615,2.514-5.615,5.615v81.799
				c0,3.099,2.515,5.613,5.615,5.613h19.104c3.102,0,5.616-2.515,5.616-5.613V155.929z"/>
			<path fill="#994646" d="M275.404,214.155c0,1.538-1.248,2.783-2.784,2.783c-1.537,0-2.784-1.245-2.784-2.783
				c0-1.534,1.247-2.782,2.784-2.782C274.156,211.373,275.404,212.621,275.404,214.155z"/>
			<circle fill="#994646" cx="298.845" cy="229.163" r="2.784"/>
			<path fill="#994646" d="M301.629,212.704c0,1.538-1.247,2.784-2.783,2.784c-1.538,0-2.784-1.246-2.784-2.784
				c0-1.533,1.246-2.781,2.784-2.781C300.382,209.923,301.629,211.171,301.629,212.704z"/>
			<circle fill="#994646" cx="213.059" cy="215.606" r="2.784"/>
			<circle fill="#994646" cx="243.379" cy="227.831" r="2.783"/>
			<path fill="#994646" d="M276.737,235.903c0,1.533-1.246,2.781-2.783,2.781c-1.538,0-2.784-1.248-2.784-2.781
				c0-1.541,1.246-2.785,2.784-2.785C275.491,233.118,276.737,234.362,276.737,235.903z"/>
			<circle fill="#994646" cx="259.38" cy="226.381" r="1.45"/>
			<path fill="#371616" d="M233.646,141.177c0,2.316-1.879,4.195-4.195,4.195h-46.235c-2.317,0-4.196-1.879-4.196-4.195l0,0
				c0-2.317,1.879-4.193,4.196-4.193h46.235C231.768,136.983,233.646,138.859,233.646,141.177L233.646,141.177z"/>
			<path fill="#371616" d="M270.689,141.177c0,2.316-1.877,4.195-4.193,4.195H220.26c-2.316,0-4.194-1.879-4.194-4.195l0,0
				c0-2.317,1.878-4.193,4.194-4.193h46.236C268.813,136.983,270.689,138.859,270.689,141.177L270.689,141.177z"/>
			<path fill="#371616" d="M229.623,145.372c-2.317,0-4.195-1.879-4.195-4.193V94.939c0-2.315,1.878-4.193,4.195-4.193l0,0
				c2.316,0,4.193,1.878,4.193,4.193v46.239C233.816,143.493,231.939,145.372,229.623,145.372L229.623,145.372z"/>
			<path fill="#371616" d="M229.572,121.128c-0.896,0.893-2.348,0.893-3.242,0l-17.865-17.869c-0.895-0.895-0.894-2.342,0.001-3.24
				l0,0c0.896-0.893,2.345-0.895,3.241,0l17.865,17.865C230.466,118.78,230.466,120.233,229.572,121.128L229.572,121.128z"/>
			<path fill="#371616" d="M230.043,139.836c-0.896-0.895-0.894-2.347,0-3.241l17.865-17.865c0.896-0.895,2.344-0.895,3.24,0l0,0
				c0.895,0.895,0.896,2.348,0.002,3.244l-17.865,17.862C232.389,140.731,230.938,140.731,230.043,139.836L230.043,139.836z"/>
			<path fill="#371616" d="M268.484,160.866c-0.896,0.895-2.348,0.895-3.242,0l-17.865-17.865c-0.896-0.896-0.894-2.345,0.002-3.24
				l0,0c0.895-0.895,2.344-0.897,3.24-0.003l17.865,17.866C269.377,158.521,269.377,159.97,268.484,160.866L268.484,160.866z"/>
			<path fill="#371616" d="M266.184,121.128c-0.894-0.9-0.893-2.348,0.002-3.244l17.865-17.865c0.895-0.895,2.344-0.893,3.238,0l0,0
				c0.896,0.896,0.896,2.346,0.004,3.24l-17.867,17.869C268.531,122.021,267.079,122.021,266.184,121.128L266.184,121.128z"/>
			<path fill="#371616" d="M267.938,106.902c-0.896,0.896-2.349,0.896-3.241,0l-17.865-17.866c-0.895-0.896-0.895-2.343,0.002-3.238
				l0,0c0.894-0.896,2.344-0.897,3.24-0.002l17.864,17.865C268.834,104.556,268.834,106.007,267.938,106.902L267.938,106.902z"/>
			<path fill="#371616" d="M266.843,145.372c-2.316,0-4.194-1.879-4.194-4.193V94.939c0-2.315,1.878-4.193,4.194-4.193l0,0
				c2.317,0,4.194,1.878,4.194,4.193v46.239C271.037,143.493,269.16,145.372,266.843,145.372L266.843,145.372z"/>
			<path fill="#371616" d="M117.61,141.177c0,2.316,1.879,4.195,4.194,4.195h46.237c2.317,0,4.195-1.879,4.195-4.195l0,0
				c0-2.317-1.877-4.193-4.195-4.193h-46.237C119.489,136.983,117.61,138.859,117.61,141.177L117.61,141.177z"/>
			<path fill="#371616" d="M80.566,141.177c0,2.316,1.878,4.195,4.194,4.195h46.236c2.317,0,4.195-1.879,4.195-4.195l0,0
				c0-2.317-1.878-4.193-4.195-4.193H84.76C82.444,136.983,80.566,138.859,80.566,141.177L80.566,141.177z"/>
			<path fill="#371616" d="M121.635,145.372c2.317,0,4.195-1.879,4.195-4.193V94.939c0-2.315-1.878-4.193-4.195-4.193l0,0
				c-2.318,0-4.194,1.878-4.194,4.193v46.239C117.44,143.493,119.317,145.372,121.635,145.372L121.635,145.372z"/>
			<path fill="#371616" d="M121.686,121.128c0.896,0.893,2.347,0.893,3.241,0l17.865-17.869c0.895-0.895,0.894-2.342-0.001-3.24l0,0
				c-0.895-0.893-2.346-0.895-3.24,0l-17.865,17.865C120.791,118.78,120.791,120.233,121.686,121.128L121.686,121.128z"/>
			<path fill="#371616" d="M121.214,139.836c0.895-0.895,0.894-2.347-0.002-3.241l-17.864-17.865c-0.896-0.895-2.344-0.895-3.24,0
				l0,0c-0.894,0.895-0.897,2.348-0.002,3.244l17.866,17.862C118.868,140.731,120.319,140.731,121.214,139.836L121.214,139.836z"/>
			<path fill="#371616" d="M82.773,160.866c0.896,0.895,2.347,0.895,3.241,0l17.865-17.865c0.896-0.896,0.895-2.345,0-3.24l0,0
				c-0.895-0.895-2.345-0.897-3.24-0.003l-17.865,17.866C81.879,158.521,81.879,159.97,82.773,160.866L82.773,160.866z"/>
			<path fill="#371616" d="M85.072,121.128c0.896-0.9,0.895-2.348,0-3.244l-17.865-17.865c-0.894-0.895-2.342-0.893-3.239,0l0,0
				c-0.895,0.896-0.897,2.346-0.002,3.24l17.865,17.869C82.727,122.021,84.178,122.021,85.072,121.128L85.072,121.128z"/>
			<path fill="#371616" d="M83.319,106.902c0.896,0.896,2.347,0.896,3.241,0l17.865-17.866c0.894-0.896,0.894-2.343-0.001-3.238l0,0
				c-0.896-0.896-2.346-0.897-3.24-0.002l-17.865,17.865C82.424,104.556,82.424,106.007,83.319,106.902L83.319,106.902z"/>
			<path fill="#371616" d="M84.414,145.372c2.317,0,4.194-1.879,4.194-4.193V94.939c0-2.315-1.877-4.193-4.194-4.193l0,0
				c-2.317,0-4.193,1.878-4.193,4.193v46.239C80.221,143.493,82.097,145.372,84.414,145.372L84.414,145.372z"/>
			<circle fill="#994646" cx="286.375" cy="221.607" r="1.451"/>
			<circle fill="#994646" cx="284.924" cy="237.353" r="1.45"/>
			<path fill="#994646" d="M229.623,224.929c0,0.803-0.65,1.452-1.45,1.452c-0.801,0-1.45-0.649-1.45-1.452
				c0-0.797,0.649-1.446,1.45-1.446C228.973,223.482,229.623,224.132,229.623,224.929z"/>
			<circle fill="#994646" cx="271.169" cy="247.301" r="1.451"/>
			<circle fill="#994646" cx="249.555" cy="214.155" r="1.449"/>
			<circle fill="#994646" cx="229.623" cy="212.704" r="1.45"/>
			<path fill="#6B2B2B" d="M189.964,136.139c0-3.103-2.514-5.617-5.616-5.617h-19.104c-3.101,0-5.615,2.515-5.615,5.617v28.353
				c0,3.104,2.515,5.614,5.615,5.614h19.104c3.102,0,5.616-2.511,5.616-5.614V136.139z"/>
			<path fill="#371616" d="M173.853,340.226v10.947c0,1.239-1.006,2.246-2.246,2.246h-9.73c-1.241,0-2.246-1.007-2.246-2.246
				v-10.947"/>
			<path fill="#371616" d="M207.294,340.226v10.947c0,1.239-1.007,2.246-2.247,2.246h-9.731c-1.239,0-2.245-1.007-2.245-2.246
				v-10.947"/>
			<path fill="#371616" d="M281.065,340.226v10.947c0,1.239-1.007,2.246-2.247,2.246h-9.729c-1.24,0-2.246-1.007-2.246-2.246
				v-10.947"/>
			<path fill="#371616" d="M314.506,340.226v10.947c0,1.239-1.006,2.246-2.246,2.246h-9.73c-1.24,0-2.246-1.007-2.246-2.246v-10.947
				"/>
			<path fill="#371616" d="M130.619,159.236c0,1.504-1.222,2.726-2.73,2.726h-15.147c-1.508,0-2.73-1.222-2.73-2.726v-6.191
				c0-1.511,1.222-2.731,2.73-2.731h15.147c1.508,0,2.73,1.221,2.73,2.731V159.236z"/>
			<circle fill="#6B2B2B" cx="114.219" cy="155.929" r="1.259"/>
			<circle fill="#6B2B2B" cx="120.853" cy="155.929" r="1.258"/>
		</g>
		<path fill="#6B2B2B" d="M172.729,156.204c-2.011,0-3.641-1.631-3.641-3.641l0,0c0-2.011,1.629-3.64,3.641-3.64h23.812
			c2.011,0,3.641,1.629,3.641,3.64l0,0c0,2.01-1.63,3.641-3.641,3.641H172.729z"/>
		<path fill="#371616" d="M332.619,349.845c0,1.718-1.395,3.111-3.113,3.111c-1.718,0-3.111-1.394-3.111-3.111
			c0-1.724,1.394-3.116,3.111-3.116C331.225,346.729,332.619,348.121,332.619,349.845z"/>
		<path fill="#371616" d="M341.869,349.845c0,1.718-1.393,3.111-3.111,3.111s-3.113-1.394-3.113-3.111
			c0-1.724,1.395-3.116,3.113-3.116S341.869,348.121,341.869,349.845z"/>
		<path fill="#371616" d="M336.854,341.089c0,1.721-1.391,3.114-3.111,3.114c-1.72,0-3.111-1.394-3.111-3.114
			c0-1.718,1.392-3.106,3.111-3.106C335.463,337.982,336.854,339.371,336.854,341.089z"/>
		<circle fill="#371616" cx="338.757" cy="332.891" r="3.112"/>
		<circle fill="#371616" cx="323.282" cy="228.271" r="3.113"/>
		<path fill="#371616" d="M346.885,341.089c0,1.721-1.393,3.114-3.112,3.114c-1.719,0-3.112-1.394-3.112-3.114
			c0-1.718,1.394-3.106,3.112-3.106C345.492,337.982,346.885,339.371,346.885,341.089z"/>
		<path fill="#371616" d="M351.12,349.845c0,1.718-1.393,3.111-3.112,3.111c-1.719,0-3.111-1.394-3.111-3.111
			c0-1.724,1.393-3.116,3.111-3.116C349.728,346.729,351.12,348.121,351.12,349.845z"/>
	</g>
	<circle fill="#F0F1AC" cx="163.185" cy="159.485" r="3.556"/>
	<circle fill="#DB7752" cx="177.408" cy="159.485" r="3.556"/>
	<path fill="#371616" d="M127.523,172.745c0,0.565-0.459,1.024-1.025,1.024h-11.254c-0.566,0-1.024-0.459-1.024-1.024l0,0
		c0-0.563,0.458-1.023,1.024-1.023h11.254C127.063,171.722,127.523,172.183,127.523,172.745L127.523,172.745z"/>
</g>
</svg>
