<?xml version="1.0" encoding="utf-8"?>
<!-- Generator: Adobe Illustrator 15.1.0, SVG Export Plug-In . SVG Version: 6.00 Build 0)  -->
<!DOCTYPE svg PUBLIC "-//W3C//DTD SVG 1.1//EN" "http://www.w3.org/Graphics/SVG/1.1/DTD/svg11.dtd">
<svg version="1.1" id="Layer_1" xmlns="http://www.w3.org/2000/svg" xmlns:xlink="http://www.w3.org/1999/xlink" x="0px" y="0px"
	 width="1404.969px" height="522.105px" viewBox="0 0 1404.969 522.105" enable-background="new 0 0 1404.969 522.105"
	 xml:space="preserve">
<g>
	<g>
		<g>
			<g>
				<path fill="#F1EEDD" d="M1036.625,422.504h-16v-30.738v-7.578V302.55c0-38.362-31.098-69.462-69.459-69.462
					c-38.365,0-69.463,31.1-69.463,69.462v81.638v7.578v30.738h-15.998c-5.576,0-10.102,4.516-10.102,10.096
					c0,5.582,4.523,10.105,10.102,10.105h38.732c2.354,0,4.518-0.813,6.232-2.164c2.188-1.336,3.572-3.486,3.813-6.885
					c0.037-0.35,0.058-0.699,0.058-1.059v-40.832h73.25v40.768c0,0.021-0.004,0.043-0.004,0.064c0,0.369,0.022,0.732,0.061,1.092
					c0.246,3.375,1.627,5.516,3.802,6.848c1.722,1.354,3.886,2.168,6.241,2.168h38.734c5.58,0,10.1-4.523,10.1-10.105
					C1046.725,427.02,1042.205,422.504,1036.625,422.504z M914.541,320.063c-7.447,0-13.482-6.037-13.482-13.479
					c0-7.443,6.035-13.477,13.482-13.477c7.439,0,13.48,6.031,13.48,13.477S921.98,320.063,914.541,320.063z M974.309,306.583
					c0-7.442,6.039-13.476,13.482-13.476c7.445,0,13.479,6.03,13.479,13.476s-6.031,13.479-13.479,13.479
					C980.348,320.063,974.309,314.025,974.309,306.583z"/>
			</g>
			<g enable-background="new    ">
				<path fill="#F1EEDD" d="M871.044,461.89c-8.572,0-11.774,4.028-11.774,8.159c0,13.53,37.699,7.23,37.699,33.053
					c0,12.602-8.882,20.45-25.925,20.45c-12.291,0-22.104-6.094-26.131-12.602c-0.519-0.826-0.827-1.858-0.827-2.893
					c0-3.099,2.479-5.577,5.475-5.577c2.272,0,3.513,1.239,4.545,2.271c4.338,4.339,9.813,7.852,16.938,7.852
					c9.398,0,13.943-3.1,13.943-9.504c0-15.08-37.699-8.158-37.699-33.052c0-10.226,7.334-18.901,23.756-18.901
					c10.328,0,19.314,3.821,23.446,9.709c0.62,0.931,1.031,2.065,1.031,3.306c0,2.996-2.479,5.475-5.576,5.475
					c-1.446,0-2.893-0.825-4.441-2.271C882.302,464.265,876.931,461.89,871.044,461.89z"/>
				<path fill="#F1EEDD" d="M920.003,504.03l-6.301,14.977c-0.931,2.169-2.893,3.925-5.577,3.925c-3.202,0-5.888-2.686-5.888-5.888
					c0-0.619,0.104-1.445,0.413-2.169l24.375-59.39c0.621-1.446,2.272-3.719,5.476-3.719c3.201,0,4.854,2.271,5.475,3.719
					l24.375,59.39c0.312,0.724,0.413,1.55,0.413,2.169c0,3.202-2.685,5.888-5.888,5.888c-2.687,0-4.647-1.756-5.577-3.925
					l-6.3-14.977H920.003z M932.501,471.392l-8.47,21.69h16.938L932.501,471.392z"/>
				<path fill="#F1EEDD" d="M998.398,508.265l-16.217-28.815v37.596c0,3.202-2.686,5.888-5.887,5.888
					c-3.202,0-5.888-2.686-5.888-5.888v-59.39c0-3.201,2.686-5.888,5.888-5.888c2.582,0,4.234,1.445,5.268,3.306l21.896,39.249
					l21.896-39.249c1.032-1.859,2.686-3.306,5.268-3.306c3.202,0,5.888,2.687,5.888,5.888v59.39c0,3.202-2.686,5.888-5.888,5.888
					c-3.201,0-5.887-2.686-5.887-5.888v-37.596l-16.217,28.815c-1.032,1.859-2.994,2.894-5.062,2.894
					C1001.395,511.157,999.432,510.124,998.398,508.265z"/>
				<path fill="#F1EEDD" d="M1047.564,516.218c0-4.646,2.479-6.92,6.816-6.92s6.714,2.272,6.714,6.92
					c0,4.545-2.376,6.714-6.714,6.714S1047.564,520.763,1047.564,516.218z"/>
			</g>
		</g>
		<g>
			<g>
				<path fill="#F1EEDD" d="M479.796,327.725v44.629h-52.991v-99.646h52.991v44.629h67.113v-64.317H292.658v179.542h67.054v-44.629
					h52.993v99.65h-52.993v-44.629h-67.054v64.313H546.91V327.725H479.796z M413.418,372.355h-13.705l-28.673-41.19v41.19
					l-11.328-0.006v-99.645h11.328v38.971l28.99-38.971h14.019l-35.725,48.816L413.418,372.355z M479.792,442.745h-41.66v44.838
					h-11.327v-99.649h52.987V442.745z"/>
			</g>
			<g>
				<rect x="438.131" y="284.27" fill="#F1EEDD" width="30.337" height="76.68"/>
			</g>
			<g>
				<rect x="371.039" y="399.497" fill="#F1EEDD" width="30.338" height="76.678"/>
			</g>
			<g>
				<rect x="438.131" y="398.467" fill="#F1EEDD" width="30.333" height="33.9"/>
			</g>
		</g>
		<g enable-background="new    ">
			<path fill="#F1EEDD" d="M730.308,374.631h-20.452v20.299c0,3.998-3.384,7.383-7.381,7.383c-3.999,0-7.381-3.385-7.381-7.383
				v-20.299H674.64c-3.844,0-7.073-3.229-7.073-7.072c0-3.845,3.229-7.074,7.073-7.074h20.453v-20.452
				c0-3.998,3.384-7.382,7.381-7.382c3.998,0,7.382,3.384,7.382,7.382v20.452h20.451c3.846,0,7.074,3.229,7.074,7.074
				C737.381,371.403,734.152,374.631,730.308,374.631z"/>
		</g>
	</g>
</g>
<g>
	<g>
		<path fill="#F1EEDD" d="M509.521,165.425l-3.033,7.21c-0.448,1.045-1.394,1.89-2.687,1.89c-1.542,0-2.834-1.293-2.834-2.834
			c0-0.299,0.05-0.696,0.199-1.045l11.736-28.594c0.298-0.696,1.094-1.79,2.635-1.79s2.337,1.094,2.636,1.79l11.736,28.594
			c0.148,0.349,0.199,0.746,0.199,1.045c0,1.541-1.292,2.834-2.834,2.834c-1.293,0-2.238-0.845-2.686-1.89l-3.034-7.21H509.521z
			 M515.538,149.71l-4.078,10.443h8.155L515.538,149.71z"/>
		<path fill="#F1EEDD" d="M554.521,150.854c4.575,0,7.211,2.287,8.105,3.431c0.398,0.547,0.547,0.945,0.547,1.542
			c0,1.343-1.044,2.387-2.387,2.387c-0.796,0-1.394-0.348-1.84-0.846c-0.646-0.696-1.939-1.939-4.427-1.939
			c-3.48,0-5.37,2.687-5.37,7.36c0,4.773,1.89,7.409,5.37,7.409c2.287,0,3.779-1.145,4.923-1.989
			c0.548-0.397,0.995-0.497,1.492-0.497c1.344,0,2.388,1.044,2.388,2.387c0,0.696-0.249,1.293-0.846,1.84
			c-1.144,1.045-3.879,2.835-7.956,2.835c-6.764,0-10.793-3.879-10.793-11.984S547.759,150.854,554.521,150.854z"/>
		<path fill="#F1EEDD" d="M577.047,174.773c-6.713,0-10.891-3.829-10.891-11.935c0-8.155,4.177-11.984,10.891-11.984
			s10.891,3.829,10.891,11.984C587.938,170.944,583.76,174.773,577.047,174.773z M577.047,155.429c-3.581,0-5.47,2.486-5.47,7.41
			c0,4.873,1.89,7.359,5.47,7.359s5.47-2.486,5.47-7.359C582.518,157.915,580.627,155.429,577.047,155.429z"/>
		<path fill="#F1EEDD" d="M597.235,141.405v27.252c0,0.597,0.597,0.895,0.944,0.895c1.393,0,2.486,1.094,2.486,2.486
			c0,1.392-1.094,2.486-2.486,2.486c-3.879,0-6.315-2.188-6.315-6.365v-26.754c0-1.491,1.193-2.686,2.686-2.686
			S597.235,139.914,597.235,141.405z"/>
		<path fill="#F1EEDD" d="M609.318,141.405v27.252c0,0.597,0.597,0.895,0.944,0.895c1.393,0,2.486,1.094,2.486,2.486
			c0,1.392-1.094,2.486-2.486,2.486c-3.879,0-6.315-2.188-6.315-6.365v-26.754c0-1.491,1.193-2.686,2.686-2.686
			S609.318,139.914,609.318,141.405z"/>
		<path fill="#F1EEDD" d="M619.71,157.518c-0.498,0.349-0.896,0.497-1.492,0.497c-1.293,0-2.337-1.044-2.337-2.337
			c0-0.547,0.199-1.144,0.646-1.641c1.392-1.542,3.879-3.183,8.154-3.183c6.168,0,9.847,3.033,9.847,8.305v12.73
			c0,1.441-1.193,2.635-2.636,2.635c-1.441,0-2.636-1.193-2.636-2.635c-1.343,2.138-3.53,2.884-6.515,2.884
			c-4.873,0-8.105-3.033-8.105-7.509c0-4.625,3.729-7.012,8.057-7.012h6.515v-0.896c0-2.237-1.641-3.729-4.524-3.729
			C622.495,155.628,620.954,156.623,619.71,157.518z M629.208,165.822v-1.394h-5.818c-2.188,0-3.381,1.045-3.381,2.835
			c0,1.89,1.343,3.033,4.127,3.033C626.771,170.298,629.208,168.607,629.208,165.822z"/>
		<path fill="#F1EEDD" d="M660.188,162.839c0,8.105-3.929,11.935-10.643,11.935c-6.017,0-10.294-3.332-10.294-9.945v-23.423
			c0-1.491,1.193-2.686,2.687-2.686c1.491,0,2.685,1.193,2.685,2.686v11.438c0.995-0.994,3.083-1.988,5.47-1.988
			C656.357,150.854,660.188,154.732,660.188,162.839z M644.622,164.828c0,3.431,2.039,5.37,4.923,5.37
			c3.432,0,5.321-2.486,5.321-7.359c0-4.924-1.939-7.41-5.321-7.41c-2.984,0-4.923,2.536-4.923,2.536V164.828z"/>
		<path fill="#F1EEDD" d="M674.009,174.773c-6.713,0-10.891-3.829-10.891-11.935c0-8.155,4.177-11.984,10.891-11.984
			s10.892,3.829,10.892,11.984C684.9,170.944,680.723,174.773,674.009,174.773z M674.009,155.429c-3.58,0-5.47,2.486-5.47,7.41
			c0,4.873,1.89,7.359,5.47,7.359c3.581,0,5.47-2.486,5.47-7.359C679.479,157.915,677.59,155.429,674.009,155.429z"/>
		<path fill="#F1EEDD" d="M694.197,154.086c0.945-1.938,3.281-3.183,5.371-3.183c1.393,0,2.535,1.145,2.535,2.536
			c0,1.393-1.144,2.537-2.535,2.537c-3.432,0-5.371,2.188-5.371,5.52v10.344c0,1.491-1.193,2.685-2.686,2.685
			s-2.686-1.193-2.686-2.685v-18.002c0-1.492,1.193-2.686,2.686-2.686s2.686,1.193,2.686,2.686V154.086z"/>
		<path fill="#F1EEDD" d="M708.368,157.518c-0.497,0.349-0.896,0.497-1.491,0.497c-1.293,0-2.337-1.044-2.337-2.337
			c0-0.547,0.198-1.144,0.646-1.641c1.393-1.542,3.879-3.183,8.154-3.183c6.167,0,9.848,3.033,9.848,8.305v12.73
			c0,1.441-1.193,2.635-2.637,2.635c-1.44,0-2.635-1.193-2.635-2.635c-1.344,2.138-3.531,2.884-6.516,2.884
			c-4.873,0-8.105-3.033-8.105-7.509c0-4.625,3.73-7.012,8.057-7.012h6.515v-0.896c0-2.237-1.642-3.729-4.525-3.729
			C711.153,155.628,709.612,156.623,708.368,157.518z M717.866,165.822v-1.394h-5.818c-2.188,0-3.381,1.045-3.381,2.835
			c0,1.89,1.343,3.033,4.127,3.033C715.431,170.298,717.866,168.607,717.866,165.822z"/>
		<path fill="#F1EEDD" d="M729.648,147.373c0-1.442,1.193-2.636,2.637-2.636s2.636,1.192,2.636,2.636v4.177h2.238
			c1.241,0,2.237,0.995,2.237,2.238s-0.996,2.237-2.237,2.237h-2.238v12.035c0,1.144,0.994,1.79,1.89,1.79
			c1.293,0,2.338,1.044,2.338,2.337s-1.045,2.337-2.338,2.337c-4.426,0-7.16-2.834-7.16-6.763v-11.736h-1.145
			c-1.243,0-2.236-0.994-2.236-2.237s0.993-2.238,2.236-2.238h1.145v-4.177H729.648z"/>
		<path fill="#F1EEDD" d="M742.876,145.334c0-2.287,1.146-3.282,3.185-3.282c2.088,0,3.231,0.995,3.231,3.282
			c0,1.939-1.146,3.133-3.231,3.133C744.021,148.467,742.876,147.273,742.876,145.334z M748.745,171.84
			c0,1.491-1.194,2.685-2.687,2.685c-1.491,0-2.686-1.193-2.686-2.685v-18.002c0-1.492,1.193-2.686,2.686-2.686
			c1.491,0,2.687,1.193,2.687,2.686V171.84z"/>
		<path fill="#F1EEDD" d="M763.563,174.773c-6.714,0-10.891-3.829-10.891-11.935c0-8.155,4.177-11.984,10.891-11.984
			c6.715,0,10.892,3.829,10.892,11.984C774.453,170.944,770.276,174.773,763.563,174.773z M763.563,155.429
			c-3.58,0-5.47,2.486-5.47,7.41c0,4.873,1.89,7.359,5.47,7.359c3.582,0,5.471-2.486,5.471-7.359
			C769.032,157.915,767.145,155.429,763.563,155.429z"/>
		<path fill="#F1EEDD" d="M798.47,159.507v12.432c0,1.492-1.192,2.586-2.686,2.586c-1.592,0-2.687-1.094-2.687-2.586v-11.438
			c0-2.834-1.143-4.773-4.375-4.773c-3.729,0-4.974,2.188-4.974,5.122v11.089c0,1.492-1.144,2.586-2.685,2.586
			c-1.543,0-2.687-1.094-2.687-2.586v-18.101c0-1.492,1.193-2.686,2.687-2.686c1.49,0,2.685,1.193,2.685,2.686
			c0.944-1.442,3.034-2.983,6.365-2.983C796.878,150.854,798.47,155.181,798.47,159.507z"/>
		<path fill="#F1EEDD" d="M835.365,162.839c0,8.105-3.93,11.935-10.643,11.935c-6.018,0-10.294-3.332-10.294-9.945v-23.423
			c0-1.491,1.193-2.686,2.687-2.686c1.49,0,2.685,1.193,2.685,2.686v11.438c0.995-0.994,3.084-1.988,5.472-1.988
			C831.536,150.854,835.365,154.732,835.365,162.839z M819.8,164.828c0,3.431,2.039,5.37,4.924,5.37c3.433,0,5.32-2.486,5.32-7.359
			c0-4.924-1.938-7.41-5.32-7.41c-2.983,0-4.924,2.536-4.924,2.536V164.828z"/>
		<path fill="#F1EEDD" d="M844.563,172.535l-7.657-17.653c-0.101-0.248-0.199-0.597-0.199-1.044c0-1.492,1.192-2.686,2.686-2.686
			s2.238,1.044,2.486,1.69l5.471,13.825l5.472-13.825c0.248-0.646,0.994-1.69,2.485-1.69s2.686,1.193,2.686,2.686
			c0,0.447-0.099,0.796-0.198,1.044l-9.25,20.886c-2.188,4.874-5.32,8.354-10.294,8.354c-1.442,0-2.586-1.044-2.586-2.486
			c0-1.441,1.144-2.486,2.586-2.486C841.431,179.149,842.923,176.613,844.563,172.535z"/>
	</g>
</g>
<g>
	<g>
		<g>
			<path fill="#F1EEDD" d="M141.325,486.28c-7.798,0-11.847-3.134-15.419-5.897c-3.365-2.604-6.271-4.853-12.363-4.853
				c-6.084,0-8.987,2.248-12.348,4.852c-3.57,2.765-7.616,5.898-15.411,5.898c-7.797,0-11.844-3.134-15.415-5.898
				c-3.363-2.604-6.267-4.852-12.354-4.852c-6.086,0-8.99,2.248-12.352,4.852c-3.57,2.765-7.616,5.898-15.411,5.898
				c-7.793,0-11.838-3.134-15.407-5.898c-3.36-2.604-6.263-4.852-12.346-4.852c-1.381,0-2.5-1.119-2.5-2.5
				c0-1.382,1.119-2.5,2.5-2.5c7.793,0,11.839,3.134,15.408,5.897c3.36,2.604,6.262,4.853,12.345,4.853
				c6.085,0,8.988-2.248,12.349-4.853c3.57-2.765,7.617-5.897,15.413-5.897c7.797,0,11.844,3.134,15.415,5.897
				c3.363,2.604,6.267,4.853,12.354,4.853c6.085,0,8.988-2.248,12.349-4.853c3.569-2.765,7.615-5.897,15.41-5.897
				c7.801,0,11.851,3.134,15.423,5.897c3.364,2.604,6.269,4.853,12.359,4.853c6.091,0,8.997-2.249,12.36-4.854
				c3.572-2.764,7.621-5.896,15.42-5.896c1.381,0,2.5,1.118,2.5,2.5c0,1.381-1.119,2.5-2.5,2.5c-6.091,0-8.996,2.248-12.36,4.852
				C153.174,483.146,149.125,486.28,141.325,486.28z"/>
		</g>
		<g>
			<path fill="#F1EEDD" d="M83.043,438.689c-1.381,0-2.5-1.119-2.5-2.5v-89.136c0-1.381,1.119-2.5,2.5-2.5h153.861
				c1.381,0,2.5,1.119,2.5,2.5c0,1.382-1.119,2.5-2.5,2.5H85.543v86.636C85.543,437.57,84.424,438.689,83.043,438.689z"/>
		</g>
	</g>
</g>
<g>
	<g>
		<g>
			<path fill="#F1EEDD" d="M1183.699,521.758c-1.381,0-2.5-1.119-2.5-2.5V234.097c0-1.381,1.119-2.5,2.5-2.5s2.5,1.119,2.5,2.5
				v285.161C1186.199,520.639,1185.08,521.758,1183.699,521.758z"/>
		</g>
		<g>
			<path fill="#F1EEDD" d="M1233.338,236.597h-99.271c-1.382,0-2.5-1.119-2.5-2.5c0-1.381,1.118-2.5,2.5-2.5h99.271
				c1.381,0,2.5,1.119,2.5,2.5C1235.838,235.478,1234.719,236.597,1233.338,236.597z"/>
		</g>
		<g>
			<path fill="#F1EEDD" d="M1233.338,521.758h-99.271c-1.382,0-2.5-1.119-2.5-2.5s1.118-2.5,2.5-2.5h99.271
				c1.381,0,2.5,1.119,2.5,2.5S1234.719,521.758,1233.338,521.758z"/>
		</g>
	</g>
</g>
<g>
	<g>
		<g>
			<path fill="#F1EEDD" d="M898.986,48.31H484.966c-1.381,0-2.5-1.119-2.5-2.5c0-1.381,1.119-2.5,2.5-2.5h414.021
				c1.381,0,2.5,1.119,2.5,2.5C901.487,47.191,900.367,48.31,898.986,48.31z"/>
		</g>
		<g>
			<path fill="#F1EEDD" d="M861.279,86.489c-0.641,0-1.279-0.244-1.769-0.732c-0.977-0.977-0.977-2.56,0-3.536l38.188-38.179
				c0.977-0.976,2.559-0.976,3.535,0c0.976,0.976,0.977,2.56,0,3.536l-38.188,38.179C862.559,86.245,861.919,86.489,861.279,86.489z
				"/>
		</g>
		<g>
			<path fill="#F1EEDD" d="M899.467,48.31c-0.64,0-1.279-0.244-1.768-0.732L859.512,9.389c-0.977-0.976-0.977-2.559,0-3.535
				c0.978-0.977,2.56-0.977,3.535,0l38.188,38.189c0.977,0.976,0.977,2.559,0,3.535C900.746,48.066,900.105,48.31,899.467,48.31z"/>
		</g>
		<g>
			<path fill="#F1EEDD" d="M478.447,48.31c-0.641,0-1.279-0.244-1.769-0.732c-0.977-0.976-0.977-2.559,0-3.535L514.87,5.85
				c0.977-0.977,2.559-0.977,3.536,0c0.977,0.976,0.977,2.559,0,3.535l-38.19,38.193C479.727,48.066,479.087,48.31,478.447,48.31z"
				/>
		</g>
		<g>
			<path fill="#F1EEDD" d="M516.638,86.489c-0.64,0-1.278-0.244-1.768-0.732l-38.19-38.179c-0.977-0.976-0.977-2.559,0-3.536
				c0.978-0.976,2.561-0.976,3.536,0l38.19,38.179c0.977,0.977,0.977,2.56,0,3.536C517.917,86.245,517.277,86.489,516.638,86.489z"
				/>
		</g>
	</g>
</g>
</svg>
