<?xml version="1.0" encoding="utf-8"?>
<!-- Generator: Adobe Illustrator 16.0.0, SVG Export Plug-In . SVG Version: 6.00 Build 0)  -->
<!DOCTYPE svg PUBLIC "-//W3C//DTD SVG 1.1//EN" "http://www.w3.org/Graphics/SVG/1.1/DTD/svg11.dtd">
<svg version="1.1" id="Layer_1" xmlns="http://www.w3.org/2000/svg" xmlns:xlink="http://www.w3.org/1999/xlink" x="0px" y="0px"
	 width="170px" height="116.527px" viewBox="-26.293 0 170 116.527" enable-background="new -26.293 0 170 116.527"
	 xml:space="preserve">
<g>
	<g>
		<path fill="#F1EEDD" d="M58.941,116.527c-32.127,0-58.265-26.137-58.265-58.265C0.676,26.135,26.814,0,58.941,0
			c1.381,0,2.5,1.119,2.5,2.5S60.322,5,58.941,5C29.571,5,5.677,28.894,5.677,58.264c0,29.369,23.896,53.264,53.265,53.264
			c29.37,0,53.265-23.895,53.265-53.264c0-1.382,1.119-2.5,2.5-2.5s2.5,1.118,2.5,2.5C117.205,90.39,91.068,116.527,58.941,116.527z
			"/>
	</g>
	<g>
		<g>
			<path fill="#F1EEDD" d="M135.914,56.766c-0.641,0-1.279-0.244-1.769-0.732L111.824,33.71c-0.976-0.977-0.976-2.559,0-3.536
				c0.977-0.976,2.559-0.976,3.536,0l22.319,22.324c0.979,0.978,0.979,2.56,0,3.536C137.192,56.521,136.552,56.766,135.914,56.766z"
				/>
		</g>
		<g>
			<path fill="#F1EEDD" d="M91.272,56.766c-0.64,0-1.278-0.244-1.769-0.732c-0.977-0.976-0.977-2.559,0-3.536l22.32-22.324
				c0.977-0.977,2.559-0.976,3.535,0c0.977,0.977,0.977,2.56,0,3.536L93.041,56.033C92.552,56.521,91.912,56.766,91.272,56.766z"/>
		</g>
	</g>
</g>
</svg>
