<?xml version="1.0" encoding="UTF-8" standalone="no"?>
<svg width="478px" height="258px" viewBox="0 0 478 258" version="1.1" xmlns="http://www.w3.org/2000/svg" xmlns:xlink="http://www.w3.org/1999/xlink" xmlns:sketch="http://www.bohemiancoding.com/sketch/ns">
    <!-- Generator: Sketch 3.1.1 (8761) - http://www.bohemiancoding.com/sketch -->
    <title>Layer_2</title>
    <desc>Created with Sketch.</desc>
    <defs></defs>
    <g id="Page-1" stroke="none" stroke-width="1" fill="none" fill-rule="evenodd" sketch:type="MSPage">
        <g id="gnogLogo" sketch:type="MSLayerGroup" transform="translate(0.000000, 1.000000)">
            <g id="Layer_2" sketch:type="MSShapeGroup">
                <path d="M393.4,256.1 L75,256.1 C57.5,256.1 43.3,241.9 43.3,224.4 L43.3,104 L425,104 L425,224.5 C425,241.9 410.8,256.1 393.4,256.1 L393.4,256.1 Z" id="Shape" fill="#8B4B9B"></path>
                <path d="M104.9,33 L104.9,138.4 L16.2,138.4 L16.2,27.5 L104.9,33 Z" id="Shape" fill="#A8596D"></path>
                <path d="M21.1,93.4 L21.1,68.6 L0.3,68.6 L0.3,112.7 L0.3,129.5 C0.3,144.6 12.5,156.8 27.6,156.8 L81.8,156.8 L92.3,156.8 C108.5,156.8 121.7,143.7 121.7,127.4 L121.7,112.6 L40.5,112.6 C29.7,112.7 21.1,104 21.1,93.4 L21.1,93.4 Z" id="Shape" fill="#FFA37B"></path>
                <path d="M116.2,18.9 C116.2,11.1 109.9,4.8 102.1,4.8 L74.4,4.8 L53,4.8 L29.2,4.8 C13.2,4.8 0.2,17.8 0.2,33.8 L0.2,77.6 C0.2,83.5 5,88.3 10.9,88.3 L10.9,88.3 C16.8,88.3 21.6,83.5 21.6,77.6 L21.6,60.2 C21.6,45.2 33.7,33.1 48.7,33.1 L102,33.1 C109.9,33 116.2,26.7 116.2,18.9 L116.2,18.9 L116.2,18.9 Z" id="Shape" fill="#FFEF7B"></path>
                <path d="M450.8,33 L450.8,138.4 L361.9,138.4 L361.9,27.5 L450.8,33 Z" id="Shape" fill="#A8596D"></path>
                <path d="M366.8,93.4 L366.8,68.6 L346,68.6 L346,112.7 L346,129.5 C346,144.6 358.2,156.8 373.3,156.8 L427.5,156.8 L438,156.8 C454.2,156.8 467.4,143.7 467.4,127.4 L467.4,112.6 L386.2,112.6 C375.4,112.7 366.8,104 366.8,93.4 L366.8,93.4 Z" id="Shape" fill="#FFA37B"></path>
                <path d="M461.9,18.9 C461.9,11.1 455.6,4.8 447.8,4.8 L420.1,4.8 L398.6,4.8 L374.9,4.8 C358.9,4.8 345.9,17.8 345.9,33.8 L345.9,77.6 C345.9,83.5 350.7,88.3 356.6,88.3 L356.6,88.3 C362.5,88.3 367.3,83.5 367.3,77.6 L367.3,60.2 C367.3,45.2 379.4,33.1 394.4,33.1 L447.7,33.1 C455.6,33 461.9,26.7 461.9,18.9 L461.9,18.9 L461.9,18.9 Z" id="Shape" fill="#FFEF7B"></path>
                <path d="M211.1,22.6 L211.1,72 C211.1,76.9 207.1,80.9 202.2,80.9 L202.2,80.9 C197.3,80.9 193.3,76.9 193.3,72 L193.3,16.7 L150.4,16.7 L150.4,105.6 L164.6,105.6 C171.9,105.6 177.8,111.5 177.8,118.8 L177.8,138 C177.8,148.4 186.2,156.8 196.6,156.8 L219.1,156.8 C230.9,156.8 240.5,147.2 240.5,135.4 L240.5,87.6 L240.5,81 L240.5,22.7 L211.1,22.7 L211.1,22.6 Z" id="Shape" fill="#45CBB8"></path>
                <path d="M211.1,22.6 L211.1,72 C211.1,76.9 207.1,80.9 202.2,80.9 L202.2,80.9 C197.3,80.9 193.3,76.9 193.3,72 L193.3,16.7 L150.4,16.7 L150.4,105.6 L164.6,105.6 C171.9,105.6 177.8,111.5 177.8,118.8 L177.8,127.4 C177.8,137.8 186.2,146.2 196.6,146.2 L219.1,146.2 C230.9,146.2 240.5,136.6 240.5,124.8 L240.5,87.5 L240.5,80.9 L240.5,22.6 L211.1,22.6 L211.1,22.6 Z" id="Shape" fill="#45CBB8"></path>
                <path d="M193.3,16.7 C193.3,7.4 185.8,-0.2 176.4,-0.2 L159.5,-0.2 L153.5,-0.2 C141.6,-0.2 131.9,9.5 131.9,21.4 L131.9,33.5 L131.9,143 C131.9,150.6 138.1,156.8 145.7,156.8 L145.7,156.8 C153.3,156.8 159.5,150.6 159.5,143 L159.5,43.9 C159.5,38.2 164.1,33.6 169.8,33.6 L176.4,33.6 C185.8,33.6 193.3,26.1 193.3,16.7 L193.3,16.7 L193.3,16.7 Z" id="Shape" fill="#7EE2E1"></path>
                <path d="M225.8,-0.1 L225.8,-0.1 C217.7,-0.1 211.1,6.5 211.1,14.6 L211.1,103.9 C211.1,112 217.7,118.6 225.8,118.6 L225.8,118.6 C233.9,118.6 240.5,112 240.5,103.9 L240.5,14.6 C240.5,6.5 233.9,-0.1 225.8,-0.1 L225.8,-0.1 Z" id="Shape" fill="#7EE2E1"></path>
                <path d="M324.1,155.8 L262.5,155.8 C250.4,155.8 240.6,146 240.6,133.9 L240.6,22.8 C240.6,10.7 250.4,0.9 262.5,0.9 L324.1,0.9 C336.2,0.9 346,10.7 346,22.8 L346,134 C346,146 336.2,155.8 324.1,155.8 L324.1,155.8 Z" id="Shape" fill="#D793D5"></path>
                <path d="M324.1,155.8 L262.5,155.8 C250.4,155.8 240.6,146 240.6,133.9 L240.6,22.8 C240.6,10.7 250.4,0.9 262.5,0.9 L324.1,0.9 C336.2,0.9 346,10.7 346,22.8 L346,134 C346,146 336.2,155.8 324.1,155.8 L324.1,155.8 Z" id="Shape" fill="#D793D5"></path>
                <path d="M306.9,134 L279.6,134 C270,134 262.1,126.2 262.1,116.5 L262.1,40.2 C262.1,30.6 269.9,22.7 279.6,22.7 L306.9,22.7 C316.5,22.7 324.4,30.5 324.4,40.2 L324.4,116.5 C324.3,126.1 316.5,134 306.9,134 L306.9,134 Z" id="Shape" fill="#E76597"></path>
                <path d="M346,70.3 L324.4,70.3 L324.4,76.1 C324.4,88 334.1,97.7 346,97.7 L346,97.7 L346,70.3 L346,70.3 Z" id="Shape" fill="#C889D6"></path>
                <path d="M240.5,70.3 L262.1,70.3 L262.1,76.1 C262.1,88 252.4,97.7 240.5,97.7 L240.5,97.7 L240.5,70.3 L240.5,70.3 Z" id="Shape" fill="#C889D6"></path>
                <path d="M324.1,0.9 L262.5,0.9 C250.4,0.9 240.6,10.7 240.6,22.8 L240.6,70.3 L346,70.3 L346,22.8 C346,10.7 336.2,0.9 324.1,0.9 L324.1,0.9 Z" id="Shape" fill="#C889D6"></path>
                <path d="M306.9,134 L279.6,134 C270,134 262.1,126.2 262.1,116.5 L262.1,40.2 C262.1,30.6 269.9,22.7 279.6,22.7 L306.9,22.7 C316.5,22.7 324.4,30.5 324.4,40.2 L324.4,116.5 C324.3,126.1 316.5,134 306.9,134 L306.9,134 Z" id="Shape" fill="#E76597"></path>
                <path d="M301.6,121.6 L285,121.6 C279.3,121.6 274.6,116.9 274.6,111.2 L274.6,45.5 C274.6,39.8 279.3,35.1 285,35.1 L301.6,35.1 C307.3,35.1 312,39.8 312,45.5 L312,111.2 C312,116.9 307.3,121.6 301.6,121.6 L301.6,121.6 Z" id="Shape" fill="#A82C6D"></path>
                <path d="M301.9,97.7 L284.5,97.7 C279,97.7 274.5,102.2 274.5,107.7 L274.5,111.6 C274.5,117.1 279,121.6 284.5,121.6 L301.9,121.6 C307.4,121.6 311.9,117.1 311.9,111.6 L311.9,107.7 C312,102.2 307.5,97.7 301.9,97.7 L301.9,97.7 Z" id="Shape" fill="#7EE2E1"></path>
                <path d="M301.6,104.5 L284.9,104.5 C283.5,104.5 282.3,105.7 282.3,107.1 L282.3,112.1 C282.3,113.5 283.5,114.7 284.9,114.7 L301.6,114.7 C303,114.7 304.2,113.5 304.2,112.1 L304.2,107.1 C304.2,105.7 303,104.5 301.6,104.5 L301.6,104.5 Z" id="Shape" fill="#C8E2EA"></path>
                <g id="Group" transform="translate(61.000000, 179.000000)">
                    <path d="M18.4,61.7 C9.5,61.7 2.3,54.5 2.3,45.6 L2.3,18.2 C2.3,9.3 9.5,2.1 18.4,2.1 L326.3,2.1 C335.2,2.1 342.4,9.3 342.4,18.2 L342.4,45.6 C342.4,54.5 335.2,61.7 326.3,61.7 L18.4,61.7 L18.4,61.7 Z" id="Shape" fill="#4E0A54"></path>
                    <path d="M326.3,4.2 C334,4.2 340.3,10.5 340.3,18.2 L340.3,45.6 C340.3,53.3 334,59.6 326.3,59.6 L18.4,59.6 C10.7,59.6 4.4,53.3 4.4,45.6 L4.4,18.2 C4.4,10.5 10.7,4.2 18.4,4.2 L326.3,4.2 L326.3,4.2 Z M326.3,0 L18.4,0 C8.3,0 0.2,8.2 0.2,18.2 L0.2,45.6 C0.2,55.7 8.4,63.8 18.4,63.8 L326.3,63.8 C336.4,63.8 344.5,55.6 344.5,45.6 L344.5,18.2 C344.5,8.2 336.3,0 326.3,0 L326.3,0 L326.3,0 Z" id="Shape" fill="#CB8CDA"></path>
                </g>
                <g id="Group" transform="translate(96.000000, 183.000000)">
                    <path d="M24.1,29.2 L8.8,29.2 C3.8,29.2 -0.3,25.1 -0.3,20.1 L-0.3,0.2 L33.2,0.2 L33.2,20.1 C33.2,25.1 29.1,29.2 24.1,29.2 L24.1,29.2 Z" id="Shape" fill="#FFEF7B"></path>
                    <path d="M85.4,29.2 L70.1,29.2 C65.1,29.2 61,25.1 61,20.1 L61,0.2 L94.5,0.2 L94.5,20.1 C94.4,25.1 90.4,29.2 85.4,29.2 L85.4,29.2 Z" id="Shape" fill="#FFEF7B"></path>
                    <path d="M146.6,29.2 L131.3,29.2 C126.3,29.2 122.2,25.1 122.2,20.1 L122.2,0.2 L155.7,0.2 L155.7,20.1 C155.7,25.1 151.7,29.2 146.6,29.2 L146.6,29.2 Z" id="Shape" fill="#FFEF7B"></path>
                    <path d="M207.9,29.2 L192.6,29.2 C187.6,29.2 183.5,25.1 183.5,20.1 L183.5,0.2 L217,0.2 L217,20.1 C217,25.1 213,29.2 207.9,29.2 L207.9,29.2 Z" id="Shape" fill="#7EE1E1"></path>
                    <path d="M269.2,29.2 L253.9,29.2 C248.9,29.2 244.8,25.1 244.8,20.1 L244.8,0.2 L278.3,0.2 L278.3,20.1 C278.3,25.1 274.2,29.2 269.2,29.2 L269.2,29.2 Z" id="Shape" fill="#FFEF7B"></path>
                </g>
                <path d="M109.4,112.7 L109.4,88.3 L85.7,88.3 L85.7,112.7 L88.1,112.7 C96.1,112.7 102.5,119.2 102.5,127.1 L102.5,127.1 C102.5,135.1 96,141.5 88.1,141.5 L3,141.5 C7.4,150.6 16.7,156.8 27.5,156.8 L81.7,156.8 L92.2,156.8 C107.7,156.8 120.4,144.8 121.5,129.5 L121.5,112.7 L109.4,112.7 L109.4,112.7 Z" id="Shape" fill="#FFC1AB"></path>
                <path d="M455.2,112.7 L455.2,88.3 L431.5,88.3 L431.5,112.7 L433.9,112.7 C441.9,112.7 448.3,119.2 448.3,127.1 L448.3,127.1 C448.3,135.1 441.8,141.5 433.9,141.5 L348.8,141.5 C353.2,150.6 362.5,156.8 373.3,156.8 L427.5,156.8 L438,156.8 C453.5,156.8 466.2,144.8 467.3,129.5 L467.3,112.7 L455.2,112.7 L455.2,112.7 Z" id="Shape" fill="#FFC1AB"></path>
                <path d="M119.4,75.9 L75,75.9 C65.8,75.9 58.3,83.4 58.3,92.6 L58.3,94.8 C58.3,104.7 66.3,112.7 76.2,112.7 L111.3,112.7 L111.3,115.7 C111.3,121.5 116,126.1 121.7,126.1 L121.7,126.1 C127.5,126.1 132.1,121.4 132.1,115.7 L132.1,112.7 L132.1,106.6 L132.1,88.6 C132,81.5 126.4,75.9 119.4,75.9 L119.4,75.9 Z" id="Shape" fill="#FFEF7B"></path>
                <path d="M465.1,75.9 L420.7,75.9 C411.5,75.9 404,83.4 404,92.6 L404,94.8 C404,104.7 412,112.7 421.9,112.7 L457,112.7 L457,115.7 C457,121.5 461.7,126.1 467.4,126.1 L467.4,126.1 C473.2,126.1 477.8,121.4 477.8,115.7 L477.8,112.7 L477.8,106.6 L477.8,88.6 C477.7,81.5 472.1,75.9 465.1,75.9 L465.1,75.9 Z" id="Shape" fill="#FFEF7B"></path>
                <path d="M22.4,156.3 L22.4,141.5 L19.2,141.5 C8.8,141.5 0.3,133 0.3,122.6 L0.3,129.5 C0.3,142.8 9.8,153.9 22.4,156.3 L22.4,156.3 Z" id="Shape" fill="#FFC1AB"></path>
                <path d="M368.1,156.3 L368.1,141.5 L364.9,141.5 C354.5,141.5 346,133 346,122.6 L346,129.5 C346,142.8 355.5,153.9 368.1,156.3 L368.1,156.3 Z" id="Shape" fill="#FFC1AB"></path>
                <path d="M114.7,101 L76.2,101 C72.3,101 69.1,97.8 69.1,93.9 L69.1,93.9 C69.1,90 72.3,86.8 76.2,86.8 L114.7,86.8 C118.6,86.8 121.8,90 121.8,93.9 L121.8,93.9 C121.8,97.8 118.6,101 114.7,101 L114.7,101 Z" id="Shape" fill="#A8596D"></path>
                <path d="M460.1,101 L421.6,101 C417.7,101 414.5,97.8 414.5,93.9 L414.5,93.9 C414.5,90 417.7,86.8 421.6,86.8 L460.1,86.8 C464,86.8 467.2,90 467.2,93.9 L467.2,93.9 C467.2,97.8 464,101 460.1,101 L460.1,101 Z" id="Shape" fill="#A8596D"></path>
                <circle id="Oval" fill="#FFA37B" cx="76.1" cy="94.1" r="7.1"></circle>
                <circle id="Oval" fill="#FFA37B" cx="422.1" cy="94.1" r="7.1"></circle>
            </g>
        </g>
    </g>
</svg>