<?xml version="1.0" encoding="utf-8"?>
<!-- Generator: Adobe Illustrator 22.0.1, SVG Export Plug-In . SVG Version: 6.00 Build 0)  -->
<svg version="1.1" id="Layer_1" xmlns="http://www.w3.org/2000/svg" xmlns:xlink="http://www.w3.org/1999/xlink" x="0px" y="0px"
	 viewBox="0 0 478.1 525.2" style="enable-background:new 0 0 478.1 525.2;" xml:space="preserve">
<style type="text/css">
	.st0{fill:#4E4E95;}
	.st1{fill:#02DFFF;}
	.st2{fill:#FFFFFF;}
	.st3{fill:#12E070;}
	.st4{fill:#AF99E2;}
	.st5{fill:#FF4A6B;}
	.st6{fill:none;}
</style>
<g>
	<g>
		<path class="st0" d="M246.3,525.2c-115,0-185.2-96.8-187.8-100.6l56.7-27.6l-0.1-0.1c0.1,0.2,12.6,17.6,35.5,34.6
			c29.4,21.7,61.6,32.8,95.8,32.8c37.9,0,73.6-13.8,106.1-40.9c25.6-21.3,39.5-43.2,39.6-43.4l-0.1,0.1l51.9,32.1
			C440.9,416.6,372.4,525.2,246.3,525.2z"/>
	</g>
	<g>
		<g>
			<g>
				<g>
					<path class="st1" d="M433.9,233.5c0,127.1-83.2,230.1-185.8,230.1S62.3,360.6,62.3,233.5S145.5,3.4,248.1,3.4
						C350.7,3.4,433.9,106.4,433.9,233.5L433.9,233.5z"/>
				</g>
			</g>
			<g>
				<g>
					<path class="st0" d="M246.8,464.5c-103.6,0-187.9-104.1-187.9-232s84.3-232,187.9-232s187.9,104.1,187.9,232
						S350.5,464.5,246.8,464.5z M246.8,3.5c-102,0-184.9,102.7-184.9,229s82.9,229,184.9,229s184.9-102.7,184.9-229
						S348.8,3.5,246.8,3.5z"/>
					<path class="st0" d="M246.8,465C142.9,465,58.4,360.7,58.4,232.5S142.9,0,246.8,0s188.4,104.3,188.4,232.5S350.7,465,246.8,465
						z M246.8,1C143.5,1,59.4,104.9,59.4,232.5c0,127.7,84.1,231.5,187.4,231.5s187.4-103.9,187.4-231.5
						C434.2,104.8,350.2,1,246.8,1z M246.8,462C144.6,462,61.4,359,61.4,232.5S144.6,3,246.8,3s185.4,103,185.4,229.5
						S349.1,462,246.8,462z M246.8,4C145.2,4,62.4,106.5,62.4,232.5S145.1,461,246.8,461s184.4-102.5,184.4-228.5S348.5,4,246.8,4z"
						/>
				</g>
			</g>
			<g>
				<g>
					<path class="st2" d="M247.3,455c-48.1,0-93.2-23.2-127.2-65.3C86.4,347.8,67.8,292.2,67.8,233c0-59.1,18.6-114.8,52.3-156.7
						C154,34.2,199.2,11,247.3,11s93.2,23.2,127.2,65.3c33.7,41.9,52.3,97.5,52.3,156.7c0,59.1-18.6,114.8-52.3,156.7
						C340.5,431.9,295.3,455,247.3,455z M247.3,18.2c-95.1,0-172.4,96.4-172.4,214.9S152.3,448,247.3,448s172.4-96.4,172.4-214.9
						C419.7,114.6,342.3,18.2,247.3,18.2z"/>
				</g>
			</g>
		</g>
		<g>
			<g>
				<g>
					<polygon class="st3" points="263.5,240.7 262.9,231.9 289.5,233 281.2,198.1 269.6,206.5 257.4,209.8 249.7,207.1 271.2,190.8 
						271.5,190.2 203.9,176.2 208.3,181.7 211,192.7 196.7,192.7 179.6,182.8 156.4,180.6 151.9,189.9 166.3,202.6 147.8,212.1 
						128.7,226.7 95.1,219.2 92.3,226.4 95.1,231.4 105.6,239.1 126,241.3 126,247.9 99.5,244.6 89.5,245.2 90.7,255.1 98.9,260.3 
						112.7,263.4 130,261.2 137,271.7 154.2,286 184.5,295.7 213.8,296 234.5,290.2 253.6,275.5 260.7,258.4 277.3,265 283.4,261.2 
						279.5,246.8 					"/>
				</g>
			</g>
			<g>
				<g>
					<g>
						<path class="st2" d="M201.9,193.6c2.4-0.7,8.5,0.5,7.2,3.8c-0.3,0.8-0.7,1.1-1.4,1.5c-0.7,0.4-1.2,1-2.3,0.8
							c-1.6-0.2-3.3-1-4.5-1.9C199.1,196.3,198.6,194.5,201.9,193.6z"/>
					</g>
				</g>
				<g>
					<g>
						<path class="st2" d="M202.9,205.2c-0.1,0.2-0.1,0.5-0.2,0.7c-0.7,1.2-1.4,2.3-2.7,3.4c-0.9,3.4-2.9,7.2-3.7,11.6
							c-0.1,0.4-0.2,1-0.2,1.5c-0.4-0.4-0.5-0.7-0.9-1.2c-2.8-3.6-4.2-8.6-6.1-13.1c3.1-1.7,5.8-3.7,8.2-6.1
							C199.3,202.4,201.7,203.3,202.9,205.2z"/>
					</g>
				</g>
				<g>
					<g>
						<path class="st2" d="M161.6,205.2c1.1,3,1,7.2,3.2,9c-3.1,17.5,1.8,34.1,9.3,44.5c8.3,11.6,20.9,20.1,34.7,24.6
							c3.4,1.1,7.5,1.7,11.4,2.4c6.5,1.2,13,1.2,19.1,1.3c0.5,4.7-3.2,3.1-5.8,4.2c-1.7,0.8-2.1,2.6-3.4,3.4
							c-6,3.8-12.7,1.3-20.9,0.5c-2.5-0.2-4.6,0.2-6.6,0c-5.1-0.5-10.4-3.4-15.1-5.6c-13-6-24.7-17.7-30.5-31.5
							c-3.9-9.3-5.3-24.1-4.2-36.8c0.2-2.5,0.5-6,1.6-8.5c1-2.3,3.3-4.2,3.7-7.2C159.4,205.9,160.4,205.5,161.6,205.2z"/>
					</g>
				</g>
				<g>
					<g>
						<path class="st4" d="M147.8,212.1c-0.4,5.1-1.8,9.3-2.1,14.6c-1.1,19.1,2.4,35.1,10.6,47.2c5.7,8.4,14.1,14,20.9,19.9
							c-0.9,3-4.2,0.5-6.9,1.3c-5-2.6-8.4-6.8-12.2-10.6c-4.6,2.2-6.8-3.2-9.3-5.6c-0.6,0.5-1.7,0.6-2.9,0.5
							c-7-7.6-12.6-26.1-11.4-41.3c0.3-4-0.7-9.4,0.3-12.7c0.6-1.9,4-4.5,3.7-8C141.8,216,143.9,212.1,147.8,212.1z"/>
					</g>
				</g>
				<g>
					<g>
						<path class="st4" d="M182.8,211.9c3.9,15.5,10.4,28.3,20.7,37.4c2.4,4.3,5.2,8.1,9.5,10.3c1.8,1,4,0.8,6.1,1.6
							c3.4,1.2,6.4,4.1,10.6,5c2.4,0.5,5.1,0.6,7.7,1.1c5.8,1,12.5,1.8,19.9,1.9c-1.1,2.5-1.8,5.3-3.2,7.4
							c-5.7,2.4-12.8,3.6-21.2,2.9c-8.9-0.7-17.2-4.2-25.4-7.7c-17.2-7.4-27.6-18.5-33.1-37.4c-1.1-3.8-2.6-7.9-2.9-11.7
							c-0.2-1.9-0.4-4.9,0.3-6.4c1.6-3.4,7.6-2.3,10.9-4.5C182.6,211.9,182.7,211.9,182.8,211.9z"/>
					</g>
				</g>
				<g>
					<g>
						<path class="st2" d="M128.7,226.7c4,2.9-2.2,6-2.1,11.7c0,2.1,1.4,2.7-0.3,4.8c-1.8-1.2-3.3,0.3-5.3,0
							c-1.6-0.2-3.5-2.7-5.6-2.4c-0.9,0.1-0.8,1.3-2.1,1.1c-2.3-4.6,0.1-13.1,3.4-15.9c2.2,1.5,4.8,0.8,7.7,1.1
							c0.6,0.1,1.6,0,1.9,0.8C127.3,227.6,127.3,226.4,128.7,226.7z"/>
					</g>
				</g>
				<g>
					<g>
						<path class="st2" d="M261.2,236.5c0.4,1.6,1.3,5.4-1.3,5.3C260.3,240,260.8,238.3,261.2,236.5z"/>
					</g>
				</g>
				<g>
					<g>
						<path class="st2" d="M260.7,245.8c2,2.6-1.4,5.8-1.1,8.5c0.1,0.9,1.3,1.6,1.3,2.4c0.5,6.1-7.9,5.7-14.1,4.8
							c-1.7-2.6,3-3.3,4.6-5.1c2.1-2.4,5.2-7.2,6.7-8.8c0.5-0.5,1.7-0.8,1.3-1.8C259.8,245.8,260.3,245.8,260.7,245.8z"/>
					</g>
				</g>
				<g>
					<g>
						<path class="st2" d="M126.1,250.6c-0.1,4.7,1.1,8.8,3.9,10.6c-0.2,1-0.2,2.3-1.1,2.7c-1.1,0.5-2.2-0.2-2.6-1.1
							c-2.6,1-10.3,2.8-10.9,0.5c-0.9-3.4-3.1-11.6-0.8-14.8C118.8,249,123.5,248,126.1,250.6z"/>
					</g>
				</g>
				<g>
					<g>
						<path class="st2" d="M260.2,260.6c0.6,0.2-0.4,1-0.3,1.6c-0.2-0.1-0.4-0.3-0.8-0.3C259.3,261.3,260,261.2,260.2,260.6z"/>
					</g>
				</g>
			</g>
			<g>
				<g>
					<g>
						<path class="st0" d="M248,211.3c8.3,3.4,16.8-0.7,23.9-3.7c3.7-1.6,7.1-3.4,10.3-5.4l-1.3-5.5c-2.2,1.7-4.7,3.2-7.7,4.9
							c-5.5,3.1-10.7,6-18.3,6.1c6.9-5.1,14.2-9.9,19.4-16.8l-6.4-1.3c-1.5,1.6-3.2,3.2-4.8,4.8c-2.1,2-4.5,4-6.9,5.6
							c-5.3,3.5-11.8,5.9-10.1,15.4C246.5,213.7,246.6,211.8,248,211.3z"/>
					</g>
				</g>
				<g>
					<g>
						<path class="st0" d="M266.8,239.4c0.2-1.5-0.9-3.2-0.3-4.2c7.7,1.6,15.8,2,23.9,1.7l-1.3-5.4c-9.6,0.4-19.3-0.3-28.2-2.7
							c-2.3,1.1-4.1,2.7-4.8,5.6c0.6,1.1,2.1-2.5,3.7-1.3c0.5,5.8-0.9,11.1-3.2,15.1c-4.1,7.4-11.2,13.2-21.2,13.5
							c-18.7,0.7-29.4-6.6-35.5-19.6c-2.7-5.8-4.8-13.9-3.4-20.9c0.9-4.6,3-9.4,5.6-13.8c1.3-2.3,6.3-11.1,9.3-9.5
							c2.1,1.1,1.1,4.9-2.4,4.2c1.5,1.4,4.9,1.3,6.1-0.3c0.5-9.2-2.4-17.4-6.6-24.6l-5.6-1.2c2.8,3.9,4.9,8.6,5.9,14.4
							c-3.5-0.4-7.9,0.1-12.5,0c-5-3-9.8-7.6-16.2-10.6c-8.8-4.2-31.1-6.1-32.1,5c-0.8,9.4,9.5,12.1,13.5,17.2
							c-13,5.4-24.1,12.8-32.3,23.1c-12.1-2.4-21.5-7.7-36-7.7c-4.5,1.2-3.9,10.2-2.4,13.8c2.5,5.8,11.1,10.4,18,11.7
							c3.6,0.6,7.3,0.3,11.1,0.8c0.6,0.1,2.8-0.2,2.7,1.3c-0.5,1.7-2.6,0.6-3.4,0.5c-4.5-0.4-8.2-1-12.5-1.9
							c-3.8-0.7-12.4-3.4-16.7-1.9c-3.8,1.4-4.1,8.4-2.4,11.9c5,10.6,25.3,13.7,39.8,10.9c8.1,14.7,21.7,23.2,38.2,30
							c10.3,4.2,21.6,5.8,33.7,6.4c21,1,36.5-6.2,48-15.6c7.7-6.3,11.2-13.2,15.9-22.8c3,1,5.9,2,9.5,3.2c2.8,0.9,7.3,3.2,10.6,1.9
							c2.7-1.1,2.9-5.8,2.7-9.3C285,246.5,276.1,241.6,266.8,239.4z M157.9,191.1c-1.4-1.7-3.2-4.8-1.1-6.9c2-2,7.7-1.8,10.9-1.6
							c12.1,0.9,21.5,8.6,28.1,14.3c1.4,0.2,2-0.5,3.4-0.3c-3.5,7.8-17.2,16.9-30,16.2c-2.4-0.1-7-1.5-6.1-4.8
							c0.3-1.2,4.9-3.3,6.6-4c2.6-1.1,4.6-1.2,6.9-2.1C169.6,199.8,162.1,196.2,157.9,191.1z M95.3,223.7c6.4-2.9,13.8,1.5,19.6,2.7
							c-1.8,3.2-3.5,6.5-3.2,11.9C103.8,236,95.2,234.2,95.3,223.7z M93.7,253.7c-1.1-1.2-1.8-3.2-1.6-5.8c0.9-1.5,2.7-1.9,5.6-1.6
							c5,0.5,11.4,2.6,15.6,3.2c-0.8,3.9-0.1,8.1,1.1,11.4C107.1,261,97.8,258.3,93.7,253.7z M244.8,278.6
							c-12.5,11.7-32.2,16.4-55.7,14.3c-20.7-1.8-36.3-11.6-48.8-22.8c-3.6-3.3-6.7-7.4-8.5-12.5c-3.4,2.2-8.5,2.7-13.8,2.9
							c-1.8-2.3-2.6-6.5-1.9-10.6c4.5,0.2,8.4,1.2,13.3,1.1c-0.3-3.3-0.8-8.3,0.3-11.9c-5.2,0-10,0.2-14.8-0.5
							c-0.7-4.6,1-8.9,3.4-11.1c4.8,1.1,9.2,2.7,14.3,3.4c6.5-10.1,16.5-16.7,27.8-22c0.8,5.1,4.3,7.1,10.6,6.6
							c13.5-1,26.3-8.6,30.5-18.3c0.6-1.8,3.4,0.1,5.3-0.5c-7.5,10.1-16.8,22.4-11.7,40c2,6.9,7.9,17.4,13.3,21.2
							c4.7,3.3,13.4,5.7,19.9,6.4c17.4,1.9,26.4-6.7,31.3-18.3C259.3,260.4,253,270.9,244.8,278.6z M280.9,260.6
							c-4.6,1.2-8.9-1.1-13-2.4c-2.6-0.8-5.5-1.4-6.6-3.4c0.3-3.7,0.1-8,1.6-10.6C273.5,244.8,281.4,249.6,280.9,260.6z"/>
					</g>
				</g>
			</g>
		</g>
		<g>
			<g>
				<g>
					<polygon class="st4" points="2.7,371.2 14.8,338.6 22.8,315.6 27.8,287.5 29.8,274.4 44.9,257.8 65.5,251.3 77,257.3 82,272.4 
						74,297 63.4,311 60.9,320.1 98.6,337.6 122.1,338.6 171.8,336.6 224.5,325.1 265.7,308 308.3,287.5 347.4,273.9 384.6,267.4 
						419.7,275.9 438.8,287 440.3,303.5 425.7,347.2 431.2,354.2 440.8,356.2 449.8,328.6 459.3,328.1 473.4,338.1 459.8,410.4 
						445.8,444 423.7,447 395.1,434.5 380.1,418.4 384.1,389.8 388.1,368.2 345.4,372.8 266.7,408.4 172.3,434 128.2,435 90,431.5 
						44.4,412.4 10.8,382.8 					"/>
				</g>
			</g>
			<g>
				<path class="st2" d="M313.7,295.9c-0.6,5.4-1.5,23.7-1.5,24c1-0.3,5-1.8,5.1-1.8c0-0.3,0.3,6.4-0.4,12.4c-1.2,4-3.6,4.8-4.9,6.4
					c1,0.4,3.2-0.4,4.6,0.5c1,2.1,0.3,9.8,0,12.2c-1.4,0.9-3.6,1.7-5,2.2c-0.4,1.8-0.9,18.5-1.1,21.8c-0.2,1.2-0.1,0.8,0.4,0.7
					c0.2,0,15.2-6.1,15.3-6.1c0-0.2,0.9-21.8,0.9-21.9c-0.7,0.2-3.3,1.2-4.3,1.4c-0.2-2.3-0.1-6.9,0.3-13c1-2.7,2.1-2.7,3.9-4
					c0.1-0.1,1.7-1,1.7-1s-4.9,1-5-2.1c0-0.3,0.2-9.9,0.2-12c0.9-0.6,3.6-1.4,4.3-1.8c0.6-3.2,0.7-18.9,0.7-22.9
					C327.1,291.4,313.7,295.7,313.7,295.9z M309.1,298.1c0.2-0.9-4.8,2.2-4.8,2.2c-8.3,4.2-16.5,8.5-24.7,12.7
					c0,0.3-1.8,24.3-0.9,23.5c0.1,0.1,2.6-1.3,5.3-2.6c-0.1-1.7,0.8,13.9-0.6,14.9c-0.9,1.4-4,3.9-4.2,3.9c1.4,0.6,2.8,0.2,4.1,1.2
					c0.7,3.1,0.2,8.7-0.1,11.4c-1.1,1-4,2.2-5.7,2.8c0,1.5-0.7,21.1-0.6,22.2c0.1,0,0.6-0.3,0.6-0.3c0.9-0.1,11.6-5.2,16.4-8.8
					c0.5-1.1,0.6-18.4,0.8-21.4c-0.2,0-4.8,2.4-4.8,2.4c0.1-3.8,0.4-11.1,0.6-11.1c4.3-3.4,9.9-4.1,10.9-4c1.3,0,1.5,0.3,2.6,1.7
					c0.2-5.7,0.5-10.1,0.5-15.4c-1.6,3.3-1.5,3.5-3.2,5c-3.9,2-6.3,3.3-10.4,4.6c0.2-6.4,0.2-6.4,0.4-12.6c2.7-2.1,11.4-6.7,14.3-6
					c1.6,0.5,3.4,4,2.7,2.9C308.5,325.9,309.2,298.1,309.1,298.1z M332.7,289.7c0,6.7-1.1,22.5-0.1,22.1c0.2,0.1,4.2-0.9,4.2-1.2
					c0.2,6.7,0,3.7,0.1,9.8c-0.2,5.1-1,5.5-1.1,5.6c-0.5,0.9-3.1,2.3-3.4,2.3c4.8,0.1,3.6,6.5,3.4,13.8c-0.1,0.1-0.5,0.5-0.6,0.5
					c-1.4,0.7-4,1.3-4.2,1.3c0,2.7-0.8,22.7-0.8,23c4.6-1.8,14.7-5.1,14.8-5.1c0.5-3.1,1.1-19.8,0.7-22.1c-0.5,0-3.5,1.1-3.6,0.7
					c-0.3-3.4,0-12.5,0.5-13.2c1.8-2,3.9-2.5,3.9-2.5c-2.1-0.7-3.4-1.7-3.4-1.7c-0.6-0.8-0.1-11.3-0.1-14.1c0.5,0,5.1,10.8,5.9,13.4
					c0.3,2.3-1.9,2.5-1.9,2.5c4.1,0.8,4.8,2.1,9.6,11.9c0,0-3.2,0.6-3.6,0.6c0.5,3-0.9,18.9-0.2,21.7c4.9-1.6,16.2-2.8,20.8-3.8
					c0.2-0.3,2.4-22.1,2.3-22.1c-1.9,0.3-3.3,0.2-4.6,0.3c-0.1-2.4,0.1-6,0.5-10.3c1.8-3.1,3.3-2.8,4.6-3.7c0,0-3.1-1.2-3.8-2
					c-0.5-1.8,0.4-14.2,0.4-14.4c2.3,0,7.1-0.5,7.2-0.5c0-0.3,2.2-23.3,2-23.4c-6.9-0.5-19.7,1.3-21.4,2.2
					c-0.2,8.3-0.6,15.7-0.3,22.8c0,0.3,4-0.1,4.2-0.2c0.5,5.6,0.2,3.4,0.1,10.2c-1.1,5-1.3,8.5-6,5.1c-1.9-1.7-1.7,0.9-7.5-13.6
					c0.5,0,3-0.6,3.1-0.6c0-0.3,0.3-20.8,0.3-22.9C354.6,281.9,332.7,289.7,332.7,289.7z M364.1,332.7c-0.3-0.7-0.6-0.9-1-1.8
					c-1.3-2.6-3.8-7.3-3.1-8.5c0.3-1.5,1.3-1.4,1.3-1.7C365.4,321.1,364.4,324,364.1,332.7z M119.1,352.8c0,0.5-1.2,19.4-1.4,23.4
					c2.6,0.4,1.2,0.5,4.9,0.5c0,0,0.2,7-1.3,9.5c-0.9,1.7-3.2,2.1-4.4,2.2c0.2,0.3,4,1.2,3.7,5c0,0.1-1.3,13.3-0.6,23
					c1.5,5.1,4.4,7.9,8.7,8.3c0.2,0,11.9,0,12.1,0c2.9-2.4,5.2-6,6.7-10.8c0.1-0.3,2.8-21.7,3.4-22.5c0.7-1.2,2.5-2,3.8-2.7
					c0-0.3-1.1-0.5-1.1-0.8c-0.1,0-1.8-0.8-2.4-1.9c-0.4-1,0.4-7.8,0.6-10.1c0-0.1,1.6-0.3,4.1-0.9c0.4-5.1,1.1-18.6,1.4-23.9
					c-0.1,0-10.7,0.8-14.9,1.4c0,0.3-1.4,24.1-1.4,24.4c2.6-0.2,2-0.1,5.2-0.2c0,0-0.2,8.5-1.1,10.1c-1.2,1.4-2.8,2.6-4.4,2.7
					c1.5,1.4,3,2.6,3.3,3.2c0.9,4.2-0.5,9-0.6,9c-0.9,1.8-4.3,2.6-6.3,2.5c-0.2,0-1.8,0.1-2,0.1c-4-0.4-7.6-1.2-8.4-2.6
					c-1-1.3-0.2-8.9,0.3-9.4c1.5-1.7,2.5-1.9,5.2-2.8c-2.7-1-3.5-2.4-3.9-5.4c0.1-3.6,0.2-6,0.5-7.2c0.1,0,5.8,0.3,5.9,0.3
					c0-0.3,2.1-21.3,1.8-23.7c0-0.2-0.6-0.1-0.6-0.3C135.7,353.1,121.5,352.8,119.1,352.8z M111.4,352.7c-8.2-2.3-14.3-3.7-22.1-2.9
					c-2.3,0.2-3.6,4.8-4.5,7.1c-1.1,6.2-2.9,17-2.9,17.2c-0.9,3.7-2.7,3.7-5,4.1c0,0,2,1.7,2.7,2.7c0.6,2-1.2,6.1-1.4,8.3
					c-0.9,4-1.4,8.7-1.8,13c0.9,11.8,4.5,12.8,5.1,13.5c4.9,2,13.5,4.2,15.3,4.3c2.3,0.3,5-0.1,5.2-0.1c4.3-1.2,6-4.7,7.2-11.4
					c0,0,1.5-13.4,2.7-17.6c2-3,4.2-1.2,3.9-2.2c0,0.1-2.1-1.3-2.6-3.4c-0.7-1.4,1.2-10.1,1.2-10.9c1.2-4.8,1.8-9.7,0.9-15.4
					C114.3,355.3,113.5,353.5,111.4,352.7z M107.2,373.5c1.6,0.3,1.8,4.1,1.4,7.1c-0.9,4.6-1.2,4.3-3.5,5c-1.1,0.3-2.1,0.2-2.9,0.2
					c1.1,0.9,2,1.8,2.1,1.8c3.6,1.8,1.5,11.5-0.2,12.3c-2.5,2.6-16-1.7-19.6-4.6c-1-1-0.8-5.1,0.4-10.5c1.6-2.1,3.1-1.4,4.6-1.8
					c0,0-3.4-1.9-2.3-9.6c0.7-4.5,3.7-4.5,8.3-3.4C100.4,371,103.8,372.2,107.2,373.5z M77.1,354.1c-0.2-4.6-2.5-10.2-4.5-12
					c-14.1-10.1-22.1-16.6-28.2-21.6c-0.1,0-0.2,0-0.2,0.1c-1.4,7.2-3.2,13.3-4.5,20.3c-0.1,2.3,0.7,3.6,2.2,4.7
					c1.3,1,3.5,2.7,3.6,3c-0.2,3.3-1.5,7.3-2.4,8.5c-1.1,0.5-2.9-0.2-3.9-0.2c0.2,0.2,2.4,3.7,2.4,4.9c-0.1,3.9-1.1,6.2-1.7,7.8
					c-1.2-0.7-2.7-1.7-4.7-4.1c-0.1,0-0.7-0.2-0.8-0.1c-2.9,5-7.7,17.6-7.4,18.5c7.5,9.7,20.6,17.4,26.2,20.7
					c5.7,2.7,10.2-0.5,11.9-3.7c2.9-4.1,5.1-11.4,6.8-18.6c0-0.2,1.2-4.8,5.2-4c-1.1-1.5-2.4-2.6-2.4-4.9
					C74.5,372.4,77.4,358.3,77.1,354.1z M69.4,363.3c0,0.2,0.6,1.2,0.6,1.3c0.7,3.4,0.2,5.5-1.6,7.2c-1.5,0.5-3.5-0.1-3.5-0.1
					c1.6,2.3,2.2,4.2,1.6,6.7c-0.8,3.3-2.5,4.7-5.2,4.1c-6.7-1.5-11.3-4.3-16.9-9.2c0.7-2.7,1.5-6.7,2.3-7.9c-0.1,0,1.3-1.3,2.9-0.9
					c0.2,0,2,0.3,2.1,0.3c0-0.3-1.6-1.7-1.7-1.8c-1.9-1.8-2.2-4.4-0.9-7.7c0.2-0.6,1-3.5,1.2-3.5C57.4,355.1,62.8,358.6,69.4,363.3z
					 M186.6,354.9c-2.6-5.2-7.2-7.3-13.4-6.3c-2.6,0.3-10.9,1.7-13.1,1.7c-0.8-0.3-0.5,2.7-0.9,7.4c0,0.2-0.8,14-0.9,16.9
					c2.2-0.3,2.2-0.3,3.6-0.5c0.2,0.2-0.3,8.5-0.3,8.8c-0.6,2.5-2.5,4.7-5.2,5.2c1.4,0.6,3.2,1.2,3.2,1.2c1.8,2.2,1,6.2,0.1,12.2
					c0,0.1-3.1-0.1-3.1-0.1c-0.9-0.4-0.9,2.9-1.1,5.7c0,0.5-1.7,17.8-0.8,17.4c1.8,0,3.6-0.2,5.4-0.2c0.2,0,14.8-1.2,19.5-2.2
					c3.4-2.1,6-5.8,7.6-10.8c2.2-8.9,1.2-16.9,0.6-19c-2.6-5.5-5.5-5.7-7.6-7.5c7.4-5.1,7.5-13.8,7.6-14.1
					C188,362.6,188.6,358.4,186.6,354.9z M169.6,389.3c0.2,0.1,5.9-0.2,7,0c1.8,0.7,4.5,2.4,2.7,8.7c-0.6,2.3-3.9,3.5-7.9,3.9
					c-1.8,0-2.1,0-6.1,0.2c0.1-1.4,0.9-11.4,0.9-12.8C167.5,389.5,168.1,389.4,169.6,389.3z M175.7,382c-3.6,1.3-4.1,1.3-9.1,1.7
					c0.5-6.9,0.2-11.3,1.4-11c6.5-1.2,16.4-5,12.7,5.5C178.6,381.1,177.5,381.3,175.7,382z M223.3,337.4c-0.2,8.1-0.3,22.6-0.3,22.9
					c1.2-0.6,5-1.3,5-1.2c0.3,4.7,0.4,8.4-0.5,10.2c-0.5,2.3-4.9,4.2-5.1,4.2c1.6,0.7,3.1,0.6,4.8,1.4c1.4,0.6,0.7,8.8,0.3,11.6
					c-2.5,0.6-3.9,0.6-3.7,1.5c0,0.2,0.1,18.4-0.5,22.2c-0.1,1.6,0.3,1,1.4,0.6c0.1-0.1,11-3.1,27.6-10c0-0.3,0.2-17.4,0.2-17.4
					c0.3-12,0.4-10.7-2.3-4.9c-4.4,3.7-8.8,5-16.3,5.7c0-0.3,0-0.6,0-0.8c0-3.3,0-7.2,0-10.5c5.5-2.1,11.4-2.9,11.7-2.2
					c1,0.7,2,2.7,2,2.7c0.2-5.4,0.2-9.5,0.3-14.3c-0.3,0.8-1.8,2.7-2.6,3.5c-2.6,3-9.2,3.4-11.3,4.4c0-4.6,0.1-5.8,0.2-10.3
					c3.1-1.4,3.5-1.1,7-2.7c10.4-5.7,8.8,1.9,10.1,2.1c1.1-3.2,0.7-25.3,0.7-29.1C248.5,329.2,227,336.3,223.3,337.4z M386.9,279.4
					c-0.8,4.4-1.9,19.5-2.4,23.4c1.2,0.1,4.3,0.7,4.3,0.8c-0.4,4.9-0.8,9.7-1.9,10.9c-0.8,2-5.1,3.4-5.2,3.3c1.8,1.3,2.5,1.2,4,2.8
					c1.2,1.3-0.8,8.7-1.5,11.3c-2.4-0.6-4.3-0.3-4.1,0.2c0,0.2-1.7,18.3-2.7,21.7c-0.3,1.5,0.1,0.7,1.1,0.8c0.1,0,15.4-0.7,25.5,6
					c0-0.3,4-19.3,4-19.3c2-11.9,2-10.2-1.4-5.8c-4.5,1.5-9.1-0.3-16.1-3.4c0-0.3,0.1-0.6,0.1-0.8c0.5-3.3,1-7.2,1.5-10.6
					c5.4,0.7,10.9,2.9,11.1,3.9c0.8,1.2,1.5,3.8,1.5,3.8c0.9-5.3,1.5-9.5,2.3-14.2c-0.4,0.7-2,1.8-2.9,2.2c-2.9,1.6-9-1.4-11-1.4
					c0.6-4.6,0.9-5.8,1.6-10.3c3,0.2,3.4,0.7,6.8,0.8c10.4-0.4,7.9,6.4,9,7.3c1.5-2.7,4.7-22.1,5.3-25.9
					C407.8,282.4,391.8,279.7,386.9,279.4z M209.1,341.8c-6.1,1.1-10.5,2.3-16.5,3.1c0,0.2-0.6,21.2-1.2,23c1.4,0.1,2-0.1,4.9-0.5
					c0.2,0,0.4,5.8-0.3,10.4c-0.6,2.7-2.3,4-5.8,4.7c1.5,1.1,4,0.7,4.6,2.1c0,0,1.5,4.6-0.2,10c0,0.2-3.6,0.8-3.6,1.1
					c-0.3,3.9-0.7,20.9-1.3,23.3c0.3,0.9,21.6-4.6,30.7-7.9c0,0,0.7-28.8,0.8-28.8c0-0.3-2.2,4.4-2.2,4.5
					c-3.7,4.5-17.4,6.1-17.4,6.1c-0.2-2.3,0.3-8.7,0.3-9c0.8-2.7,4.3-2.3,6.2-4l-3.6-0.7c-3.8,1-1.8-12.7-1.8-12.9
					c2.1-0.8,3.3-0.5,5.5-1.5C208.4,364.8,209.2,341.9,209.1,341.8z"/>
			</g>
			<g>
				<g>
					<g>
						<path class="st0" d="M68.4,320.3c19.8,15.6,53.9,15.6,84.5,13.5c29.5-2.1,58.8-10.4,82.9-18.3c11.8-3.9,23.6-10.5,34.7-15.9
							c17.5-8.5,32.6-17.3,51.9-24.1c16.9-5.9,37.9-15.9,60.1-15.4c14.9,0.4,27.1,4.1,37.3,9.5c10.1,5.4,19.5,11.8,26.7,20.1
							c-4.1,14.4-10.1,33.2-14.6,48.7c-0.7,2.5-1.7,6.3-1.3,7.9c0.7,3,5.4,5.9,8.5,5c3.3-1,4.5-10,5.6-13.8
							c1.6-5.4,2.8-10.3,4.8-14.6c10.7-5.9,23.7,1.7,27,10.3c3.8,9.9-0.3,24.2-2.4,33.6c-2.4,10.6-5.3,18.8-8.2,30.5
							c-1.2,5-2.5,10.3-3.7,15.6c-3,13.4-8.2,34.3-19.6,38.4c-6.9,2.5-16,1-23.6-0.5s-13.2-4.1-19.3-7.2c-6-3-10.7-6.6-15.1-11.4
							c-4.5-4.9-9.4-11.1-9.5-18.8c-0.2-8.1,2.5-14.7,4.2-21.2c1.8-6.6,3.1-13.1,4.8-20.7c-9.8-2.9-19.3,0.7-28.1,2.6
							c-17.7,3.9-33.8,11-49,17.7c-11.6,5.1-21.8,11.8-33.1,17c-3.9,1.7-7.9,3.1-11.9,4.8c-11.8,5-24,8.6-37.6,12.4
							c-4.3,1.2-8.4,2.9-12.7,4c-25.5,6-55.3,14.1-86.6,11.1c-19.6-1.9-37.2-6.6-54.3-12.2c-16-5.2-31.1-13-43.7-23
							c-5.8-4.7-11.1-10.6-16.2-17.2C6.4,382.8,0,374.5,0,366.5c0-2.8,2.5-7.3,4.2-11.4c4.6-10.9,9.4-19.7,13-31.8
							c2.2-7.5,3.9-16,5.6-24.4c1.9-9.3,2.2-18.6,5-25.7c4.9-12.2,16-25,31.8-26.2c12.7-1,19.9,6.2,23,14.6
							c3.7,10.1,0.6,22-3.2,31.5C75.5,303.6,71.7,312.9,68.4,320.3z M79,272.4c0.1-2.9-0.7-7-2.1-9.3c-5.2-8.2-16.6-8.1-25.7-4.5
							c-6.2,2.4-15,9.9-17.2,15.6c-3,7.9,2.2,14,5.3,18.8c0.8-3.1,1-6.8,1.9-9.8c4.2-5.1,18.3-4.9,25.4-2.4c-0.7,6.9-3.2,12-4,18.8
							C72.4,297,78.6,284.7,79,272.4z M434.9,304.2c0.8-2.8,3.3-8.5,2.9-10.3c-0.2-1-4.2-3.7-6.4-5.3c-13.4-9.9-29.6-18.6-52.7-17.5
							c-12,0.6-23.1,3.5-33.9,6.9c-10.3,3.3-20.5,7-30.2,10.6c-9.7,3.7-18.4,9-27.5,13.2c-9.3,4.3-17.9,9.7-27,13.8
							c-24.3,10.9-50,18.4-78.1,23.8c-18.3,3.5-39.7,5.4-60.6,5.6c-11.3,0.1-21.5-2.1-31-4.2s-17.7-6.1-24.9-10.6
							c-7.4-4.6-14.3-9.1-19.9-15.4c-4.9-5.5-9.5-11.4-13.5-17.5c-0.5-0.8-1-2.6-1.6-1.9c-2.6,13.9-4.4,26.2-8.7,38.9
							c-2.8,8.3-7.2,16.8-10.9,24.9c-1.1,2.5-3.5,6.4-3.4,8.5c0.1,3.5,3.5,8.1,4.8,10.1c2.1,3.4,4.1,6.5,6.1,9
							c3.1,3.8,7.8,6.8,12.2,10.3c4.2,3.4,8.5,6.7,13.2,9.3c19.6,10.7,41.4,19,67.5,23c13.4,2.1,27.1,4.1,41.3,2.9
							c8.3-0.7,15.6-1.9,23-3.4c14.2-2.9,28.7-6,42.1-9.8c8.7-2.5,17.6-5.9,26-8.7c9.1-3.1,17.4-5.6,25.4-9.3
							c15.7-7.1,29.8-16.5,46.1-23c8.1-3.3,16.6-6.4,25.4-9.3c8.8-2.8,17.9-6,27.3-7.4c10.2-1.5,20.7-1.5,28.3,1.3
							c6,2.3,10.1,5.9,14.3,9.5c1.3,1.1,3.1,3.1,4.2,2.6C421.3,351.1,428.1,327.9,434.9,304.2z M48,287.2c-3,4.4,5,10.3,9,11.4
							c0.8-4.3,2.1-8.1,2.6-12.7C55.8,285.4,49.8,284.6,48,287.2z M464.6,377.3c3-9.9,5.9-20,6.6-29.4c0.2-2.7,0.2-5.3-0.3-7.4
							c-1.5-7-11.2-13.3-18.3-8.5c-7.2,23-14.7,45.7-19.9,70.7c4.5-3.2,11.6-7,18-3.2c2.1,1.3,3.1,3.8,5.3,5
							C459.5,397.9,461.5,387.6,464.6,377.3z M420.9,378.3c-1.8,6-3.3,16-7.7,19.9c-4.5,3.9-11.3,1.1-18.3,2.6
							c-5.4,1.2-10.7,6.7-11.1,11.9c-0.5,6.2,4.4,11.9,7.9,15.4c8.7,8.4,24.1,14.3,37.6,15.4c4.2,0.3,8.2,0,10.9-1.1
							c6.1-2.3,10.4-12.1,11.1-20.7c0.5-5.7,0.2-12.5-5.6-12.4c-2.3,5.5-3.2,12.3-5.3,18c-10.8-1.4-16.6-6.8-15.6-19.3
							c0.6-7.3,3.7-15.6,5.6-23.6c2-8.7,4.4-16.8,6.1-23.3c-4-0.7-6.8-2.7-9.3-5C424.8,363.9,423.3,370.3,420.9,378.3z"/>
					</g>
				</g>
			</g>
		</g>
		<g>
			<g>
				<g>
					<path class="st3" d="M331.4,256.9l-58.2-29.6c-5-2.6-7-8.7-4.5-13.7l31.5-61.9c2.6-5,8.7-7,13.7-4.5l58.2,29.6
						c5,2.6,7,8.7,4.5,13.7l-31.5,61.9C342.6,257.5,336.4,259.5,331.4,256.9z"/>
				</g>
				<g>
					<path class="st0" d="M336,260.5c-2,0-3.9-0.5-5.8-1.4L272,229.5c-6.3-3.2-8.7-10.9-5.6-17.1l31.6-61.9c1.5-3,4.2-5.3,7.4-6.3
						c3.2-1.1,6.7-0.8,9.7,0.8l58.2,29.6c6.3,3.2,8.7,10.9,5.6,17.1l-31.5,61.9c-1.5,3-4.2,5.3-7.4,6.3
						C338.6,260.3,337.3,260.5,336,260.5z M309.3,148.6c-0.8,0-1.6,0.1-2.4,0.4c-2,0.6-3.5,2-4.5,3.8l-31.5,61.9
						c-1.9,3.8-0.4,8.4,3.4,10.4l58.2,29.6l0,0c1.8,0.9,3.9,1.1,5.9,0.5s3.5-2,4.5-3.8l31.5-61.9c1.9-3.8,0.4-8.4-3.4-10.4
						l-58.2-29.6C311.7,148.9,310.5,148.6,309.3,148.6z"/>
				</g>
			</g>
			<g>
				<g>
					<circle class="st0" cx="327.2" cy="193.2" r="22.6"/>
				</g>
			</g>
			<g>
				<g>
					<circle class="st5" cx="327.2" cy="193.2" r="9.3"/>
				</g>
			</g>
			<g>
				<g>
					<g>
						<path class="st2" d="M290.4,209.2l-6.2-3.2c-1.7-0.9-3.9-0.2-4.8,1.5l-3.3,6.4l12.5,6.5l3.3-6.4
							C292.8,212.3,292.1,210.1,290.4,209.2z"/>
					</g>
				</g>
				<g>
					<g>
						<path class="st2" d="M307.5,218.1l-6.2-3.2c-1.7-0.9-3.9-0.2-4.8,1.5l-3.3,6.4l12.5,6.5l3.3-6.4
							C309.9,221.1,309.3,218.9,307.5,218.1z"/>
					</g>
				</g>
				<g>
					<g>
						<path class="st2" d="M324.7,226.9l-6.2-3.2c-1.7-0.9-3.9-0.2-4.8,1.5l-3.3,6.4l12.5,6.5l3.3-6.4
							C327.1,229.9,326.4,227.8,324.7,226.9z"/>
					</g>
				</g>
				<g>
					<g>
						<path class="st2" d="M341.8,235.7l-6.2-3.2c-1.7-0.9-3.9-0.2-4.8,1.5l-3.3,6.4l12.5,6.5l3.3-6.4
							C344.2,238.7,343.5,236.6,341.8,235.7z"/>
					</g>
				</g>
			</g>
			<g>
				<g>
					<line class="st6" x1="271.5" y1="211.6" x2="344.5" y2="249.2"/>
				</g>
				<g>
					
						<rect x="305" y="189.3" transform="matrix(0.4577 -0.8891 0.8891 0.4577 -37.7987 398.762)" class="st0" width="6" height="82.2"/>
				</g>
			</g>
		</g>
		<g>
			<g>
				<g>
					<g>
						<path class="st3" d="M296.8,194.5l-123.2-17.2c-7.7-1.1-13.1-8.2-12-15.9l9.9-71c1.1-7.7,8.2-13.1,15.9-12l123.2,17.2
							c7.7,1.1,13.1,8.2,12,15.9l-9.9,71C311.6,190.2,304.5,195.6,296.8,194.5z"/>
					</g>
					<g>
						<path class="st0" d="M298.7,197.2c-0.8,0-1.5-0.1-2.3-0.2l-123.2-17.2c-9-1.3-15.4-9.6-14.1-18.7l9.9-71
							c0.6-4.4,2.9-8.3,6.4-10.9c3.5-2.7,7.9-3.8,12.3-3.2l123.2,17.2c4.4,0.6,8.3,2.9,10.9,6.4c2.7,3.5,3.8,7.9,3.2,12.3l-9.9,71
							c-0.6,4.4-2.9,8.3-6.4,10.9C305.8,196,302.3,197.2,298.7,197.2z M185.3,80.8c-2.5,0-4.9,0.8-6.9,2.3c-2.5,1.9-4.1,4.6-4.5,7.6
							l-9.9,71c-0.9,6.3,3.5,12.2,9.8,13L297,191.9c3.1,0.4,6.1-0.4,8.6-2.2c2.5-1.9,4.1-4.6,4.5-7.6l9.9-71
							c0.4-3.1-0.4-6.1-2.2-8.6c-1.9-2.5-4.6-4.1-7.6-4.5L187,80.9C186.4,80.8,185.9,80.8,185.3,80.8z"/>
					</g>
				</g>
				<g>
					<g>
						<g>
							<circle class="st0" cx="201.5" cy="130.9" r="22.2"/>
						</g>
					</g>
					<g>
						<g>
							<circle class="st0" cx="282.6" cy="142.1" r="22.2"/>
						</g>
					</g>
				</g>
				<g>
					<g>
						<path class="st1" d="M201.5,146.5c-0.7,0-1.4,0-2.2-0.1c-8.5-1.2-14.5-9.1-13.4-17.6l0,0c1.2-8.5,9.1-14.5,17.6-13.4
							c4.1,0.6,7.8,2.7,10.3,6c2.5,3.3,3.6,7.4,3,11.6c-0.6,4.1-2.7,7.8-6,10.3C208.2,145.4,204.9,146.5,201.5,146.5z M190,129.3
							c-0.9,6.3,3.6,12.2,9.9,13.1c6.4,0.9,12.2-3.6,13.1-9.9c0.4-3.1-0.4-6.1-2.2-8.6c-1.9-2.5-4.6-4.1-7.7-4.5
							C196.7,118.5,190.9,123,190,129.3L190,129.3z"/>
					</g>
				</g>
				<g>
					<g>
						<circle class="st5" cx="201.5" cy="130.9" r="4.6"/>
					</g>
				</g>
				<g>
					<g>
						<path class="st5" d="M282.6,157.7c-0.7,0-1.4,0-2.2-0.1c-4.1-0.6-7.8-2.7-10.3-6s-3.6-7.4-3-11.6c0.6-4.1,2.7-7.8,6-10.3
							s7.4-3.6,11.6-3c8.5,1.2,14.5,9.1,13.4,17.6c-0.6,4.1-2.7,7.8-6,10.3C289.3,156.6,286,157.7,282.6,157.7z M282.5,130.4
							c-2.5,0-5,0.8-7,2.4c-2.5,1.9-4.1,4.6-4.5,7.7l0,0c-0.4,3.1,0.4,6.1,2.2,8.6c1.9,2.5,4.6,4.1,7.7,4.5s6.1-0.4,8.6-2.2
							c2.5-1.9,4.1-4.6,4.5-7.7c0.9-6.3-3.6-12.2-9.9-13.1C283.6,130.5,283.1,130.4,282.5,130.4z"/>
					</g>
				</g>
				<g>
					<g>
						<circle class="st1" cx="282.6" cy="142.1" r="4.6"/>
					</g>
				</g>
				<g>
					<g>
						<path class="st0" d="M240.1,151.9L240.1,151.9c-6.7-0.9-11.4-7.1-10.5-13.9l6.9-50.2l24.4,3.4l-6.9,50.2
							C253,148.1,246.8,152.8,240.1,151.9z"/>
					</g>
				</g>
				<g>
					<g>
						<g>
							<path class="st2" d="M214.3,155.5L214.3,155.5c-3-0.4-5.7,1.7-6.1,4.7l-1.1,8.3l10.8,1.5l1.1-8.3
								C219.4,158.7,217.3,155.9,214.3,155.5z"/>
						</g>
					</g>
					<g>
						<g>
							<path class="st2" d="M230.8,157.8L230.8,157.8c-3-0.4-5.7,1.7-6.1,4.7l-1.1,8.3l10.8,1.5l1.1-8.3
								C235.8,161,233.8,158.2,230.8,157.8z"/>
						</g>
					</g>
					<g>
						<g>
							<path class="st2" d="M247.3,160.1L247.3,160.1c-3-0.4-5.7,1.7-6.1,4.7l-1.1,8.3l10.8,1.5l1.1-8.3
								C252.3,163.2,250.2,160.5,247.3,160.1z"/>
						</g>
					</g>
					<g>
						<g>
							<path class="st2" d="M263.7,162.3L263.7,162.3c-3-0.4-5.7,1.7-6.1,4.7l-1.1,8.3l10.8,1.5l1.1-8.3
								C268.8,165.5,266.7,162.8,263.7,162.3z"/>
						</g>
					</g>
				</g>
				<g>
					<g>
						<path class="st0" d="M272.8,176.4l-67.7-9.3c-7.3-1-14,4.1-15,11.4l0,0l94,13l0,0C285.2,184.1,280.1,177.4,272.8,176.4z"/>
					</g>
					<g>
						<path class="st0" d="M286.7,194.8l-100-13.8l0.4-3c0.6-4.3,2.8-8.1,6.3-10.8c3.5-2.6,7.8-3.8,12.1-3.2l67.7,9.3
							c8.9,1.2,15.2,9.5,13.9,18.4L286.7,194.8z M194,175.9l87.2,12c-0.7-4.3-4.2-7.9-8.8-8.6l-67.7-9.3c-2.7-0.4-5.4,0.3-7.6,2
							C195.7,173.1,194.7,174.4,194,175.9z"/>
					</g>
				</g>
			</g>
			<g>
				<g>
					<path class="st0" d="M250.8,88.3c-0.1,0-0.2,0-0.3,0c-0.8-0.1-1.4-0.9-1.2-1.7l2.2-12.7c0.5-2.8,3.2-4.7,6-4.2l6.3,1.1
						c1.4,0.2,2.6,1,3.4,2.1s1.1,2.5,0.9,3.9s-1,2.6-2.1,3.4c-1.1,0.8-2.5,1.1-3.9,0.9l-3.2-0.5c-0.8-0.1-1.4-0.9-1.2-1.7
						c0.1-0.8,0.9-1.4,1.7-1.2l3.2,0.5c0.6,0.1,1.1,0,1.6-0.4c0.5-0.3,0.8-0.8,0.9-1.4c0.1-0.6,0-1.1-0.4-1.6
						c-0.3-0.5-0.8-0.8-1.4-0.9l-6.3-1.1c-1.2-0.2-2.3,0.6-2.5,1.8l-2.2,12.7C252.1,87.8,251.5,88.3,250.8,88.3z"/>
				</g>
			</g>
		</g>
		<g>
			<g>
				<path class="st0" d="M341.8,163.1c-0.2,0-0.5-0.1-0.7-0.2c-0.7-0.4-1-1.3-0.6-2l6-11.3c0.7-1.2,1.7-2.1,3.1-2.5
					c1.3-0.4,2.7-0.3,3.9,0.4l5.7,3c2.5,1.3,3.5,4.5,2.1,7c-0.7,1.2-1.7,2.1-3.1,2.5c-1.3,0.4-2.7,0.3-3.9-0.4l-2.8-1.5
					c-0.7-0.4-1-1.3-0.6-2s1.3-1,2-0.6l2.8,1.5c0.5,0.3,1.1,0.3,1.7,0.2c0.6-0.2,1-0.5,1.3-1.1c0.6-1.1,0.2-2.4-0.9-2.9l-5.7-3
					c-0.5-0.3-1.1-0.3-1.7-0.2c-0.6,0.2-1,0.5-1.3,1.1l-6,11.3C342.9,162.8,342.4,163.1,341.8,163.1z"/>
			</g>
		</g>
	</g>
	<g>
		<circle class="st2" cx="327.2" cy="193.2" r="3.7"/>
	</g>
	<g>
		<path class="st3" d="M135.5,466.8l-6,10c-0.9,1.5-2.9,2-4.4,1.1s-2-2.9-1.1-4.4l16-26.7c0.9-1.5,2.9-2,4.4-1.1l9,5.4
			c5.5,3.3,8.1,9,4.1,15.6c-3.9,6.5-10.1,7.2-15.7,3.8L135.5,466.8z M144.1,452.4l-5.7,9.6l5.9,3.5c2.9,1.8,5.7,1,7.6-2
			c1.9-3.1,1.1-5.8-1.8-7.6L144.1,452.4z"/>
		<path class="st1" d="M163.7,481.8l-4,10.7c-0.6,1.6-2.5,2.5-4.1,1.9s-2.5-2.5-1.9-4.1l10.9-29.1c0.6-1.6,2.5-2.5,4.1-1.9l9.8,3.7
			c7,2.6,9,9,6.8,14.8c-1.8,4.9-6.6,8.5-11.8,7.3l4.1,12.1c0.2,0.8,0.2,1.5-0.1,2c-0.6,1.6-2.5,2.5-4.1,1.9c-0.9-0.3-1.6-1.1-1.9-2
			l-4.6-16.1L163.7,481.8z M169.8,465.8l-4,10.8l7,2.6c3.2,1.2,5.6-0.9,6.6-3.6c1-2.8,0.6-5.9-2.7-7.2L169.8,465.8z"/>
		<path class="st5" d="M196,484.3l10.2,2c1.5,0.3,2.5,1.8,2.2,3.3s-1.8,2.5-3.3,2.2l-10.2-2l-2,9.9l14.3,2.9
			c1.6,0.3,2.6,1.8,2.2,3.4s-1.8,2.6-3.4,2.2l-17.4-3.5c-1.7-0.3-2.8-2-2.5-3.8l6-30c0.3-1.7,2-2.8,3.8-2.5l16.8,3.4
			c1.6,0.3,2.6,1.8,2.2,3.4c-0.3,1.6-1.8,2.6-3.4,2.2l-13.7-2.7L196,484.3z"/>
		<path class="st4" d="M231.5,478.4c-4.6-0.2-6.4,1.8-6.5,4c-0.4,7.2,19.9,4.9,19.2,18.6c-0.3,6.7-5.3,10.6-14.3,10.2
			c-6.5-0.3-11.6-3.8-13.6-7.4c-0.3-0.5-0.4-1-0.4-1.6c0.1-1.6,1.5-2.9,3.1-2.8c1.2,0.1,1.8,0.8,2.4,1.3c2.2,2.4,5,4.4,8.8,4.6
			c5,0.3,7.5-1.3,7.7-4.7c0.4-8-19.8-5.3-19.2-18.6c0.3-5.4,4.4-9.9,13.1-9.4c5.5,0.3,10.2,2.5,12.2,5.8c0.3,0.5,0.5,1.1,0.5,1.8
			c-0.1,1.6-1.5,2.8-3.1,2.8c-0.8,0-1.5-0.5-2.3-1.3C237.4,480,234.6,478.6,231.5,478.4z"/>
		<path class="st3" d="M256.4,488.9l10.4-0.9c1.5-0.1,2.9,1,3,2.6s-1,2.9-2.6,3l-10.4,0.9l0.8,10.1l14.5-1.2c1.6-0.1,3,1,3.1,2.6
			s-1,3-2.6,3.1l-17.6,1.4c-1.8,0.1-3.3-1.2-3.4-2.9l-2.6-30.5c-0.1-1.8,1.2-3.3,2.9-3.4l17.1-1.4c1.6-0.1,3,1,3.1,2.6s-1,3-2.6,3.1
			l-13.9,1.2L256.4,488.9z"/>
		<path class="st1" d="M303.3,467.9l7.1,30.8c0.4,1.7-0.7,3.4-2.4,3.8c-1,0.2-2.1-0.1-2.8-0.8l-21-19.2l4.9,21.1
			c0.4,1.7-0.7,3.4-2.4,3.8c-1.7,0.4-3.4-0.7-3.8-2.4l-7.1-30.8c-0.4-1.7,0.7-3.4,2.4-3.8c1.1-0.2,2,0,2.8,0.7l21.2,19.3l-4.9-21.2
			c-0.4-1.7,0.7-3.4,2.4-3.8C301.3,465.1,303,466.2,303.3,467.9z"/>
		<path class="st5" d="M323.3,463.4l10.5,26.7c0.6,1.6-0.2,3.5-1.8,4.1s-3.5-0.2-4.1-1.8l-10.5-26.7l-7.8,3.1
			c-1.4,0.6-3.1-0.2-3.6-1.6c-0.6-1.4,0.2-3.1,1.6-3.6l21.6-8.5c1.4-0.6,3.1,0.2,3.6,1.6c0.6,1.4-0.2,3.1-1.6,3.6L323.3,463.4z"/>
		<path class="st4" d="M347.4,450.9c-4,2.3-4.4,5-3.3,6.9c3.6,6.3,19.4-6.6,26.1,5.4c3.3,5.8,1.3,11.8-6.6,16.3
			c-5.7,3.2-11.8,3-15.4,1c-0.5-0.2-0.9-0.6-1.1-1.1c-0.8-1.4-0.3-3.2,1.1-4c1.1-0.6,2-0.3,2.7-0.1c3.1,0.9,6.6,1.1,9.9-0.8
			c4.4-2.5,5.6-5.1,4-8.1c-4-7-19.6,6.1-26.1-5.4c-2.7-4.7-1.6-10.7,6-15c4.8-2.7,10-3.3,13.4-1.7c0.5,0.3,1,0.7,1.3,1.3
			c0.8,1.4,0.3,3.2-1.1,4c-0.7,0.4-1.6,0.4-2.7,0.1C353.2,449,350.1,449.3,347.4,450.9z"/>
	</g>
</g>
</svg>
