<?xml version="1.0" encoding="utf-8"?>
<!-- Generator: Adobe Illustrator 18.1.0, SVG Export Plug-In . SVG Version: 6.00 Build 0)  -->
<svg version="1.1" id="Layer_1" xmlns="http://www.w3.org/2000/svg" xmlns:xlink="http://www.w3.org/1999/xlink" x="0px" y="0px"
	 viewBox="0 0 195.5 202.6" enable-background="new 0 0 195.5 202.6" xml:space="preserve">
<g>
	<g>
		<g>
			<path fill="#FFFF57" d="M66.5,37.6c-8.2,0-14.8,6.6-14.8,14.8c0,8.2,6.6,14.8,14.8,14.8c8.2,0,14.8-6.6,14.8-14.8
				C81.3,44.2,74.7,37.6,66.5,37.6z M66.5,56.4c-2.2,0-4-1.8-4-4c0-2.2,1.8-4,4-4c2.2,0,4,1.8,4,4C70.5,54.6,68.8,56.4,66.5,56.4z"
				/>
			<path fill="#FF7F5C" d="M149.5,37.6c-8.2,0-14.8,6.6-14.8,14.8c0,8.2,6.6,14.8,14.8,14.8c8.2,0,14.8-6.6,14.8-14.8
				C164.3,44.2,157.7,37.6,149.5,37.6z M149.5,56.4c-2.2,0-4-1.8-4-4c0-2.2,1.8-4,4-4c2.2,0,4,1.8,4,4
				C153.5,54.6,151.7,56.4,149.5,56.4z"/>
			<g>
				<path fill="#5FD4A7" d="M191.5,24.7l0.2-0.2L171.2,3.9c0,0-0.1-0.1-0.1-0.1l-0.3-0.3l0,0c-2.4-2.2-5.5-3.6-9-3.6H13.2
					C5.9,0,0,5.9,0,13.2v91.3c0,4.3,2.1,8.1,5.3,10.5l17.4,17.5c2.4,3.6,6.4,6,11,6h148.6c7.3,0,13.2-5.9,13.2-13.2V34.1
					C195.5,30.4,194,27.1,191.5,24.7z M183.1,21c-0.2,0-0.5,0-0.7,0H175v-7.8c0-0.1,0-0.2,0-0.3L183.1,21z M161.8,3.6
					c2.6,0,4.9,1,6.7,2.7l0.2,0.2c1.7,1.7,2.7,4.1,2.7,6.7v7.8H33.7c-2.7,0-5.2,0.8-7.3,2.2L8.2,5c1.4-0.9,3.1-1.4,4.9-1.4H161.8z
					 M166.6,112.7V99.9c0-5.4-4.4-9.8-9.8-9.8H59.2c-5.4,0-9.8,4.4-9.8,9.8V114H24.2V34.1c0-5.3,4.3-9.5,9.5-9.5h137.6v79.9
					C171.3,108,169.5,111,166.6,112.7z M67.6,98.1v-4.3h9.1v4.3c0,2.5-2,4.5-4.5,4.5C69.6,102.7,67.6,100.6,67.6,98.1z M85.1,98.1
					v-4.3h9.1v4.3c0,2.5-2,4.5-4.5,4.5C87.1,102.7,85.1,100.6,85.1,98.1z M102.6,98.1v-4.3h9.1v4.3c0,2.5-2,4.5-4.5,4.5
					C104.6,102.7,102.6,100.6,102.6,98.1z M120.1,98.1v-4.3h9.1v4.3c0,2.5-2,4.5-4.5,4.5C122.2,102.7,120.1,100.6,120.1,98.1z
					 M137.7,98.1v-4.3h9.1v4.3c0,2.5-2,4.5-4.5,4.5C139.7,102.7,137.7,100.6,137.7,98.1z M3.6,13.2c0-2.1,0.7-4.1,1.9-5.7l18.1,18.1
					c-1.9,2.3-3.1,5.3-3.1,8.5V114h-7.4c-2,0-3.9-0.6-5.4-1.7l-2.4-2.5c-1-1.5-1.6-3.4-1.6-5.3V13.2z M13.2,117.6h7.4v7.6l-7.5-7.6
					C13.1,117.6,13.1,117.6,13.2,117.6z M33.7,134.9c-2.4,0-4.5-0.9-6.2-2.3l0.2-0.2l-2.1-2.2c-0.9-1.4-1.4-3.1-1.4-4.9v-7.8h25.2v1
					c0,5.4,4.4,9.8,9.8,9.8h97.7c5.4,0,9.8-4.4,9.8-9.8v-1.9c1-0.4,1.9-0.9,2.7-1.5l18.2,18.1c-1.5,1-3.3,1.5-5.2,1.5H33.7z
					 M191.9,125.4c0,2-0.6,3.9-1.7,5.5L172,112.8c1.8-2.3,2.9-5.1,2.9-8.3V24.6h7.4c5.3,0,9.5,4.3,9.5,9.5V125.4z"/>
				<path fill="#5FD4A7" d="M116.7,61.1c-1-1-2.7-1-3.8,0L109,65l-3.9-3.9c-1-1-2.7-1-3.8,0c-1,1-1,2.7,0,3.8l3.9,3.9l-3.9,3.9
					c-1,1-1,2.7,0,3.8c1,1,2.7,1,3.8,0l3.9-3.9l3.9,3.9c1,1,2.7,1,3.8,0c1-1,1-2.7,0-3.8l-3.9-3.9l3.9-3.9
					C117.7,63.8,117.7,62.2,116.7,61.1z"/>
			</g>
		</g>
	</g>
	<g>
		<path fill="#FFFF57" d="M37.3,182.7h-9.9c-2,0-3.7-1.7-3.7-3.7c0-2,1.7-3.7,3.7-3.7h14.2c2,0,4,1.8,4,3.9v11.7
			c0,1.7-0.4,2.8-1.2,3.9c-3.5,4.7-11.2,8-19,8c-14.5,0-22.8-7.7-22.8-25.5c0-17.3,8.3-25.6,22.8-25.6c8.8,0,14.6,3.5,17.6,7.9
			c0.6,0.9,0.8,1.6,0.8,2.4c0,2.1-1.8,3.9-3.9,3.9c-1,0-2-0.4-3-1.5c-3-3.3-6.1-5.1-11.5-5.1c-9.7,0-14.1,6-14.1,18
			c0,12.8,4.4,18,14.1,18c5.4,0,9.2-1.2,12-4.2V182.7z"/>
		<path fill="#FF7F5C" d="M90.6,156.1v42c0,2.3-1.9,4.2-4.2,4.2c-1.4,0-2.7-0.7-3.4-1.8l-21.5-31.1V198c0,2.3-1.9,4.2-4.2,4.2
			c-2.3,0-4.2-1.9-4.2-4.2v-42c0-2.3,1.9-4.2,4.2-4.2c1.5,0,2.6,0.7,3.4,1.8L82.3,185v-28.9c0-2.3,1.9-4.2,4.2-4.2
			C88.7,151.9,90.6,153.8,90.6,156.1z"/>
		<path fill="#FFFF57" d="M97.1,177.1c0-17.3,8.4-25.6,23.1-25.6s23.1,8.3,23.1,25.6c0,17.1-8.4,25.5-23.1,25.5
			S97.1,194.2,97.1,177.1z M105.9,177.1c0,12,4.7,18,14.4,18s14.4-5.9,14.4-18c0-12.1-4.7-18-14.4-18S105.9,165,105.9,177.1z"/>
		<path fill="#FF7F5C" d="M183.2,182.7h-9.9c-2,0-3.7-1.7-3.7-3.7c0-2,1.7-3.7,3.7-3.7h14.2c2,0,4,1.8,4,3.9v11.7
			c0,1.7-0.4,2.8-1.2,3.9c-3.5,4.7-11.2,8-19,8c-14.5,0-22.8-7.7-22.8-25.5c0-17.3,8.3-25.6,22.8-25.6c8.8,0,14.6,3.5,17.6,7.9
			c0.6,0.9,0.8,1.6,0.8,2.4c0,2.1-1.8,3.9-3.9,3.9c-1,0-2-0.4-3-1.5c-3-3.3-6.1-5.1-11.5-5.1c-9.7,0-14.1,6-14.1,18
			c0,12.8,4.4,18,14.1,18c5.4,0,9.2-1.2,12-4.2V182.7z"/>
	</g>
</g>
</svg>
