<?xml version="1.0" encoding="utf-8"?>
<!-- Generator: Adobe Illustrator 16.0.0, SVG Export Plug-In . SVG Version: 6.00 Build 0)  -->
<!DOCTYPE svg PUBLIC "-//W3C//DTD SVG 1.1//EN" "http://www.w3.org/Graphics/SVG/1.1/DTD/svg11.dtd">
<svg version="1.1" id="Layer_1" xmlns="http://www.w3.org/2000/svg" xmlns:xlink="http://www.w3.org/1999/xlink" x="0px" y="0px"
	 width="1438.729px" height="568.564px" viewBox="-96.271 0 1438.729 568.564" enable-background="new -96.271 0 1438.729 568.564"
	 xml:space="preserve">
<g>
	<g>
		<path fill="#F1EEDD" d="M488.375,436.199h-21.117c-4.348,0-7.919-3.571-7.919-7.919c0-4.35,3.571-7.919,7.919-7.919h30.123
			c4.348,0,8.54,3.727,8.54,8.229v24.844c0,3.571-0.776,5.9-2.64,8.229c-7.453,9.938-23.912,16.925-40.526,16.925
			c-30.897,0-48.601-16.304-48.601-54.346c0-36.8,17.699-54.501,48.601-54.501c18.788,0,31.055,7.453,37.421,16.77
			c1.242,1.863,1.708,3.416,1.708,5.124c0,4.503-3.727,8.229-8.385,8.229c-2.174,0-4.348-0.934-6.366-3.105
			c-6.366-6.986-13.043-10.869-24.378-10.869c-20.651,0-29.968,12.732-29.968,38.354c0,27.173,9.314,38.195,29.968,38.195
			c11.49,0,19.564-2.64,25.62-8.851V436.199L488.375,436.199z"/>
		<path fill="#F1EEDD" d="M600.329,379.524v89.28c0,4.813-4.037,8.853-8.853,8.853c-2.948,0-5.744-1.554-7.298-3.882l-45.806-66.146
			v61.178c0,4.813-4.037,8.853-8.852,8.853c-4.813,0-8.852-4.037-8.852-8.853v-89.282c0-4.813,4.037-8.851,8.852-8.851
			c3.104,0,5.591,1.397,7.144,3.728l45.961,66.611v-61.488c0-4.813,4.037-8.851,8.853-8.851
			C596.292,370.674,600.329,374.71,600.329,379.524z"/>
		<path fill="#F1EEDD" d="M636.974,449.242l-9.472,22.515c-1.396,3.261-4.348,5.9-8.385,5.9c-4.813,0-8.853-4.037-8.853-8.853
			c0-0.932,0.155-2.174,0.621-3.261l36.646-89.282c0.932-2.174,3.416-5.59,8.229-5.59c4.813,0,7.298,3.416,8.229,5.59l36.645,89.282
			c0.465,1.087,0.621,2.329,0.621,3.261c0,4.813-4.037,8.853-8.852,8.853c-4.037,0-6.986-2.642-8.385-5.9l-9.475-22.515H636.974z
			 M655.762,400.175l-12.73,32.607h25.465L655.762,400.175z"/>
		<path fill="#F1EEDD" d="M792.405,468.651c0,4.969-4.037,9.006-9.006,9.006c-4.971,0-9.008-4.037-9.008-9.006V431.23h-44.406
			v37.421c0,4.969-4.037,9.006-9.006,9.006c-4.971,0-9.008-4.037-9.008-9.006v-88.974c0-4.969,4.037-9.006,9.008-9.006
			c4.969,0,9.006,4.037,9.006,9.006v35.094h44.406v-35.094c0-4.969,4.037-9.006,9.008-9.006c4.969,0,9.006,4.037,9.006,9.006
			V468.651z"/>
		<path fill="#F1EEDD" d="M806.536,467.564c0-6.987,3.727-10.403,10.248-10.403c6.52,0,10.092,3.416,10.092,10.403
			c0,6.832-3.57,10.093-10.092,10.093C810.26,477.657,806.536,474.396,806.536,467.564z M826.254,379.369l-2.951,61.799
			c-0.154,3.416-2.174,5.9-6.52,5.9c-4.658,0-6.678-2.484-6.832-5.9l-2.795-61.799c-0.314-6.056,3.416-8.695,9.627-8.695
			C822.838,370.673,826.565,373.313,826.254,379.369z"/>
	</g>
	<g>
		<path fill="#F1EEDD" d="M424.702,496.884c0-1.164,0.963-2.127,2.127-2.127s2.127,0.963,2.127,2.127v3.371h1.806
			c1.003,0,1.808,0.803,1.808,1.806c0,1.004-0.805,1.808-1.808,1.808h-1.806v9.711c0,0.923,0.802,1.445,1.524,1.445
			c1.044,0,1.886,0.843,1.886,1.886s-0.843,1.886-1.886,1.886c-3.571,0-5.778-2.288-5.778-5.458v-9.471h-0.923
			c-1.003,0-1.808-0.805-1.808-1.807c0-1.004,0.805-1.807,1.808-1.807h0.923V496.884L424.702,496.884z"/>
		<path fill="#F1EEDD" d="M439.507,502.102c0.763-1.164,2.448-2.407,5.138-2.407c5.457,0,6.741,3.491,6.741,6.981v10.033
			c0,1.204-0.963,2.087-2.167,2.087c-1.283,0-2.167-0.883-2.167-2.087v-9.229c0-2.288-0.923-3.854-3.53-3.854
			c-3.011,0-4.015,1.766-4.015,4.133v8.949c0,1.204-0.923,2.087-2.167,2.087s-2.167-0.883-2.167-2.087v-24.64
			c0-1.204,0.963-2.168,2.167-2.168s2.167,0.964,2.167,2.168V502.102z"/>
		<path fill="#F1EEDD" d="M462.659,499.693c6.782,0,8.024,5.217,8.024,7.984c0,1.484,0,3.21-2.446,3.21h-9.912
			c0,2.891,2.046,4.213,4.694,4.213c1.767,0,3.011-0.602,3.974-1.243c0.439-0.28,0.762-0.44,1.284-0.44
			c1.043,0,1.886,0.843,1.886,1.886c0,0.644-0.321,1.164-0.683,1.485c-0.683,0.642-2.81,2.207-6.461,2.207
			c-5.577,0-9.029-3.011-9.029-9.711C453.991,503.145,457.202,499.693,462.659,499.693z M458.446,507.278h7.943
			c0-1.968-1.122-3.895-3.73-3.895C460.332,503.385,458.646,504.709,458.446,507.278z"/>
		<path fill="#F1EEDD" d="M489.903,518.996c-5.418,0-8.789-3.09-8.789-9.631c0-6.581,3.371-9.671,8.789-9.671
			s8.789,3.09,8.789,9.671C498.691,515.906,495.321,518.996,489.903,518.996z M489.903,503.385c-2.892,0-4.414,2.006-4.414,5.979
			c0,3.933,1.522,5.938,4.414,5.938c2.89,0,4.414-2.006,4.414-5.938C494.317,505.392,492.792,503.385,489.903,503.385z"/>
		<path fill="#F1EEDD" d="M517.669,506.676v10.033c0,1.204-0.963,2.087-2.167,2.087c-1.284,0-2.167-0.883-2.167-2.087v-9.23
			c0-2.286-0.923-3.853-3.532-3.853c-3.01,0-4.013,1.766-4.013,4.133v8.949c0,1.204-0.923,2.087-2.167,2.087
			s-2.167-0.883-2.167-2.087v-14.607c0-1.204,0.963-2.167,2.167-2.167s2.167,0.963,2.167,2.167c0.763-1.163,2.448-2.406,5.137-2.406
			C516.385,499.693,517.669,503.186,517.669,506.676z"/>
		<path fill="#F1EEDD" d="M525.612,492.068v21.989c0,0.482,0.479,0.725,0.762,0.725c1.124,0,2.006,0.883,2.006,2.006
			s-0.883,2.007-2.006,2.007c-3.13,0-5.096-1.766-5.096-5.137v-21.59c0-1.204,0.963-2.167,2.167-2.167
			C524.648,489.901,525.612,490.864,525.612,492.068z"/>
		<path fill="#F1EEDD" d="M535.041,517.189l-6.18-14.246c-0.08-0.201-0.161-0.481-0.161-0.844c0-1.203,0.963-2.167,2.167-2.167
			s1.806,0.845,2.006,1.365l4.415,11.156l4.414-11.156c0.201-0.521,0.803-1.365,2.007-1.365s2.167,0.964,2.167,2.167
			c0,0.361-0.081,0.644-0.161,0.844l-7.464,16.854c-1.766,3.934-4.294,6.742-8.307,6.742c-1.164,0-2.087-0.843-2.087-2.007
			s0.924-2.007,2.087-2.007C532.513,522.527,533.716,520.48,535.041,517.189z"/>
		<path fill="#F1EEDD" d="M567.421,508.48l-2.487,8.75c-0.279,0.923-1.123,1.563-2.087,1.563c-0.963,0-1.726-0.602-2.046-1.405
			l-5.498-14.326c-0.121-0.28-0.201-0.723-0.201-0.964c0-1.204,0.965-2.167,2.168-2.167c0.924,0,1.727,0.522,2.047,1.405
			l3.331,9.872l2.688-9.711c0.201-0.723,0.883-1.565,2.087-1.565c1.084,0,1.846,0.765,2.047,1.445l2.688,9.832l3.291-9.872
			c0.319-0.883,1.124-1.405,2.087-1.405c1.244,0,2.167,0.885,2.167,2.087c0,0.241-0.08,0.563-0.201,0.845l-5.498,14.565
			c-0.321,0.885-1.083,1.365-2.006,1.365c-0.963,0-1.806-0.643-2.087-1.525L567.421,508.48z"/>
		<path fill="#F1EEDD" d="M584.313,505.07c-0.4,0.279-0.724,0.399-1.203,0.399c-1.043,0-1.888-0.843-1.888-1.886
			c0-0.441,0.161-0.923,0.522-1.324c1.124-1.244,3.13-2.566,6.581-2.566c4.977,0,7.946,2.446,7.946,6.701v10.272
			c0,1.164-0.965,2.127-2.129,2.127c-1.162,0-2.127-0.963-2.127-2.127c-1.084,1.728-2.85,2.327-5.257,2.327
			c-3.933,0-6.542-2.448-6.542-6.061c0-3.731,3.01-5.657,6.501-5.657h5.257v-0.725c0-1.806-1.322-3.01-3.65-3.01
			C586.559,503.545,585.314,504.348,584.313,505.07z M591.977,511.771v-1.123h-4.693c-1.768,0-2.729,0.843-2.729,2.287
			c0,1.524,1.083,2.447,3.331,2.447C590.01,515.384,591.977,514.02,591.977,511.771z"/>
		<path fill="#F1EEDD" d="M604.494,517.189l-6.18-14.246c-0.081-0.201-0.161-0.481-0.161-0.844c0-1.203,0.963-2.167,2.167-2.167
			c1.203,0,1.806,0.845,2.007,1.365l4.414,11.156l4.415-11.156c0.199-0.521,0.803-1.365,2.006-1.365
			c1.204,0,2.167,0.964,2.167,2.167c0,0.361-0.08,0.644-0.16,0.844l-7.464,16.854c-1.766,3.934-4.294,6.742-8.307,6.742
			c-1.164,0-2.088-0.843-2.088-2.007s0.924-2.007,2.088-2.007C601.965,522.527,603.169,520.48,604.494,517.189z"/>
		<path fill="#F1EEDD" d="M634.025,518.996c-5.418,0-8.789-3.09-8.789-9.631c0-6.581,3.371-9.671,8.789-9.671
			s8.789,3.09,8.789,9.671C642.814,515.906,639.443,518.996,634.025,518.996z M634.025,503.385c-2.892,0-4.414,2.006-4.414,5.979
			c0,3.933,1.522,5.938,4.414,5.938c2.89,0,4.414-2.006,4.414-5.938C638.439,505.392,636.915,503.385,634.025,503.385z"/>
		<path fill="#F1EEDD" d="M649.712,502.102v9.351c0,1.846,0.642,3.612,3.611,3.612c2.93,0,3.571-1.768,3.571-3.612v-9.351
			c0-1.203,0.963-2.168,2.168-2.168c1.202,0,2.166,0.965,2.166,2.168v9.351c0,3.933-1.484,7.544-7.905,7.544
			c-6.461,0-7.945-3.611-7.945-7.544v-9.351c0-1.203,0.963-2.168,2.167-2.168S649.712,500.896,649.712,502.102z"/>
		<path fill="#F1EEDD" d="M666.042,496.884c0-1.164,0.963-2.127,2.127-2.127s2.127,0.963,2.127,2.127v3.371h1.806
			c1.004,0,1.807,0.803,1.807,1.806c0,1.004-0.803,1.808-1.807,1.808h-1.806v9.711c0,0.923,0.803,1.445,1.525,1.445
			c1.043,0,1.887,0.843,1.887,1.886s-0.844,1.886-1.887,1.886c-3.572,0-5.779-2.288-5.779-5.458v-9.471h-0.923
			c-1.004,0-1.807-0.805-1.807-1.807c0-1.004,0.803-1.807,1.807-1.807h0.923V496.884z"/>
		<path fill="#F1EEDD" d="M684.981,495.238c0-1.848,0.922-2.648,2.566-2.648c1.688,0,2.607,0.803,2.607,2.648
			c0,1.563-0.922,2.526-2.607,2.526C685.903,497.767,684.981,496.804,684.981,495.238z M689.713,516.628
			c0,1.204-0.963,2.167-2.166,2.167s-2.168-0.963-2.168-2.167v-14.527c0-1.204,0.965-2.167,2.168-2.167s2.166,0.965,2.166,2.167
			V516.628z"/>
		<path fill="#F1EEDD" d="M697.418,504.99c0,2.97,9.871,1.604,9.871,8.227c0,3.772-3.211,5.699-7.344,5.699
			c-3.451,0-6.102-1.565-7.105-2.809c-0.318-0.401-0.479-0.765-0.479-1.244c0-1.043,0.883-1.928,1.926-1.928
			c0.4,0,0.803,0.121,1.244,0.481c1.084,0.883,2.408,1.646,4.414,1.646c1.807,0,2.971-0.479,2.971-1.604
			c0-3.251-9.832-1.565-9.832-8.388c0-3.612,3.01-5.378,6.701-5.378c2.85,0,5.377,1.084,6.502,2.487c0.24,0.321,0.4,0.604,0.4,1.204
			c0,1.043-0.883,1.926-1.93,1.926c-0.561,0-0.922-0.239-1.361-0.562c-0.883-0.644-1.967-1.284-3.611-1.284
			C698.301,503.465,697.418,503.987,697.418,504.99z"/>
		<path fill="#F1EEDD" d="M720.047,496.884c0-1.164,0.963-2.127,2.127-2.127c1.162,0,2.127,0.963,2.127,2.127v3.371h1.807
			c1.002,0,1.805,0.803,1.805,1.806c0,1.004-0.803,1.808-1.805,1.808h-1.807v9.711c0,0.923,0.803,1.445,1.523,1.445
			c1.045,0,1.887,0.843,1.887,1.886s-0.842,1.886-1.887,1.886c-3.57,0-5.777-2.288-5.777-5.458v-9.471h-0.924
			c-1.004,0-1.807-0.805-1.807-1.807c0-1.004,0.803-1.807,1.807-1.807h0.924V496.884L720.047,496.884z"/>
		<path fill="#F1EEDD" d="M734.854,502.102c0.762-1.164,2.447-2.407,5.137-2.407c5.457,0,6.742,3.491,6.742,6.981v10.033
			c0,1.204-0.963,2.087-2.168,2.087c-1.283,0-2.166-0.883-2.166-2.087v-9.229c0-2.288-0.924-3.854-3.531-3.854
			c-3.01,0-4.014,1.766-4.014,4.133v8.949c0,1.204-0.924,2.087-2.168,2.087s-2.166-0.883-2.166-2.087v-24.64
			c0-1.204,0.963-2.168,2.166-2.168s2.168,0.964,2.168,2.168V502.102L734.854,502.102z"/>
		<path fill="#F1EEDD" d="M754.473,502.301c0.764-1.563,2.648-2.566,4.334-2.566c1.123,0,2.047,0.923,2.047,2.047
			s-0.924,2.047-2.047,2.047c-2.77,0-4.334,1.766-4.334,4.454v8.347c0,1.204-0.963,2.167-2.168,2.167
			c-1.201,0-2.166-0.963-2.166-2.167v-14.527c0-1.203,0.965-2.166,2.166-2.166c1.205,0,2.168,0.964,2.168,2.166V502.301z"/>
		<path fill="#F1EEDD" d="M770.485,518.996c-5.418,0-8.789-3.09-8.789-9.631c0-6.581,3.371-9.671,8.789-9.671
			c5.416,0,8.787,3.09,8.787,9.671C779.272,515.906,775.901,518.996,770.485,518.996z M770.485,503.385
			c-2.891,0-4.416,2.006-4.416,5.979c0,3.933,1.525,5.938,4.416,5.938c2.889,0,4.414-2.006,4.414-5.938
			C774.899,505.392,773.374,503.385,770.485,503.385z"/>
		<path fill="#F1EEDD" d="M786.17,502.102v9.351c0,1.846,0.643,3.612,3.611,3.612c2.93,0,3.57-1.768,3.57-3.612v-9.351
			c0-1.203,0.965-2.168,2.168-2.168c1.201,0,2.166,0.965,2.166,2.168v9.351c0,3.933-1.482,7.544-7.904,7.544
			c-6.461,0-7.945-3.611-7.945-7.544v-9.351c0-1.203,0.963-2.168,2.166-2.168C785.208,499.934,786.17,500.896,786.17,502.102z"/>
		<path fill="#F1EEDD" d="M800.292,509.324c0-6.541,3.172-9.631,8.588-9.631c4.857,0,8.311,2.688,8.311,8.024v10.153
			c0,5.538-2.73,8.668-8.67,8.668c-3.25,0-5.656-1.003-7.021-2.649c-0.199-0.239-0.4-0.642-0.4-1.163
			c0-1.044,0.883-1.927,1.928-1.927c0.48,0,0.801,0.161,1.283,0.481c1.002,0.722,2.326,1.563,4.213,1.563
			c2.85,0,4.295-1.482,4.295-3.933v-1.525c-0.803,0.805-2.447,1.605-4.375,1.605C803.381,518.996,800.292,515.866,800.292,509.324z
			 M812.854,507.719c0-2.769-1.646-4.334-3.975-4.334c-2.768,0-4.293,2.006-4.293,5.939c0,3.973,1.564,5.979,4.293,5.979
			c2.408,0,3.975-2.046,3.975-2.046V507.719z"/>
		<path fill="#F1EEDD" d="M824.848,502.102c0.764-1.164,2.447-2.407,5.139-2.407c5.457,0,6.742,3.491,6.742,6.981v10.033
			c0,1.204-0.965,2.087-2.17,2.087c-1.281,0-2.166-0.883-2.166-2.087v-9.229c0-2.288-0.924-3.854-3.531-3.854
			c-3.01,0-4.014,1.766-4.014,4.133v8.949c0,1.204-0.922,2.087-2.166,2.087s-2.168-0.883-2.168-2.087v-24.64
			c0-1.204,0.965-2.168,2.168-2.168s2.166,0.964,2.166,2.168V502.102z"/>
	</g>
	<g>
		<path fill="#F1EEDD" d="M847.969,64.019l0.48-0.485l-50.967-50.967l-0.932-0.928l-0.316-0.314l-0.012,0.002
			c-5.875-5.495-13.768-8.87-22.422-8.87H402.989c-18.111,0-32.856,14.743-32.856,32.862v227.79
			c0,10.837,5.279,20.467,13.397,26.457l43.067,43.518c5.854,9.073,16.047,15.08,27.619,15.08h370.817
			c18.111,0,32.848-14.74,32.848-32.854V87.516C857.879,78.31,854.086,69.991,847.969,64.019z"/>
	</g>
	<g>
		<path fill="#161A15" d="M850.567,62.245L850.567,62.245l-51.045-52.032l-0.939-0.937l-0.314-0.319l-0.014,0.007
			C792.307,3.406,784.333,0,775.577,0H400.636c-18.314,0-33.217,14.902-33.217,33.221v230.32c0,10.965,5.334,20.7,13.549,26.75
			l43.542,44.01c5.92,9.165,16.228,15.239,27.924,15.239h374.942c18.314,0,33.221-14.896,33.221-33.215V86.006
			C860.594,76.702,856.752,68.279,850.567,62.245z M829.176,52.836c-0.598-0.043-1.201-0.058-1.803-0.058h-18.576V33.221
			c0-0.263-0.002-0.522-0.012-0.776L829.176,52.836z M400.636,9.163h374.941c6.439,0,12.295,2.549,16.619,6.69l0.756,0.749
			c4.137,4.32,6.688,10.176,6.688,16.619v19.559H452.433c-6.854,0-13.233,2.094-18.536,5.67l-45.748-45.777
			C391.792,10.441,396.064,9.163,400.636,9.163z M799.637,263.542c0,8.813-4.77,16.539-11.859,20.729v-32.188
			c0-13.625-11.08-24.699-24.689-24.699H516.725c-13.619,0-24.69,11.074-24.69,24.699v35.525h-63.655V86.006
			c0-13.269,10.79-24.054,24.056-24.054h347.207v201.59H799.637z M758.706,239.362v8.158c0,7.638-6.203,13.837-13.854,13.837
			c-2.693,0-5.209-0.769-7.334-2.102c-3.908-2.444-6.514-6.795-6.514-11.735v-0.298v-7.86H758.706z M705.125,239.362v8.158
			c0,7.081-5.33,12.918-12.199,13.739c-0.541,0.059-1.094,0.098-1.645,0.098c-7.656,0-13.859-6.199-13.859-13.837v-0.298v-7.86
			L705.125,239.362L705.125,239.362z M651.548,239.362v8.158c0,2.89-0.893,5.583-2.418,7.805c-2.498,3.643-6.688,6.032-11.434,6.032
			c-4.748,0-8.938-2.39-11.434-6.032c-1.521-2.222-2.418-4.915-2.418-7.805v-8.158H651.548z M597.969,239.362v7.86v0.298
			c0,7.638-6.199,13.837-13.848,13.837c-0.561,0-1.112-0.039-1.653-0.098c-6.873-0.821-12.2-6.658-12.2-13.739v-8.158H597.969z
			 M544.388,247.222v0.298c0,4.94-2.603,9.287-6.513,11.735c-2.128,1.333-4.641,2.102-7.335,2.102
			c-7.647,0-13.851-6.199-13.851-13.837v-8.158c0.012,0,0.021,0,0.033,0h27.663L544.388,247.222L544.388,247.222z M376.584,33.221
			c0-5.386,1.775-10.362,4.781-14.377l45.702,45.73c-4.896,5.793-7.85,13.268-7.85,21.432v201.603h-18.583
			c-5.09,0-9.812-1.602-13.707-4.309l-6.207-6.276c-2.611-3.847-4.138-8.483-4.138-13.482L376.584,33.221L376.584,33.221z
			 M400.636,296.771h18.583v19.15l-18.963-19.158C400.384,296.763,400.511,296.771,400.636,296.771z M827.375,340.379H452.433
			c-5.979,0-11.454-2.198-15.667-5.825l0,0l-5.019-5.969c-2.133-3.595-3.369-7.783-3.369-12.26v-19.555h63.655v2.395
			c0,13.615,11.072,24.693,24.69,24.693h246.363c13.609,0,24.689-11.078,24.689-24.693v-4.719c2.457-0.979,4.77-2.233,6.908-3.732
			l45.797,45.768C836.709,338.944,832.209,340.379,827.375,340.379z M851.43,316.326c0,5.123-1.619,9.876-4.357,13.786
			l-45.691-45.666c4.639-5.709,7.418-12.982,7.418-20.905V61.953h18.576c13.27,0,24.059,10.785,24.059,24.054v230.319H851.43z"/>
	</g>
	<g>
		<path fill="#161A15" d="M535.29,169.422c20.58,0,37.268-16.688,37.268-37.268c0-20.581-16.688-37.271-37.268-37.271
			c-20.586,0-37.274,16.688-37.274,37.271C498.015,152.734,514.703,169.422,535.29,169.422z M535.29,122.066
			c5.563,0,10.08,4.516,10.08,10.088c0,5.568-4.517,10.078-10.08,10.078c-5.573,0-10.083-4.51-10.083-10.078
			C525.206,126.583,529.717,122.066,535.29,122.066z"/>
	</g>
	<g>
		<path fill="#161A15" d="M744.518,169.422c20.59,0,37.275-16.688,37.275-37.268c0-20.581-16.688-37.271-37.275-37.271
			c-20.574,0-37.27,16.688-37.27,37.271C707.25,152.734,723.944,169.422,744.518,169.422z M744.524,122.066
			c5.566,0,10.084,4.516,10.084,10.088c0,5.568-4.518,10.078-10.084,10.078c-5.572,0-10.08-4.51-10.08-10.078
			C734.444,126.583,738.952,122.066,744.524,122.066z"/>
	</g>
	<g>
		<path fill="#161A15" d="M632.765,173.554l-9.87,9.87c-2.63,2.635-2.63,6.901,0,9.526c2.63,2.629,6.894,2.629,9.526,0l9.875-9.875
			l9.873,9.875c2.631,2.629,6.894,2.629,9.523,0c2.629-2.625,2.629-6.891,0-9.526l-9.875-9.87l9.875-9.875
			c2.629-2.628,2.629-6.892,0-9.524c-2.632-2.634-6.895-2.634-9.523,0l-9.873,9.876l-9.875-9.876c-2.635-2.634-6.896-2.634-9.528,0
			c-2.628,2.633-2.628,6.896,0,9.518L632.765,173.554z"/>
	</g>
</g>
<g>
	<g>
		<path fill="#F1EEDD" d="M285.78,350.662c-1.381,0-2.5-1.119-2.5-2.5V3.339c0-1.381,1.119-2.5,2.5-2.5c1.381,0,2.5,1.119,2.5,2.5
			v344.822C288.28,349.542,287.161,350.662,285.78,350.662z"/>
	</g>
	<g>
		<path fill="#F1EEDD" d="M335.418,5.839h-99.271c-1.381,0-2.5-1.119-2.5-2.5s1.119-2.5,2.5-2.5h99.271c1.381,0,2.5,1.119,2.5,2.5
			S336.799,5.839,335.418,5.839z"/>
	</g>
	<g>
		<path fill="#F1EEDD" d="M335.418,350.662h-99.271c-1.381,0-2.5-1.119-2.5-2.5c0-1.382,1.119-2.5,2.5-2.5h99.271
			c1.381,0,2.5,1.118,2.5,2.5C337.918,349.543,336.799,350.662,335.418,350.662z"/>
	</g>
</g>
<g>
	<path fill="#F1EEDD" d="M141.325,568.564c-7.799,0-11.848-3.135-15.419-5.897c-3.365-2.604-6.271-4.853-12.363-4.853
		c-6.085,0-8.987,2.248-12.349,4.852c-3.569,2.765-7.616,5.898-15.41,5.898c-7.797,0-11.844-3.136-15.415-5.898
		c-3.363-2.604-6.267-4.852-12.354-4.852c-6.086,0-8.99,2.248-12.351,4.852c-3.57,2.765-7.616,5.898-15.411,5.898
		c-7.793,0-11.838-3.136-15.407-5.898c-3.36-2.604-6.263-4.852-12.346-4.852c-1.381,0-2.5-1.119-2.5-2.5c0-1.383,1.119-2.5,2.5-2.5
		c7.793,0,11.839,3.134,15.408,5.897c3.36,2.604,6.262,4.853,12.345,4.853c6.085,0,8.988-2.248,12.349-4.853
		c3.57-2.765,7.617-5.897,15.413-5.897c7.797,0,11.844,3.134,15.415,5.896c3.363,2.604,6.268,4.854,12.354,4.854
		c6.085,0,8.987-2.248,12.349-4.854c3.569-2.765,7.616-5.896,15.41-5.896c7.801,0,11.85,3.134,15.423,5.896
		c3.364,2.604,6.269,4.854,12.359,4.854c6.091,0,8.996-2.25,12.36-4.854c3.572-2.765,7.621-5.896,15.42-5.896
		c1.381,0,2.5,1.117,2.5,2.5c0,1.381-1.119,2.5-2.5,2.5c-6.091,0-8.996,2.248-12.36,4.852
		C153.173,565.431,149.125,568.564,141.325,568.564z"/>
</g>
<g>
	<g>
		<path fill="#F1EEDD" d="M1144.362,454.289c-7.799,0-11.848-3.132-15.418-5.896c-3.365-2.604-6.271-4.852-12.363-4.852
			c-6.084,0-8.988,2.248-12.35,4.852c-3.568,2.765-7.615,5.896-15.41,5.896c-7.797,0-11.846-3.133-15.416-5.896
			c-3.361-2.604-6.268-4.852-12.354-4.852s-8.99,2.248-12.352,4.852c-3.568,2.765-7.615,5.896-15.41,5.896
			c-7.793,0-11.838-3.133-15.406-5.896c-3.359-2.604-6.262-4.852-12.346-4.852c-1.381,0-2.5-1.119-2.5-2.5s1.119-2.5,2.5-2.5
			c7.793,0,11.838,3.133,15.408,5.898c3.355,2.603,6.262,4.85,12.344,4.85c6.086,0,8.988-2.248,12.35-4.852
			c3.57-2.765,7.617-5.896,15.412-5.896c7.797,0,11.844,3.133,15.414,5.896c3.363,2.604,6.268,4.852,12.355,4.852
			c6.086,0,8.986-2.248,12.35-4.852c3.57-2.765,7.615-5.896,15.41-5.896c7.801,0,11.85,3.133,15.422,5.896
			c3.363,2.604,6.27,4.852,12.359,4.852c6.088,0,8.996-2.248,12.357-4.852c3.572-2.765,7.621-5.896,15.42-5.896
			c1.385,0,2.5,1.119,2.5,2.5s-1.115,2.5-2.5,2.5c-6.09,0-8.992,2.248-12.357,4.852
			C1156.209,451.156,1152.161,454.289,1144.362,454.289z"/>
	</g>
	<g>
		<path fill="#F1EEDD" d="M1144.362,484.289c-7.799,0-11.848-3.132-15.418-5.896c-3.365-2.604-6.271-4.852-12.363-4.852
			c-6.084,0-8.988,2.248-12.35,4.852c-3.568,2.765-7.615,5.896-15.41,5.896c-7.797,0-11.846-3.133-15.416-5.896
			c-3.361-2.604-6.268-4.852-12.354-4.852s-8.99,2.248-12.352,4.852c-3.568,2.765-7.615,5.896-15.41,5.896
			c-7.793,0-11.838-3.133-15.406-5.896c-3.359-2.604-6.262-4.852-12.346-4.852c-1.381,0-2.5-1.119-2.5-2.5s1.119-2.5,2.5-2.5
			c7.793,0,11.838,3.133,15.408,5.898c3.355,2.603,6.262,4.85,12.344,4.85c6.086,0,8.988-2.248,12.35-4.852
			c3.57-2.765,7.617-5.896,15.412-5.896c7.797,0,11.844,3.133,15.414,5.896c3.363,2.604,6.268,4.852,12.355,4.852
			c6.086,0,8.986-2.248,12.35-4.852c3.57-2.765,7.615-5.896,15.41-5.896c7.801,0,11.85,3.133,15.422,5.896
			c3.363,2.604,6.27,4.852,12.359,4.852c6.088,0,8.996-2.248,12.357-4.852c3.572-2.765,7.621-5.896,15.42-5.896
			c1.385,0,2.5,1.119,2.5,2.5s-1.115,2.5-2.5,2.5c-6.09,0-8.992,2.248-12.357,4.852
			C1156.209,481.156,1152.161,484.289,1144.362,484.289z"/>
	</g>
	<g>
		<path fill="#F1EEDD" d="M1312.178,484.289c-7.799,0-11.848-3.133-15.42-5.896c-3.365-2.604-6.27-4.852-12.363-4.852
			c-6.084,0-8.986,2.248-12.348,4.852c-3.57,2.765-7.615,5.896-15.41,5.896c-7.797,0-11.844-3.133-15.414-5.896
			c-3.363-2.604-6.268-4.852-12.354-4.852c-6.088,0-8.99,2.248-12.355,4.852c-3.566,2.765-7.613,5.896-15.408,5.896
			c-7.793,0-11.84-3.133-15.406-5.896c-3.361-2.604-6.266-4.852-12.35-4.852c-1.381,0-2.5-1.119-2.5-2.5s1.119-2.5,2.5-2.5
			c7.793,0,11.842,3.133,15.408,5.896c3.361,2.604,6.262,4.852,12.346,4.852s8.988-2.248,12.352-4.85
			c3.566-2.767,7.615-5.898,15.414-5.898c7.797,0,11.844,3.133,15.414,5.896c3.359,2.604,6.268,4.852,12.354,4.852
			s8.988-2.248,12.35-4.852c3.568-2.765,7.615-5.896,15.408-5.896c7.803,0,11.852,3.133,15.424,5.896
			c3.363,2.604,6.27,4.852,12.359,4.852c6.088,0,8.996-2.248,12.359-4.852c3.568-2.765,7.619-5.896,15.42-5.896
			c1.381,0,2.5,1.119,2.5,2.5s-1.119,2.5-2.5,2.5c-6.09,0-8.996,2.248-12.359,4.852
			C1324.026,481.156,1319.979,484.289,1312.178,484.289z"/>
	</g>
	<g>
		<path fill="#F1EEDD" d="M1144.362,514.289c-7.799,0-11.848-3.132-15.418-5.896c-3.365-2.604-6.271-4.852-12.363-4.852
			c-6.084,0-8.988,2.248-12.35,4.852c-3.568,2.765-7.615,5.896-15.41,5.896c-7.797,0-11.846-3.133-15.416-5.897
			c-3.361-2.603-6.268-4.851-12.354-4.851s-8.99,2.248-12.352,4.851c-3.568,2.766-7.615,5.897-15.41,5.897
			c-7.793,0-11.838-3.133-15.406-5.897c-3.359-2.603-6.262-4.851-12.346-4.851c-1.381,0-2.5-1.119-2.5-2.5s1.119-2.5,2.5-2.5
			c7.793,0,11.838,3.133,15.408,5.898c3.355,2.603,6.262,4.85,12.344,4.85c6.086,0,8.988-2.248,12.35-4.852
			c3.57-2.765,7.617-5.896,15.412-5.896c7.797,0,11.844,3.133,15.414,5.896c3.363,2.604,6.268,4.852,12.355,4.852
			c6.086,0,8.986-2.248,12.35-4.852c3.57-2.765,7.615-5.896,15.41-5.896c7.801,0,11.85,3.133,15.422,5.896
			c3.363,2.604,6.27,4.852,12.359,4.852c6.088,0,8.996-2.248,12.357-4.852c3.572-2.765,7.621-5.896,15.42-5.896
			c1.385,0,2.5,1.119,2.5,2.5s-1.115,2.5-2.5,2.5c-6.09,0-8.992,2.248-12.357,4.852
			C1156.209,511.156,1152.161,514.289,1144.362,514.289z"/>
	</g>
	<g>
		<path fill="#F1EEDD" d="M1312.178,514.289c-7.799,0-11.848-3.133-15.42-5.896c-3.365-2.604-6.27-4.852-12.363-4.852
			c-6.084,0-8.986,2.248-12.348,4.852c-3.57,2.765-7.615,5.896-15.41,5.896c-7.797,0-11.844-3.133-15.414-5.897
			c-3.363-2.603-6.268-4.851-12.354-4.851c-6.088,0-8.99,2.248-12.355,4.851c-3.566,2.766-7.613,5.897-15.408,5.897
			c-7.793,0-11.84-3.133-15.406-5.897c-3.361-2.603-6.266-4.851-12.35-4.851c-1.381,0-2.5-1.119-2.5-2.5s1.119-2.5,2.5-2.5
			c7.793,0,11.842,3.133,15.408,5.896c3.361,2.604,6.262,4.852,12.346,4.852s8.988-2.248,12.352-4.85
			c3.566-2.767,7.615-5.898,15.414-5.898c7.797,0,11.844,3.133,15.414,5.896c3.359,2.604,6.268,4.852,12.354,4.852
			s8.988-2.248,12.35-4.852c3.568-2.765,7.615-5.896,15.408-5.896c7.803,0,11.852,3.133,15.424,5.896
			c3.363,2.604,6.27,4.852,12.359,4.852c6.088,0,8.996-2.248,12.359-4.852c3.568-2.765,7.619-5.896,15.42-5.896
			c1.381,0,2.5,1.119,2.5,2.5s-1.119,2.5-2.5,2.5c-6.09,0-8.996,2.248-12.359,4.852
			C1324.026,511.156,1319.979,514.289,1312.178,514.289z"/>
	</g>
</g>
<g>
	<path fill="#F1EEDD" d="M95.039,520.974c-1.381,0-2.5-1.118-2.5-2.5v-89.135c0-1.381,1.119-2.5,2.5-2.5h273.859
		c1.382,0,2.5,1.119,2.5,2.5s-1.118,2.5-2.5,2.5H97.539v86.635C97.539,519.855,96.42,520.974,95.039,520.974z"/>
</g>
<g>
	<g>
		<path fill="#F1EEDD" d="M964.165,253.187c-32.129,0-58.266-26.137-58.266-58.265c0-32.126,26.137-58.264,58.266-58.264
			c1.381,0,2.5,1.119,2.5,2.5c0,1.381-1.119,2.5-2.5,2.5c-29.371,0-53.266,23.894-53.266,53.264s23.895,53.265,53.266,53.265
			c29.369,0,53.264-23.895,53.264-53.265c0-1.381,1.119-2.5,2.5-2.5s2.5,1.119,2.5,2.5
			C1022.426,227.05,996.292,253.187,964.165,253.187z"/>
	</g>
	<g>
		<g>
			<path fill="#F1EEDD" d="M1041.133,193.424c-0.639,0-1.277-0.244-1.768-0.732l-22.32-22.323c-0.977-0.976-0.977-2.559,0-3.536
				c0.979-0.976,2.561-0.976,3.535,0l22.32,22.323c0.977,0.976,0.977,2.559,0,3.536
				C1042.415,193.18,1041.774,193.424,1041.133,193.424z"/>
		</g>
		<g>
			<path fill="#F1EEDD" d="M996.495,193.424c-0.641,0-1.279-0.244-1.77-0.732c-0.977-0.977-0.977-2.56,0-3.536l22.32-22.323
				c0.979-0.977,2.561-0.976,3.535,0c0.977,0.977,0.977,2.56,0,3.536l-22.32,22.323C997.774,193.18,997.133,193.424,996.495,193.424
				z"/>
		</g>
	</g>
</g>
<g>
	<path fill="none" stroke="#F4F5F5" stroke-width="5" stroke-linecap="round" stroke-linejoin="round" stroke-miterlimit="10" d="
		M1304.042,265.496"/>
</g>
</svg>
