<?xml version="1.0" encoding="utf-8"?>
<!-- Generator: Adobe Illustrator 16.0.0, SVG Export Plug-In . SVG Version: 6.00 Build 0)  -->
<!DOCTYPE svg PUBLIC "-//W3C//DTD SVG 1.1//EN" "http://www.w3.org/Graphics/SVG/1.1/DTD/svg11.dtd">
<svg version="1.1" id="Layer_1" xmlns="http://www.w3.org/2000/svg" xmlns:xlink="http://www.w3.org/1999/xlink" x="0px" y="0px"
	 width="1438.729px" height="568.564px" viewBox="0 0 1438.729 568.564" enable-background="new 0 0 1438.729 568.564"
	 xml:space="preserve">
<g>
	<g>
		<path fill="#F1EEDD" d="M515.169,496.884c0-1.164,0.963-2.127,2.127-2.127s2.127,0.963,2.127,2.127v3.371h1.806
			c1.003,0,1.81,0.803,1.81,1.806c0,1.006-0.807,1.81-1.81,1.81h-1.806v9.711c0,0.923,0.802,1.445,1.524,1.445
			c1.044,0,1.886,0.843,1.886,1.886s-0.843,1.886-1.886,1.886c-3.571,0-5.778-2.288-5.778-5.458v-9.471h-0.923
			c-1.003,0-1.81-0.807-1.81-1.809c0-1.004,0.807-1.807,1.81-1.807h0.923V496.884L515.169,496.884z"/>
		<path fill="#F1EEDD" d="M529.974,502.102c0.763-1.164,2.448-2.405,5.138-2.405c5.457,0,6.741,3.489,6.741,6.979v10.033
			c0,1.204-0.963,2.087-2.167,2.087c-1.283,0-2.167-0.883-2.167-2.087v-9.229c0-2.288-0.923-3.854-3.528-3.854
			c-3.013,0-4.017,1.766-4.017,4.133v8.949c0,1.204-0.923,2.087-2.167,2.087s-2.167-0.883-2.167-2.087v-24.64
			c0-1.204,0.963-2.168,2.167-2.168s2.167,0.964,2.167,2.168V502.102L529.974,502.102z"/>
		<path fill="#F1EEDD" d="M553.126,499.693c6.782,0,8.022,5.217,8.022,7.982c0,1.484,0,3.21-2.444,3.21h-9.912
			c0,2.893,2.046,4.213,4.692,4.213c1.769,0,3.013-0.602,3.976-1.241c0.438-0.28,0.762-0.44,1.284-0.44
			c1.043,0,1.886,0.843,1.886,1.886c0,0.646-0.321,1.164-0.685,1.485c-0.683,0.642-2.81,2.207-6.461,2.207
			c-5.575,0-9.027-3.011-9.027-9.711C544.458,503.145,547.669,499.693,553.126,499.693z M548.913,507.278h7.941
			c0-1.97-1.122-3.896-3.729-3.896C550.799,503.385,549.113,504.709,548.913,507.278z"/>
		<path fill="#F1EEDD" d="M580.37,518.996c-5.418,0-8.789-3.09-8.789-9.631c0-6.581,3.371-9.671,8.789-9.671s8.789,3.09,8.789,9.671
			C589.158,515.906,585.788,518.996,580.37,518.996z M580.37,503.385c-2.894,0-4.414,2.006-4.414,5.979
			c0,3.933,1.521,5.938,4.414,5.938c2.89,0,4.414-2.006,4.414-5.938C584.784,505.392,583.259,503.385,580.37,503.385z"/>
		<path fill="#F1EEDD" d="M608.136,506.676v10.033c0,1.204-0.963,2.087-2.167,2.087c-1.284,0-2.167-0.883-2.167-2.087v-9.23
			c0-2.284-0.923-3.853-3.532-3.853c-3.01,0-4.013,1.766-4.013,4.133v8.949c0,1.204-0.923,2.087-2.167,2.087
			s-2.167-0.883-2.167-2.087v-14.607c0-1.204,0.963-2.167,2.167-2.167s2.167,0.963,2.167,2.167c0.763-1.163,2.448-2.404,5.137-2.404
			C606.852,499.693,608.136,503.186,608.136,506.676z"/>
		<path fill="#F1EEDD" d="M616.079,492.068v21.987c0,0.482,0.479,0.727,0.762,0.727c1.124,0,2.006,0.883,2.006,2.006
			s-0.883,2.007-2.006,2.007c-3.13,0-5.096-1.766-5.096-5.137v-21.59c0-1.204,0.963-2.167,2.167-2.167
			C615.115,489.901,616.079,490.864,616.079,492.068z"/>
		<path fill="#F1EEDD" d="M625.508,517.189l-6.18-14.246c-0.08-0.201-0.161-0.481-0.161-0.846c0-1.201,0.963-2.167,2.167-2.167
			s1.806,0.847,2.006,1.365l4.415,11.156l4.414-11.156c0.201-0.521,0.803-1.365,2.007-1.365s2.167,0.966,2.167,2.167
			c0,0.361-0.081,0.646-0.161,0.846l-7.464,16.854c-1.766,3.936-4.294,6.742-8.307,6.742c-1.164,0-2.087-0.843-2.087-2.007
			s0.924-2.007,2.087-2.007C622.979,522.527,624.183,520.48,625.508,517.189z"/>
		<path fill="#F1EEDD" d="M657.888,508.48l-2.487,8.75c-0.277,0.923-1.123,1.563-2.087,1.563c-0.963,0-1.726-0.602-2.046-1.405
			l-5.498-14.326c-0.121-0.278-0.201-0.723-0.201-0.964c0-1.204,0.967-2.167,2.17-2.167c0.924,0,1.727,0.522,2.047,1.405
			l3.331,9.872l2.688-9.711c0.201-0.723,0.883-1.565,2.087-1.565c1.084,0,1.848,0.767,2.047,1.445l2.688,9.832l3.291-9.872
			c0.317-0.883,1.124-1.405,2.087-1.405c1.244,0,2.167,0.887,2.167,2.087c0,0.241-0.08,0.563-0.201,0.847l-5.498,14.563
			c-0.321,0.887-1.083,1.365-2.006,1.365c-0.963,0-1.806-0.643-2.087-1.525L657.888,508.48z"/>
		<path fill="#F1EEDD" d="M674.779,505.07c-0.398,0.277-0.724,0.397-1.201,0.397c-1.043,0-1.89-0.843-1.89-1.886
			c0-0.441,0.161-0.923,0.522-1.324c1.124-1.244,3.13-2.564,6.581-2.564c4.977,0,7.944,2.444,7.944,6.699v10.272
			c0,1.164-0.965,2.127-2.129,2.127c-1.162,0-2.127-0.963-2.127-2.127c-1.084,1.728-2.85,2.327-5.257,2.327
			c-3.933,0-6.542-2.448-6.542-6.063c0-3.729,3.01-5.655,6.501-5.655h5.257v-0.727c0-1.806-1.32-3.01-3.648-3.01
			C677.025,503.545,675.781,504.348,674.779,505.07z M682.443,511.771v-1.123h-4.691c-1.77,0-2.729,0.843-2.729,2.285
			c0,1.524,1.083,2.447,3.331,2.447C680.477,515.384,682.443,514.02,682.443,511.771z"/>
		<path fill="#F1EEDD" d="M694.961,517.189l-6.18-14.246c-0.081-0.201-0.161-0.481-0.161-0.846c0-1.201,0.963-2.167,2.167-2.167
			c1.203,0,1.806,0.847,2.007,1.365l4.414,11.156l4.415-11.156c0.199-0.521,0.803-1.365,2.006-1.365
			c1.204,0,2.167,0.966,2.167,2.167c0,0.361-0.08,0.646-0.16,0.846l-7.464,16.854c-1.766,3.936-4.294,6.742-8.307,6.742
			c-1.164,0-2.09-0.843-2.09-2.007s0.926-2.007,2.09-2.007C692.432,522.527,693.636,520.48,694.961,517.189z"/>
		<path fill="#F1EEDD" d="M724.492,518.996c-5.418,0-8.789-3.09-8.789-9.631c0-6.581,3.371-9.671,8.789-9.671
			s8.789,3.09,8.789,9.671C733.281,515.906,729.91,518.996,724.492,518.996z M724.492,503.385c-2.894,0-4.414,2.006-4.414,5.979
			c0,3.933,1.521,5.938,4.414,5.938c2.89,0,4.414-2.006,4.414-5.938C728.906,505.392,727.382,503.385,724.492,503.385z"/>
		<path fill="#F1EEDD" d="M740.179,502.102v9.353c0,1.846,0.642,3.612,3.611,3.612c2.93,0,3.569-1.77,3.569-3.612v-9.353
			c0-1.201,0.965-2.168,2.17-2.168c1.2,0,2.166,0.967,2.166,2.168v9.353c0,3.933-1.484,7.544-7.905,7.544
			c-6.461,0-7.945-3.611-7.945-7.544v-9.353c0-1.201,0.963-2.168,2.167-2.168S740.179,500.896,740.179,502.102z"/>
		<path fill="#F1EEDD" d="M756.509,496.884c0-1.164,0.963-2.127,2.127-2.127s2.127,0.963,2.127,2.127v3.371h1.806
			c1.006,0,1.809,0.803,1.809,1.806c0,1.006-0.803,1.81-1.809,1.81h-1.806v9.711c0,0.923,0.803,1.445,1.525,1.445
			c1.043,0,1.887,0.843,1.887,1.886s-0.844,1.886-1.887,1.886c-3.572,0-5.779-2.288-5.779-5.458v-9.471h-0.923
			c-1.004,0-1.807-0.807-1.807-1.809c0-1.004,0.803-1.807,1.807-1.807h0.923V496.884L756.509,496.884z"/>
		<path fill="#F1EEDD" d="M775.448,495.238c0-1.85,0.922-2.648,2.564-2.648c1.688,0,2.607,0.803,2.607,2.648
			c0,1.563-0.922,2.524-2.607,2.524C776.37,497.767,775.448,496.804,775.448,495.238z M780.18,516.628
			c0,1.204-0.963,2.167-2.166,2.167s-2.168-0.963-2.168-2.167v-14.527c0-1.204,0.965-2.167,2.168-2.167s2.166,0.967,2.166,2.167
			V516.628z"/>
		<path fill="#F1EEDD" d="M787.885,504.99c0,2.97,9.871,1.604,9.871,8.227c0,3.772-3.211,5.699-7.344,5.699
			c-3.451,0-6.104-1.565-7.105-2.809c-0.316-0.401-0.479-0.767-0.479-1.244c0-1.043,0.883-1.93,1.926-1.93
			c0.4,0,0.803,0.121,1.244,0.481c1.084,0.883,2.408,1.646,4.414,1.646c1.807,0,2.971-0.479,2.971-1.604
			c0-3.251-9.832-1.565-9.832-8.388c0-3.612,3.01-5.378,6.701-5.378c2.85,0,5.377,1.084,6.502,2.485c0.24,0.321,0.4,0.604,0.4,1.204
			c0,1.043-0.885,1.926-1.932,1.926c-0.561,0-0.922-0.237-1.359-0.562c-0.885-0.646-1.969-1.284-3.611-1.284
			C788.768,503.465,787.885,503.987,787.885,504.99z"/>
		<path fill="#F1EEDD" d="M810.514,496.884c0-1.164,0.963-2.127,2.127-2.127c1.162,0,2.127,0.963,2.127,2.127v3.371h1.809
			c1.002,0,1.805,0.803,1.805,1.806c0,1.006-0.803,1.81-1.805,1.81h-1.809v9.711c0,0.923,0.803,1.445,1.523,1.445
			c1.045,0,1.887,0.843,1.887,1.886s-0.842,1.886-1.887,1.886c-3.57,0-5.777-2.288-5.777-5.458v-9.471h-0.924
			c-1.004,0-1.807-0.807-1.807-1.809c0-1.004,0.803-1.807,1.807-1.807h0.924V496.884L810.514,496.884z"/>
		<path fill="#F1EEDD" d="M825.32,502.102c0.764-1.164,2.447-2.405,5.139-2.405c5.457,0,6.742,3.489,6.742,6.979v10.033
			c0,1.204-0.965,2.087-2.168,2.087c-1.283,0-2.166-0.883-2.166-2.087v-9.229c0-2.288-0.926-3.854-3.531-3.854
			c-3.01,0-4.016,1.766-4.016,4.133v8.949c0,1.204-0.924,2.087-2.168,2.087c-1.242,0-2.166-0.883-2.166-2.087v-24.64
			c0-1.204,0.965-2.168,2.166-2.168c1.203,0,2.168,0.964,2.168,2.168V502.102L825.32,502.102z"/>
		<path fill="#F1EEDD" d="M844.939,502.301c0.766-1.563,2.648-2.564,4.334-2.564c1.123,0,2.047,0.923,2.047,2.047
			s-0.924,2.047-2.047,2.047c-2.77,0-4.334,1.766-4.334,4.454v8.347c0,1.204-0.963,2.167-2.168,2.167
			c-1.201,0-2.166-0.963-2.166-2.167v-14.527c0-1.201,0.965-2.164,2.166-2.164c1.205,0,2.168,0.964,2.168,2.164V502.301z"/>
		<path fill="#F1EEDD" d="M860.952,518.996c-5.418,0-8.789-3.09-8.789-9.631c0-6.581,3.371-9.671,8.789-9.671
			c5.416,0,8.786,3.09,8.786,9.671C869.738,515.906,866.368,518.996,860.952,518.996z M860.952,503.385
			c-2.893,0-4.416,2.006-4.416,5.979c0,3.933,1.523,5.938,4.416,5.938c2.889,0,4.414-2.006,4.414-5.938
			C865.366,505.392,863.841,503.385,860.952,503.385z"/>
		<path fill="#F1EEDD" d="M876.637,502.102v9.353c0,1.846,0.643,3.612,3.611,3.612c2.93,0,3.568-1.77,3.568-3.612v-9.353
			c0-1.201,0.967-2.168,2.169-2.168c1.2,0,2.166,0.967,2.166,2.168v9.353c0,3.933-1.481,7.544-7.903,7.544
			c-6.461,0-7.945-3.611-7.945-7.544v-9.353c0-1.201,0.963-2.168,2.166-2.168C875.675,499.934,876.637,500.896,876.637,502.102z"/>
		<path fill="#F1EEDD" d="M890.759,509.324c0-6.541,3.172-9.631,8.588-9.631c4.857,0,8.313,2.688,8.313,8.022v10.153
			c0,5.538-2.73,8.668-8.67,8.668c-3.25,0-5.656-1.003-7.021-2.649c-0.199-0.237-0.4-0.642-0.4-1.163
			c0-1.044,0.885-1.927,1.93-1.927c0.479,0,0.801,0.161,1.282,0.481c1.002,0.722,2.325,1.563,4.214,1.563
			c2.85,0,4.295-1.48,4.295-3.933v-1.525c-0.805,0.807-2.447,1.605-4.375,1.605C893.848,518.996,890.759,515.866,890.759,509.324z
			 M903.32,507.719c0-2.769-1.646-4.334-3.975-4.334c-2.768,0-4.293,2.006-4.293,5.939c0,3.973,1.564,5.979,4.293,5.979
			c2.408,0,3.975-2.046,3.975-2.046V507.719z"/>
		<path fill="#F1EEDD" d="M915.314,502.102c0.766-1.164,2.447-2.405,5.141-2.405c5.457,0,6.741,3.489,6.741,6.979v10.033
			c0,1.204-0.966,2.087-2.171,2.087c-1.279,0-2.166-0.883-2.166-2.087v-9.229c0-2.288-0.924-3.854-3.529-3.854
			c-3.012,0-4.016,1.766-4.016,4.133v8.949c0,1.204-0.922,2.087-2.166,2.087s-2.168-0.883-2.168-2.087v-24.64
			c0-1.204,0.965-2.168,2.168-2.168s2.166,0.964,2.166,2.168V502.102z"/>
	</g>
	<g>
		<path fill="#F1EEDD" d="M938.436,64.019l0.48-0.485l-50.967-50.967l-0.934-0.928l-0.314-0.314l-0.014,0.002
			c-5.875-5.495-13.768-8.87-22.422-8.87h-370.81c-18.111,0-32.856,14.743-32.856,32.862v227.79
			c0,10.837,5.279,20.467,13.397,26.457l43.065,43.52c5.854,9.073,16.049,15.08,27.619,15.08h370.817
			c18.11,0,32.848-14.74,32.848-32.854V87.516C948.346,78.31,944.553,69.991,938.436,64.019z"/>
	</g>
	<g>
		<path fill="#161A15" d="M941.034,62.245L941.034,62.245l-51.045-52.032l-0.939-0.937l-0.314-0.319l-0.014,0.007
			C882.773,3.406,874.8,0,866.044,0H491.103c-18.313,0-33.217,14.902-33.217,33.221v230.32c0,10.965,5.334,20.7,13.549,26.75
			l43.542,44.01c5.92,9.165,16.229,15.239,27.924,15.239h374.942c18.314,0,33.221-14.896,33.221-33.215V86.006
			C951.061,76.702,947.219,68.279,941.034,62.245z M919.643,52.836c-0.598-0.043-1.201-0.058-1.803-0.058h-18.576V33.221
			c0-0.263-0.002-0.522-0.012-0.776L919.643,52.836z M491.103,9.163h374.941c6.438,0,12.295,2.549,16.619,6.69l0.756,0.749
			c4.137,4.32,6.688,10.176,6.688,16.619V52.78H542.899c-6.854,0-13.231,2.094-18.534,5.67l-45.748-45.777
			C482.259,10.441,486.531,9.163,491.103,9.163z M890.104,263.542c0,8.813-4.77,16.539-11.857,20.729v-32.188
			c0-13.625-11.08-24.699-24.689-24.699H607.191c-13.617,0-24.688,11.074-24.688,24.699v35.525h-63.656V86.006
			c0-13.269,10.79-24.054,24.056-24.054h347.207v201.59H890.104z M849.173,239.362v8.158c0,7.638-6.203,13.837-13.854,13.837
			c-2.691,0-5.209-0.769-7.334-2.102c-3.906-2.444-6.514-6.795-6.514-11.735v-0.298v-7.86H849.173z M795.592,239.362v8.158
			c0,7.081-5.33,12.918-12.199,13.739c-0.541,0.059-1.094,0.098-1.645,0.098c-7.656,0-13.859-6.199-13.859-13.837v-0.298v-7.86
			H795.592L795.592,239.362z M742.015,239.362v8.158c0,2.89-0.893,5.583-2.418,7.805c-2.498,3.643-6.688,6.032-11.434,6.032
			c-4.748,0-8.938-2.39-11.436-6.032c-1.521-2.222-2.418-4.915-2.418-7.805v-8.158H742.015z M688.436,239.362v7.86v0.298
			c0,7.638-6.199,13.837-13.848,13.837c-0.563,0-1.112-0.039-1.653-0.098c-6.873-0.821-12.2-6.658-12.2-13.739v-8.158H688.436z
			 M634.854,247.222v0.298c0,4.94-2.603,9.287-6.513,11.735c-2.128,1.333-4.641,2.102-7.335,2.102
			c-7.647,0-13.851-6.199-13.851-13.837v-8.158c0.012,0,0.021,0,0.031,0h27.663L634.854,247.222L634.854,247.222z M467.051,33.221
			c0-5.386,1.775-10.362,4.781-14.377l45.702,45.73c-4.896,5.793-7.852,13.268-7.852,21.432v201.603H491.1
			c-5.09,0-9.812-1.602-13.707-4.309l-6.207-6.276c-2.609-3.847-4.138-8.483-4.138-13.482L467.051,33.221L467.051,33.221z
			 M491.103,296.771h18.583v19.15l-18.963-19.158C490.851,296.763,490.978,296.771,491.103,296.771z M917.842,340.379H542.899
			c-5.979,0-11.454-2.198-15.667-5.825l0,0l-5.019-5.969c-2.133-3.595-3.369-7.783-3.369-12.26v-19.555H582.5v2.395
			c0,13.615,11.072,24.693,24.688,24.693h246.363c13.609,0,24.689-11.078,24.689-24.693v-4.719c2.457-0.979,4.77-2.233,6.907-3.732
			l45.798,45.768C927.176,338.944,922.676,340.379,917.842,340.379z M941.896,316.326c0,5.123-1.619,9.876-4.355,13.786
			l-45.691-45.667c4.641-5.709,7.418-12.982,7.418-20.905V61.953h18.576c13.271,0,24.061,10.785,24.061,24.054v230.319H941.896z"/>
	</g>
	<g>
		<path fill="#161A15" d="M625.757,169.422c20.58,0,37.268-16.688,37.268-37.268c0-20.581-16.688-37.271-37.268-37.271
			c-20.586,0-37.274,16.688-37.274,37.271C588.481,152.734,605.17,169.422,625.757,169.422z M625.757,122.066
			c5.563,0,10.08,4.516,10.08,10.088c0,5.568-4.519,10.078-10.08,10.078c-5.573,0-10.083-4.51-10.083-10.078
			C615.673,126.583,620.184,122.066,625.757,122.066z"/>
	</g>
	<g>
		<path fill="#161A15" d="M834.984,169.422c20.592,0,37.275-16.688,37.275-37.268c0-20.581-16.688-37.271-37.275-37.271
			c-20.572,0-37.27,16.688-37.27,37.271C797.717,152.734,814.411,169.422,834.984,169.422z M834.991,122.066
			c5.564,0,10.084,4.516,10.084,10.088c0,5.568-4.52,10.078-10.084,10.078c-5.572,0-10.08-4.51-10.08-10.078
			C824.911,126.583,829.419,122.066,834.991,122.066z"/>
	</g>
	<g>
		<path fill="#161A15" d="M723.231,173.554l-9.87,9.87c-2.63,2.635-2.63,6.901,0,9.526c2.632,2.629,6.896,2.629,9.526,0l9.875-9.875
			l9.873,9.875c2.631,2.629,6.894,2.629,9.523,0c2.629-2.625,2.629-6.891,0-9.526l-9.875-9.87l9.875-9.875
			c2.629-2.628,2.629-6.892,0-9.524c-2.634-2.634-6.896-2.634-9.523,0l-9.873,9.876l-9.875-9.876c-2.635-2.634-6.896-2.634-9.528,0
			c-2.628,2.633-2.628,6.896,0,9.518L723.231,173.554z"/>
	</g>
	<g>
		<path fill="#F1EEDD" d="M583.773,436.658h-21.931c-4.515,0-8.224-3.709-8.224-8.226c0-4.515,3.709-8.224,8.224-8.224h31.284
			c4.515,0,8.869,3.87,8.869,8.546v25.801c0,3.709-0.807,6.128-2.741,8.547c-7.74,10.32-24.833,17.577-42.087,17.577
			c-32.09,0-50.474-16.932-50.474-56.438c0-38.219,18.384-56.602,50.474-56.602c19.512,0,32.251,7.74,38.861,17.416
			c1.29,1.936,1.774,3.547,1.774,5.321c0,4.676-3.87,8.546-8.708,8.546c-2.257,0-4.515-0.967-6.611-3.225
			c-6.61-7.258-13.545-11.288-25.316-11.288c-21.447,0-31.122,13.223-31.122,39.83c0,28.22,9.675,39.669,31.122,39.669
			c11.933,0,20.317-2.741,26.606-9.191L583.773,436.658L583.773,436.658z"/>
		<path fill="#F1EEDD" d="M701.651,377.8v92.722c0,4.999-4.191,9.191-9.19,9.191c-3.064,0-5.967-1.612-7.579-4.031l-47.57-68.693
			v63.533c0,4.999-4.191,9.191-9.19,9.191s-9.191-4.191-9.191-9.191V377.8c0-4.999,4.192-9.191,9.191-9.191
			c3.225,0,5.805,1.451,7.418,3.871l47.73,69.178V377.8c0-4.999,4.192-9.191,9.191-9.191S701.651,372.801,701.651,377.8z"/>
		<path fill="#F1EEDD" d="M716.003,424.241c0-38.219,18.544-56.602,51.118-56.602c32.572,0,51.117,18.383,51.117,56.602
			c0,37.732-18.544,56.438-51.117,56.438C734.547,480.681,716.003,461.975,716.003,424.241z M735.354,424.241
			c0,26.606,10.481,39.669,31.768,39.669s31.767-13.063,31.767-39.669c0-26.77-10.48-39.83-31.767-39.83
			S735.354,397.473,735.354,424.241z"/>
		<path fill="#F1EEDD" d="M906.285,436.658h-21.932c-4.516,0-8.224-3.709-8.224-8.226c0-4.515,3.708-8.224,8.224-8.224h31.283
			c4.516,0,8.869,3.87,8.869,8.546v25.801c0,3.709-0.807,6.128-2.741,8.547c-7.74,10.32-24.833,17.577-42.088,17.577
			c-32.089,0-50.473-16.932-50.473-56.438c0-38.219,18.384-56.602,50.473-56.602c19.513,0,32.251,7.74,38.862,17.416
			c1.291,1.936,1.773,3.547,1.773,5.321c0,4.676-3.87,8.546-8.708,8.546c-2.258,0-4.515-0.967-6.61-3.225
			c-6.611-7.258-13.545-11.288-25.317-11.288c-21.446,0-31.122,13.223-31.122,39.83c0,28.22,9.676,39.669,31.122,39.669
			c11.934,0,20.318-2.741,26.606-9.191v-18.06H906.285z"/>
	</g>
</g>
<g>
	<g>
		<path fill="#F1EEDD" d="M376.247,350.662c-1.381,0-2.5-1.119-2.5-2.5V3.339c0-1.381,1.119-2.5,2.5-2.5c1.381,0,2.5,1.119,2.5,2.5
			v344.822C378.747,349.542,377.628,350.662,376.247,350.662z"/>
	</g>
	<g>
		<path fill="#F1EEDD" d="M425.885,5.839h-99.271c-1.381,0-2.5-1.119-2.5-2.5s1.119-2.5,2.5-2.5h99.271c1.381,0,2.5,1.119,2.5,2.5
			S427.266,5.839,425.885,5.839z"/>
	</g>
	<g>
		<path fill="#F1EEDD" d="M425.885,350.662h-99.271c-1.381,0-2.5-1.119-2.5-2.5c0-1.382,1.119-2.5,2.5-2.5h99.271
			c1.381,0,2.5,1.118,2.5,2.5C428.385,349.543,427.266,350.662,425.885,350.662z"/>
	</g>
</g>
<g>
	<path fill="#F1EEDD" d="M231.792,568.564c-7.799,0-11.848-3.137-15.419-5.897c-3.365-2.604-6.271-4.853-12.363-4.853
		c-6.085,0-8.987,2.248-12.349,4.852c-3.569,2.765-7.616,5.898-15.41,5.898c-7.797,0-11.844-3.138-15.415-5.898
		c-3.363-2.604-6.267-4.852-12.354-4.852c-6.086,0-8.99,2.248-12.351,4.852c-3.57,2.765-7.616,5.898-15.411,5.898
		c-7.793,0-11.838-3.138-15.407-5.898c-3.36-2.604-6.263-4.852-12.346-4.852c-1.381,0-2.5-1.119-2.5-2.5c0-1.385,1.119-2.5,2.5-2.5
		c7.793,0,11.839,3.134,15.408,5.896c3.36,2.604,6.262,4.854,12.345,4.854c6.085,0,8.988-2.248,12.349-4.854
		c3.57-2.765,7.617-5.896,15.413-5.896c7.797,0,11.844,3.134,15.415,5.896c3.363,2.604,6.268,4.854,12.354,4.854
		c6.085,0,8.987-2.248,12.349-4.854c3.569-2.765,7.616-5.896,15.41-5.896c7.801,0,11.85,3.134,15.423,5.896
		c3.364,2.604,6.269,4.854,12.359,4.854c6.091,0,8.996-2.25,12.36-4.854c3.572-2.765,7.621-5.896,15.42-5.896
		c1.381,0,2.5,1.115,2.5,2.5c0,1.381-1.119,2.5-2.5,2.5c-6.091,0-8.996,2.248-12.36,4.852
		C243.64,565.431,239.592,568.564,231.792,568.564z"/>
</g>
<g>
	<g>
		<path fill="#F1EEDD" d="M1234.829,454.289c-7.799,0-11.85-3.132-15.418-5.896c-3.365-2.604-6.271-4.852-12.363-4.852
			c-6.084,0-8.988,2.248-12.35,4.852c-3.568,2.767-7.615,5.896-15.41,5.896c-7.797,0-11.848-3.133-15.416-5.896
			c-3.361-2.604-6.27-4.852-12.354-4.852s-8.99,2.248-12.352,4.852c-3.568,2.767-7.615,5.896-15.41,5.896
			c-7.793,0-11.838-3.133-15.406-5.896c-3.359-2.604-6.262-4.852-12.346-4.852c-1.381,0-2.5-1.119-2.5-2.5s1.119-2.5,2.5-2.5
			c7.793,0,11.838,3.133,15.408,5.898c3.354,2.603,6.262,4.85,12.344,4.85c6.086,0,8.988-2.248,12.35-4.852
			c3.57-2.767,7.617-5.896,15.412-5.896c7.797,0,11.844,3.133,15.414,5.896c3.363,2.604,6.268,4.852,12.355,4.852
			c6.086,0,8.984-2.248,12.35-4.852c3.57-2.767,7.615-5.896,15.41-5.896c7.801,0,11.85,3.133,15.422,5.896
			c3.363,2.604,6.27,4.852,12.359,4.852c6.088,0,8.994-2.248,12.355-4.852c3.572-2.767,7.621-5.896,15.42-5.896
			c1.386,0,2.5,1.119,2.5,2.5s-1.114,2.5-2.5,2.5c-6.09,0-8.991,2.248-12.355,4.852
			C1246.676,451.156,1242.628,454.289,1234.829,454.289z"/>
	</g>
	<g>
		<path fill="#F1EEDD" d="M1234.829,484.289c-7.799,0-11.85-3.132-15.418-5.896c-3.365-2.604-6.271-4.852-12.363-4.852
			c-6.084,0-8.988,2.248-12.35,4.852c-3.568,2.767-7.615,5.896-15.41,5.896c-7.797,0-11.848-3.133-15.416-5.896
			c-3.361-2.604-6.27-4.852-12.354-4.852s-8.99,2.248-12.352,4.852c-3.568,2.767-7.615,5.896-15.41,5.896
			c-7.793,0-11.838-3.133-15.406-5.896c-3.359-2.604-6.262-4.852-12.346-4.852c-1.381,0-2.5-1.119-2.5-2.5s1.119-2.5,2.5-2.5
			c7.793,0,11.838,3.133,15.408,5.898c3.354,2.603,6.262,4.85,12.344,4.85c6.086,0,8.988-2.248,12.35-4.852
			c3.57-2.767,7.617-5.896,15.412-5.896c7.797,0,11.844,3.133,15.414,5.896c3.363,2.604,6.268,4.852,12.355,4.852
			c6.086,0,8.984-2.248,12.35-4.852c3.57-2.767,7.615-5.896,15.41-5.896c7.801,0,11.85,3.133,15.422,5.896
			c3.363,2.604,6.27,4.852,12.359,4.852c6.088,0,8.994-2.248,12.355-4.852c3.572-2.767,7.621-5.896,15.42-5.896
			c1.386,0,2.5,1.119,2.5,2.5s-1.114,2.5-2.5,2.5c-6.09,0-8.991,2.248-12.355,4.852
			C1246.676,481.156,1242.628,484.289,1234.829,484.289z"/>
	</g>
	<g>
		<path fill="#F1EEDD" d="M1402.645,484.289c-7.799,0-11.848-3.133-15.42-5.896c-3.365-2.604-6.27-4.852-12.363-4.852
			c-6.084,0-8.984,2.248-12.348,4.852c-3.57,2.767-7.615,5.896-15.41,5.896c-7.797,0-11.844-3.133-15.414-5.896
			c-3.363-2.604-6.268-4.852-12.354-4.852c-6.088,0-8.99,2.248-12.355,4.852c-3.564,2.767-7.613,5.896-15.408,5.896
			c-7.793,0-11.84-3.133-15.404-5.896c-3.361-2.604-6.268-4.852-12.352-4.852c-1.381,0-2.5-1.119-2.5-2.5s1.119-2.5,2.5-2.5
			c7.793,0,11.844,3.133,15.408,5.896c3.361,2.604,6.262,4.852,12.346,4.852s8.988-2.248,12.354-4.85
			c3.564-2.769,7.615-5.898,15.414-5.898c7.797,0,11.844,3.133,15.414,5.896c3.357,2.604,6.268,4.854,12.354,4.854
			s8.988-2.248,12.352-4.854c3.566-2.765,7.613-5.896,15.406-5.896c7.805,0,11.854,3.133,15.424,5.896
			c3.363,2.604,6.271,4.854,12.359,4.854s8.996-2.248,12.359-4.854c3.566-2.765,7.617-5.896,15.42-5.896c1.381,0,2.5,1.119,2.5,2.5
			s-1.119,2.5-2.5,2.5c-6.09,0-8.996,2.248-12.359,4.852C1414.493,481.156,1410.445,484.289,1402.645,484.289z"/>
	</g>
	<g>
		<path fill="#F1EEDD" d="M1234.829,514.289c-7.799,0-11.85-3.132-15.418-5.896c-3.365-2.604-6.271-4.852-12.363-4.852
			c-6.084,0-8.988,2.248-12.35,4.852c-3.568,2.767-7.615,5.896-15.41,5.896c-7.797,0-11.848-3.133-15.416-5.897
			c-3.361-2.603-6.27-4.851-12.354-4.851s-8.99,2.248-12.352,4.851c-3.568,2.768-7.615,5.897-15.41,5.897
			c-7.793,0-11.838-3.133-15.406-5.897c-3.359-2.603-6.262-4.851-12.346-4.851c-1.381,0-2.5-1.119-2.5-2.5s1.119-2.5,2.5-2.5
			c7.793,0,11.838,3.133,15.408,5.898c3.354,2.603,6.262,4.85,12.344,4.85c6.086,0,8.988-2.248,12.35-4.852
			c3.57-2.767,7.617-5.896,15.412-5.896c7.797,0,11.844,3.133,15.414,5.896c3.363,2.604,6.268,4.852,12.355,4.852
			c6.086,0,8.984-2.248,12.35-4.852c3.57-2.767,7.615-5.896,15.41-5.896c7.801,0,11.85,3.133,15.422,5.896
			c3.363,2.604,6.27,4.852,12.359,4.852c6.088,0,8.994-2.248,12.355-4.852c3.572-2.767,7.621-5.896,15.42-5.896
			c1.386,0,2.5,1.119,2.5,2.5s-1.114,2.5-2.5,2.5c-6.09,0-8.991,2.248-12.355,4.852
			C1246.676,511.156,1242.628,514.289,1234.829,514.289z"/>
	</g>
	<g>
		<path fill="#F1EEDD" d="M1402.645,514.289c-7.799,0-11.848-3.133-15.42-5.896c-3.365-2.604-6.27-4.852-12.363-4.852
			c-6.084,0-8.984,2.248-12.348,4.852c-3.57,2.767-7.615,5.896-15.41,5.896c-7.797,0-11.844-3.133-15.414-5.897
			c-3.363-2.603-6.268-4.851-12.354-4.851c-6.088,0-8.99,2.248-12.355,4.851c-3.564,2.768-7.613,5.897-15.408,5.897
			c-7.793,0-11.84-3.133-15.404-5.897c-3.361-2.603-6.268-4.851-12.352-4.851c-1.381,0-2.5-1.119-2.5-2.5s1.119-2.5,2.5-2.5
			c7.793,0,11.844,3.133,15.408,5.896c3.361,2.604,6.262,4.854,12.346,4.854s8.988-2.248,12.354-4.85
			c3.564-2.769,7.615-5.898,15.414-5.898c7.797,0,11.844,3.133,15.414,5.896c3.357,2.604,6.268,4.854,12.354,4.854
			s8.988-2.248,12.352-4.854c3.566-2.765,7.613-5.896,15.406-5.896c7.805,0,11.854,3.133,15.424,5.896
			c3.363,2.604,6.271,4.854,12.359,4.854s8.996-2.248,12.359-4.854c3.566-2.765,7.617-5.896,15.42-5.896c1.381,0,2.5,1.119,2.5,2.5
			s-1.119,2.5-2.5,2.5c-6.09,0-8.996,2.248-12.359,4.852C1414.493,511.156,1410.445,514.289,1402.645,514.289z"/>
	</g>
</g>
<g>
	<path fill="#F1EEDD" d="M185.506,520.974c-1.381,0-2.5-1.116-2.5-2.5v-89.135c0-1.381,1.119-2.5,2.5-2.5h273.859
		c1.382,0,2.5,1.119,2.5,2.5s-1.118,2.5-2.5,2.5H188.006v86.635C188.006,519.855,186.887,520.974,185.506,520.974z"/>
</g>
<g>
	<g>
		<path fill="#F1EEDD" d="M1054.632,253.187c-32.129,0-58.266-26.137-58.266-58.265c0-32.126,26.137-58.264,58.266-58.264
			c1.381,0,2.5,1.119,2.5,2.5c0,1.381-1.119,2.5-2.5,2.5c-29.371,0-53.266,23.894-53.266,53.264s23.895,53.265,53.266,53.265
			c29.369,0,53.264-23.895,53.264-53.265c0-1.381,1.119-2.5,2.5-2.5s2.5,1.119,2.5,2.5
			C1112.893,227.05,1086.759,253.187,1054.632,253.187z"/>
	</g>
	<g>
		<g>
			<path fill="#F1EEDD" d="M1131.6,193.424c-0.639,0-1.275-0.244-1.768-0.732l-22.32-22.323c-0.977-0.976-0.977-2.559,0-3.536
				c0.979-0.976,2.563-0.976,3.535,0l22.32,22.323c0.977,0.976,0.977,2.559,0,3.536
				C1132.882,193.18,1132.241,193.424,1131.6,193.424z"/>
		</g>
		<g>
			<path fill="#F1EEDD" d="M1086.962,193.424c-0.643,0-1.279-0.244-1.771-0.732c-0.977-0.977-0.977-2.56,0-3.536l22.32-22.323
				c0.979-0.977,2.562-0.976,3.535,0c0.977,0.977,0.977,2.56,0,3.536l-22.32,22.323
				C1088.241,193.18,1087.6,193.424,1086.962,193.424z"/>
		</g>
	</g>
</g>
<g>
	<path fill="none" stroke="#F4F5F5" stroke-width="5" stroke-linecap="round" stroke-linejoin="round" stroke-miterlimit="10" d="
		M1394.509,265.496"/>
</g>
</svg>
