<?xml version="1.0" encoding="utf-8"?>
<!-- Generator: Adobe Illustrator 15.1.0, SVG Export Plug-In . SVG Version: 6.00 Build 0)  -->
<!DOCTYPE svg PUBLIC "-//W3C//DTD SVG 1.1//EN" "http://www.w3.org/Graphics/SVG/1.1/DTD/svg11.dtd">
<svg version="1.1" id="Layer_1" xmlns="http://www.w3.org/2000/svg" xmlns:xlink="http://www.w3.org/1999/xlink" x="0px" y="0px"
	 width="514.825px" height="236.895px" viewBox="0 0 514.825 236.895" enable-background="new 0 0 514.825 236.895"
	 xml:space="preserve">
<g>
	<g>
		<rect x="209.351" y="33.937" fill="#D64B4B" width="46.788" height="169.03"/>
	</g>
	<g>
		<rect x="256.048" y="30.472" fill="#FFD76C" width="46.172" height="172.496"/>
	</g>
	<g>
		<path fill="#D64B4B" d="M33.532,229.841c-14.661,0-26.59-11.929-26.59-26.59V33.937c0-14.663,11.929-26.59,26.59-26.59h188.997
			c14.661,0,26.591,11.928,26.591,26.59v169.314c0,14.661-11.93,26.59-26.591,26.59H33.532z"/>
	</g>
	<g>
		<path fill="#D64B4B" d="M33.532,228.127c-14.661,0-26.59-11.929-26.59-26.591V32.222c0-14.662,11.929-26.59,26.59-26.59h188.997
			c14.661,0,33.343,11.928,33.343,26.59v169.315c0,14.662-18.682,26.591-33.343,26.591H33.532z"/>
	</g>
	<g>
		<defs>
			<path id="SVGID_1_" d="M33.532,228.127c-14.661,0-26.59-11.929-26.59-26.591V32.222c0-14.662,11.929-26.59,26.59-26.59h188.997
				c14.661,0,33.259,11.928,33.259,26.59v169.315c0,14.662-18.598,26.591-33.259,26.591H33.532z"/>
		</defs>
		<clipPath id="SVGID_2_">
			<use xlink:href="#SVGID_1_"  overflow="visible"/>
		</clipPath>
		<g clip-path="url(#SVGID_2_)">
			<path fill="#B83333" d="M-8.875,19.749v4.631h265.528v-4.631H-8.875z M-8.875,48.276h265.528v-4.631H-8.875V48.276z
				 M-8.875,72.174h265.528v-4.632H-8.875V72.174z M-8.875,96.071h265.528v-4.632H-8.875V96.071z M-8.875,119.967h265.528v-4.632
				H-8.875V119.967z M-8.875,143.864h265.528v-4.632H-8.875V143.864z M-8.875,167.76h265.528v-4.63H-8.875V167.76z M-8.875,191.658
				h265.528v-4.632H-8.875V191.658z M-8.875,215.554h265.528v-4.632H-8.875V215.554z M-8.875,239.452h265.528v-4.631H-8.875V239.452
				z"/>
		</g>
	</g>
	<g>
		<path fill="#FFD76C" d="M289.482,229.841c-14.664,0-26.592-11.929-26.592-26.59V33.937c0-14.663,11.928-26.59,26.592-26.59
			h188.995c14.661,0,26.59,11.928,26.59,26.59v169.314c0,14.661-11.929,26.59-26.59,26.59H289.482z"/>
	</g>
	<g>
		<path fill="#303556" d="M242.098,203.251c0,10.791-8.778,19.569-19.57,19.569H33.532c-10.791,0-19.57-8.778-19.57-19.569V33.937
			c0-10.792,8.779-19.57,19.57-19.57h188.997c10.792,0,19.57,8.778,19.57,19.57h14.04c0-18.563-15.047-33.61-33.61-33.61H33.532
			c-18.562,0-33.609,15.047-33.609,33.61v169.314c0,18.563,15.048,33.61,33.609,33.61h188.997c18.563,0,33.61-15.048,33.61-33.61
			v-0.284h-14.04V203.251z"/>
	</g>
	<g>
		<g>
			<rect x="266.219" y="157.756" fill="#16192D" width="235.266" height="66.388"/>
		</g>
		<g>
			<rect x="255.824" y="157.277" fill="#D64B4B" width="249.302" height="8.17"/>
		</g>
		<g>
			<g>
				<rect x="280.513" y="165.75" fill="#303556" width="2.885" height="58.394"/>
			</g>
			<g>
				<rect x="293.331" y="165.75" fill="#303556" width="2.884" height="58.394"/>
			</g>
			<g>
				<rect x="294.773" y="193.506" fill="#303556" width="12.818" height="2.883"/>
			</g>
			<g>
				<rect x="281.958" y="174.774" fill="#303556" width="12.815" height="2.884"/>
			</g>
			<g>
				<rect x="269.8" y="208.457" fill="#303556" width="12.798" height="2.883"/>
			</g>
			<g>
				<rect x="320.407" y="174.774" fill="#303556" width="12.818" height="2.884"/>
			</g>
			<g>
				<rect x="333.226" y="209.097" fill="#303556" width="12.817" height="2.885"/>
			</g>
			<g>
				<rect x="346.041" y="194.555" fill="#303556" width="12.818" height="2.885"/>
			</g>
			<g>
				<rect x="307.592" y="210.539" fill="#303556" width="12.817" height="2.885"/>
			</g>
			<g>
				<rect x="358.859" y="215.986" fill="#303556" width="12.817" height="2.883"/>
			</g>
			<g>
				<rect x="385.755" y="169.523" fill="#303556" width="12.817" height="2.885"/>
			</g>
			<g>
				<rect x="397.311" y="202.833" fill="#303556" width="12.818" height="2.883"/>
			</g>
			<g>
				<rect x="410.129" y="173.332" fill="#303556" width="12.817" height="2.885"/>
			</g>
			<g>
				<rect x="423.908" y="190.196" fill="#303556" width="12.815" height="2.884"/>
			</g>
			<g>
				<rect x="435.762" y="214.544" fill="#303556" width="12.818" height="2.883"/>
			</g>
			<g>
				<rect x="448.58" y="180.321" fill="#303556" width="12.818" height="2.883"/>
			</g>
			<g>
				<rect x="459.956" y="195.674" fill="#303556" width="12.816" height="2.885"/>
			</g>
			<g>
				<rect x="473.733" y="171.89" fill="#303556" width="12.818" height="2.884"/>
			</g>
			<g>
				
					<rect x="491.033" y="200.275" transform="matrix(0.0027 1 -1 0.0027 696.8565 -287.313)" fill="#303556" width="2.883" height="10.885"/>
			</g>
			<g>
				<rect x="306.148" y="165.75" fill="#303556" width="2.885" height="58.394"/>
			</g>
			<g>
				<rect x="318.967" y="165.75" fill="#303556" width="2.882" height="58.394"/>
			</g>
			<g>
				<rect x="331.782" y="165.75" fill="#303556" width="2.885" height="58.394"/>
			</g>
			<g>
				<rect x="344.602" y="165.75" fill="#303556" width="2.883" height="58.394"/>
			</g>
			<g>
				<rect x="357.417" y="165.75" fill="#303556" width="2.884" height="58.394"/>
			</g>
			<g>
				<rect x="370.235" y="165.75" fill="#303556" width="2.883" height="58.394"/>
			</g>
			<g>
				<rect x="383.053" y="165.75" fill="#303556" width="2.884" height="58.394"/>
			</g>
			<g>
				<rect x="395.869" y="165.75" fill="#303556" width="2.883" height="58.394"/>
			</g>
			<g>
				<rect x="408.687" y="165.75" fill="#303556" width="2.884" height="58.394"/>
			</g>
			<g>
				<rect x="421.505" y="165.75" fill="#303556" width="2.881" height="58.394"/>
			</g>
			<g>
				<rect x="434.32" y="165.75" fill="#303556" width="2.885" height="58.394"/>
			</g>
			<g>
				<rect x="447.139" y="165.75" fill="#303556" width="2.883" height="58.394"/>
			</g>
			<g>
				<rect x="459.956" y="165.75" fill="#303556" width="2.884" height="58.394"/>
			</g>
			<g>
				<rect x="472.772" y="165.75" fill="#303556" width="2.884" height="58.394"/>
			</g>
			<g>
				<rect x="485.59" y="165.75" fill="#303556" width="2.885" height="58.394"/>
			</g>
		</g>
	</g>
	<g>
		<circle fill="#303556" cx="249.118" cy="203.251" r="7.104"/>
	</g>
	<g>
		<circle fill="#303556" cx="249.118" cy="34.077" r="7.104"/>
	</g>
	<g>
		<circle fill="#57829C" cx="262.892" cy="34.077" r="7.104"/>
	</g>
	<g>
		<path fill="#57829C" d="M478.478,0.327H289.482c-18.563,0-33.611,15.047-33.611,33.61h14.04c0-10.792,8.78-19.57,19.571-19.57
			h188.995c10.79,0,19.571,8.778,19.571,19.57v169.314c0,10.791-8.781,19.569-19.571,19.569H289.482
			c-10.791,0-19.571-8.778-19.571-19.569v-0.284h-14.04v0.284c0,18.563,15.047,33.61,33.611,33.61h188.995
			c18.564,0,33.61-15.048,33.61-33.61V33.937C512.088,15.374,497.042,0.327,478.478,0.327z"/>
	</g>
	<g>
		<path fill="#57829C" d="M262.796,209.987c-3.879,0-7.021-3.143-7.021-7.02v-82.224c0-3.878,3.142-7.021,7.021-7.021
			c3.876,0,7.019,3.142,7.019,7.021v82.224C269.814,206.844,266.672,209.987,262.796,209.987z"/>
	</g>
	<g>
		<g>
			<path fill="#FFFFFF" d="M209.402,183.568c0-7.169-5.811-12.978-12.977-12.978H127.36c-7.167,0-12.978,5.809-12.978,12.978v13.141
				c0,7.168,5.81,12.979,12.978,12.979h69.065c7.166,0,12.977-5.811,12.977-12.979V183.568z"/>
		</g>
		<g>
			<rect x="102.119" y="212.554" fill="#16192D" width="6.262" height="10.244"/>
		</g>
		<g>
			<rect x="105.25" y="196.482" fill="#16192D" width="111.538" height="17.033"/>
		</g>
		<g>
			<rect x="215.404" y="212.554" fill="#16192D" width="6.261" height="10.244"/>
		</g>
		<g>
			<path fill="#303556" d="M96.118,213.515v-19.858c0-5.044,4.088-9.134,9.133-9.134l0,0c5.043,0,9.132,4.09,9.132,9.134v19.858"/>
		</g>
		<g>
			<path fill="#303556" d="M209.402,213.515v-19.858c0-5.044,4.089-9.134,9.132-9.134l0,0c5.044,0,9.132,4.09,9.132,9.134v19.858"/>
		</g>
		<g>
			<circle fill="#E54242" cx="125.61" cy="184.523" r="1.762"/>
		</g>
		<g>
			<circle fill="#E54242" cx="161.02" cy="184.523" r="1.763"/>
		</g>
		<g>
			<circle fill="#E54242" cx="196.429" cy="184.523" r="1.763"/>
		</g>
		<g>
			<path fill="#FFFFFF" d="M110.667,221.883c0,0.505-0.409,0.915-0.915,0.915h-9.345c-0.505,0-0.916-0.41-0.916-0.915l0,0
				c0-0.506,0.411-0.914,0.916-0.914h9.345C110.258,220.969,110.667,221.377,110.667,221.883L110.667,221.883z"/>
		</g>
		<g>
			<path fill="#FFFFFF" d="M224.122,221.883c0,0.505-0.41,0.915-0.914,0.915h-9.346c-0.505,0-0.916-0.41-0.916-0.915l0,0
				c0-0.506,0.41-0.914,0.916-0.914h9.346C223.712,220.969,224.122,221.377,224.122,221.883L224.122,221.883z"/>
		</g>
	</g>
	<g>
		<g>
			<rect x="37.24" y="35.924" fill="#16192D" width="47.777" height="70.7"/>
		</g>
		<g>
			<g>
				<rect x="37.24" y="71.274" fill="#303556" width="47.777" height="35.351"/>
			</g>
			<g>
				<rect x="37.24" y="71.274" fill="#303556" width="47.777" height="35.351"/>
			</g>
		</g>
		<g>
			<path fill="#FFFFFF" d="M86.7,108.309l-51.142-0.002V34.241L86.7,34.242V108.309z M38.922,104.942l44.413,0.002V37.607
				l-44.413-0.001V104.942z"/>
		</g>
		<g>
			<circle fill="#FFD76C" cx="61.129" cy="55.432" r="6.105"/>
		</g>
		<g>
			<circle fill="#57829C" cx="61.129" cy="88.95" r="6.105"/>
		</g>
	</g>
	<g>
		<g>
			<rect x="45.868" y="174.167" fill="#FFFFFF" width="14.258" height="19.691"/>
		</g>
		<g>
			<g>
				<circle fill="#303556" cx="48.879" cy="177.174" r="0.885"/>
			</g>
			<g>
				<circle fill="#303556" cx="57.114" cy="177.174" r="0.886"/>
			</g>
			<g>
				<circle fill="#303556" cx="48.879" cy="190.836" r="0.885"/>
			</g>
			<g>
				<circle fill="#303556" cx="57.114" cy="190.836" r="0.886"/>
			</g>
		</g>
		<g>
			<path fill="#0E1A2F" d="M54.909,187.786c0,1.057-0.856,1.912-1.913,1.912l0,0c-1.055,0-1.911-0.855-1.911-1.912v-7.613
				c0-1.056,0.856-1.911,1.911-1.911l0,0c1.057,0,1.913,0.855,1.913,1.911V187.786z"/>
		</g>
		<g>
			<circle fill="#FFFFFF" cx="52.996" cy="187.627" r="1.32"/>
		</g>
	</g>
	<g>
		<g>
			<path fill="#FFFFFF" d="M224.822,136.573c0,1.119-0.908,2.029-2.029,2.029H99.244c-1.12,0-2.028-0.91-2.028-2.029l0,0
				c0-1.121,0.908-2.029,2.028-2.029h123.55C223.914,134.543,224.822,135.452,224.822,136.573L224.822,136.573z"/>
		</g>
		<g>
			<g>
				<path fill="#FFD76C" d="M187.408,131.231c0,1.773-1.437,3.211-3.212,3.211h-46.164c-1.773,0-3.21-1.438-3.21-3.211v-24.979
					c0-1.774,1.437-3.211,3.21-3.211h46.164c1.775,0,3.212,1.438,3.212,3.211V131.231z"/>
			</g>
			<g>
				<path fill="#16192D" d="M187.408,125.981v5.25c0,1.773-1.437,3.211-3.212,3.211h-46.164c-1.773,0-3.21-1.438-3.21-3.211v-5.25"
					/>
			</g>
			<g>
				<g>
					<circle fill="#16192D" cx="145.679" cy="115.453" r="5.636"/>
				</g>
				<g>
					<circle fill="#FFFFFF" cx="145.68" cy="115.453" r="3.969"/>
				</g>
				<g>
					<circle fill="#D64B4B" cx="145.679" cy="115.453" r="1.426"/>
				</g>
			</g>
			<g>
				<g>
					<circle fill="#16192D" cx="176.549" cy="115.453" r="5.638"/>
				</g>
				<g>
					<circle fill="#D64B4B" cx="176.549" cy="115.453" r="3.969"/>
				</g>
				<g>
					<circle fill="#FFFFFF" cx="176.549" cy="115.453" r="1.426"/>
				</g>
			</g>
			<g>
				<path fill="#57829C" d="M176.017,130.081c0,0.464-0.376,0.841-0.843,0.841h-28.12c-0.466,0-0.842-0.377-0.842-0.841l0,0
					c0-0.466,0.376-0.842,0.842-0.842h28.12C175.64,129.239,176.017,129.615,176.017,130.081L176.017,130.081z"/>
			</g>
			<g>
				<rect x="155.229" y="103.041" fill="#16192D" width="12.082" height="22.94"/>
			</g>
			<g>
				<rect x="155.229" y="114.512" fill="#57829C" width="12.082" height="11.469"/>
			</g>
			<g>
				<path fill="#16192D" d="M134.821,125.682c-3.835,0-6.942-3.107-6.942-6.94c0-3.834,3.107-6.941,6.942-6.941"/>
			</g>
			<g>
				<path fill="#16192D" d="M187.408,111.799c3.834,0,6.942,3.108,6.942,6.943c0,3.833-3.108,6.939-6.942,6.939"/>
			</g>
		</g>
		<g>
			<g>
				<g>
					<path fill="#FFFFFF" d="M109.334,122.621c0,0.301-0.243,0.543-0.543,0.543l0,0c-0.301,0-0.544-0.242-0.544-0.543v-19.945
						c0-0.3,0.243-0.544,0.544-0.544l0,0c0.3,0,0.543,0.244,0.543,0.544V122.621z"/>
				</g>
				<g>
					<path fill="#FFFFFF" d="M104.067,111.045c-0.212-0.213-0.212-0.557,0-0.77l0,0c0.213-0.213,0.557-0.213,0.769,0l3.977,3.977
						c0.213,0.211,0.213,0.557,0,0.769l0,0c-0.212,0.212-0.556,0.212-0.768,0L104.067,111.045z"/>
				</g>
				<g>
					<path fill="#FFFFFF" d="M115.405,101.973c-0.212,0.211-0.558,0.211-0.77,0l0,0c-0.212-0.212-0.212-0.556,0-0.769l3.979-3.978
						c0.212-0.211,0.556-0.211,0.769,0l0,0c0.212,0.212,0.212,0.556,0,0.77L115.405,101.973z"/>
				</g>
				<g>
					<path fill="#FFFFFF" d="M115.405,110.108c-0.212,0.213-0.558,0.213-0.77,0l0,0c-0.212-0.212-0.212-0.556,0-0.769l3.979-3.977
						c0.212-0.212,0.556-0.212,0.769,0l0,0c0.212,0.213,0.212,0.557,0,0.768L115.405,110.108z"/>
				</g>
				<g>
					<path fill="#FFFFFF" d="M115.405,118.245c-0.212,0.213-0.558,0.213-0.77,0l0,0c-0.212-0.212-0.212-0.557,0-0.769l3.979-3.977
						c0.212-0.213,0.556-0.213,0.769,0l0,0c0.212,0.211,0.212,0.557,0,0.769L115.405,118.245z"/>
				</g>
				<g>
					<path fill="#FFFFFF" d="M115.315,119.962c0,0.3-0.243,0.543-0.543,0.543l0,0c-0.3,0-0.543-0.244-0.543-0.543v-23.57
						c0-0.301,0.244-0.544,0.543-0.544l0,0c0.3,0,0.543,0.243,0.543,0.544V119.962z"/>
				</g>
				<g>
					<path fill="#FFFFFF" d="M112.325,128.227c0,0.299-0.243,0.542-0.543,0.542l0,0c-0.301,0-0.543-0.243-0.543-0.542V108.28
						c0-0.3,0.243-0.544,0.543-0.544l0,0c0.3,0,0.543,0.244,0.543,0.544V128.227z"/>
				</g>
			</g>
			<g>
				<polygon fill="#16192D" points="120.432,119.082 103.132,119.082 106.756,134.379 116.808,134.379 				"/>
			</g>
		</g>
		<g>
			<path fill="#16192D" d="M113.923,138.639c0,1.181-0.958,2.141-2.141,2.141c-1.183,0-2.142-0.96-2.142-2.141"/>
		</g>
		<g>
			<path fill="#16192D" d="M147.898,138.639c0,1.181-0.959,2.141-2.142,2.141c-1.182,0-2.141-0.96-2.141-2.141"/>
		</g>
		<g>
			<path fill="#16192D" d="M178.234,138.639c0,1.181-0.958,2.141-2.141,2.141s-2.142-0.96-2.142-2.141"/>
		</g>
		<g>
			<rect x="201.169" y="116.678" fill="#303556" width="18.009" height="18.007"/>
		</g>
		<g>
			<rect x="203.541" y="119.048" fill="#16192D" width="13.266" height="13.267"/>
		</g>
		<g>
			<polyline fill="#FFD76C" points="203.541,125.681 210.173,119.048 216.807,125.681 			"/>
		</g>
		<g>
			<rect x="208.295" y="125.681" fill="#D64B4B" width="3.605" height="6.634"/>
		</g>
	</g>
	<g>
		<rect x="122.514" y="14.528" fill="#16192D" width="1.544" height="46.507"/>
	</g>
	<g>
		<rect x="161.121" y="14.528" fill="#16192D" width="1.545" height="46.507"/>
	</g>
	<g>
		<rect x="199.729" y="14.528" fill="#16192D" width="1.544" height="46.507"/>
	</g>
	<g>
		<g>
			<circle fill="#FFFFFF" cx="123.284" cy="67.556" r="4.149"/>
		</g>
		<g>
			<path fill="#FFD76C" d="M121.102,64.041v-2.446c0-0.531,0.43-0.961,0.96-0.961h2.445c0.531,0,0.961,0.43,0.961,0.961v2.446"/>
		</g>
	</g>
	<g>
		<g>
			<circle fill="#FFFFFF" cx="161.892" cy="67.556" r="4.149"/>
		</g>
		<g>
			<path fill="#FFD76C" d="M159.708,64.041v-2.446c0-0.531,0.431-0.961,0.961-0.961h2.446c0.53,0,0.961,0.43,0.961,0.961v2.446"/>
		</g>
	</g>
	<g>
		<g>
			<circle fill="#FFFFFF" cx="200.499" cy="67.556" r="4.149"/>
		</g>
		<g>
			<path fill="#FFD76C" d="M198.316,64.041v-2.446c0-0.531,0.431-0.961,0.961-0.961h2.445c0.53,0,0.961,0.43,0.961,0.961v2.446"/>
		</g>
	</g>
	<g>
		<g>
			<path fill="#0E1A2F" d="M477.504,109.315h-110.64l0.003-64.069h110.638L477.504,109.315z M378.712,97.468h86.945l0.002-40.375
				h-86.945L378.712,97.468z"/>
		</g>
		<g>
			<g>
				<g>
					<rect x="372.789" y="51.169" fill="#FFFFFF" width="98.792" height="52.223"/>
				</g>
				<g>
					<rect x="372.79" y="51.169" fill="#57829C" width="98.792" height="33.012"/>
				</g>
			</g>
			<g>
				<g>
					<path fill="#0E1A2F" d="M422.187,61.282c-6.344,0-11.485,5.143-11.485,11.484v31.038h22.969V72.766
						C433.671,66.425,428.529,61.282,422.187,61.282z"/>
				</g>
				<g>
					<g>
						<circle fill="#FFFFFF" cx="417.281" cy="70.568" r="1.863"/>
					</g>
					<g>
						<circle fill="#FFFFFF" cx="427.091" cy="70.568" r="1.862"/>
					</g>
				</g>
				<g>
					<path fill="#FFFFFF" d="M431.158,58.04h-18.514c-0.915,0-1.657-0.742-1.657-1.658s0.742-1.659,1.657-1.659h18.514
						c0.915,0,1.657,0.743,1.657,1.659S432.073,58.04,431.158,58.04z"/>
				</g>
				<g>
					<path fill="#57829C" d="M427.043,80.389h-9.6c-0.915,0-1.659-0.743-1.659-1.659c0-0.916,0.744-1.659,1.659-1.659h9.6
						c0.915,0,1.659,0.743,1.659,1.659C428.702,79.646,427.958,80.389,427.043,80.389z"/>
				</g>
			</g>
			<g>
				<rect x="390.451" y="74.581" fill="#FFFFFF" width="2.844" height="11.085"/>
			</g>
			<g>
				<rect x="451.076" y="74.581" fill="#FFFFFF" width="2.843" height="11.085"/>
			</g>
			<g>
				<g>
					<path fill="#0E1A2F" d="M385.709,89.806L385.709,89.806c-0.393,0-0.712-0.319-0.712-0.712l0.002-2.056
						c0-0.393,0.319-0.711,0.71-0.711h0.002c0.393,0,0.71,0.319,0.71,0.712v2.056C386.421,89.488,386.103,89.806,385.709,89.806z"/>
				</g>
				<g>
					<path fill="#0E1A2F" d="M388.795,89.806L388.795,89.806c-0.393,0-0.712-0.318-0.712-0.711l0.002-2.056
						c0-0.394,0.317-0.712,0.71-0.712l0,0c0.393,0,0.712,0.318,0.712,0.712l-0.002,2.056
						C389.505,89.488,389.188,89.806,388.795,89.806z"/>
				</g>
				<g>
					<path fill="#0E1A2F" d="M391.881,89.806c-0.393,0-0.713-0.318-0.713-0.711v-2.056c0-0.394,0.32-0.712,0.713-0.712
						s0.711,0.318,0.711,0.712v2.056C392.592,89.488,392.273,89.806,391.881,89.806z"/>
				</g>
				<g>
					<path fill="#0E1A2F" d="M394.966,89.806c-0.392,0-0.711-0.318-0.711-0.711v-2.056c0-0.394,0.319-0.712,0.711-0.712
						c0.393,0,0.71,0.318,0.71,0.712v2.056C395.676,89.488,395.358,89.806,394.966,89.806z"/>
				</g>
				<g>
					<path fill="#0E1A2F" d="M398.05,89.806L398.05,89.806c-0.391,0-0.71-0.318-0.71-0.711v-2.056c0-0.394,0.319-0.712,0.71-0.712
						l0,0c0.395,0,0.713,0.318,0.713,0.712v2.056C398.763,89.488,398.444,89.806,398.05,89.806z"/>
				</g>
			</g>
			<g>
				<g>
					<path fill="#0E1A2F" d="M446.328,89.806c-0.394,0-0.711-0.318-0.711-0.711v-2.056c0-0.394,0.317-0.712,0.711-0.712
						c0.392,0,0.709,0.318,0.709,0.712v2.056C447.037,89.488,446.72,89.806,446.328,89.806z"/>
				</g>
				<g>
					<path fill="#0E1A2F" d="M449.413,89.806L449.413,89.806c-0.393,0-0.712-0.318-0.712-0.711l0.003-2.056
						c0-0.394,0.316-0.712,0.709-0.712l0,0c0.393,0,0.71,0.318,0.71,0.712v2.056C450.123,89.488,449.806,89.806,449.413,89.806z"/>
				</g>
				<g>
					<path fill="#0E1A2F" d="M452.497,89.806L452.497,89.806c-0.393,0-0.71-0.318-0.71-0.711v-2.056
						c0-0.394,0.319-0.712,0.712-0.712l0,0c0.392,0,0.709,0.318,0.709,0.712v2.056C453.208,89.488,452.89,89.806,452.497,89.806z"/>
				</g>
				<g>
					<path fill="#0E1A2F" d="M455.584,89.806c0,0,0,0-0.002,0c-0.392,0-0.709-0.318-0.709-0.711v-2.056
						c0-0.394,0.318-0.712,0.711-0.712l0,0c0.394,0,0.711,0.318,0.711,0.712v2.056C456.295,89.488,455.975,89.806,455.584,89.806z"
						/>
				</g>
				<g>
					<path fill="#0E1A2F" d="M458.668,89.806L458.668,89.806c-0.393,0-0.71-0.318-0.71-0.711v-2.056c0-0.394,0.317-0.712,0.71-0.712
						l0,0c0.394,0,0.712,0.318,0.712,0.712l-0.001,2.056C459.379,89.488,459.062,89.806,458.668,89.806z"/>
				</g>
			</g>
			<g>
				<circle fill="#0E1A2F" cx="452.498" cy="72.161" r="4.745"/>
			</g>
			<g>
				<path fill="#FFFFFF" d="M454.094,72.162c0,0.879-0.717,1.593-1.595,1.593c-0.881,0-1.595-0.714-1.595-1.593
					c0-0.88,0.714-1.594,1.595-1.594C453.377,70.568,454.094,71.282,454.094,72.162z"/>
			</g>
			<g>
				<circle fill="#0E1A2F" cx="391.874" cy="72.161" r="4.745"/>
			</g>
			<g>
				<circle fill="#FFFFFF" cx="391.873" cy="72.162" r="1.594"/>
			</g>
			<g>
				<path fill="#0E1A2F" d="M448.185,67.605c-0.206,0-0.409-0.089-0.551-0.259c-0.249-0.304-0.204-0.752,0.1-1.001
					c1.339-1.099,3.032-1.704,4.766-1.704s3.425,0.605,4.764,1.704c0.305,0.249,0.349,0.697,0.1,1.001
					c-0.248,0.303-0.697,0.347-1,0.098c-1.087-0.891-2.459-1.381-3.863-1.381c-1.405,0-2.777,0.491-3.863,1.381
					C448.502,67.552,448.344,67.605,448.185,67.605z"/>
			</g>
			<g>
				<path fill="#0E1A2F" d="M396.188,67.605c-0.16,0-0.319-0.053-0.452-0.161c-1.084-0.891-2.458-1.381-3.863-1.381
					s-2.777,0.491-3.863,1.381c-0.305,0.249-0.752,0.205-1.002-0.098c-0.248-0.304-0.203-0.752,0.099-1.001
					c1.342-1.099,3.033-1.704,4.767-1.704s3.428,0.605,4.767,1.704c0.302,0.249,0.347,0.697,0.098,1.001
					C396.598,67.516,396.394,67.605,396.188,67.605z"/>
			</g>
		</g>
	</g>
	<g>
		<g>
			<rect x="282.596" y="26.735" fill="#D64B4B" width="7.961" height="11.748"/>
		</g>
		<g>
			<circle fill="#0E1A2F" cx="286.576" cy="32.609" r="2.431"/>
		</g>
		<g>
			<g>
				<path fill="#FFFFFF" d="M297.223,28.213h-1.112v-7.493c0-1.837,1.497-3.332,3.334-3.332h14.996V18.5h-14.996
					c-1.226,0-2.222,0.996-2.222,2.221V28.213z"/>
			</g>
			<g>
				<rect x="331.117" y="14.516" fill="#D64B4B" width="4.26" height="88.755"/>
			</g>
			<g>
				<path fill="#0E1A2F" d="M310.473,14.516c0,0,0,6.76,6.761,6.76h32.027c3.733,0,6.76-3.026,6.76-6.76l0,0"/>
			</g>
			<g>
				<path fill="#FFFFFF" d="M317.369,116.791c0-8.77,7.108-15.877,15.878-15.877c8.769,0,15.878,7.108,15.878,15.877"/>
			</g>
			<g>
				<path fill="#0E1A2F" d="M353.243,117.659c0,0.768-0.622,1.389-1.389,1.389h-37.4c-0.767,0-1.389-0.621-1.389-1.389l0,0
					c0-0.767,0.622-1.389,1.389-1.389h37.4C352.621,116.27,353.243,116.892,353.243,117.659L353.243,117.659z"/>
			</g>
			<g>
				<path fill="#FFFFFF" d="M293.89,33.165h-7.313c-0.307,0-0.557-0.248-0.557-0.556c0-0.307,0.25-0.556,0.557-0.556h7.313
					c1.225,0,2.221-0.996,2.221-2.222v-7.492c0-0.307,0.249-0.555,0.556-0.555c0.309,0,0.557,0.249,0.557,0.555v7.492
					C297.223,31.669,295.727,33.165,293.89,33.165z"/>
			</g>
			<g>
				<path fill="#0E1A2F" d="M342.844,52.016c0,0.46-0.373,0.833-0.833,0.833h-3.303c-0.46,0-0.832-0.373-0.832-0.833l0,0
					c0-0.46,0.372-0.833,0.832-0.833h3.303C342.471,51.183,342.844,51.555,342.844,52.016L342.844,52.016z"/>
			</g>
			<g>
				<path fill="#FFFFFF" d="M335.283,47.739c2.374,0,4.296,1.923,4.296,4.295c0,2.373-1.922,4.297-4.296,4.297"/>
			</g>
		</g>
	</g>
	<g>
		<g>
			<rect x="391.443" y="177.388" fill="#FFFFFF" width="14.259" height="19.691"/>
		</g>
		<g>
			<g>
				<circle fill="#D64B4B" cx="394.456" cy="180.395" r="0.885"/>
			</g>
			<g>
				<circle fill="#D64B4B" cx="402.691" cy="180.395" r="0.886"/>
			</g>
			<g>
				<circle fill="#D64B4B" cx="394.456" cy="194.056" r="0.885"/>
			</g>
			<g>
				<circle fill="#D64B4B" cx="402.691" cy="194.056" r="0.886"/>
			</g>
		</g>
		<g>
			<path fill="#0E1A2F" d="M400.484,191.006c0,1.056-0.857,1.911-1.912,1.911l0,0c-1.056,0-1.911-0.855-1.911-1.911v-7.614
				c0-1.055,0.855-1.911,1.911-1.911l0,0c1.055,0,1.912,0.856,1.912,1.911V191.006z"/>
		</g>
		<g>
			<circle fill="#FFFFFF" cx="398.572" cy="190.848" r="1.319"/>
		</g>
	</g>
	<g>
		<g>
			
				<rect x="294.641" y="203.38" transform="matrix(-0.7071 0.7072 -0.7072 -0.7071 656.7485 136.4133)" fill="#FFD76C" width="10.957" height="1.713"/>
		</g>
		<g>
			
				<rect x="350.209" y="203.381" transform="matrix(0.7072 0.707 -0.707 0.7072 248.5453 -191.6766)" fill="#FFD76C" width="10.959" height="1.71"/>
		</g>
		<g>
			<rect x="293.668" y="197.437" fill="#D64B4B" width="3.943" height="25.226"/>
		</g>
		<g>
			<rect x="358.028" y="197.437" fill="#D64B4B" width="3.939" height="25.226"/>
		</g>
		<g>
			<path fill="#FFFFFF" d="M364.071,198.655c0,1.489-1.208,2.697-2.697,2.697h-66.942c-1.489,0-2.696-1.208-2.696-2.697l0,0
				c0-1.489,1.207-2.698,2.696-2.698h66.942C362.863,195.957,364.071,197.166,364.071,198.655L364.071,198.655z"/>
		</g>
	</g>
	<g>
		<g>
			<rect x="306.044" y="206.937" fill="#D64B4B" width="6.368" height="13.038"/>
		</g>
		<g>
			<path fill="#FFFFFF" d="M304.832,221.367c0-2.429,1.969-4.396,4.396-4.396c2.429,0,4.399,1.968,4.399,4.396"/>
		</g>
		<g>
			<path fill="#D64B4B" d="M314.285,222.039c0,0.323-0.263,0.587-0.585,0.587h-9.162c-0.324,0-0.587-0.264-0.587-0.587v-0.085
				c0-0.325,0.263-0.587,0.587-0.587h9.162c0.322,0,0.585,0.262,0.585,0.587V222.039z"/>
		</g>
		<g>
			<path fill="#FFFFFF" d="M312.844,206.979c0,0.323-0.263,0.586-0.586,0.586h-6.277c-0.325,0-0.587-0.263-0.587-0.586v-0.085
				c0-0.324,0.262-0.587,0.587-0.587h6.277c0.323,0,0.586,0.263,0.586,0.587V206.979z"/>
		</g>
		<g>
			<g>
				<path fill="#FFFFFF" d="M311.456,210.05c0,0.145-0.117,0.263-0.262,0.263h-3.833c-0.145,0-0.262-0.118-0.262-0.263l0,0
					c0-0.146,0.117-0.263,0.262-0.263h3.833C311.339,209.788,311.456,209.905,311.456,210.05L311.456,210.05z"/>
			</g>
			<g>
				<path fill="#FFFFFF" d="M311.456,211.685c0,0.146-0.117,0.264-0.262,0.264h-3.833c-0.145,0-0.262-0.118-0.262-0.264l0,0
					c0-0.146,0.117-0.263,0.262-0.263h3.833C311.339,211.422,311.456,211.54,311.456,211.685L311.456,211.685z"/>
			</g>
			<g>
				<path fill="#FFFFFF" d="M311.456,213.321c0,0.145-0.117,0.262-0.262,0.262h-3.833c-0.145,0-0.262-0.117-0.262-0.262l0,0
					c0-0.146,0.117-0.265,0.262-0.265h3.833C311.339,213.056,311.456,213.175,311.456,213.321L311.456,213.321z"/>
			</g>
			<g>
				<path fill="#FFFFFF" d="M311.456,214.956c0,0.145-0.117,0.262-0.262,0.262h-3.833c-0.145,0-0.262-0.117-0.262-0.262l0,0
					c0-0.146,0.117-0.264,0.262-0.264h3.833C311.339,214.692,311.456,214.809,311.456,214.956L311.456,214.956z"/>
			</g>
		</g>
	</g>
	<g>
		<g>
			<rect x="318.86" y="206.937" fill="#D64B4B" width="6.37" height="13.038"/>
		</g>
		<g>
			<path fill="#FFFFFF" d="M317.647,221.367c0-2.429,1.969-4.396,4.398-4.396c2.428,0,4.397,1.968,4.397,4.396"/>
		</g>
		<g>
			<path fill="#D64B4B" d="M327.104,222.039c0,0.323-0.265,0.587-0.587,0.587h-9.162c-0.323,0-0.585-0.264-0.585-0.587v-0.085
				c0-0.325,0.262-0.587,0.585-0.587h9.162c0.322,0,0.587,0.262,0.587,0.587V222.039z"/>
		</g>
		<g>
			<path fill="#FFFFFF" d="M325.661,206.979c0,0.323-0.262,0.586-0.588,0.586h-6.276c-0.323,0-0.586-0.263-0.586-0.586v-0.085
				c0-0.324,0.263-0.587,0.586-0.587h6.276c0.326,0,0.588,0.263,0.588,0.587V206.979z"/>
		</g>
		<g>
			<g>
				<path fill="#FFFFFF" d="M324.274,210.05c0,0.145-0.118,0.263-0.263,0.263h-3.832c-0.146,0-0.263-0.118-0.263-0.263l0,0
					c0-0.146,0.117-0.263,0.263-0.263h3.832C324.156,209.788,324.274,209.905,324.274,210.05L324.274,210.05z"/>
			</g>
			<g>
				<path fill="#FFFFFF" d="M324.274,211.685c0,0.146-0.118,0.264-0.263,0.264h-3.832c-0.146,0-0.263-0.118-0.263-0.264l0,0
					c0-0.146,0.117-0.263,0.263-0.263h3.832C324.156,211.422,324.274,211.54,324.274,211.685L324.274,211.685z"/>
			</g>
			<g>
				<path fill="#FFFFFF" d="M324.274,213.321c0,0.145-0.118,0.262-0.263,0.262h-3.832c-0.146,0-0.263-0.117-0.263-0.262l0,0
					c0-0.146,0.117-0.265,0.263-0.265h3.832C324.156,213.056,324.274,213.175,324.274,213.321L324.274,213.321z"/>
			</g>
			<g>
				<path fill="#FFFFFF" d="M324.274,214.956c0,0.145-0.118,0.262-0.263,0.262h-3.832c-0.146,0-0.263-0.117-0.263-0.262l0,0
					c0-0.146,0.117-0.264,0.263-0.264h3.832C324.156,214.692,324.274,214.809,324.274,214.956L324.274,214.956z"/>
			</g>
		</g>
	</g>
	<g>
		<g>
			<path fill="#0E1A2F" d="M467.749,131.815c-0.366,0.368-0.959,0.368-1.326,0l-8.184-8.185c-0.367-0.364-0.367-0.959,0-1.325l0,0
				c0.365-0.366,0.96-0.366,1.324,0l8.186,8.185C468.116,130.856,468.115,131.45,467.749,131.815L467.749,131.815z"/>
		</g>
		<g>
			<path fill="#0E1A2F" d="M467.749,144.5c-0.366,0.366-0.959,0.366-1.326,0l-8.184-8.185c-0.367-0.366-0.367-0.96,0-1.326l0,0
				c0.365-0.365,0.96-0.365,1.324,0l8.186,8.185C468.116,143.54,468.115,144.135,467.749,144.5L467.749,144.5z"/>
		</g>
		<g>
			<path fill="#0E1A2F" d="M468.12,131.815c0.366,0.368,0.959,0.368,1.326,0l8.185-8.185c0.366-0.364,0.366-0.959,0-1.325l0,0
				c-0.366-0.366-0.961-0.366-1.325,0l-8.186,8.185C467.755,130.856,467.755,131.45,468.12,131.815L468.12,131.815z"/>
		</g>
		<g>
			<path fill="#0E1A2F" d="M468.12,144.5c0.366,0.366,0.959,0.366,1.326,0l8.185-8.185c0.366-0.366,0.366-0.96,0-1.326l0,0
				c-0.366-0.365-0.961-0.365-1.325,0l-8.186,8.185C467.755,143.54,467.755,144.135,468.12,144.5L468.12,144.5z"/>
		</g>
		<g>
			<path fill="#FFFFFF" d="M465.671,220.812v-98.066c0-1.25,1.013-2.263,2.265-2.263l0,0c1.248,0,2.263,1.013,2.263,2.263v98.066"/>
		</g>
		<g>
			<path fill="#D64B4B" d="M479.51,221.687c0,0.518-0.42,0.938-0.937,0.938h-21.277c-0.518,0-0.938-0.421-0.938-0.938l0,0
				c0-0.518,0.42-0.938,0.938-0.938h21.277C479.09,220.75,479.51,221.169,479.51,221.687L479.51,221.687z"/>
		</g>
		<g>
			<path fill="#D64B4B" d="M458.307,137.146c-0.328,0.327-0.859,0.327-1.188,0l0,0c-0.328-0.329-0.328-0.86,0-1.188l2.117-2.118
				c0.326-0.326,0.858-0.326,1.188,0.001l0,0c0.328,0.328,0.328,0.86,0,1.188L458.307,137.146z"/>
		</g>
		<g>
			<path fill="#D64B4B" d="M475.291,135.03c-0.329-0.328-0.329-0.86,0-1.188l0,0c0.328-0.327,0.86-0.327,1.188,0l2.116,2.117
				c0.329,0.328,0.329,0.858,0,1.188l0,0c-0.328,0.327-0.859,0.327-1.188,0L475.291,135.03z"/>
		</g>
		<g>
			<path fill="#D64B4B" d="M458.307,124.494c-0.328,0.327-0.859,0.327-1.188,0l0,0c-0.328-0.329-0.328-0.861,0-1.188l2.117-2.117
				c0.326-0.328,0.858-0.328,1.188,0.001l0,0c0.328,0.328,0.328,0.859,0,1.187L458.307,124.494z"/>
		</g>
		<g>
			<path fill="#D64B4B" d="M475.291,122.378c-0.329-0.329-0.329-0.86,0-1.188l0,0c0.328-0.329,0.86-0.329,1.188,0l2.116,2.116
				c0.329,0.327,0.329,0.86,0,1.188l0,0c-0.328,0.327-0.859,0.327-1.188,0L475.291,122.378z"/>
		</g>
	</g>
</g>
</svg>
