<?xml version="1.0" encoding="utf-8"?>
<!-- Generator: Adobe Illustrator 15.1.0, SVG Export Plug-In . SVG Version: 6.00 Build 0)  -->
<!DOCTYPE svg PUBLIC "-//W3C//DTD SVG 1.1//EN" "http://www.w3.org/Graphics/SVG/1.1/DTD/svg11.dtd">
<svg version="1.1" id="Layer_1" xmlns="http://www.w3.org/2000/svg" xmlns:xlink="http://www.w3.org/1999/xlink" x="0px" y="0px"
	 width="514.825px" height="236.895px" viewBox="0 0 514.825 236.895" enable-background="new 0 0 514.825 236.895"
	 xml:space="preserve">
<g>
	<g>
		<path fill="#57829C" d="M513.826,203.208c0,18.587-15.066,33.653-33.652,33.653H290.937c-18.587,0-33.653-15.066-33.653-33.653
			V33.678c0-18.586,15.066-33.653,33.653-33.653h189.237c18.586,0,33.652,15.067,33.652,33.653V203.208z"/>
	</g>
	<g>
		<path fill="#57829C" d="M257.811,203.208c0,18.587-15.067,33.653-33.653,33.653H34.92c-18.586,0-33.653-15.066-33.653-33.653
			V33.678c0-18.586,15.066-33.653,33.653-33.653h189.237c18.586,0,33.653,15.067,33.653,33.653V203.208z"/>
	</g>
	<g>
		<path fill="#303556" d="M514.384,203.208c0,18.587-15.066,33.653-33.653,33.653H291.493c-18.587,0-33.653-15.066-33.653-33.653
			V33.678c0-18.586,15.066-33.653,33.653-33.653H480.73c18.587,0,33.653,15.067,33.653,33.653V203.208z"/>
	</g>
	<g>
		<defs>
			<path id="SVGID_1_" d="M513.826,203.208c0,18.587-15.066,33.653-33.652,33.653H290.937c-18.587,0-33.653-15.066-33.653-33.653
				V33.678c0-18.586,15.066-33.653,33.653-33.653h189.237c18.586,0,33.652,15.067,33.652,33.653V203.208z"/>
		</defs>
		<clipPath id="SVGID_2_">
			<use xlink:href="#SVGID_1_"  overflow="visible"/>
		</clipPath>
		<g clip-path="url(#SVGID_2_)">
			<g>
				<polygon fill="#1F253D" points="332.117,123.698 305.469,100.15 278.819,123.698 248.323,96.752 256.016,88.046 
					278.819,108.195 305.469,84.647 332.118,108.195 358.768,84.647 385.417,108.195 412.067,84.647 438.716,108.195 
					465.367,84.647 492.019,108.195 514.825,88.046 522.517,96.752 492.019,123.697 465.367,100.15 438.716,123.697 412.067,100.15 
					385.417,123.697 358.768,100.15 				"/>
			</g>
			<g>
				<polygon fill="#1F253D" points="332.117,93.231 305.469,69.685 278.819,93.231 248.323,66.286 256.016,57.58 278.819,77.728 
					305.469,54.181 332.118,77.728 358.768,54.181 385.417,77.728 412.067,54.181 438.716,77.728 465.367,54.182 492.019,77.729 
					514.825,57.58 522.517,66.286 492.019,93.231 465.367,69.684 438.716,93.231 412.067,69.685 385.417,93.231 358.768,69.685 				
					"/>
			</g>
			<g>
				<polygon fill="#1F253D" points="332.117,64.075 305.469,40.528 278.819,64.075 248.323,37.129 256.016,28.423 278.819,48.572 
					305.469,25.025 332.118,48.572 358.768,25.025 385.417,48.572 412.067,25.025 438.716,48.572 465.367,25.025 492.019,48.572 
					514.825,28.423 522.517,37.129 492.019,64.075 465.367,40.528 438.716,64.075 412.067,40.528 385.417,64.075 358.768,40.528 
									"/>
			</g>
			<g>
				<polygon fill="#1F253D" points="332.117,35.375 305.469,11.829 278.819,35.375 248.323,8.43 256.016,-0.276 278.819,19.873 
					305.469,-3.674 332.118,19.873 358.768,-3.674 385.417,19.873 412.067,-3.674 438.716,19.873 465.367,-3.674 492.019,19.873 
					514.825,-0.276 522.517,8.431 492.019,35.375 465.367,11.829 438.716,35.375 412.067,11.829 385.417,35.375 358.768,11.829 				
					"/>
			</g>
		</g>
		<g clip-path="url(#SVGID_2_)">
			<g>
				<polygon fill="#1F253D" points="332.117,241.037 305.469,217.491 278.819,241.037 248.323,214.091 256.016,205.385 
					278.819,225.534 305.469,201.987 332.117,225.534 358.768,201.987 385.417,225.534 412.067,201.987 438.716,225.534 
					465.367,201.987 492.019,225.534 514.825,205.385 522.517,214.092 492.019,241.037 465.367,217.49 438.716,241.037 
					412.067,217.491 385.417,241.037 358.768,217.491 				"/>
			</g>
			<g>
				<polygon fill="#1F253D" points="332.117,210.571 305.469,187.024 278.819,210.571 248.323,183.625 256.016,174.919 
					278.819,195.068 305.469,171.521 332.117,195.068 358.768,171.521 385.417,195.068 412.067,171.521 438.716,195.068 
					465.367,171.522 492.019,195.068 514.825,174.919 522.517,183.625 492.019,210.57 465.367,187.023 438.716,210.571 
					412.067,187.024 385.417,210.571 358.768,187.024 				"/>
			</g>
			<g>
				<polygon fill="#1F253D" points="332.117,181.414 305.469,157.867 278.819,181.414 248.323,154.469 256.016,145.763 
					278.819,165.912 305.469,142.364 332.118,165.912 358.768,142.364 385.417,165.912 412.067,142.364 438.716,165.912 
					465.367,142.365 492.019,165.912 514.825,145.762 522.517,154.469 492.019,181.414 465.367,157.867 438.716,181.414 
					412.067,157.867 385.417,181.414 358.768,157.867 				"/>
			</g>
			<g>
				<polygon fill="#1F253D" points="332.117,152.714 305.469,129.168 278.819,152.714 248.323,125.77 256.016,117.064 
					278.819,137.211 305.469,113.665 332.117,137.211 358.768,113.665 385.417,137.211 412.067,113.665 438.716,137.211 
					465.367,113.665 492.019,137.212 514.825,117.063 522.517,125.77 492.019,152.714 465.367,129.168 438.716,152.714 
					412.067,129.168 385.417,152.714 358.768,129.168 				"/>
			</g>
		</g>
	</g>
	<g>
		<path fill="#57829C" d="M290.689,0.025c-15.401,0-28.377,10.349-32.375,24.471l-0.773,91.84c28.021,0,50.736,11.192,50.736-16.829
			V0.025H290.689z"/>
	</g>
	<g>
		<g>
			<g>
				<path fill="#16192D" d="M405.459,134.428c-24.572,0-44.563-19.99-44.563-44.562c0-24.572,19.991-44.562,44.563-44.562
					c24.571,0,44.563,19.989,44.563,44.562C450.021,114.438,430.03,134.428,405.459,134.428z"/>
			</g>
			<g>
				<path fill="#D64B4B" d="M405.459,48.116c23.059,0,41.75,18.692,41.75,41.75c0,23.058-18.691,41.75-41.75,41.75
					s-41.752-18.693-41.752-41.75C363.707,66.808,382.4,48.116,405.459,48.116 M405.459,42.492
					c-12.654,0-24.552,4.928-33.499,13.875c-8.948,8.948-13.876,20.844-13.876,33.499c0,12.654,4.928,24.55,13.876,33.498
					c8.947,8.948,20.845,13.877,33.499,13.877s24.551-4.929,33.499-13.877c8.947-8.947,13.875-20.844,13.875-33.498
					c0-12.654-4.928-24.55-13.875-33.499C430.01,47.42,418.113,42.492,405.459,42.492L405.459,42.492z"/>
			</g>
		</g>
		<g>
			<circle fill="#FFD76C" cx="405.458" cy="89.866" r="21.242"/>
		</g>
		<g>
			<circle fill="#16192D" cx="405.458" cy="89.866" r="11.135"/>
		</g>
		<g>
			<circle fill="#D64B4B" cx="405.459" cy="89.866" r="3.916"/>
		</g>
		<g>
			<path fill="#16192D" d="M365.234,52.132c-1.054,0-2.105-0.412-2.894-1.229c-1.539-1.597-1.492-4.14,0.105-5.68
				c11.611-11.19,26.888-17.352,43.014-17.352c16.124,0,31.4,6.162,43.012,17.353c1.597,1.54,1.645,4.082,0.104,5.679
				c-1.539,1.597-4.081,1.645-5.68,0.105c-10.106-9.74-23.402-15.104-37.437-15.104c-14.036,0-27.333,5.364-37.439,15.104
				C367.241,51.759,366.237,52.132,365.234,52.132z"/>
		</g>
	</g>
	<g>
		<path fill="#57829C" d="M257.84,97.389h61.447c13,0,23.537,10.538,23.537,23.537l0,0c0,12.999-10.537,23.537-23.537,23.537H257.84
			"/>
	</g>
	<g>
		<path fill="#16192D" d="M272.104,121.034c0,3.327,2.697,6.024,6.023,6.024h36.331c3.327,0,6.024-2.697,6.024-6.024l0,0
			c0-3.327-2.697-6.025-6.024-6.025h-36.331C274.802,115.009,272.104,117.707,272.104,121.034L272.104,121.034z"/>
	</g>
	<path fill="#57829C" d="M456.549,0h24.063c18.578,0,33.639,15.06,33.639,33.64v24.061L456.549,0z"/>
	<path fill="#57829C" d="M456.549,236.895h24.063c18.578,0,33.639-15.061,33.639-33.642v-24.059L456.549,236.895z"/>
	<g>
		<defs>
			<path id="SVGID_3_" d="M257.811,203.208c0,18.587-15.067,33.653-33.653,33.653H34.92c-18.586,0-33.653-15.066-33.653-33.653
				V33.678c0-18.586,15.066-33.653,33.653-33.653h189.237c18.586,0,33.653,15.067,33.653,33.653V203.208z"/>
		</defs>
		<clipPath id="SVGID_4_">
			<use xlink:href="#SVGID_3_"  overflow="visible"/>
		</clipPath>
		<g clip-path="url(#SVGID_4_)">
			<g>
				<polygon fill="#426E82" points="76.102,123.698 49.453,100.15 22.803,123.698 -7.692,96.752 0,88.046 22.803,108.195 
					49.453,84.647 76.102,108.195 102.752,84.647 129.401,108.195 156.052,84.647 182.701,108.195 209.351,84.647 236.003,108.195 
					258.808,88.046 266.501,96.752 236.003,123.697 209.351,100.15 182.701,123.697 156.052,100.15 129.401,123.697 102.752,100.15 
									"/>
			</g>
			<g>
				<polygon fill="#426E82" points="76.102,93.231 49.453,69.685 22.803,93.231 -7.692,66.286 0,57.58 22.803,77.728 49.453,54.181 
					76.102,77.728 102.752,54.181 129.401,77.728 156.052,54.181 182.701,77.728 209.351,54.182 236.003,77.729 258.808,57.58 
					266.501,66.286 236.003,93.231 209.351,69.684 182.701,93.231 156.052,69.685 129.401,93.231 102.752,69.685 				"/>
			</g>
			<g>
				<polygon fill="#426E82" points="76.102,64.075 49.453,40.528 22.803,64.075 -7.692,37.129 0,28.423 22.803,48.572 
					49.453,25.025 76.102,48.572 102.752,25.025 129.401,48.572 156.052,25.025 182.701,48.572 209.351,25.025 236.003,48.572 
					258.808,28.423 266.501,37.129 236.003,64.075 209.351,40.528 182.701,64.075 156.052,40.528 129.401,64.075 102.752,40.528 
									"/>
			</g>
			<g>
				<polygon fill="#426E82" points="76.102,35.375 49.453,11.829 22.803,35.375 -7.692,8.43 0,-0.276 22.803,19.873 49.453,-3.674 
					76.102,19.873 102.752,-3.674 129.401,19.873 156.052,-3.674 182.701,19.873 209.351,-3.674 236.003,19.873 258.808,-0.276 
					266.501,8.431 236.003,35.375 209.351,11.829 182.701,35.375 156.052,11.829 129.401,35.375 102.752,11.829 				"/>
			</g>
		</g>
		<g clip-path="url(#SVGID_4_)">
			<g>
				<polygon fill="#426E82" points="76.102,241.037 49.453,217.491 22.803,241.037 -7.692,214.091 0,205.385 22.803,225.534 
					49.453,201.987 76.102,225.534 102.752,201.987 129.401,225.534 156.052,201.987 182.701,225.534 209.351,201.987 
					236.003,225.534 258.808,205.385 266.501,214.092 236.003,241.037 209.351,217.49 182.701,241.037 156.052,217.491 
					129.401,241.037 102.752,217.491 				"/>
			</g>
			<g>
				<polygon fill="#426E82" points="76.102,210.571 49.453,187.024 22.803,210.571 -7.692,183.625 0,174.919 22.803,195.068 
					49.453,171.521 76.102,195.068 102.752,171.521 129.401,195.068 156.052,171.521 182.701,195.068 209.351,171.522 
					236.003,195.068 258.808,174.919 266.501,183.625 236.003,210.57 209.351,187.023 182.701,210.571 156.052,187.024 
					129.401,210.571 102.752,187.024 				"/>
			</g>
			<g>
				<polygon fill="#426E82" points="76.102,181.414 49.453,157.867 22.803,181.414 -7.692,154.469 0,145.763 22.803,165.912 
					49.453,142.364 76.102,165.912 102.752,142.364 129.401,165.912 156.052,142.364 182.701,165.912 209.351,142.364 
					236.003,165.912 258.808,145.762 266.501,154.469 236.003,181.414 209.351,157.867 182.701,181.414 156.052,157.867 
					129.401,181.414 102.752,157.867 				"/>
			</g>
			<g>
				<polygon fill="#426E82" points="76.102,152.714 49.453,129.168 22.803,152.714 -7.692,125.77 0,117.064 22.803,137.211 
					49.453,113.665 76.102,137.211 102.752,113.665 129.401,137.211 156.052,113.665 182.701,137.211 209.351,113.665 
					236.003,137.212 258.808,117.063 266.501,125.77 236.003,152.714 209.351,129.168 182.701,152.714 156.052,129.168 
					129.401,152.714 102.752,129.168 				"/>
			</g>
		</g>
	</g>
	<g>
		<path fill="#303556" d="M224.149,0.025h-16.14v99.481c0,27.706,22.208,16.313,49.793,16.817V33.678
			C257.802,15.092,242.735,0.025,224.149,0.025z"/>
	</g>
	<g>
		<g>
			<g>
				<path fill="#16192D" d="M100.799,134.428c-24.572,0-44.563-19.99-44.563-44.562c0-24.572,19.991-44.562,44.563-44.562
					c24.572,0,44.563,19.989,44.563,44.562C145.363,114.438,125.372,134.428,100.799,134.428z"/>
			</g>
			<g>
				<path fill="#FFD76C" d="M100.799,48.116c23.058,0,41.751,18.692,41.751,41.75c0,23.058-18.693,41.75-41.751,41.75
					c-23.059,0-41.75-18.693-41.75-41.75C59.049,66.808,77.741,48.116,100.799,48.116 M100.799,42.492
					c-12.654,0-24.551,4.928-33.499,13.875c-8.948,8.948-13.875,20.844-13.875,33.499c0,12.654,4.927,24.55,13.875,33.498
					c8.948,8.948,20.844,13.877,33.499,13.877s24.551-4.929,33.499-13.877c8.948-8.947,13.875-20.844,13.875-33.498
					c0-12.654-4.927-24.55-13.875-33.499C125.351,47.42,113.454,42.492,100.799,42.492L100.799,42.492z"/>
			</g>
		</g>
		<g>
			<circle fill="#D64B4B" cx="100.8" cy="89.866" r="21.242"/>
		</g>
		<g>
			<circle fill="#16192D" cx="100.8" cy="89.866" r="11.135"/>
		</g>
		<g>
			<circle fill="#FFD76C" cx="100.8" cy="89.866" r="3.917"/>
		</g>
		<g>
			<path fill="#16192D" d="M141.024,52.132c-1.003,0-2.007-0.373-2.786-1.124c-10.107-9.74-23.403-15.104-37.439-15.104
				s-27.331,5.364-37.438,15.104c-1.597,1.539-4.14,1.492-5.68-0.105c-1.539-1.597-1.492-4.14,0.105-5.679
				c11.611-11.19,26.887-17.353,43.012-17.353c16.125,0,31.401,6.162,43.013,17.352c1.598,1.54,1.644,4.083,0.105,5.68
				C143.129,51.721,142.078,52.132,141.024,52.132z"/>
		</g>
	</g>
	<g>
		<path fill="#303556" d="M257.811,144.462h-61.448c-12.999,0-23.537-10.538-23.537-23.537l0,0
			c0-12.999,10.538-23.537,23.537-23.537h61.448"/>
	</g>
	<g>
		<path fill="#16192D" d="M242.187,121.034c0,3.327-2.697,6.024-6.023,6.024h-36.331c-3.327,0-6.024-2.697-6.024-6.024l0,0
			c0-3.327,2.697-6.025,6.024-6.025h36.331C239.49,115.009,242.187,117.707,242.187,121.034L242.187,121.034z"/>
	</g>
	<path fill="#303556" d="M58.707,0H34.646C16.067,0,1.007,15.06,1.007,33.64v24.061L58.707,0z"/>
	<path fill="#303556" d="M58.707,236.895H34.646c-18.578,0-33.639-15.061-33.639-33.642v-24.059L58.707,236.895z"/>
	<g>
		<g>
			<path fill="#16192D" d="M257.917,192.894H140.201c-5.567,0-10.08-4.515-10.08-10.08v-12.873c0-5.567,4.513-10.08,10.08-10.08
				h117.716"/>
			<path fill="#303556" d="M257.917,196.005H140.201c-7.273,0-13.191-5.918-13.191-13.191v-12.873c0-7.273,5.918-13.19,13.191-13.19
				h117.716v6.221H140.201c-3.843,0-6.969,3.127-6.969,6.97v12.873c0,3.843,3.126,6.97,6.969,6.97h117.716V196.005z"/>
		</g>
		<g>
			<path fill="#16192D" d="M257.759,159.861h117.715c5.568,0,10.081,4.515,10.081,10.081v12.872c0,5.567-4.513,10.08-10.081,10.08
				H257.759"/>
			<path fill="#57829C" d="M375.474,196.005H257.759v-6.222h117.715c3.844,0,6.971-3.127,6.971-6.97v-12.872
				c0-3.844-3.127-6.971-6.971-6.971H257.759v-6.221h117.715c7.274,0,13.192,5.917,13.192,13.191v12.872
				C388.666,190.087,382.748,196.005,375.474,196.005z"/>
		</g>
	</g>
	<g>
		<g>
			<path fill="#FFD76C" d="M281.043,162.916v9.175c0,1.303-1.055,2.357-2.357,2.357h-12.251c-1.302,0-2.357-1.055-2.357-2.357
				v-9.175"/>
		</g>
		<g>
			<path fill="#FFD76C" d="M309.315,162.916v9.175c0,1.303-1.056,2.357-2.358,2.357h-12.25c-1.302,0-2.358-1.055-2.358-2.357v-9.175
				"/>
		</g>
		<g>
			<path fill="#FFD76C" d="M337.588,162.916v9.175c0,1.303-1.057,2.357-2.357,2.357h-12.251c-1.303,0-2.358-1.055-2.358-2.357
				v-9.175"/>
		</g>
		<g>
			<path fill="#FFD76C" d="M365.859,162.916v9.175c0,1.303-1.055,2.357-2.357,2.357h-12.251c-1.302,0-2.357-1.055-2.357-2.357
				v-9.175"/>
		</g>
	</g>
	<g>
		<path fill="#FFD76C" d="M166.803,162.916v9.175c0,1.303-1.056,2.357-2.358,2.357h-12.251c-1.302,0-2.358-1.055-2.358-2.357v-9.175
			"/>
	</g>
	<g>
		<path fill="#FFD76C" d="M195.074,162.916v9.175c0,1.303-1.055,2.357-2.357,2.357h-12.251c-1.302,0-2.357-1.055-2.357-2.357v-9.175
			"/>
	</g>
	<g>
		<path fill="#FFD76C" d="M223.347,162.916v9.175c0,1.303-1.056,2.357-2.357,2.357h-12.251c-1.302,0-2.358-1.055-2.358-2.357v-9.175
			"/>
	</g>
	<g>
		<path fill="#FFD76C" d="M251.619,162.916v9.175c0,1.303-1.055,2.357-2.357,2.357H237.01c-1.302,0-2.357-1.055-2.357-2.357v-9.175"
			/>
	</g>
</g>
</svg>
