<?xml version="1.0" encoding="utf-8"?>
<!-- Generator: Adobe Illustrator 15.1.0, SVG Export Plug-In . SVG Version: 6.00 Build 0)  -->
<!DOCTYPE svg PUBLIC "-//W3C//DTD SVG 1.1//EN" "http://www.w3.org/Graphics/SVG/1.1/DTD/svg11.dtd">
<svg version="1.1" id="Layer_1" xmlns="http://www.w3.org/2000/svg" xmlns:xlink="http://www.w3.org/1999/xlink" x="0px" y="0px"
	 width="612px" height="622.723px" viewBox="0 0 612 622.723" enable-background="new 0 0 612 622.723" xml:space="preserve">
<g>
	<rect fill="#D64B4B" width="612" height="622.723"/>
</g>
<g opacity="0.5">
	<path fill="#B83635" d="M306.923,396.589c-47.655,0-86.425-38.769-86.425-86.424c0-47.655,38.77-86.425,86.425-86.425
		c47.654,0,86.425,38.77,86.425,86.425C393.349,357.82,354.577,396.589,306.923,396.589z M306.923,232.415
		c-42.872,0-77.75,34.878-77.75,77.75s34.878,77.751,77.75,77.751c42.871,0,77.751-34.879,77.751-77.751
		S349.794,232.415,306.923,232.415z"/>
</g>
<g opacity="0.5">
	<path fill="#B83635" d="M306.923,440.685c-71.969,0-130.52-58.55-130.52-130.521c0-71.969,58.55-130.52,130.52-130.52
		c71.968,0,130.521,58.55,130.521,130.52C437.444,382.134,378.892,440.685,306.923,440.685z M306.923,188.319
		c-67.187,0-121.845,54.66-121.845,121.845c0,67.188,54.659,121.845,121.845,121.845c67.185,0,121.845-54.657,121.845-121.845
		C428.769,242.979,374.108,188.319,306.923,188.319z"/>
</g>
<g opacity="0.5">
	<path fill="#B83635" d="M306.923,494.132c-49.14,0-95.338-19.137-130.085-53.883c-34.746-34.746-53.883-80.944-53.883-130.085
		c0-49.138,19.137-95.336,53.883-130.084c34.748-34.748,80.946-53.883,130.085-53.883c49.138,0,95.336,19.135,130.085,53.883
		c34.746,34.748,53.883,80.946,53.883,130.084c0,49.141-19.137,95.339-53.883,130.085
		C402.26,474.995,356.062,494.132,306.923,494.132z M306.923,134.872c-96.658,0-175.293,78.636-175.293,175.292
		c0,96.657,78.636,175.295,175.293,175.295s175.292-78.638,175.292-175.295C482.216,213.508,403.581,134.872,306.923,134.872z"/>
</g>
<g opacity="0.5">
	<path fill="#B83635" d="M306.923,547.255c-63.329,0-122.866-24.663-167.647-69.444c-44.78-44.779-69.442-104.318-69.442-167.646
		c0-63.329,24.662-122.866,69.442-167.646c44.781-44.78,104.319-69.441,167.647-69.441s122.868,24.662,167.646,69.441
		c44.781,44.78,69.442,104.318,69.442,167.646c0,63.328-24.661,122.867-69.442,167.646
		C429.791,522.592,370.252,547.255,306.923,547.255z M306.923,81.75c-125.948,0-228.415,102.466-228.415,228.414
		c0,125.949,102.467,228.415,228.415,228.415c125.947,0,228.415-102.466,228.415-228.415
		C535.338,184.217,432.87,81.75,306.923,81.75z"/>
</g>
<g opacity="0.5">
	<g>
		<path fill="#B83635" d="M324.35,587.296l-17.426-14.436l-17.425,14.436l-15.509-16.482l-19.097,12.154l-13.319-18.304
			l-20.478,9.652l-10.901-19.84l-21.532,6.987l-8.313-21.054l-22.238,4.227l-5.604-21.93l-22.589,1.41l-2.823-22.457l-22.588-1.415
			l-0.002-22.632l-22.236-4.223l2.822-22.457l-21.535-6.972l5.618-21.928l-20.491-9.624l8.337-21.047l-19.111-12.135l10.928-19.825
			l-17.425-14.445l13.328-18.295l-15.486-16.5l15.484-16.5l-13.326-18.292l17.426-14.447L37.91,241.098l19.111-12.136l-8.337-21.048
			l20.49-9.625l-5.617-21.929l21.537-6.97l-2.822-22.457l22.235-4.22l0.005-22.631l22.587-1.417l2.823-22.455l22.589,1.41
			l5.605-21.929l22.236,4.227l8.313-21.055l21.531,6.989l10.901-19.842l20.478,9.653l13.319-18.304l19.094,12.156l15.507-16.484
			l17.426,14.437l17.426-14.436l15.506,16.483l19.096-12.156l13.321,18.304l20.477-9.653l10.901,19.842l21.533-6.989l8.313,21.055
			l22.237-4.226l5.604,21.93l22.589-1.41l2.825,22.455l22.586,1.417l0.005,22.631l22.233,4.22l-2.822,22.458l21.535,6.971
			l-5.615,21.929l20.489,9.624l-8.337,21.047l19.11,12.136l-10.926,19.826l17.427,14.445l-13.329,18.293l15.484,16.5l-15.484,16.5
			l13.329,18.295l-17.427,14.445l10.926,19.827l-19.11,12.135l8.337,21.047l-20.491,9.623l5.617,21.931l-21.535,6.97l2.822,22.456
			l-22.235,4.223l-0.005,22.63l-22.587,1.417l-2.824,22.455l-22.587-1.41l-5.605,21.93l-22.238-4.227l-8.313,21.056l-21.53-6.989
			l-10.901,19.84l-20.477-9.652l-13.321,18.307l-19.094-12.157L324.35,587.296z M275.574,558.158l14.759,15.688l16.59-13.744
			l16.591,13.744l14.76-15.688l18.165,11.565l12.669-17.412l19.477,9.182l10.369-18.872l20.479,6.649l7.905-20.031l21.16,4.022
			l5.332-20.869l21.496,1.343l2.688-21.369l21.497-1.348l0.005-21.537l21.16-4.021l-2.686-21.367l20.489-6.633l-5.344-20.861
			l19.49-9.155l-7.93-20.017l18.177-11.543l-10.394-18.855l16.579-13.745l-12.685-17.412l14.744-15.708l-14.744-15.709
			l12.685-17.409l-16.579-13.743l10.394-18.858l-18.177-11.542l7.93-20.018l-19.488-9.155l5.342-20.86l-20.489-6.633l2.686-21.368
			l-21.158-4.017l-0.005-21.539l-21.496-1.349l-2.688-21.371l-21.497,1.343l-5.334-20.868l-21.157,4.02l-7.906-20.029l-20.481,6.648
			l-10.369-18.871l-19.477,9.181l-12.669-17.412l-18.167,11.565l-14.758-15.688l-16.591,13.744l-16.59-13.745L275.574,62.17
			l-18.167-11.564l-12.668,17.412l-19.476-9.181l-10.369,18.871l-20.48-6.648l-7.908,20.029l-21.157-4.02l-5.333,20.865
			l-21.497-1.343l-2.688,21.371l-21.497,1.349l-0.005,21.539l-21.16,4.015l2.685,21.37l-20.49,6.63l5.344,20.862l-19.49,9.154
			l7.93,20.02l-18.178,11.542L61.366,263.3l-16.579,13.745l12.683,17.411l-14.743,15.708l14.744,15.71l-12.684,17.409l16.579,13.743
			l-10.395,18.857l18.177,11.541l-7.93,20.02l19.489,9.152l-5.344,20.861l20.49,6.631l-2.687,21.372l21.162,4.016l0.003,21.54
			l21.497,1.35l2.688,21.369l21.497-1.343l5.333,20.867l21.158-4.021l7.907,20.029l20.482-6.647l10.368,18.872l19.477-9.182
			l12.668,17.412L275.574,558.158z"/>
	</g>
</g>
<g opacity="0.5">
	<g>
		<path fill="#B83635" d="M293.379,525.57l-12.054-12.812l-14.843,9.448l-10.353-14.229l-15.917,7.501l-8.473-15.419l-16.737,5.43
			l-6.461-16.365l-17.284,3.284l-4.357-17.043l-17.557,1.095l-2.194-17.453l-17.557-1.1l-0.002-17.592l-17.283-3.281l2.194-17.455
			l-16.739-5.416l4.367-17.046l-15.926-7.482l6.479-16.358l-14.854-9.434l8.493-15.41l-13.544-11.226l10.358-14.219L91.1,310.164
			l12.036-12.824l-10.358-14.219l13.545-11.229l-8.494-15.41l14.855-9.433l-6.481-16.36l15.927-7.481l-4.366-17.044l16.739-5.418
			l-2.194-17.455l17.284-3.282l0.002-17.591l17.556-1.1l2.195-17.455l17.557,1.097l4.357-17.044l17.283,3.284l6.462-16.365
			l16.734,5.433l8.474-15.422l15.917,7.503l10.353-14.229l14.842,9.449l12.054-12.812l13.545,11.22l13.545-11.221l12.054,12.813
			l14.842-9.449l10.353,14.229l15.918-7.501l8.471,15.422l16.738-5.433l6.46,16.365l17.284-3.284l4.356,17.045l17.556-1.096
			l2.197,17.454l17.556,1.101l0.003,17.591l17.283,3.282l-2.193,17.455l16.737,5.418l-4.364,17.043l15.925,7.48l-6.479,16.36
			l14.854,9.431l-8.495,15.411l13.548,11.228l-10.36,14.219l12.034,12.826l-12.034,12.822l10.36,14.219l-13.548,11.229l8.495,15.41
			l-14.854,9.434l6.479,16.358l-15.927,7.482l4.366,17.044l-16.737,5.418l2.191,17.457l-17.281,3.279l-0.005,17.592l-17.557,1.1
			l-2.194,17.455l-17.558-1.097l-4.357,17.043l-17.281-3.284l-6.46,16.368l-16.738-5.433l-8.471,15.422l-15.918-7.504
			l-10.353,14.229l-14.842-9.448l-12.054,12.812l-13.545-11.222L293.379,525.57z M306.923,504.435l12.896,10.682l11.471-12.193
			l14.12,8.989l9.848-13.536l15.139,7.136l8.06-14.666l15.917,5.168l6.147-15.569l16.444,3.123l4.143-16.218l16.709,1.044
			l2.091-16.61l16.709-1.047l0.003-16.742l16.446-3.123l-2.086-16.61l15.925-5.153l-4.152-16.214l15.147-7.117l-6.161-15.561
			l14.127-8.97l-8.079-14.659l12.887-10.682l-9.857-13.531l11.457-12.21l-11.457-12.21l9.857-13.532l-12.887-10.682l8.079-14.658
			l-14.127-8.97l6.161-15.56l-15.147-7.114l4.152-16.214l-15.925-5.156l2.086-16.609l-16.446-3.122l-0.003-16.741l-16.709-1.048
			l-2.088-16.612l-16.707,1.043l-4.147-16.218l-16.444,3.125l-6.145-15.569l-15.92,5.167l-8.06-14.668l-15.139,7.135l-9.848-13.533
			l-14.12,8.99l-11.471-12.193l-12.896,10.683l-12.896-10.684l-11.471,12.194l-14.12-8.99l-9.848,13.535l-15.138-7.136
			l-8.059,14.668l-15.92-5.168l-6.146,15.568l-16.444-3.125l-4.146,16.218l-16.708-1.043l-2.089,16.61l-16.708,1.048l-0.003,16.741
			l-16.447,3.123l2.087,16.609l-15.926,5.154l4.153,16.215l-15.149,7.116l6.164,15.56l-14.128,8.97l8.079,14.659l-12.887,10.683
			l9.858,13.531l-11.458,12.21l11.458,12.21l-9.858,13.533l12.886,10.68l-8.078,14.659l14.127,8.97l-6.163,15.561l15.147,7.117
			l-4.153,16.214l15.926,5.153l-2.088,16.61l16.448,3.12l0.002,16.743l16.709,1.049l2.088,16.61l16.708-1.044l4.146,16.218
			l16.444-3.125l6.146,15.568l15.92-5.165l8.059,14.666l15.138-7.133l9.847,13.533l14.123-8.989l11.47,12.193L306.923,504.435z"/>
	</g>
</g>
<g opacity="0.5">
	<g>
		<path fill="#B83635" d="M317.107,472.123l-10.184-8.436l-10.183,8.436l-9.063-9.631l-11.16,7.102l-7.785-10.696l-11.967,5.642
			l-6.372-11.597l-12.583,4.086l-4.857-12.307l-12.998,2.469l-3.274-12.816l-13.201,0.825l-1.65-13.124l-13.2-0.828l-0.002-13.225
			l-12.994-2.469l1.649-13.125l-12.585-4.071l3.283-12.816l-11.976-5.625l4.874-12.299l-11.168-7.093l6.385-11.587l-10.184-8.439
			l7.789-10.692l-9.05-9.643l9.05-9.642l-7.789-10.691l10.186-8.442l-6.388-11.587l11.169-7.092l-4.872-12.3l11.974-5.625
			l-3.282-12.816l12.585-4.073l-1.649-13.125l12.995-2.466l0.002-13.227l13.2-0.827l1.65-13.124l13.201,0.825l3.276-12.816
			l12.996,2.47l4.859-12.304l12.583,4.085l6.371-11.596l11.967,5.642l7.783-10.698l11.16,7.104l9.063-9.632l10.184,8.438
			l10.184-8.438l9.063,9.633l11.158-7.103l7.785,10.698l11.968-5.642l6.37,11.595l12.583-4.084l4.857,12.305l12.997-2.468
			l3.277,12.815l13.198-0.823l1.65,13.122l13.201,0.828l0.003,13.227l12.994,2.467l-1.65,13.123l12.585,4.073l-3.281,12.815
			l11.974,5.625l-4.871,12.302l11.168,7.091l-6.386,11.585l10.185,8.442l-7.79,10.691l9.051,9.642l-9.051,9.643l7.787,10.692
			l-10.182,8.442l6.386,11.584l-11.171,7.095l4.874,12.299l-11.974,5.625l3.281,12.814l-12.585,4.076l1.647,13.125l-12.994,2.466
			l-0.002,13.228l-13.201,0.828l-1.65,13.121l-13.201-0.825l-3.274,12.816l-12.995-2.468l-4.859,12.304l-12.581-4.086l-6.37,11.597
			l-11.97-5.642l-7.783,10.696l-11.158-7.102L317.107,472.123z M306.923,456.229l9.696,8.033l8.625-9.167l10.617,6.759l7.403-10.177
			l11.382,5.365l6.061-11.029l11.968,3.888l4.621-11.707l12.364,2.351l3.118-12.195l12.562,0.784l1.57-12.489l12.564-0.786
			l0.002-12.588l12.366-2.346l-1.571-12.489l11.977-3.876l-3.122-12.193l11.39-5.348l-4.634-11.7l10.622-6.747l-6.075-11.021
			l9.691-8.031l-7.413-10.175l8.615-9.181l-8.615-9.18l7.413-10.173l-9.691-8.032l6.075-11.021l-10.622-6.745l4.634-11.7
			l-11.39-5.35l3.122-12.192l-11.974-3.875l1.571-12.488l-12.369-2.348v-12.588l-12.563-0.788l-1.571-12.489l-12.562,0.784
			l-3.118-12.194l-12.363,2.348l-4.622-11.706l-11.967,3.886l-6.061-11.028l-11.383,5.365l-7.405-10.176l-10.617,6.758l-8.625-9.169
			l-9.696,8.033l-9.696-8.033l-8.626,9.168l-10.616-6.758l-7.403,10.176l-11.384-5.365l-6.058,11.029l-11.969-3.886l-4.622,11.705
			l-12.364-2.349l-3.117,12.194l-12.563-0.784l-1.57,12.489l-12.562,0.788l-0.002,12.586l-12.367,2.348l1.57,12.488l-11.975,3.876
			l3.123,12.192l-11.39,5.351l4.634,11.699l-10.623,6.746l6.075,11.02l-9.689,8.034l7.414,10.173l-8.617,9.181l8.616,9.18
			l-7.412,10.175l9.688,8.031l-6.075,11.021l10.623,6.744l-4.635,11.7l11.391,5.349l-3.123,12.19l11.974,3.876l-1.57,12.489
			l12.366,2.348l0.002,12.588l12.563,0.787l1.57,12.491l12.563-0.786l3.117,12.195l12.365-2.349l4.621,11.707l11.969-3.885
			l6.059,11.028l11.382-5.365l7.404,10.175l10.617-6.759l8.625,9.167L306.923,456.229z"/>
	</g>
</g>
<g opacity="0.5">
	<g>
		<path fill="#B83635" d="M299.903,421.825l-6.248-6.641l-7.695,4.896l-5.367-7.374l-8.251,3.889l-4.392-7.995l-8.675,2.814
			l-3.349-8.482l-8.96,1.703l-2.258-8.837l-9.102,0.57l-1.138-9.048l-9.101-0.57l-0.001-9.119l-8.958-1.701l1.135-9.049
			l-8.675-2.808l2.263-8.837l-8.256-3.876l3.36-8.479l-7.7-4.889l4.403-7.99l-7.022-5.82l5.37-7.369l-6.238-6.65l6.238-6.647
			l-5.369-7.371l7.021-5.82l-4.403-7.989l7.7-4.889l-3.359-8.48l8.256-3.878l-2.263-8.836l8.677-2.809l-1.137-9.049l8.96-1.7
			l0.001-9.119l9.101-0.571l1.139-9.047l9.1,0.569l2.258-8.835l8.96,1.702l3.349-8.483l8.675,2.816l4.393-7.994l8.25,3.889
			l5.365-7.375l7.695,4.898l6.248-6.642l7.021,5.816l7.02-5.816l6.251,6.642l7.691-4.897l5.368,7.375l8.25-3.888l4.393,7.994
			l8.676-2.816l3.349,8.484l8.96-1.702l2.26,8.834l9.102-0.567l1.138,9.047l9.099,0.57v9.119l8.96,1.701l-1.136,9.049l8.676,2.809
			l-2.264,8.834l8.257,3.878l-3.361,8.479l7.701,4.889l-4.402,7.988l7.021,5.82l-5.37,7.371l6.241,6.647l-6.241,6.647l5.37,7.372
			l-7.021,5.82l4.402,7.99l-7.701,4.889l3.359,8.479l-8.255,3.878l2.264,8.834l-8.678,2.81l1.138,9.049l-8.96,1.701l-0.002,9.119
			l-9.1,0.57l-1.138,9.048l-9.102-0.57l-2.259,8.837l-8.958-1.703l-3.349,8.483l-8.676-2.817l-4.393,7.995l-8.25-3.889l-5.368,7.374
			l-7.694-4.896l-6.248,6.641l-7.02-5.818L299.903,421.825z M306.923,410.868l6.683,5.536l5.95-6.32l7.318,4.66l5.104-7.016
			l7.846,3.698l4.179-7.603l8.253,2.68l3.185-8.072l8.524,1.622l2.151-8.406l8.661,0.539l1.082-8.611l8.659-0.544l0.003-8.678
			l8.523-1.617l-1.08-8.611l8.255-2.673l-2.153-8.404l7.853-3.688l-3.194-8.067l7.323-4.65l-4.187-7.598l6.679-5.538l-5.109-7.013
			l5.939-6.33l-5.939-6.329l5.109-7.015l-6.679-5.537l4.187-7.598l-7.323-4.649l3.194-8.064l-7.853-3.689l2.155-8.405l-8.257-2.672
			l1.083-8.611l-8.526-1.618v-8.678l-8.662-0.543l-1.082-8.61l-8.661,0.541l-2.148-8.409l-8.527,1.619l-3.185-8.069l-8.25,2.679
			l-4.18-7.604l-7.848,3.699l-5.104-7.016l-7.32,4.659l-5.948-6.321l-6.683,5.539l-6.685-5.539l-5.946,6.321l-7.32-4.66
			l-5.104,7.016l-7.847-3.699l-4.178,7.603l-8.251-2.679l-3.186,8.071l-8.524-1.621l-2.148,8.408l-8.662-0.542l-1.083,8.61
			l-8.663,0.543v8.679l-8.526,1.618l1.082,8.609l-8.256,2.673l2.152,8.405l-7.853,3.689l3.195,8.066l-7.324,4.649l4.189,7.598
			l-6.681,5.539l5.11,7.015l-5.939,6.329l5.94,6.33l-5.111,7.016l6.681,5.536l-4.189,7.598l7.324,4.65l-3.195,8.065l7.853,3.688
			l-2.153,8.404l8.255,2.673l-1.082,8.61l8.525,1.617l0.001,8.68l8.662,0.542l1.083,8.611l8.663-0.542l2.148,8.408l8.524-1.619
			l3.187,8.07l8.252-2.678l4.177,7.603l7.848-3.698l5.104,7.016l7.32-4.66l5.946,6.32L306.923,410.868z"/>
	</g>
</g>
<g opacity="0.5">
	<path fill="#B83635" d="M306.923,614.045c-41.022,0-80.819-8.033-118.286-23.881c-36.186-15.307-68.685-37.217-96.591-65.123
		c-27.906-27.906-49.816-60.405-65.122-96.591C11.078,390.983,3.042,351.187,3.042,310.164c0-41.021,8.036-80.818,23.882-118.286
		c15.306-36.186,37.216-68.684,65.122-96.59c27.908-27.907,60.405-49.818,96.591-65.123c37.466-15.848,77.264-23.882,118.286-23.882
		c41.023,0,80.819,8.034,118.287,23.882c36.185,15.305,68.684,37.216,96.59,65.123c27.906,27.906,49.817,60.404,65.121,96.59
		c15.848,37.467,23.884,77.265,23.884,118.286c0,41.023-8.036,80.819-23.884,118.286c-15.304,36.186-37.215,68.685-65.121,96.591
		s-60.405,49.816-96.59,65.123C387.742,606.012,347.946,614.045,306.923,614.045z M306.923,14.958
		c-162.777,0-295.207,132.43-295.207,295.207c0,162.779,132.43,295.208,295.207,295.208s295.208-132.429,295.208-295.208
		C602.131,147.387,469.7,14.958,306.923,14.958z"/>
</g>
<g>
	<rect x="17.015" y="147.09" fill="none" width="579.818" height="326.149"/>
</g>
</svg>
