<?xml version="1.0" encoding="utf-8"?>
<!-- Generator: Adobe Illustrator 15.1.0, SVG Export Plug-In . SVG Version: 6.00 Build 0)  -->
<!DOCTYPE svg PUBLIC "-//W3C//DTD SVG 1.1//EN" "http://www.w3.org/Graphics/SVG/1.1/DTD/svg11.dtd">
<svg version="1.1" id="Layer_1" xmlns="http://www.w3.org/2000/svg" xmlns:xlink="http://www.w3.org/1999/xlink" x="0px" y="0px"
	 width="432.775px" height="432.778px" viewBox="0 0 432.775 432.778" enable-background="new 0 0 432.775 432.778"
	 xml:space="preserve">
<g>
	<circle fill="#B04F6A" cx="215.903" cy="215.675" r="216.388"/>
	<g>
		<path fill="#FFFFFF" d="M165.856,101.468c0,1.7,1.379,3.079,3.081,3.079h47.743c1.701,0,3.08-1.379,3.08-3.079l0,0
			c0-1.704-1.379-3.083-3.08-3.083h-47.743C167.235,98.385,165.856,99.764,165.856,101.468L165.856,101.468z"/>
		<path fill="#FFFFFF" d="M181.863,112.656c0,1.7,1.379,3.081,3.081,3.081h47.742c1.702,0,3.082-1.381,3.082-3.081l0,0
			c0-1.704-1.38-3.082-3.082-3.082h-47.742C183.242,109.574,181.863,110.952,181.863,112.656L181.863,112.656z"/>
		<path fill="#FFFFFF" d="M192.808,124.26c0,1.7,1.379,3.079,3.082,3.079h47.741c1.702,0,3.081-1.379,3.081-3.079l0,0
			c0-1.702-1.379-3.081-3.081-3.081H195.89C194.187,121.179,192.808,122.558,192.808,124.26L192.808,124.26z"/>
		<g>
			<path fill="#FFFFFF" d="M151.898,295.554c-1.948,1.948-5.108,1.948-7.056,0l0,0c-1.948-1.948-1.948-5.107,0-7.055l34.972-34.971
				c1.948-1.948,5.107-1.948,7.055,0l0,0c1.949,1.948,1.948,5.105-0.001,7.054L151.898,295.554z"/>
			<path fill="#FFFFFF" d="M149.154,322.547c0,1.736-1.408,3.144-3.143,3.144l0,0c-1.736,0-3.144-1.407-3.144-3.144l0-31.16
				c0-1.735,1.408-3.144,3.144-3.144l0,0c1.735,0,3.142,1.408,3.142,3.144V322.547z"/>
			<circle fill="#FFFFFF" cx="142.868" cy="291.387" r="5.737"/>
			<path fill="#FFFFFF" d="M264.843,295.554c1.948,1.948,5.107,1.948,7.056,0l0,0c1.947-1.948,1.947-5.107,0-7.055l-34.972-34.971
				c-1.948-1.948-5.108-1.948-7.057,0l0,0c-1.948,1.948-1.947,5.105,0.001,7.054L264.843,295.554z"/>
			<path fill="#FFFFFF" d="M267.587,322.547c0,1.736,1.407,3.144,3.143,3.144l0,0c1.735,0,3.144-1.407,3.144-3.144l-0.001-31.16
				c0-1.735-1.407-3.144-3.144-3.144l0,0c-1.735,0-3.142,1.408-3.142,3.144V322.547z"/>
			<circle fill="#FFFFFF" cx="273.872" cy="291.387" r="5.737"/>
			<path fill="#FFFFFF" d="M147.792,322.809c0,1.78-1.442,3.223-3.222,3.223h-39.051c-1.78,0-3.223-1.442-3.223-3.223l0,0
				c0-1.778,1.442-3.224,3.223-3.224h39.051C146.349,319.585,147.792,321.03,147.792,322.809L147.792,322.809z"/>
			<path fill="#FFFFFF" d="M314.173,322.809c0,1.78-1.442,3.223-3.222,3.223h-39.052c-1.779,0-3.222-1.442-3.222-3.223l0,0
				c0-1.778,1.442-3.224,3.222-3.224h39.052C312.73,319.585,314.173,321.03,314.173,322.809L314.173,322.809z"/>
		</g>
		<path fill="#FFFFFF" d="M243.732,260.257c0,2.978-2.414,5.393-5.393,5.393h-62.006c-2.978,0-5.392-2.415-5.392-5.393v-21.723
			c0-2.979,2.415-5.393,5.392-5.393h62.006c2.979,0,5.393,2.414,5.393,5.393V260.257z"/>
		<path fill="#FFFFFF" d="M211.641,237.534c0,1.562-1.265,2.827-2.826,2.827l0,0c-1.562,0-2.827-1.266-2.827-2.827v-134.77
			c0-1.562,1.265-2.826,2.827-2.826l0,0c1.561,0,2.826,1.265,2.826,2.826V237.534z"/>
		<path fill="#FFFFFF" d="M318.767,132.649c0,2.979-2.414,5.393-5.392,5.393H211.381c-2.978,0-5.392-2.414-5.392-5.393v-28.873
			c0-2.978,2.415-5.392,5.392-5.392h101.994c2.978,0,5.392,2.414,5.392,5.392V132.649z"/>
		<path fill="#FFFFFF" d="M291.426,153.883c0,2.978-2.414,5.393-5.393,5.393h-74.652c-2.978,0-5.392-2.415-5.392-5.393v-5.041
			c0-2.976,2.415-5.39,5.392-5.39h74.652c2.979,0,5.393,2.414,5.393,5.39V153.883z"/>
		<circle fill="#B04F6A" cx="226.198" cy="118.87" r="9.712"/>
		<circle fill="#B04F6A" cx="253.388" cy="118.87" r="9.712"/>
		<path fill="#FFFFFF" d="M211.563,180.991c0,1.633-1.324,2.96-2.958,2.96H103.347c-1.633,0-2.958-1.327-2.958-2.96l0,0
			c0-1.635,1.325-2.959,2.958-2.959h105.258C210.239,178.032,211.563,179.356,211.563,180.991L211.563,180.991z"/>
		<path fill="#FFFFFF" d="M111.172,213.212c0,1.114-0.905,2.021-2.022,2.021l0,0c-1.116,0-2.021-0.907-2.021-2.021v-31.811
			c0-1.117,0.905-2.021,2.021-2.021l0,0c1.118,0,2.022,0.904,2.022,2.021V213.212z"/>
		<path fill="#FFFFFF" d="M121.195,213.212c0,1.114-0.905,2.021-2.021,2.021l0,0c-1.117,0-2.022-0.907-2.022-2.021v-31.811
			c0-1.117,0.906-2.021,2.022-2.021l0,0c1.117,0,2.021,0.904,2.021,2.021V213.212z"/>
		<path fill="#FFFFFF" d="M131.219,213.212c0,1.114-0.905,2.021-2.021,2.021l0,0c-1.117,0-2.022-0.907-2.022-2.021v-31.811
			c0-1.117,0.905-2.021,2.022-2.021l0,0c1.117,0,2.021,0.904,2.021,2.021V213.212z"/>
		<path fill="#FFFFFF" d="M141.243,213.212c0,1.114-0.906,2.021-2.022,2.021l0,0c-1.116,0-2.022-0.907-2.022-2.021v-31.811
			c0-1.117,0.906-2.021,2.022-2.021l0,0c1.117,0,2.022,0.904,2.022,2.021V213.212z"/>
		<path fill="#FFFFFF" d="M151.266,213.212c0,1.114-0.905,2.021-2.021,2.021l0,0c-1.117,0-2.022-0.907-2.022-2.021v-31.811
			c0-1.117,0.905-2.021,2.022-2.021l0,0c1.117,0,2.021,0.904,2.021,2.021V213.212z"/>
		<path fill="#FFFFFF" d="M161.367,213.212c0,1.114-0.905,2.021-2.021,2.021l0,0c-1.117,0-2.022-0.907-2.022-2.021v-31.811
			c0-1.117,0.906-2.021,2.022-2.021l0,0c1.117,0,2.021,0.904,2.021,2.021V213.212z"/>
		<path fill="#FFFFFF" d="M205.788,180.991c0,1.633,1.324,2.96,2.958,2.96h105.258c1.633,0,2.959-1.327,2.959-2.96l0,0
			c0-1.635-1.326-2.959-2.959-2.959H208.746C207.112,178.032,205.788,179.356,205.788,180.991L205.788,180.991z"/>
		<path fill="#FFFFFF" d="M306.179,213.212c0,1.114,0.905,2.021,2.022,2.021l0,0c1.117,0,2.021-0.907,2.021-2.021v-31.811
			c0-1.117-0.904-2.021-2.021-2.021l0,0c-1.117,0-2.022,0.904-2.022,2.021V213.212z"/>
		<path fill="#FFFFFF" d="M296.155,213.212c0,1.114,0.905,2.021,2.022,2.021l0,0c1.116,0,2.021-0.907,2.021-2.021v-31.811
			c0-1.117-0.905-2.021-2.021-2.021l0,0c-1.117,0-2.022,0.904-2.022,2.021V213.212z"/>
		<path fill="#FFFFFF" d="M286.132,213.212c0,1.114,0.905,2.021,2.022,2.021l0,0c1.117,0,2.021-0.907,2.021-2.021v-31.811
			c0-1.117-0.904-2.021-2.021-2.021l0,0c-1.117,0-2.022,0.904-2.022,2.021V213.212z"/>
		<path fill="#FFFFFF" d="M276.107,213.212c0,1.114,0.905,2.021,2.023,2.021l0,0c1.116,0,2.021-0.907,2.021-2.021v-31.811
			c0-1.117-0.905-2.021-2.021-2.021l0,0c-1.118,0-2.023,0.904-2.023,2.021V213.212z"/>
		<path fill="#FFFFFF" d="M266.084,213.212c0,1.114,0.906,2.021,2.023,2.021l0,0c1.116,0,2.021-0.907,2.021-2.021v-31.811
			c0-1.117-0.905-2.021-2.021-2.021l0,0c-1.117,0-2.023,0.904-2.023,2.021V213.212z"/>
		<path fill="#FFFFFF" d="M255.983,213.212c0,1.114,0.905,2.021,2.022,2.021l0,0c1.117,0,2.021-0.907,2.021-2.021v-31.811
			c0-1.117-0.904-2.021-2.021-2.021l0,0c-1.117,0-2.022,0.904-2.022,2.021V213.212z"/>
		<path fill="#FFFFFF" d="M232.141,195.056c0,2.017-1.635,3.651-3.652,3.651H190.08c-2.017,0-3.653-1.635-3.653-3.651l0,0
			c0-2.018,1.636-3.653,3.653-3.653h38.409C230.506,191.402,232.141,193.038,232.141,195.056L232.141,195.056z"/>
		<path fill="#FFFFFF" d="M232.141,208.299c0,2.015-1.635,3.652-3.652,3.652H190.08c-2.017,0-3.653-1.638-3.653-3.652l0,0
			c0-2.018,1.636-3.653,3.653-3.653h38.409C230.506,204.646,232.141,206.281,232.141,208.299L232.141,208.299z"/>
		<path fill="#FFFFFF" d="M232.141,221.542c0,2.016-1.635,3.649-3.652,3.649H190.08c-2.017,0-3.653-1.634-3.653-3.649l0,0
			c0-2.018,1.636-3.652,3.653-3.652h38.409C230.506,217.89,232.141,219.524,232.141,221.542L232.141,221.542z"/>
		<path fill="#FFFFFF" d="M301.527,143.443c0,1.485-1.203,2.686-2.686,2.686l0,0c-1.484,0-2.687-1.2-2.687-2.686v-13.417
			c0-1.484,1.202-2.688,2.687-2.688l0,0c1.482,0,2.686,1.203,2.686,2.688V143.443z"/>
		<path fill="#FFFFFF" d="M310.887,143.443c0,1.485-1.202,2.686-2.686,2.686l0,0c-1.484,0-2.687-1.2-2.687-2.686v-13.417
			c0-1.484,1.202-2.688,2.687-2.688l0,0c1.483,0,2.686,1.203,2.686,2.688V143.443z"/>
	</g>
</g>
</svg>
