<?xml version="1.0" encoding="utf-8"?>
<!-- Generator: Adobe Illustrator 15.1.0, SVG Export Plug-In . SVG Version: 6.00 Build 0)  -->
<!DOCTYPE svg PUBLIC "-//W3C//DTD SVG 1.1//EN" "http://www.w3.org/Graphics/SVG/1.1/DTD/svg11.dtd">
<svg version="1.1" id="Layer_1" xmlns="http://www.w3.org/2000/svg" xmlns:xlink="http://www.w3.org/1999/xlink" x="0px" y="0px"
	 width="432.775px" height="432.778px" viewBox="0 0 432.775 432.778" enable-background="new 0 0 432.775 432.778"
	 xml:space="preserve">
<g>
	<circle fill="#A3D7BC" cx="216.388" cy="216.39" r="216.388"/>
	<g>
		<g>
			<path fill="#FFFFFF" d="M169.855,231.79v-93.159c0-24.521,19.876-44.399,44.397-44.399l0,0c24.521,0,44.399,19.879,44.399,44.399
				v93.159"/>
		</g>
		<g>
			<path fill="#FFFFFF" d="M178.221,338.891c-13.02,0-23.611-10.594-23.611-23.613c0-1.87,1.516-3.387,3.387-3.387
				c1.87,0,3.386,1.517,3.386,3.387c0,9.284,7.553,16.839,16.838,16.839c9.287,0,16.841-7.555,16.841-16.839V200.124
				c0-1.868,1.516-3.387,3.388-3.387c1.869,0,3.386,1.519,3.386,3.387v115.153C201.835,328.297,191.242,338.891,178.221,338.891z"/>
		</g>
		<g>
			<path fill="#FFFFFF" d="M250.279,338.891c-13.02,0-23.613-10.594-23.613-23.613V200.124c0-1.868,1.517-3.387,3.387-3.387
				s3.387,1.519,3.387,3.387v115.153c0,9.284,7.555,16.839,16.84,16.839s16.84-7.555,16.84-16.839c0-1.87,1.516-3.387,3.386-3.387
				s3.387,1.517,3.387,3.387C273.892,328.297,263.299,338.891,250.279,338.891z"/>
		</g>
		<g>
			<path fill="#FFFFFF" d="M214.25,314.058c-1.87,0-3.386-1.518-3.386-3.386V200.124c0-1.868,1.516-3.387,3.386-3.387
				c1.871,0,3.388,1.519,3.388,3.387v110.548C217.638,312.54,216.121,314.058,214.25,314.058z"/>
		</g>
		<g>
			<path fill="#283248" d="M187.907,142.417c0-14.549,11.793-26.343,26.343-26.343c14.549,0,26.344,11.794,26.344,26.343
				c0,14.553-11.795,26.348-26.344,26.348C199.7,168.765,187.907,156.97,187.907,142.417z"/>
		</g>
		<g>
			<circle fill="#F6907B" cx="214.248" cy="142.417" r="7.343"/>
		</g>
		<g>
			<path fill="#283248" d="M270.504,237.979c0,3.419-2.77,6.188-6.188,6.188H164.184c-3.418,0-6.188-2.77-6.188-6.188l0,0
				c0-3.418,2.77-6.188,6.188-6.188h100.133C267.734,231.79,270.504,234.561,270.504,237.979L270.504,237.979z"/>
		</g>
	</g>
	<g>
		<path fill="#FFFFFF" d="M122.198,173.052c0,4.189-3.395,7.58-7.582,7.58c-4.183,0-7.578-3.391-7.578-7.58
			c0-4.183,3.395-7.58,7.578-7.58C118.803,165.472,122.198,168.869,122.198,173.052z"/>
		<path fill="#FFFFFF" d="M299.781,198.708c0,4.188-3.394,7.58-7.581,7.58c-4.183,0-7.579-3.392-7.579-7.58
			c0-4.184,3.396-7.577,7.579-7.577C296.388,191.131,299.781,194.524,299.781,198.708z"/>
		<path fill="#FFFFFF" d="M278.48,277.028c0,4.188-3.395,7.58-7.582,7.58c-4.184,0-7.578-3.392-7.578-7.58
			c0-4.186,3.395-7.578,7.578-7.578C275.086,269.45,278.48,272.843,278.48,277.028z"/>
		<circle fill="#FFFFFF" cx="297.564" cy="97.576" r="5.364"/>
		<path fill="#FFFFFF" d="M163.852,261.482c0,2.964-2.404,5.363-5.363,5.363c-2.965,0-5.365-2.399-5.365-5.363
			s2.4-5.362,5.365-5.362C161.448,256.12,163.852,258.519,163.852,261.482z"/>
		<path fill="#FFFFFF" d="M305.146,301.393c0,2.966-2.402,5.368-5.362,5.368c-2.966,0-5.366-2.402-5.366-5.368
			c0-2.963,2.4-5.362,5.366-5.362C302.744,296.03,305.146,298.43,305.146,301.393z"/>
	</g>
</g>
</svg>
