<?xml version="1.0" encoding="utf-8"?>
<!-- Generator: Adobe Illustrator 15.1.0, SVG Export Plug-In . SVG Version: 6.00 Build 0)  -->
<!DOCTYPE svg PUBLIC "-//W3C//DTD SVG 1.1//EN" "http://www.w3.org/Graphics/SVG/1.1/DTD/svg11.dtd">
<svg version="1.1" id="Layer_1" xmlns="http://www.w3.org/2000/svg" xmlns:xlink="http://www.w3.org/1999/xlink" x="0px" y="0px"
	 width="1670.54px" height="1125.113px" viewBox="0 0 1670.54 1125.113" enable-background="new 0 0 1670.54 1125.113"
	 xml:space="preserve">
<g>
	<path fill="#F37763" d="M1662.87,784.56c0,17.509-14.194,31.702-31.703,31.702h-131.595c-17.509,0-31.703-14.193-31.703-31.702
		V403.633c0-17.509,14.194-31.703,31.703-31.703h131.595c17.509,0,31.703,14.194,31.703,31.703V784.56z"/>
	<path fill="#F37763" d="M199.397,784.56c0,17.509-14.194,31.702-31.703,31.702H36.1c-17.509,0-31.703-14.193-31.703-31.702V403.633
		c0-17.509,14.193-31.703,31.703-31.703h131.595c17.508,0,31.703,14.194,31.703,31.703V784.56z"/>
	<path fill="none" stroke="#1B123A" stroke-width="18.9706" stroke-miterlimit="10" d="M397.279,166.13
		c0-80.84,65.533-146.371,146.371-146.371c80.838,0,146.371,65.531,146.371,146.371"/>
	<path fill="none" stroke="#1B123A" stroke-width="18.9289" stroke-miterlimit="10" d="M977.585,166.13
		c0-80.663,65.388-146.049,146.049-146.049c80.66,0,146.048,65.386,146.048,146.049"/>
	<path fill="#F37763" d="M340.042,162.413c0-3.183,2.581-5.764,5.764-5.764h107.098c3.183,0,5.764,2.581,5.764,5.764v53.485
		c0,3.184-2.581,5.765-5.764,5.765H345.806c-3.183,0-5.764-2.581-5.764-5.765V162.413z"/>
	<path fill="#F37763" d="M629.85,162.413c0-3.183,2.581-5.764,5.764-5.764h107.098c3.183,0,5.764,2.581,5.764,5.764v53.485
		c0,3.184-2.581,5.765-5.764,5.765H635.614c-3.183,0-5.764-2.581-5.764-5.765V162.413z"/>
	<path fill="#F37763" d="M919.659,162.413c0-3.183,2.581-5.764,5.764-5.764h107.098c3.184,0,5.764,2.581,5.764,5.764v53.485
		c0,3.184-2.58,5.765-5.764,5.765H925.423c-3.183,0-5.764-2.581-5.764-5.765V162.413z"/>
	<path fill="#F37763" d="M1209.466,162.413c0-3.183,2.582-5.764,5.765-5.764h107.098c3.183,0,5.765,2.581,5.765,5.764v53.485
		c0,3.184-2.582,5.765-5.765,5.765h-107.098c-3.183,0-5.765-2.581-5.765-5.765V162.413z"/>
	<path fill="#624B9F" d="M1592.597,957.286c0,21.038-17.055,38.094-38.094,38.094H115.353c-21.039,0-38.094-17.056-38.094-38.094
		V227.25c0-21.039,17.055-38.094,38.094-38.094h1439.151c21.039,0,38.094,17.055,38.094,38.094V957.286z"/>
	<path fill="#1B123A" d="M1554.503,189.156H115.353c-21.039,0-38.094,17.055-38.094,38.094v358.678
		c0.993,0.077,1.993,0.13,3.006,0.13h1512.333V227.25C1592.597,206.21,1575.542,189.156,1554.503,189.156z"/>
	<g>
		<g>
			<circle fill="#FFFFFF" cx="288.164" cy="797.18" r="119.642"/>
		</g>
		<circle fill="none" stroke="#F37763" stroke-width="13.3388" stroke-miterlimit="10" cx="288.165" cy="797.18" r="51.877"/>
		<circle fill="#FFD982" cx="288.165" cy="797.18" r="17.328"/>
		<circle fill="#1B123A" cx="226.47" cy="858.874" r="11.588"/>
		<g>
			<circle fill="#FFFFFF" cx="1381.691" cy="797.18" r="119.642"/>
		</g>
		<g>
			<g>
				<path fill="#1B123A" d="M1381.691,647.787c39.905,0,77.421,15.539,105.639,43.756c28.217,28.217,43.756,65.732,43.756,105.637
					s-15.539,77.421-43.756,105.639c-28.218,28.217-65.733,43.756-105.639,43.756c-39.904,0-77.421-15.539-105.638-43.756
					c-28.218-28.218-43.757-65.734-43.757-105.639s15.539-77.42,43.757-105.637C1304.27,663.326,1341.787,647.787,1381.691,647.787
					 M1381.691,641.412c-86.028,0-155.77,69.74-155.77,155.768c0,86.029,69.741,155.77,155.77,155.77
					c86.029,0,155.77-69.74,155.77-155.77C1537.46,711.152,1467.72,641.412,1381.691,641.412L1381.691,641.412z"/>
			</g>
		</g>
		<g>
			<g>
				<path fill="#1B123A" d="M288.164,647.787c39.905,0,77.421,15.539,105.638,43.756s43.757,65.732,43.757,105.637
					s-15.54,77.421-43.757,105.639c-28.217,28.217-65.733,43.756-105.638,43.756c-39.904,0-77.42-15.539-105.637-43.756
					C154.31,874.6,138.77,837.083,138.77,797.179s15.54-77.42,43.757-105.637S248.26,647.787,288.164,647.787 M288.164,641.412
					c-86.028,0-155.769,69.74-155.769,155.768c0,86.029,69.741,155.77,155.769,155.77c86.029,0,155.77-69.74,155.77-155.77
					C443.934,711.152,374.193,641.412,288.164,641.412L288.164,641.412z"/>
			</g>
		</g>
		<circle fill="none" stroke="#ABD9B5" stroke-width="13.3388" stroke-miterlimit="10" cx="1381.691" cy="797.18" r="51.878"/>
		<circle fill="#F37763" cx="1381.69" cy="797.18" r="17.328"/>
		<circle fill="#1B123A" cx="1443.385" cy="735.485" r="11.588"/>
	</g>
	<rect x="77.258" y="584.49" fill="#ABD9B5" width="1515.339" height="19.213"/>
	<path fill="#1B123A" stroke="#FFD982" stroke-width="12.7493" stroke-miterlimit="10" d="M1178.697,912.102
		c0,21.038-17.057,38.094-38.094,38.094H529.254c-21.039,0-38.094-17.056-38.094-38.094v-70.116
		c0-21.038,17.055-38.092,38.094-38.092h611.349c21.037,0,38.094,17.054,38.094,38.092V912.102z"/>
	<g>
		<path fill="none" stroke="#624B9F" stroke-width="6.3746" stroke-miterlimit="10" d="M494.517,390.651
			c0,15.817-12.823,28.643-28.641,28.643H334.135c-15.819,0-28.643-12.825-28.643-28.643V258.91
			c0-15.819,12.824-28.643,28.643-28.643h131.741c15.818,0,28.641,12.823,28.641,28.643V390.651z"/>
		<g>
			<path fill="#624B9F" d="M399.355,355.485c-16.931,0-30.705-13.774-30.705-30.705c0-16.93,13.774-30.704,30.705-30.704
				s30.705,13.774,30.705,30.704C430.06,341.711,416.286,355.485,399.355,355.485z"/>
			<g>
				<path fill="#ABD9B5" d="M399.355,302.722c12.164,0,22.059,9.896,22.059,22.058c0,12.164-9.896,22.059-22.059,22.059
					s-22.059-9.896-22.059-22.059C377.296,312.617,387.191,302.722,399.355,302.722 M399.355,285.429
					c-21.734,0-39.352,17.617-39.352,39.351s17.618,39.352,39.352,39.352c21.733,0,39.352-17.618,39.352-39.352
					S421.088,285.429,399.355,285.429L399.355,285.429z"/>
			</g>
		</g>
	</g>
	<g>
		<path fill="none" stroke="#624B9F" stroke-width="6.3746" stroke-miterlimit="10" d="M783.676,390.651
			c0,15.817-12.824,28.643-28.642,28.643H623.292c-15.819,0-28.642-12.825-28.642-28.643V258.91
			c0-15.819,12.823-28.643,28.642-28.643h131.741c15.818,0,28.642,12.823,28.642,28.643V390.651z"/>
		<g>
			<path fill="#FFD982" d="M687.863,355.485c-16.931,0-30.705-13.774-30.705-30.705c0-16.93,13.774-30.704,30.705-30.704
				s30.705,13.774,30.705,30.704C718.568,341.711,704.794,355.485,687.863,355.485z"/>
			<g>
				<path fill="#F37763" d="M687.863,302.722c12.164,0,22.059,9.896,22.059,22.058c0,12.164-9.896,22.059-22.059,22.059
					s-22.059-9.896-22.059-22.059C665.804,312.617,675.699,302.722,687.863,302.722 M687.863,285.429
					c-21.733,0-39.352,17.617-39.352,39.351s17.618,39.352,39.352,39.352s39.352-17.618,39.352-39.352
					S709.596,285.429,687.863,285.429L687.863,285.429z"/>
			</g>
		</g>
	</g>
	<g>
		<path fill="none" stroke="#624B9F" stroke-width="6.3746" stroke-miterlimit="10" d="M1072.834,390.651
			c0,15.817-12.824,28.643-28.643,28.643H912.451c-15.819,0-28.643-12.825-28.643-28.643V258.91
			c0-15.819,12.824-28.643,28.643-28.643h131.741c15.818,0,28.643,12.823,28.643,28.643V390.651z"/>
		<g>
			<path fill="#FFFFFF" d="M976.371,355.485c-16.931,0-30.705-13.774-30.705-30.705c0-16.93,13.774-30.704,30.705-30.704
				s30.705,13.774,30.705,30.704C1007.076,341.711,993.302,355.485,976.371,355.485z"/>
			<g>
				<path fill="#624B9F" d="M976.371,302.722c12.163,0,22.059,9.896,22.059,22.058c0,12.164-9.896,22.059-22.059,22.059
					s-22.059-9.896-22.059-22.059C954.313,312.617,964.208,302.722,976.371,302.722 M976.371,285.429
					c-21.733,0-39.351,17.617-39.351,39.351s17.618,39.352,39.351,39.352c21.734,0,39.351-17.618,39.351-39.352
					S998.105,285.429,976.371,285.429L976.371,285.429z"/>
			</g>
		</g>
	</g>
	<g>
		<path fill="none" stroke="#624B9F" stroke-width="6.3746" stroke-miterlimit="10" d="M1361.992,390.651
			c0,15.817-12.824,28.643-28.643,28.643h-131.74c-15.818,0-28.643-12.825-28.643-28.643V258.91
			c0-15.819,12.824-28.643,28.643-28.643h131.74c15.818,0,28.643,12.823,28.643,28.643V390.651z"/>
		<g>
			<path fill="#F37763" d="M1267.478,355.486c-16.931,0-30.705-13.774-30.705-30.705s13.774-30.705,30.705-30.705
				c16.932,0,30.706,13.774,30.706,30.705S1284.41,355.486,1267.478,355.486z"/>
			<path fill="#FFD982" d="M1267.478,302.722c12.164,0,22.061,9.896,22.061,22.059s-9.896,22.059-22.061,22.059
				c-12.163,0-22.059-9.896-22.059-22.059S1255.315,302.722,1267.478,302.722 M1267.478,285.429
				c-21.732,0-39.352,17.618-39.352,39.352s17.619,39.352,39.352,39.352c21.734,0,39.353-17.618,39.353-39.352
				S1289.212,285.429,1267.478,285.429L1267.478,285.429z"/>
		</g>
	</g>
	<g>
		<circle fill="#1B123A" cx="834.971" cy="682.721" r="18.502"/>
		<circle fill="#1B123A" cx="803.537" cy="737.428" r="18.503"/>
		<circle fill="#1B123A" cx="866.997" cy="737.428" r="18.502"/>
	</g>
	<path fill="none" stroke="#E1E1E1" stroke-width="6.3746" stroke-miterlimit="10" d="M913.721,748.189l-64.477-111.678
		c-2.882-4.992-8.209-8.067-13.974-8.067s-11.092,3.075-13.975,8.067l-64.8,112.238c-2.882,4.992-2.882,11.145,0,16.137
		s8.209,8.066,13.975,8.066h129.6c0.005,0,0.01,0,0.013,0c8.912,0,16.136-7.225,16.136-16.136
		C916.219,753.644,915.303,750.683,913.721,748.189z"/>
	<g>
		<path fill="none" stroke="#624B9F" stroke-width="6.3746" stroke-miterlimit="10" d="M1542.175,522.666
			c0,9.463-7.672,17.135-17.135,17.135h-94.184c-9.463,0-17.135-7.672-17.135-17.135V247.402c0-9.466,7.672-17.137,17.135-17.137
			h94.184c9.463,0,17.135,7.671,17.135,17.137V522.666z"/>
		<path fill="#F37763" d="M1522.927,503.417c0,9.463-7.672,17.135-17.135,17.135h-55.688c-9.464,0-17.135-7.672-17.135-17.135
			V266.65c0-9.466,7.671-17.137,17.135-17.137h55.688c9.463,0,17.135,7.671,17.135,17.137V503.417z"/>
		<g>
			<g>
				<rect x="1432.968" y="265.198" fill="#FFD982" width="89.959" height="13.986"/>
				<rect x="1432.968" y="310.499" fill="#FFD982" width="89.959" height="13.984"/>
				<rect x="1432.968" y="355.797" fill="#FFD982" width="89.959" height="13.984"/>
				<rect x="1432.968" y="401.097" fill="#FFD982" width="89.959" height="13.985"/>
				<rect x="1432.968" y="446.397" fill="#FFD982" width="89.959" height="13.985"/>
				<rect x="1432.968" y="491.697" fill="#FFD982" width="89.959" height="13.984"/>
			</g>
		</g>
	</g>
	<g>
		<path fill="none" stroke="#624B9F" stroke-width="6.3746" stroke-miterlimit="10" d="M249.573,524.828
			c0,9.605-7.787,17.395-17.394,17.395h-95.602c-9.607,0-17.394-7.789-17.394-17.395V245.416c0-9.609,7.787-17.395,17.394-17.395
			h95.602c9.607,0,17.394,7.785,17.394,17.395V524.828z"/>
		<path fill="#FFD982" d="M230.034,505.291c0,9.605-7.787,17.393-17.393,17.393h-56.527c-9.606,0-17.393-7.787-17.393-17.393
			V264.954c0-9.608,7.787-17.396,17.393-17.396h56.527c9.606,0,17.393,7.787,17.393,17.396V505.291z"/>
		<g>
			<rect x="138.721" y="263.48" fill="#F37763" width="91.313" height="14.195"/>
			<rect x="138.721" y="309.462" fill="#F37763" width="91.313" height="14.197"/>
			<rect x="138.721" y="355.445" fill="#F37763" width="91.313" height="14.195"/>
			<rect x="138.721" y="401.427" fill="#F37763" width="91.313" height="14.196"/>
			<rect x="138.721" y="447.411" fill="#F37763" width="91.313" height="14.195"/>
			<rect x="138.721" y="493.392" fill="#F37763" width="91.313" height="14.196"/>
		</g>
	</g>
	<path fill="#1B123A" d="M524.834,995.355c0,21.754-17.635,39.389-39.389,39.389h-83.023c-21.753,0-39.389-17.635-39.389-39.389"/>
	<path fill="#1B123A" d="M915.83,995.355c0,21.754-17.635,39.389-39.389,39.389h-83.025c-21.754,0-39.389-17.635-39.389-39.389"/>
	<path fill="#1B123A" d="M1145.108,995.355c0,21.754,17.635,39.389,39.388,39.389h83.024c21.754,0,39.389-17.635,39.389-39.389"/>
	<path fill="none" stroke="#F37763" stroke-width="13.4497" stroke-miterlimit="10" d="M816.911,1035.488v27.352
		c0,21.754-17.635,39.389-39.389,39.389H503.397c-21.753,0-39.389-17.635-39.389-39.389v-27.352"/>
	<path fill="none" stroke="#F37763" stroke-width="13.4497" stroke-miterlimit="10" d="M853.031,1035.488v27.352
		c0,21.754,17.634,39.389,39.388,39.389h274.125c21.754,0,39.388-17.635,39.388-39.389v-27.352"/>
	<path fill="none" stroke="#E55342" stroke-width="13.4497" stroke-miterlimit="10" stroke-dasharray="9.6069,38.4277" d="
		M816.911,1035.488v27.352c0,21.754-17.635,39.389-39.389,39.389H503.397c-21.753,0-39.389-17.635-39.389-39.389v-27.352"/>
	<path fill="none" stroke="#E55342" stroke-width="13.4497" stroke-miterlimit="10" stroke-dasharray="9.6069,38.4277" d="
		M853.031,1035.488v27.352c0,21.754,17.634,39.389,39.388,39.389h274.125c21.754,0,39.388-17.635,39.388-39.389v-27.352"/>
	<path fill="#1B123A" d="M77.258,957.286c0,21.038,17.055,38.094,38.094,38.094h80.15L77.258,877.135V957.286z"/>
	<path fill="#1B123A" d="M1592.683,957.286c0,21.038-17.055,38.094-38.094,38.094h-80.15l118.244-118.244V957.286z"/>
	<path fill="#624B9F" stroke="#624B9F" stroke-width="6.3746" stroke-miterlimit="10" d="M494.517,505.564
		c0,17.511-14.195,31.706-31.706,31.706H337.199c-17.51,0-31.706-14.195-31.706-31.706l0,0c0-17.511,14.196-31.706,31.706-31.706
		h125.613C480.322,473.858,494.517,488.053,494.517,505.564L494.517,505.564z"/>
	<g>
		<g>
			<circle fill="#1B123A" cx="509.357" cy="641.902" r="6.762"/>
			<circle fill="#1B123A" cx="509.357" cy="670.13" r="6.762"/>
			<circle fill="#1B123A" cx="509.357" cy="698.36" r="6.762"/>
			<circle fill="#1B123A" cx="509.357" cy="726.588" r="6.762"/>
			<circle fill="#1B123A" cx="509.357" cy="754.818" r="6.762"/>
		</g>
		<g>
			<circle fill="#1B123A" cx="537.347" cy="641.902" r="6.762"/>
			<circle fill="#1B123A" cx="537.347" cy="670.13" r="6.762"/>
			<circle fill="#1B123A" cx="537.347" cy="698.36" r="6.762"/>
			<circle fill="#1B123A" cx="537.347" cy="726.588" r="6.762"/>
			<circle fill="#1B123A" cx="537.347" cy="754.818" r="6.762"/>
		</g>
		<g>
			<circle fill="#1B123A" cx="565.337" cy="641.902" r="6.761"/>
			<circle fill="#1B123A" cx="565.337" cy="670.13" r="6.761"/>
			<circle fill="#1B123A" cx="565.337" cy="698.36" r="6.761"/>
			<circle fill="#1B123A" cx="565.337" cy="726.588" r="6.761"/>
			<circle fill="#1B123A" cx="565.337" cy="754.818" r="6.761"/>
		</g>
		<g>
			<circle fill="#1B123A" cx="593.327" cy="641.902" r="6.762"/>
			<circle fill="#1B123A" cx="593.327" cy="670.13" r="6.762"/>
			<circle fill="#1B123A" cx="593.327" cy="698.36" r="6.762"/>
			<circle fill="#1B123A" cx="593.327" cy="726.588" r="6.762"/>
			<circle fill="#1B123A" cx="593.327" cy="754.818" r="6.762"/>
		</g>
		<g>
			<circle fill="#1B123A" cx="621.316" cy="641.902" r="6.761"/>
			<circle fill="#1B123A" cx="621.316" cy="670.13" r="6.761"/>
			<circle fill="#1B123A" cx="621.316" cy="698.36" r="6.761"/>
			<circle fill="#1B123A" cx="621.316" cy="726.588" r="6.761"/>
			<circle fill="#1B123A" cx="621.316" cy="754.818" r="6.761"/>
		</g>
		<g>
			<circle fill="#1B123A" cx="649.306" cy="641.902" r="6.762"/>
			<circle fill="#1B123A" cx="649.306" cy="670.13" r="6.762"/>
			<circle fill="#1B123A" cx="649.306" cy="698.36" r="6.762"/>
			<circle fill="#1B123A" cx="649.306" cy="726.588" r="6.762"/>
			<circle fill="#1B123A" cx="649.306" cy="754.818" r="6.762"/>
		</g>
		<g>
			<circle fill="#1B123A" cx="677.295" cy="641.902" r="6.762"/>
			<circle fill="#1B123A" cx="677.295" cy="670.13" r="6.762"/>
			<circle fill="#1B123A" cx="677.295" cy="698.36" r="6.762"/>
			<circle fill="#1B123A" cx="677.295" cy="726.588" r="6.762"/>
			<circle fill="#1B123A" cx="677.295" cy="754.818" r="6.762"/>
		</g>
		<g>
			<circle fill="#1B123A" cx="705.285" cy="641.902" r="6.761"/>
			<circle fill="#1B123A" cx="705.285" cy="670.13" r="6.761"/>
			<circle fill="#1B123A" cx="705.285" cy="698.36" r="6.761"/>
			<circle fill="#1B123A" cx="705.285" cy="726.588" r="6.761"/>
			<circle fill="#1B123A" cx="705.285" cy="754.818" r="6.761"/>
		</g>
	</g>
	<g>
		<g>
			<circle fill="#1B123A" cx="1160.584" cy="641.902" r="6.762"/>
			<circle fill="#1B123A" cx="1160.584" cy="670.13" r="6.762"/>
			<circle fill="#1B123A" cx="1160.584" cy="698.36" r="6.762"/>
			<circle fill="#1B123A" cx="1160.584" cy="726.588" r="6.762"/>
			<circle fill="#1B123A" cx="1160.584" cy="754.818" r="6.762"/>
		</g>
		<g>
			<circle fill="#1B123A" cx="1132.595" cy="641.902" r="6.762"/>
			<circle fill="#1B123A" cx="1132.595" cy="670.13" r="6.762"/>
			<circle fill="#1B123A" cx="1132.595" cy="698.36" r="6.762"/>
			<circle fill="#1B123A" cx="1132.595" cy="726.588" r="6.762"/>
			<circle fill="#1B123A" cx="1132.595" cy="754.818" r="6.762"/>
		</g>
		<g>
			<circle fill="#1B123A" cx="1104.605" cy="641.902" r="6.762"/>
			<circle fill="#1B123A" cx="1104.605" cy="670.13" r="6.762"/>
			<circle fill="#1B123A" cx="1104.605" cy="698.36" r="6.762"/>
			<circle fill="#1B123A" cx="1104.605" cy="726.588" r="6.762"/>
			<circle fill="#1B123A" cx="1104.605" cy="754.818" r="6.762"/>
		</g>
		<g>
			<circle fill="#1B123A" cx="1076.615" cy="641.902" r="6.761"/>
			<circle fill="#1B123A" cx="1076.615" cy="670.13" r="6.761"/>
			<circle fill="#1B123A" cx="1076.615" cy="698.36" r="6.761"/>
			<circle fill="#1B123A" cx="1076.615" cy="726.588" r="6.761"/>
			<circle fill="#1B123A" cx="1076.615" cy="754.818" r="6.761"/>
		</g>
		<g>
			<circle fill="#1B123A" cx="1048.626" cy="641.902" r="6.761"/>
			<circle fill="#1B123A" cx="1048.626" cy="670.13" r="6.761"/>
			<circle fill="#1B123A" cx="1048.626" cy="698.36" r="6.761"/>
			<circle fill="#1B123A" cx="1048.626" cy="726.588" r="6.761"/>
			<circle fill="#1B123A" cx="1048.626" cy="754.818" r="6.761"/>
		</g>
		<g>
			<circle fill="#1B123A" cx="1020.636" cy="641.902" r="6.762"/>
			<circle fill="#1B123A" cx="1020.636" cy="670.13" r="6.762"/>
			<circle fill="#1B123A" cx="1020.636" cy="698.36" r="6.762"/>
			<circle fill="#1B123A" cx="1020.636" cy="726.588" r="6.762"/>
			<circle fill="#1B123A" cx="1020.636" cy="754.818" r="6.762"/>
		</g>
		<g>
			<circle fill="#1B123A" cx="992.646" cy="641.902" r="6.761"/>
			<circle fill="#1B123A" cx="992.646" cy="670.13" r="6.761"/>
			<circle fill="#1B123A" cx="992.646" cy="698.36" r="6.761"/>
			<circle fill="#1B123A" cx="992.646" cy="726.588" r="6.761"/>
			<circle fill="#1B123A" cx="992.646" cy="754.818" r="6.761"/>
		</g>
		<g>
			<circle fill="#1B123A" cx="964.656" cy="641.902" r="6.761"/>
			<circle fill="#1B123A" cx="964.656" cy="670.13" r="6.761"/>
			<circle fill="#1B123A" cx="964.656" cy="698.36" r="6.761"/>
			<circle fill="#1B123A" cx="964.656" cy="726.588" r="6.761"/>
			<circle fill="#1B123A" cx="964.656" cy="754.818" r="6.761"/>
		</g>
	</g>
	<path fill="#624B9F" stroke="#624B9F" stroke-width="6.3746" stroke-miterlimit="10" d="M782.375,505.564
		c0,17.511-14.196,31.706-31.707,31.706H625.056c-17.51,0-31.706-14.195-31.706-31.706l0,0c0-17.511,14.196-31.706,31.706-31.706
		h125.613C768.18,473.858,782.375,488.053,782.375,505.564L782.375,505.564z"/>
	<path fill="#624B9F" stroke="#624B9F" stroke-width="6.3746" stroke-miterlimit="10" d="M1070.234,505.564
		c0,17.511-14.195,31.706-31.707,31.706H912.915c-17.511,0-31.706-14.195-31.706-31.706l0,0c0-17.511,14.194-31.706,31.706-31.706
		h125.612C1056.039,473.858,1070.234,488.053,1070.234,505.564L1070.234,505.564z"/>
	<path fill="#624B9F" stroke="#624B9F" stroke-width="6.3746" stroke-miterlimit="10" d="M1358.091,505.564
		c0,17.511-14.195,31.706-31.706,31.706h-125.612c-17.512,0-31.707-14.195-31.707-31.706l0,0c0-17.511,14.195-31.706,31.707-31.706
		h125.612C1343.896,473.858,1358.091,488.053,1358.091,505.564L1358.091,505.564z"/>
	<g>
		<g>
			<path fill="#1B123A" d="M337.199,528.259c-12.45,0-22.58-10.129-22.58-22.578c0-12.451,10.129-22.581,22.58-22.581h125.613
				c12.45,0,22.579,10.129,22.579,22.581c0,12.449-10.129,22.578-22.579,22.578H337.199z"/>
			<path fill="#624B9F" d="M462.812,492.228c7.417,0,13.452,6.035,13.452,13.453s-6.035,13.451-13.452,13.451H337.199
				c-7.418,0-13.453-6.033-13.453-13.451s6.035-13.453,13.453-13.453H462.812 M462.812,473.974H337.199
				c-17.51,0-31.706,14.195-31.706,31.707c0,17.51,14.196,31.705,31.706,31.705h125.613c17.51,0,31.706-14.195,31.706-31.705
				C494.517,488.169,480.322,473.974,462.812,473.974L462.812,473.974z"/>
		</g>
		<g>
			<path fill="#1B123A" d="M625.056,528.259c-12.45,0-22.58-10.129-22.58-22.578c0-12.451,10.129-22.581,22.58-22.581h125.613
				c12.451,0,22.58,10.129,22.58,22.581c0,12.449-10.129,22.578-22.58,22.578H625.056z"/>
			<path fill="#624B9F" d="M750.669,492.228c7.418,0,13.453,6.035,13.453,13.453s-6.035,13.451-13.453,13.451H625.056
				c-7.418,0-13.453-6.033-13.453-13.451s6.035-13.453,13.453-13.453H750.669 M750.669,473.974H625.056
				c-17.51,0-31.706,14.195-31.706,31.707c0,17.51,14.196,31.705,31.706,31.705h125.613c17.511,0,31.707-14.195,31.707-31.705
				C782.375,488.169,768.18,473.974,750.669,473.974L750.669,473.974z"/>
		</g>
		<g>
			<path fill="#1B123A" d="M912.915,528.259c-12.45,0-22.579-10.129-22.579-22.578c0-12.451,10.129-22.581,22.579-22.581h125.612
				c12.451,0,22.58,10.129,22.58,22.581c0,12.449-10.129,22.578-22.58,22.578H912.915z"/>
			<path fill="#624B9F" d="M1038.527,492.228c7.418,0,13.454,6.035,13.454,13.453s-6.036,13.451-13.454,13.451H912.915
				c-7.417,0-13.452-6.033-13.452-13.451s6.035-13.453,13.452-13.453H1038.527 M1038.527,473.974H912.915
				c-17.511,0-31.706,14.195-31.706,31.707c0,17.51,14.194,31.705,31.706,31.705h125.612c17.512,0,31.707-14.195,31.707-31.705
				C1070.234,488.169,1056.039,473.974,1038.527,473.974L1038.527,473.974z"/>
		</g>
		<g>
			<path fill="#1B123A" d="M1200.773,528.259c-12.451,0-22.58-10.129-22.58-22.578c0-12.451,10.129-22.581,22.58-22.581h125.612
				c12.45,0,22.579,10.129,22.579,22.581c0,12.449-10.129,22.578-22.579,22.578H1200.773z"/>
			<path fill="#624B9F" d="M1326.385,492.228c7.418,0,13.453,6.035,13.453,13.453s-6.035,13.451-13.453,13.451h-125.612
				c-7.419,0-13.454-6.033-13.454-13.451s6.035-13.453,13.454-13.453H1326.385 M1326.385,473.974h-125.612
				c-17.512,0-31.707,14.195-31.707,31.707c0,17.51,14.195,31.705,31.707,31.705h125.612c17.511,0,31.706-14.195,31.706-31.705
				C1358.091,488.169,1343.896,473.974,1326.385,473.974L1326.385,473.974z"/>
		</g>
	</g>
	<g>
		<g>
			<circle fill="#624B9F" cx="328.687" cy="253.994" r="6.437"/>
			<circle fill="#624B9F" cx="470.445" cy="253.994" r="6.437"/>
		</g>
		<g>
			<circle fill="#624B9F" cx="328.687" cy="394.042" r="6.437"/>
			<circle fill="#624B9F" cx="470.445" cy="394.042" r="6.437"/>
		</g>
	</g>
	<g>
		<g>
			<circle fill="#624B9F" cx="618.283" cy="253.994" r="6.436"/>
			<circle fill="#624B9F" cx="760.042" cy="253.994" r="6.437"/>
		</g>
		<g>
			<circle fill="#624B9F" cx="618.283" cy="394.042" r="6.436"/>
			<circle fill="#624B9F" cx="760.042" cy="394.042" r="6.437"/>
		</g>
	</g>
	<g>
		<g>
			<circle fill="#624B9F" cx="907.88" cy="253.994" r="6.437"/>
			<circle fill="#624B9F" cx="1049.637" cy="253.994" r="6.437"/>
		</g>
		<g>
			<circle fill="#624B9F" cx="907.88" cy="394.042" r="6.437"/>
			<circle fill="#624B9F" cx="1049.637" cy="394.042" r="6.437"/>
		</g>
	</g>
	<g>
		<g>
			<circle fill="#624B9F" cx="1197.475" cy="253.994" r="6.437"/>
			<circle fill="#624B9F" cx="1339.233" cy="253.994" r="6.437"/>
		</g>
		<g>
			<circle fill="#624B9F" cx="1197.475" cy="394.042" r="6.437"/>
			<circle fill="#624B9F" cx="1339.233" cy="394.042" r="6.437"/>
		</g>
	</g>
	<path fill="#624B9F" d="M722.426,150.884c0,3.184-2.581,5.765-5.764,5.765h-55.937c-3.183,0-5.764-2.581-5.764-5.765v-17.292
		c0-3.184,2.581-5.765,5.764-5.765h55.937c3.183,0,5.764,2.581,5.764,5.765V150.884z"/>
	<path fill="#624B9F" d="M433.738,150.884c0,3.184-2.581,5.765-5.765,5.765h-55.937c-3.183,0-5.764-2.581-5.764-5.765v-17.292
		c0-3.184,2.581-5.765,5.764-5.765h55.937c3.184,0,5.765,2.581,5.765,5.765V150.884z"/>
	<path fill="#624B9F" d="M1015.186,150.884c0,3.184-2.581,5.765-5.765,5.765h-55.936c-3.184,0-5.764-2.581-5.764-5.765v-17.292
		c0-3.184,2.581-5.765,5.764-5.765h55.936c3.184,0,5.765,2.581,5.765,5.765V150.884z"/>
	<path fill="#624B9F" d="M1303.416,150.884c0,3.184-2.58,5.765-5.764,5.765h-55.938c-3.183,0-5.764-2.581-5.764-5.765v-17.292
		c0-3.184,2.581-5.765,5.764-5.765h55.938c3.184,0,5.764,2.581,5.764,5.765V150.884z"/>
	
		<line fill="none" stroke="#FFD982" stroke-width="21.1353" stroke-miterlimit="10" stroke-dasharray="9.6069" x1="346.772" y1="173.943" x2="458.668" y2="173.943"/>
	
		<line fill="none" stroke="#FFD982" stroke-width="21.1353" stroke-miterlimit="10" stroke-dasharray="9.6069" x1="634.776" y1="173.943" x2="746.672" y2="173.943"/>
	
		<line fill="none" stroke="#FFD982" stroke-width="21.1353" stroke-miterlimit="10" stroke-dasharray="9.6069" x1="926.014" y1="173.943" x2="1037.91" y2="173.943"/>
	
		<line fill="none" stroke="#FFD982" stroke-width="21.1353" stroke-miterlimit="10" stroke-dasharray="9.6069" x1="1215.322" y1="173.943" x2="1327.218" y2="173.943"/>
	<path fill="#1B123A" d="M33.242,819.267c0,9.179-7.441,16.62-16.621,16.62l0,0c-9.18,0-16.621-7.441-16.621-16.62V371.876
		c0-9.18,7.441-16.621,16.621-16.621l0,0c9.179,0,16.621,7.441,16.621,16.621V819.267z"/>
	<path fill="#1B123A" d="M1637.298,819.267c0,9.179,7.441,16.62,16.621,16.62l0,0c9.18,0,16.62-7.441,16.62-16.62V371.876
		c0-9.18-7.44-16.621-16.62-16.621l0,0c-9.18,0-16.621,7.441-16.621,16.621V819.267z"/>
	<circle fill="#F37763" cx="338.485" cy="505.564" r="22.963"/>
	<circle fill="#ABD9B5" cx="626.342" cy="505.564" r="22.963"/>
	<circle fill="#FFFFFF" cx="914.2" cy="505.564" r="22.963"/>
	<circle fill="#FFD982" cx="1202.058" cy="505.564" r="22.964"/>
	<g>
		<g>
			<circle fill="#ABD9B5" cx="518.072" cy="831.724" r="6.762"/>
			<circle fill="#ABD9B5" cx="544.109" cy="831.658" r="6.762"/>
			<circle fill="#1B123A" cx="570.146" cy="831.724" r="6.762"/>
			<circle fill="#1B123A" cx="596.184" cy="831.724" r="6.762"/>
			<circle fill="#1B123A" cx="622.221" cy="831.724" r="6.762"/>
			<circle fill="#1B123A" cx="648.258" cy="831.724" r="6.762"/>
			<circle fill="#1B123A" cx="674.295" cy="831.724" r="6.761"/>
			<circle fill="#1B123A" cx="700.332" cy="831.724" r="6.762"/>
			<circle fill="#1B123A" cx="726.369" cy="831.724" r="6.762"/>
			<circle fill="#1B123A" cx="752.406" cy="831.724" r="6.762"/>
			<circle fill="#1B123A" cx="778.443" cy="831.724" r="6.762"/>
			<circle fill="#1B123A" cx="804.48" cy="831.724" r="6.762"/>
			<circle fill="#1B123A" cx="830.518" cy="831.724" r="6.762"/>
			<circle fill="#1B123A" cx="856.555" cy="831.724" r="6.762"/>
			<circle fill="#1B123A" cx="882.592" cy="831.724" r="6.762"/>
			<circle fill="#1B123A" cx="908.629" cy="831.724" r="6.761"/>
			<circle fill="#1B123A" cx="934.666" cy="831.724" r="6.762"/>
			<circle fill="#1B123A" cx="960.703" cy="831.724" r="6.762"/>
			<circle fill="#1B123A" cx="986.74" cy="831.724" r="6.762"/>
			<circle fill="#1B123A" cx="1012.777" cy="831.724" r="6.762"/>
			<circle fill="#1B123A" cx="1038.814" cy="831.724" r="6.762"/>
			<circle fill="#1B123A" cx="1064.851" cy="831.724" r="6.762"/>
			<circle fill="#1B123A" cx="1090.888" cy="831.724" r="6.762"/>
			<circle fill="#ABD9B5" cx="1116.925" cy="831.724" r="6.762"/>
			<circle fill="#ABD9B5" cx="1142.962" cy="831.724" r="6.762"/>
		</g>
		<g>
			<path fill="#ABD9B5" d="M511.311,854.819c0-3.733,3.027-6.762,6.762-6.762s6.762,3.028,6.762,6.762
				c0,3.734-3.027,6.762-6.762,6.762"/>
			<circle fill="#ABD9B5" cx="544.109" cy="854.819" r="6.762"/>
			<circle fill="#ABD9B5" cx="570.146" cy="854.752" r="6.762"/>
			<circle fill="#1B123A" cx="596.184" cy="854.819" r="6.762"/>
			<circle fill="#1B123A" cx="622.221" cy="854.819" r="6.762"/>
			<circle fill="#1B123A" cx="648.258" cy="854.819" r="6.762"/>
			<circle fill="#1B123A" cx="674.295" cy="854.819" r="6.761"/>
			<circle fill="#1B123A" cx="700.332" cy="854.819" r="6.762"/>
			<circle fill="#1B123A" cx="726.369" cy="854.819" r="6.762"/>
			<circle fill="#1B123A" cx="752.406" cy="854.819" r="6.762"/>
			<circle fill="#1B123A" cx="778.443" cy="854.819" r="6.762"/>
			<circle fill="#1B123A" cx="804.48" cy="854.819" r="6.762"/>
			<circle fill="#1B123A" cx="830.518" cy="854.819" r="6.762"/>
			<circle fill="#1B123A" cx="856.555" cy="854.819" r="6.762"/>
			<circle fill="#1B123A" cx="882.592" cy="854.819" r="6.762"/>
			<circle fill="#1B123A" cx="908.629" cy="854.819" r="6.761"/>
			<circle fill="#1B123A" cx="934.666" cy="854.819" r="6.762"/>
			<circle fill="#1B123A" cx="960.703" cy="854.819" r="6.762"/>
			<circle fill="#1B123A" cx="986.74" cy="854.819" r="6.762"/>
			<circle fill="#1B123A" cx="1012.777" cy="854.819" r="6.762"/>
			<circle fill="#1B123A" cx="1038.814" cy="854.819" r="6.762"/>
			<circle fill="#1B123A" cx="1064.851" cy="854.819" r="6.762"/>
			<circle fill="#ABD9B5" cx="1090.888" cy="854.819" r="6.762"/>
			<circle fill="#ABD9B5" cx="1116.925" cy="854.819" r="6.762"/>
			<circle fill="#ABD9B5" cx="1142.962" cy="854.819" r="6.762"/>
		</g>
		<g>
			<circle fill="#1B123A" cx="518.072" cy="877.914" r="6.762"/>
			<circle fill="#ABD9B5" cx="544.109" cy="877.914" r="6.762"/>
			<circle fill="#ABD9B5" cx="570.146" cy="877.914" r="6.762"/>
			<circle fill="#ABD9B5" cx="596.184" cy="877.847" r="6.762"/>
			<circle fill="#ABD9B5" cx="622.221" cy="877.914" r="6.762"/>
			<circle fill="#ABD9B5" cx="648.258" cy="877.914" r="6.762"/>
			<circle fill="#ABD9B5" cx="674.295" cy="877.914" r="6.761"/>
			<circle fill="#ABD9B5" cx="700.332" cy="877.914" r="6.762"/>
			<circle fill="#ABD9B5" cx="726.369" cy="877.914" r="6.762"/>
			<circle fill="#ABD9B5" cx="752.406" cy="877.914" r="6.762"/>
			<circle fill="#ABD9B5" cx="778.443" cy="877.914" r="6.762"/>
			<circle fill="#ABD9B5" cx="804.48" cy="877.914" r="6.762"/>
			<circle fill="#ABD9B5" cx="830.518" cy="877.914" r="6.762"/>
			<circle fill="#ABD9B5" cx="856.555" cy="877.914" r="6.762"/>
			<circle fill="#ABD9B5" cx="882.592" cy="877.914" r="6.762"/>
			<circle fill="#ABD9B5" cx="908.629" cy="877.914" r="6.761"/>
			<circle fill="#ABD9B5" cx="934.666" cy="877.914" r="6.762"/>
			<circle fill="#ABD9B5" cx="960.703" cy="877.914" r="6.762"/>
			<circle fill="#ABD9B5" cx="986.74" cy="877.914" r="6.762"/>
			<circle fill="#ABD9B5" cx="1012.777" cy="877.914" r="6.762"/>
			<circle fill="#ABD9B5" cx="1038.814" cy="877.914" r="6.762"/>
			<circle fill="#ABD9B5" cx="1064.851" cy="877.914" r="6.762"/>
			<circle fill="#ABD9B5" cx="1090.888" cy="877.914" r="6.762"/>
			<circle fill="#ABD9B5" cx="1116.925" cy="877.914" r="6.762"/>
			<circle fill="#1B123A" cx="1142.962" cy="877.914" r="6.762"/>
		</g>
		<g>
			<circle fill="#1B123A" cx="518.072" cy="901.008" r="6.762"/>
			<circle fill="#1B123A" cx="544.109" cy="901.008" r="6.762"/>
			<circle fill="#1B123A" cx="570.146" cy="901.008" r="6.762"/>
			<circle fill="#ABD9B5" cx="596.184" cy="901.008" r="6.762"/>
			<path fill="#ABD9B5" d="M628.982,901.008c0,3.734-3.027,6.762-6.762,6.762s-6.762-3.027-6.762-6.762
				c0-3.733,3.027-6.762,6.762-6.762S628.982,897.099,628.982,901.008z"/>
			<circle fill="#ABD9B5" cx="648.258" cy="901.008" r="6.762"/>
			<circle fill="#ABD9B5" cx="674.295" cy="901.008" r="6.761"/>
			<circle fill="#ABD9B5" cx="700.332" cy="901.008" r="6.762"/>
			<circle fill="#ABD9B5" cx="726.369" cy="901.008" r="6.762"/>
			<circle fill="#ABD9B5" cx="752.406" cy="901.008" r="6.762"/>
			<circle fill="#ABD9B5" cx="778.443" cy="901.008" r="6.762"/>
			<circle fill="#ABD9B5" cx="804.48" cy="901.008" r="6.762"/>
			<circle fill="#ABD9B5" cx="830.518" cy="901.008" r="6.762"/>
			<circle fill="#ABD9B5" cx="856.555" cy="901.008" r="6.762"/>
			<circle fill="#ABD9B5" cx="882.592" cy="901.008" r="6.762"/>
			<circle fill="#ABD9B5" cx="908.629" cy="901.008" r="6.761"/>
			<circle fill="#ABD9B5" cx="934.666" cy="901.008" r="6.762"/>
			<circle fill="#ABD9B5" cx="960.703" cy="901.008" r="6.762"/>
			<circle fill="#ABD9B5" cx="986.74" cy="901.008" r="6.762"/>
			<circle fill="#ABD9B5" cx="1012.777" cy="901.008" r="6.762"/>
			<circle fill="#ABD9B5" cx="1038.814" cy="901.008" r="6.762"/>
			<circle fill="#ABD9B5" cx="1064.851" cy="901.008" r="6.762"/>
			<circle fill="#1B123A" cx="1090.888" cy="901.008" r="6.762"/>
			<circle fill="#1B123A" cx="1116.925" cy="901.008" r="6.762"/>
			<circle fill="#1B123A" cx="1142.962" cy="901.008" r="6.762"/>
		</g>
		<g>
			<circle fill="#1B123A" cx="518.072" cy="924.103" r="6.762"/>
			<circle fill="#1B123A" cx="544.109" cy="924.103" r="6.762"/>
			<circle fill="#1B123A" cx="570.146" cy="924.103" r="6.762"/>
			<circle fill="#1B123A" cx="596.184" cy="924.103" r="6.762"/>
			<circle fill="#1B123A" cx="622.221" cy="924.103" r="6.762"/>
			<path fill="#1B123A" d="M655.02,924.103c0,3.558-3.027,6.762-6.762,6.762s-6.762-3.027-6.762-6.762
				c0-3.733,3.027-6.762,6.762-6.762S655.02,920.37,655.02,924.103z"/>
			<circle fill="#1B123A" cx="674.295" cy="924.103" r="6.761"/>
			<circle fill="#1B123A" cx="700.332" cy="924.103" r="6.762"/>
			<circle fill="#1B123A" cx="726.369" cy="924.103" r="6.762"/>
			<circle fill="#1B123A" cx="752.406" cy="924.103" r="6.762"/>
			<circle fill="#1B123A" cx="778.443" cy="924.103" r="6.762"/>
			<circle fill="#1B123A" cx="804.48" cy="924.103" r="6.762"/>
			<circle fill="#1B123A" cx="830.518" cy="924.103" r="6.762"/>
			<circle fill="#1B123A" cx="856.555" cy="924.103" r="6.762"/>
			<circle fill="#1B123A" cx="882.592" cy="924.103" r="6.762"/>
			<circle fill="#1B123A" cx="908.629" cy="924.103" r="6.761"/>
			<circle fill="#1B123A" cx="934.666" cy="924.103" r="6.762"/>
			<circle fill="#1B123A" cx="960.703" cy="924.103" r="6.762"/>
			<circle fill="#1B123A" cx="986.74" cy="924.103" r="6.762"/>
			<circle fill="#1B123A" cx="1012.777" cy="924.103" r="6.762"/>
			<circle fill="#1B123A" cx="1038.814" cy="924.103" r="6.762"/>
			<circle fill="#1B123A" cx="1064.851" cy="924.103" r="6.762"/>
			<circle fill="#1B123A" cx="1090.888" cy="924.103" r="6.762"/>
			<circle fill="#1B123A" cx="1116.925" cy="924.103" r="6.762"/>
			<circle fill="#1B123A" cx="1142.962" cy="924.103" r="6.762"/>
		</g>
	</g>
</g>
</svg>
