<?xml version="1.0" encoding="utf-8"?>
<!-- Generator: Adobe Illustrator 15.1.0, SVG Export Plug-In . SVG Version: 6.00 Build 0)  -->
<!DOCTYPE svg PUBLIC "-//W3C//DTD SVG 1.1//EN" "http://www.w3.org/Graphics/SVG/1.1/DTD/svg11.dtd">
<svg version="1.1" id="Layer_1" xmlns="http://www.w3.org/2000/svg" xmlns:xlink="http://www.w3.org/1999/xlink" x="0px" y="0px"
	 width="773.211px" height="16px" viewBox="0 0 773.211 16" enable-background="new 0 0 773.211 16" xml:space="preserve">
<g>
	<path fill="#F1EEDD" d="M573.445,16c-6.673,0-9.988-3.729-13.194-7.335C557.203,5.237,554.325,2,548.551,2
		s-8.652,3.237-11.701,6.665C533.644,12.271,530.327,16,523.654,16c-6.672,0-9.986-3.729-13.192-7.335
		C507.415,5.237,504.536,2,498.762,2c-5.772,0-8.65,3.237-11.697,6.665C483.857,12.271,480.543,16,473.871,16
		s-9.986-3.729-13.192-7.335C457.632,5.237,454.754,2,448.98,2c-5.774,0-8.652,3.237-11.699,6.665
		C434.075,12.271,430.76,16,424.088,16c-6.671,0-9.984-3.729-13.189-7.335C407.851,5.237,404.974,2,399.2,2
		c-5.772,0-8.649,3.237-11.696,6.664c-3.205,3.607-6.52,7.336-13.191,7.336c-6.67,0-9.983-3.729-13.189-7.336
		C358.077,5.237,355.2,2,349.428,2s-8.65,3.237-11.696,6.664C334.525,12.271,331.21,16,324.538,16
		c-6.671,0-9.986-3.729-13.192-7.335C308.3,5.237,305.422,2,299.649,2s-8.65,3.237-11.697,6.664
		C284.747,12.271,281.432,16,274.76,16c-6.671,0-9.986-3.729-13.191-7.335C258.522,5.237,255.645,2,249.872,2
		s-8.65,3.237-11.697,6.664C234.969,12.271,231.654,16,224.983,16s-9.986-3.729-13.191-7.335C208.746,5.237,205.868,2,200.095,2
		c-5.773,0-8.651,3.237-11.697,6.665C185.192,12.271,181.877,16,175.206,16s-9.986-3.729-13.191-7.335
		C158.968,5.237,156.09,2,150.317,2c-5.772,0-8.65,3.237-11.696,6.665c-3.206,3.606-6.52,7.335-13.19,7.335
		s-9.985-3.729-13.19-7.336C109.195,5.237,106.318,2,100.546,2s-8.649,3.237-11.695,6.664C85.646,12.271,82.331,16,75.661,16
		s-9.985-3.729-13.19-7.335C59.424,5.237,56.547,2,50.774,2s-8.65,3.237-11.697,6.665C35.872,12.271,32.557,16,25.886,16
		c-6.67,0-9.985-3.729-13.19-7.336C9.649,5.237,6.772,2,1,2C0.448,2,0,1.552,0,1s0.448-1,1-1c6.67,0,9.985,3.729,13.19,7.336
		C17.236,10.764,20.113,14,25.886,14c5.773,0,8.65-3.236,11.697-6.665C40.789,3.729,44.103,0,50.774,0s9.985,3.729,13.191,7.336
		C67.011,10.764,69.888,14,75.661,14s8.649-3.236,11.695-6.665C90.562,3.729,93.875,0,100.546,0s9.984,3.729,13.19,7.335
		c3.046,3.427,5.923,6.665,11.695,6.665s8.649-3.236,11.695-6.664C140.332,3.729,143.646,0,150.317,0s9.986,3.729,13.192,7.336
		c3.046,3.428,5.923,6.664,11.696,6.664s8.651-3.236,11.697-6.665C190.109,3.729,193.424,0,200.095,0
		c6.671,0,9.986,3.729,13.191,7.335C216.333,10.764,219.21,14,224.983,14s8.651-3.236,11.697-6.665
		C239.886,3.729,243.201,0,249.872,0s9.986,3.729,13.192,7.336C266.11,10.764,268.987,14,274.76,14
		c5.773,0,8.651-3.236,11.697-6.665C289.664,3.729,292.978,0,299.649,0c6.671,0,9.986,3.729,13.192,7.335
		c3.046,3.427,5.924,6.665,11.697,6.665c5.772,0,8.651-3.236,11.698-6.665C339.442,3.729,342.757,0,349.428,0
		c6.67,0,9.985,3.729,13.19,7.336c3.046,3.428,5.923,6.664,11.695,6.664s8.649-3.236,11.695-6.665C389.215,3.729,392.529,0,399.2,0
		c6.672,0,9.985,3.729,13.19,7.336c3.048,3.428,5.925,6.664,11.696,6.664c5.774,0,8.652-3.236,11.699-6.665
		C438.993,3.729,442.309,0,448.98,0c6.671,0,9.985,3.729,13.191,7.335C465.22,10.764,468.098,14,473.871,14
		c5.772,0,8.651-3.236,11.698-6.665C488.775,3.729,492.09,0,498.762,0c6.673,0,9.988,3.729,13.194,7.336
		c3.047,3.428,5.925,6.664,11.698,6.664c5.774,0,8.652-3.236,11.701-6.665C538.563,3.729,541.878,0,548.551,0
		s9.988,3.729,13.194,7.335c3.048,3.427,5.926,6.665,11.7,6.665c0.553,0,1,0.447,1,1S573.998,16,573.445,16z"/>
</g>
<g>
	<path fill="#F1EEDD" d="M772.211,16c-6.673,0-9.988-3.729-13.194-7.335C755.969,5.237,753.091,2,747.316,2
		c-5.775,0-8.653,3.237-11.701,6.665C732.409,12.271,729.093,16,722.42,16c-6.672,0-9.987-3.729-13.193-7.335
		C706.18,5.237,703.302,2,697.527,2c-5.773,0-8.651,3.237-11.698,6.665C682.623,12.271,679.309,16,672.637,16
		s-9.986-3.729-13.192-7.335C656.396,5.237,653.519,2,647.744,2c-5.773,0-8.651,3.237-11.698,6.665
		C632.84,12.271,629.525,16,622.854,16c-6.671,0-9.986-3.729-13.191-7.336C606.614,5.237,603.737,2,597.965,2
		s-8.649,3.237-11.697,6.665c-3.205,3.606-6.52,7.335-13.189,7.335c-0.553,0-1-0.447-1-1s0.447-1,1-1
		c5.771,0,8.648-3.236,11.696-6.664C587.979,3.729,591.294,0,597.965,0s9.985,3.729,13.19,7.335
		C614.202,10.764,617.08,14,622.854,14c5.774,0,8.651-3.236,11.698-6.665C637.758,3.729,641.072,0,647.744,0
		s9.987,3.729,13.193,7.335c3.047,3.427,5.925,6.665,11.698,6.665s8.651-3.236,11.698-6.665C687.541,3.729,690.855,0,697.527,0
		s9.986,3.729,13.192,7.335c3.048,3.429,5.927,6.665,11.7,6.665c5.775,0,8.653-3.236,11.701-6.665
		C737.327,3.729,740.644,0,747.316,0c6.672,0,9.987,3.729,13.193,7.335c3.048,3.427,5.926,6.665,11.7,6.665c0.553,0,1,0.447,1,1
		S772.764,16,772.211,16z"/>
</g>
</svg>
