<?xml version="1.0" encoding="UTF-8" standalone="no"?>
<svg width="553px" height="383px" viewBox="0 0 553 383" version="1.1" xmlns="http://www.w3.org/2000/svg" xmlns:xlink="http://www.w3.org/1999/xlink" xmlns:sketch="http://www.bohemiancoding.com/sketch/ns">
    <title>Portrait Retina</title>
    <description>Created with Sketch (http://www.bohemiancoding.com/sketch)</description>
    <defs>
        <rect id="path-1" x="0" y="0" width="1536" height="853"></rect>
        <linearGradient x1="50%" y1="35.7769283%" x2="50%" y2="139.682782%" id="linearGradient-3">
            <stop stop-color="#FFD76C" offset="0%"></stop>
            <stop stop-color="#DCD386" offset="19.69%"></stop>
            <stop stop-color="#BCD09D" offset="41.45%"></stop>
            <stop stop-color="#A5CDAE" offset="62.54%"></stop>
            <stop stop-color="#98CCB8" offset="82.46%"></stop>
            <stop stop-color="#93CBBB" offset="100%"></stop>
        </linearGradient>
    </defs>
    <g id="Page-1" stroke="none" stroke-width="1" fill="none" fill-rule="evenodd" sketch:type="MSPage">
        <g id="Portrait-Retina" sketch:type="MSArtboardGroup" transform="translate(-493.000000, -892.000000)">
            <g id="Play-button" sketch:type="MSLayerGroup" transform="translate(0.000000, 705.000000)">
                <g id="gnah-logo-box">
                    <mask id="mask-2" sketch:name="SVGID_157_" fill="white">
                        <use xlink:href="#path-1"></use>
                    </mask>
                    <g id="SVGID_157_"></g>
                    <g id="Group" mask="url(#mask-2)" transform="translate(493.000000, 187.000000)" sketch:type="MSShapeGroup">
                        <path d="M541.966565,70.4914124 L542.499293,69.9592234 L485.758937,14.0831672 L484.726175,13.066137 L484.368459,12.7214452 L484.360766,12.7233391 C477.819941,6.69880819 469.032811,3 459.397548,3 L46.5793845,3 C26.4164893,3 10,19.1626365 10,39.0259751 L10,288.75708 C10,300.637583 15.8773186,311.196137 24.9144651,317.762327 L72.8638455,365.468051 C79.3815918,375.414871 90.7265859,382 103.610145,382 L516.430232,382 C536.593127,382 553,365.839257 553,345.979707 L553,96.2486021 C553,86.1578442 548.776639,77.0386628 541.966565,70.4914124 L541.966565,70.4914124 Z" id="Shape" fill="url(#linearGradient-3)"></path>
                        <path d="M538.814434,68.2024197 L538.814434,68.2024197 L481.888652,11.1888236 L480.840608,10.1628817 L480.486122,9.81269862 L480.472636,9.82027014 C473.843368,3.73086979 464.9504,0 455.184704,0 L37.0456838,0 C16.6184445,0 0,16.3279974 0,36.4001147 L0,288.768564 C0,300.782684 5.94919505,311.449073 15.1099536,318.079837 L63.668717,366.302891 C70.2710134,376.344628 81.7648275,383 94.8095165,383 L512.95239,383 C533.377702,383 550,366.677681 550,346.605564 L550,94.2390072 C550,84.0439465 545.715347,74.8142554 538.814434,68.2024197 L538.814434,68.2024197 Z M515,57 C514.325765,56.9552656 513.645683,56.9384902 512.967551,56.9384902 L492.013641,56.9384902 L492.013641,35.8369059 C492.013641,35.5535881 492.011692,35.2721342 492,35 L515,57 L515,57 Z M37.9281855,11 L456.159146,11 C463.344841,11 469.873437,13.7936909 474.696659,18.3305994 L475.540674,19.1520505 C480.153856,23.8858044 483,30.3022082 483,37.3602524 L483,58.7880126 L95.7066462,58.7880126 C88.0584768,58.7880126 80.9440799,61.0820189 75.0301893,65 L24,14.844164 C28.0639932,12.4006309 32.8313329,11 37.9281855,11 L37.9281855,11 Z M481,287.655855 C481,297.303273 475.681243,305.759418 467.773421,310.346764 L467.773421,275.115345 C467.773421,260.199855 455.41757,248.079127 440.241487,248.079127 L165.519324,248.079127 C150.331683,248.079127 137.983537,260.199855 137.983537,275.115345 L137.983537,314 L67,314 L67,93.3290182 C67,78.8049455 79.0322181,67 93.82495,67 L481,67 L481,287.655855 L481,287.655855 Z M437,262 L437,270.901037 C437,279.234684 430.057624,286 421.495167,286 C418.479264,286 415.666355,285.161169 413.288432,283.705938 C408.911506,281.038643 406,276.290292 406,270.901037 L406,270.576814 L406,262 L437,262 L437,262 Z M376,262 L376,270.900338 C376,278.626404 370.036975,284.995366 362.351727,285.892563 C361.746727,285.956648 361.128196,286 360.507732,286 C351.941077,286 345,279.235216 345,270.902223 L345,270.578026 L345,262.001885 L376,262.001885 L376,262 Z M317,262 L317,270.901037 C317,274.054665 316.000374,276.993402 314.295017,279.417531 C311.499158,283.39114 306.810391,286 301.499033,286 C296.183808,286 291.496975,283.39114 288.704983,279.417531 C287.001559,276.993402 286,274.054665 286,270.901037 L286,262 L317,262 L317,262 Z M257,262.001885 L257,270.578026 L257,270.902223 C257,279.235216 250.061923,286 241.503866,286 C240.877526,286 240.258917,285.958533 239.653841,285.892563 C231.961836,284.995366 226,278.628289 226,270.900338 L226,262 L257,262 L257,262.001885 Z M198,270.576814 L198,270.901037 C198,276.292177 195.088312,281.034873 190.711114,283.705938 C188.329176,285.159284 185.516091,286 182.501933,286 C173.942809,286 167,279.234684 167,270.901037 L167,262 L167.040601,262 L198,262 L198,270.576814 L198,270.576814 Z M11.0019505,36.7262098 C11.0019505,30.8340779 13.0050643,25.3916981 16.4008007,21 L68,71.0245406 C62.4724199,77.3626453 59.139098,85.539443 59.139098,94.4683473 L59.139098,315 L38.1580892,315 C32.4120586,315 27.0795237,313.248234 22.6812551,310.28705 L15.6732822,303.419825 C12.7222488,299.21143 11,294.141324 11,288.672488 L11,36.7262098 L11.0019505,36.7262098 Z M37.42088,325.009468 L58,325.009468 L58,346 L37,325 C37.1434818,325 37.2831375,325.009468 37.42088,325.009468 L37.42088,325.009468 Z M511.399985,373 L93.7910662,373 C87.1317815,373 81.0343318,370.566439 76.3414699,366.548769 L76.3414699,366.548769 L70.7519807,359.938744 C68.3776503,355.957423 67,351.31797 67,346.360929 L67,324.705684 L137.898966,324.705684 L137.898966,327.357347 C137.898966,342.437004 150.2324,354.704292 165.401947,354.704292 L439.796801,354.704292 C454.954803,354.704292 467.295933,342.435091 467.295933,327.357347 L467.295933,322.132461 C470.031993,321.051517 472.612201,319.658724 474.99038,318 L526,368.683874 C521.797782,371.412063 516.78552,373 511.399985,373 L511.399985,373 Z M539,345.886072 C539,351.503604 537.219315,356.713932 534.210376,361 L484,310.934639 C489.095264,304.675048 492.151664,296.701409 492.151664,288.013741 L492.151664,67 L512.564994,67 C527.142689,67 539,78.8240921 539,93.3717218 L539,345.886072 L539,345.886072 Z" id="Shape" fill="#2F3556"></path>
                        <path d="M194.003801,186 C216.642642,186 235,167.863374 235,145.500939 C235,123.134749 216.642642,105 194.003801,105 C171.357358,105 153,123.136626 153,145.500939 C153,167.865251 171.357358,186 194.003801,186 L194.003801,186 Z M194.501971,135 C200.84904,135 206,140.150077 206,146.505911 C206,152.855833 200.84904,158 194.501971,158 C188.145048,158 183,152.855833 183,146.505911 C183,140.150077 188.145048,135 194.501971,135 L194.501971,135 Z" id="Shape" fill="#2F3556"></path>
                        <path d="M426.9981,186 C449.643493,186 468,167.863374 468,145.500939 C468,123.134749 449.643493,105 426.9981,105 C404.364108,105 386,123.136626 386,145.500939 C386,167.865251 404.364108,186 426.9981,186 L426.9981,186 Z M427.49803,135 C433.851011,135 439,140.150077 439,146.505911 C439,152.855833 433.851011,158 427.49803,158 C421.141107,158 416.000001,152.855833 416.000001,146.505911 C415.99803,140.150077 421.141107,135 427.49803,135 L427.49803,135 Z" id="Shape" fill="#2F3556"></path>
                        <path d="M303.30197,191.004365 L292.216914,202.087033 C289.264262,205.047326 289.264262,209.836947 292.216914,212.7856 C295.167627,215.738133 299.957442,215.738133 302.915914,212.7856 L314.00485,201.695172 L325.091846,212.7856 C328.046438,215.738133 332.832373,215.738133 335.786966,212.7856 C338.737678,209.836947 338.737678,205.047326 335.786966,202.087033 L324.69803,191.004365 L335.786966,179.913937 C338.737678,176.963344 338.737678,172.173722 335.786966,169.21731 C332.832373,166.260897 328.046438,166.260897 325.091846,169.21731 L314.00485,180.307737 L302.915914,169.21731 C299.957442,166.260897 295.167627,166.260897 292.213034,169.21731 C289.262322,172.173722 289.262322,176.961404 292.213034,179.906177 L303.30197,191.004365 L303.30197,191.004365 Z" id="Shape" fill="#2F3556"></path>
                    </g>
                </g>
                <circle id="Oval-1" stroke="#FFFFFF" stroke-width="12.4298246" sketch:type="MSShapeGroup" cx="768.5" cy="393.5" r="133.5"></circle>
                <circle id="Oval-2" opacity="0.738849432" fill="#000000" sketch:type="MSShapeGroup" cx="769.5" cy="394.5" r="130.5"></circle>
                <path d="M747.581649,445.583405 C743.39442,448.184256 740,446.292038 740,441.37523 L740,345.867707 C740,340.942745 743.477356,338.89123 747.783608,341.294849 L827.453134,385.763961 C832.233739,388.43235 832.341591,392.935706 827.685373,395.827864 L747.581649,445.583405 Z" id="Triangle-1" stroke="#F6F5F7" stroke-width="6.21491228" fill="#FFFFFF" sketch:type="MSShapeGroup"></path>
            </g>
        </g>
    </g>
</svg>