<?xml version="1.0" encoding="utf-8"?>
<!-- Generator: Adobe Illustrator 15.1.0, SVG Export Plug-In . SVG Version: 6.00 Build 0)  -->
<!DOCTYPE svg PUBLIC "-//W3C//DTD SVG 1.1//EN" "http://www.w3.org/Graphics/SVG/1.1/DTD/svg11.dtd">
<svg version="1.1" id="Layer_1" xmlns="http://www.w3.org/2000/svg" xmlns:xlink="http://www.w3.org/1999/xlink" x="0px" y="0px"
	 width="2769.79px" height="1313.623px" viewBox="0 351.482 2769.79 1313.623" enable-background="new 0 351.482 2769.79 1313.623"
	 xml:space="preserve">
<g>
	<g>
		<linearGradient id="SVGID_1_" gradientUnits="userSpaceOnUse" x1="1383.8867" y1="2321.439" x2="1383.8866" y2="-330.7319">
			<stop  offset="0.0108" style="stop-color:#2A3013"/>
			<stop  offset="0.1487" style="stop-color:#333E1A"/>
			<stop  offset="0.392" style="stop-color:#48612A"/>
			<stop  offset="0.4695" style="stop-color:#5D6B31"/>
			<stop  offset="0.6274" style="stop-color:#837E3E"/>
			<stop  offset="0.7736" style="stop-color:#9F8B47"/>
			<stop  offset="0.9024" style="stop-color:#AF934C"/>
			<stop  offset="1" style="stop-color:#B5964E"/>
		</linearGradient>
		<rect x="-1.219" y="350.482" fill="url(#SVGID_1_)" width="2770.212" height="1314.623"/>
		<polyline opacity="0.2" fill="#303718" points="95.369,733.477 95.369,351.482 -0.797,351.482 -0.797,1664.062 95.369,1664.062 
			95.369,783.766 		"/>
		<polyline opacity="0.2" fill="#303718" points="2374.463,733.477 2374.463,351.482 2278.297,351.482 2278.297,1664.062 
			2374.463,1664.062 2374.463,783.766 		"/>
		<path opacity="0.2" fill="#303718" d="M1038.089,783.766"/>
		<g>
			<path fill="#273313" d="M739.968,1664.238v-376.707c0-4.08,3.302-7.381,7.383-7.381l0,0c4.076,0,7.381,3.301,7.381,7.381v376.707
				"/>
			<path fill="#273313" d="M752.688,1341.517c-1.222,1.219-3.199,1.219-4.421,0l0,0c-1.224-1.221-1.224-3.199,0-4.42l31.534-31.539
				c1.219-1.215,3.201-1.215,4.419,0l0,0c1.223,1.225,1.223,3.203,0,4.428L752.688,1341.517z"/>
			<path fill="#273313" d="M752.688,1366.376c-1.222,1.217-3.199,1.217-4.421,0l0,0c-1.224-1.221-1.224-3.199,0-4.424l31.534-31.535
				c1.219-1.219,3.201-1.219,4.419,0l0,0c1.223,1.221,1.223,3.199,0,4.424L752.688,1366.376z"/>
			<path fill="#273313" d="M752.688,1391.232c-1.222,1.221-3.199,1.221-4.421,0l0,0c-1.224-1.225-1.224-3.199,0-4.424l31.534-31.533
				c1.219-1.221,3.201-1.221,4.419,0l0,0c1.223,1.221,1.223,3.199,0,4.42L752.688,1391.232z"/>
			<path fill="#273313" d="M752.688,1416.089c-1.222,1.215-3.199,1.215-4.421,0l0,0c-1.224-1.225-1.224-3.203,0-4.424l31.534-31.535
				c1.219-1.219,3.201-1.219,4.419,0l0,0c1.223,1.225,1.223,3.203,0,4.424L752.688,1416.089z"/>
			<path fill="#273313" d="M752.688,1440.945c-1.222,1.217-3.199,1.217-4.421,0l0,0c-1.224-1.221-1.224-3.199,0-4.424l31.534-31.533
				c1.219-1.221,3.201-1.221,4.419,0l0,0c1.223,1.219,1.223,3.199,0,4.422L752.688,1440.945z"/>
			<path fill="#273313" d="M742.012,1341.517c1.222,1.219,3.2,1.219,4.423,0l0,0c1.222-1.221,1.222-3.199,0-4.42l-31.536-31.539
				c-1.221-1.215-3.2-1.215-4.423,0l0,0c-1.218,1.225-1.218,3.203,0,4.428L742.012,1341.517z"/>
			<path fill="#273313" d="M742.012,1366.376c1.222,1.217,3.2,1.217,4.423,0l0,0c1.222-1.221,1.222-3.199,0-4.424l-31.536-31.535
				c-1.221-1.219-3.2-1.219-4.423,0l0,0c-1.218,1.221-1.218,3.199,0,4.424L742.012,1366.376z"/>
			<path fill="#273313" d="M742.012,1391.232c1.222,1.221,3.2,1.221,4.423,0l0,0c1.222-1.225,1.222-3.199,0-4.424l-31.536-31.533
				c-1.221-1.221-3.2-1.221-4.423,0l0,0c-1.218,1.221-1.218,3.199,0,4.42L742.012,1391.232z"/>
			<path fill="#273313" d="M742.012,1416.089c1.222,1.215,3.2,1.215,4.423,0l0,0c1.222-1.225,1.222-3.203,0-4.424l-31.536-31.535
				c-1.221-1.219-3.2-1.219-4.423,0l0,0c-1.218,1.225-1.218,3.203,0,4.424L742.012,1416.089z"/>
			<path fill="#273313" d="M742.012,1440.945c1.222,1.217,3.2,1.217,4.423,0l0,0c1.222-1.221,1.222-3.199,0-4.424l-31.536-31.533
				c-1.221-1.221-3.2-1.221-4.423,0l0,0c-1.218,1.219-1.218,3.199,0,4.422L742.012,1440.945z"/>
		</g>
		<g>
			<path fill="#273313" d="M493.198,1664.238v-293.494c0-2.158,1.746-3.906,3.906-3.906l0,0c2.156,0,3.904,1.748,3.904,3.906
				v293.494"/>
			<path fill="#273313" d="M499.927,1399.306c-0.646,0.646-1.691,0.646-2.338,0l0,0c-0.648-0.645-0.648-1.689,0-2.34l16.684-16.686
				c0.646-0.643,1.695-0.643,2.338,0l0,0c0.646,0.646,0.646,1.697,0,2.344L499.927,1399.306z"/>
			<path fill="#273313" d="M499.927,1412.458c-0.646,0.645-1.691,0.645-2.338,0l0,0c-0.648-0.646-0.648-1.691,0-2.338l16.684-16.686
				c0.646-0.643,1.695-0.643,2.338,0l0,0c0.646,0.646,0.646,1.695,0,2.34L499.927,1412.458z"/>
			<path fill="#273313" d="M499.927,1425.613c-0.646,0.643-1.691,0.643-2.338,0l0,0c-0.648-0.65-0.648-1.695,0-2.34l16.684-16.688
				c0.646-0.645,1.695-0.645,2.338,0l0,0c0.646,0.646,0.646,1.695,0,2.342L499.927,1425.613z"/>
			<path fill="#273313" d="M499.927,1438.763c-0.646,0.643-1.691,0.643-2.338,0l0,0c-0.648-0.648-0.648-1.695,0-2.344l16.684-16.684
				c0.646-0.645,1.695-0.645,2.338,0l0,0c0.646,0.65,0.646,1.695,0,2.342L499.927,1438.763z"/>
			<path fill="#273313" d="M499.927,1451.914c-0.646,0.643-1.691,0.643-2.338,0l0,0c-0.648-0.648-0.648-1.693,0-2.34l16.684-16.686
				c0.646-0.646,1.695-0.646,2.338,0l0,0c0.646,0.645,0.646,1.693,0,2.34L499.927,1451.914z"/>
			<path fill="#273313" d="M494.278,1399.306c0.646,0.646,1.694,0.646,2.342,0l0,0c0.646-0.645,0.646-1.689,0-2.34l-16.686-16.686
				c-0.646-0.643-1.693-0.643-2.34,0l0,0c-0.645,0.646-0.645,1.697,0,2.344L494.278,1399.306z"/>
			<path fill="#273313" d="M494.278,1412.458c0.646,0.645,1.694,0.645,2.342,0l0,0c0.646-0.646,0.646-1.691,0-2.338l-16.686-16.686
				c-0.646-0.643-1.693-0.643-2.34,0l0,0c-0.645,0.646-0.645,1.695,0,2.34L494.278,1412.458z"/>
			<path fill="#273313" d="M494.278,1425.613c0.646,0.643,1.694,0.643,2.342,0l0,0c0.646-0.65,0.646-1.695,0-2.34l-16.686-16.688
				c-0.646-0.645-1.693-0.645-2.34,0l0,0c-0.645,0.646-0.645,1.695,0,2.342L494.278,1425.613z"/>
			<path fill="#273313" d="M494.278,1438.763c0.646,0.643,1.694,0.643,2.342,0l0,0c0.646-0.648,0.646-1.695,0-2.344l-16.686-16.684
				c-0.646-0.645-1.693-0.645-2.34,0l0,0c-0.645,0.65-0.645,1.695,0,2.342L494.278,1438.763z"/>
			<path fill="#273313" d="M494.278,1451.914c0.646,0.643,1.694,0.643,2.342,0l0,0c0.646-0.648,0.646-1.693,0-2.34l-16.686-16.686
				c-0.646-0.646-1.693-0.646-2.34,0l0,0c-0.645,0.645-0.645,1.693,0,2.34L494.278,1451.914z"/>
		</g>
		<g>
			<path fill="#273313" d="M2104.049,1664.238v-293.494c0-2.158,1.746-3.906,3.906-3.906l0,0c2.158,0,3.904,1.748,3.904,3.906
				v293.494"/>
			<path fill="#273313" d="M2110.78,1399.306c-0.646,0.646-1.693,0.646-2.34,0l0,0c-0.648-0.645-0.648-1.689,0-2.34l16.684-16.686
				c0.646-0.643,1.695-0.643,2.34,0l0,0c0.646,0.646,0.646,1.697,0,2.344L2110.78,1399.306z"/>
			<path fill="#273313" d="M2110.78,1412.458c-0.646,0.645-1.693,0.645-2.34,0l0,0c-0.648-0.646-0.648-1.691,0-2.338l16.684-16.686
				c0.646-0.643,1.695-0.643,2.34,0l0,0c0.646,0.646,0.646,1.695,0,2.34L2110.78,1412.458z"/>
			<path fill="#273313" d="M2110.78,1425.613c-0.646,0.643-1.693,0.643-2.34,0l0,0c-0.648-0.65-0.648-1.695,0-2.34l16.684-16.688
				c0.646-0.645,1.695-0.645,2.34,0l0,0c0.646,0.646,0.646,1.695,0,2.342L2110.78,1425.613z"/>
			<path fill="#273313" d="M2110.78,1438.763c-0.646,0.643-1.693,0.643-2.34,0l0,0c-0.648-0.648-0.648-1.695,0-2.344l16.684-16.684
				c0.646-0.645,1.695-0.645,2.34,0l0,0c0.646,0.65,0.646,1.695,0,2.342L2110.78,1438.763z"/>
			<path fill="#273313" d="M2110.78,1451.914c-0.646,0.643-1.693,0.643-2.34,0l0,0c-0.648-0.648-0.648-1.693,0-2.34l16.684-16.686
				c0.646-0.646,1.695-0.646,2.34,0l0,0c0.646,0.645,0.646,1.693,0,2.34L2110.78,1451.914z"/>
			<path fill="#273313" d="M2105.131,1399.306c0.645,0.646,1.693,0.646,2.34,0l0,0c0.646-0.645,0.646-1.689,0-2.34l-16.686-16.686
				c-0.646-0.643-1.691-0.643-2.34,0l0,0c-0.645,0.646-0.645,1.697,0,2.344L2105.131,1399.306z"/>
			<path fill="#273313" d="M2105.131,1412.458c0.645,0.645,1.693,0.645,2.34,0l0,0c0.646-0.646,0.646-1.691,0-2.338l-16.686-16.686
				c-0.646-0.643-1.691-0.643-2.34,0l0,0c-0.645,0.646-0.645,1.695,0,2.34L2105.131,1412.458z"/>
			<path fill="#273313" d="M2105.131,1425.613c0.645,0.643,1.693,0.643,2.34,0l0,0c0.646-0.65,0.646-1.695,0-2.34l-16.686-16.688
				c-0.646-0.645-1.691-0.645-2.34,0l0,0c-0.645,0.646-0.645,1.695,0,2.342L2105.131,1425.613z"/>
			<path fill="#273313" d="M2105.131,1438.763c0.645,0.643,1.693,0.643,2.34,0l0,0c0.646-0.648,0.646-1.695,0-2.344l-16.686-16.684
				c-0.646-0.645-1.691-0.645-2.34,0l0,0c-0.645,0.65-0.645,1.695,0,2.342L2105.131,1438.763z"/>
			<path fill="#273313" d="M2105.131,1451.914c0.645,0.643,1.693,0.643,2.34,0l0,0c0.646-0.648,0.646-1.693,0-2.34l-16.686-16.686
				c-0.646-0.646-1.691-0.646-2.34,0l0,0c-0.645,0.645-0.645,1.693,0,2.34L2105.131,1451.914z"/>
		</g>
		<g>
			<path fill="#273313" d="M2325.567,1664.238v-338.893c0-3.207,2.598-5.801,5.805-5.801l0,0c3.205,0,5.801,2.594,5.801,5.801
				v338.893"/>
			<path fill="#273313" d="M2335.567,1367.777c-0.961,0.963-2.518,0.963-3.477,0l0,0c-0.963-0.953-0.963-2.51,0-3.475l24.785-24.785
				c0.957-0.955,2.516-0.955,3.475,0l0,0c0.961,0.961,0.961,2.52,0,3.479L2335.567,1367.777z"/>
			<path fill="#273313" d="M2335.567,1387.32c-0.961,0.953-2.518,0.953-3.477,0l0,0c-0.963-0.961-0.963-2.514,0-3.479l24.785-24.783
				c0.957-0.959,2.516-0.959,3.475,0l0,0c0.961,0.961,0.961,2.514,0,3.475L2335.567,1387.32z"/>
			<path fill="#273313" d="M2335.567,1406.857c-0.961,0.955-2.518,0.955-3.477,0l0,0c-0.963-0.965-0.963-2.518,0-3.475
				l24.785-24.789c0.957-0.959,2.516-0.959,3.475,0l0,0c0.961,0.961,0.961,2.518,0,3.475L2335.567,1406.857z"/>
			<path fill="#273313" d="M2335.567,1426.392c-0.961,0.959-2.518,0.959-3.477,0l0,0c-0.963-0.959-0.963-2.518,0-3.479
				l24.785-24.787c0.957-0.953,2.516-0.953,3.475,0l0,0c0.961,0.965,0.961,2.521,0,3.48L2335.567,1426.392z"/>
			<path fill="#273313" d="M2335.567,1445.931c-0.961,0.953-2.518,0.953-3.477,0l0,0c-0.963-0.963-0.963-2.518,0-3.477
				l24.785-24.787c0.957-0.961,2.516-0.961,3.475,0l0,0c0.961,0.955,0.961,2.516,0,3.477L2335.567,1445.931z"/>
			<path fill="#273313" d="M2327.174,1367.777c0.959,0.963,2.516,0.963,3.477,0l0,0c0.959-0.953,0.959-2.51,0-3.475l-24.787-24.785
				c-0.961-0.955-2.516-0.955-3.475,0l0,0c-0.959,0.961-0.959,2.52,0,3.479L2327.174,1367.777z"/>
			<path fill="#273313" d="M2327.174,1387.32c0.959,0.953,2.516,0.953,3.477,0l0,0c0.959-0.961,0.959-2.514,0-3.479l-24.787-24.783
				c-0.961-0.959-2.516-0.959-3.475,0l0,0c-0.959,0.961-0.959,2.514,0,3.475L2327.174,1387.32z"/>
			<path fill="#273313" d="M2327.174,1406.857c0.959,0.955,2.516,0.955,3.477,0l0,0c0.959-0.965,0.959-2.518,0-3.475l-24.787-24.789
				c-0.961-0.959-2.516-0.959-3.475,0l0,0c-0.959,0.961-0.959,2.518,0,3.475L2327.174,1406.857z"/>
			<path fill="#273313" d="M2327.174,1426.392c0.959,0.959,2.516,0.959,3.477,0l0,0c0.959-0.959,0.959-2.518,0-3.479l-24.787-24.787
				c-0.961-0.953-2.516-0.953-3.475,0l0,0c-0.959,0.965-0.959,2.521,0,3.48L2327.174,1426.392z"/>
			<path fill="#273313" d="M2327.174,1445.931c0.959,0.953,2.516,0.953,3.477,0l0,0c0.959-0.963,0.959-2.518,0-3.477l-24.787-24.787
				c-0.961-0.961-2.516-0.961-3.475,0l0,0c-0.959,0.955-0.959,2.516,0,3.477L2327.174,1445.931z"/>
		</g>
		<g opacity="0.2">
			<path fill="#273313" d="M2194.67,1663.062v-616.875c0-2.186-1.773-3.959-3.961-3.959l0,0c-2.189,0-3.963,1.773-3.963,3.959
				v616.875"/>
			<path fill="#273313" d="M2194.67,1374.947l-66.293-66.293c-0.67-0.672-1.758-0.672-2.428,0l0,0c-0.67,0.668-0.67,1.754,0,2.426
				l66.293,66.293"/>
			<path fill="#273313" d="M2194.67,1299.574l-33.605-33.609c-0.672-0.67-1.758-0.67-2.428,0l0,0c-0.67,0.668-0.67,1.756,0,2.428
				l33.605,33.607"/>
			<path fill="#273313" d="M2193.838,1115.96l33.605-33.604c0.672-0.672,0.672-1.76,0-2.426l0,0c-0.668-0.672-1.756-0.672-2.426,0
				l-33.607,33.604"/>
			<path fill="#273313" d="M2193.838,1425.587l33.605-33.604c0.672-0.672,0.672-1.758,0-2.43l0,0
				c-0.668-0.668-1.756-0.668-2.426,0.004l-33.607,33.604"/>
			<path fill="#273313" d="M2194.67,1224.197l-66.293-66.293c-0.67-0.67-1.758-0.67-2.428,0l0,0c-0.67,0.672-0.67,1.76,0,2.428
				l66.293,66.291"/>
			<path fill="#273313" d="M2191.991,1188.669l66.293-66.293c0.67-0.67,0.67-1.758,0-2.426l0,0c-0.67-0.672-1.756-0.672-2.428,0
				l-66.293,66.293"/>
			<path fill="#273313" d="M2191.991,1262.49l45.809-45.811c0.672-0.67,0.672-1.758,0-2.426l0,0c-0.67-0.672-1.756-0.672-2.428,0
				l-45.809,45.811"/>
			<path fill="#273313" d="M2191.991,1350.988l45.809-45.811c0.672-0.668,0.672-1.754,0-2.426l0,0c-0.67-0.672-1.756-0.672-2.428,0
				l-45.809,45.811"/>
			<path fill="#273313" d="M2194.67,1148.824l-66.293-66.293c-0.67-0.67-1.758-0.67-2.428,0l0,0c-0.67,0.668-0.67,1.756,0,2.428
				l66.293,66.293"/>
		</g>
		<g>
			<path fill="#273313" d="M218.072,1663.062v-616.875c0-2.186-1.774-3.959-3.962-3.959l0,0c-2.188,0-3.963,1.773-3.963,3.959
				v616.875"/>
			<path fill="#273313" d="M218.072,1374.947l-66.294-66.293c-0.67-0.672-1.757-0.672-2.427,0l0,0c-0.671,0.668-0.671,1.754,0,2.426
				l66.292,66.293"/>
			<path fill="#273313" d="M218.072,1299.574l-33.606-33.609c-0.671-0.67-1.759-0.67-2.428,0l0,0c-0.669,0.668-0.669,1.756,0,2.428
				L215.644,1302"/>
			<path fill="#273313" d="M217.24,1115.96l33.605-33.604c0.671-0.672,0.671-1.76,0-2.426l0,0c-0.669-0.672-1.757-0.672-2.427,0
				l-33.607,33.604"/>
			<path fill="#273313" d="M217.24,1425.587l33.605-33.604c0.671-0.672,0.671-1.758,0-2.43l0,0
				c-0.669-0.668-1.757-0.668-2.427,0.004l-33.607,33.604"/>
			<path fill="#273313" d="M218.072,1224.197l-66.294-66.293c-0.67-0.67-1.757-0.67-2.427,0l0,0c-0.671,0.672-0.671,1.76,0,2.428
				l66.292,66.291"/>
			<path fill="#273313" d="M215.393,1188.669l66.292-66.293c0.671-0.67,0.671-1.758,0-2.426l0,0c-0.67-0.672-1.755-0.672-2.427,0
				l-66.293,66.293"/>
			<path fill="#273313" d="M215.393,1262.49l45.809-45.811c0.671-0.67,0.671-1.758,0-2.426l0,0c-0.67-0.672-1.757-0.672-2.429,0
				l-45.808,45.811"/>
			<path fill="#273313" d="M215.393,1350.988l45.809-45.811c0.671-0.668,0.671-1.754,0-2.426l0,0c-0.67-0.672-1.757-0.672-2.429,0
				l-45.808,45.811"/>
			<path fill="#273313" d="M218.072,1148.824l-66.294-66.293c-0.67-0.67-1.757-0.67-2.427,0l0,0c-0.671,0.668-0.671,1.756,0,2.428
				l66.292,66.293"/>
		</g>
		<g>
			<path fill="#273313" d="M2425.905,1664.105V513.204c0-4.989,4.045-9.035,9.039-9.035l0,0c4.988,0,9.033,4.046,9.033,9.035
				v1150.901"/>
			<path fill="#273313" d="M2425.905,1263.109l151.217-151.217c1.529-1.533,4.01-1.533,5.539,0l0,0c1.527,1.527,1.527,4.006,0,5.537
				l-151.219,151.219"/>
			<path fill="#273313" d="M2425.905,1091.179l76.656-76.656c1.531-1.531,4.01-1.531,5.539,0l0,0
				c1.527,1.527,1.527,4.006-0.002,5.535l-76.656,76.654"/>
			<path fill="#273313" d="M2485.868,861.75l-0.002-51.936c0.002-2.162,1.754-3.914,3.918-3.916l0,0
				c2.16,0.002,3.912,1.754,3.914,3.918v51.938"/>
			<path fill="#273313" d="M2539.137,636.797v-51.938c0-2.156,1.752-3.916,3.916-3.916l0,0c2.16,0,3.912,1.76,3.912,3.916v51.939"/>
			<path fill="#273313" d="M2543.053,801.584h51.932c2.164,0,3.918,1.75,3.92,3.914l0,0c-0.002,2.162-1.756,3.914-3.92,3.914
				h-51.934"/>
			<path fill="#273313" d="M2480.133,1211.001h51.938c2.16,0,3.914,1.752,3.916,3.916l0,0c-0.002,2.156-1.756,3.912-3.918,3.912
				h-51.936"/>
			<path fill="#273313" d="M2535.221,1156.482v-51.934c0-2.168,1.752-3.92,3.916-3.92l0,0c2.158,0,3.91,1.752,3.914,3.92v51.934"/>
			<path fill="#273313" d="M2358.606,1133.863v-51.936c0-2.162,1.752-3.912,3.916-3.916l0,0c2.16,0.004,3.912,1.754,3.912,3.916
				v51.939"/>
			<path fill="#273313" d="M2457.942,1059.171h19.896c2.164,0,3.916,1.756,3.918,3.92l0,0c-0.002,2.16-1.754,3.912-3.92,3.912
				h-19.898"/>
			<path fill="#273313" d="M2378.053,621.27v-19.9c0-2.16,1.752-3.912,3.916-3.916l0,0c2.158,0.004,3.912,1.756,3.914,3.92v19.898"
				/>
			<path fill="#273313" d="M2389.959,963.845h-19.9c-2.162,0-3.914-1.752-3.918-3.912l0,0c0.004-2.164,1.756-3.916,3.918-3.92
				h19.902"/>
			<path fill="#273313" d="M2496.858,678.104h51.936c2.16,0,3.914,1.754,3.916,3.92l0,0c-0.002,2.16-1.756,3.912-3.918,3.912
				h-51.936"/>
			<path fill="#273313" d="M2387.754,793.904v-51.936c0-2.16,1.754-3.916,3.916-3.916l0,0c2.162,0,3.914,1.756,3.916,3.916v51.936"
				/>
			<path fill="#273313" d="M2331.368,734.848h-51.936c-2.16,0-3.914-1.752-3.916-3.918l0,0c0.002-2.16,1.756-3.912,3.92-3.912
				h51.934"/>
			<path fill="#273313" d="M2396.186,1169.816h-51.934c-2.162,0-3.916-1.754-3.916-3.918l0,0c0-2.162,1.754-3.91,3.918-3.912h51.934
				"/>
			<path fill="#273313" d="M2427.803,672.361l-76.658-76.656c-1.527-1.531-1.527-4.01,0-5.541l0,0c1.529-1.523,4.01-1.523,5.539,0
				l76.656,76.662"/>
			<path fill="#273313" d="M2427.803,1378.625l-76.658-76.656c-1.527-1.531-1.527-4.008,0-5.539l0,0c1.529-1.527,4.01-1.527,5.539,0
				l76.656,76.656"/>
			<path fill="#273313" d="M2425.905,919.248l151.217-151.213c1.529-1.531,4.01-1.531,5.539,0l0,0c1.527,1.523,1.527,4.004,0,5.535
				l-151.219,151.217"/>
			<path fill="#273313" d="M2432.018,838.209L2280.803,686.99c-1.531-1.523-1.531-4.01,0-5.535l0,0c1.527-1.531,4.006-1.531,5.535,0
				l151.217,151.219"/>
			<path fill="#273313" d="M2432.018,1006.593l-104.49-104.496c-1.529-1.527-1.529-4.01,0-5.537l0,0
				c1.527-1.529,4.006-1.529,5.535,0l104.492,104.494"/>
			<path fill="#273313" d="M2432.018,1208.466l-104.49-104.498c-1.529-1.527-1.529-4.01,0-5.535l0,0
				c1.527-1.527,4.006-1.527,5.535,0l104.492,104.496"/>
			<path fill="#273313" d="M2425.905,747.318l151.217-151.213c1.529-1.533,4.01-1.533,5.539,0l0,0c1.527,1.523,1.527,4.006,0,5.533
				l-151.219,151.219"/>
		</g>
		<polyline opacity="0.5" fill="#303718" points="282.188,733.451 282.188,351.459 325.657,351.459 325.657,1664.039 
			282.188,1664.039 282.188,783.74 		"/>
		<g>
			<rect x="374.148" y="350.482" fill="#273313" width="35.802" height="1312.58"/>
			<path fill="#273313" d="M374.148,573.76l162.254-162.256c3.237-3.234,8.485-3.234,11.722,0l0,0
				c3.23,3.233,3.23,8.479-0.007,11.716L385.863,585.471"/>
			<path fill="#273313" d="M374.148,764.605L536.402,602.35c3.237-3.234,8.485-3.234,11.722,0l0,0
				c3.23,3.234,3.23,8.479-0.007,11.717L385.863,776.318"/>
			<path fill="#273313" d="M375.701,503.256l-108.53-108.529c-2.164-2.164-2.164-5.674,0-7.838l0,0
				c2.163-2.161,5.672-2.161,7.836,0.003l108.529,108.53"/>
			<path fill="#273313" d="M375.701,1061.339l-108.53-108.533c-2.164-2.164-2.164-5.674,0-7.838l0,0
				c2.163-2.162,5.672-2.162,7.836,0.004l108.529,108.529"/>
			<path fill="#273313" d="M375.701,1386.859l-108.53-108.529c-2.164-2.166-2.164-5.676,0-7.84l0,0
				c2.163-2.16,5.672-2.16,7.836,0.004l108.529,108.529"/>
			<path fill="#273313" d="M374.148,955.447l162.254-162.255c3.237-3.234,8.485-3.234,11.722,0l0,0
				c3.23,3.234,3.23,8.479-0.007,11.717L385.863,967.16"/>
			<path fill="#273313" d="M374.148,1350.394l162.254-162.256c3.237-3.234,8.485-3.234,11.722,0l0,0
				c3.23,3.234,3.23,8.479-0.007,11.717l-162.254,162.252"/>
			<path fill="#273313" d="M441.186,896.123v-58.086c0-2.42,1.962-4.381,4.381-4.381l0,0c2.416,0,4.376,1.961,4.378,4.381v58.09"/>
			<path fill="#273313" d="M302.525,981.328v-58.089c0-2.416,1.962-4.377,4.381-4.381l0,0c2.416,0.004,4.376,1.965,4.378,4.385
				v58.085"/>
			<path fill="#273313" d="M445.564,1284.677v-58.088c0-2.416,1.962-4.379,4.382-4.381l0,0c2.416,0.002,4.375,1.965,4.377,4.383
				v58.086"/>
			<path fill="#273313" d="M498.906,1237.14h58.088c2.418,0,4.38,1.963,4.382,4.381l0,0c-0.002,2.416-1.964,4.375-4.384,4.379
				h-58.088"/>
			<path fill="#273313" d="M506.186,823.66h58.091c2.415,0,4.377,1.961,4.381,4.381l0,0c-0.004,2.416-1.966,4.377-4.385,4.377
				h-58.087"/>
			<path fill="#273313" d="M506.186,444.576h58.091c2.415,0,4.377,1.961,4.381,4.381l0,0c-0.004,2.416-1.966,4.374-4.385,4.377
				h-58.087"/>
			<path fill="#273313" d="M338.139,457.586h-58.088c-2.418,0-4.38-1.961-4.382-4.381l0,0c0.002-2.416,1.964-4.373,4.384-4.377
				h58.088"/>
			<path fill="#273313" d="M338.139,1016.904h-58.088c-2.418,0-4.38-1.961-4.382-4.381l0,0c0.002-2.416,1.964-4.375,4.384-4.377
				h58.088"/>
		</g>
		<path fill="#273313" d="M2768.993,500.662v-44.453l-113.404,74.659V350.482h-96.164v1312.58h96.164v-429.508l113.404-74.66
			v-26.537l-113.404,74.658v-359.99l25.811-16.992l24.682,24.682c2.549,2.549,6.68,2.549,9.229,0.008
			c2.549-2.553,2.549-6.686,0-9.234l-22.781-22.783l76.465-50.338v-44.455l-43.721,28.783v-62.072
			c-0.002-3.604-2.924-6.527-6.523-6.527c-3.605,0-6.527,2.924-6.529,6.527l0.002,70.664l-56.633,37.285v-227.25L2768.993,500.662z"
			/>
		<path opacity="0.2" fill="#303718" d="M2565.752,884.273l-55.346,55.345V783.02l59.072-59.07c1.031-1.033,1.031-2.697,0-3.729
			c-1.027-1.027-2.699-1.027-3.727,0l-55.346,55.346V585.975c0-4.615-3.742-8.355-8.354-8.355c-4.615,0-8.355,3.74-8.355,8.355
			v268.215l-59.154-59.154c-1.029-1.029-2.695-1.029-3.727,0c-1.027,1.027-1.027,2.699,0,3.727l62.881,62.883v803.46h16.709V947.074
			L2569.479,888c1.031-1.029,1.031-2.695,0-3.727C2568.452,883.246,2566.78,883.246,2565.752,884.273z"/>
		<path opacity="0.2" fill="#303718" d="M626.981,884.273l-55.35,55.345V783.02l59.074-59.07c1.03-1.033,1.03-2.697,0-3.729
			c-1.027-1.027-2.699-1.027-3.725,0l-55.35,55.346V585.975c0-4.615-3.738-8.355-8.353-8.355c-4.615,0-8.354,3.74-8.354,8.355
			v268.215l-59.152-59.154c-1.031-1.029-2.697-1.029-3.729,0c-1.026,1.027-1.026,2.699,0,3.727l62.882,62.883v803.46h16.707V947.074
			L630.706,888c1.03-1.029,1.03-2.695,0-3.727C629.679,883.246,628.007,883.246,626.981,884.273z"/>
	</g>
</g>
</svg>
