<?xml version="1.0" encoding="utf-8"?>
<!-- Generator: Adobe Illustrator 15.1.0, SVG Export Plug-In . SVG Version: 6.00 Build 0)  -->
<!DOCTYPE svg PUBLIC "-//W3C//DTD SVG 1.1//EN" "http://www.w3.org/Graphics/SVG/1.1/DTD/svg11.dtd">
<svg version="1.1" id="Layer_1" xmlns="http://www.w3.org/2000/svg" xmlns:xlink="http://www.w3.org/1999/xlink" x="0px" y="0px"
	 width="2769.789px" height="209.804px" viewBox="722.437 1193.125 2769.789 209.804"
	 enable-background="new 722.437 1193.125 2769.789 209.804" xml:space="preserve">
<g>
	<path fill="#FFFFFF" d="M1577.869,1193.125l14.093,38.516c0.572,1.563,0.729,3.175,0.541,4.723l11.342,5.267l-14.257-38.978
		c-1.217-3.319-0.599-6.865,1.338-9.527H1577.869z"/>
	<path fill="#FFFFFF" d="M1555.407,1217.915c0.167,0.456,0.275,0.919,0.338,1.382l11.959,5.553l-11.604-31.725h-9.761
		L1555.407,1217.915z"/>
	<path fill="#FFFFFF" d="M3457.94,1193.125c0.127,13.557-2.064,28.588-9.375,42.077c-16.416,30.296-53.434,43.218-65.14,46.643
		l-9.265,17.097c-0.715,1.319-2.365,1.811-3.686,1.096c-1.321-0.717-1.813-2.369-1.098-3.688l9.264-17.095
		c-3.521-11.675-12.908-49.744,3.511-80.042c1.146-2.114,2.396-4.141,3.726-6.088H1607.439c0.547,0.752,1.007,1.585,1.341,2.502
		l19.318,52.79c0.572,1.564,0.729,3.177,0.542,4.725l32.339,15.015c2.07,0.961,2.973,3.421,2.01,5.493
		c-0.965,2.077-3.425,2.972-5.495,2.01l-32.337-15.014c-1.063,1.142-2.396,2.062-3.96,2.633l-52.792,19.313
		c-5.299,1.941-11.166-0.782-13.107-6.087c-1.939-5.302,0.785-11.172,6.088-13.111l38.975-14.26l-11.341-5.266
		c-1.062,1.142-2.393,2.063-3.956,2.635l-52.795,19.311c-5.302,1.939-11.174-0.786-13.113-6.088
		c-1.936-5.303,0.791-11.173,6.088-13.114l38.977-14.258l-11.957-5.551c-0.394,0.252-0.818,0.468-1.275,0.636l-33.816,12.369
		c-3.395,1.242-7.158-0.504-8.398-3.9c-1.245-3.396,0.505-7.158,3.902-8.4l28.481-10.421l-8.762-23.96h-102.132
		c-0.83,18.752-5.14,40.715-17.986,58.98c-24.123,34.3-70.689,44.688-85.323,47.175l-13.613,19.355
		c-1.05,1.494-3.114,1.855-4.61,0.803c-1.496-1.052-1.855-3.116-0.805-4.61l13.611-19.354c-2.606-14.607-8.574-61.948,15.551-96.25
		c1.495-2.125,3.08-4.154,4.734-6.1H985.2l-22.631,24.845c1.036,1.821,1.681,3.901,1.784,6.138l3.518,75.495
		c0.361,7.577-5.499,14.009-13.083,14.363c-7.582,0.354-14.015-5.507-14.369-13.088l-2.602-55.736l-11.321,12.429
		c1.037,1.821,1.682,3.9,1.787,6.137l3.517,75.495c0.354,7.584-5.505,14.017-13.089,14.37c-7.579,0.351-14.012-5.51-14.369-13.088
		l-2.598-55.739l-11.938,13.105c0.165,0.606,0.271,1.238,0.302,1.892l2.251,48.357c0.229,4.854-3.527,8.979-8.382,9.203
		c-4.856,0.229-8.979-3.527-9.204-8.386l-1.902-40.733l-40.734,1.896c-4.859,0.228-8.979-3.524-9.206-8.385
		c-0.229-4.853,3.528-8.977,8.381-9.202l48.361-2.255c0.651-0.03,1.288,0.017,1.906,0.122l11.937-13.104l-55.736,2.6
		c-7.576,0.354-14.012-5.51-14.368-13.088c-0.352-7.582,5.508-14.015,13.087-14.371l75.497-3.525
		c2.235-0.104,4.365,0.346,6.274,1.208l11.32-12.428l-55.735,2.596c-7.577,0.357-14.013-5.505-14.367-13.087
		c-0.352-7.582,5.508-14.015,13.082-14.362l75.494-3.526c2.237-0.104,4.367,0.345,6.277,1.206l15.806-17.353H722.437v209.804
		h2769.789v-209.804H3457.94z M1091.007,1304.945c0.482,1.313-0.19,2.77-1.505,3.252c-1.313,0.482-2.77-0.192-3.252-1.505
		l-7.716-21.007c-13.334,3.536-27.409-3.6-32.261-16.807c-5.146-14.009,2.039-29.535,16.048-34.682
		c14.009-5.146,29.536,2.039,34.681,16.048c4.852,13.207-1.259,27.759-13.711,33.693L1091.007,1304.945z M1195.354,1402.512
		c-0.767,0.636-1.903,0.531-2.539-0.234l-8.234-9.918c-8.042-0.712-33.787-4.321-48.386-21.904
		c-17.455-21.025-12.343-54.062-12.343-54.062s33.415,1.048,50.871,22.072c14.598,17.581,13.411,43.548,12.631,51.588l8.235,9.919
		C1196.225,1400.739,1196.121,1401.875,1195.354,1402.512z M3000.712,1332.861c-1.228,4.812-6.123,7.722-10.936,6.5l-35.394-9.004
		l5.928,9.973c0.412,0.014,0.827,0.066,1.242,0.172l30.707,7.813c3.082,0.782,4.949,3.921,4.163,7.003
		c-0.782,3.085-3.921,4.949-7.006,4.164l-25.866-6.578l-6.582,25.865c-0.784,3.086-3.92,4.949-7.006,4.165
		c-3.082-0.782-4.947-3.921-4.163-7.003l7.813-30.709c0.105-0.414,0.256-0.803,0.44-1.17l-5.93-9.974l-9.002,35.393
		c-1.224,4.811-6.123,7.722-10.935,6.5c-4.814-1.226-7.725-6.122-6.501-10.935l12.191-47.941c0.361-1.42,1.049-2.667,1.953-3.698
		l-5.622-9.457l-9.005,35.39c-1.223,4.813-6.119,7.725-10.935,6.5c-4.814-1.227-7.724-6.122-6.497-10.93l12.19-47.94
		c0.362-1.42,1.049-2.669,1.953-3.7l-16.031-26.969c-1.025-1.728-0.461-3.963,1.27-4.991s3.963-0.456,4.99,1.27l16.031,26.969
		c1.338-0.301,2.763-0.308,4.183,0.054l47.939,12.196c4.813,1.22,7.722,6.115,6.497,10.931c-1.224,4.814-6.12,7.725-10.935,6.5
		l-35.393-9.002l5.623,9.46c1.338-0.302,2.762-0.31,4.182,0.051l47.938,12.197
		C2999.028,1323.149,3001.937,1328.044,3000.712,1332.861z M3210.875,1234.699l-11.717,7.139
		c-1.992,8.359-9.771,34.911-30.543,47.565c-24.836,15.133-58.834,4.644-58.834,4.644s6.267-35.024,31.104-50.157
		c20.77-12.654,47.93-7.393,56.274-5.329l11.719-7.14c0.904-0.551,2.085-0.265,2.636,0.641
		C3212.067,1232.966,3211.78,1234.148,3210.875,1234.699z M3326.409,1391.814c0.482,1.313-0.19,2.77-1.504,3.252
		c-1.314,0.482-2.771-0.192-3.252-1.505l-7.716-21.007c-13.334,3.536-27.41-3.6-32.262-16.807
		c-5.146-14.009,2.039-29.535,16.048-34.682c14.01-5.146,29.536,2.039,34.682,16.048c4.851,13.207-1.26,27.759-13.712,33.693
		L3326.409,1391.814z"/>
</g>
</svg>
