<?xml version="1.0" encoding="utf-8"?>
<!-- Generator: Adobe Illustrator 15.1.0, SVG Export Plug-In . SVG Version: 6.00 Build 0)  -->
<!DOCTYPE svg PUBLIC "-//W3C//DTD SVG 1.1//EN" "http://www.w3.org/Graphics/SVG/1.1/DTD/svg11.dtd">
<svg version="1.1" id="Layer_1" xmlns="http://www.w3.org/2000/svg" xmlns:xlink="http://www.w3.org/1999/xlink" x="0px" y="0px"
	 width="2769.79px" height="251.557px" viewBox="0 1622.31 2769.79 251.557" enable-background="new 0 1622.31 2769.79 251.557"
	 xml:space="preserve">
<g>
	<g>
		<path fill="#3A4B20" d="M913.776,1670.162c28.858-41.029,89.842-47.852,89.842-47.852s14.205,59.703-14.652,100.732
			c-28.857,41.033-89.846,47.85-89.846,47.85S884.918,1711.193,913.776,1670.162z"/>
		<path fill="#3A4B20" d="M890.029,1789.574c-1.05,1.494-3.114,1.855-4.61,0.803l0,0c-1.496-1.053-1.855-3.117-0.805-4.611
			l53.549-76.137c1.051-1.494,3.114-1.852,4.609-0.799l0,0c1.497,1.053,1.856,3.113,0.807,4.605L890.029,1789.574z"/>
	</g>
	<g>
		<path fill="#3A4B20" d="M712.884,1841.394c-17.455-21.025-12.343-54.063-12.343-54.063s33.415,1.049,50.871,22.072
			c17.457,21.025,12.341,54.064,12.341,54.064S730.34,1862.417,712.884,1841.394z"/>
		<path fill="#3A4B20" d="M772.279,1870.912c0.636,0.766,0.531,1.902-0.235,2.539l0,0c-0.767,0.635-1.903,0.531-2.539-0.234
			l-32.392-39.016c-0.636-0.766-0.529-1.9,0.237-2.537l0,0c0.768-0.637,1.902-0.531,2.537,0.234L772.279,1870.912z"/>
	</g>
	<g>
		<path fill="#3A4B20" d="M2333.618,1670.15c19.639-36.242,68.762-47.625,68.762-47.625s17.291,47.373-2.35,83.615
			c-19.639,36.242-68.766,47.623-68.766,47.623S2313.977,1706.392,2333.618,1670.15z"/>
		<path fill="#3A4B20" d="M2325.625,1769.878c-0.715,1.32-2.365,1.811-3.686,1.096l0,0c-1.32-0.717-1.813-2.369-1.098-3.688
			l36.443-67.252c0.715-1.32,2.365-1.807,3.688-1.092l0,0c1.32,0.717,1.811,2.365,1.096,3.684L2325.625,1769.878z"/>
	</g>
	<g>
		<path fill="#3A4B20" d="M2120.081,1760.341c-24.836,15.133-58.834,4.643-58.834,4.643s6.268-35.023,31.104-50.156
			c24.838-15.133,58.836-4.641,58.836-4.641S2144.918,1745.208,2120.081,1760.341z"/>
		<path fill="#3A4B20" d="M2160.344,1702.359c0.904-0.551,2.084-0.266,2.635,0.641l0,0c0.553,0.904,0.266,2.086-0.639,2.637
			l-46.088,28.082c-0.904,0.551-2.084,0.262-2.637-0.643l0,0c-0.551-0.906-0.266-2.086,0.639-2.637L2160.344,1702.359z"/>
	</g>
	<g>
		<path fill="#3A4B20" d="M563.311,1645.978c2.068-2.27,5.586-2.438,7.859-0.367l0,0c2.273,2.072,2.433,5.59,0.367,7.859
			l-105.365,115.672c-2.066,2.27-5.586,2.439-7.858,0.367l0,0c-2.273-2.07-2.433-5.588-0.366-7.859L563.311,1645.978z"/>
		<g>
			<path fill="#3A4B20" d="M449.206,1771.501c-0.229-4.857,3.527-8.98,8.382-9.203l0,0c4.86-0.227,8.98,3.527,9.211,8.381
				l2.251,48.357c0.229,4.855-3.527,8.98-8.382,9.203l0,0c-4.856,0.23-8.979-3.527-9.204-8.385L449.206,1771.501z"/>
			<path fill="#3A4B20" d="M477.513,1735.929c-0.349-7.584,5.51-14.018,13.086-14.363l0,0c7.584-0.359,14.019,5.502,14.374,13.078
				l3.517,75.496c0.354,7.584-5.505,14.016-13.089,14.369l0,0c-7.579,0.352-14.012-5.51-14.369-13.088L477.513,1735.929z"/>
			<path fill="#3A4B20" d="M513.585,1696.328c-0.351-7.582,5.509-14.014,13.091-14.367l0,0c7.58-0.357,14.014,5.504,14.366,13.084
				l3.518,75.496c0.361,7.576-5.499,14.008-13.083,14.363l0,0c-7.582,0.354-14.015-5.508-14.369-13.088L513.585,1696.328z"/>
			<path fill="#3A4B20" d="M457.182,1778.767c4.854-0.227,8.61-4.35,8.38-9.207l0,0c-0.226-4.857-4.346-8.611-9.198-8.385
				l-48.361,2.256c-4.854,0.225-8.61,4.35-8.381,9.201l0,0c0.227,4.861,4.346,8.613,9.206,8.385L457.182,1778.767z"/>
			<path fill="#3A4B20" d="M489.964,1747.271c7.585-0.357,13.445-6.791,13.084-14.365l0,0c-0.35-7.586-6.783-13.447-14.362-13.098
				l-75.497,3.525c-7.579,0.357-13.439,6.789-13.087,14.371l0,0c0.356,7.578,6.792,13.441,14.368,13.088L489.964,1747.271z"/>
			<path fill="#3A4B20" d="M526.036,1707.669c7.583-0.355,13.443-6.789,13.09-14.371l0,0c-0.354-7.582-6.788-13.441-14.371-13.09
				l-75.494,3.527c-7.573,0.348-13.433,6.779-13.082,14.361l0,0c0.354,7.582,6.79,13.445,14.367,13.088L526.036,1707.669z"/>
		</g>
	</g>
	<g>
		<path fill="#3A4B20" d="M1237.668,1739.093c2.07,0.961,2.973,3.422,2.01,5.494l0,0c-0.965,2.076-3.425,2.971-5.495,2.01
			l-105.557-49.01c-2.07-0.961-2.974-3.42-2.011-5.494l0,0c0.963-2.076,3.426-2.973,5.496-2.008L1237.668,1739.093z"/>
		<g>
			<path fill="#3A4B20" d="M1123.176,1686.072c3.395-1.246,7.156,0.504,8.396,3.898l0,0c1.243,3.398-0.503,7.16-3.896,8.404
				l-33.816,12.369c-3.395,1.242-7.158-0.504-8.398-3.9l0,0c-1.245-3.395,0.505-7.158,3.902-8.4L1123.176,1686.072z"/>
			<path fill="#3A4B20" d="M1154.723,1698.238c5.304-1.936,11.174,0.791,13.107,6.088l0,0c1.943,5.303-0.781,11.174-6.078,13.113
				l-52.795,19.311c-5.302,1.939-11.174-0.785-13.113-6.088l0,0c-1.936-5.303,0.791-11.172,6.088-13.113L1154.723,1698.238z"/>
			<path fill="#3A4B20" d="M1190.86,1715.017c5.305-1.939,11.174,0.789,13.113,6.092l0,0c1.94,5.299-0.785,11.172-6.087,13.107
				l-52.792,19.313c-5.299,1.941-11.166-0.783-13.107-6.088l0,0c-1.939-5.301,0.785-11.172,6.088-13.111L1190.86,1715.017z"/>
			<path fill="#3A4B20" d="M1119.794,1693.351c1.244,3.395,5.005,5.143,8.4,3.896l0,0c3.396-1.24,5.143-5.004,3.901-8.395
				l-12.371-33.818c-1.24-3.395-5.003-5.143-8.396-3.898l0,0c-3.398,1.242-5.146,5.002-3.9,8.4L1119.794,1693.351z"/>
			<path fill="#3A4B20" d="M1149.447,1709.601c1.943,5.303,7.814,8.027,13.109,6.084l0,0c5.306-1.938,8.033-7.809,6.095-13.107
				l-19.316-52.791c-1.939-5.301-7.81-8.025-13.111-6.09l0,0c-5.299,1.941-8.027,7.816-6.088,13.113L1149.447,1709.601z"/>
			<path fill="#3A4B20" d="M1185.586,1726.378c1.938,5.303,7.811,8.029,13.111,6.09l0,0c5.305-1.941,8.028-7.813,6.09-13.113
				l-19.318-52.791c-1.933-5.295-7.802-8.021-13.104-6.084l0,0c-5.303,1.939-8.03,7.814-6.089,13.109L1185.586,1726.378z"/>
		</g>
	</g>
	<g>
		<path fill="#3A4B20" d="M1853.35,1727.228c-1.025-1.727-0.461-3.963,1.27-4.99l0,0c1.73-1.029,3.963-0.457,4.99,1.27
			l52.328,88.031c1.025,1.727,0.461,3.963-1.27,4.99l0,0c-1.73,1.027-3.963,0.457-4.992-1.271L1853.35,1727.228z"/>
		<g>
			<path fill="#3A4B20" d="M1910.176,1822.611c-3.084-0.783-4.949-3.922-4.162-7.002l0,0c0.785-3.088,3.92-4.951,7.004-4.17
				l30.707,7.814c3.082,0.781,4.949,3.92,4.164,7.002l0,0c-0.783,3.086-3.922,4.949-7.006,4.164L1910.176,1822.611z"/>
			<path fill="#3A4B20" d="M1893.305,1798.103c-4.816-1.229-7.725-6.123-6.498-10.932l0,0c1.223-4.818,6.119-7.729,10.93-6.506
				l47.939,12.197c4.816,1.225,7.727,6.119,6.502,10.936l0,0c-1.229,4.813-6.123,7.723-10.936,6.5L1893.305,1798.103z"/>
			<path fill="#3A4B20" d="M1875.391,1767.964c-4.814-1.227-7.725-6.121-6.5-10.936l0,0c1.223-4.814,6.119-7.725,10.932-6.5
				l47.939,12.197c4.813,1.219,7.723,6.115,6.498,10.93l0,0c-1.225,4.814-6.121,7.725-10.936,6.5L1875.391,1767.964z"/>
			<path fill="#3A4B20" d="M1916.249,1819.003c0.783-3.084-1.082-6.221-4.166-7.004l0,0c-3.086-0.785-6.221,1.08-7.004,4.16
				l-7.813,30.709c-0.785,3.082,1.08,6.221,4.162,7.004l0,0c3.086,0.783,6.223-1.08,7.006-4.166L1916.249,1819.003z"/>
			<path fill="#3A4B20" d="M1902.78,1792.47c1.225-4.816-1.686-9.713-6.498-10.932l0,0c-4.816-1.227-9.713,1.682-10.939,6.494
				l-12.191,47.941c-1.223,4.813,1.688,9.709,6.502,10.936l0,0c4.811,1.221,9.711-1.689,10.934-6.5L1902.78,1792.47z"/>
			<path fill="#3A4B20" d="M1884.866,1762.333c1.225-4.816-1.688-9.713-6.5-10.938l0,0c-4.816-1.225-9.711,1.688-10.938,6.502
				l-12.191,47.939c-1.227,4.809,1.684,9.703,6.498,10.93l0,0c4.814,1.225,9.711-1.688,10.934-6.5L1884.866,1762.333z"/>
		</g>
	</g>
	<g>
		<path fill="#3A4B20" d="M667.697,1775.882c0.482,1.313-0.19,2.77-1.505,3.252l0,0c-1.313,0.482-2.77-0.191-3.252-1.504
			l-24.578-66.914c-0.482-1.313,0.191-2.77,1.506-3.252l0,0c1.313-0.482,2.77,0.191,3.252,1.506L667.697,1775.882z"/>
		<circle fill="#3A4B20" cx="648.328" cy="1730.5" r="27.021"/>
	</g>
	<g>
		<path fill="#3A4B20" d="M2277.874,1862.751c0.482,1.313-0.189,2.77-1.504,3.252l0,0c-1.314,0.482-2.77-0.191-3.252-1.504
			l-24.578-66.914c-0.482-1.313,0.191-2.77,1.506-3.252l0,0c1.313-0.482,2.77,0.191,3.252,1.506L2277.874,1862.751z"/>
		<circle fill="#3A4B20" cx="2258.505" cy="1817.369" r="27.021"/>
	</g>
</g>
</svg>
