<?xml version="1.0" encoding="utf-8"?>
<!-- Generator: Adobe Illustrator 15.1.0, SVG Export Plug-In . SVG Version: 6.00 Build 0)  -->
<!DOCTYPE svg PUBLIC "-//W3C//DTD SVG 1.1//EN" "http://www.w3.org/Graphics/SVG/1.1/DTD/svg11.dtd">
<svg version="1.1" id="Layer_1" xmlns="http://www.w3.org/2000/svg" xmlns:xlink="http://www.w3.org/1999/xlink" x="0px" y="0px"
	 width="467.402px" height="385.836px" viewBox="0 0 467.402 385.836" enable-background="new 0 0 467.402 385.836"
	 xml:space="preserve">
<g>
	<g>
		<g>
			
				<rect x="314.067" y="366.284" transform="matrix(-0.9399 0.3414 -0.3414 -0.9399 738.8796 615.8138)" fill="#73FFD0" width="2.377" height="13.271"/>
			<circle fill="#DB7752" cx="317.539" cy="379.167" r="4.088"/>
		</g>
		<path fill="#F3FFAB" d="M13.392,67.334c0-3.698-2.998-6.697-6.695-6.697l0,0C2.998,60.637,0,63.636,0,67.334l0,0
			c0,3.698,2.998,6.696,6.696,6.696l0,0C10.395,74.03,13.392,71.032,13.392,67.334L13.392,67.334z"/>
		<path fill="#F3FFAB" d="M49.062,48.729c0-3.699-2.998-6.697-6.696-6.697l0,0c-3.697,0-6.696,2.998-6.696,6.697l0,0
			c0,3.698,2.999,6.696,6.696,6.696l0,0C46.063,55.426,49.062,52.427,49.062,48.729L49.062,48.729z"/>
		<path fill="#2A3013" d="M34.448,189.295c0,10.541,8.545,19.085,19.086,19.085h19.302c10.541,0,19.085-8.544,19.085-19.085l0,0
			c0-10.541-8.545-19.085-19.085-19.085H53.534C42.993,170.21,34.448,178.755,34.448,189.295L34.448,189.295z"/>
		<g>
			<path fill="#2A3013" d="M382.887,357.355c4.328,3.992,11.072,3.72,15.063-0.608l0,0c3.992-4.326,3.72-11.072-0.607-15.063
				l-27.242-25.127c-4.327-3.99-11.071-3.72-15.063,0.608l0,0c-3.99,4.326-3.72,11.071,0.608,15.063L382.887,357.355z"/>
			<path fill="#2A3013" d="M377.824,326.338c-1.387,0.373-2.208,1.803-1.835,3.188l0,0c0.375,1.389,1.804,2.209,3.189,1.834
				l22.567-6.086c1.389-0.373,2.208-1.803,1.834-3.189l0,0c-0.372-1.387-1.802-2.208-3.188-1.834L377.824,326.338z"/>
			<path fill="#2A3013" d="M374.079,364.462c-0.073,1.435,1.028,2.659,2.462,2.733l0,0c1.437,0.074,2.66-1.027,2.734-2.463
				l1.219-23.342c0.076-1.437-1.026-2.66-2.462-2.734l0,0c-1.436-0.074-2.657,1.027-2.732,2.463L374.079,364.462z"/>
		</g>
		<g>
			<g>
				
					<rect x="53.018" y="107.116" transform="matrix(0.3979 -0.9174 0.9174 0.3979 -80.6592 124.8324)" fill="#DB7752" width="3.524" height="33.508"/>
				<path fill="#F3FFAB" d="M56.78,119.388l-19.892-8.63c-2.485-1.078-5.373,0.062-6.452,2.547l0,0
					c-1.078,2.486,0.063,5.373,2.548,6.452l19.894,8.631"/>
				<path fill="#A190D3" d="M52.8,130.692c0.657,0.285,1.418-0.018,1.704-0.672l4.581-10.558c0.284-0.656-0.018-1.418-0.673-1.703
					l0,0c-0.656-0.284-1.418,0.017-1.704,0.672l-4.58,10.557C51.843,129.643,52.144,130.407,52.8,130.692L52.8,130.692z"/>
			</g>
			
				<rect x="46.067" y="121.364" transform="matrix(0.398 -0.9174 0.9174 0.398 -81.436 120.3338)" fill="#DB7752" width="9.809" height="1.708"/>
			
				<rect x="40.987" y="119.154" transform="matrix(0.398 -0.9174 0.9174 0.398 -82.4666 114.3411)" fill="#DB7752" width="9.809" height="1.708"/>
			
				<rect x="35.907" y="116.949" transform="matrix(0.3979 -0.9174 0.9174 0.3979 -83.504 108.365)" fill="#DB7752" width="9.809" height="1.709"/>
			
				<rect x="30.826" y="114.749" transform="matrix(0.3981 -0.9174 0.9174 0.3981 -84.5414 102.365)" fill="#DB7752" width="9.811" height="1.709"/>
		</g>
		<g>
			<g>
				
					<rect x="130.617" y="342.996" transform="matrix(-0.7719 -0.6357 0.6357 -0.7719 4.9929 725.1995)" fill="#73FFD0" width="3.936" height="37.417"/>
				<path fill="#DB7752" d="M128.398,358.186l-15.393,18.691c-1.923,2.334-1.589,5.787,0.746,7.709l0,0
					c2.336,1.924,5.787,1.588,7.71-0.747l15.394-18.69"/>
				<path fill="#F3FFAB" d="M139.304,365.939c0.507-0.616,0.418-1.527-0.197-2.035l-9.92-8.17c-0.616-0.508-1.527-0.42-2.036,0.197
					l0,0c-0.507,0.617-0.419,1.528,0.196,2.035l9.92,8.17C137.884,366.645,138.796,366.557,139.304,365.939L139.304,365.939z"/>
			</g>
			
				<rect x="124.166" y="364.323" transform="matrix(-0.7719 -0.6357 0.6357 -0.7719 -2.4917 729.6597)" fill="#DB7752" width="10.954" height="1.908"/>
			
				<rect x="120.233" y="369.095" transform="matrix(-0.7719 -0.6357 0.6357 -0.7719 -12.5136 735.6088)" fill="#DB7752" width="10.952" height="1.909"/>
			
				<rect x="116.295" y="373.906" transform="matrix(-0.7721 -0.6355 0.6355 -0.7721 -22.4375 741.6721)" fill="#DB7752" width="10.955" height="1.906"/>
			
				<rect x="112.379" y="378.651" transform="matrix(-0.772 -0.6356 0.6356 -0.772 -32.4397 747.573)" fill="#DB7752" width="10.955" height="1.907"/>
		</g>
		<g>
			<path fill="#73FFD0" d="M59.254,302.511c-2.758-0.243-5.191,1.796-5.434,4.554l-1.518,17.234
				c-0.243,2.758,1.797,5.191,4.554,5.434l17.236,1.519c2.757,0.242,5.189-1.797,5.432-4.556"/>
			<path fill="#F3FFAB" d="M82.298,326.288c1.011-0.847,1.143-2.354,0.296-3.363l-19.091-22.776
				c-0.848-1.011-2.354-1.144-3.363-0.295l0,0c-1.011,0.846-1.143,2.354-0.296,3.362l19.091,22.776
				C79.782,327.002,81.288,327.135,82.298,326.288L82.298,326.288z"/>
			
				<rect x="80.586" y="288.715" transform="matrix(-0.6424 -0.7664 0.7664 -0.6424 -94.4514 561.1586)" fill="#DB7752" width="6.236" height="27.803"/>
			<path fill="#F3FFAB" d="M53.41,311.723l16.022,19.117l-12.577-1.107c-2.757-0.241-4.797-2.676-4.554-5.434L53.41,311.723z"/>
		</g>
		<g>
			<path fill="#F3FFAB" d="M398.894,46.858c2.764-0.165,4.87-2.54,4.703-5.304l-1.035-17.271c-0.166-2.763-2.541-4.869-5.304-4.705
				l-17.272,1.037c-2.763,0.166-4.867,2.542-4.702,5.304"/>
			<path fill="#DB7752" d="M372.601,26.733c-0.876,0.986-0.784,2.496,0.202,3.37l22.233,19.718c0.987,0.875,2.497,0.786,3.371-0.202
				l0,0c0.875-0.986,0.784-2.496-0.202-3.371L375.971,26.53C374.985,25.655,373.476,25.746,372.601,26.733L372.601,26.733z"/>
			
				<rect x="371.566" y="36.464" transform="matrix(0.7482 0.6635 -0.6635 0.7482 127.7597 -235.9093)" fill="#F3FFAB" width="6.235" height="27.802"/>
			<path fill="#DB7752" d="M403.318,36.887l-18.662-16.552l12.604-0.756c2.763-0.164,5.138,1.941,5.304,4.705L403.318,36.887z"/>
		</g>
		<g>
			<path fill="#F3FFAB" d="M102.326,73.243c0.452,0.471,1.201,0.485,1.672,0.032l7.396-7.12c0.472-0.453,0.485-1.201,0.032-1.671
				L92.263,44.573c-0.452-0.471-1.201-0.485-1.671-0.033l-7.397,7.119c-0.471,0.454-0.483,1.202-0.031,1.673L102.326,73.243z"/>
			<path fill="#DB7752" d="M71.996,57.081c4.166,4.329,11.053,4.461,15.38,0.294l8.769-8.438c4.328-4.166,4.458-11.052,0.294-15.38
				l-0.486-0.506c-4.165-4.328-11.053-4.46-15.381-0.294l-8.767,8.438c-4.329,4.166-4.461,11.052-0.295,15.38L71.996,57.081z"/>
			<path fill="#DB7752" d="M91.253,67.981c0.825,0.851,2.185,0.873,3.036,0.048l12.479-12.1c0.853-0.825,0.873-2.184,0.048-3.036
				l0,0c-0.824-0.851-2.186-0.872-3.036-0.048L91.301,64.946C90.45,65.771,90.428,67.13,91.253,67.981L91.253,67.981z"/>
			<path fill="#FF9473" d="M74.069,52.919c0.841,0.258,1.792,0.552,2.059,0.295c0.266-0.256,0.01-1.218-0.217-2.068
				c-0.407-1.525-1.021-3.83,0.751-5.536c1.771-1.705,4.051-1.002,5.56-0.539c0.839,0.259,1.792,0.553,2.056,0.296
				c0.266-0.254,0.009-1.215-0.219-2.063c-0.407-1.525-1.023-3.83,0.748-5.534c1.771-1.706,4.052-1.003,5.561-0.538
				c0.839,0.26,1.789,0.552,2.055,0.297c0.265-0.254,0.008-1.215-0.218-2.064c-0.357-1.335-0.874-3.27,0.193-4.876
				c1.075,0.46,2.084,1.112,2.992,1.931c-0.222,0.292,0.021,1.211,0.239,2.03c0.407,1.524,1.022,3.829-0.747,5.535
				c-1.771,1.706-4.053,1.001-5.562,0.537c-0.839-0.259-1.79-0.553-2.056-0.296c-0.264,0.253-0.007,1.214,0.22,2.063
				c0.407,1.524,1.023,3.829-0.748,5.533c-1.771,1.705-4.052,1.002-5.561,0.538c-0.839-0.259-1.79-0.554-2.056-0.297
				c-0.267,0.256-0.01,1.218,0.216,2.067c0.407,1.525,1.021,3.831-0.75,5.537c-0.854,0.821-1.825,1.084-2.771,1.084
				c-1.018,0-2.008-0.305-2.79-0.546c-0.811-0.249-1.721-0.526-2.021-0.314c-0.785-0.939-1.396-1.972-1.815-3.064
				C70.833,51.924,72.748,52.511,74.069,52.919z"/>
		</g>
		<g>
			<path fill="#F3FFAB" d="M402.038,286.02c-0.331-0.26-0.808-0.199-1.064,0.131l-4.052,5.189c-0.259,0.331-0.2,0.807,0.131,1.065
				l13.973,10.905c0.329,0.258,0.807,0.2,1.064-0.129l4.052-5.192c0.258-0.33,0.199-0.806-0.13-1.063L402.038,286.02z"/>
			<path fill="#73FFD0" d="M422.762,293.534c-3.038-2.371-7.423-1.832-9.793,1.205l-4.805,6.153
				c-2.371,3.037-1.829,7.422,1.206,9.793l0.355,0.277c3.038,2.371,7.423,1.829,9.793-1.207l4.803-6.152
				c2.371-3.037,1.831-7.422-1.206-9.795L422.762,293.534z"/>
			<path fill="#73FFD0" d="M409.545,288.355c-0.602-0.465-1.468-0.354-1.933,0.246l-6.829,8.813
				c-0.466,0.601-0.355,1.465,0.245,1.933l0,0c0.602,0.465,1.466,0.355,1.933-0.246l6.828-8.813
				C410.255,289.688,410.146,288.822,409.545,288.355L409.545,288.355z"/>
			<path fill="#F3FFAB" d="M421.822,296.364c-0.557-0.089-1.188-0.188-1.333-0.003c-0.146,0.189,0.104,0.775,0.325,1.296
				c0.396,0.932,0.996,2.339,0.025,3.583c-0.973,1.242-2.482,1.003-3.482,0.845c-0.557-0.088-1.188-0.188-1.333-0.002
				c-0.145,0.187,0.105,0.772,0.326,1.29c0.396,0.934,0.997,2.341,0.025,3.583c-0.97,1.243-2.481,1.003-3.48,0.844
				c-0.557-0.088-1.188-0.188-1.333-0.002c-0.146,0.187,0.106,0.772,0.327,1.291c0.347,0.815,0.851,1.998,0.317,3.115
				c-0.725-0.197-1.424-0.519-2.075-0.957c0.113-0.205-0.123-0.767-0.336-1.269c-0.396-0.93-0.996-2.338-0.026-3.582
				c0.971-1.244,2.48-1.002,3.481-0.844c0.558,0.09,1.188,0.188,1.332,0.002c0.146-0.186-0.104-0.771-0.325-1.291
				c-0.397-0.932-0.998-2.339-0.026-3.58c0.97-1.244,2.481-1.004,3.481-0.847c0.557,0.089,1.188,0.19,1.333,0.003
				c0.145-0.188-0.104-0.773-0.325-1.293c-0.396-0.934-0.996-2.34-0.025-3.585c0.468-0.599,1.063-0.854,1.661-0.938
				c0.646-0.092,1.303,0.012,1.822,0.095c0.537,0.084,1.141,0.178,1.313,0.017c0.583,0.524,1.065,1.124,1.431,1.78
				C423.967,296.704,422.698,296.503,421.822,296.364z"/>
		</g>
		<path fill="#DB7752" d="M425.165,174.138c0,0.979,0.795,1.773,1.774,1.773h22.069c0.979,0,1.772-0.794,1.772-1.773l0,0
			c0-0.979-0.794-1.773-1.772-1.773H426.94C425.96,172.364,425.165,173.158,425.165,174.138L425.165,174.138z"/>
		<circle fill="#2A3013" cx="240.533" cy="196.295" r="186.332"/>
		<circle fill="#BBCF5C" cx="240.533" cy="196.295" r="171.775"/>
		<circle fill="none" stroke="#99AF4A" stroke-width="8.6746" stroke-miterlimit="10" cx="240.532" cy="196.295" r="160.536"/>
		<circle fill="none" stroke="#99AF4A" stroke-width="8.6746" stroke-miterlimit="10" cx="240.532" cy="196.295" r="132.23"/>
		<circle fill="none" stroke="#99AF4A" stroke-width="8.6746" stroke-miterlimit="10" cx="240.533" cy="196.295" r="144.635"/>
		<circle fill="none" stroke="#99AF4A" stroke-width="8.6746" stroke-miterlimit="10" cx="240.533" cy="196.296" r="112.349"/>
		<circle fill="none" stroke="#F3FFAB" stroke-width="8.6746" stroke-miterlimit="10" cx="240.533" cy="196.296" r="121.869"/>
		<circle fill="none" stroke="#99AF4A" stroke-width="8.6746" stroke-miterlimit="10" cx="240.533" cy="196.296" r="121.869"/>
		<circle fill="none" stroke="#99AF4A" stroke-width="8.6746" stroke-miterlimit="10" cx="240.532" cy="196.296" r="102.46"/>
		<circle fill="none" stroke="#99AF4A" stroke-width="8.6746" stroke-miterlimit="10" cx="240.532" cy="196.296" r="151.75"/>
		<circle fill="none" stroke="#99AF4A" stroke-width="8.6746" stroke-miterlimit="10" cx="240.533" cy="196.296" r="82.597"/>
		<circle fill="none" stroke="#99AF4A" stroke-width="8.6746" stroke-miterlimit="10" cx="240.533" cy="196.296" r="82.597"/>
		<circle fill="none" stroke="#99AF4A" stroke-width="8.6746" stroke-miterlimit="10" cx="240.532" cy="196.296" r="36.844"/>
		<circle fill="none" stroke="#99AF4A" stroke-width="8.6746" stroke-miterlimit="10" cx="240.533" cy="196.296" r="91.858"/>
		<circle fill="none" stroke="#99AF4A" stroke-width="8.6746" stroke-miterlimit="10" cx="240.532" cy="196.296" r="45.762"/>
		<circle fill="none" stroke="#99AF4A" stroke-width="8.6746" stroke-miterlimit="10" cx="240.532" cy="196.296" r="59.317"/>
		<circle fill="none" stroke="#99AF4A" stroke-width="8.6746" stroke-miterlimit="10" cx="240.533" cy="196.296" r="26.163"/>
		<circle fill="none" stroke="#99AF4A" stroke-width="8.6746" stroke-miterlimit="10" cx="240.533" cy="196.296" r="14.417"/>
		<circle fill="#99AF4A" cx="240.533" cy="196.296" r="7.001"/>
		<circle fill="none" stroke="#99AF4A" stroke-width="8.6746" stroke-miterlimit="10" cx="240.533" cy="196.296" r="73.131"/>
		<g>
			<path fill="#2A3013" d="M147.241,313.583c-7.972,0-14.455-6.485-14.455-14.456v-9.826c0-7.971,6.483-14.455,14.455-14.455
				h186.583c7.971,0,14.454,6.484,14.454,14.455v9.826c0,7.971-6.483,14.456-14.454,14.456H147.241z"/>
			<g>
				<path fill="#99AF4A" d="M333.824,284.389c2.713,0,4.912,2.199,4.912,4.912v9.826c0,2.713-2.199,4.914-4.912,4.914H147.241
					c-2.716,0-4.913-2.201-4.913-4.914v-9.826c0-2.713,2.197-4.912,4.913-4.912H333.824 M333.824,265.304H147.241
					c-13.232,0-23.997,10.765-23.997,23.997v9.826c0,13.232,10.765,23.998,23.997,23.998h186.583
					c13.231,0,23.996-10.766,23.996-23.998v-9.826C357.821,276.068,347.056,265.304,333.824,265.304L333.824,265.304z"/>
			</g>
		</g>
		<g>
			<g>
				<path fill="#2A3013" d="M314.751,267.084c-24.556,0-44.53-19.975-44.53-44.527c0-24.554,19.976-44.531,44.53-44.531
					c24.554,0,44.528,19.976,44.528,44.531C359.28,247.109,339.305,267.084,314.751,267.084z"/>
				<g>
					<path fill="#99AF4A" d="M314.751,184.966c20.759,0,37.59,16.828,37.59,37.591c0,20.762-16.831,37.588-37.59,37.588
						c-20.76,0-37.591-16.826-37.591-37.588C277.16,201.794,293.992,184.966,314.751,184.966 M314.751,171.087
						c-28.381,0-51.472,23.089-51.472,51.47c0,28.379,23.091,51.467,51.472,51.467c28.38,0,51.469-23.088,51.469-51.467
						C366.22,194.176,343.131,171.087,314.751,171.087L314.751,171.087z"/>
				</g>
			</g>
			<g>
				<path fill="#BBCF5C" d="M314.75,202.646c10.994,0,19.911,8.914,19.911,19.906c0,11-8.917,19.914-19.911,19.914
					c-10.998,0-19.911-8.914-19.911-19.914C294.839,211.561,303.752,202.646,314.75,202.646 M314.75,193.973
					c-15.764,0-28.586,12.821-28.586,28.582c0,15.764,12.822,28.59,28.586,28.59c15.763,0,28.587-12.826,28.587-28.59
					C343.337,206.793,330.513,193.973,314.75,193.973L314.75,193.973z"/>
			</g>
			<circle fill="#73FFD0" cx="314.751" cy="222.556" r="12.169"/>
			<circle fill="#2A3013" cx="314.751" cy="222.556" r="6.626"/>
		</g>
		<g>
			<g>
				<path fill="#2A3013" d="M166.079,267.084c-24.556,0-44.53-19.975-44.53-44.527c0-24.554,19.976-44.531,44.53-44.531
					c24.554,0,44.528,19.976,44.528,44.531C210.608,247.109,190.632,267.084,166.079,267.084z"/>
				<g>
					<path fill="#99AF4A" d="M166.079,184.966c20.759,0,37.59,16.828,37.59,37.591c0,20.762-16.831,37.588-37.59,37.588
						c-20.762,0-37.592-16.826-37.592-37.588C128.488,201.794,145.318,184.966,166.079,184.966 M166.079,171.087
						c-28.382,0-51.471,23.089-51.471,51.47c0,28.379,23.089,51.467,51.471,51.467c28.38,0,51.47-23.088,51.47-51.467
						C217.548,194.176,194.458,171.087,166.079,171.087L166.079,171.087z"/>
				</g>
			</g>
			<g>
				<path fill="#BBCF5C" d="M166.078,202.646c10.994,0,19.91,8.914,19.91,19.906c0,11-8.916,19.914-19.91,19.914
					c-10.998,0-19.912-8.914-19.912-19.914C146.166,211.561,155.08,202.646,166.078,202.646 M166.078,193.973
					c-15.764,0-28.587,12.821-28.587,28.582c0,15.764,12.823,28.59,28.587,28.59c15.763,0,28.586-12.826,28.586-28.59
					C194.664,206.793,181.84,193.973,166.078,193.973L166.078,193.973z"/>
			</g>
			<circle fill="#D86E4E" cx="166.078" cy="222.556" r="12.169"/>
			<circle fill="#EFD7D2" cx="166.077" cy="222.556" r="6.626"/>
		</g>
		<g>
			<path fill="#F3FFAB" d="M306.77,284.389v6.994c0,2.338,1.895,4.232,4.233,4.232l0,0c2.337,0,4.232-1.896,4.232-4.232v-6.994
				H306.77z"/>
			<path fill="#F3FFAB" d="M283.442,284.389v6.994c0,2.338,1.896,4.232,4.233,4.232l0,0c2.338,0,4.233-1.896,4.233-4.232v-6.994
				H283.442z"/>
			<path fill="#F3FFAB" d="M260.115,284.389v6.994c0,2.338,1.896,4.232,4.233,4.232l0,0c2.337,0,4.232-1.896,4.232-4.232v-6.994
				H260.115z"/>
			<path fill="#F3FFAB" d="M236.786,284.389v6.994c0,2.338,1.896,4.232,4.233,4.232l0,0c2.338,0,4.233-1.896,4.233-4.232v-6.994
				H236.786z"/>
			<path fill="#D86E4E" d="M213.458,284.389v6.994c0,2.338,1.896,4.232,4.232,4.232l0,0c2.338,0,4.233-1.896,4.233-4.232v-6.994
				H213.458z"/>
			<path fill="#F3FFAB" d="M190.131,284.389v6.994c0,2.338,1.896,4.232,4.232,4.232l0,0c2.339,0,4.233-1.896,4.233-4.232v-6.994
				H190.131z"/>
			<path fill="#F3FFAB" d="M166.803,284.389v6.994c0,2.338,1.896,4.232,4.233,4.232l0,0c2.338,0,4.232-1.896,4.232-4.232v-6.994
				H166.803z"/>
		</g>
		
			<line fill="none" stroke="#99AF4A" stroke-width="8.6746" stroke-miterlimit="10" x1="240.533" y1="35.76" x2="240.533" y2="64.066"/>
		
			<line fill="none" stroke="#99AF4A" stroke-width="8.6746" stroke-miterlimit="10" x1="358.29" y1="87.511" x2="338.737" y2="107.75"/>
		
			<line fill="none" stroke="#99AF4A" stroke-width="8.6746" stroke-miterlimit="10" x1="111.758" y1="166.143" x2="84.558" y2="158.144"/>
		
			<line fill="none" stroke="#99AF4A" stroke-width="8.6746" stroke-miterlimit="10" x1="240.533" y1="328.525" x2="240.533" y2="356.833"/>
		
			<line fill="none" stroke="#99AF4A" stroke-width="8.6746" stroke-miterlimit="10" x1="274.862" y1="111.074" x2="283.335" y2="92.481"/>
		
			<line fill="none" stroke="#99AF4A" stroke-width="8.6746" stroke-miterlimit="10" x1="180.305" y1="126.937" x2="166.803" y2="111.526"/>
		
			<line fill="none" stroke="#99AF4A" stroke-width="8.6746" stroke-miterlimit="10" x1="268.581" y1="263.854" x2="280.578" y2="278.986"/>
		
			<line fill="none" stroke="#99AF4A" stroke-width="8.6746" stroke-miterlimit="10" x1="132.916" y1="273.143" x2="111.758" y2="292.168"/>
		
			<line fill="none" stroke="#99AF4A" stroke-width="8.6746" stroke-miterlimit="10" x1="302.051" y1="156.741" x2="320.084" y2="150.342"/>
		
			<line fill="none" stroke="#99AF4A" stroke-width="8.6746" stroke-miterlimit="10" x1="236.786" y1="150.342" x2="236.982" y2="123.165"/>
		
			<line fill="none" stroke="#99AF4A" stroke-width="8.6746" stroke-miterlimit="10" x1="367.174" y1="158.144" x2="395.953" y2="155.941"/>
		
			<line fill="none" stroke="#99AF4A" stroke-width="8.6746" stroke-miterlimit="10" x1="302.051" y1="264.508" x2="315.237" y2="280.202"/>
		
			<line fill="none" stroke="#99AF4A" stroke-width="8.6746" stroke-miterlimit="10" x1="361.25" y1="275.986" x2="374.108" y2="285.023"/>
		<line fill="none" x1="187.016" y1="330.705" x2="180.305" y2="345.15"/>
		
			<line fill="none" stroke="#99AF4A" stroke-width="8.6746" stroke-miterlimit="10" x1="194.77" y1="93.664" x2="187.016" y2="75.346"/>
		
			<line fill="none" stroke="#99AF4A" stroke-width="8.6746" stroke-miterlimit="10" x1="263.5" y1="183.758" x2="280.578" y2="174.138"/>
		
			<line fill="none" stroke="#99AF4A" stroke-width="8.6746" stroke-miterlimit="10" x1="214.37" y1="196.296" x2="194.77" y2="196.296"/>
		
			<line fill="none" stroke="#99AF4A" stroke-width="8.6746" stroke-miterlimit="10" x1="251.693" y1="219.962" x2="260.115" y2="237.667"/>
		<g>
			<circle fill="#99AF4A" cx="329.093" cy="111.048" r="3.298"/>
			<circle fill="#F3FFAB" cx="220.115" cy="147.236" r="3.298"/>
			<circle fill="#99AF4A" cx="151.972" cy="111.048" r="3.298"/>
			<circle fill="#99AF4A" cx="175.271" cy="334.002" r="3.297"/>
			<circle fill="#99AF4A" cx="247.534" cy="319.444" r="3.298"/>
			<circle fill="#99AF4A" cx="361.25" cy="184.966" r="3.298"/>
			<circle fill="#99AF4A" cx="250.832" cy="131.456" r="3.298"/>
			<circle fill="#99AF4A" cx="289.592" cy="129.643" r="3.298"/>
			<circle fill="#99AF4A" cx="332.851" cy="154.846" r="3.298"/>
			<circle fill="#99AF4A" cx="101.625" cy="260.146" r="3.298"/>
			<circle fill="#F3FFAB" cx="104.922" cy="223.259" r="3.298"/>
			<circle fill="#F3FFAB" cx="226.116" cy="246.725" r="3.298"/>
			<circle fill="#F3FFAB" cx="201.857" cy="142.983" r="3.298"/>
			<circle fill="#F3FFAB" cx="254.092" cy="260.146" r="3.298"/>
			<circle fill="#F3FFAB" cx="277.877" cy="329.228" r="3.298"/>
			<circle fill="#F3FFAB" cx="352.341" cy="277.208" r="3.298"/>
			<circle fill="#F3FFAB" cx="121.063" cy="126.937" r="1.812"/>
			<circle fill="#F3FFAB" cx="230.234" cy="94.333" r="1.811"/>
			<circle fill="#F3FFAB" cx="228.422" cy="322.741" r="1.812"/>
			<circle fill="#F3FFAB" cx="217.692" cy="258.659" r="1.811"/>
			<circle fill="#F3FFAB" cx="248.983" cy="335.813" r="1.811"/>
			<circle fill="#F3FFAB" cx="209.261" cy="254.842" r="1.811"/>
			<circle fill="#F3FFAB" cx="342.992" cy="164.873" r="1.811"/>
			<circle fill="#F3FFAB" cx="344.17" cy="123.165" r="1.812"/>
			<circle fill="#F3FFAB" cx="294.838" cy="54.052" r="1.811"/>
			<circle fill="#F3FFAB" cx="166.804" cy="133.607" r="1.811"/>
			<circle fill="#99AF4A" cx="99.036" cy="139.361" r="1.812"/>
			<circle fill="#99AF4A" cx="86.369" cy="208.902" r="1.811"/>
			<circle fill="#99AF4A" cx="313.662" cy="96.277" r="1.811"/>
			<circle fill="#99AF4A" cx="366.358" cy="204.125" r="1.811"/>
			<circle fill="#99AF4A" cx="381.563" cy="257.443" r="1.811"/>
			<circle fill="#99AF4A" cx="254.093" cy="96.144" r="1.811"/>
			<circle fill="#99AF4A" cx="298.038" cy="138.039" r="1.811"/>
			<circle fill="#99AF4A" cx="334.661" cy="166.683" r="1.811"/>
			<circle fill="#99AF4A" cx="211.072" cy="346.961" r="1.811"/>
			<circle fill="#99AF4A" cx="200.045" cy="263.442" r="1.812"/>
			<circle fill="#F3FFAB" cx="113.818" cy="196.295" r="1.811"/>
			<circle fill="#F3FFAB" cx="132.915" cy="262.697" r="1.811"/>
			<circle fill="#F3FFAB" cx="241.02" cy="248.537" r="1.813"/>
			<circle fill="#F3FFAB" cx="232.045" cy="166.143" r="1.812"/>
			<circle fill="#F3FFAB" cx="104.923" cy="175.949" r="1.811"/>
			<circle fill="#F3FFAB" cx="88.837" cy="198.352" r="1.811"/>
		</g>
		<g>
			<path fill="#2A3013" d="M439.36,175.625c0,4.282,3.472,7.754,7.754,7.754l0,0c4.283,0,7.755-3.472,7.755-7.754v-46.849
				c0-4.283-3.472-7.755-7.755-7.755l0,0c-4.282,0-7.754,3.472-7.754,7.755V175.625z"/>
			<path fill="#F3FFAB" d="M415.183,131.456c0,1.001,0.812,1.812,1.813,1.812h19.163c1.002,0,1.814-0.811,1.814-1.812l0,0
				c0-1.002-0.813-1.813-1.814-1.813h-19.163C415.994,129.643,415.183,130.454,415.183,131.456L415.183,131.456z"/>
			<path fill="#2A3013" d="M459.348,120.763c0,1.252-1.017,2.268-2.27,2.268h-23.504c-1.254,0-2.27-1.016-2.27-2.268l0,0
				c0-1.255,1.016-2.27,2.27-2.27h23.504C458.332,118.493,459.348,119.508,459.348,120.763L459.348,120.763z"/>
			<path fill="#2A3013" d="M454.868,129.985c0-8.565-6.942-15.509-15.509-15.509l0,0c-8.564,0-15.509,6.944-15.509,15.509l0,0
				c0,8.564,6.943,15.508,15.509,15.508l0,0C447.925,145.493,454.868,138.549,454.868,129.985L454.868,129.985z"/>
			<path fill="#F3FFAB" d="M447.413,129.985c0-4.448-3.605-8.055-8.054-8.055l0,0c-4.448,0-8.054,3.607-8.054,8.055l0,0
				c0,4.448,3.604,8.054,8.054,8.054l0,0C443.807,138.039,447.413,134.433,447.413,129.985L447.413,129.985z"/>
			<path fill="#DB7752" d="M442.29,129.985c0-1.619-1.313-2.931-2.931-2.931l0,0c-1.619,0-2.931,1.312-2.931,2.931l0,0
				c0,1.619,1.312,2.93,2.931,2.93l0,0C440.978,132.915,442.29,131.604,442.29,129.985L442.29,129.985z"/>
			<path fill="#2A3013" d="M467.403,116.746c0,1.252-1.017,2.269-2.271,2.269h-23.503c-1.254,0-2.271-1.016-2.271-2.269l0,0
				c0-1.254,1.017-2.271,2.271-2.271h23.503C466.386,114.476,467.403,115.492,467.403,116.746L467.403,116.746z"/>
			<path fill="#2A3013" d="M449.666,201.523c0,1.437,1.164,2.602,2.602,2.602l0,0c1.437,0,2.601-1.165,2.601-2.602v-26.723
				c0-1.436-1.164-2.6-2.601-2.6l0,0c-1.438,0-2.602,1.164-2.602,2.6V201.523z"/>
		</g>
		<path fill="#DB7752" d="M425.165,174.496c0,0.781,0.635,1.416,1.415,1.416l0,0c0.781,0,1.415-0.634,1.415-1.416v-6.397
			c0-0.78-0.634-1.415-1.415-1.415l0,0c-0.78,0-1.415,0.635-1.415,1.415V174.496z"/>
		<path fill="#2A3013" d="M84.372,102.165c1.799,1.266,4.283,0.835,5.551-0.964l0,0c1.266-1.8,0.834-4.285-0.965-5.551
			l-76.32-53.723c-1.8-1.266-4.285-0.834-5.552,0.965l0,0c-1.268,1.799-0.834,4.285,0.965,5.551L84.372,102.165z"/>
		<path fill="#2A3013" d="M69.559,90.038c1.218-0.348,1.925-1.616,1.578-2.835l0,0c-0.346-1.218-1.616-1.926-2.834-1.578
			l-23.128,5.278c-1.22,0.347-1.926,1.616-1.579,2.835l0,0c0.347,1.219,1.616,1.925,2.835,1.578L69.559,90.038z"/>
		<path fill="#2A3013" d="M33.843,63.634c1.218-0.349,1.925-1.616,1.579-2.835l0,0c-0.347-1.218-1.617-1.926-2.835-1.579
			L9.458,64.499c-1.221,0.348-1.926,1.617-1.579,2.835l0,0c0.346,1.219,1.616,1.925,2.835,1.577L33.843,63.634z"/>
		<path fill="#2A3013" d="M51.079,75.051c0.557,1.138,1.93,1.611,3.067,1.054l0,0c1.139-0.555,1.611-1.93,1.056-3.069l-9.274-21.834
			c-0.557-1.139-1.93-1.611-3.069-1.054l0,0c-1.139,0.556-1.609,1.931-1.053,3.068L51.079,75.051z"/>
		<path fill="#2A3013" d="M392.955,95.416l8.228-7.024c6.096-5.205,6.817-14.365,1.613-20.461l0,0
			c-5.205-6.095-14.365-6.817-20.461-1.613l-8.228,7.024"/>
		<g>
			<g>
				<circle fill="#505B2F" cx="327.852" cy="90.759" r="6.811"/>
			</g>
			<g>
				<circle fill="#505B2F" cx="300.527" cy="91.977" r="4.323"/>
			</g>
			<g>
				<circle fill="#505B2F" cx="368.169" cy="113.7" r="4.323"/>
			</g>
			<g>
				<circle fill="#505B2F" cx="142.328" cy="93.664" r="4.323"/>
			</g>
			<g>
				<circle fill="#505B2F" cx="128.487" cy="113.7" r="4.323"/>
			</g>
			<g>
				<circle fill="#505B2F" cx="217.692" cy="332.524" r="4.323"/>
			</g>
			<g>
				<circle fill="#505B2F" cx="173.575" cy="329.227" r="4.323"/>
			</g>
			<g>
				<circle fill="#505B2F" cx="148.674" cy="109.376" r="2.539"/>
			</g>
			<g>
				<circle fill="#505B2F" cx="209.261" cy="79.128" r="2.539"/>
			</g>
			<g>
				<circle fill="#505B2F" cx="211.072" cy="55.863" r="2.538"/>
			</g>
			<g>
				<circle fill="#505B2F" cx="325.796" cy="116.081" r="2.539"/>
			</g>
			<g>
				<circle fill="#505B2F" cx="374.109" cy="163.061" r="2.538"/>
			</g>
			<g>
				<circle fill="#505B2F" cx="327.852" cy="139.848" r="2.539"/>
			</g>
			<g>
				<circle fill="#505B2F" cx="355.639" cy="88.553" r="2.538"/>
			</g>
			<g>
				<circle fill="#505B2F" cx="352.342" cy="104.437" r="2.539"/>
			</g>
			<g>
				<circle fill="#505B2F" cx="300.527" cy="72.046" r="2.538"/>
			</g>
			<g>
				<circle fill="#505B2F" cx="94.813" cy="141.171" r="2.538"/>
			</g>
			<g>
				<circle fill="#505B2F" cx="86.369" cy="178.947" r="2.538"/>
			</g>
			<g>
				<circle fill="#505B2F" cx="220.114" cy="356.831" r="2.539"/>
			</g>
			<g>
				<circle fill="#505B2F" cx="111.758" cy="181.878" r="2.539"/>
			</g>
			<g>
				<circle fill="#505B2F" cx="233.531" cy="346.959" r="2.539"/>
			</g>
			<g>
				<circle fill="#505B2F" cx="280.579" cy="337.926" r="2.538"/>
			</g>
			<g>
				<circle fill="#505B2F" cx="206.723" cy="344.422" r="2.539"/>
			</g>
			<g>
				<circle fill="#505B2F" cx="185.99" cy="345.149" r="2.538"/>
			</g>
			<g>
				<circle fill="#505B2F" cx="124.498" cy="95.415" r="2.539"/>
			</g>
			<g>
				<circle fill="#505B2F" cx="112.007" cy="120.761" r="2.538"/>
			</g>
			<g>
				<circle fill="#505B2F" cx="171.036" cy="65.635" r="2.539"/>
			</g>
			<g>
				<circle fill="#505B2F" cx="361.25" cy="134.753" r="6.812"/>
			</g>
			<g>
				<circle fill="#505B2F" cx="101.625" cy="162.143" r="6.812"/>
			</g>
			<g>
				<circle fill="#505B2F" cx="260.114" cy="349.499" r="6.812"/>
			</g>
			<g>
				<circle fill="#505B2F" cx="190.131" cy="65.636" r="6.812"/>
			</g>
		</g>
		<g>
			<g>
				
					<rect x="174.58" y="5.255" transform="matrix(0.9564 -0.2922 0.2922 0.9564 3.4741 52.1163)" fill="#2A3013" width="3.289" height="18.344"/>
				
					<rect x="174.58" y="5.255" transform="matrix(0.9564 -0.2922 0.2922 0.9564 3.4741 52.1163)" fill="none" stroke="#2A3013" stroke-width="1.7349" stroke-miterlimit="10" width="3.289" height="18.344"/>
			</g>
			<circle fill="#BEA5E5" cx="173.543" cy="5.652" r="5.651"/>
		</g>
		<g>
			<g>
				
					<rect x="425.937" y="241.58" transform="matrix(-0.385 0.9229 -0.9229 -0.385 826.2986 -44.5424)" fill="#2A3013" width="4.107" height="22.913"/>
				
					<rect x="425.937" y="241.58" transform="matrix(-0.385 0.9229 -0.9229 -0.385 826.2986 -44.5424)" fill="none" stroke="#2A3013" stroke-width="1.7349" stroke-miterlimit="10" width="4.107" height="22.913"/>
			</g>
			<circle fill="#F3FFAB" cx="438.569" cy="257.442" r="7.057"/>
		</g>
		<g>
			<g>
				
					<rect x="68.21" y="276.843" transform="matrix(-0.5452 -0.8383 0.8383 -0.5452 -130.409 496.2072)" fill="#2A3013" width="2.379" height="13.272"/>
				
					<rect x="68.21" y="276.843" transform="matrix(-0.5452 -0.8383 0.8383 -0.5452 -130.409 496.2072)" fill="none" stroke="#2A3013" stroke-width="1.7349" stroke-miterlimit="10" width="2.379" height="13.272"/>
			</g>
			<circle fill="#F3FFAB" cx="63.833" cy="287.097" r="4.088"/>
		</g>
		
			<path fill="none" stroke="#F3FFAB" stroke-width="20.8191" stroke-linecap="round" stroke-linejoin="round" stroke-miterlimit="10" d="
			M361.25,134.753"/>
		
			<path fill="none" stroke="#F3FFAB" stroke-width="20.8191" stroke-linecap="round" stroke-linejoin="round" stroke-miterlimit="10" d="
			M101.625,162.143c0,0,3.334-17.211,22.874-14.907"/>
	</g>
	<circle fill="#2A3013" cx="239.808" cy="196.295" r="186.332"/>
	<g>
		<path fill="#2A3013" d="M239.808,15.841c24.367,0,47.998,4.77,70.236,14.175c21.486,9.088,40.786,22.102,57.363,38.679
			c16.576,16.577,29.591,35.878,38.68,57.364c9.405,22.239,14.175,45.87,14.175,70.236c0,24.368-4.77,47.998-14.175,70.236
			c-9.089,21.486-22.104,40.787-38.68,57.363c-16.577,16.578-35.877,29.592-57.362,38.68c-22.239,9.406-45.87,14.175-70.237,14.175
			c-24.366,0-47.998-4.769-70.236-14.175c-21.486-9.088-40.786-22.102-57.363-38.68c-16.577-16.576-29.59-35.877-38.679-57.362
			c-9.405-22.239-14.175-45.87-14.175-70.237s4.77-47.998,14.175-70.236c9.089-21.486,22.102-40.788,38.679-57.364
			c16.577-16.576,35.877-29.59,57.363-38.679C191.81,20.61,215.442,15.841,239.808,15.841"/>
	</g>
	
		<linearGradient id="SVGID_1_" gradientUnits="userSpaceOnUse" x1="248.1672" y1="364.9883" x2="248.1672" y2="129.8652" gradientTransform="matrix(1 0 0 -1 -8.3599 409.8906)">
		<stop  offset="0" style="stop-color:#73FFD0"/>
		<stop  offset="0.9946" style="stop-color:#FF9999"/>
	</linearGradient>
	<path fill="url(#SVGID_1_)" d="M239.808,366.945c-45.582,0-88.436-17.752-120.667-49.981
		c-32.229-32.231-49.981-75.086-49.981-120.668s17.751-88.435,49.981-120.667c32.231-32.231,75.085-49.982,120.667-49.982
		c45.581,0,88.435,17.751,120.667,49.982c32.229,32.232,49.981,75.085,49.981,120.667s-17.752,88.437-49.981,120.668
		C328.243,349.193,285.389,366.945,239.808,366.945z"/>
	<g>
		<g>
			<defs>
				<path id="SVGID_2_" d="M239.808,366.945c-45.582,0-88.436-17.752-120.667-49.981c-32.229-32.231-49.981-75.086-49.981-120.668
					s17.751-88.435,49.981-120.667c32.231-32.231,75.085-49.982,120.667-49.982c45.581,0,88.435,17.751,120.667,49.982
					c32.229,32.232,49.981,75.085,49.981,120.667s-17.752,88.437-49.981,120.668C328.243,349.193,285.389,366.945,239.808,366.945z"
					/>
			</defs>
			<clipPath id="SVGID_3_">
				<use xlink:href="#SVGID_2_"  overflow="visible"/>
			</clipPath>
			<g opacity="0.5" clip-path="url(#SVGID_3_)">
				<circle fill="#F3FFAB" cx="219.863" cy="219.363" r="1.225"/>
				<circle fill="#DB7752" cx="217.555" cy="211.382" r="1.225"/>
				<circle fill="#F3FFAB" cx="207.592" cy="219.449" r="1.225"/>
				<circle fill="#DB7752" cx="205.483" cy="227.032" r="1.225"/>
				<circle fill="#F3FFAB" cx="204.864" cy="236.858" r="1.225"/>
				<circle fill="#F3FFAB" cx="230.098" cy="242.929" r="1.225"/>
				<circle fill="#DB7752" cx="222.75" cy="239.393" r="1.226"/>
				<circle fill="#F3FFAB" cx="218.396" cy="245.121" r="1.227"/>
				<circle fill="#DB7752" cx="224.717" cy="249.275" r="1.225"/>
				<circle fill="#DB7752" cx="209.467" cy="240.073" r="1.226"/>
				<circle fill="#F3FFAB" cx="205.921" cy="246.664" r="1.227"/>
				<circle fill="#F3FFAB" cx="227.818" cy="229.46" r="1.226"/>
				<circle fill="#DB7752" cx="220.689" cy="225.913" r="1.226"/>
				<g>
					<path fill="#6B2A2A" d="M216.108,260.256c0.031,0.645-0.465,1.194-1.109,1.227l0,0c-0.646,0.031-1.193-0.465-1.227-1.108
						l-2.634-51.134c-0.032-0.646,0.465-1.193,1.109-1.225l0,0c0.645-0.033,1.192,0.465,1.226,1.108L216.108,260.256z"/>
					<path fill="#6B2A2A" d="M215.176,237.745c-0.226,0.249-0.61,0.269-0.859,0.043l0,0c-0.25-0.228-0.27-0.611-0.043-0.861
						l11.187-12.35c0.227-0.249,0.61-0.269,0.859-0.042l0,0c0.25,0.226,0.27,0.611,0.043,0.859L215.176,237.745z"/>
					<path fill="#6B2A2A" d="M222.467,229.27c-0.162-0.013-0.284-0.154-0.271-0.316l0,0c0.014-0.163,0.154-0.285,0.317-0.273
						l4.879,0.459c0.162,0.012,0.284,0.154,0.271,0.317l0,0c-0.014,0.163-0.154,0.284-0.317,0.272L222.467,229.27z"/>
					<path fill="#6B2A2A" d="M214.837,219.227c-0.163-0.012-0.285-0.153-0.272-0.315l0,0c0.014-0.163,0.154-0.285,0.317-0.271
						l4.878,0.457c0.163,0.014,0.285,0.154,0.272,0.316l0,0c-0.014,0.163-0.154,0.284-0.317,0.271L214.837,219.227z"/>
					<path fill="#6B2A2A" d="M220.614,231.23c-0.009,0.162-0.146,0.289-0.31,0.281l0,0c-0.163-0.009-0.288-0.146-0.28-0.311
						l0.324-4.891c0.008-0.162,0.146-0.289,0.31-0.279l0,0c0.162,0.007,0.288,0.146,0.279,0.31L220.614,231.23z"/>
					<path fill="#6B2A2A" d="M217.556,216.507c-0.008,0.162-0.146,0.288-0.309,0.28l0,0c-0.164-0.008-0.289-0.146-0.28-0.311
						l0.323-4.889c0.008-0.164,0.146-0.29,0.31-0.281l0,0c0.163,0.008,0.288,0.146,0.28,0.311L217.556,216.507z"/>
					<path fill="#6B2A2A" d="M208.511,224.393c0.024,0.162-0.087,0.313-0.248,0.336l0,0c-0.161,0.023-0.312-0.086-0.336-0.248
						l-0.646-4.857c-0.023-0.162,0.088-0.313,0.249-0.336l0,0c0.161-0.025,0.313,0.086,0.337,0.248L208.511,224.393z"/>
					<path fill="#6B2A2A" d="M210.343,244.961c0.023,0.16-0.087,0.311-0.248,0.335l0,0c-0.162,0.024-0.313-0.087-0.336-0.247
						l-0.646-4.857c-0.023-0.161,0.088-0.313,0.248-0.338l0,0c0.161-0.022,0.313,0.088,0.336,0.25L210.343,244.961z"/>
					<path fill="#6B2A2A" d="M205.809,241.825c0.024,0.161-0.087,0.313-0.249,0.336l0,0c-0.161,0.024-0.311-0.086-0.335-0.248
						l-0.646-4.856c-0.024-0.162,0.087-0.313,0.248-0.337l0,0c0.161-0.022,0.312,0.089,0.336,0.249L205.809,241.825z"/>
					<path fill="#6B2A2A" d="M222.666,244.65c-0.009,0.164-0.146,0.289-0.312,0.281l0,0c-0.162-0.008-0.287-0.146-0.279-0.31
						l0.323-4.89c0.009-0.162,0.146-0.289,0.311-0.281l0,0c0.164,0.01,0.289,0.146,0.279,0.311L222.666,244.65z"/>
					<path fill="#6B2A2A" d="M218.264,250.311c-0.009,0.164-0.146,0.289-0.31,0.281l0,0c-0.163-0.008-0.289-0.146-0.28-0.309
						l0.323-4.891c0.009-0.164,0.146-0.289,0.31-0.281l0,0c0.163,0.009,0.289,0.146,0.28,0.311L218.264,250.311z"/>
					<path fill="#6B2A2A" d="M218.125,233.895c-0.163-0.013-0.285-0.153-0.272-0.317l0,0c0.014-0.161,0.154-0.283,0.317-0.271
						l4.878,0.457c0.163,0.014,0.285,0.155,0.271,0.317l0,0c-0.013,0.162-0.153,0.284-0.316,0.272L218.125,233.895z"/>
					<path fill="#6B2A2A" d="M205.726,227.348c-0.162,0.022-0.312-0.09-0.334-0.252l0,0c-0.021-0.162,0.09-0.311,0.252-0.334
						l4.863-0.599c0.161-0.022,0.311,0.09,0.333,0.251l0,0c0.022,0.162-0.089,0.311-0.251,0.333L205.726,227.348z"/>
					<path fill="#6B2A2A" d="M206.039,246.913c-0.162,0.021-0.313-0.09-0.334-0.252l0,0c-0.022-0.162,0.09-0.312,0.251-0.334
						l4.863-0.601c0.161-0.021,0.312,0.09,0.333,0.252l0,0c0.023,0.162-0.089,0.312-0.251,0.334L206.039,246.913z"/>
					<path fill="#6B2A2A" d="M198.222,241.486c-0.161,0.021-0.312-0.09-0.333-0.252l0,0c-0.022-0.161,0.09-0.311,0.251-0.334
						l4.863-0.6c0.161-0.021,0.311,0.09,0.333,0.252l0,0c0.022,0.162-0.089,0.313-0.251,0.334L198.222,241.486z"/>
					<path fill="#6B2A2A" d="M224.987,242.736c-0.162-0.014-0.283-0.154-0.271-0.317l0,0c0.013-0.162,0.155-0.284,0.317-0.271
						l4.879,0.459c0.161,0.012,0.283,0.153,0.271,0.315l0,0c-0.013,0.162-0.154,0.285-0.317,0.271L224.987,242.736z"/>
					<path fill="#6B2A2A" d="M219.651,249.261c-0.162-0.013-0.283-0.155-0.271-0.317l0,0c0.013-0.162,0.155-0.283,0.316-0.271
						l4.88,0.457c0.162,0.015,0.283,0.155,0.271,0.318l0,0c-0.013,0.161-0.154,0.284-0.317,0.271L219.651,249.261z"/>
					<path fill="#6B2A2A" d="M214.528,247.635c0.275,0.193,0.344,0.572,0.149,0.848l0,0c-0.193,0.277-0.572,0.345-0.848,0.15
						l-13.648-9.559c-0.276-0.193-0.343-0.573-0.15-0.85l0,0c0.193-0.275,0.573-0.343,0.849-0.148L214.528,247.635z"/>
					<path fill="#6B2A2A" d="M214.015,220.615c-0.226,0.25-0.61,0.269-0.859,0.043l0,0c-0.248-0.227-0.269-0.611-0.043-0.861
						l6.513-7.094c0.226-0.249,0.609-0.268,0.858-0.042l0,0c0.25,0.226,0.27,0.61,0.043,0.86L214.015,220.615z"/>
					<path fill="#6B2A2A" d="M213.397,227.443c0.275,0.192,0.342,0.572,0.148,0.848l0,0c-0.193,0.275-0.573,0.342-0.85,0.148
						l-7.844-5.584c-0.274-0.192-0.343-0.572-0.148-0.848l0,0c0.192-0.275,0.572-0.341,0.849-0.148L213.397,227.443z"/>
					<path fill="#6B2A2A" d="M215.599,253.585c-0.226,0.249-0.61,0.269-0.858,0.042l0,0c-0.25-0.225-0.27-0.609-0.044-0.859
						l11.187-12.351c0.227-0.249,0.611-0.269,0.86-0.043l0,0c0.25,0.228,0.269,0.61,0.043,0.86L215.599,253.585z"/>
				</g>
			</g>
		</g>
		<g>
			<defs>
				<path id="SVGID_4_" d="M239.808,366.945c-45.582,0-88.436-17.752-120.667-49.981c-32.229-32.231-49.981-75.086-49.981-120.668
					s17.751-88.435,49.981-120.667c32.231-32.231,75.085-49.982,120.667-49.982c45.581,0,88.435,17.751,120.667,49.982
					c32.229,32.232,49.981,75.085,49.981,120.667s-17.752,88.437-49.981,120.668C328.243,349.193,285.389,366.945,239.808,366.945z"
					/>
			</defs>
			<clipPath id="SVGID_5_">
				<use xlink:href="#SVGID_4_"  overflow="visible"/>
			</clipPath>
			<g opacity="0.8" clip-path="url(#SVGID_5_)">
				<path fill="#FFFFFF" d="M286.198,94.067c0,3.931,3.188,7.117,7.117,7.117h47.247c3.931,0,7.117-3.187,7.117-7.117l0,0
					c0-3.931-3.188-7.117-7.117-7.117h-47.247C289.384,86.95,286.198,90.136,286.198,94.067L286.198,94.067z"/>
				<path fill="#FFFFFF" d="M294.979,84.568c0,1.971,1.599,3.569,3.568,3.569h23.688c1.971,0,3.568-1.598,3.568-3.569l0,0
					c0-1.971-1.599-3.568-3.568-3.568h-23.688C296.577,81,294.979,82.597,294.979,84.568L294.979,84.568z"/>
				<g>
					<path fill="#FFFFFF" d="M145.03,94.422c0,3.93,3.188,7.117,7.118,7.117h47.246c3.932,0,7.118-3.187,7.118-7.117l0,0
						c0-3.932-3.188-7.118-7.118-7.118h-47.246C148.216,87.305,145.03,90.491,145.03,94.422L145.03,94.422z"/>
					<path fill="#FFFFFF" d="M122.299,101.54c0,2.906,2.355,5.262,5.263,5.262h34.937c2.906,0,5.264-2.356,5.264-5.262l0,0
						c0-2.908-2.356-5.263-5.264-5.263h-34.937C124.656,96.277,122.299,98.632,122.299,101.54L122.299,101.54z"/>
					<path fill="#FFFFFF" d="M163.861,84.924c0,1.97,1.6,3.568,3.569,3.568h23.689c1.971,0,3.567-1.598,3.567-3.568l0,0
						c0-1.972-1.598-3.57-3.567-3.57H167.43C165.459,81.354,163.861,82.952,163.861,84.924L163.861,84.924z"/>
				</g>
				<g>
					<path fill="#FFFFFF" d="M289.663,135.909c0,5.606-4.546,10.152-10.153,10.152h-67.396c-5.606,0-10.151-4.546-10.151-10.152l0,0
						c0-5.609,4.545-10.153,10.151-10.153h67.396C285.117,125.755,289.663,130.3,289.663,135.909L289.663,135.909z"/>
					<path fill="#FFFFFF" d="M322.087,146.061c0,4.146-3.361,7.507-7.509,7.507h-49.834c-4.146,0-7.509-3.361-7.509-7.507l0,0
						c0-4.147,3.362-7.507,7.509-7.507h49.834C318.726,138.554,322.087,141.914,322.087,146.061L322.087,146.061z"/>
					<path fill="#FFFFFF" d="M228.426,142.335c0,4.146-3.362,7.507-7.508,7.507h-49.835c-4.146,0-7.508-3.361-7.508-7.507l0,0
						c0-4.147,3.36-7.508,7.508-7.508h49.835C225.064,134.827,228.426,138.188,228.426,142.335L228.426,142.335z"/>
					<path fill="#FFFFFF" d="M262.8,122.358c0,2.811-2.279,5.09-5.091,5.09h-33.793c-2.813,0-5.091-2.279-5.091-5.09l0,0
						c0-2.813,2.278-5.091,5.091-5.091h33.793C260.521,117.268,262.8,119.545,262.8,122.358L262.8,122.358z"/>
				</g>
				<g>
					<path fill="#FFFFFF" d="M470.682,178.251c0,5.606-4.546,10.152-10.153,10.152h-67.396c-5.607,0-10.153-4.546-10.153-10.152l0,0
						c0-5.608,4.546-10.153,10.153-10.153h67.396C466.136,168.098,470.682,172.643,470.682,178.251L470.682,178.251z"/>
					<path fill="#FFFFFF" d="M503.107,188.403c0,4.146-3.361,7.507-7.507,7.507h-49.836c-4.146,0-7.508-3.361-7.508-7.507l0,0
						c0-4.147,3.361-7.506,7.508-7.506H495.6C499.745,180.896,503.107,184.256,503.107,188.403L503.107,188.403z"/>
					<path fill="#FFFFFF" d="M409.446,184.677c0,4.146-3.361,7.507-7.508,7.507h-49.835c-4.146,0-7.508-3.361-7.508-7.507l0,0
						c0-4.146,3.36-7.507,7.508-7.507h49.835C406.082,177.17,409.446,180.53,409.446,184.677L409.446,184.677z"/>
					<path fill="#FFFFFF" d="M443.82,164.701c0,2.811-2.278,5.09-5.091,5.09h-33.793c-2.813,0-5.091-2.279-5.091-5.09l0,0
						c0-2.813,2.278-5.091,5.091-5.091h33.793C441.54,159.609,443.82,161.888,443.82,164.701L443.82,164.701z"/>
				</g>
				<path fill="#FFFFFF" d="M341.767,141.856c0,1.97,1.598,3.569,3.568,3.569h23.689c1.971,0,3.568-1.599,3.568-3.569l0,0
					c0-1.971-1.599-3.569-3.568-3.569h-23.689C343.365,138.287,341.767,139.885,341.767,141.856L341.767,141.856z"/>
				<path fill="#FFFFFF" d="M189.742,59.801c0,1.97,1.598,3.569,3.567,3.569H217c1.971,0,3.568-1.599,3.568-3.569l0,0
					c0-1.972-1.599-3.569-3.568-3.569h-23.69C191.339,56.232,189.742,57.83,189.742,59.801L189.742,59.801z"/>
				<path fill="#FFFFFF" d="M255.983,58.117c0,0.93,0.754,1.683,1.686,1.683h11.181c0.93,0,1.685-0.753,1.685-1.683l0,0
					c0-0.931-0.755-1.685-1.685-1.685h-11.181C256.737,56.432,255.983,57.187,255.983,58.117L255.983,58.117z"/>
			</g>
		</g>
		<g>
			<defs>
				<path id="SVGID_6_" d="M239.808,366.945c-45.582,0-88.436-17.752-120.667-49.981c-32.229-32.231-49.981-75.086-49.981-120.668
					s17.751-88.435,49.981-120.667c32.231-32.231,75.085-49.982,120.667-49.982c45.581,0,88.435,17.751,120.667,49.982
					c32.229,32.232,49.981,75.085,49.981,120.667s-17.752,88.437-49.981,120.668C328.243,349.193,285.389,366.945,239.808,366.945z"
					/>
			</defs>
			<clipPath id="SVGID_7_">
				<use xlink:href="#SVGID_6_"  overflow="visible"/>
			</clipPath>
			<g clip-path="url(#SVGID_7_)">
				<g>
					<g>
						<path fill="#C67777" d="M361.481,193.117c0.208-1.035-0.463-2.044-1.498-2.253l0,0c-1.036-0.208-2.045,0.462-2.253,1.498
							l-16.272,80.805c-0.207,1.035,0.463,2.045,1.497,2.253l0,0c1.036,0.208,2.046-0.462,2.255-1.497L361.481,193.117z"/>
					</g>
					<g>
						<path fill="#C67777" d="M348.862,262.959c-1.099,0-2.213-0.109-3.33-0.334c-4.411-0.889-8.213-3.439-10.704-7.188
							c-2.49-3.748-3.374-8.242-2.484-12.652c0.069-0.348,0.408-0.574,0.757-0.502c0.349,0.07,0.573,0.408,0.503,0.756
							c-0.82,4.074-0.005,8.225,2.296,11.688c2.302,3.461,5.813,5.818,9.887,6.64c8.412,1.692,16.635-3.771,18.327-12.183
							c0.07-0.349,0.408-0.576,0.757-0.504c0.349,0.07,0.573,0.41,0.503,0.758C363.763,257.425,356.716,262.959,348.862,262.959z"/>
					</g>
					<g>
						<path fill="#C67777" d="M351.289,245.525c-0.754,0-1.513-0.074-2.27-0.228c-6.147-1.237-10.143-7.247-8.903-13.396
							c0.069-0.35,0.407-0.573,0.756-0.504c0.349,0.07,0.573,0.41,0.504,0.758c-1.099,5.453,2.444,10.783,7.898,11.882
							c2.642,0.533,5.332,0.003,7.576-1.488c2.245-1.491,3.772-3.769,4.306-6.411c0.07-0.347,0.408-0.572,0.757-0.502
							s0.573,0.408,0.503,0.756c-0.6,2.979-2.322,5.547-4.854,7.228C355.674,244.875,353.506,245.525,351.289,245.525z"/>
					</g>
					<g>
						<path fill="#C67777" d="M355.065,224.715c-0.619,0-1.241-0.063-1.861-0.188c-2.442-0.492-4.549-1.906-5.929-3.981
							c-1.38-2.076-1.869-4.565-1.377-7.008c0.07-0.347,0.409-0.573,0.757-0.503c0.349,0.07,0.573,0.408,0.504,0.757
							c-0.425,2.106-0.003,4.253,1.188,6.042c1.188,1.791,3.005,3.01,5.111,3.434c2.106,0.426,4.254,0.002,6.043-1.187
							c1.789-1.19,3.01-3.006,3.434-5.113c0.07-0.348,0.408-0.575,0.757-0.503c0.348,0.07,0.573,0.409,0.503,0.758
							c-0.491,2.443-1.906,4.549-3.98,5.928C358.662,224.182,356.883,224.715,355.065,224.715z"/>
					</g>
					<g>
						<path fill="#C67777" d="M358.09,207.881c-0.496,0-1-0.049-1.504-0.15c-4.113-0.828-6.785-4.848-5.956-8.959
							c0.068-0.349,0.406-0.574,0.756-0.504c0.348,0.07,0.573,0.409,0.503,0.756c-0.688,3.418,1.532,6.76,4.95,7.447
							c3.418,0.69,6.759-1.531,7.446-4.949c0.069-0.349,0.408-0.574,0.758-0.504c0.348,0.071,0.572,0.41,0.503,0.758
							C364.82,205.382,361.637,207.881,358.09,207.881z"/>
					</g>
					<g>
						<path fill="#C67777" d="M335.528,255.958c-0.043,0-0.085-0.004-0.128-0.013c-0.348-0.069-0.573-0.408-0.503-0.756l1.313-6.522
							c0.069-0.349,0.407-0.574,0.757-0.504c0.348,0.069,0.572,0.407,0.503,0.757l-1.313,6.521
							C336.095,255.748,335.826,255.958,335.528,255.958z"/>
					</g>
					<g>
						<path fill="#C67777" d="M354.791,261.829c-0.041,0-0.085-0.004-0.127-0.015c-0.349-0.068-0.573-0.407-0.504-0.756l1.367-6.787
							c0.07-0.349,0.408-0.576,0.757-0.504c0.349,0.07,0.572,0.41,0.503,0.758l-1.365,6.787
							C355.36,261.618,355.092,261.829,354.791,261.829z"/>
					</g>
					<g>
						<path fill="#C67777" d="M366.957,255.499c-0.043,0-0.085-0.004-0.128-0.013l-3.974-0.799c-0.348-0.07-0.573-0.41-0.503-0.758
							c0.069-0.348,0.409-0.574,0.757-0.504l3.975,0.801c0.348,0.07,0.572,0.409,0.503,0.758
							C367.525,255.289,367.257,255.499,366.957,255.499z"/>
					</g>
					<g>
						<path fill="#C67777" d="M339.529,260.006c-0.043,0-0.085-0.005-0.128-0.014l-5.73-1.154c-0.349-0.07-0.573-0.408-0.503-0.756
							c0.069-0.35,0.407-0.573,0.757-0.503l5.73,1.153c0.349,0.069,0.573,0.408,0.503,0.757
							C340.096,259.795,339.828,260.006,339.529,260.006z"/>
					</g>
					<g>
						<path fill="#C67777" d="M360.531,240.209c-0.043,0-0.085-0.004-0.128-0.014l-4.293-0.864
							c-0.348-0.069-0.573-0.407-0.503-0.757c0.069-0.348,0.409-0.574,0.757-0.502l4.293,0.863c0.349,0.069,0.573,0.408,0.503,0.758
							C361.098,239.999,360.829,240.209,360.531,240.209z"/>
					</g>
					<g>
						<path fill="#C67777" d="M358.937,245.178c-0.042,0-0.085-0.004-0.128-0.012l-3.183-0.643
							c-0.349-0.068-0.573-0.408-0.504-0.756c0.069-0.349,0.407-0.574,0.757-0.504l3.184,0.642c0.348,0.071,0.573,0.409,0.503,0.757
							C359.504,244.969,359.237,245.178,358.937,245.178z"/>
					</g>
					<g>
						<path fill="#C67777" d="M340.868,237.453c-0.208,0-0.412-0.102-0.536-0.287c-0.195-0.296-0.115-0.693,0.181-0.891l3.652-2.43
							c0.297-0.197,0.694-0.117,0.892,0.18c0.197,0.296,0.116,0.693-0.179,0.892l-3.654,2.429
							C341.115,237.418,340.99,237.453,340.868,237.453z"/>
					</g>
					<g>
						<path fill="#C67777" d="M342.402,240.834c-0.042,0-0.085-0.004-0.128-0.014l-4.782-0.963
							c-0.348-0.069-0.572-0.408-0.503-0.756c0.069-0.35,0.408-0.574,0.756-0.504l4.783,0.963c0.35,0.069,0.573,0.409,0.503,0.758
							C342.969,240.624,342.701,240.834,342.402,240.834z"/>
					</g>
					<g>
						<path fill="#C67777" d="M364.954,221.182c-0.042,0-0.085-0.004-0.128-0.013l-2.563-0.517
							c-0.348-0.069-0.573-0.408-0.503-0.756c0.068-0.349,0.408-0.574,0.756-0.502l2.563,0.516c0.349,0.07,0.573,0.408,0.504,0.757
							C365.522,220.973,365.253,221.182,364.954,221.182z"/>
					</g>
					<g>
						<path fill="#C67777" d="M347.193,219.739c-0.042,0-0.085-0.005-0.127-0.013l-4.202-0.846
							c-0.348-0.068-0.573-0.408-0.503-0.756c0.069-0.348,0.408-0.575,0.757-0.503l4.201,0.846c0.348,0.07,0.573,0.409,0.503,0.757
							C347.76,219.529,347.492,219.739,347.193,219.739z"/>
					</g>
					<g>
						<path fill="#C67777" d="M348.883,222.146c-0.043,0-0.086-0.004-0.129-0.012c-0.348-0.07-0.572-0.408-0.503-0.757l0.567-2.819
							c0.07-0.347,0.409-0.57,0.757-0.502c0.349,0.069,0.573,0.408,0.503,0.756l-0.566,2.819
							C349.45,221.938,349.182,222.146,348.883,222.146z"/>
					</g>
					<g>
						<path fill="#C67777" d="M365.94,206.475c-0.043,0-0.085-0.005-0.128-0.014l-2.963-0.596c-0.348-0.071-0.573-0.41-0.502-0.756
							c0.068-0.35,0.408-0.574,0.756-0.504l2.963,0.597c0.348,0.069,0.572,0.409,0.503,0.757
							C366.507,206.264,366.239,206.475,365.94,206.475z"/>
					</g>
					<g>
						<path fill="#C67777" d="M351.913,204.135c-0.041,0-0.084-0.004-0.127-0.013l-2.646-0.533
							c-0.349-0.071-0.572-0.409-0.503-0.757s0.408-0.574,0.757-0.503l2.646,0.532c0.35,0.07,0.573,0.41,0.505,0.758
							C352.482,203.925,352.213,204.135,351.913,204.135z"/>
					</g>
				</g>
				<g>
					<line fill="none" x1="354.631" y1="215.782" x2="360.685" y2="211.757"/>
					<path fill="#C67777" d="M354.631,216.424c-0.207,0-0.412-0.1-0.535-0.285c-0.196-0.297-0.116-0.695,0.18-0.892l6.054-4.024
						c0.296-0.197,0.694-0.117,0.892,0.18c0.197,0.296,0.116,0.695-0.181,0.892l-6.054,4.024
						C354.877,216.389,354.754,216.424,354.631,216.424z"/>
				</g>
				<g>
					<line fill="none" x1="342.773" y1="248.629" x2="346.796" y2="254.684"/>
					<path fill="#C67777" d="M346.798,255.326c-0.209,0-0.412-0.102-0.536-0.287l-4.024-6.055c-0.196-0.295-0.116-0.693,0.179-0.891
						c0.297-0.197,0.694-0.115,0.893,0.18l4.023,6.055c0.196,0.295,0.116,0.693-0.18,0.892
						C347.043,255.292,346.919,255.326,346.798,255.326z"/>
				</g>
			</g>
		</g>
		<g>
			<defs>
				<path id="SVGID_8_" d="M239.808,366.945c-45.582,0-88.436-17.752-120.667-49.981c-32.229-32.231-49.981-75.086-49.981-120.668
					s17.751-88.435,49.981-120.667c32.231-32.231,75.085-49.982,120.667-49.982c45.581,0,88.435,17.751,120.667,49.982
					c32.229,32.232,49.981,75.085,49.981,120.667s-17.752,88.437-49.981,120.668C328.243,349.193,285.389,366.945,239.808,366.945z"
					/>
			</defs>
			<clipPath id="SVGID_9_">
				<use xlink:href="#SVGID_8_"  overflow="visible"/>
			</clipPath>
			<circle clip-path="url(#SVGID_9_)" fill="#994545" cx="242.831" cy="610.371" r="355.528"/>
		</g>
		<g>
			<defs>
				<path id="SVGID_10_" d="M239.808,366.945c-45.582,0-88.436-17.752-120.667-49.981c-32.229-32.231-49.981-75.086-49.981-120.668
					s17.751-88.435,49.981-120.667c32.231-32.231,75.085-49.982,120.667-49.982c45.581,0,88.435,17.751,120.667,49.982
					c32.229,32.232,49.981,75.085,49.981,120.667s-17.752,88.437-49.981,120.668C328.243,349.193,285.389,366.945,239.808,366.945z"
					/>
			</defs>
			<clipPath id="SVGID_11_">
				<use xlink:href="#SVGID_10_"  overflow="visible"/>
			</clipPath>
			<g clip-path="url(#SVGID_11_)">
				<circle fill="#F3FFAB" cx="130.157" cy="168.827" r="3.273"/>
				<circle fill="#DB7752" cx="121.96" cy="148.212" r="3.273"/>
				<circle fill="#F3FFAB" cx="97.566" cy="172.228" r="3.272"/>
				<circle fill="#DB7752" cx="93.921" cy="192.926" r="3.273"/>
				<circle fill="#F3FFAB" cx="94.813" cy="219.204" r="3.272"/>
				<circle fill="#F3FFAB" cx="163.449" cy="228.814" r="3.273"/>
				<circle fill="#DB7752" cx="143.006" cy="221.317" r="3.272"/>
				<circle fill="#F3FFAB" cx="132.916" cy="237.667" r="3.272"/>
				<circle fill="#DB7752" cx="150.79" cy="247.075" r="3.272"/>
				<circle fill="#DB7752" cx="107.879" cy="226.558" r="3.272"/>
				<circle fill="#F3FFAB" cx="100.156" cy="244.989" r="3.273"/>
				<circle fill="#F3FFAB" cx="153.909" cy="193.609" r="3.272"/>
				<circle fill="#DB7752" cx="134.044" cy="186.023" r="3.272"/>
				<g>
					<path fill="#6B2A2A" d="M130.744,278.484c0.252,1.707-0.928,3.293-2.634,3.546l0,0c-1.705,0.252-3.292-0.929-3.544-2.634
						l-20.216-135.221c-0.252-1.705,0.927-3.292,2.633-3.543l0,0c1.706-0.252,3.292,0.927,3.544,2.632L130.744,278.484z"/>
					<path fill="#6B2A2A" d="M122.451,218.895c-0.535,0.721-1.555,0.871-2.274,0.336l0,0c-0.721-0.537-0.872-1.556-0.336-2.276
						l26.539-35.715c0.535-0.72,1.555-0.871,2.273-0.335l0,0c0.723,0.536,0.872,1.554,0.338,2.274L122.451,218.895z"/>
					<path fill="#6B2A2A" d="M139.638,194.484c-0.435,0.009-0.795-0.336-0.805-0.772l0,0c-0.008-0.436,0.338-0.796,0.772-0.804
						l13.085-0.042c0.438-0.009,0.797,0.336,0.806,0.772l0,0c0.009,0.436-0.337,0.795-0.772,0.805L139.638,194.484z"/>
					<path fill="#6B2A2A" d="M116.762,169.765c-0.435,0.009-0.795-0.336-0.805-0.772l0,0c-0.008-0.436,0.338-0.795,0.772-0.804
						l13.085-0.042c0.438-0.01,0.796,0.336,0.806,0.773l0,0c0.009,0.435-0.337,0.795-0.772,0.804L116.762,169.765z"/>
					<path fill="#6B2A2A" d="M135.218,200.176c0.021,0.436-0.314,0.805-0.75,0.826l0,0c-0.435,0.02-0.805-0.316-0.825-0.75
						l-0.401-13.08c-0.021-0.435,0.314-0.805,0.75-0.825l0,0c0.435-0.021,0.805,0.315,0.824,0.75L135.218,200.176z"/>
					<path fill="#6B2A2A" d="M123.289,161.833c0.021,0.435-0.315,0.804-0.75,0.825l0,0c-0.437,0.021-0.806-0.315-0.825-0.75
						l-0.403-13.079c-0.021-0.436,0.315-0.805,0.751-0.826l0,0c0.436-0.021,0.805,0.315,0.825,0.75L123.289,161.833z"/>
					<path fill="#6B2A2A" d="M101.286,185.128c0.105,0.423-0.149,0.851-0.572,0.957l0,0c-0.422,0.105-0.852-0.15-0.956-0.572
						l-2.972-12.744c-0.105-0.422,0.15-0.852,0.572-0.958l0,0c0.422-0.106,0.852,0.151,0.957,0.574L101.286,185.128z"/>
					<path fill="#6B2A2A" d="M111.469,239.323c0.106,0.422-0.149,0.85-0.572,0.956l0,0c-0.422,0.104-0.852-0.151-0.957-0.573
						l-2.971-12.743c-0.106-0.423,0.15-0.852,0.573-0.958l0,0c0.422-0.106,0.851,0.151,0.957,0.573L111.469,239.323z"/>
					<path fill="#6B2A2A" d="M98.609,232.161c0.106,0.422-0.149,0.851-0.572,0.957l0,0c-0.423,0.104-0.852-0.15-0.956-0.572
						l-2.972-12.744c-0.105-0.423,0.15-0.852,0.572-0.958l0,0c0.423-0.105,0.852,0.151,0.957,0.573L98.609,232.161z"/>
					<path fill="#6B2A2A" d="M144.139,235.316c0.021,0.435-0.313,0.804-0.75,0.824l0,0c-0.435,0.021-0.805-0.313-0.825-0.75
						l-0.401-13.078c-0.021-0.437,0.314-0.807,0.75-0.826l0,0c0.436-0.021,0.805,0.314,0.824,0.75L144.139,235.316z"/>
					<path fill="#6B2A2A" d="M133.904,251.497c0.021,0.437-0.313,0.805-0.75,0.826l0,0c-0.435,0.02-0.805-0.316-0.824-0.75
						l-0.402-13.08c-0.021-0.437,0.315-0.806,0.75-0.825l0,0c0.436-0.021,0.805,0.314,0.825,0.749L133.904,251.497z"/>
					<path fill="#6B2A2A" d="M129.292,207.9c-0.436,0.009-0.795-0.338-0.806-0.772l0,0c-0.008-0.435,0.339-0.796,0.772-0.804
						l13.086-0.043c0.437-0.01,0.796,0.337,0.805,0.771l0,0c0.01,0.437-0.337,0.795-0.771,0.805L129.292,207.9z"/>
					<path fill="#6B2A2A" d="M94.646,193.701c-0.423,0.102-0.85-0.158-0.952-0.582l0,0c-0.101-0.423,0.159-0.85,0.583-0.952
						l12.771-2.851c0.424-0.103,0.85,0.159,0.952,0.582l0,0c0.102,0.424-0.158,0.849-0.582,0.952L94.646,193.701z"/>
					<path fill="#6B2A2A" d="M100.533,245.62c-0.424,0.104-0.85-0.158-0.951-0.581l0,0c-0.103-0.423,0.159-0.85,0.582-0.952
						l12.771-2.851c0.424-0.104,0.851,0.158,0.951,0.582l0,0c0.103,0.425-0.158,0.85-0.581,0.951L100.533,245.62z"/>
					<path fill="#6B2A2A" d="M78.356,233.221c-0.423,0.103-0.849-0.158-0.952-0.582l0,0c-0.101-0.424,0.159-0.85,0.583-0.951
						l12.771-2.852c0.424-0.102,0.85,0.158,0.951,0.583l0,0c0.103,0.423-0.157,0.849-0.581,0.951L78.356,233.221z"/>
					<path fill="#6B2A2A" d="M149.814,229.624c-0.435,0.008-0.795-0.337-0.805-0.772l0,0c-0.008-0.436,0.338-0.795,0.773-0.805
						l13.085-0.042c0.436-0.01,0.797,0.337,0.805,0.772l0,0c0.009,0.436-0.337,0.795-0.772,0.804L149.814,229.624z"/>
					<path fill="#6B2A2A" d="M137.321,248.345c-0.435,0.009-0.795-0.337-0.805-0.771l0,0c-0.008-0.437,0.338-0.796,0.773-0.806
						l13.085-0.043c0.436-0.008,0.796,0.338,0.805,0.773l0,0c0.009,0.436-0.337,0.795-0.771,0.805L137.321,248.345z"/>
					<path fill="#6B2A2A" d="M123.284,245.35c0.78,0.441,1.058,1.434,0.616,2.215l0,0c-0.441,0.781-1.434,1.06-2.216,0.617
						l-38.746-21.879c-0.781-0.441-1.059-1.434-0.617-2.216l0,0c0.441-0.782,1.434-1.058,2.216-0.617L123.284,245.35z"/>
					<path fill="#6B2A2A" d="M114.939,173.667c-0.535,0.721-1.554,0.872-2.274,0.336l0,0c-0.721-0.536-0.871-1.555-0.335-2.276
						L127.8,151.19c0.535-0.721,1.555-0.871,2.275-0.336l0,0c0.721,0.536,0.87,1.555,0.336,2.275L114.939,173.667z"/>
					<path fill="#6B2A2A" d="M115.059,191.974c0.781,0.442,1.058,1.434,0.614,2.215l0,0c-0.443,0.78-1.436,1.057-2.217,0.613
						l-22.293-12.813c-0.781-0.442-1.057-1.434-0.613-2.216l0,0c0.442-0.781,1.434-1.057,2.216-0.614L115.059,191.974z"/>
					<path fill="#6B2A2A" d="M127.668,260.885c-0.535,0.721-1.553,0.871-2.274,0.336l0,0c-0.721-0.535-0.871-1.555-0.336-2.274
						l26.539-35.716c0.535-0.721,1.555-0.871,2.275-0.334l0,0c0.721,0.535,0.872,1.553,0.336,2.274L127.668,260.885z"/>
				</g>
			</g>
		</g>
		<g>
			<defs>
				<path id="SVGID_12_" d="M239.808,366.945c-45.582,0-88.436-17.752-120.667-49.981c-32.229-32.231-49.981-75.086-49.981-120.668
					s17.751-88.435,49.981-120.667c32.231-32.231,75.085-49.982,120.667-49.982c45.581,0,88.435,17.751,120.667,49.982
					c32.229,32.232,49.981,75.085,49.981,120.667s-17.752,88.437-49.981,120.668C328.243,349.193,285.389,366.945,239.808,366.945z"
					/>
			</defs>
			<clipPath id="SVGID_13_">
				<use xlink:href="#SVGID_12_"  overflow="visible"/>
			</clipPath>
			<g clip-path="url(#SVGID_13_)">
				<g>
					<path fill="#C16363" d="M171.042,266.902c0.08,0.65-0.384,1.244-1.035,1.324l0,0c-0.653,0.082-1.247-0.384-1.326-1.033
						l-3.476-28.269c-0.08-0.651,0.384-1.245,1.036-1.327l0,0c0.651-0.08,1.245,0.385,1.325,1.035L171.042,266.902z"/>
				</g>
				<g>
					<path fill="#C16363" d="M168.301,247.311c-0.172,0.221-0.488,0.258-0.708,0.088l0,0c-0.22-0.172-0.258-0.487-0.087-0.707
						l4.425-5.666c0.17-0.219,0.488-0.258,0.707-0.086l0,0c0.22,0.17,0.258,0.487,0.087,0.707L168.301,247.311z"/>
				</g>
				<g>
					<path fill="#C16363" d="M168.79,251.288c-0.17,0.219-0.487,0.258-0.707,0.087l0,0c-0.221-0.172-0.259-0.489-0.087-0.708
						l4.425-5.664c0.17-0.221,0.487-0.258,0.707-0.086l0,0c0.219,0.171,0.258,0.487,0.086,0.707L168.79,251.288z"/>
				</g>
				<g>
					<path fill="#C16363" d="M169.279,255.264c-0.171,0.219-0.487,0.256-0.708,0.086l0,0c-0.219-0.17-0.258-0.488-0.086-0.707
						l4.426-5.664c0.169-0.221,0.486-0.26,0.706-0.086l0,0c0.22,0.17,0.258,0.486,0.087,0.705L169.279,255.264z"/>
				</g>
				<g>
					<path fill="#C16363" d="M169.767,259.239c-0.17,0.221-0.487,0.258-0.707,0.087l0,0c-0.219-0.171-0.258-0.487-0.087-0.707
						l4.425-5.664c0.17-0.219,0.487-0.259,0.707-0.088l0,0c0.22,0.173,0.258,0.488,0.087,0.708L169.767,259.239z"/>
				</g>
				<g>
					<path fill="#C16363" d="M170.256,263.215c-0.171,0.219-0.488,0.258-0.707,0.086l0,0c-0.22-0.17-0.259-0.486-0.087-0.707
						l4.425-5.664c0.17-0.219,0.487-0.258,0.706-0.086l0,0c0.22,0.172,0.259,0.488,0.087,0.706L170.256,263.215z"/>
				</g>
				<g>
					<path fill="#C16363" d="M166.593,247.52c0.22,0.174,0.536,0.133,0.708-0.086l0,0c0.171-0.221,0.132-0.535-0.087-0.707
						l-5.665-4.426c-0.22-0.17-0.536-0.131-0.707,0.09l0,0c-0.172,0.219-0.132,0.533,0.088,0.705L166.593,247.52z"/>
				</g>
				<g>
					<path fill="#C16363" d="M167.083,251.497c0.219,0.172,0.535,0.133,0.707-0.086l0,0c0.172-0.222,0.133-0.537-0.087-0.709
						l-5.664-4.422c-0.22-0.173-0.536-0.134-0.707,0.086l0,0c-0.172,0.22-0.133,0.536,0.087,0.707L167.083,251.497z"/>
				</g>
				<g>
					<path fill="#C16363" d="M167.571,255.473c0.221,0.172,0.535,0.133,0.708-0.087l0,0c0.172-0.22,0.134-0.536-0.087-0.706
						l-5.665-4.426c-0.219-0.172-0.535-0.133-0.706,0.088l0,0c-0.172,0.219-0.134,0.535,0.087,0.707L167.571,255.473z"/>
				</g>
				<g>
					<path fill="#C16363" d="M168.06,259.45c0.219,0.171,0.535,0.132,0.707-0.089l0,0c0.172-0.217,0.133-0.534-0.086-0.706
						l-5.665-4.425c-0.219-0.172-0.536-0.133-0.707,0.086l0,0c-0.172,0.222-0.133,0.537,0.087,0.709L168.06,259.45z"/>
				</g>
				<g>
					<path fill="#C16363" d="M168.548,263.425c0.22,0.171,0.536,0.134,0.708-0.087l0,0c0.172-0.22,0.132-0.537-0.087-0.707
						l-5.665-4.425c-0.219-0.171-0.536-0.132-0.707,0.087l0,0c-0.171,0.219-0.132,0.536,0.087,0.707L168.548,263.425z"/>
				</g>
			</g>
		</g>
		<g>
			<defs>
				<path id="SVGID_14_" d="M239.808,366.945c-45.582,0-88.436-17.752-120.667-49.981c-32.229-32.231-49.981-75.086-49.981-120.668
					s17.751-88.435,49.981-120.667c32.231-32.231,75.085-49.982,120.667-49.982c45.581,0,88.435,17.751,120.667,49.982
					c32.229,32.232,49.981,75.085,49.981,120.667s-17.752,88.437-49.981,120.668C328.243,349.193,285.389,366.945,239.808,366.945z"
					/>
			</defs>
			<clipPath id="SVGID_15_">
				<use xlink:href="#SVGID_14_"  overflow="visible"/>
			</clipPath>
			<g clip-path="url(#SVGID_15_)">
				<g>
					<path fill="#C16363" d="M106.087,286.646c0.137,0.484-0.146,0.986-0.628,1.125l0,0c-0.483,0.138-0.987-0.145-1.124-0.627
						l-5.938-20.963c-0.138-0.483,0.145-0.986,0.627-1.125l0,0c0.484-0.137,0.988,0.146,1.124,0.627L106.087,286.646z"/>
				</g>
				<g>
					<path fill="#C16363" d="M101.721,272.158c-0.103,0.187-0.339,0.252-0.524,0.148l0,0c-0.186-0.104-0.252-0.339-0.147-0.523
						l2.682-4.803c0.104-0.186,0.339-0.252,0.524-0.146l0,0c0.186,0.104,0.252,0.338,0.147,0.522L101.721,272.158z"/>
				</g>
				<g>
					<path fill="#C16363" d="M102.556,275.105c-0.103,0.188-0.338,0.254-0.523,0.149l0,0c-0.187-0.104-0.253-0.339-0.147-0.524
						l2.681-4.801c0.104-0.186,0.339-0.252,0.524-0.146l0,0c0.186,0.103,0.252,0.339,0.147,0.523L102.556,275.105z"/>
				</g>
				<g>
					<path fill="#C16363" d="M103.392,278.055c-0.104,0.188-0.339,0.252-0.523,0.148l0,0c-0.188-0.104-0.253-0.339-0.149-0.523
						l2.682-4.801c0.104-0.186,0.339-0.253,0.524-0.148l0,0c0.186,0.104,0.252,0.34,0.149,0.523L103.392,278.055z"/>
				</g>
				<g>
					<path fill="#C16363" d="M104.227,281.003c-0.104,0.187-0.339,0.253-0.523,0.147l0,0c-0.188-0.103-0.253-0.336-0.148-0.523
						l2.681-4.801c0.104-0.184,0.34-0.251,0.524-0.146l0,0c0.186,0.104,0.252,0.34,0.148,0.523L104.227,281.003z"/>
				</g>
				<g>
					<path fill="#C16363" d="M105.062,283.952c-0.104,0.188-0.339,0.253-0.524,0.147l0,0c-0.187-0.102-0.252-0.338-0.148-0.523
						l2.683-4.801c0.104-0.186,0.339-0.252,0.523-0.146l0,0c0.188,0.104,0.253,0.339,0.148,0.523L105.062,283.952z"/>
				</g>
				<g>
					<path fill="#C16363" d="M100.456,272.516c0.186,0.105,0.42,0.037,0.522-0.147l0,0c0.104-0.187,0.038-0.42-0.146-0.524
						l-4.802-2.681c-0.186-0.104-0.421-0.038-0.523,0.147l0,0c-0.104,0.187-0.037,0.42,0.148,0.523L100.456,272.516z"/>
				</g>
				<g>
					<path fill="#C16363" d="M101.291,275.465c0.186,0.105,0.42,0.037,0.523-0.148l0,0c0.104-0.187,0.037-0.42-0.147-0.524
						l-4.8-2.681c-0.188-0.104-0.422-0.037-0.525,0.148l0,0c-0.104,0.187-0.037,0.42,0.149,0.523L101.291,275.465z"/>
				</g>
				<g>
					<path fill="#C16363" d="M102.125,278.415c0.187,0.104,0.42,0.037,0.523-0.149l0,0c0.104-0.187,0.037-0.42-0.147-0.523
						l-4.801-2.682c-0.187-0.104-0.421-0.037-0.523,0.149l0,0c-0.104,0.185-0.038,0.42,0.147,0.522L102.125,278.415z"/>
				</g>
				<g>
					<path fill="#C16363" d="M102.96,281.363c0.186,0.104,0.42,0.037,0.523-0.149l0,0c0.104-0.185,0.038-0.42-0.147-0.524
						l-4.8-2.681c-0.187-0.104-0.421-0.036-0.524,0.148l0,0c-0.104,0.186-0.037,0.422,0.148,0.522L102.96,281.363z"/>
				</g>
				<g>
					<path fill="#C16363" d="M103.795,284.311c0.187,0.104,0.421,0.039,0.523-0.147l0,0c0.104-0.187,0.037-0.422-0.147-0.522
						l-4.8-2.684c-0.187-0.104-0.421-0.037-0.525,0.146l0,0c-0.104,0.188-0.036,0.422,0.149,0.525L103.795,284.311z"/>
				</g>
			</g>
		</g>
		<g>
			<defs>
				<path id="SVGID_16_" d="M239.808,366.945c-45.582,0-88.436-17.752-120.667-49.981c-32.229-32.231-49.981-75.086-49.981-120.668
					s17.751-88.435,49.981-120.667c32.231-32.231,75.085-49.982,120.667-49.982c45.581,0,88.435,17.751,120.667,49.982
					c32.229,32.232,49.981,75.085,49.981,120.667s-17.752,88.437-49.981,120.668C328.243,349.193,285.389,366.945,239.808,366.945z"
					/>
			</defs>
			<clipPath id="SVGID_17_">
				<use xlink:href="#SVGID_16_"  overflow="visible"/>
			</clipPath>
			<g clip-path="url(#SVGID_17_)">
				<g>
					<path fill="#C16363" d="M305.23,339.076c-0.093,0.492-0.566,0.818-1.063,0.726l0,0c-0.493-0.092-0.818-0.567-0.728-1.062
						l4.029-21.412c0.092-0.493,0.567-0.819,1.063-0.727l0,0c0.494,0.094,0.819,0.568,0.728,1.063L305.23,339.076z"/>
				</g>
				<g>
					<path fill="#C16363" d="M307.781,324.159c-0.176,0.12-0.416,0.073-0.536-0.101l0,0c-0.119-0.176-0.074-0.414,0.102-0.535
						l4.54-3.104c0.176-0.12,0.416-0.074,0.535,0.102l0,0c0.121,0.176,0.074,0.416-0.102,0.535L307.781,324.159z"/>
				</g>
				<g>
					<path fill="#C16363" d="M307.214,327.17c-0.178,0.121-0.416,0.076-0.536-0.1l0,0c-0.121-0.176-0.075-0.418,0.101-0.536
						l4.54-3.103c0.175-0.121,0.416-0.074,0.535,0.103l0,0c0.12,0.175,0.075,0.415-0.101,0.534L307.214,327.17z"/>
				</g>
				<g>
					<path fill="#C16363" d="M306.648,330.182c-0.176,0.121-0.416,0.076-0.536-0.1l0,0c-0.12-0.176-0.074-0.416,0.102-0.536
						l4.54-3.103c0.175-0.119,0.415-0.075,0.533,0.102l0,0c0.121,0.176,0.076,0.416-0.1,0.535L306.648,330.182z"/>
				</g>
				<g>
					<path fill="#C16363" d="M306.081,333.193c-0.177,0.121-0.415,0.076-0.536-0.1l0,0c-0.12-0.176-0.075-0.414,0.102-0.537
						l4.539-3.102c0.176-0.119,0.416-0.074,0.536,0.102l0,0c0.12,0.176,0.075,0.416-0.102,0.535L306.081,333.193z"/>
				</g>
				<g>
					<path fill="#C16363" d="M305.514,336.206c-0.176,0.121-0.416,0.075-0.535-0.101l0,0c-0.121-0.174-0.076-0.416,0.102-0.535
						l4.539-3.104c0.176-0.119,0.415-0.074,0.534,0.102l0,0c0.121,0.177,0.075,0.416-0.101,0.535L305.514,336.206z"/>
				</g>
				<g>
					<path fill="#C16363" d="M306.487,323.916c0.12,0.178,0.36,0.223,0.535,0.102l0,0c0.177-0.121,0.222-0.359,0.104-0.535
						l-3.104-4.541c-0.119-0.174-0.358-0.221-0.535-0.1l0,0c-0.176,0.12-0.221,0.359-0.101,0.534L306.487,323.916z"/>
				</g>
				<g>
					<path fill="#C16363" d="M305.92,326.928c0.119,0.176,0.358,0.221,0.534,0.102l0,0c0.178-0.12,0.223-0.36,0.103-0.536
						l-3.103-4.539c-0.119-0.177-0.359-0.222-0.535-0.103l0,0c-0.176,0.121-0.222,0.361-0.102,0.537L305.92,326.928z"/>
				</g>
				<g>
					<path fill="#C16363" d="M305.354,329.939c0.119,0.177,0.359,0.222,0.536,0.102l0,0c0.176-0.12,0.221-0.359,0.101-0.536
						l-3.103-4.539c-0.119-0.176-0.359-0.221-0.535-0.101l0,0c-0.176,0.119-0.222,0.359-0.102,0.535L305.354,329.939z"/>
				</g>
				<g>
					<path fill="#C16363" d="M304.788,332.951c0.12,0.177,0.358,0.222,0.534,0.101l0,0c0.178-0.118,0.223-0.358,0.103-0.534
						l-3.104-4.539c-0.119-0.177-0.358-0.222-0.534-0.103l0,0c-0.178,0.121-0.223,0.36-0.103,0.536L304.788,332.951z"/>
				</g>
				<g>
					<path fill="#C16363" d="M304.22,335.963c0.121,0.176,0.36,0.221,0.536,0.102l0,0c0.176-0.121,0.221-0.36,0.101-0.537
						l-3.102-4.538c-0.12-0.177-0.36-0.222-0.536-0.103l0,0c-0.176,0.12-0.221,0.361-0.101,0.537L304.22,335.963z"/>
				</g>
			</g>
		</g>
	</g>
	<path fill="#C16363" d="M154.881,273.581c0.164,0.631-0.215,1.276-0.847,1.44l0,0c-0.633,0.166-1.277-0.215-1.442-0.846
		l-3.529-13.566c-0.164-0.633,0.215-1.276,0.848-1.44l0,0c0.632-0.164,1.276,0.213,1.44,0.847L154.881,273.581z"/>
	<path fill="#C16363" d="M369.352,285.87c0,0.651-0.529,1.182-1.183,1.182l0,0c-0.652,0-1.184-0.528-1.184-1.182v-14.019
		c0-0.653,0.53-1.183,1.184-1.183l0,0c0.652,0,1.183,0.528,1.183,1.183V285.87z"/>
	<path fill="#C16363" d="M341.767,306.542c0,0.651-0.529,1.183-1.182,1.183l0,0c-0.653,0-1.184-0.529-1.184-1.183v-8.103
		c0-0.651,0.529-1.182,1.184-1.182l0,0c0.651,0,1.182,0.529,1.182,1.182V306.542z"/>
	<path fill="#C16363" d="M333.533,295.338c0,0.652-0.528,1.182-1.183,1.182l0,0c-0.652,0-1.182-0.528-1.182-1.182v-8.102
		c0-0.653,0.528-1.183,1.182-1.183l0,0c0.653,0,1.183,0.528,1.183,1.183V295.338z"/>
	<path fill="#C16363" d="M133.24,310.09c0,0.652-0.529,1.184-1.184,1.184l0,0c-0.652,0-1.183-0.53-1.183-1.184v-8.101
		c0-0.653,0.529-1.183,1.183-1.183l0,0c0.653,0,1.184,0.528,1.184,1.183V310.09z"/>
	<path fill="#C16363" d="M323.484,325.333c0,0.651-0.528,1.183-1.183,1.183l0,0c-0.652,0-1.183-0.529-1.183-1.183v-8.103
		c0-0.651,0.529-1.182,1.183-1.182l0,0c0.653,0,1.183,0.529,1.183,1.182V325.333z"/>
	<g>
		<circle fill="#6B2A2A" cx="145.086" cy="316.685" r="2.759"/>
		<circle fill="#6B2A2A" cx="338.736" cy="316.685" r="2.759"/>
		<circle fill="#6B2A2A" cx="349.044" cy="287.098" r="2.759"/>
		<circle fill="#6B2A2A" cx="254.949" cy="347.688" r="2.759"/>
		<circle fill="#C16363" cx="281.175" cy="339.336" r="2.759"/>
		<circle fill="#C16363" cx="230.234" cy="309.043" r="2.759"/>
		<circle fill="#C16363" cx="293.624" cy="270.76" r="2.759"/>
		<circle fill="#C16363" cx="194.915" cy="316.147" r="2.759"/>
		<circle fill="#C16363" cx="178.246" cy="330.705" r="2.759"/>
		<circle fill="#6B2A2A" cx="307.479" cy="282.311" r="1.595"/>
		<circle fill="#6B2A2A" cx="165.044" cy="280.717" r="1.595"/>
		<circle fill="#6B2A2A" cx="239.208" cy="330.705" r="1.595"/>
		<circle fill="#6B2A2A" cx="239.208" cy="272.355" r="1.595"/>
		<circle fill="#6B2A2A" cx="191.726" cy="340.93" r="1.594"/>
		<circle fill="#6B2A2A" cx="171.037" cy="303.095" r="1.595"/>
		<circle fill="#6B2A2A" cx="289.27" cy="301.5" r="1.595"/>
		<circle fill="#6B2A2A" cx="268.581" cy="316.049" r="1.595"/>
		<circle fill="#6B2A2A" cx="212.884" cy="295.617" r="1.595"/>
		<circle fill="#C16363" cx="193.32" cy="290.002" r="1.595"/>
		<circle fill="#C16363" cx="157.936" cy="303.095" r="1.595"/>
		<circle fill="#C16363" cx="313.45" cy="304.69" r="1.595"/>
		<circle fill="#C16363" cx="354.438" cy="304.042" r="1.595"/>
		<circle fill="#C16363" cx="250.794" cy="273.143" r="1.595"/>
		<path fill="#C16363" d="M165.654,334.661c0.102,0.646-0.342,1.25-0.985,1.353l0,0c-0.646,0.1-1.25-0.343-1.352-0.988l-1.248-8.002
			c-0.101-0.646,0.343-1.252,0.986-1.353l0,0c0.646-0.101,1.25,0.341,1.351,0.986L165.654,334.661z"/>
		<path fill="#C16363" d="M196.53,263.98c0.096,0.646-0.352,1.246-0.997,1.342l0,0c-0.646,0.095-1.247-0.354-1.343-0.997
			l-1.178-8.017c-0.096-0.646,0.352-1.246,0.997-1.342l0,0c0.646-0.095,1.247,0.352,1.342,0.998L196.53,263.98z"/>
		<path fill="#C16363" d="M217.387,351.629c0.053,0.648-0.433,1.221-1.083,1.273l0,0c-0.65,0.053-1.222-0.432-1.274-1.082
			l-0.654-8.074c-0.054-0.65,0.433-1.223,1.083-1.275l0,0c0.65-0.053,1.222,0.432,1.273,1.084L217.387,351.629z"/>
		<path fill="#C16363" d="M281.438,260.864c-0.145,0.637-0.776,1.038-1.413,0.895l0,0c-0.637-0.145-1.037-0.776-0.895-1.414
			l1.782-7.901c0.144-0.637,0.775-1.037,1.413-0.896l0,0c0.637,0.146,1.036,0.777,0.894,1.415L281.438,260.864z"/>
	</g>
</g>
</svg>
