<?xml version="1.0" encoding="utf-8"?>
<!-- Generator: Adobe Illustrator 15.1.0, SVG Export Plug-In . SVG Version: 6.00 Build 0)  -->
<!DOCTYPE svg PUBLIC "-//W3C//DTD SVG 1.1//EN" "http://www.w3.org/Graphics/SVG/1.1/DTD/svg11.dtd">
<svg version="1.1" id="Layer_1" xmlns="http://www.w3.org/2000/svg" xmlns:xlink="http://www.w3.org/1999/xlink" x="0px" y="0px"
	 width="2769.79px" height="1313.623px" viewBox="0 0 2769.79 1313.623" enable-background="new 0 0 2769.79 1313.623"
	 xml:space="preserve">
<linearGradient id="SVGID_1_" gradientUnits="userSpaceOnUse" x1="387.3867" y1="542.3335" x2="387.3866" y2="-2109.8376" gradientTransform="matrix(1 0 0 1 996.5 1428.123)">
	<stop  offset="0.0108" style="stop-color:#2A3013"/>
	<stop  offset="0.1487" style="stop-color:#333E1A"/>
	<stop  offset="0.392" style="stop-color:#48612A"/>
	<stop  offset="0.4695" style="stop-color:#5D6B31"/>
	<stop  offset="0.6274" style="stop-color:#837E3E"/>
	<stop  offset="0.7736" style="stop-color:#9F8B47"/>
	<stop  offset="0.9024" style="stop-color:#AF934C"/>
	<stop  offset="1" style="stop-color:#B5964E"/>
</linearGradient>
<rect x="-1.219" y="-0.5" fill="url(#SVGID_1_)" width="2770.212" height="1314.624"/>
<path opacity="0.2" fill="#303718" enable-background="new    " d="M626.98,533.291l-55.351,55.345V432.037l59.074-59.069
	c1.03-1.033,1.03-2.697,0-3.729c-1.027-1.026-2.699-1.026-3.726,0l-55.351,55.347V234.992c0-4.614-3.737-8.354-8.353-8.354
	c-4.616,0-8.354,3.74-8.354,8.354v268.215l-59.151-59.153c-1.03-1.028-2.696-1.028-3.729,0c-1.026,1.026-1.026,2.699,0,3.728
	l62.882,62.883v803.46h16.707V596.092l59.075-59.074c1.03-1.028,1.03-2.694,0-3.727C629.679,532.264,628.007,532.264,626.98,533.291
	z"/>
<polyline opacity="0.2" fill="#303718" enable-background="new    " points="95.369,382.494 95.369,0.5 -0.797,0.5 -0.797,1313.08 
	95.369,1313.08 95.369,432.783 "/>
<polyline opacity="0.2" fill="#303718" enable-background="new    " points="2374.463,382.494 2374.463,0.5 2278.297,0.5 
	2278.297,1313.08 2374.463,1313.08 2374.463,432.783 "/>
<path opacity="0.2" fill="#303718" enable-background="new    " d="M1038.089,432.783"/>
<g>
	<path fill="#3C4D21" d="M739.968,1313.256v-186.559c0-4.08,3.302-7.381,7.384-7.381l0,0c4.075,0,7.382,3.301,7.382,7.381v186.559"
		/>
	<path fill="#3C4D21" d="M752.688,1180.683c-1.222,1.221-3.197,1.221-4.421,0l0,0c-1.224-1.221-1.224-3.197,0-4.42l31.534-31.539
		c1.219-1.215,3.201-1.215,4.419,0l0,0c1.225,1.227,1.225,3.203,0,4.43L752.688,1180.683z"/>
	<path fill="#3C4D21" d="M752.688,1205.542c-1.222,1.217-3.197,1.217-4.421,0l0,0c-1.224-1.221-1.224-3.199,0-4.424l31.534-31.535
		c1.219-1.219,3.201-1.219,4.419,0l0,0c1.225,1.221,1.225,3.199,0,4.424L752.688,1205.542z"/>
	<path fill="#3C4D21" d="M752.688,1230.398c-1.222,1.221-3.197,1.221-4.421,0l0,0c-1.224-1.227-1.224-3.199,0-4.425l31.534-31.532
		c1.219-1.222,3.201-1.222,4.419,0l0,0c1.225,1.221,1.225,3.198,0,4.42L752.688,1230.398z"/>
	<path fill="#3C4D21" d="M752.688,1255.255c-1.222,1.215-3.197,1.215-4.421,0l0,0c-1.224-1.225-1.224-3.203,0-4.424l31.534-31.535
		c1.219-1.219,3.201-1.219,4.419,0l0,0c1.225,1.226,1.225,3.203,0,4.424L752.688,1255.255z"/>
	<path fill="#3C4D21" d="M752.688,1280.111c-1.222,1.217-3.197,1.217-4.421,0l0,0c-1.224-1.223-1.224-3.199,0-4.424l31.534-31.533
		c1.219-1.221,3.201-1.221,4.419,0l0,0c1.225,1.219,1.225,3.199,0,4.422L752.688,1280.111z"/>
	<path fill="#3C4D21" d="M742.012,1180.683c1.224,1.221,3.2,1.221,4.424,0l0,0c1.223-1.221,1.223-3.197,0-4.42l-31.536-31.539
		c-1.222-1.215-3.199-1.215-4.423,0l0,0c-1.219,1.227-1.219,3.203,0,4.43L742.012,1180.683z"/>
	<path fill="#3C4D21" d="M742.012,1205.542c1.224,1.217,3.2,1.217,4.424,0l0,0c1.223-1.221,1.223-3.199,0-4.424l-31.536-31.535
		c-1.222-1.219-3.199-1.219-4.423,0l0,0c-1.219,1.221-1.219,3.199,0,4.424L742.012,1205.542z"/>
	<path fill="#3C4D21" d="M742.012,1230.398c1.224,1.221,3.2,1.221,4.424,0l0,0c1.223-1.227,1.223-3.199,0-4.425l-31.536-31.532
		c-1.222-1.222-3.199-1.222-4.423,0l0,0c-1.219,1.221-1.219,3.198,0,4.42L742.012,1230.398z"/>
	<path fill="#3C4D21" d="M742.012,1255.255c1.224,1.215,3.2,1.215,4.424,0l0,0c1.223-1.225,1.223-3.203,0-4.424l-31.536-31.535
		c-1.222-1.219-3.199-1.219-4.423,0l0,0c-1.219,1.226-1.219,3.203,0,4.424L742.012,1255.255z"/>
	<path fill="#3C4D21" d="M742.012,1280.111c1.224,1.217,3.2,1.217,4.424,0l0,0c1.223-1.223,1.223-3.199,0-4.424l-31.536-31.533
		c-1.222-1.221-3.199-1.221-4.423,0l0,0c-1.219,1.219-1.219,3.199,0,4.422L742.012,1280.111z"/>
</g>
<g>
	<path fill="#3C4D21" d="M493.198,1313.256v-133.369c0-2.158,1.746-3.906,3.904-3.906l0,0c2.156,0,3.904,1.748,3.904,3.906v133.369"
		/>
	<path fill="#3C4D21" d="M499.927,1208.448c-0.646,0.646-1.689,0.646-2.338,0l0,0c-0.646-0.646-0.646-1.688,0-2.34l16.686-16.687
		c0.646-0.644,1.693-0.644,2.338,0l0,0c0.646,0.646,0.646,1.696,0,2.344L499.927,1208.448z"/>
	<path fill="#3C4D21" d="M499.927,1221.601c-0.646,0.646-1.689,0.646-2.338,0l0,0c-0.646-0.646-0.646-1.69,0-2.338l16.686-16.687
		c0.646-0.644,1.693-0.644,2.338,0l0,0c0.646,0.646,0.646,1.694,0,2.34L499.927,1221.601z"/>
	<path fill="#3C4D21" d="M499.927,1234.756c-0.646,0.643-1.689,0.643-2.338,0l0,0c-0.646-0.65-0.646-1.695,0-2.34l16.686-16.688
		c0.646-0.646,1.693-0.646,2.338,0l0,0c0.646,0.646,0.646,1.694,0,2.342L499.927,1234.756z"/>
	<path fill="#3C4D21" d="M499.927,1247.905c-0.646,0.644-1.689,0.644-2.338,0l0,0c-0.646-0.647-0.646-1.694,0-2.345l16.686-16.684
		c0.646-0.646,1.693-0.646,2.338,0l0,0c0.646,0.649,0.646,1.694,0,2.342L499.927,1247.905z"/>
	<path fill="#3C4D21" d="M499.927,1261.057c-0.646,0.644-1.689,0.644-2.338,0l0,0c-0.646-0.647-0.646-1.692,0-2.34l16.686-16.687
		c0.646-0.646,1.693-0.646,2.338,0l0,0c0.646,0.646,0.646,1.692,0,2.34L499.927,1261.057z"/>
	<path fill="#3C4D21" d="M494.278,1208.448c0.646,0.646,1.692,0.646,2.342,0l0,0c0.646-0.646,0.646-1.688,0-2.34l-16.688-16.687
		c-0.646-0.644-1.691-0.644-2.34,0l0,0c-0.645,0.646-0.645,1.696,0,2.344L494.278,1208.448z"/>
	<path fill="#3C4D21" d="M494.278,1221.601c0.646,0.646,1.692,0.646,2.342,0l0,0c0.646-0.646,0.646-1.69,0-2.338l-16.688-16.687
		c-0.646-0.644-1.691-0.644-2.34,0l0,0c-0.645,0.646-0.645,1.694,0,2.34L494.278,1221.601z"/>
	<path fill="#3C4D21" d="M494.278,1234.756c0.646,0.643,1.692,0.643,2.342,0l0,0c0.646-0.65,0.646-1.695,0-2.34l-16.688-16.688
		c-0.646-0.646-1.691-0.646-2.34,0l0,0c-0.645,0.646-0.645,1.694,0,2.342L494.278,1234.756z"/>
	<path fill="#3C4D21" d="M494.278,1247.905c0.646,0.644,1.692,0.644,2.342,0l0,0c0.646-0.647,0.646-1.694,0-2.345l-16.688-16.684
		c-0.646-0.646-1.691-0.646-2.34,0l0,0c-0.645,0.649-0.645,1.694,0,2.342L494.278,1247.905z"/>
	<path fill="#3C4D21" d="M494.278,1261.057c0.646,0.644,1.692,0.644,2.342,0l0,0c0.646-0.647,0.646-1.692,0-2.34l-16.688-16.687
		c-0.646-0.646-1.691-0.646-2.34,0l0,0c-0.645,0.646-0.645,1.692,0,2.34L494.278,1261.057z"/>
</g>
<g>
	<path fill="#3C4D21" d="M2421.471,1313.256v-135.843c0-2.158,1.746-3.906,3.906-3.906l0,0c2.158,0,3.904,1.748,3.904,3.906v135.843
		"/>
	<path fill="#3C4D21" d="M2428.202,1205.975c-0.646,0.646-1.693,0.646-2.34,0l0,0c-0.648-0.645-0.648-1.688,0-2.34l16.684-16.686
		c0.646-0.645,1.695-0.645,2.34,0l0,0c0.646,0.646,0.646,1.695,0,2.344L2428.202,1205.975z"/>
	<path fill="#3C4D21" d="M2428.202,1219.127c-0.646,0.646-1.693,0.646-2.34,0l0,0c-0.648-0.646-0.648-1.691,0-2.338l16.684-16.688
		c0.646-0.643,1.695-0.643,2.34,0l0,0c0.646,0.646,0.646,1.695,0,2.34L2428.202,1219.127z"/>
	<path fill="#3C4D21" d="M2428.202,1232.282c-0.646,0.643-1.693,0.643-2.34,0l0,0c-0.648-0.65-0.648-1.695,0-2.34l16.684-16.688
		c0.646-0.645,1.695-0.645,2.34,0l0,0c0.646,0.646,0.646,1.695,0,2.342L2428.202,1232.282z"/>
	<path fill="#3C4D21" d="M2428.202,1245.432c-0.646,0.645-1.693,0.645-2.34,0l0,0c-0.648-0.646-0.648-1.693,0-2.344l16.684-16.684
		c0.646-0.646,1.695-0.646,2.34,0l0,0c0.646,0.648,0.646,1.693,0,2.342L2428.202,1245.432z"/>
	<path fill="#3C4D21" d="M2428.202,1258.583c-0.646,0.643-1.693,0.643-2.34,0l0,0c-0.648-0.647-0.648-1.693,0-2.34l16.684-16.688
		c0.646-0.646,1.695-0.646,2.34,0l0,0c0.646,0.646,0.646,1.693,0,2.341L2428.202,1258.583z"/>
	<path fill="#3C4D21" d="M2422.553,1205.975c0.645,0.646,1.693,0.646,2.34,0l0,0c0.646-0.645,0.646-1.688,0-2.34l-16.686-16.686
		c-0.646-0.645-1.691-0.645-2.34,0l0,0c-0.646,0.646-0.646,1.695,0,2.344L2422.553,1205.975z"/>
	<path fill="#3C4D21" d="M2422.553,1219.127c0.645,0.646,1.693,0.646,2.34,0l0,0c0.646-0.646,0.646-1.691,0-2.338l-16.686-16.688
		c-0.646-0.643-1.691-0.643-2.34,0l0,0c-0.646,0.646-0.646,1.695,0,2.34L2422.553,1219.127z"/>
	<path fill="#3C4D21" d="M2422.553,1232.282c0.645,0.643,1.693,0.643,2.34,0l0,0c0.646-0.65,0.646-1.695,0-2.34l-16.686-16.688
		c-0.646-0.645-1.691-0.645-2.34,0l0,0c-0.646,0.646-0.646,1.695,0,2.342L2422.553,1232.282z"/>
	<path fill="#3C4D21" d="M2422.553,1245.432c0.645,0.645,1.693,0.645,2.34,0l0,0c0.646-0.646,0.646-1.693,0-2.344l-16.686-16.684
		c-0.646-0.646-1.691-0.646-2.34,0l0,0c-0.646,0.648-0.646,1.693,0,2.342L2422.553,1245.432z"/>
	<path fill="#3C4D21" d="M2422.553,1258.583c0.645,0.643,1.693,0.643,2.34,0l0,0c0.646-0.647,0.646-1.693,0-2.34l-16.686-16.688
		c-0.646-0.646-1.691-0.646-2.34,0l0,0c-0.646,0.646-0.646,1.693,0,2.341L2422.553,1258.583z"/>
</g>
<g>
	<path fill="#3C4D21" d="M2325.567,1313.256V974.362c0-3.207,2.598-5.802,5.805-5.802l0,0c3.205,0,5.801,2.595,5.801,5.802v338.894"
		/>
	<path fill="#3C4D21" d="M2335.567,1016.795c-0.961,0.963-2.518,0.963-3.477,0l0,0c-0.963-0.953-0.963-2.511,0-3.476l24.785-24.785
		c0.957-0.954,2.516-0.954,3.475,0l0,0c0.961,0.962,0.961,2.521,0,3.479L2335.567,1016.795z"/>
	<path fill="#3C4D21" d="M2335.567,1036.338c-0.961,0.953-2.518,0.953-3.477,0l0,0c-0.963-0.961-0.963-2.515,0-3.479l24.785-24.783
		c0.957-0.959,2.516-0.959,3.475,0l0,0c0.961,0.962,0.961,2.515,0,3.476L2335.567,1036.338z"/>
	<path fill="#3C4D21" d="M2335.567,1055.875c-0.961,0.955-2.518,0.955-3.477,0l0,0c-0.963-0.965-0.963-2.52,0-3.476l24.785-24.789
		c0.957-0.959,2.516-0.959,3.475,0l0,0c0.961,0.962,0.961,2.519,0,3.476L2335.567,1055.875z"/>
	<path fill="#3C4D21" d="M2335.567,1075.409c-0.961,0.959-2.518,0.959-3.477,0l0,0c-0.963-0.959-0.963-2.519,0-3.479l24.785-24.787
		c0.957-0.952,2.516-0.952,3.475,0l0,0c0.961,0.966,0.961,2.521,0,3.479L2335.567,1075.409z"/>
	<path fill="#3C4D21" d="M2335.567,1094.948c-0.961,0.953-2.518,0.953-3.477,0l0,0c-0.963-0.963-0.963-2.519,0-3.478l24.785-24.787
		c0.957-0.961,2.516-0.961,3.475,0l0,0c0.961,0.955,0.961,2.517,0,3.479L2335.567,1094.948z"/>
	<path fill="#3C4D21" d="M2327.174,1016.795c0.959,0.963,2.516,0.963,3.477,0l0,0c0.959-0.953,0.959-2.511,0-3.476l-24.787-24.785
		c-0.961-0.954-2.516-0.954-3.475,0l0,0c-0.959,0.962-0.959,2.521,0,3.479L2327.174,1016.795z"/>
	<path fill="#3C4D21" d="M2327.174,1036.338c0.959,0.953,2.516,0.953,3.477,0l0,0c0.959-0.961,0.959-2.515,0-3.479l-24.787-24.783
		c-0.961-0.959-2.516-0.959-3.475,0l0,0c-0.959,0.962-0.959,2.515,0,3.476L2327.174,1036.338z"/>
	<path fill="#3C4D21" d="M2327.174,1055.875c0.959,0.955,2.516,0.955,3.477,0l0,0c0.959-0.965,0.959-2.52,0-3.476l-24.787-24.789
		c-0.961-0.959-2.516-0.959-3.475,0l0,0c-0.959,0.962-0.959,2.519,0,3.476L2327.174,1055.875z"/>
	<path fill="#3C4D21" d="M2327.174,1075.409c0.959,0.959,2.516,0.959,3.477,0l0,0c0.959-0.959,0.959-2.519,0-3.479l-24.787-24.787
		c-0.961-0.952-2.516-0.952-3.475,0l0,0c-0.959,0.966-0.959,2.521,0,3.479L2327.174,1075.409z"/>
	<path fill="#3C4D21" d="M2327.174,1094.948c0.959,0.953,2.516,0.953,3.477,0l0,0c0.959-0.963,0.959-2.519,0-3.478l-24.787-24.787
		c-0.961-0.961-2.516-0.961-3.475,0l0,0c-0.959,0.955-0.959,2.517,0,3.479L2327.174,1094.948z"/>
</g>
<g opacity="0.2">
	<path fill="#3C4D21" d="M2474.606,1312.08V695.205c0-2.188-1.773-3.959-3.961-3.959l0,0c-2.189,0-3.963,1.771-3.963,3.959v616.875"
		/>
	<path fill="#3C4D21" d="M2474.606,1023.965l-66.293-66.293c-0.67-0.672-1.758-0.672-2.428,0l0,0c-0.67,0.668-0.67,1.754,0,2.426
		l66.293,66.293"/>
	<path fill="#3C4D21" d="M2474.606,948.592L2441,914.982c-0.672-0.67-1.758-0.67-2.428,0l0,0c-0.67,0.668-0.67,1.756,0,2.428
		l33.604,33.606"/>
	<path fill="#3C4D21" d="M2473.774,764.979l33.605-33.604c0.672-0.672,0.672-1.76,0-2.426l0,0c-0.668-0.672-1.758-0.672-2.428,0
		l-33.605,33.604"/>
	<path fill="#3C4D21" d="M2473.774,1074.604l33.605-33.604c0.672-0.673,0.672-1.759,0-2.431l0,0
		c-0.668-0.668-1.758-0.668-2.428,0.004l-33.605,33.604"/>
	<path fill="#3C4D21" d="M2474.606,873.215l-66.293-66.293c-0.67-0.67-1.758-0.67-2.428,0l0,0c-0.67,0.672-0.67,1.76,0,2.428
		l66.293,66.291"/>
	<path fill="#3C4D21" d="M2471.926,837.688l66.293-66.293c0.67-0.671,0.67-1.759,0-2.427l0,0c-0.67-0.672-1.756-0.672-2.428,0
		l-66.293,66.293"/>
	<path fill="#3C4D21" d="M2471.926,911.508l45.809-45.812c0.674-0.67,0.674-1.759,0-2.427l0,0c-0.67-0.672-1.756-0.672-2.428,0
		l-45.809,45.813"/>
	<path fill="#3C4D21" d="M2471.926,1000.006l45.809-45.812c0.674-0.668,0.674-1.755,0-2.427l0,0c-0.67-0.672-1.756-0.672-2.428,0
		l-45.809,45.813"/>
	<path fill="#3C4D21" d="M2474.606,797.842l-66.293-66.293c-0.67-0.67-1.758-0.67-2.428,0l0,0c-0.67,0.668-0.67,1.756,0,2.428
		l66.293,66.293"/>
</g>
<g>
	<path fill="#3C4D21" d="M855.021,1312.08V695.205c0-2.188-1.774-3.959-3.962-3.959l0,0c-2.188,0-3.963,1.771-3.963,3.959v616.875"
		/>
	<path fill="#3C4D21" d="M855.021,1023.965l-66.294-66.293c-0.67-0.672-1.757-0.672-2.427,0l0,0c-0.671,0.668-0.671,1.754,0,2.426
		l66.292,66.293"/>
	<path fill="#3C4D21" d="M836.752,1006.624l0-19.249c0.001-0.948-0.767-1.717-1.716-1.716l0,0c-0.946-0.002-1.714,0.766-1.715,1.715
		l-0.001,19.248"/>
	<path fill="#3C4D21" d="M820.201,989.957l0-19.249c0.001-0.948-0.767-1.717-1.716-1.716l0,0c-0.946-0.002-1.714,0.766-1.715,1.715
		l-0.001,19.248"/>
	<path fill="#3C4D21" d="M863.8,987.376h19.249c0.948,0.001,1.717-0.768,1.716-1.717l0,0c0.002-0.946-0.766-1.714-1.715-1.715
		l-19.248-0.001"/>
	<path fill="#3C4D21" d="M886.133,964.978h19.249c0.948,0.001,1.717-0.768,1.716-1.717l0,0c0.002-0.946-0.766-1.714-1.715-1.715
		l-19.248-0.001"/>
	<path fill="#3C4D21" d="M877.715,973.744v-19.249c0.001-0.948-0.768-1.717-1.717-1.716l0,0c-0.946-0.002-1.714,0.766-1.715,1.715
		l-0.001,19.248"/>
	<path fill="#3C4D21" d="M838.469,932.473v-19.249c0.001-0.948-0.768-1.717-1.717-1.716l0,0c-0.946-0.002-1.714,0.766-1.715,1.715
		l-0.001,19.248"/>
	<path fill="#3C4D21" d="M870.026,819.473v-19.249c0.001-0.948-0.768-1.717-1.717-1.716l0,0c-0.946-0.002-1.714,0.766-1.715,1.715
		l-0.001,19.248"/>
	<path fill="#3C4D21" d="M878.367,810.706h19.249c0.948,0.001,1.717-0.768,1.716-1.717l0,0c0.002-0.946-0.766-1.714-1.715-1.715
		l-19.248-0.001"/>
	<path fill="#3C4D21" d="M897.616,791.593h19.249c0.948,0.001,1.717-0.768,1.716-1.717l0,0c0.002-0.946-0.766-1.714-1.715-1.715
		l-19.248-0.001"/>
	<path fill="#3C4D21" d="M887.85,802.075v-19.249c0.001-0.948-0.768-1.717-1.717-1.716l0,0c-0.946-0.002-1.714,0.766-1.715,1.715
		l-0.001,19.248"/>
	<path fill="#3C4D21" d="M905.098,783.409V764.16c0.001-0.948-0.768-1.717-1.717-1.716l0,0c-0.946-0.002-1.714,0.766-1.715,1.715
		l-0.001,19.248"/>
	<path fill="#3C4D21" d="M826.967,996.142h-19.249c-0.948-0.001-1.717,0.768-1.716,1.717l0,0c-0.002,0.946,0.766,1.714,1.715,1.715
		l19.248,0.001"/>
	<path fill="#3C4D21" d="M841.802,1011.409h-19.249c-0.948-0.001-1.717,0.768-1.716,1.717l0,0c-0.002,0.946,0.766,1.714,1.715,1.715
		l19.248,0.001"/>
	<path fill="#3C4D21" d="M855.021,948.592l-33.606-33.608c-0.671-0.671-1.759-0.671-2.428,0l0,0c-0.669,0.668-0.669,1.756,0,2.428
		l33.606,33.606"/>
	<path fill="#3C4D21" d="M854.188,764.979l33.604-33.604c0.672-0.672,0.672-1.76,0-2.426l0,0c-0.669-0.672-1.757-0.672-2.427,0
		l-33.606,33.604"/>
	<path fill="#3C4D21" d="M854.188,1074.604L887.791,1041c0.672-0.673,0.672-1.759,0-2.431l0,0c-0.669-0.668-1.757-0.668-2.427,0.004
		l-33.606,33.604"/>
	<path fill="#3C4D21" d="M855.021,873.215l-66.294-66.293c-0.67-0.67-1.757-0.67-2.427,0l0,0c-0.671,0.672-0.671,1.76,0,2.428
		l66.292,66.291"/>
	<path fill="#3C4D21" d="M852.341,837.688l66.292-66.293c0.671-0.671,0.671-1.759,0-2.427l0,0c-0.67-0.672-1.755-0.672-2.428,0
		l-66.293,66.293"/>
	<path fill="#3C4D21" d="M852.341,911.508l45.809-45.812c0.671-0.67,0.671-1.759,0-2.427l0,0c-0.67-0.672-1.757-0.672-2.429,0
		l-45.809,45.813"/>
	<path fill="#3C4D21" d="M852.341,1000.006l45.809-45.812c0.671-0.668,0.671-1.755,0-2.427l0,0c-0.67-0.672-1.757-0.672-2.429,0
		l-45.809,45.813"/>
	<path fill="#3C4D21" d="M855.021,797.842l-66.294-66.293c-0.67-0.67-1.757-0.67-2.427,0l0,0c-0.671,0.668-0.671,1.756,0,2.428
		l66.292,66.293"/>
</g>
<g>
	<path fill="#3C4D21" d="M2206.458,1313.123V162.222c0-4.989,4.045-9.035,9.039-9.035l0,0c4.988,0,9.033,4.046,9.033,9.035v1150.901
		"/>
	<path fill="#3C4D21" d="M2206.458,912.127l151.217-151.218c1.529-1.532,4.012-1.532,5.539,0l0,0c1.527,1.526,1.527,4.007,0,5.537
		l-151.219,151.22"/>
	<path fill="#3C4D21" d="M2206.458,740.196l76.656-76.655c1.531-1.531,4.01-1.531,5.539,0l0,0c1.527,1.526,1.527,4.006-0.002,5.534
		l-76.656,76.653"/>
	<path fill="#3C4D21" d="M2266.42,510.768l-0.002-51.936c0.002-2.162,1.754-3.914,3.918-3.916l0,0
		c2.16,0.002,3.912,1.754,3.914,3.918v51.938"/>
	<path fill="#3C4D21" d="M2319.692,285.814v-51.938c0-2.156,1.752-3.916,3.916-3.916l0,0c2.158,0,3.912,1.76,3.912,3.916v51.938"/>
	<path fill="#3C4D21" d="M2323.608,450.602h51.932c2.164,0,3.918,1.75,3.92,3.914l0,0c-0.002,2.162-1.756,3.914-3.92,3.914h-51.936"
		/>
	<path fill="#3C4D21" d="M2260.688,860.019h51.938c2.16,0,3.914,1.753,3.916,3.916l0,0c-0.002,2.156-1.756,3.912-3.918,3.912
		h-51.936"/>
	<path fill="#3C4D21" d="M2315.776,805.5v-51.935c0-2.169,1.752-3.921,3.916-3.921l0,0c2.156,0,3.908,1.753,3.914,3.921V805.5"/>
	<path fill="#3C4D21" d="M2139.161,782.881v-51.937c0-2.162,1.752-3.912,3.916-3.916l0,0c2.16,0.004,3.912,1.754,3.912,3.916v51.938
		"/>
	<path fill="#3C4D21" d="M2238.497,708.188h19.896c2.164,0,3.916,1.757,3.918,3.921l0,0c-0.002,2.159-1.754,3.911-3.92,3.911
		h-19.898"/>
	<path fill="#3C4D21" d="M2158.608,270.287v-19.899c0-2.16,1.752-3.912,3.916-3.916l0,0c2.156,0.004,3.912,1.756,3.914,3.92v19.897"
		/>
	<path fill="#3C4D21" d="M2170.512,612.862h-19.898c-2.162,0-3.914-1.752-3.918-3.912l0,0c0.004-2.164,1.756-3.916,3.918-3.92
		h19.902"/>
	<path fill="#3C4D21" d="M2277.413,327.121h51.936c2.16,0,3.914,1.755,3.916,3.921l0,0c-0.002,2.159-1.756,3.911-3.918,3.911
		h-51.936"/>
	<path fill="#3C4D21" d="M2168.309,442.922v-51.937c0-2.16,1.754-3.916,3.916-3.916l0,0c2.162,0,3.914,1.756,3.916,3.916v51.937"/>
	<path fill="#3C4D21" d="M2111.92,383.865h-51.936c-2.16,0-3.914-1.752-3.916-3.918l0,0c0.002-2.16,1.756-3.912,3.92-3.912h51.934"
		/>
	<path fill="#3C4D21" d="M2176.741,818.834h-51.936c-2.162,0-3.916-1.754-3.916-3.918l0,0c0-2.162,1.754-3.91,3.918-3.912h51.936"/>
	<path fill="#3C4D21" d="M2208.358,321.379l-76.658-76.656c-1.527-1.531-1.527-4.01,0-5.541l0,0c1.529-1.523,4.01-1.523,5.539,0
		l76.656,76.662"/>
	<path fill="#3C4D21" d="M2208.358,1027.643l-76.658-76.655c-1.527-1.531-1.527-4.009,0-5.539l0,0c1.529-1.526,4.01-1.526,5.539,0
		l76.656,76.655"/>
	<path fill="#3C4D21" d="M2206.458,568.266l151.217-151.213c1.529-1.531,4.012-1.531,5.539,0l0,0c1.527,1.522,1.527,4.004,0,5.535
		l-151.219,151.217"/>
	<path fill="#3C4D21" d="M2212.573,487.227l-151.215-151.219c-1.531-1.523-1.531-4.01,0-5.535l0,0c1.525-1.531,4.006-1.531,5.533,0
		l151.219,151.219"/>
	<path fill="#3C4D21" d="M2212.573,655.61l-104.49-104.496c-1.529-1.526-1.529-4.011,0-5.536l0,0c1.527-1.529,4.006-1.529,5.535,0
		l104.492,104.493"/>
	<path fill="#3C4D21" d="M2212.573,857.483l-104.49-104.498c-1.529-1.526-1.529-4.011,0-5.535l0,0c1.527-1.526,4.006-1.526,5.535,0
		l104.492,104.496"/>
	<path fill="#3C4D21" d="M2206.458,396.336l151.217-151.213c1.529-1.533,4.012-1.533,5.539,0l0,0c1.527,1.522,1.527,4.006,0,5.532
		l-151.219,151.22"/>
</g>
<g opacity="0.2" enable-background="new    ">
	<path fill="#303718" d="M1620.858,1313.123V628.056c0-2.97,2.408-5.378,5.381-5.378l0,0c2.97,0,5.377,2.408,5.377,5.378v685.067"/>
	<path fill="#303718" d="M1620.858,1074.433l90.012-90.012c0.91-0.912,2.388-0.912,3.297,0l0,0c0.909,0.908,0.909,2.385,0,3.296
		l-90.013,90.013"/>
	<path fill="#303718" d="M1620.858,972.092l45.63-45.629c0.911-0.911,2.387-0.911,3.297,0l0,0c0.909,0.908,0.909,2.385-0.001,3.294
		l-45.63,45.628"/>
	<path fill="#303718" d="M1656.551,835.525l-0.002-30.914c0.002-1.287,1.045-2.33,2.333-2.331l0,0
		c1.285,0.001,2.328,1.044,2.329,2.332v30.916"/>
	<path fill="#303718" d="M1688.26,701.623v-30.916c0-1.283,1.043-2.331,2.331-2.331l0,0c1.285,0,2.329,1.048,2.329,2.331v30.916"/>
	<path fill="#303718" d="M1690.591,799.712h30.912c1.288,0,2.332,1.042,2.333,2.33l0,0c-0.001,1.287-1.045,2.33-2.333,2.33h-30.914"
		/>
	<path fill="#303718" d="M1653.139,1043.415h30.915c1.286,0,2.33,1.044,2.331,2.331l0,0c-0.001,1.283-1.045,2.329-2.332,2.329
		h-30.914"/>
	<path fill="#303718" d="M1685.929,1010.963V980.05c0-1.291,1.043-2.334,2.331-2.334l0,0c1.284,0,2.326,1.043,2.33,2.334v30.913"/>
	<path fill="#303718" d="M1580.8,997.499v-30.915c0-1.286,1.043-2.328,2.331-2.33l0,0c1.286,0.002,2.328,1.044,2.328,2.33v30.917"/>
	<path fill="#303718" d="M1639.929,953.038h11.844c1.288,0,2.331,1.046,2.332,2.334l0,0c-0.001,1.285-1.044,2.328-2.333,2.328
		h-11.845"/>
	<path fill="#303718" d="M1592.376,692.381v-11.845c0-1.286,1.043-2.329,2.331-2.331l0,0c1.283,0.002,2.328,1.045,2.329,2.333
		v11.844"/>
	<path fill="#303718" d="M1599.462,896.297h-11.845c-1.287,0-2.33-1.043-2.332-2.329l0,0c0.002-1.288,1.045-2.331,2.332-2.333
		h11.847"/>
	<path fill="#303718" d="M1663.094,726.211h30.914c1.286,0,2.33,1.045,2.331,2.334l0,0c-0.001,1.285-1.045,2.328-2.332,2.328
		h-30.914"/>
	<path fill="#303718" d="M1598.151,795.141v-30.915c0-1.286,1.044-2.331,2.331-2.331l0,0c1.287,0,2.329,1.045,2.331,2.331v30.915"/>
	<path fill="#303718" d="M1564.585,759.987h-30.914c-1.286,0-2.33-1.043-2.331-2.332l0,0c0.001-1.286,1.045-2.328,2.333-2.328
		h30.913"/>
	<path fill="#303718" d="M1603.169,1018.9h-30.914c-1.287,0-2.331-1.044-2.331-2.332l0,0c0-1.287,1.044-2.328,2.332-2.329h30.914"/>
	<path fill="#303718" d="M1621.99,722.793l-45.631-45.629c-0.909-0.911-0.909-2.387,0-3.298l0,0c0.91-0.907,2.387-0.907,3.298,0
		l45.629,45.632"/>
	<path fill="#303718" d="M1621.99,1143.192l-45.631-45.629c-0.909-0.911-0.909-2.386,0-3.297l0,0c0.91-0.908,2.387-0.908,3.298,0
		l45.629,45.629"/>
	<path fill="#303718" d="M1620.858,869.751l90.012-90.009c0.91-0.911,2.388-0.911,3.297,0l0,0c0.909,0.906,0.909,2.384,0,3.295
		l-90.013,90.011"/>
	<path fill="#303718" d="M1624.499,821.513l-90.01-90.012c-0.912-0.907-0.912-2.387,0-3.295l0,0c0.908-0.911,2.385-0.911,3.293,0
		l90.013,90.013"/>
	<path fill="#303718" d="M1624.499,921.742l-62.197-62.2c-0.91-0.909-0.91-2.388,0-3.296l0,0c0.909-0.91,2.385-0.91,3.295,0
		l62.198,62.199"/>
	<path fill="#303718" d="M1624.499,1041.906l-62.197-62.202c-0.91-0.908-0.91-2.388,0-3.295l0,0c0.909-0.908,2.385-0.908,3.295,0
		l62.198,62.201"/>
	<path fill="#303718" d="M1620.858,767.411l90.012-90.009c0.91-0.913,2.388-0.913,3.297,0l0,0c0.909,0.905,0.909,2.384,0,3.293
		l-90.013,90.013"/>
</g>
<polyline opacity="0.2" fill="#303718" enable-background="new    " points="391.685,382.469 391.685,0.477 435.154,0.477 
	435.154,1313.057 391.685,1313.057 391.685,432.758 "/>
<polyline opacity="0.2" fill="#303718" enable-background="new    " points="2065.715,382.469 2065.715,0.477 2109.186,0.477 
	2109.186,1313.057 2065.715,1313.057 2065.715,432.758 "/>
<g>
	<rect x="616.985" y="-0.5" fill="#3C4D21" width="35.802" height="1312.581"/>
	<path fill="#3C4D21" d="M616.985,222.777L779.239,60.521c3.235-3.234,8.483-3.234,11.722,0l0,0
		c3.229,3.233,3.229,8.479-0.007,11.716L628.7,234.488"/>
	<path fill="#3C4D21" d="M616.985,413.623l162.254-162.256c3.235-3.233,8.483-3.233,11.722,0l0,0
		c3.229,3.234,3.229,8.479-0.007,11.717L628.7,425.336"/>
	<path fill="#3C4D21" d="M662.551,375.102h153.731c1.899,0,3.439,1.541,3.44,3.44l0,0c-0.001,1.897-1.541,3.437-3.441,3.437h-153.73
		"/>
	<path fill="#3C4D21" d="M671.748,558.521h95.247c1.899,0,3.439,1.541,3.44,3.44l0,0c-0.001,1.897-1.541,3.437-3.441,3.437h-95.246"
		/>
	<path fill="#3C4D21" d="M737.699,301.053v-95.247c0-1.899,1.541-3.439,3.44-3.44l0,0c1.897,0.001,3.437,1.541,3.437,3.441v95.246"
		/>
	<path fill="#3C4D21" d="M676.699,171.053V75.807c0-1.899,1.541-3.439,3.44-3.44l0,0c1.897,0.001,3.437,1.541,3.437,3.441v95.246"/>
	<path fill="#3C4D21" d="M603.516,131.049H508.27c-1.899,0-3.439-1.541-3.44-3.44l0,0c0.001-1.897,1.541-3.437,3.441-3.437h95.246"
		/>
	<path fill="#3C4D21" d="M586.875,1000.607V905.36c0-1.899,1.541-3.439,3.44-3.44l0,0c1.897,0.001,3.437,1.541,3.437,3.441v95.245"
		/>
	<path fill="#3C4D21" d="M549.742,960.606h-95.247c-1.899,0-3.439-1.541-3.44-3.44l0,0c0.001-1.897,1.541-3.437,3.441-3.437h95.245"
		/>
	<path fill="#3C4D21" d="M618.538,152.273L510.008,43.745c-2.164-2.164-2.164-5.674,0-7.838l0,0
		c2.163-2.161,5.672-2.161,7.836,0.003l108.529,108.53"/>
	<path fill="#3C4D21" d="M618.538,710.356l-108.53-108.533c-2.164-2.164-2.164-5.674,0-7.838l0,0
		c2.163-2.162,5.672-2.162,7.836,0.004l108.529,108.528"/>
	<path fill="#3C4D21" d="M618.538,1035.877l-108.53-108.529c-2.164-2.166-2.164-5.676,0-7.84l0,0c2.163-2.16,5.672-2.16,7.836,0.004
		l108.529,108.529"/>
	<path fill="#3C4D21" d="M616.985,604.465L779.239,442.21c3.235-3.234,8.483-3.234,11.722,0l0,0
		c3.229,3.233,3.229,8.479-0.007,11.717L628.7,616.178"/>
	<path fill="#3C4D21" d="M616.985,999.412l162.254-162.257c3.235-3.233,8.483-3.233,11.722,0l0,0
		c3.229,3.233,3.229,8.479-0.007,11.718L628.7,1011.125"/>
	<path fill="#3C4D21" d="M684.021,545.141v-58.086c0-2.42,1.964-4.381,4.383-4.381l0,0c2.416,0,4.376,1.961,4.378,4.381v58.09"/>
	<path fill="#3C4D21" d="M545.362,630.346v-58.089c0-2.416,1.962-4.377,4.381-4.381l0,0c2.416,0.004,4.376,1.965,4.378,4.385v58.085
		"/>
	<path fill="#3C4D21" d="M688.401,933.694v-58.089c0-2.416,1.962-4.379,4.382-4.381l0,0c2.416,0.002,4.375,1.966,4.377,4.384v58.086
		"/>
	<path fill="#3C4D21" d="M741.743,886.157h58.088c2.418,0,4.38,1.964,4.382,4.382l0,0c-0.002,2.416-1.964,4.375-4.384,4.379h-58.088
		"/>
	<path fill="#3C4D21" d="M749.021,472.678h58.093c2.414,0,4.377,1.961,4.381,4.381l0,0c-0.004,2.416-1.967,4.377-4.385,4.377
		h-58.089"/>
	<path fill="#3C4D21" d="M749.021,93.594h58.093c2.414,0,4.377,1.961,4.381,4.381l0,0c-0.004,2.416-1.967,4.374-4.385,4.377h-58.089
		"/>
	<path fill="#3C4D21" d="M576.976,106.604h-58.088c-2.418,0-4.38-1.961-4.382-4.381l0,0c0.002-2.416,1.964-4.373,4.384-4.377h58.088
		"/>
	<path fill="#3C4D21" d="M580.976,665.922h-58.088c-2.418,0-4.38-1.961-4.382-4.381l0,0c0.002-2.416,1.964-4.375,4.384-4.377h58.088
		"/>
	<path fill="#3C4D21" d="M794.03,320.683c0,2.315-1.877,4.192-4.192,4.192l0,0c-2.316,0-4.193-1.877-4.193-4.192v-15.242
		c0-2.316,1.877-4.193,4.193-4.193l0,0c2.315,0,4.192,1.877,4.192,4.193V320.683z"/>
	<path fill="#3C4D21" d="M751.704,321.714c0,0,20.106-1.107,31.825,10.611c11.719,11.719,10.612,31.825,10.612,31.825
		s-20.106,1.107-31.825-10.612C750.597,341.82,751.704,321.714,751.704,321.714z"/>
	<path fill="#3C4D21" d="M823.895,313.062h-22.25c-4.418,0-8,3.582-8,8v1.25c0,4.418,3.582,8,8,8h22.25c4.418,0,8-3.582,8-8v-1.25
		C831.895,316.643,828.313,313.062,823.895,313.062z M799.645,325.812c-2.278,0-4.125-1.847-4.125-4.125
		c0-2.278,1.847-4.125,4.125-4.125s4.125,1.847,4.125,4.125C803.77,323.964,801.923,325.812,799.645,325.812z"/>
	<path fill="#3C4D21" d="M803.495,313.062h-9.85c-4.418,0-8,3.582-8,8v35.25c0,4.418,3.582,8,8,8h9.85c4.418,0,8-3.582,8-8v-35.25
		C811.495,316.643,807.914,313.062,803.495,313.062z M799.645,325.812c-2.278,0-4.125-1.847-4.125-4.125
		c0-2.278,1.847-4.125,4.125-4.125s4.125,1.847,4.125,4.125C803.77,323.964,801.923,325.812,799.645,325.812z"/>
	<rect x="800.667" y="334.699" fill="#3C4D21" width="4.192" height="43.841"/>
	<rect x="807.303" y="334.699" fill="#3C4D21" width="4.192" height="43.841"/>
	<rect x="779.183" y="334.699" fill="#3C4D21" width="4.192" height="43.841"/>
	<rect x="785.819" y="334.699" fill="#3C4D21" width="4.192" height="43.841"/>
</g>
<path opacity="0.2" fill="#303718" enable-background="new    " d="M2583.844,533.291l-55.346,55.345V432.037l59.072-59.069
	c1.029-1.033,1.029-2.697,0-3.729c-1.027-1.026-2.699-1.026-3.73,0l-55.346,55.347V234.992c0-4.614-3.742-8.354-8.354-8.354
	c-4.615,0-8.355,3.74-8.355,8.354v268.215l-59.154-59.153c-1.027-1.028-2.693-1.028-3.727,0c-1.027,1.026-1.027,2.699,0,3.728
	l62.881,62.883v803.46h16.709V596.092l59.074-59.074c1.031-1.028,1.031-2.694,0-3.727
	C2586.543,532.264,2584.872,532.264,2583.844,533.291z"/>
<g>
	<g>
		<path fill="#3C4D21" d="M255.518,1313.623V440.777c0-12.143-9.842-21.986-21.985-21.986l0,0c-12.145,0-21.986,9.844-21.986,21.986
			v872.846"/>
	</g>
	<g>
		<path fill="#3C4D21" d="M233.533,1259.288c-106.281,0-192.747-86.461-192.747-192.736c0-3.59,2.91-6.5,6.5-6.5
			c3.59,0,6.5,2.91,6.5,6.5c0,99.107,80.634,179.736,179.747,179.736c99.111,0,179.746-80.629,179.746-179.736
			c0-3.59,2.91-6.5,6.5-6.5s6.5,2.91,6.5,6.5C426.279,1172.827,339.813,1259.288,233.533,1259.288z"/>
	</g>
	<g>
		<path fill="#3C4D21" d="M233.533,1056.132c-71.599,0-129.849-58.248-129.849-129.845c0-3.59,2.91-6.5,6.5-6.5s6.5,2.91,6.5,6.5
			c0,64.429,52.418,116.845,116.849,116.845c64.43,0,116.848-52.416,116.848-116.845c0-3.59,2.91-6.5,6.5-6.5s6.5,2.91,6.5,6.5
			C363.38,997.884,305.131,1056.132,233.533,1056.132z"/>
	</g>
	<g>
		<path fill="#3C4D21" d="M233.533,812.599c-58.65,0-106.366-47.714-106.366-106.362c0-3.59,2.91-6.5,6.5-6.5s6.5,2.91,6.5,6.5
			c0,51.479,41.884,93.362,93.366,93.362c51.482,0,93.365-41.883,93.365-93.362c0-3.59,2.909-6.5,6.5-6.5c3.59,0,6.5,2.91,6.5,6.5
			C339.898,764.885,292.183,812.599,233.533,812.599z"/>
	</g>
	<g>
		<path fill="#3C4D21" d="M233.533,615.656c-47.727,0-86.556-38.83-86.556-86.559c0-3.59,2.91-6.5,6.5-6.5s6.5,2.91,6.5,6.5
			c0,40.561,32.997,73.559,73.556,73.559c40.563,0,73.563-32.998,73.563-73.559c0-3.59,2.91-6.5,6.5-6.5c3.591,0,6.5,2.91,6.5,6.5
			C320.097,576.827,281.265,615.656,233.533,615.656z"/>
	</g>
	<g>
		<path fill="#3C4D21" d="M104.209,1207.005c-3.59,0-6.5-2.91-6.5-6.5v-76.477c0-3.591,2.91-6.5,6.5-6.5s6.5,2.909,6.5,6.5v76.477
			C110.709,1204.095,107.799,1207.005,104.209,1207.005z"/>
	</g>
	<g>
		<path fill="#3C4D21" d="M334.603,1229.442c-3.59,0-6.5-2.91-6.5-6.5v-79.584c0-3.591,2.91-6.5,6.5-6.5c3.591,0,6.5,2.909,6.5,6.5
			v79.584C341.103,1226.532,338.193,1229.442,334.603,1229.442z"/>
	</g>
	<g>
		<path fill="#3C4D21" d="M457.319,1130.528h-46.597c-3.59,0-6.5-2.91-6.5-6.5c0-3.591,2.91-6.5,6.5-6.5h46.597
			c3.59,0,6.5,2.909,6.5,6.5C463.819,1127.618,460.909,1130.528,457.319,1130.528z"/>
	</g>
	<g>
		<path fill="#3C4D21" d="M158.48,1243.534H91.278c-3.59,0-6.5-2.91-6.5-6.5s2.91-6.5,6.5-6.5h67.202c3.59,0,6.5,2.91,6.5,6.5
			S162.07,1243.534,158.48,1243.534z"/>
	</g>
	<g>
		<path fill="#3C4D21" d="M350.206,972.815H299.87c-3.59,0-6.5-2.91-6.5-6.5c0-3.591,2.91-6.5,6.5-6.5h50.336
			c3.59,0,6.5,2.909,6.5,6.5C356.706,969.905,353.795,972.815,350.206,972.815z"/>
	</g>
	<g>
		<path fill="#3C4D21" d="M343.521,1032.427h-37.308c-3.59,0-6.5-2.91-6.5-6.5s2.91-6.5,6.5-6.5h37.308c3.59,0,6.5,2.91,6.5,6.5
			C350.021,1029.518,347.111,1032.427,343.521,1032.427z"/>
	</g>
	<g>
		<path fill="#3C4D21" d="M122.406,986.368c-1.664,0-3.327-0.635-4.596-1.903c-2.539-2.539-2.539-6.654,0-9.191l35.656-35.658
			c2.538-2.539,6.653-2.538,9.192-0.001c2.539,2.539,2.539,6.653,0,9.191l-35.656,35.658
			C125.733,985.733,124.07,986.368,122.406,986.368z"/>
	</g>
	<g>
		<path fill="#3C4D21" d="M147.355,1020.997H91.278c-3.59,0-6.5-2.91-6.5-6.5s2.91-6.5,6.5-6.5h56.078c3.59,0,6.5,2.91,6.5,6.5
			S150.945,1020.997,147.355,1020.997z"/>
	</g>
	<g>
		<path fill="#3C4D21" d="M356.88,748.384h-30.06c-3.59,0-6.5-2.91-6.5-6.5s2.91-6.5,6.5-6.5h30.061c3.59,0,6.5,2.91,6.5,6.5
			S360.47,748.384,356.88,748.384z"/>
	</g>
	<g>
		<path fill="#3C4D21" d="M153.477,772.433h-49.268c-3.59,0-6.5-2.909-6.5-6.5c0-3.59,2.91-6.5,6.5-6.5h49.268
			c3.59,0,6.5,2.91,6.5,6.5C159.977,769.523,157.066,772.433,153.477,772.433z"/>
	</g>
	<g>
		<path fill="#3C4D21" d="M177.979,795.724c-3.59,0-6.5-2.909-6.5-6.5v-33.058c0-3.59,2.91-6.5,6.5-6.5s6.5,2.91,6.5,6.5v33.058
			C184.479,792.813,181.569,795.724,177.979,795.724z"/>
	</g>
	<g>
		<path fill="#3C4D21" d="M334.603,580.428H299.87c-3.59,0-6.5-2.91-6.5-6.5s2.91-6.5,6.5-6.5h34.732c3.591,0,6.5,2.91,6.5,6.5
			S338.193,580.428,334.603,580.428z"/>
	</g>
	<g>
		<path fill="#3C4D21" d="M171.265,585.896h-31.031c-3.59,0-6.5-2.909-6.5-6.5c0-3.59,2.91-6.5,6.5-6.5h31.031
			c3.59,0,6.5,2.91,6.5,6.5C177.765,582.987,174.855,585.896,171.265,585.896z"/>
	</g>
	<g>
		<line fill="none" x1="229.772" y1="711.698" x2="288.852" y2="652.618"/>
		<path fill="#3C4D21" d="M229.772,718.198c-1.664,0-3.327-0.636-4.596-1.903c-2.539-2.539-2.539-6.654,0-9.193l59.08-59.08
			c2.538-2.537,6.654-2.537,9.192,0c2.539,2.539,2.539,6.654,0,9.192l-59.08,59.081
			C233.099,717.563,231.436,718.198,229.772,718.198z"/>
	</g>
	<g>
		<line fill="none" x1="170.693" y1="1108.729" x2="229.772" y2="1167.808"/>
		<path fill="#3C4D21" d="M229.772,1174.308c-1.664,0-3.327-0.635-4.596-1.903l-59.079-59.08c-2.539-2.538-2.539-6.653,0-9.192
			c2.538-2.537,6.653-2.538,9.192,0.001l59.079,59.08c2.539,2.538,2.539,6.653,0,9.192
			C233.099,1173.673,231.435,1174.308,229.772,1174.308z"/>
	</g>
</g>
<g opacity="0.2" enable-background="new    ">
	<g>
		<path fill="#303718" d="M959.782,1313.623V944.937c0-5.128-4.157-9.287-9.286-9.287l0,0c-5.13,0-9.287,4.159-9.287,9.287v368.687"
			/>
	</g>
	<g>
		<path fill="#303718" d="M950.496,1290.673c-44.893,0-81.416-36.521-81.416-81.411c0-1.517,1.229-2.746,2.746-2.746
			c1.517,0,2.746,1.229,2.746,2.746c0,41.862,34.06,75.919,75.924,75.919s75.924-34.057,75.924-75.919
			c0-1.517,1.229-2.746,2.746-2.746c1.516,0,2.745,1.229,2.745,2.746C1031.911,1254.152,995.388,1290.673,950.496,1290.673z"/>
	</g>
	<g>
		<path fill="#303718" d="M950.496,1204.859c-30.243,0-54.848-24.604-54.848-54.846c0-1.517,1.229-2.746,2.746-2.746
			c1.516,0,2.745,1.229,2.745,2.746c0,27.215,22.142,49.355,49.357,49.355c27.215,0,49.356-22.141,49.356-49.355
			c0-1.517,1.229-2.746,2.746-2.746c1.517,0,2.746,1.229,2.746,2.746C1005.343,1180.256,980.739,1204.859,950.496,1204.859z"/>
	</g>
	<g>
		<path fill="#303718" d="M950.496,1101.993c-24.773,0-44.929-20.155-44.929-44.928c0-1.517,1.229-2.745,2.746-2.745
			c1.517,0,2.746,1.229,2.746,2.745c0,21.744,17.691,39.436,39.438,39.436c21.746,0,39.437-17.691,39.437-39.436
			c0-1.517,1.229-2.745,2.746-2.745c1.516,0,2.745,1.229,2.745,2.745C995.424,1081.838,975.27,1101.993,950.496,1101.993z"/>
	</g>
	<g>
		<path fill="#303718" d="M950.496,1018.805c-20.16,0-36.561-16.401-36.561-36.562c0-1.517,1.229-2.746,2.745-2.746
			c1.517,0,2.746,1.229,2.746,2.746c0,17.132,13.938,31.07,31.07,31.07c17.134,0,31.073-13.938,31.073-31.07
			c0-1.517,1.229-2.746,2.745-2.746c1.517,0,2.746,1.229,2.746,2.746C987.061,1002.403,970.658,1018.805,950.496,1018.805z"/>
	</g>
	<g>
		<path fill="#303718" d="M895.87,1268.589c-1.517,0-2.746-1.229-2.746-2.746v-32.304c0-1.517,1.229-2.746,2.746-2.746
			s2.746,1.229,2.746,2.746v32.304C898.616,1267.359,897.387,1268.589,895.87,1268.589z"/>
	</g>
	<g>
		<path fill="#303718" d="M993.187,1278.066c-1.516,0-2.745-1.229-2.745-2.746v-33.616c0-1.518,1.229-2.745,2.745-2.745
			c1.518,0,2.746,1.228,2.746,2.745v33.616C995.933,1276.837,994.705,1278.066,993.187,1278.066z"/>
	</g>
	<g>
		<path fill="#303718" d="M1045.023,1236.285h-19.683c-1.516,0-2.746-1.229-2.746-2.746s1.229-2.746,2.746-2.746h19.683
			c1.516,0,2.745,1.229,2.745,2.746S1046.539,1236.285,1045.023,1236.285z"/>
	</g>
	<g>
		<path fill="#303718" d="M918.794,1284.018h-28.386c-1.517,0-2.746-1.229-2.746-2.746c0-1.516,1.229-2.744,2.746-2.744h28.386
			c1.517,0,2.746,1.229,2.746,2.744C921.54,1282.788,920.311,1284.018,918.794,1284.018z"/>
	</g>
	<g>
		<path fill="#303718" d="M999.778,1169.668h-21.262c-1.517,0-2.746-1.229-2.746-2.746s1.229-2.746,2.746-2.746h21.262
			c1.516,0,2.746,1.229,2.746,2.746S1001.294,1169.668,999.778,1169.668z"/>
	</g>
	<g>
		<path fill="#303718" d="M996.955,1194.847h-15.758c-1.516,0-2.746-1.229-2.746-2.746s1.229-2.746,2.746-2.746h15.758
			c1.517,0,2.746,1.229,2.746,2.746S998.471,1194.847,996.955,1194.847z"/>
	</g>
	<g>
		<path fill="#303718" d="M903.557,1175.392c-0.703,0-1.406-0.268-1.942-0.804c-1.072-1.072-1.072-2.811,0-3.882l15.061-15.062
			c1.072-1.073,2.811-1.073,3.883-0.001c1.072,1.072,1.072,2.811,0,3.882l-15.062,15.063
			C904.962,1175.124,904.259,1175.392,903.557,1175.392z"/>
	</g>
	<g>
		<path fill="#303718" d="M914.095,1190.019h-23.687c-1.517,0-2.746-1.229-2.746-2.745c0-1.516,1.229-2.745,2.746-2.745h23.687
			c1.516,0,2.746,1.229,2.746,2.745C916.841,1188.79,915.611,1190.019,914.095,1190.019z"/>
	</g>
	<g>
		<path fill="#303718" d="M1002.597,1074.868H989.9c-1.516,0-2.746-1.229-2.746-2.746c0-1.517,1.229-2.745,2.746-2.745h12.697
			c1.517,0,2.746,1.229,2.746,2.745C1005.343,1073.64,1004.114,1074.868,1002.597,1074.868z"/>
	</g>
	<g>
		<path fill="#303718" d="M916.68,1085.026h-20.81c-1.517,0-2.746-1.229-2.746-2.746c0-1.516,1.229-2.745,2.746-2.745h20.81
			c1.517,0,2.746,1.229,2.746,2.745C919.426,1083.797,918.196,1085.026,916.68,1085.026z"/>
	</g>
	<g>
		<path fill="#303718" d="M927.03,1094.865c-1.516,0-2.746-1.229-2.746-2.746v-13.964c0-1.516,1.229-2.745,2.746-2.745
			s2.745,1.229,2.745,2.745v13.964C929.775,1093.635,928.546,1094.865,927.03,1094.865z"/>
	</g>
	<g>
		<path fill="#303718" d="M993.187,1003.925h-14.67c-1.517,0-2.746-1.229-2.746-2.745c0-1.517,1.229-2.746,2.746-2.746h14.67
			c1.518,0,2.746,1.229,2.746,2.746C995.933,1002.695,994.705,1003.925,993.187,1003.925z"/>
	</g>
	<g>
		<path fill="#303718" d="M924.194,1006.234h-13.107c-1.516,0-2.746-1.229-2.746-2.745s1.229-2.746,2.746-2.746h13.107
			c1.517,0,2.746,1.229,2.746,2.746S925.711,1006.234,924.194,1006.234z"/>
	</g>
	<g>
		<line fill="#303718" x1="948.907" y1="1059.372" x2="973.862" y2="1034.418"/>
		<path fill="#303718" d="M948.907,1062.118c-0.703,0-1.405-0.268-1.941-0.805c-1.072-1.072-1.072-2.81,0-3.883l24.955-24.955
			c1.072-1.071,2.811-1.071,3.883,0c1.072,1.073,1.072,2.811,0,3.882l-24.956,24.956
			C950.313,1061.851,949.61,1062.118,948.907,1062.118z"/>
	</g>
	<g>
		<line fill="#303718" x1="923.953" y1="1227.076" x2="948.907" y2="1252.031"/>
		<path fill="#303718" d="M948.907,1254.776c-0.703,0-1.405-0.268-1.941-0.804l-24.955-24.955c-1.073-1.072-1.073-2.81,0-3.883
			c1.071-1.071,2.81-1.072,3.882,0l24.955,24.956c1.073,1.071,1.073,2.81,0,3.882
			C950.313,1254.509,949.61,1254.776,948.907,1254.776z"/>
	</g>
</g>
<g opacity="0.5" enable-background="new    ">
	<path fill="#303718" d="M1927.891,863.782v-32.141c0-11.985,9.716-21.701,21.701-21.701l0,0c11.984,0,21.7,9.716,21.7,21.701
		v32.141"/>
	<rect x="1941.03" y="856.393" fill="#303718" width="2.932" height="36.627"/>
	<rect x="1950.531" y="856.393" fill="#303718" width="2.933" height="36.627"/>
	<g>
		<path fill="#303718" d="M1958.072,1313.623V893.18c0-5.85-4.741-10.591-10.59-10.591l0,0c-5.851,0-10.59,4.741-10.59,10.591
			v420.443"/>
	</g>
	<g>
		<path fill="#303718" d="M1947.482,1287.45c-51.194,0-92.845-41.647-92.845-92.839c0-1.729,1.4-3.131,3.13-3.131
			s3.132,1.401,3.132,3.131c0,47.738,38.842,86.578,86.583,86.578c47.743,0,86.583-38.84,86.583-86.578
			c0-1.729,1.402-3.131,3.132-3.131s3.13,1.401,3.13,3.131C2040.327,1245.803,1998.676,1287.45,1947.482,1287.45z"/>
	</g>
	<g>
		<path fill="#303718" d="M1947.482,1189.592c-34.488,0-62.546-28.058-62.546-62.545c0-1.729,1.4-3.131,3.13-3.131
			s3.13,1.401,3.13,3.131c0,31.035,25.251,56.283,56.286,56.283c31.037,0,56.286-25.248,56.286-56.283c0-1.729,1.4-3.131,3.13-3.131
			s3.13,1.401,3.13,3.131C2010.028,1161.533,1981.97,1189.592,1947.482,1189.592z"/>
	</g>
	<g>
		<path fill="#303718" d="M1947.482,1072.282c-28.252,0-51.235-22.982-51.235-51.233c0-1.729,1.402-3.131,3.131-3.131
			s3.13,1.401,3.13,3.131c0,24.797,20.176,44.973,44.975,44.973c24.797,0,44.973-20.176,44.973-44.973
			c0-1.729,1.402-3.131,3.13-3.131c1.729,0,3.132,1.401,3.132,3.131C1998.717,1049.299,1975.734,1072.282,1947.482,1072.282z"/>
	</g>
	<g>
		<path fill="#303718" d="M1947.482,977.417c-22.989,0-41.692-18.703-41.692-41.694c0-1.729,1.401-3.13,3.131-3.13
			c1.729,0,3.13,1.401,3.13,3.13c0,19.538,15.894,35.433,35.432,35.433c19.539,0,35.436-15.895,35.436-35.433
			c0-1.729,1.402-3.13,3.132-3.13c1.729,0,3.13,1.401,3.13,3.13C1989.179,958.713,1970.474,977.417,1947.482,977.417z"/>
	</g>
	<g>
		<path fill="#303718" d="M1885.189,1262.266c-1.729,0-3.13-1.402-3.13-3.131v-36.838c0-1.729,1.4-3.131,3.13-3.131
			s3.13,1.402,3.13,3.131v36.838C1888.319,1260.863,1886.918,1262.266,1885.189,1262.266z"/>
	</g>
	<g>
		<path fill="#303718" d="M1996.167,1273.073c-1.729,0-3.131-1.401-3.131-3.131v-38.335c0-1.729,1.401-3.13,3.131-3.13
			c1.729,0,3.13,1.401,3.13,3.13v38.335C1999.297,1271.672,1997.896,1273.073,1996.167,1273.073z"/>
	</g>
	<g>
		<path fill="#303718" d="M2055.279,1225.428h-22.445c-1.729,0-3.132-1.401-3.132-3.131c0-1.729,1.402-3.13,3.132-3.13h22.445
			c1.728,0,3.13,1.401,3.13,3.13C2058.409,1224.026,2057.006,1225.428,2055.279,1225.428z"/>
	</g>
	<g>
		<path fill="#303718" d="M1911.331,1279.861h-32.372c-1.729,0-3.13-1.401-3.13-3.131s1.4-3.131,3.13-3.131h32.372
			c1.729,0,3.131,1.401,3.131,3.131S1913.059,1279.861,1911.331,1279.861z"/>
	</g>
	<g>
		<path fill="#303718" d="M2003.683,1149.458h-24.246c-1.729,0-3.13-1.401-3.13-3.131s1.4-3.131,3.13-3.131h24.246
			c1.729,0,3.13,1.401,3.13,3.131S2005.413,1149.458,2003.683,1149.458z"/>
	</g>
	<g>
		<path fill="#303718" d="M2000.462,1178.172h-17.97c-1.729,0-3.13-1.401-3.13-3.131c0-1.729,1.4-3.13,3.13-3.13h17.97
			c1.729,0,3.131,1.401,3.131,3.13C2003.593,1176.771,2002.191,1178.172,2000.462,1178.172z"/>
	</g>
	<g>
		<path fill="#303718" d="M1893.954,1155.986c-0.802,0-1.602-0.306-2.213-0.917c-1.224-1.223-1.224-3.205-0.002-4.428l17.175-17.175
			c1.224-1.225,3.206-1.224,4.428-0.002c1.224,1.223,1.224,3.206,0,4.429l-17.174,17.176
			C1895.556,1155.682,1894.754,1155.986,1893.954,1155.986z"/>
	</g>
	<g>
		<path fill="#303718" d="M1905.97,1172.667h-27.012c-1.729,0-3.131-1.401-3.131-3.131c0-1.729,1.401-3.131,3.131-3.131h27.012
			c1.729,0,3.132,1.402,3.132,3.131S1907.702,1172.667,1905.97,1172.667z"/>
	</g>
	<g>
		<path fill="#303718" d="M2006.898,1041.351h-14.48c-1.728,0-3.13-1.401-3.13-3.131s1.402-3.131,3.13-3.131h14.48
			c1.729,0,3.13,1.401,3.13,3.131S2008.627,1041.351,2006.898,1041.351z"/>
	</g>
	<g>
		<path fill="#303718" d="M1908.92,1052.936h-23.731c-1.729,0-3.13-1.402-3.13-3.131c0-1.729,1.4-3.131,3.13-3.131h23.731
			c1.729,0,3.13,1.401,3.13,3.131C1912.05,1051.533,1910.649,1052.936,1908.92,1052.936z"/>
	</g>
	<g>
		<path fill="#303718" d="M1920.722,1064.154c-1.729,0-3.131-1.402-3.131-3.131v-15.923c0-1.729,1.401-3.13,3.131-3.13
			c1.729,0,3.131,1.4,3.131,3.13v15.923C1923.853,1062.752,1922.453,1064.154,1920.722,1064.154z"/>
	</g>
	<g>
		<path fill="#303718" d="M1996.167,960.448h-16.73c-1.729,0-3.132-1.401-3.132-3.131c0-1.729,1.402-3.131,3.132-3.131h16.73
			c1.729,0,3.13,1.402,3.13,3.131C1999.297,959.047,1997.896,960.448,1996.167,960.448z"/>
	</g>
	<g>
		<path fill="#303718" d="M1917.489,963.082h-14.946c-1.729,0-3.132-1.401-3.132-3.131c0-1.729,1.402-3.13,3.132-3.13h14.946
			c1.729,0,3.13,1.401,3.13,3.13C1920.619,961.681,1919.218,963.082,1917.489,963.082z"/>
	</g>
	<g>
		<line fill="none" x1="1945.671" y1="1023.681" x2="1974.128" y2="995.222"/>
		<path fill="#303718" d="M1945.671,1026.812c-0.803,0-1.603-0.306-2.215-0.918c-1.222-1.223-1.222-3.205,0-4.428l28.46-28.459
			c1.223-1.223,3.204-1.223,4.428,0c1.223,1.223,1.223,3.205,0,4.429l-28.458,28.458
			C1947.273,1026.506,1946.471,1026.812,1945.671,1026.812z"/>
	</g>
	<g>
		<line fill="none" x1="1917.212" y1="1214.926" x2="1945.671" y2="1243.385"/>
		<path fill="#303718" d="M1945.671,1246.516c-0.803,0-1.603-0.306-2.215-0.917L1915,1217.14c-1.224-1.224-1.224-3.205,0-4.429
			c1.223-1.223,3.204-1.223,4.428,0l28.459,28.459c1.222,1.224,1.222,3.206,0,4.429
			C1947.273,1246.211,1946.471,1246.516,1945.671,1246.516z"/>
	</g>
	<path fill="#303718" d="M1950.531,794.686c0,0.973-0.787,1.76-1.76,1.76h-26.393c-0.972,0-1.76-0.787-1.76-1.76l0,0
		c0-0.972,0.788-1.759,1.76-1.759h26.393C1949.744,792.927,1950.531,793.714,1950.531,794.686L1950.531,794.686z"/>
	<path fill="#303718" d="M1950.531,800.077c0,0.972-0.787,1.76-1.76,1.76h-26.393c-0.972,0-1.76-0.788-1.76-1.76l0,0
		c0-0.972,0.788-1.76,1.76-1.76h26.393C1949.744,798.317,1950.531,799.105,1950.531,800.077L1950.531,800.077z"/>
	<path fill="#303718" d="M1949.592,774.983c-4.729,0-8.563,3.834-8.563,8.563v33.345c0,4.729,3.834,8.563,8.563,8.563
		c4.729,0,8.563-3.834,8.563-8.563v-33.345C1958.156,778.817,1954.322,774.983,1949.592,774.983z M1949.592,788.826
		c-3.109,0-5.631-2.521-5.631-5.631s2.521-5.631,5.631-5.631s5.63,2.521,5.63,5.631S1952.702,788.826,1949.592,788.826z"/>
	<circle fill="#303718" cx="1949.592" cy="782.961" r="2.58"/>
	<path fill="#303718" d="M1971.292,873.577c0,1.521-1.234,2.756-2.757,2.756l0,0c-1.521,0-2.756-1.234-2.756-2.756v-30.616
		c0-1.522,1.234-2.757,2.756-2.757l0,0c1.522,0,2.757,1.234,2.757,2.757V873.577z"/>
	<path fill="#303718" d="M1933.404,873.577c0,1.521-1.234,2.756-2.757,2.756l0,0c-1.521,0-2.756-1.234-2.756-2.756v-30.616
		c0-1.522,1.234-2.757,2.756-2.757l0,0c1.522,0,2.757,1.234,2.757,2.757V873.577z"/>
</g>
<g opacity="0.2" enable-background="new    ">
	<path fill="#303718" d="M1051.345,145.833c10.222-25.343,41.727-36.521,41.727-36.521s14.938,29.909,4.716,55.252
		c-10.221,25.345-41.729,36.521-41.729,36.521S1041.123,171.177,1051.345,145.833z"/>
	<path fill="#303718" d="M1053.552,212.121c-0.371,0.923-1.423,1.371-2.347,0.998l0,0c-0.924-0.373-1.371-1.423-0.999-2.346
		l18.968-47.028c0.372-0.923,1.423-1.368,2.348-0.995l0,0c0.925,0.373,1.37,1.422,0.998,2.345L1053.552,212.121z"/>
</g>
<g>
	<path fill="#3C4D21" d="M2469.627,925.811c-17.365,23.331-52.814,26.333-52.814,26.333s-7.305-34.821,10.061-58.153
		c17.365-23.331,52.818-26.332,52.818-26.332S2486.993,902.479,2469.627,925.811z"/>
	<path fill="#3C4D21" d="M2485.25,856.971c0.633-0.85,1.834-1.024,2.686-0.394l0,0c0.852,0.633,1.027,1.837,0.396,2.686
		l-32.225,43.295c-0.631,0.85-1.832,1.023-2.684,0.392l0,0c-0.852-0.633-1.025-1.834-0.396-2.684L2485.25,856.971z"/>
</g>
<g>
	<path fill="#3C4D21" d="M2346.328,539.153c7.668,7.902,6.643,21.333,6.643,21.333s-13.455,0.622-21.123-7.281
		s-6.642-21.333-6.642-21.333S2338.66,531.251,2346.328,539.153z"/>
	<path fill="#3C4D21" d="M2321.547,529.147c-0.279-0.289-0.271-0.748,0.016-1.027l0,0c0.288-0.281,0.749-0.273,1.027,0.014
		l14.229,14.664c0.279,0.288,0.271,0.747-0.016,1.027l0,0c-0.288,0.28-0.748,0.271-1.027-0.015L2321.547,529.147z"/>
</g>
<g>
	<path fill="#3C4D21" d="M747.769,1016.732c16.18,16.675,14.017,45.013,14.017,45.013s-28.392,1.311-44.572-15.364
		s-14.015-45.013-14.015-45.013S731.588,1000.058,747.769,1016.732z"/>
	<path fill="#3C4D21" d="M695.48,995.619c-0.589-0.61-0.573-1.578,0.033-2.168l0,0c0.608-0.594,1.581-0.577,2.168,0.029
		l30.023,30.942c0.589,0.605,0.573,1.574-0.033,2.168l0,0c-0.608,0.589-1.578,0.572-2.167-0.033L695.48,995.619z"/>
</g>
<g>
	<path fill="#3C4D21" d="M104.082,439.941c16.18,16.675,14.017,45.013,14.017,45.013s-28.392,1.311-44.572-15.364
		s-14.015-45.013-14.015-45.013S87.902,423.267,104.082,439.941z"/>
	<path fill="#3C4D21" d="M51.793,418.828c-0.589-0.61-0.573-1.578,0.033-2.168l0,0c0.608-0.594,1.581-0.577,2.168,0.029
		l30.023,30.942c0.589,0.605,0.573,1.574-0.033,2.168l0,0c-0.608,0.589-1.578,0.572-2.167-0.033L51.793,418.828z"/>
</g>
<g opacity="0.2" enable-background="new    ">
	<path fill="#303718" d="M1731.682,305.338c-17.396-7.67-24.47-29.827-24.47-29.827s21.129-9.724,38.526-2.053
		c17.396,7.67,24.471,29.829,24.471,29.829S1749.079,313.009,1731.682,305.338z"/>
	<path fill="#303718" d="M1777.83,305.274c0.634,0.28,0.92,1.02,0.642,1.655l0,0c-0.279,0.634-1.021,0.921-1.654,0.643
		l-32.283-14.234c-0.633-0.278-0.918-1.02-0.64-1.654l0,0c0.28-0.634,1.02-0.92,1.653-0.643L1777.83,305.274z"/>
</g>
<g>
	<path fill="#3C4D21" d="M286.835,124.767c1.413-1.018,3.386-0.699,4.405,0.716l0,0c1.02,1.416,0.696,3.387-0.716,4.405
		l-72.018,51.885c-1.413,1.019-3.386,0.7-4.405-0.715l0,0c-1.02-1.415-0.697-3.387,0.716-4.406L286.835,124.767z"/>
	<g>
		<path fill="#3C4D21" d="M208.813,181.097c0.441-2.723,3.009-4.572,5.729-4.127l0,0c2.724,0.442,4.572,3.008,4.132,5.729
			l-4.407,27.106c-0.441,2.722-3.008,4.572-5.729,4.128l0,0c-2.722-0.44-4.572-3.008-4.128-5.731L208.813,181.097z"/>
		<path fill="#3C4D21" d="M228.687,164.663c0.694-4.251,4.699-7.137,8.944-6.442l0,0c4.252,0.688,7.138,4.693,6.449,8.94
			l-6.878,42.318c-0.69,4.252-4.696,7.137-8.947,6.446l0,0c-4.248-0.692-7.134-4.698-6.445-8.946L228.687,164.663z"/>
		<path fill="#3C4D21" d="M253.343,146.899c0.692-4.25,4.697-7.135,8.948-6.444l0,0c4.249,0.689,7.135,4.695,6.444,8.944
			l-6.879,42.319c-0.686,4.248-4.69,7.133-8.942,6.442l0,0c-4.25-0.69-7.136-4.696-6.445-8.945L253.343,146.899z"/>
		<path fill="#3C4D21" d="M212.391,186.063c2.721,0.442,5.289-1.407,5.729-4.129l0,0c0.443-2.723-1.405-5.289-4.125-5.73
			l-27.109-4.405c-2.721-0.442-5.288,1.408-5.729,4.128l0,0c-0.442,2.725,1.405,5.289,4.129,5.73L212.391,186.063z"/>
		<path fill="#3C4D21" d="M234.272,172.415c4.252,0.689,8.258-2.197,8.943-6.444l0,0c0.693-4.252-2.192-8.257-6.441-8.95
			l-42.32-6.874c-4.249-0.689-8.254,2.196-8.945,6.446l0,0c-0.689,4.248,2.198,8.255,6.445,8.946L234.272,172.415z"/>
		<path fill="#3C4D21" d="M258.928,154.651c4.251,0.69,8.256-2.196,8.947-6.446l0,0c0.69-4.251-2.195-8.255-6.446-8.947
			l-42.319-6.874c-4.245-0.693-8.25,2.192-8.942,6.442l0,0c-0.69,4.25,2.197,8.257,6.445,8.945L258.928,154.651z"/>
	</g>
</g>
<g>
	<path fill="#3C4D21" d="M222.272,360.029c0.554,0.583,0.531,1.505-0.053,2.06l0,0c-0.584,0.555-1.506,0.53-2.06-0.053
		l-28.223-29.705c-0.554-0.583-0.532-1.505,0.052-2.059l0,0c0.583-0.554,1.505-0.53,2.06,0.053L222.272,360.029z"/>
	<g>
		<path fill="#3C4D21" d="M191.642,327.856c1.273,0.032,2.279,1.091,2.245,2.363l0,0c-0.033,1.273-1.091,2.279-2.363,2.247
			l-12.673-0.325c-1.272-0.032-2.279-1.091-2.246-2.363l0,0c0.032-1.273,1.091-2.279,2.364-2.246L191.642,327.856z"/>
		<path fill="#3C4D21" d="M200.398,335.921c1.987,0.052,3.558,1.705,3.504,3.689l0,0c-0.049,1.988-1.701,3.557-3.687,3.507
			l-19.785-0.507c-1.988-0.051-3.557-1.703-3.506-3.69l0,0c0.051-1.986,1.704-3.556,3.689-3.506L200.398,335.921z"/>
		<path fill="#3C4D21" d="M210.06,346.091c1.987,0.051,3.557,1.704,3.506,3.691l0,0c-0.05,1.986-1.703,3.556-3.689,3.505
			l-19.786-0.508c-1.986-0.049-3.555-1.7-3.504-3.688l0,0c0.051-1.987,1.703-3.557,3.689-3.505L210.06,346.091z"/>
		<path fill="#3C4D21" d="M189.593,329.802c-0.032,1.272,0.973,2.332,2.246,2.363l0,0c1.273,0.033,2.331-0.972,2.363-2.244
			l0.325-12.674c0.033-1.272-0.974-2.331-2.246-2.363l0,0c-1.274-0.033-2.332,0.972-2.363,2.246L189.593,329.802z"/>
		<path fill="#3C4D21" d="M197.2,338.959c-0.05,1.988,1.52,3.64,3.505,3.688l0,0c1.989,0.052,3.641-1.517,3.692-3.504l0.505-19.785
			c0.05-1.986-1.519-3.638-3.506-3.689l0,0c-1.986-0.051-3.639,1.52-3.69,3.505L197.2,338.959z"/>
		<path fill="#3C4D21" d="M206.863,349.128c-0.051,1.988,1.519,3.64,3.506,3.691l0,0c1.987,0.05,3.639-1.519,3.69-3.506
			l0.505-19.785c0.052-1.985-1.518-3.637-3.505-3.688l0,0c-1.987-0.05-3.639,1.52-3.689,3.506L206.863,349.128z"/>
	</g>
</g>
<g>
	<path fill="#3C4D21" d="M1075.911,930.841c-0.674,0.438-1.577,0.249-2.016-0.426l0,0c-0.439-0.676-0.248-1.577,0.425-2.016
		l34.335-22.361c0.674-0.439,1.577-0.25,2.016,0.426l0,0c0.438,0.674,0.247,1.576-0.426,2.016L1075.911,930.841z"/>
	<g>
		<path fill="#3C4D21" d="M1113.111,906.561c-0.263,1.245-1.487,2.042-2.731,1.778l0,0c-1.247-0.264-2.043-1.486-1.781-2.731
			l2.621-12.403c0.262-1.245,1.486-2.043,2.731-1.779l0,0c1.246,0.263,2.042,1.486,1.779,2.732L1113.111,906.561z"/>
		<path fill="#3C4D21" d="M1103.59,913.707c-0.412,1.944-2.322,3.188-4.264,2.775l0,0c-1.945-0.409-3.19-2.318-2.779-4.262
			l4.089-19.364c0.411-1.945,2.32-3.188,4.267-2.777l0,0c1.944,0.411,3.188,2.32,2.778,4.265L1103.59,913.707z"/>
		<path fill="#3C4D21" d="M1091.835,921.362c-0.412,1.944-2.322,3.188-4.266,2.777l0,0c-1.944-0.41-3.188-2.319-2.778-4.264
			l4.091-19.365c0.409-1.943,2.317-3.187,4.263-2.776l0,0c1.945,0.411,3.189,2.321,2.778,4.265L1091.835,921.362z"/>
		<path fill="#3C4D21" d="M1111.569,904.192c-1.246-0.263-2.47,0.534-2.731,1.78l0,0c-0.264,1.245,0.532,2.469,1.777,2.731
			l12.404,2.619c1.246,0.264,2.469-0.534,2.73-1.779l0,0c0.264-1.246-0.532-2.469-1.779-2.731L1111.569,904.192z"/>
		<path fill="#3C4D21" d="M1101.183,910.011c-1.946-0.41-3.856,0.834-4.263,2.777l0,0c-0.412,1.946,0.83,3.855,2.775,4.267
			l19.364,4.089c1.944,0.409,3.853-0.834,4.265-2.778l0,0c0.411-1.943-0.834-3.854-2.776-4.265L1101.183,910.011z"/>
		<path fill="#3C4D21" d="M1089.428,917.667c-1.945-0.411-3.855,0.833-4.266,2.777l0,0c-0.41,1.945,0.833,3.854,2.778,4.266
			l19.365,4.089c1.942,0.411,3.852-0.832,4.263-2.777l0,0c0.411-1.944-0.833-3.854-2.778-4.264L1089.428,917.667z"/>
	</g>
</g>
<g opacity="0.2" enable-background="new    ">
	<path fill="#303718" d="M1946.479,333.743c-0.606,0.529-1.527,0.467-2.056-0.141l0,0c-0.529-0.607-0.466-1.527,0.141-2.054
		l30.877-26.935c0.606-0.529,1.526-0.468,2.056,0.14l0,0c0.528,0.606,0.465,1.526-0.14,2.055L1946.479,333.743z"/>
	<g>
		<path fill="#303718" d="M1979.925,304.508c-0.086,1.27-1.188,2.23-2.456,2.143l0,0c-1.271-0.087-2.231-1.187-2.145-2.457
			l0.863-12.647c0.085-1.271,1.187-2.231,2.456-2.144l0,0c1.271,0.085,2.23,1.187,2.143,2.457L1979.925,304.508z"/>
		<path fill="#303718" d="M1971.495,312.914c-0.136,1.982-1.854,3.481-3.835,3.344l0,0c-1.983-0.134-3.481-1.851-3.347-3.833
			l1.347-19.746c0.135-1.983,1.853-3.481,3.837-3.346l0,0c1.982,0.136,3.479,1.854,3.346,3.835L1971.495,312.914z"/>
		<path fill="#303718" d="M1960.923,322.135c-0.136,1.982-1.854,3.481-3.836,3.346l0,0c-1.982-0.135-3.48-1.853-3.346-3.835
			l1.349-19.746c0.133-1.982,1.85-3.479,3.833-3.344l0,0c1.983,0.135,3.481,1.853,3.346,3.835L1960.923,322.135z"/>
		<path fill="#303718" d="M1978.068,302.379c-1.27-0.087-2.371,0.873-2.456,2.144l0,0c-0.087,1.27,0.872,2.37,2.142,2.457
			l12.648,0.862c1.27,0.087,2.37-0.875,2.455-2.144l0,0c0.088-1.271-0.871-2.37-2.143-2.457L1978.068,302.379z"/>
		<path fill="#303718" d="M1968.596,309.59c-1.984-0.134-3.702,1.364-3.835,3.345l0,0c-0.136,1.984,1.361,3.702,3.345,3.838
			l19.745,1.346c1.982,0.135,3.699-1.363,3.835-3.346l0,0c0.136-1.982-1.364-3.7-3.345-3.835L1968.596,309.59z"/>
		<path fill="#303718" d="M1958.024,318.812c-1.983-0.135-3.7,1.362-3.836,3.346l0,0c-0.134,1.983,1.363,3.7,3.347,3.836
			l19.746,1.345c1.98,0.137,3.698-1.362,3.833-3.344l0,0c0.136-1.983-1.363-3.701-3.346-3.835L1958.024,318.812z"/>
	</g>
</g>
<g opacity="0.2" enable-background="new    ">
	<path fill="#303718" d="M1965.657,458.387c-0.512-1.259,0.095-2.695,1.354-3.205l0,0c1.261-0.511,2.694,0.097,3.203,1.354
		l26.019,64.103c0.512,1.259-0.093,2.694-1.354,3.205l0,0c-1.258,0.51-2.691-0.097-3.204-1.354L1965.657,458.387z"/>
	<g>
		<path fill="#303718" d="M1993.935,527.857c-1.979-0.835-2.906-3.122-2.07-5.099l0,0c0.839-1.982,3.122-2.91,5.101-2.073
			l19.715,8.333c1.982,0.834,2.909,3.121,2.071,5.1l0,0c-0.835,1.981-3.12,2.909-5.1,2.07L1993.935,527.857z"/>
		<path fill="#303718" d="M1985.152,509.776c-3.091-1.307-4.539-4.874-3.229-7.961l0,0c1.305-3.092,4.869-4.541,7.96-3.235
			l30.78,13.008c3.093,1.305,4.538,4.872,3.231,7.965l0,0c-1.308,3.09-4.873,4.536-7.962,3.232L1985.152,509.776z"/>
		<path fill="#303718" d="M1976.244,487.829c-3.09-1.307-4.537-4.873-3.231-7.963l0,0c1.306-3.09,4.872-4.538,7.963-3.232
			l30.779,13.011c3.092,1.302,4.537,4.866,3.23,7.958l0,0c-1.306,3.092-4.872,4.539-7.962,3.231L1976.244,487.829z"/>
		<path fill="#303718" d="M1998.355,526.063c0.837-1.979-0.09-4.265-2.072-5.1l0,0c-1.979-0.837-4.262,0.089-5.1,2.068
			l-8.331,19.718c-0.838,1.979,0.093,4.265,2.071,5.098l0,0c1.98,0.839,4.263-0.087,5.101-2.07L1998.355,526.063z"/>
		<path fill="#303718" d="M1992.052,506.977c1.306-3.093-0.142-6.66-3.23-7.961l0,0c-3.094-1.308-6.659,0.138-7.967,3.229
			l-13.005,30.78c-1.306,3.091,0.141,6.655,3.232,7.962l0,0c3.09,1.307,6.656-0.144,7.961-3.231L1992.052,506.977z"/>
		<path fill="#303718" d="M1983.144,485.028c1.307-3.092-0.141-6.657-3.231-7.964l0,0c-3.093-1.304-6.657,0.142-7.965,3.233
			l-13.006,30.782c-1.308,3.087,0.14,6.652,3.23,7.958l0,0c3.092,1.307,6.658-0.141,7.962-3.232L1983.144,485.028z"/>
	</g>
</g>
<g>
	<path fill="#3C4D21" d="M2082.449,892.912c0.336,0.731,0.015,1.597-0.718,1.932l0,0c-0.731,0.335-1.596,0.014-1.93-0.718
		l-17.074-37.247c-0.336-0.731-0.016-1.597,0.717-1.932l0,0c0.731-0.335,1.596-0.013,1.932,0.717L2082.449,892.912z"/>
	<g>
		<path fill="#3C4D21" d="M2063.898,852.549c1.192,0.442,1.802,1.771,1.357,2.963l0,0c-0.443,1.194-1.771,1.803-2.963,1.359
			l-11.884-4.414c-1.194-0.441-1.802-1.771-1.358-2.963l0,0c0.442-1.194,1.77-1.803,2.963-1.358L2063.898,852.549z"/>
		<path fill="#3C4D21" d="M2069.568,863.017c1.863,0.692,2.813,2.765,2.119,4.626l0,0c-0.69,1.864-2.762,2.813-4.624,2.122
			l-18.554-6.89c-1.864-0.692-2.813-2.764-2.12-4.629l0,0c0.692-1.862,2.765-2.811,4.626-2.121L2069.568,863.017z"/>
		<path fill="#3C4D21" d="M2075.413,875.769c1.862,0.692,2.813,2.765,2.122,4.628l0,0c-0.692,1.862-2.764,2.813-4.627,2.121
			l-18.553-6.893c-1.863-0.689-2.812-2.761-2.12-4.624l0,0c0.692-1.864,2.765-2.813,4.627-2.121L2075.413,875.769z"/>
		<path fill="#3C4D21" d="M2061.33,853.726c-0.443,1.193,0.165,2.521,1.359,2.964l0,0c1.193,0.443,2.52-0.164,2.963-1.357
			l4.414-11.885c0.443-1.192-0.167-2.521-1.359-2.962l0,0c-1.194-0.444-2.521,0.163-2.963,1.358L2061.33,853.726z"/>
		<path fill="#3C4D21" d="M2065.558,864.854c-0.691,1.865,0.259,3.938,2.12,4.626l0,0c1.864,0.693,3.937-0.256,4.629-2.119
			l6.89-18.553c0.691-1.863-0.258-3.934-2.122-4.627l0,0c-1.862-0.692-3.934,0.26-4.625,2.12L2065.558,864.854z"/>
		<path fill="#3C4D21" d="M2071.405,877.607c-0.692,1.863,0.256,3.935,2.12,4.627l0,0c1.863,0.69,3.935-0.259,4.628-2.121
			l6.89-18.555c0.692-1.86-0.258-3.933-2.12-4.624l0,0c-1.864-0.692-3.937,0.258-4.627,2.121L2071.405,877.607z"/>
	</g>
</g>
<g>
	<path fill="#3C4D21" d="M2166.368,143.438c0.344,1.051-0.23,2.182-1.283,2.525l0,0c-1.053,0.343-2.182-0.233-2.523-1.284
		l-17.453-53.555c-0.344-1.051,0.229-2.182,1.283-2.524l0,0c1.053-0.343,2.182,0.233,2.523,1.283L2166.368,143.438z"/>
	<g>
		<path fill="#3C4D21" d="M2147.387,85.395c1.561,0.792,2.184,2.702,1.389,4.261l0,0c-0.795,1.561-2.701,2.183-4.262,1.391
			l-15.533-7.899c-1.563-0.792-2.186-2.702-1.391-4.26l0,0c0.793-1.561,2.701-2.183,4.264-1.389L2147.387,85.395z"/>
		<path fill="#3C4D21" d="M2153.483,100.583c2.436,1.24,3.406,4.219,2.166,6.651l0,0c-1.236,2.438-4.215,3.408-6.65,2.171
			l-24.25-12.331c-2.438-1.239-3.408-4.217-2.17-6.653l0,0c1.238-2.435,4.217-3.405,6.652-2.168L2153.483,100.583z"/>
		<path fill="#3C4D21" d="M2159.458,118.918c2.438,1.239,3.406,4.217,2.168,6.653l0,0c-1.236,2.436-4.217,3.407-6.65,2.167
			l-24.252-12.331c-2.436-1.235-3.406-4.214-2.166-6.65l0,0c1.236-2.436,4.217-3.406,6.65-2.168L2159.458,118.918z"/>
		<path fill="#3C4D21" d="M2143.694,86.599c-0.791,1.56-0.17,3.469,1.391,4.261l0,0c1.561,0.794,3.471,0.172,4.262-1.387
			l7.898-15.536c0.793-1.559,0.17-3.469-1.389-4.261l0,0c-1.563-0.793-3.469-0.172-4.264,1.389L2143.694,86.599z"/>
		<path fill="#3C4D21" d="M2147.717,102.462c-1.236,2.438-0.266,5.416,2.168,6.651l0,0c2.438,1.24,5.416,0.27,6.654-2.165
			l12.33-24.255c1.236-2.435,0.266-5.413-2.17-6.652l0,0c-2.436-1.236-5.414-0.266-6.652,2.168L2147.717,102.462z"/>
		<path fill="#3C4D21" d="M2153.694,120.797c-1.238,2.437-0.268,5.415,2.168,6.653l0,0c2.436,1.238,5.414,0.267,6.654-2.169
			l12.328-24.253c1.238-2.432,0.268-5.411-2.168-6.649l0,0c-2.436-1.238-5.414-0.268-6.65,2.168L2153.694,120.797z"/>
	</g>
</g>
<g>
	<path fill="#3C4D21" d="M2417.383,63.511c-1.025-1.728-0.461-3.963,1.27-4.991l0,0c1.73-1.028,3.963-0.456,4.99,1.27l52.328,88.031
		c1.025,1.727,0.461,3.963-1.27,4.99l0,0c-1.73,1.028-3.963,0.458-4.992-1.271L2417.383,63.511z"/>
	<g>
		<path fill="#3C4D21" d="M2474.209,158.894c-3.084-0.783-4.949-3.922-4.162-7.003l0,0c0.785-3.087,3.92-4.95,7.004-4.169
			l30.707,7.813c3.082,0.782,4.949,3.921,4.164,7.003l0,0c-0.783,3.085-3.922,4.949-7.008,4.164L2474.209,158.894z"/>
		<path fill="#3C4D21" d="M2457.338,134.386c-4.814-1.229-7.725-6.124-6.498-10.933l0,0c1.223-4.817,6.119-7.728,10.932-6.506
			l47.938,12.197c4.816,1.225,7.727,6.12,6.502,10.937l0,0c-1.229,4.812-6.123,7.722-10.936,6.5L2457.338,134.386z"/>
		<path fill="#3C4D21" d="M2439.424,104.248c-4.814-1.227-7.725-6.122-6.5-10.937l0,0c1.223-4.813,6.119-7.725,10.934-6.499
			l47.938,12.196c4.814,1.22,7.723,6.115,6.496,10.931l0,0c-1.223,4.814-6.117,7.725-10.934,6.5L2439.424,104.248z"/>
		<path fill="#3C4D21" d="M2480.282,155.286c0.783-3.083-1.082-6.221-4.166-7.003l0,0c-3.084-0.785-6.221,1.079-7.004,4.16
			l-7.813,30.709c-0.783,3.082,1.08,6.221,4.162,7.003l0,0c3.086,0.784,6.223-1.079,7.006-4.165L2480.282,155.286z"/>
		<path fill="#3C4D21" d="M2466.815,128.753c1.223-4.817-1.688-9.713-6.5-10.932l0,0c-4.816-1.228-9.713,1.682-10.938,6.494
			l-12.191,47.941c-1.225,4.813,1.688,9.709,6.502,10.935l0,0c4.811,1.222,9.711-1.689,10.934-6.5L2466.815,128.753z"/>
		<path fill="#3C4D21" d="M2448.899,98.616c1.225-4.815-1.688-9.712-6.5-10.937l0,0c-4.816-1.225-9.711,1.687-10.938,6.501
			l-12.189,47.94c-1.229,4.808,1.682,9.703,6.496,10.93l0,0c4.814,1.225,9.713-1.688,10.936-6.5L2448.899,98.616z"/>
	</g>
</g>
<g>
	<path fill="#3C4D21" d="M832.122,552.408c0.496-1.202,1.873-1.777,3.077-1.281l0,0c1.205,0.498,1.774,1.875,1.28,3.077
		l-25.268,61.27c-0.496,1.201-1.873,1.776-3.077,1.28l0,0c-1.204-0.497-1.776-1.874-1.28-3.078L832.122,552.408z"/>
	<g>
		<path fill="#3C4D21" d="M804.792,618.861c-0.792-1.901,0.109-4.085,2.01-4.873l0,0c1.903-0.792,4.084,0.107,4.878,2.008
			l7.874,18.933c0.792,1.9-0.109,4.084-2.01,4.874l0,0c-1.901,0.792-4.084-0.108-4.876-2.011L804.792,618.861z"/>
		<path fill="#3C4D21" d="M810.933,600.611c-1.233-2.97,0.171-6.376,3.139-7.608l0,0c2.968-1.237,6.377,0.168,7.612,3.134
			l12.294,29.557c1.236,2.971-0.17,6.377-3.139,7.613l0,0c-2.968,1.233-6.375-0.173-7.611-3.14L810.933,600.611z"/>
		<path fill="#3C4D21" d="M819.584,579.635c-1.234-2.969,0.171-6.375,3.139-7.61l0,0c2.967-1.236,6.376,0.17,7.609,3.138
			l12.295,29.558c1.237,2.965-0.169,6.372-3.138,7.607l0,0c-2.968,1.236-6.375-0.171-7.61-3.139L819.584,579.635z"/>
		<path fill="#3C4D21" d="M809.018,620.604c1.9-0.792,2.801-2.976,2.009-4.875l0,0c-0.792-1.902-2.975-2.803-4.874-2.012
			l-18.933,7.876c-1.901,0.791-2.801,2.975-2.01,4.875l0,0c0.792,1.901,2.974,2.801,4.876,2.009L809.018,620.604z"/>
		<path fill="#3C4D21" d="M817.528,603.331c2.969-1.237,4.374-4.645,3.137-7.609l0,0c-1.234-2.971-4.642-4.377-7.609-3.144
			L783.5,604.877c-2.967,1.234-4.372,4.643-3.139,7.612l0,0c1.236,2.966,4.645,4.372,7.611,3.138L817.528,603.331z"/>
		<path fill="#3C4D21" d="M826.178,582.354c2.969-1.235,4.374-4.644,3.14-7.611l0,0c-1.235-2.969-4.643-4.374-7.612-3.141
			l-29.555,12.299c-2.967,1.23-4.372,4.638-3.138,7.607l0,0c1.235,2.968,4.644,4.373,7.61,3.138L826.178,582.354z"/>
	</g>
</g>
<g opacity="0.2" enable-background="new    ">
	<path fill="#303718" d="M998.553,422.696c0.94,0.835,1.027,2.275,0.19,3.217l0,0c-0.837,0.942-2.277,1.024-3.216,0.19
		l-47.913-42.568c-0.938-0.834-1.026-2.275-0.189-3.216l0,0c0.836-0.942,2.276-1.026,3.218-0.19L998.553,422.696z"/>
	<g>
		<path fill="#303718" d="M946.563,376.597c1.988-0.118,3.696,1.399,3.811,3.386l0,0c0.119,1.99-1.397,3.696-3.386,3.816
			l-19.794,1.167c-1.987,0.119-3.695-1.398-3.812-3.386l0,0c-0.119-1.988,1.398-3.695,3.388-3.813L946.563,376.597z"/>
		<path fill="#303718" d="M961.275,388.01c3.105-0.182,5.769,2.185,5.95,5.287l0,0c0.186,3.104-2.183,5.77-5.284,5.955
			l-30.903,1.823c-3.105,0.183-5.77-2.184-5.953-5.289l0,0c-0.182-3.103,2.186-5.767,5.289-5.952L961.275,388.01z"/>
		<path fill="#303718" d="M977.678,402.585c3.104-0.183,5.768,2.185,5.951,5.288l0,0c0.184,3.103-2.184,5.769-5.286,5.951
			l-30.904,1.823c-3.102,0.186-5.765-2.181-5.948-5.286l0,0c-0.185-3.103,2.184-5.768,5.288-5.951L977.678,402.585z"/>
		<path fill="#303718" d="M943.627,379.901c0.118,1.987,1.826,3.504,3.813,3.386l0,0c1.989-0.118,3.505-1.825,3.388-3.811
			l-1.169-19.795c-0.117-1.987-1.825-3.505-3.812-3.387l0,0c-1.989,0.118-3.504,1.824-3.387,3.813L943.627,379.901z"/>
		<path fill="#303718" d="M956.693,393.167c0.185,3.105,2.85,5.472,5.951,5.286l0,0c3.106-0.182,5.474-2.846,5.292-5.949
			l-1.828-30.903c-0.183-3.102-2.849-5.47-5.952-5.288l0,0c-3.102,0.185-5.471,2.851-5.288,5.952L956.693,393.167z"/>
		<path fill="#303718" d="M973.097,407.741c0.184,3.104,2.849,5.472,5.952,5.289l0,0c3.104-0.184,5.471-2.849,5.29-5.953
			l-1.829-30.903c-0.18-3.101-2.845-5.468-5.949-5.285l0,0c-3.104,0.183-5.471,2.849-5.287,5.95L973.097,407.741z"/>
	</g>
</g>
<g>
	<path fill="#3C4D21" d="M1980.51,716.993c-0.701,1.211-2.252,1.625-3.463,0.924l0,0c-1.211-0.703-1.623-2.254-0.922-3.463
		l35.723-61.687c0.699-1.21,2.25-1.625,3.461-0.923l0,0c1.211,0.7,1.625,2.252,0.924,3.462L1980.51,716.993z"/>
	<circle fill="#3C4D21" cx="2003.012" cy="673.081" r="27.021"/>
</g>
<g opacity="0.2" enable-background="new    ">
	<path fill="#303718" d="M455.099,366.98c-1.159-0.783-1.466-2.358-0.684-3.518l0,0c0.785-1.16,2.36-1.464,3.519-0.682
		l59.083,39.882c1.159,0.782,1.468,2.356,0.684,3.517l0,0c-0.783,1.16-2.358,1.465-3.518,0.684L455.099,366.98z"/>
	<circle fill="#303718" cx="497.361" cy="392.45" r="27.022"/>
</g>
<g>
	<path fill="#3C4D21" d="M341.803,305.577c-0.017-0.798,0.617-1.458,1.415-1.475l0,0c0.799-0.015,1.458,0.619,1.474,1.416
		l0.829,40.64c0.016,0.797-0.616,1.458-1.415,1.474l0,0c-0.798,0.016-1.458-0.618-1.475-1.415L341.803,305.577z"/>
	<circle fill="#3C4D21" cx="343.82" cy="333.642" r="15.409"/>
</g>
<path fill="#3C4D21" d="M2768.993,149.68v-44.453l-113.404,74.659V-0.5h-96.164v1312.58h96.164V882.571l113.404-74.66v-26.536
	l-113.404,74.657V496.043l25.814-16.992l24.682,24.683c2.549,2.549,6.68,2.549,9.229,0.008c2.549-2.554,2.549-6.687,0-9.233
	l-22.781-22.783l76.465-50.338v-44.455l-43.721,28.783v-62.072c-0.002-3.604-2.924-6.527-6.523-6.527
	c-3.604,0-6.527,2.924-6.529,6.527l0.002,70.664l-56.633,37.285V224.34L2768.993,149.68z"/>
</svg>
