<?xml version="1.0" encoding="utf-8"?>
<!-- Generator: Adobe Illustrator 15.1.0, SVG Export Plug-In . SVG Version: 6.00 Build 0)  -->
<!DOCTYPE svg PUBLIC "-//W3C//DTD SVG 1.1//EN" "http://www.w3.org/Graphics/SVG/1.1/DTD/svg11.dtd">
<svg version="1.1" id="Layer_1" xmlns="http://www.w3.org/2000/svg" xmlns:xlink="http://www.w3.org/1999/xlink" x="0px" y="0px"
	 width="467.402px" height="385.836px" viewBox="0 0 467.402 385.836" enable-background="new 0 0 467.402 385.836"
	 xml:space="preserve">
<g>
	<g>
		<g>
			
				<rect x="164.775" y="365.979" transform="matrix(-0.94 -0.3411 0.3411 -0.94 194.8534 779.4855)" fill="#73FFD0" width="2.376" height="13.262"/>
		</g>
		<g>
			<circle fill="#DB7752" cx="163.698" cy="378.841" r="4.084"/>
		</g>
	</g>
	<g>
		<path fill="#F3FFAB" d="M467.583,67.276c0-3.695,2.996-6.69,6.69-6.69l0,0c3.695,0,6.691,2.995,6.691,6.69l0,0
			c0,3.696-2.996,6.69-6.691,6.69l0,0C470.579,73.966,467.583,70.972,467.583,67.276L467.583,67.276z"/>
	</g>
	<g>
		<path fill="#F3FFAB" d="M431.944,48.687c0-3.694,2.996-6.69,6.691-6.69l0,0c3.695,0,6.69,2.996,6.69,6.69l0,0
			c0,3.695-2.995,6.691-6.69,6.691l0,0C434.94,55.378,431.944,52.382,431.944,48.687L431.944,48.687z"/>
	</g>
	<g>
		<path fill="#2A3013" d="M446.545,189.133c0,10.531-8.537,19.068-19.067,19.068h-19.287c-10.53,0-19.068-8.537-19.068-19.068l0,0
			c0-10.532,8.538-19.07,19.068-19.07h19.287C438.008,170.063,446.545,178.601,446.545,189.133L446.545,189.133z"/>
	</g>
	<g>
		<g>
			<path fill="#2A3013" d="M98.406,357.049c-4.324,3.986-11.062,3.716-15.051-0.609l0,0c-3.989-4.322-3.716-11.063,0.608-15.051
				l27.218-25.105c4.323-3.988,11.063-3.717,15.05,0.608l0,0c3.989,4.323,3.717,11.063-0.607,15.052L98.406,357.049z"/>
		</g>
		<g>
			<path fill="#2A3013" d="M103.465,326.057c1.386,0.373,2.207,1.801,1.833,3.186l0,0c-0.374,1.388-1.801,2.207-3.186,1.833
				l-22.549-6.081c-1.387-0.373-2.207-1.801-1.833-3.187l0,0c0.374-1.387,1.8-2.206,3.187-1.833L103.465,326.057z"/>
		</g>
		<g>
			<path fill="#2A3013" d="M107.206,364.148c0.075,1.433-1.026,2.656-2.459,2.73l0,0c-1.435,0.076-2.657-1.025-2.731-2.46
				l-1.218-23.321c-0.076-1.436,1.026-2.657,2.459-2.732l0,0c1.433-0.074,2.657,1.025,2.731,2.46L107.206,364.148z"/>
		</g>
	</g>
	<g>
		<g>
			<g>
				
					<rect x="424.474" y="107.019" transform="matrix(0.3977 0.9175 -0.9175 0.3977 370.2559 -316.5347)" fill="#DB7752" width="3.521" height="33.48"/>
			</g>
			<g>
				<path fill="#F3FFAB" d="M424.233,119.286l19.875-8.623c2.483-1.077,5.37,0.062,6.447,2.545l0,0
					c1.077,2.484-0.063,5.368-2.546,6.445l-19.877,8.624"/>
			</g>
			<g>
				<path fill="#A190D3" d="M428.21,130.58c-0.657,0.284-1.418-0.018-1.703-0.672l-4.577-10.548
					c-0.283-0.656,0.017-1.417,0.674-1.702l0,0c0.654-0.284,1.416,0.016,1.702,0.67l4.576,10.548
					C429.166,129.532,428.865,130.295,428.21,130.58L428.21,130.58z"/>
			</g>
		</g>
		<g>
			
				<rect x="425.134" y="121.257" transform="matrix(0.398 0.9174 -0.9174 0.398 370.8871 -320.9944)" fill="#DB7752" width="9.802" height="1.707"/>
		</g>
		<g>
			
				<rect x="430.21" y="119.056" transform="matrix(0.398 0.9174 -0.9174 0.398 371.9228 -326.9766)" fill="#DB7752" width="9.802" height="1.706"/>
		</g>
		<g>
			
				<rect x="435.285" y="116.853" transform="matrix(0.3979 0.9174 -0.9174 0.3979 372.999 -332.9642)" fill="#DB7752" width="9.801" height="1.708"/>
		</g>
		<g>
			
				<rect x="440.361" y="114.652" transform="matrix(0.3979 0.9174 -0.9174 0.3979 374.0345 -338.9465)" fill="#DB7752" width="9.801" height="1.706"/>
		</g>
	</g>
	<g>
		<g>
			<g>
				
					<rect x="346.527" y="342.71" transform="matrix(-0.7719 0.6358 -0.6358 -0.7719 847.2554 418.8147)" fill="#73FFD0" width="3.931" height="37.387"/>
			</g>
			<g>
				<path fill="#DB7752" d="M352.677,357.877l15.379,18.676c1.921,2.333,1.588,5.782-0.745,7.703l0,0
					c-2.334,1.922-5.782,1.586-7.704-0.746l-15.381-18.676"/>
			</g>
			<g>
				<path fill="#F3FFAB" d="M341.78,365.625c-0.506-0.617-0.417-1.527,0.196-2.033l9.913-8.163c0.615-0.507,1.525-0.42,2.034,0.198
					l0,0c0.505,0.615,0.418,1.525-0.196,2.031l-9.911,8.164C343.198,366.328,342.287,366.24,341.78,365.625L341.78,365.625z"/>
			</g>
		</g>
		<g>
			
				<rect x="345.96" y="364.022" transform="matrix(-0.7719 0.6357 -0.6357 -0.7719 854.728 423.3131)" fill="#DB7752" width="10.944" height="1.905"/>
		</g>
		<g>
			
				<rect x="349.887" y="368.791" transform="matrix(-0.772 0.6356 -0.6356 -0.772 864.7158 429.2977)" fill="#DB7752" width="10.945" height="1.907"/>
		</g>
		<g>
			
				<rect x="353.814" y="373.56" transform="matrix(-0.772 0.6356 -0.6356 -0.772 874.7074 435.2526)" fill="#DB7752" width="10.945" height="1.907"/>
		</g>
		<g>
			
				<rect x="357.742" y="378.329" transform="matrix(-0.772 0.6356 -0.6356 -0.772 884.6987 441.2066)" fill="#DB7752" width="10.945" height="1.906"/>
		</g>
	</g>
	<g>
		<g>
			<path fill="#73FFD0" d="M421.762,302.25c2.755-0.242,5.187,1.794,5.428,4.551l1.518,17.219c0.242,2.757-1.796,5.188-4.551,5.431
				l-17.222,1.515c-2.755,0.242-5.186-1.795-5.428-4.549"/>
		</g>
		<g>
			<path fill="#F3FFAB" d="M398.737,326.008c-1.01-0.848-1.142-2.352-0.297-3.361l19.076-22.756c0.845-1.012,2.351-1.144,3.36-0.297
				l0,0c1.01,0.846,1.142,2.352,0.295,3.359l-19.074,22.758C401.251,326.721,399.747,326.854,398.737,326.008L398.737,326.008z"/>
		</g>
		<g>
			
				<rect x="394.219" y="288.458" transform="matrix(-0.6424 0.7664 -0.7664 -0.6424 884.288 192.0604)" fill="#DB7752" width="6.23" height="27.777"/>
		</g>
		<g>
			<path fill="#F3FFAB" d="M427.601,311.455l-16.01,19.101l12.565-1.105c2.755-0.243,4.793-2.674,4.551-5.431L427.601,311.455z"/>
		</g>
	</g>
	<g>
		<g>
			<path fill="#F3FFAB" d="M82.414,46.818c-2.762-0.165-4.865-2.538-4.7-5.299l1.035-17.255c0.166-2.761,2.539-4.865,5.299-4.701
				l17.258,1.036c2.76,0.166,4.864,2.539,4.698,5.3"/>
		</g>
		<g>
			<path fill="#DB7752" d="M108.684,26.709c0.875,0.987,0.784,2.493-0.202,3.368L86.266,49.779
				c-0.986,0.874-2.494,0.784-3.368-0.202l0,0c-0.874-0.985-0.784-2.494,0.202-3.368l22.216-19.703
				C106.302,25.633,107.81,25.723,108.684,26.709L108.684,26.709z"/>
		</g>
		<g>
			
				<rect x="103.474" y="36.43" transform="matrix(0.7482 -0.6635 0.6635 0.7482 -6.5442 83.3961)" fill="#F3FFAB" width="6.23" height="27.778"/>
		</g>
		<g>
			<path fill="#DB7752" d="M77.993,36.855L96.64,20.319l-12.593-0.756c-2.76-0.164-5.133,1.94-5.299,4.701L77.993,36.855z"/>
		</g>
	</g>
	<g>
		<g>
			<path fill="#F3FFAB" d="M378.727,73.179c-0.454,0.471-1.201,0.485-1.67,0.032l-7.392-7.114c-0.471-0.452-0.485-1.199-0.031-1.67
				l19.146-19.894c0.452-0.47,1.201-0.483,1.671-0.033l7.391,7.114c0.47,0.454,0.484,1.201,0.032,1.671L378.727,73.179z"/>
		</g>
		<g>
			<path fill="#DB7752" d="M409.031,57.032c-4.163,4.324-11.044,4.457-15.369,0.295l-8.76-8.431
				c-4.324-4.163-4.454-11.043-0.293-15.367l0.485-0.506c4.162-4.324,11.044-4.456,15.369-0.293l8.759,8.431
				c4.324,4.162,4.456,11.042,0.293,15.366L409.031,57.032z"/>
		</g>
		<g>
			<path fill="#DB7752" d="M389.789,67.923c-0.824,0.851-2.183,0.872-3.032,0.048l-12.471-12.09
				c-0.85-0.824-0.872-2.181-0.048-3.033l0,0c0.824-0.85,2.183-0.871,3.032-0.047l12.472,12.089
				C390.592,65.715,390.614,67.072,389.789,67.923L389.789,67.923z"/>
		</g>
		<g>
			<path fill="#FF9473" d="M406.959,52.874c-0.84,0.258-1.791,0.552-2.056,0.295c-0.266-0.256-0.01-1.217,0.216-2.066
				c0.407-1.523,1.021-3.826-0.749-5.531c-1.771-1.703-4.049-1.001-5.556-0.537c-0.839,0.258-1.791,0.552-2.055,0.296
				c-0.265-0.254-0.007-1.214,0.218-2.061c0.408-1.524,1.023-3.828-0.746-5.53c-1.771-1.704-4.049-1.002-5.557-0.537
				c-0.838,0.26-1.788,0.552-2.052,0.297s-0.009-1.214,0.218-2.062c0.356-1.335,0.873-3.267-0.193-4.872
				c-1.075,0.46-2.083,1.11-2.991,1.93c0.223,0.291-0.02,1.209-0.239,2.027c-0.407,1.524-1.022,3.827,0.747,5.531
				c1.771,1.704,4.049,1.001,5.557,0.536c0.837-0.259,1.788-0.552,2.054-0.295c0.263,0.253,0.007,1.213-0.22,2.061
				c-0.408,1.523-1.023,3.827,0.747,5.529c1.77,1.704,4.048,1.001,5.555,0.538c0.839-0.259,1.789-0.554,2.056-0.296
				c0.264,0.256,0.01,1.217-0.218,2.065c-0.405,1.524-1.021,3.828,0.751,5.532c0.853,0.822,1.823,1.083,2.769,1.083
				c1.017,0,2.006-0.304,2.787-0.545c0.812-0.249,1.72-0.526,2.021-0.314c0.783-0.938,1.395-1.97,1.813-3.062
				C410.192,51.879,408.28,52.466,406.959,52.874z"/>
		</g>
	</g>
	<g>
		<g>
			<path fill="#F3FFAB" d="M79.273,285.772c0.331-0.257,0.807-0.199,1.063,0.132l4.049,5.186c0.258,0.33,0.199,0.805-0.13,1.064
				l-13.961,10.896c-0.329,0.258-0.806,0.2-1.063-0.13l-4.049-5.187c-0.258-0.33-0.199-0.807,0.131-1.063L79.273,285.772z"/>
		</g>
		<g>
			<path fill="#73FFD0" d="M58.567,293.281c3.035-2.369,7.417-1.83,9.784,1.204l4.8,6.147c2.368,3.035,1.828,7.417-1.205,9.785
				l-0.356,0.277c-3.034,2.369-7.416,1.828-9.783-1.207l-4.799-6.146c-2.369-3.034-1.83-7.416,1.206-9.785L58.567,293.281z"/>
		</g>
		<g>
			<path fill="#73FFD0" d="M71.771,288.108c0.601-0.466,1.465-0.355,1.93,0.243l6.823,8.809c0.466,0.6,0.356,1.463-0.245,1.929l0,0
				c-0.6,0.466-1.464,0.355-1.929-0.245l-6.823-8.806C71.062,289.438,71.171,288.573,71.771,288.108L71.771,288.108z"/>
		</g>
		<g>
			<path fill="#F3FFAB" d="M59.506,296.109c0.555-0.089,1.187-0.189,1.332-0.003c0.146,0.188-0.105,0.776-0.326,1.294
				c-0.395,0.931-0.994,2.336-0.024,3.58c0.97,1.24,2.479,1.002,3.479,0.844c0.556-0.087,1.186-0.188,1.331,0
				c0.145,0.184-0.105,0.771-0.326,1.287c-0.396,0.933-0.996,2.338-0.026,3.58c0.97,1.242,2.48,1.002,3.479,0.844
				c0.556-0.089,1.186-0.188,1.332-0.002c0.145,0.184-0.106,0.772-0.327,1.288c-0.347,0.815-0.85,1.997-0.318,3.112
				c0.725-0.195,1.423-0.517,2.074-0.954c-0.114-0.206,0.123-0.767,0.336-1.267c0.396-0.931,0.995-2.336,0.026-3.579
				c-0.97-1.243-2.479-1.003-3.479-0.845c-0.555,0.09-1.186,0.189-1.33,0.004c-0.145-0.187,0.105-0.772,0.326-1.291
				c0.396-0.93,0.997-2.336,0.026-3.577c-0.97-1.243-2.479-1.003-3.479-0.846c-0.556,0.089-1.187,0.19-1.332,0.003
				c-0.146-0.188,0.104-0.774,0.324-1.291c0.397-0.932,0.995-2.338,0.025-3.584c-0.467-0.598-1.06-0.852-1.66-0.937
				c-0.646-0.093-1.302,0.011-1.819,0.095c-0.538,0.083-1.14,0.176-1.313,0.016c-0.583,0.523-1.064,1.123-1.428,1.779
				C57.363,296.447,58.63,296.248,59.506,296.109z"/>
		</g>
	</g>
	<g>
		<path fill="#DB7752" d="M56.165,173.988c0,0.979-0.793,1.772-1.772,1.772H32.341c-0.978,0-1.771-0.793-1.771-1.772l0,0
			c0-0.979,0.793-1.771,1.771-1.771h22.051C55.372,172.216,56.165,173.009,56.165,173.988L56.165,173.988z"/>
	</g>
	<g>
		<circle fill="#2A3013" cx="240.64" cy="196.127" r="186.172"/>
	</g>
	<g>
		<path fill="#F3FFAB" d="M240.639,319.368c-16.637,0-32.776-3.259-47.972-9.685c-14.675-6.208-27.855-15.095-39.173-26.412
			c-11.318-11.318-20.204-24.497-26.411-39.174c-6.427-15.194-9.686-31.334-9.686-47.971c0-16.636,3.259-32.776,9.686-47.971
			c6.208-14.676,15.093-27.855,26.411-39.172c11.317-11.318,24.498-20.204,39.173-26.413c15.195-6.426,31.335-9.685,47.972-9.685
			s32.775,3.259,47.971,9.685c14.676,6.208,27.855,15.094,39.172,26.413c11.318,11.317,20.205,24.496,26.412,39.172
			c6.427,15.195,9.686,31.335,9.686,47.971c0,16.637-3.259,32.776-9.686,47.971c-6.207,14.677-15.094,27.855-26.412,39.174
			c-11.316,11.317-24.496,20.204-39.172,26.412C273.414,316.109,257.276,319.368,240.639,319.368z M240.639,75.84
			c-66.327,0-120.288,53.96-120.288,120.287c0,66.328,53.961,120.288,120.288,120.288c66.327,0,120.287-53.96,120.287-120.288
			C360.926,129.8,306.966,75.84,240.639,75.84z"/>
	</g>
	<g>
		<g>
			<circle fill="#BBCF5C" cx="240.639" cy="196.127" r="171.627"/>
		</g>
		<g>
			<path fill="#99AF4A" d="M240.639,358c-21.853,0-43.052-4.278-63.009-12.719c-19.276-8.154-36.587-19.826-51.454-34.692
				c-14.866-14.864-26.537-32.177-34.69-51.452c-8.441-19.959-12.721-41.158-12.721-63.01c0-21.852,4.28-43.051,12.721-63.009
				c8.153-19.276,19.825-36.587,34.69-51.453c14.866-14.866,32.178-26.537,51.454-34.691c19.958-8.441,41.157-12.722,63.009-12.722
				c21.852,0,43.052,4.28,63.009,12.722c19.276,8.154,36.588,19.825,51.454,34.691c14.866,14.866,26.537,32.177,34.69,51.453
				c8.441,19.958,12.721,41.157,12.721,63.009c0,21.852-4.279,43.051-12.721,63.01c-8.153,19.275-19.824,36.588-34.69,51.452
				c-14.866,14.866-32.178,26.538-51.454,34.692C283.691,353.722,262.49,358,240.639,358z M240.639,37.206
				c-87.629,0-158.922,71.292-158.922,158.921c0,87.629,71.292,158.921,158.922,158.921c87.629,0,158.922-71.292,158.922-158.921
				C399.561,108.498,328.268,37.206,240.639,37.206z"/>
		</g>
		<g>
			<path fill="#99AF4A" d="M240.639,329.72c-18.034,0-35.529-3.533-52.001-10.5c-15.908-6.728-30.195-16.359-42.463-28.628
				c-12.269-12.268-21.901-26.555-28.63-42.464c-6.967-16.472-10.499-33.967-10.499-52.001c0-18.034,3.532-35.529,10.499-52
				c6.729-15.909,16.361-30.194,28.63-42.463c12.268-12.269,26.555-21.902,42.463-28.63c16.472-6.967,33.967-10.499,52.001-10.499
				s35.53,3.532,52,10.499c15.909,6.728,30.196,16.361,42.464,28.63c12.269,12.269,21.901,26.555,28.63,42.463
				c6.967,16.471,10.499,33.967,10.499,52c0,18.034-3.532,35.529-10.499,52.001c-6.729,15.907-16.361,30.196-28.63,42.464
				c-12.268,12.269-26.555,21.9-42.464,28.628C276.169,326.187,258.673,329.72,240.639,329.72z M240.639,65.488
				c-72.035,0-130.64,58.604-130.64,130.639c0,72.035,58.605,130.64,130.64,130.64c72.036,0,130.641-58.604,130.641-130.64
				C371.28,124.092,312.675,65.488,240.639,65.488z"/>
		</g>
		<g>
			<path fill="#99AF4A" d="M240.639,342.113c-19.707,0-38.826-3.859-56.825-11.473c-17.384-7.354-32.997-17.879-46.403-31.285
				c-13.407-13.406-23.933-29.02-31.286-46.402c-7.613-18-11.473-37.119-11.473-56.826s3.859-38.826,11.473-56.825
				c7.353-17.384,17.879-32.996,31.286-46.403c13.406-13.407,29.019-23.933,46.403-31.286c17.999-7.613,37.118-11.473,56.825-11.473
				s38.826,3.86,56.825,11.473c17.384,7.353,32.996,17.879,46.402,31.286c13.408,13.407,23.934,29.019,31.286,46.403
				c7.613,18,11.474,37.118,11.474,56.825s-3.86,38.826-11.474,56.826c-7.353,17.383-17.878,32.996-31.286,46.402
				c-13.406,13.406-29.019,23.932-46.402,31.285C279.465,338.254,260.346,342.113,240.639,342.113z M240.639,53.093
				c-78.869,0-143.034,64.165-143.034,143.034s64.165,143.034,143.034,143.034c78.869,0,143.034-64.165,143.034-143.034
				S319.508,53.093,240.639,53.093z"/>
		</g>
		<g>
			<path fill="#99AF4A" d="M240.639,309.855c-30.378,0-58.938-11.83-80.418-33.311c-21.48-21.48-33.31-50.039-33.31-80.418
				c0-30.378,11.83-58.938,33.31-80.417c21.48-21.481,50.041-33.312,80.418-33.312s58.938,11.83,80.417,33.312
				c21.481,21.48,33.312,50.04,33.312,80.417c0,30.377-11.83,58.938-33.312,80.418C299.576,298.025,271.017,309.855,240.639,309.855
				z M240.639,85.352c-61.082,0-110.775,49.692-110.775,110.775c0,61.082,49.693,110.775,110.775,110.775
				c61.082,0,110.776-49.693,110.776-110.775C351.415,135.044,301.721,85.352,240.639,85.352z"/>
		</g>
		<g>
			<path fill="#99AF4A" d="M240.639,319.368c-16.637,0-32.776-3.259-47.972-9.685c-14.675-6.208-27.855-15.095-39.173-26.412
				c-11.318-11.318-20.204-24.497-26.411-39.174c-6.427-15.194-9.686-31.334-9.686-47.971c0-16.636,3.259-32.776,9.686-47.971
				c6.208-14.676,15.093-27.855,26.411-39.172c11.317-11.318,24.498-20.204,39.173-26.413c15.195-6.426,31.335-9.685,47.972-9.685
				s32.775,3.259,47.971,9.685c14.676,6.208,27.855,15.094,39.172,26.413c11.318,11.317,20.205,24.496,26.412,39.172
				c6.427,15.195,9.686,31.335,9.686,47.971c0,16.637-3.259,32.776-9.686,47.971c-6.207,14.677-15.094,27.855-26.412,39.174
				c-11.316,11.317-24.496,20.204-39.172,26.412C273.414,316.109,257.276,319.368,240.639,319.368z M240.639,75.84
				c-66.327,0-120.288,53.96-120.288,120.287c0,66.328,53.961,120.288,120.288,120.288c66.327,0,120.287-53.96,120.287-120.288
				C360.926,129.8,306.966,75.84,240.639,75.84z"/>
		</g>
		<g>
			<path fill="#99AF4A" d="M240.639,299.977c-27.739,0-53.818-10.803-73.433-30.417c-19.614-19.615-30.417-45.693-30.417-73.433
				c0-27.739,10.802-53.817,30.417-73.432c19.615-19.615,45.693-30.417,73.433-30.417c27.738,0,53.816,10.801,73.431,30.417
				c19.616,19.615,30.418,45.693,30.418,73.432c0,27.739-10.802,53.817-30.418,73.433
				C294.455,289.174,268.377,299.977,240.639,299.977z M240.639,95.232c-55.634,0-100.896,45.261-100.896,100.895
				c0,55.634,45.262,100.896,100.896,100.896c55.635,0,100.896-45.263,100.896-100.896
				C341.534,140.494,296.274,95.232,240.639,95.232z"/>
		</g>
		<g>
			<path fill="#99AF4A" d="M240.639,349.223c-20.667,0-40.717-4.047-59.592-12.031c-18.231-7.711-34.603-18.75-48.662-32.81
				c-14.06-14.06-25.099-30.433-32.81-48.663c-7.983-18.875-12.031-38.926-12.031-59.592c0-20.667,4.048-40.717,12.031-59.592
				c7.711-18.231,18.75-34.604,32.81-48.662c14.06-14.06,30.431-25.098,48.662-32.809c18.875-7.983,38.925-12.031,59.592-12.031
				s40.717,4.048,59.592,12.031c18.231,7.711,34.603,18.75,48.662,32.809c14.06,14.059,25.099,30.431,32.81,48.662
				c7.984,18.875,12.032,38.925,12.032,59.592c0,20.666-4.048,40.717-12.032,59.592c-7.711,18.23-18.75,34.604-32.81,48.663
				s-30.431,25.099-48.662,32.81C281.356,345.176,261.306,349.223,240.639,349.223z M240.639,45.986
				c-82.789,0-150.142,67.352-150.142,150.141c0,82.788,67.353,150.143,150.142,150.143c82.788,0,150.143-67.354,150.143-150.143
				C390.781,113.338,323.427,45.986,240.639,45.986z"/>
		</g>
		<g>
			<path fill="#99AF4A" d="M240.639,280.129c-22.438,0-43.533-8.736-59.399-24.604c-15.865-15.867-24.603-36.96-24.603-59.398
				c0-22.438,8.738-43.533,24.603-59.398c15.866-15.866,36.961-24.603,59.399-24.603s43.532,8.737,59.397,24.603
				c15.867,15.865,24.604,36.96,24.604,59.398c0,22.438-8.737,43.531-24.604,59.398
				C284.171,271.393,263.076,280.129,240.639,280.129z M240.639,115.079c-44.69,0-81.049,36.358-81.049,81.048
				s36.359,81.05,81.049,81.05s81.049-36.36,81.049-81.05S285.329,115.079,240.639,115.079z"/>
		</g>
		<g>
			<path fill="#99AF4A" d="M240.639,234.417c-21.113,0-38.289-17.177-38.289-38.289c0-21.113,17.176-38.291,38.289-38.291
				c21.112,0,38.289,17.178,38.289,38.291C278.928,217.24,261.751,234.417,240.639,234.417z M240.639,160.792
				c-19.483,0-35.336,15.852-35.336,35.336c0,19.484,15.853,35.337,35.336,35.337c19.484,0,35.335-15.853,35.335-35.337
				C275.974,176.643,260.123,160.792,240.639,160.792z"/>
		</g>
		<g>
			<path fill="#99AF4A" d="M240.639,289.383c-24.909,0-48.328-9.7-65.942-27.313c-17.613-17.614-27.314-41.032-27.314-65.942
				c0-24.909,9.701-48.328,27.314-65.942c17.614-17.613,41.033-27.314,65.942-27.314s48.328,9.701,65.941,27.314
				c17.614,17.614,27.314,41.033,27.314,65.942c0,24.91-9.7,48.328-27.314,65.942C288.967,279.683,265.548,289.383,240.639,289.383z
				 M240.639,105.825c-49.792,0-90.302,40.508-90.302,90.302c0,49.793,40.51,90.303,90.302,90.303
				c49.794,0,90.302-40.51,90.302-90.303C330.941,146.333,290.433,105.825,240.639,105.825z"/>
		</g>
		<g>
			<path fill="#99AF4A" d="M240.639,243.325c-26.025,0-47.199-21.173-47.199-47.198c0-26.026,21.174-47.199,47.199-47.199
				s47.199,21.173,47.199,47.199C287.838,222.152,266.664,243.325,240.639,243.325z M240.639,151.88
				c-24.397,0-44.246,19.85-44.246,44.247c0,24.397,19.849,44.246,44.246,44.246c24.398,0,44.246-19.849,44.246-44.246
				C284.885,171.73,265.037,151.88,240.639,151.88z"/>
		</g>
		<g>
			<path fill="#99AF4A" d="M240.639,256.869c-33.493,0-60.742-27.248-60.742-60.742c0-33.494,27.249-60.743,60.742-60.743
				s60.741,27.25,60.741,60.743C301.38,229.621,274.132,256.869,240.639,256.869z M240.639,138.338
				c-31.865,0-57.789,25.923-57.789,57.789c0,31.865,25.923,57.789,57.789,57.789s57.789-25.924,57.789-57.789
				C298.428,164.261,272.504,138.338,240.639,138.338z"/>
		</g>
		<g>
			<path fill="#99AF4A" d="M240.639,223.744c-15.228,0-27.617-12.389-27.617-27.617c0-15.228,12.39-27.616,27.617-27.616
				s27.616,12.389,27.616,27.616C268.255,211.355,255.866,223.744,240.639,223.744z M240.639,171.463
				c-13.6,0-24.664,11.064-24.664,24.664s11.064,24.664,24.664,24.664s24.663-11.064,24.663-24.664S254.239,171.463,240.639,171.463
				z"/>
		</g>
		<g>
			<path fill="#99AF4A" d="M240.639,212.008c-8.757,0-15.881-7.124-15.881-15.881c0-8.758,7.124-15.88,15.881-15.88
				s15.881,7.123,15.881,15.88C256.52,204.884,249.396,212.008,240.639,212.008z M240.639,183.199
				c-7.129,0-12.928,5.799-12.928,12.928c0,7.128,5.799,12.928,12.928,12.928s12.928-5.8,12.928-12.928
				C253.567,188.999,247.768,183.199,240.639,183.199z"/>
		</g>
		<g>
			<circle fill="#99AF4A" cx="240.638" cy="196.127" r="6.995"/>
		</g>
		<g>
			<path fill="#99AF4A" d="M240.639,270.672c-19.911,0-38.631-7.754-52.71-21.834c-14.08-14.08-21.833-32.8-21.833-52.711
				c0-19.912,7.753-38.632,21.833-52.71c14.08-14.08,32.799-21.834,52.71-21.834s38.63,7.754,52.711,21.834
				c14.079,14.079,21.833,32.798,21.833,52.71c0,19.911-7.754,38.631-21.833,52.711C279.269,262.918,260.55,270.672,240.639,270.672
				z M240.639,124.535c-39.476,0-71.59,32.116-71.59,71.592c0,39.477,32.115,71.591,71.59,71.591s71.592-32.114,71.592-71.591
				C312.231,156.651,280.115,124.535,240.639,124.535z"/>
		</g>
		<g>
			<rect x="239.162" y="35.729" fill="#99AF4A" width="2.954" height="28.282"/>
		</g>
		<g>
			<rect x="239.162" y="328.242" fill="#99AF4A" width="2.954" height="28.283"/>
		</g>
		<g>
			
				<rect x="191.898" y="100.213" transform="matrix(0.4147 0.9099 -0.9099 0.4147 210.8207 -124.3888)" fill="#99AF4A" width="20.416" height="2.953"/>
		</g>
		<g>
			
				<rect x="306.084" y="108.892" transform="matrix(0.7521 0.6591 -0.6591 0.7521 154.7714 -173.1731)" fill="#99AF4A" width="2.952" height="20.472"/>
		</g>
		<g>
			
				<rect x="205.144" y="261.538" transform="matrix(0.7839 0.6209 -0.6209 0.7839 213.0311 -69.6852)" fill="#99AF4A" width="2.954" height="19.295"/>
		</g>
		<g>
			
				<rect x="344.518" y="280.936" transform="matrix(0.7436 0.6687 -0.6687 0.7436 280.8377 -167.4527)" fill="#99AF4A" width="28.43" height="2.954"/>
		</g>
		<g>
			
				<rect x="160.605" y="151.933" transform="matrix(0.9424 0.3344 -0.3344 0.9424 61.0974 -48.072)" fill="#99AF4A" width="19.118" height="2.953"/>
		</g>
		<g>
			
				<rect x="230.706" y="135.16" transform="matrix(0.0072 1 -1 0.0072 379.1677 -108.619)" fill="#99AF4A" width="27.155" height="2.952"/>
		</g>
		<g>
			
				<rect x="85.31" y="155.431" transform="matrix(0.9971 0.0763 -0.0763 0.9971 12.2698 -7.1558)" fill="#99AF4A" width="28.839" height="2.952"/>
		</g>
		<g>
			
				<rect x="171.11" y="261.881" transform="matrix(0.7656 0.6433 -0.6433 0.7656 215.4943 -47.2452)" fill="#99AF4A" width="2.953" height="20.479"/>
		</g>
		<g>
			
				<rect x="112.126" y="272.411" transform="matrix(0.5753 0.8179 -0.8179 0.5753 277.4781 26.1025)" fill="#99AF4A" width="2.953" height="15.704"/>
		</g>
		<g>
			
				<rect x="288.759" y="74.496" transform="matrix(0.9207 0.3904 -0.3904 0.9207 55.9909 -106.6036)" fill="#99AF4A" width="2.953" height="19.874"/>
		</g>
		<g>
			
				<rect x="199.367" y="177.316" transform="matrix(0.8713 0.4907 -0.4907 0.8713 114.6494 -79.6301)" fill="#99AF4A" width="19.586" height="2.955"/>
		</g>
		<g>
			
				<rect x="223.804" y="218.823" transform="matrix(0.9031 0.4294 -0.4294 0.9031 119.9972 -74.587)" fill="#99AF4A" width="2.954" height="19.588"/>
		</g>
		<g>
			<g>
				<circle fill="#99AF4A" cx="152.155" cy="110.952" r="3.295"/>
			</g>
			<g>
				<circle fill="#F3FFAB" cx="261.039" cy="147.11" r="3.295"/>
			</g>
			<g>
				<circle fill="#99AF4A" cx="329.123" cy="110.952" r="3.295"/>
			</g>
			<g>
				<circle fill="#99AF4A" cx="305.844" cy="333.715" r="3.295"/>
			</g>
			<g>
				<circle fill="#99AF4A" cx="233.644" cy="319.168" r="3.295"/>
			</g>
			<g>
				<circle fill="#99AF4A" cx="120.026" cy="184.807" r="3.295"/>
			</g>
			<g>
				<circle fill="#99AF4A" cx="230.349" cy="131.343" r="3.295"/>
			</g>
			<g>
				<circle fill="#99AF4A" cx="191.621" cy="129.532" r="3.295"/>
			</g>
			<g>
				<circle fill="#99AF4A" cx="148.4" cy="154.712" r="3.295"/>
			</g>
			<g>
				<circle fill="#99AF4A" cx="379.427" cy="259.92" r="3.295"/>
			</g>
			<g>
				<circle fill="#F3FFAB" cx="376.132" cy="223.068" r="3.295"/>
			</g>
			<g>
				<circle fill="#F3FFAB" cx="255.043" cy="246.514" r="3.295"/>
			</g>
			<g>
				<circle fill="#F3FFAB" cx="279.281" cy="142.859" r="3.294"/>
			</g>
			<g>
				<circle fill="#F3FFAB" cx="227.091" cy="259.92" r="3.295"/>
			</g>
			<g>
				<circle fill="#F3FFAB" cx="203.326" cy="328.943" r="3.295"/>
			</g>
			<g>
				<circle fill="#F3FFAB" cx="128.926" cy="276.968" r="3.295"/>
			</g>
			<g>
				<circle fill="#F3FFAB" cx="360.005" cy="126.827" r="1.81"/>
			</g>
			<g>
				<circle fill="#F3FFAB" cx="250.928" cy="94.252" r="1.809"/>
			</g>
			<g>
				<circle fill="#F3FFAB" cx="252.739" cy="322.463" r="1.81"/>
			</g>
			<g>
				<circle fill="#F3FFAB" cx="263.46" cy="258.436" r="1.81"/>
			</g>
			<g>
				<circle fill="#F3FFAB" cx="232.196" cy="335.523" r="1.81"/>
			</g>
			<g>
				<circle fill="#F3FFAB" cx="271.884" cy="254.622" r="1.81"/>
			</g>
			<g>
				<circle fill="#F3FFAB" cx="138.266" cy="164.731" r="1.81"/>
			</g>
			<g>
				<circle fill="#F3FFAB" cx="137.09" cy="123.058" r="1.81"/>
			</g>
			<g>
				<circle fill="#F3FFAB" cx="186.38" cy="54.006" r="1.81"/>
			</g>
			<g>
				<circle fill="#F3FFAB" cx="314.304" cy="133.492" r="1.81"/>
			</g>
			<g>
				<circle fill="#99AF4A" cx="382.014" cy="139.241" r="1.809"/>
			</g>
			<g>
				<circle fill="#99AF4A" cx="394.669" cy="208.723" r="1.811"/>
			</g>
			<g>
				<circle fill="#99AF4A" cx="167.572" cy="96.194" r="1.81"/>
			</g>
			<g>
				<circle fill="#99AF4A" cx="114.922" cy="203.949" r="1.809"/>
			</g>
			<g>
				<circle fill="#99AF4A" cx="99.729" cy="257.221" r="1.81"/>
			</g>
			<g>
				<circle fill="#99AF4A" cx="227.091" cy="96.062" r="1.81"/>
			</g>
			<g>
				<circle fill="#99AF4A" cx="183.183" cy="137.92" r="1.81"/>
			</g>
			<g>
				<circle fill="#99AF4A" cx="146.59" cy="166.54" r="1.81"/>
			</g>
			<g>
				<circle fill="#99AF4A" cx="270.074" cy="346.662" r="1.81"/>
			</g>
			<g>
				<circle fill="#99AF4A" cx="281.091" cy="263.215" r="1.81"/>
			</g>
			<g>
				<circle fill="#F3FFAB" cx="367.244" cy="196.127" r="1.81"/>
			</g>
			<g>
				<circle fill="#F3FFAB" cx="348.163" cy="262.471" r="1.81"/>
			</g>
			<g>
				<circle fill="#F3FFAB" cx="240.152" cy="248.322" r="1.81"/>
			</g>
			<g>
				<circle fill="#F3FFAB" cx="249.119" cy="166.001" r="1.81"/>
			</g>
			<g>
				<circle fill="#F3FFAB" cx="376.132" cy="175.798" r="1.81"/>
			</g>
			<g>
				<circle fill="#F3FFAB" cx="392.203" cy="198.182" r="1.81"/>
			</g>
		</g>
	</g>
	<g>
		<path fill="#99AF4A" d="M240.639,280.129c-22.438,0-43.533-8.736-59.399-24.604c-15.865-15.867-24.603-36.96-24.603-59.398
			c0-22.438,8.738-43.533,24.603-59.398c15.866-15.866,36.961-24.603,59.399-24.603s43.532,8.737,59.397,24.603
			c15.867,15.865,24.604,36.96,24.604,59.398c0,22.438-8.737,43.531-24.604,59.398C284.171,271.393,263.076,280.129,240.639,280.129
			z M240.639,115.079c-44.69,0-81.049,36.358-81.049,81.048s36.359,81.05,81.049,81.05s81.049-36.36,81.049-81.05
			S285.329,115.079,240.639,115.079z"/>
	</g>
	<g>
		<g>
			<path fill="#2A3013" d="M147.427,307.029c-4.498,0-8.157-3.66-8.157-8.16v-9.816c0-4.498,3.659-8.157,8.157-8.157h186.423
				c4.498,0,8.158,3.659,8.158,8.157v9.816c0,4.5-3.66,8.16-8.158,8.16H147.427z"/>
		</g>
		<g>
			<g>
				<path fill="#99AF4A" d="M333.851,284.145c2.711,0,4.909,2.199,4.909,4.908v9.816c0,2.712-2.198,4.91-4.909,4.91H147.427
					c-2.711,0-4.908-2.198-4.908-4.91v-9.816c0-2.709,2.197-4.908,4.908-4.908H333.851 M333.851,277.646H147.427
					c-6.289,0-11.406,5.117-11.406,11.406v9.816c0,6.291,5.117,11.408,11.406,11.408h186.423c6.289,0,11.405-5.117,11.405-11.408
					v-9.816C345.256,282.764,340.14,277.646,333.851,277.646L333.851,277.646z"/>
			</g>
		</g>
	</g>
	<g>
		<g>
			<g>
				<path fill="#2A3013" d="M166.484,262.283c-22.013,0-39.92-17.908-39.92-39.918c0-22.012,17.908-39.92,39.92-39.92
					c22.012,0,39.92,17.908,39.92,39.92C206.405,244.375,188.496,262.283,166.484,262.283z"/>
			</g>
			<g>
				<g>
					<path fill="#99AF4A" d="M166.484,184.807c20.742,0,37.558,16.814,37.558,37.559c0,20.743-16.816,37.555-37.558,37.555
						c-20.742,0-37.558-16.812-37.558-37.555C128.926,201.621,145.742,184.807,166.484,184.807 M166.484,180.081
						c-11.294,0-21.912,4.399-29.898,12.384c-7.987,7.986-12.385,18.604-12.385,29.9c0,11.294,4.398,21.912,12.385,29.898
						c7.986,7.985,18.604,12.381,29.898,12.381s21.912-4.396,29.898-12.381c7.986-7.986,12.386-18.604,12.386-29.898
						c0-11.296-4.399-21.914-12.386-29.9C188.396,184.479,177.778,180.081,166.484,180.081L166.484,180.081z"/>
				</g>
			</g>
		</g>
		<g>
			<g>
				<path fill="#BBCF5C" d="M166.485,202.473c10.989,0,19.895,8.906,19.895,19.89c0,10.988-8.906,19.896-19.895,19.896
					c-10.985,0-19.895-8.908-19.895-19.896C146.59,211.379,155.499,202.473,166.485,202.473 M166.485,199.52
					c-12.598,0-22.849,10.246-22.849,22.843c0,12.601,10.25,22.85,22.849,22.85c12.599,0,22.848-10.249,22.848-22.85
					C189.333,209.766,179.084,199.52,166.485,199.52L166.485,199.52z"/>
			</g>
		</g>
		<g>
			<circle fill="#73FFD0" cx="166.484" cy="222.365" r="12.159"/>
		</g>
		<g>
			<circle fill="#2A3013" cx="166.485" cy="222.365" r="6.62"/>
		</g>
	</g>
	<g>
		<g>
			<g>
				<path fill="#2A3013" d="M315.029,262.283c-22.013,0-39.92-17.908-39.92-39.918c0-22.012,17.907-39.92,39.92-39.92
					s39.922,17.908,39.922,39.92C354.95,244.375,337.041,262.283,315.029,262.283z"/>
			</g>
			<g>
				<g>
					<path fill="#99AF4A" d="M315.029,184.807c20.743,0,37.56,16.814,37.56,37.559c0,20.743-16.816,37.555-37.56,37.555
						c-20.741,0-37.557-16.812-37.557-37.555C277.472,201.621,294.287,184.807,315.029,184.807 M315.029,180.081
						c-11.294,0-21.911,4.399-29.898,12.384c-7.986,7.986-12.384,18.604-12.384,29.9c0,11.294,4.397,21.912,12.384,29.898
						c7.987,7.985,18.604,12.381,29.898,12.381s21.913-4.396,29.899-12.381c7.987-7.986,12.385-18.604,12.385-29.898
						c0-11.296-4.397-21.914-12.385-29.9C336.942,184.479,326.323,180.081,315.029,180.081L315.029,180.081z"/>
				</g>
			</g>
		</g>
		<g>
			<g>
				<path fill="#BBCF5C" d="M315.031,202.473c10.987,0,19.895,8.906,19.895,19.89c0,10.988-8.907,19.896-19.895,19.896
					c-10.986,0-19.896-8.908-19.896-19.896C295.134,211.379,304.044,202.473,315.031,202.473 M315.031,199.52
					c-12.6,0-22.851,10.246-22.851,22.843c0,12.601,10.251,22.85,22.851,22.85c12.598,0,22.847-10.249,22.847-22.85
					C337.877,209.766,327.628,199.52,315.031,199.52L315.031,199.52z"/>
			</g>
		</g>
		<g>
			<circle fill="#D86E4E" cx="315.031" cy="222.365" r="12.159"/>
		</g>
		<g>
			<circle fill="#EFD7D2" cx="315.03" cy="222.365" r="6.621"/>
		</g>
	</g>
	<g>
		<g>
			<path fill="#F3FFAB" d="M174.459,284.145v6.988c0,2.336-1.894,4.229-4.23,4.229l0,0c-2.336,0-4.23-1.893-4.23-4.229v-6.988
				H174.459z"/>
		</g>
		<g>
			<path fill="#F3FFAB" d="M197.767,284.145v6.988c0,2.336-1.895,4.229-4.23,4.229l0,0c-2.335,0-4.229-1.893-4.229-4.229v-6.988
				H197.767z"/>
		</g>
		<g>
			<path fill="#F3FFAB" d="M221.074,284.145v6.988c0,2.336-1.894,4.229-4.23,4.229l0,0c-2.336,0-4.229-1.893-4.229-4.229v-6.988
				H221.074z"/>
		</g>
		<g>
			<path fill="#F3FFAB" d="M244.381,284.145v6.988c0,2.336-1.893,4.229-4.229,4.229l0,0c-2.337,0-4.23-1.893-4.23-4.229v-6.988
				H244.381z"/>
		</g>
		<g>
			<path fill="#D86E4E" d="M267.69,284.145v6.988c0,2.336-1.895,4.229-4.23,4.229l0,0c-2.335,0-4.229-1.893-4.229-4.229v-6.988
				H267.69z"/>
		</g>
		<g>
			<path fill="#F3FFAB" d="M290.996,284.145v6.988c0,2.336-1.893,4.229-4.23,4.229l0,0c-2.336,0-4.228-1.893-4.228-4.229v-6.988
				H290.996z"/>
		</g>
		<g>
			<path fill="#F3FFAB" d="M314.305,284.145v6.988c0,2.336-1.895,4.229-4.23,4.229l0,0c-2.336,0-4.229-1.893-4.229-4.229v-6.988
				H314.305z"/>
		</g>
	</g>
	<g>
		
			<rect x="118.692" y="96.07" transform="matrix(0.6948 0.7192 -0.7192 0.6948 110.663 -65.7023)" fill="#99AF4A" width="28.118" height="2.954"/>
	</g>
	<g>
		
			<rect x="381.414" y="147.842" transform="matrix(0.282 0.9594 -0.9594 0.282 430.3622 -251.0298)" fill="#99AF4A" width="2.954" height="28.325"/>
	</g>
	<g>
		<line fill="none" x1="294.11" y1="330.42" x2="300.814" y2="344.854"/>
	</g>
	<g>
		<rect x="266.78" y="194.65" fill="#99AF4A" width="19.583" height="2.953"/>
	</g>
	<g>
		<g>
			<path fill="#2A3013" d="M41.983,175.473c0,4.278-3.469,7.748-7.748,7.748l0,0c-4.279,0-7.748-3.47-7.748-7.748v-46.808
				c0-4.279,3.469-7.748,7.748-7.748l0,0c4.278,0,7.748,3.468,7.748,7.748V175.473z"/>
		</g>
		<g>
			<path fill="#F3FFAB" d="M66.138,131.343c0,1-0.811,1.811-1.811,1.811H45.18c-1,0-1.813-0.811-1.813-1.811l0,0
				c0-1.001,0.812-1.811,1.813-1.811h19.147C65.328,129.532,66.138,130.341,66.138,131.343L66.138,131.343z"/>
		</g>
		<g>
			<path fill="#2A3013" d="M22.011,120.659c0,1.251,1.015,2.266,2.268,2.266h23.483c1.253,0,2.268-1.015,2.268-2.266l0,0
				c0-1.253-1.015-2.269-2.268-2.269H24.279C23.026,118.39,22.011,119.405,22.011,120.659L22.011,120.659z"/>
		</g>
		<g>
			<path fill="#2A3013" d="M26.488,129.873c0-8.558,6.938-15.495,15.495-15.495l0,0c8.557,0,15.495,6.937,15.495,15.495l0,0
				c0,8.558-6.938,15.495-15.495,15.495l0,0C33.426,145.368,26.488,138.431,26.488,129.873L26.488,129.873z"/>
		</g>
		<g>
			<path fill="#F3FFAB" d="M33.936,129.873c0-4.443,3.604-8.048,8.047-8.048l0,0c4.445,0,8.047,3.604,8.047,8.048l0,0
				c0,4.445-3.602,8.048-8.047,8.048l0,0C37.539,137.92,33.936,134.317,33.936,129.873L33.936,129.873z"/>
		</g>
		<g>
			<path fill="#DB7752" d="M39.055,129.873c0-1.617,1.311-2.929,2.928-2.929l0,0c1.617,0,2.927,1.312,2.927,2.929l0,0
				c0,1.619-1.31,2.929-2.927,2.929l0,0C40.366,132.801,39.055,131.491,39.055,129.873L39.055,129.873z"/>
		</g>
		<g>
			<path fill="#2A3013" d="M13.965,116.646c0,1.25,1.015,2.266,2.267,2.266h23.484c1.252,0,2.268-1.016,2.268-2.266l0,0
				c0-1.254-1.015-2.269-2.268-2.269H16.231C14.98,114.377,13.965,115.393,13.965,116.646L13.965,116.646z"/>
		</g>
		<g>
			<path fill="#2A3013" d="M31.685,201.35c0,1.436-1.164,2.599-2.599,2.599l0,0c-1.435,0-2.599-1.163-2.599-2.599V174.65
				c0-1.435,1.164-2.597,2.599-2.597l0,0c1.435,0,2.599,1.162,2.599,2.597V201.35z"/>
		</g>
	</g>
	<g>
		<path fill="#DB7752" d="M56.165,174.346c0,0.781-0.633,1.414-1.414,1.414l0,0c-0.78,0-1.413-0.633-1.413-1.414v-6.393
			c0-0.779,0.633-1.414,1.413-1.414l0,0c0.781,0,1.414,0.634,1.414,1.414V174.346z"/>
	</g>
	<g>
		<path fill="#2A3013" d="M396.665,102.078c-1.798,1.264-4.28,0.833-5.546-0.964l0,0c-1.266-1.798-0.833-4.282,0.966-5.546
			l76.252-53.676c1.798-1.265,4.28-0.835,5.546,0.963l0,0c1.267,1.797,0.835,4.281-0.964,5.546L396.665,102.078z"/>
	</g>
	<g>
		<path fill="#2A3013" d="M411.466,89.961c-1.219-0.348-1.926-1.614-1.578-2.833l0,0c0.347-1.217,1.614-1.924,2.833-1.577
			l23.107,5.272c1.219,0.348,1.924,1.615,1.577,2.833l0,0c-0.347,1.219-1.614,1.924-2.832,1.577L411.466,89.961z"/>
	</g>
	<g>
		<path fill="#2A3013" d="M447.151,63.58c-1.217-0.347-1.924-1.615-1.578-2.833l0,0c0.348-1.216,1.616-1.923,2.833-1.577
			l23.108,5.273c1.219,0.348,1.924,1.615,1.576,2.833l0,0c-0.346,1.218-1.614,1.924-2.831,1.576L447.151,63.58z"/>
	</g>
	<g>
		<path fill="#2A3013" d="M429.93,74.986c-0.558,1.138-1.93,1.609-3.067,1.054l0,0c-1.137-0.556-1.609-1.93-1.052-3.067
			l9.265-21.816c0.557-1.138,1.929-1.609,3.066-1.052l0,0c1.138,0.555,1.609,1.928,1.052,3.065L429.93,74.986z"/>
	</g>
	<g>
		<path fill="#2A3013" d="M88.347,95.333l-8.219-7.018c-6.091-5.2-6.813-14.352-1.613-20.443l0,0
			c5.201-6.09,14.354-6.812,20.444-1.612l8.219,7.018"/>
	</g>
	<g>
		<g>
			<g>
				<circle fill="#505B2F" cx="180.696" cy="91.898" r="4.319"/>
			</g>
		</g>
		<g>
			<g>
				<circle fill="#505B2F" cx="113.112" cy="113.602" r="4.32"/>
			</g>
		</g>
		<g>
			<g>
				<circle fill="#505B2F" cx="338.76" cy="93.584" r="4.32"/>
			</g>
		</g>
		<g>
			<g>
				<circle fill="#505B2F" cx="352.587" cy="113.602" r="4.319"/>
			</g>
		</g>
		<g>
			<g>
				<circle fill="#505B2F" cx="263.459" cy="332.237" r="4.32"/>
			</g>
		</g>
		<g>
			<g>
				<circle fill="#505B2F" cx="307.539" cy="328.943" r="4.319"/>
			</g>
		</g>
		<g>
			<g>
				<circle fill="#505B2F" cx="332.418" cy="109.283" r="2.536"/>
			</g>
		</g>
		<g>
			<g>
				<circle fill="#505B2F" cx="271.884" cy="79.059" r="2.537"/>
			</g>
		</g>
		<g>
			<g>
				<circle fill="#505B2F" cx="270.073" cy="55.814" r="2.536"/>
			</g>
		</g>
		<g>
			<g>
				<circle fill="#505B2F" cx="155.449" cy="115.981" r="2.536"/>
			</g>
		</g>
		<g>
			<g>
				<circle fill="#505B2F" cx="107.178" cy="162.92" r="2.536"/>
			</g>
		</g>
		<g>
			<g>
				<circle fill="#505B2F" cx="153.395" cy="139.729" r="2.536"/>
			</g>
		</g>
		<g>
			<g>
				<circle fill="#505B2F" cx="125.631" cy="88.477" r="2.536"/>
			</g>
		</g>
		<g>
			<g>
				<circle fill="#505B2F" cx="128.927" cy="104.346" r="2.536"/>
			</g>
		</g>
		<g>
			<g>
				<circle fill="#505B2F" cx="180.696" cy="71.983" r="2.536"/>
			</g>
		</g>
		<g>
			<g>
				<circle fill="#505B2F" cx="386.233" cy="141.05" r="2.536"/>
			</g>
		</g>
		<g>
			<g>
				<circle fill="#505B2F" cx="394.67" cy="178.793" r="2.535"/>
			</g>
		</g>
		<g>
			<g>
				<circle fill="#505B2F" cx="261.04" cy="356.525" r="2.537"/>
			</g>
		</g>
		<g>
			<g>
				<circle fill="#505B2F" cx="369.303" cy="181.722" r="2.536"/>
			</g>
		</g>
		<g>
			<g>
				<circle fill="#505B2F" cx="247.634" cy="346.66" r="2.536"/>
			</g>
		</g>
		<g>
			<g>
				<circle fill="#505B2F" cx="200.628" cy="337.635" r="2.536"/>
			</g>
		</g>
		<g>
			<g>
				<circle fill="#505B2F" cx="274.42" cy="344.125" r="2.536"/>
			</g>
		</g>
		<g>
			<g>
				<circle fill="#505B2F" cx="295.135" cy="344.852" r="2.536"/>
			</g>
		</g>
		<g>
			<g>
				<circle fill="#505B2F" cx="356.573" cy="95.333" r="2.537"/>
			</g>
		</g>
		<g>
			<g>
				<circle fill="#505B2F" cx="369.053" cy="120.658" r="2.536"/>
			</g>
		</g>
		<g>
			<g>
				<circle fill="#505B2F" cx="310.075" cy="65.579" r="2.537"/>
			</g>
		</g>
	</g>
	<g>
		<g>
			<g>
				
					<rect x="303.254" y="5.249" transform="matrix(0.9564 0.292 -0.292 0.9564 17.4919 -88.3877)" fill="#2A3013" width="3.285" height="18.33"/>
			</g>
			<g>
				<path fill="#2A3013" d="M303.989,24.028l-3.707-1.132l5.522-18.097l3.706,1.13L303.989,24.028z M301.02,22.504l2.577,0.787
					l5.176-16.969l-2.576-0.786L301.02,22.504z"/>
			</g>
		</g>
		<g>
			<circle fill="#BEA5E5" cx="307.571" cy="5.647" r="5.646"/>
		</g>
	</g>
	<g>
		<g>
			<g>
				
					<rect x="51.286" y="241.367" transform="matrix(-0.3851 -0.9229 0.9229 -0.3851 -159.432 399.4043)" fill="#2A3013" width="4.103" height="22.894"/>
			</g>
			<g>
				<path fill="#2A3013" d="M43.404,259.5l-1.808-4.331l21.673-9.042l1.809,4.332L43.404,259.5z M42.369,255.486l1.353,3.241
					l20.583-8.587l-1.353-3.24L42.369,255.486z"/>
			</g>
		</g>
		<g>
			<circle fill="#F3FFAB" cx="42.772" cy="257.221" r="7.051"/>
		</g>
	</g>
	<g>
		<g>
			<g>
				
					<rect x="410.441" y="276.602" transform="matrix(-0.5458 0.8379 -0.8379 -0.5458 873.6107 92.8847)" fill="#2A3013" width="2.376" height="13.26"/>
			</g>
			<g>
				<path fill="#2A3013" d="M416.624,288.254l-11.609-7.557l1.618-2.486l11.609,7.557L416.624,288.254z M405.832,280.525
					l10.619,6.911l0.974-1.497l-10.618-6.912L405.832,280.525z"/>
			</g>
		</g>
		<g>
			<circle fill="#F3FFAB" cx="417.186" cy="286.85" r="4.084"/>
		</g>
	</g>
	<g>
		
			<path fill="none" stroke="#F3FFAB" stroke-width="7.0879" stroke-linecap="round" stroke-linejoin="round" stroke-miterlimit="10" d="
			M120.026,134.638"/>
	</g>
</g>
</svg>
