<?xml version="1.0" encoding="utf-8"?>
<!-- Generator: Adobe Illustrator 18.1.1, SVG Export Plug-In . SVG Version: 6.00 Build 0)  -->
<svg version="1.1" id="Layer_1" xmlns="http://www.w3.org/2000/svg" xmlns:xlink="http://www.w3.org/1999/xlink" x="0px" y="0px"
	 viewBox="0 0 538.8 120.6" enable-background="new 0 0 538.8 120.6" xml:space="preserve">
<g>
	<g>
		<g>
			<g>
				<path fill="#53855F" d="M-2.8,117.7c-11.7,0-21.2-9.5-21.2-21.2V24.2C-24,12.5-14.5,3-2.8,3H176c11.7,0,21.2,9.5,21.2,21.2v72.2
					c0,11.7-9.5,21.2-21.2,21.2H-2.8z"/>
			</g>
			<g>
				<path fill="#53855F" d="M176,6c10.1,0,18.2,8.2,18.2,18.2v72.2c0,10.1-8.2,18.2-18.2,18.2H-2.8c-10.1,0-18.2-8.2-18.2-18.2V24.2
					C-21,14.1-12.9,6-2.8,6H176 M176,0H-2.8c-3.3,0-6.4,0.6-9.4,1.9c-2.9,1.2-5.5,3-7.7,5.2c-2.2,2.2-4,4.8-5.2,7.7
					c-1.3,3-1.9,6.2-1.9,9.4v72.2c0,3.3,0.6,6.4,1.9,9.4c1.2,2.9,3,5.5,5.2,7.7c2.2,2.2,4.8,4,7.7,5.2c3,1.3,6.2,1.9,9.4,1.9H176
					c3.3,0,6.4-0.6,9.4-1.9c2.9-1.2,5.5-3,7.7-5.2c2.2-2.2,4-4.8,5.2-7.7c1.3-3,1.9-6.2,1.9-9.4V24.2c0-3.3-0.6-6.4-1.9-9.4
					c-1.2-2.9-3-5.5-5.2-7.7c-2.2-2.2-4.8-4-7.7-5.2C182.4,0.6,179.3,0,176,0L176,0z"/>
			</g>
		</g>
		<g>
			<g>
				<path fill="#7DA887" d="M-2.8,117.7c-11.7,0-21.2-9.5-21.2-21.2v-3h221.2v3c0,11.7-9.5,21.2-21.2,21.2H-2.8z"/>
			</g>
			<g>
				<path fill="#7DA887" d="M194.2,96.4c0,10.1-8.2,18.2-18.2,18.2H-2.8c-10.1,0-18.2-8.2-18.2-18.2H194.2 M200.2,90.5h-6H-21h-6v6
					c0,3.3,0.6,6.4,1.9,9.4c1.2,2.9,3,5.5,5.2,7.7c2.2,2.2,4.8,4,7.7,5.2c3,1.3,6.2,1.9,9.4,1.9H176c3.3,0,6.4-0.6,9.4-1.9
					c2.9-1.2,5.5-3,7.7-5.2c2.2-2.2,4-4.8,5.2-7.7c1.3-3,1.9-6.2,1.9-9.4V90.5L200.2,90.5z"/>
			</g>
		</g>
		<g>
			<path fill="#010101" d="M137.9,43.3c0,12.4-10,22.4-22.4,22.4H57.6c-12.4,0-22.4-10-22.4-22.4l0,0c0-12.4,10-22.4,22.4-22.4h57.9
				C127.9,20.9,137.9,30.9,137.9,43.3L137.9,43.3z"/>
			<path fill="#1A2636" d="M115.6,67.4H57.6c-13.3,0-24.1-10.8-24.1-24.1s10.8-24.1,24.1-24.1h57.9c13.3,0,24.1,10.8,24.1,24.1
				S128.9,67.4,115.6,67.4z M57.6,22.7C46.3,22.7,37,31.9,37,43.3c0,11.4,9.2,20.6,20.6,20.6h57.9c11.4,0,20.6-9.3,20.6-20.6
				c0-11.4-9.3-20.6-20.6-20.6H57.6z"/>
		</g>
		<g>
			<path fill="#FDD842" d="M124.1,43.3c0-5.2-4.2-9.3-9.3-9.3H58.4c-5.2,0-9.3,4.2-9.3,9.3l0,0c0,5.2,4.2,9.3,9.3,9.3h56.4
				C119.9,52.6,124.1,48.5,124.1,43.3L124.1,43.3z"/>
		</g>
		<g>
			<path fill="#F05123" d="M119.1,43.3c0-3-2.5-5.5-5.5-5.5H59.5c-3,0-5.5,2.5-5.5,5.5l0,0c0,3,2.5,5.5,5.5,5.5h54.1
				C116.7,48.8,119.1,46.3,119.1,43.3L119.1,43.3z"/>
		</g>
		<g>
			<g>
				<path fill="#010101" d="M5.8,114.4c-3.7,0-6.7-3-6.7-6.7v-4.2c0-3.7,3-6.7,6.7-6.7h161.6c3.7,0,6.7,3,6.7,6.7v4.2
					c0,3.7-3,6.7-6.7,6.7H5.8z"/>
			</g>
			<g>
				<path fill="#1A2636" d="M167.4,98.6c2.7,0,4.9,2.2,4.9,4.9v4.2c0,2.7-2.2,4.9-4.9,4.9H5.8c-2.7,0-4.9-2.2-4.9-4.9v-4.2
					c0-2.7,2.2-4.9,4.9-4.9H167.4 M167.4,95.1H5.8c-4.6,0-8.4,3.8-8.4,8.4v4.2c0,4.6,3.8,8.4,8.4,8.4h161.6c4.6,0,8.4-3.8,8.4-8.4
					v-4.2C175.8,98.8,172,95.1,167.4,95.1L167.4,95.1z"/>
			</g>
		</g>
		<g>
			<path fill="#1A2636" d="M100.9,78.7c0,4.2-3.4,7.7-7.7,7.7H79.9c-4.2,0-7.7-3.4-7.7-7.7l0,0c0-4.2,3.4-7.7,7.7-7.7h13.3
				C97.5,71,100.9,74.5,100.9,78.7L100.9,78.7z"/>
		</g>
		<g>
			<g>
				<path fill="#010101" d="M84.7,80.8c0,1.4-1.2,2.6-2.6,2.6l0,0c-1.4,0-2.6-1.2-2.6-2.6v-4.2c0-1.4,1.2-2.6,2.6-2.6l0,0
					c1.4,0,2.6,1.2,2.6,2.6V80.8z"/>
			</g>
			<g>
				<path fill="#010101" d="M93.6,80.8c0,1.4-1.2,2.6-2.6,2.6l0,0c-1.4,0-2.6-1.2-2.6-2.6v-4.2c0-1.4,1.2-2.6,2.6-2.6l0,0
					c1.4,0,2.6,1.2,2.6,2.6V80.8z"/>
			</g>
		</g>
		<g>
			<g>
				<path fill="#FDD842" d="M13.6,98.6v5.1c0,2-1.6,3.6-3.6,3.6l0,0c-2,0-3.6-1.6-3.6-3.6v-5.1"/>
			</g>
			<g>
				<path fill="#FDD842" d="M32.7,98.6v5.1c0,2-1.6,3.6-3.6,3.6l0,0c-2,0-3.6-1.6-3.6-3.6v-5.1"/>
			</g>
			<g>
				<path fill="#FDD842" d="M51.9,98.6v5.1c0,2-1.6,3.6-3.6,3.6l0,0c-2,0-3.6-1.6-3.6-3.6v-5.1"/>
			</g>
			<g>
				<path fill="#FDD842" d="M71,98.6v5.1c0,2-1.6,3.6-3.6,3.6l0,0c-2,0-3.6-1.6-3.6-3.6v-5.1"/>
			</g>
			<g>
				<path fill="#FDD842" d="M90.2,98.6v5.1c0,2-1.6,3.6-3.6,3.6l0,0c-2,0-3.6-1.6-3.6-3.6v-5.1"/>
			</g>
			<g>
				<path fill="#FDD842" d="M109.3,98.6v5.1c0,2-1.6,3.6-3.6,3.6l0,0c-2,0-3.6-1.6-3.6-3.6v-5.1"/>
			</g>
			<g>
				<path fill="#FDD842" d="M128.5,98.6v5.1c0,2-1.6,3.6-3.6,3.6l0,0c-2,0-3.6-1.6-3.6-3.6v-5.1"/>
			</g>
			<g>
				<path fill="#FDD842" d="M147.6,98.6v5.1c0,2-1.6,3.6-3.6,3.6l0,0c-2,0-3.6-1.6-3.6-3.6v-5.1"/>
			</g>
			<g>
				<path fill="#FDD842" d="M166.8,98.6v5.1c0,2-1.6,3.6-3.6,3.6l0,0c-2,0-3.6-1.6-3.6-3.6v-5.1"/>
			</g>
		</g>
		<g>
			<path fill="#010101" d="M126.6,15.4H46.6c-1.5,0-2.6-1.2-2.6-2.6c0-1.5,1.2-2.6,2.6-2.6h79.9c1.5,0,2.6,1.2,2.6,2.6
				C129.2,14.2,128,15.4,126.6,15.4z"/>
		</g>
		<g>
			<circle fill="#36613F" cx="-3.8" cy="26.7" r="3.4"/>
		</g>
		<g>
			<circle fill="#36613F" cx="26.3" cy="12.6" r="3.4"/>
		</g>
		<g>
			<circle fill="#36613F" cx="169.1" cy="20.9" r="3.4"/>
		</g>
		<g>
			<circle fill="#7DA887" cx="7.9" cy="43.5" r="2.1"/>
		</g>
		<g>
			<circle fill="#36613F" cx="155.4" cy="33.9" r="2.1"/>
		</g>
		<g>
			<circle fill="#36613F" cx="188.9" cy="23" r="2.1"/>
		</g>
		<g>
			<circle fill="#7DA887" cx="154.4" cy="14.7" r="2.1"/>
		</g>
		<g>
			<circle fill="#7DA887" cx="144.7" cy="18.8" r="1"/>
		</g>
		<g>
			<circle fill="#7DA887" cx="165.6" cy="9.2" r="1"/>
		</g>
		<g>
			<circle fill="#7DA887" cx="165.6" cy="33.9" r="1"/>
		</g>
		<g>
			<circle fill="#7DA887" cx="180.7" cy="47.4" r="1"/>
		</g>
		<g>
			<circle fill="#7DA887" cx="31.3" cy="23" r="1"/>
		</g>
		<g>
			<circle fill="#7DA887" cx="5.8" cy="30.1" r="1"/>
		</g>
		<g>
			<circle fill="#36613F" cx="-21" cy="29.8" r="1"/>
		</g>
		<g>
			<circle fill="#7DA887" cx="12.7" cy="8.2" r="1"/>
		</g>
		<g>
			<circle fill="#36613F" cx="141.9" cy="6" r="1"/>
		</g>
		<g>
			<circle fill="#7DA887" cx="147.5" cy="43.3" r="1"/>
		</g>
		<g>
			<circle fill="#7DA887" cx="-10.6" cy="39.2" r="2.1"/>
		</g>
		<g>
			<circle fill="#7DA887" cx="15.4" cy="20.9" r="2.1"/>
		</g>
		<g>
			<circle fill="#36613F" cx="20.6" cy="31.9" r="2.1"/>
		</g>
		<g>
			<circle fill="#36613F" cx="2.5" cy="12.6" r="2.1"/>
		</g>
		<g>
			<circle fill="#7DA887" cx="176.5" cy="36" r="2.1"/>
		</g>
		<g>
			<circle fill="#36613F" cx="186.1" cy="39.2" r="2.1"/>
		</g>
		<g>
			<circle fill="#7DA887" cx="178.6" cy="9.2" r="2.1"/>
		</g>
		<g>
			<circle fill="#7DA887" cx="161.9" cy="45.8" r="2.1"/>
		</g>
		<g>
			<circle fill="#7DA887" cx="-12.7" cy="16.8" r="2.1"/>
		</g>
		<g>
			<path fill="#FFFFFF" d="M96.4,43.3c0,0.8-0.7,1.5-1.5,1.5H78.2c-0.8,0-1.5-0.7-1.5-1.5l0,0c0-0.8,0.6-1.5,1.5-1.5H95
				C95.8,41.9,96.4,42.5,96.4,43.3L96.4,43.3z"/>
		</g>
	</g>
	<g>
		<g>
			<path fill="#53855F" d="M-2.8,117.7c-11.7,0-21.2-9.5-21.2-21.2V24.2C-24,12.5-14.5,3-2.8,3H176c11.7,0,21.2,9.5,21.2,21.2v72.2
				c0,11.7-9.5,21.2-21.2,21.2H-2.8z"/>
		</g>
		<g>
			<path fill="#53855F" d="M176,6c10.1,0,18.2,8.2,18.2,18.2v72.2c0,10.1-8.2,18.2-18.2,18.2H-2.8c-10.1,0-18.2-8.2-18.2-18.2V24.2
				C-21,14.1-12.9,6-2.8,6H176 M176,0H-2.8c-3.3,0-6.4,0.6-9.4,1.9c-2.9,1.2-5.5,3-7.7,5.2c-2.2,2.2-4,4.8-5.2,7.7
				c-1.3,3-1.9,6.2-1.9,9.4v72.2c0,3.3,0.6,6.4,1.9,9.4c1.2,2.9,3,5.5,5.2,7.7c2.2,2.2,4.8,4,7.7,5.2c3,1.3,6.2,1.9,9.4,1.9H176
				c3.3,0,6.4-0.6,9.4-1.9c2.9-1.2,5.5-3,7.7-5.2c2.2-2.2,4-4.8,5.2-7.7c1.3-3,1.9-6.2,1.9-9.4V24.2c0-3.3-0.6-6.4-1.9-9.4
				c-1.2-2.9-3-5.5-5.2-7.7c-2.2-2.2-4.8-4-7.7-5.2C182.4,0.6,179.3,0,176,0L176,0z"/>
		</g>
	</g>
	<g>
		<g>
			<path fill="#7DA887" d="M-2.8,117.7c-11.7,0-21.2-9.5-21.2-21.2v-3h221.2v3c0,11.7-9.5,21.2-21.2,21.2H-2.8z"/>
		</g>
		<g>
			<path fill="#7DA887" d="M194.2,96.4c0,10.1-8.2,18.2-18.2,18.2H-2.8c-10.1,0-18.2-8.2-18.2-18.2H194.2 M200.2,90.5h-6H-21h-6v6
				c0,3.3,0.6,6.4,1.9,9.4c1.2,2.9,3,5.5,5.2,7.7c2.2,2.2,4.8,4,7.7,5.2c3,1.3,6.2,1.9,9.4,1.9H176c3.3,0,6.4-0.6,9.4-1.9
				c2.9-1.2,5.5-3,7.7-5.2c2.2-2.2,4-4.8,5.2-7.7c1.3-3,1.9-6.2,1.9-9.4V90.5L200.2,90.5z"/>
		</g>
	</g>
	<g>
		<path fill="#010101" d="M137.9,43.3c0,12.4-10,22.4-22.4,22.4H57.6c-12.4,0-22.4-10-22.4-22.4l0,0c0-12.4,10-22.4,22.4-22.4h57.9
			C127.9,20.9,137.9,30.9,137.9,43.3L137.9,43.3z"/>
		<path fill="#1A2636" d="M115.6,67.4H57.6c-13.3,0-24.1-10.8-24.1-24.1s10.8-24.1,24.1-24.1h57.9c13.3,0,24.1,10.8,24.1,24.1
			S128.9,67.4,115.6,67.4z M57.6,22.7C46.3,22.7,37,31.9,37,43.3c0,11.4,9.2,20.6,20.6,20.6h57.9c11.4,0,20.6-9.3,20.6-20.6
			c0-11.4-9.3-20.6-20.6-20.6H57.6z"/>
	</g>
	<g>
		<path fill="#7DA887" d="M115.6,75.5c-0.4,0-0.7-0.3-0.7-0.7c0-0.4,0.3-0.7,0.7-0.7c17,0,30.8-13.8,30.8-30.8
			c0-0.4,0.3-0.7,0.7-0.7c0.4,0,0.7,0.3,0.7,0.7C147.7,61,133.3,75.5,115.6,75.5z"/>
	</g>
	<g>
		<path fill="#7DA887" d="M57.6,75.5c-17.8,0-32.2-14.4-32.2-32.2c0-0.4,0.3-0.7,0.7-0.7c0.4,0,0.7,0.3,0.7,0.7
			c0,17,13.8,30.8,30.8,30.8c0.4,0,0.7,0.3,0.7,0.7C58.3,75.2,58,75.5,57.6,75.5z"/>
	</g>
	<g>
		<path fill="#FDD842" d="M124.1,43.3c0-5.2-4.2-9.3-9.3-9.3H58.4c-5.2,0-9.3,4.2-9.3,9.3l0,0c0,5.2,4.2,9.3,9.3,9.3h56.4
			C119.9,52.6,124.1,48.5,124.1,43.3L124.1,43.3z"/>
	</g>
	<g>
		<path fill="#F05123" d="M119.1,43.3c0-3-2.5-5.5-5.5-5.5H59.5c-3,0-5.5,2.5-5.5,5.5l0,0c0,3,2.5,5.5,5.5,5.5h54.1
			C116.7,48.8,119.1,46.3,119.1,43.3L119.1,43.3z"/>
	</g>
	<g>
		<g>
			<path fill="#010101" d="M5.8,114.4c-3.7,0-6.7-3-6.7-6.7v-4.2c0-3.7,3-6.7,6.7-6.7h161.6c3.7,0,6.7,3,6.7,6.7v4.2
				c0,3.7-3,6.7-6.7,6.7H5.8z"/>
		</g>
		<g>
			<path fill="#1A2636" d="M167.4,98.6c2.7,0,4.9,2.2,4.9,4.9v4.2c0,2.7-2.2,4.9-4.9,4.9H5.8c-2.7,0-4.9-2.2-4.9-4.9v-4.2
				c0-2.7,2.2-4.9,4.9-4.9H167.4 M167.4,95.1H5.8c-4.6,0-8.4,3.8-8.4,8.4v4.2c0,4.6,3.8,8.4,8.4,8.4h161.6c4.6,0,8.4-3.8,8.4-8.4
				v-4.2C175.8,98.8,172,95.1,167.4,95.1L167.4,95.1z"/>
		</g>
	</g>
	<g>
		<path fill="#1A2636" d="M100.9,78.7c0,4.2-3.4,7.7-7.7,7.7H79.9c-4.2,0-7.7-3.4-7.7-7.7l0,0c0-4.2,3.4-7.7,7.7-7.7h13.3
			C97.5,71,100.9,74.5,100.9,78.7L100.9,78.7z"/>
	</g>
	<g>
		<g>
			<path fill="#010101" d="M85.1,80.4c0,1.1-0.9,2.1-2.1,2.1l0,0c-1.1,0-2.1-0.9-2.1-2.1v-3.3c0-1.1,0.9-2.1,2.1-2.1l0,0
				c1.1,0,2.1,0.9,2.1,2.1V80.4z"/>
		</g>
		<g>
			<path fill="#010101" d="M92.2,80.4c0,1.1-0.9,2.1-2.1,2.1l0,0c-1.1,0-2.1-0.9-2.1-2.1v-3.3c0-1.1,0.9-2.1,2.1-2.1l0,0
				c1.1,0,2.1,0.9,2.1,2.1V80.4z"/>
		</g>
	</g>
	<g>
		<g>
			<path fill="#FDD842" d="M13.6,98.6v3.7c0,2-1.6,3.6-3.6,3.6l0,0c-2,0-3.6-1.6-3.6-3.6v-3.7"/>
		</g>
		<g>
			<path fill="#FDD842" d="M32.7,98.6v3.7c0,2-1.6,3.6-3.6,3.6l0,0c-2,0-3.6-1.6-3.6-3.6v-3.7"/>
		</g>
		<g>
			<path fill="#FDD842" d="M51.9,98.6v3.7c0,2-1.6,3.6-3.6,3.6l0,0c-2,0-3.6-1.6-3.6-3.6v-3.7"/>
		</g>
		<g>
			<path fill="#FDD842" d="M71,98.6v3.7c0,2-1.6,3.6-3.6,3.6l0,0c-2,0-3.6-1.6-3.6-3.6v-3.7"/>
		</g>
		<g>
			<path fill="#FDD842" d="M90.2,98.6v3.7c0,2-1.6,3.6-3.6,3.6l0,0c-2,0-3.6-1.6-3.6-3.6v-3.7"/>
		</g>
		<g>
			<path fill="#FDD842" d="M109.3,98.6v3.7c0,2-1.6,3.6-3.6,3.6l0,0c-2,0-3.6-1.6-3.6-3.6v-3.7"/>
		</g>
		<g>
			<path fill="#FDD842" d="M128.5,98.6v3.7c0,2-1.6,3.6-3.6,3.6l0,0c-2,0-3.6-1.6-3.6-3.6v-3.7"/>
		</g>
		<g>
			<path fill="#FDD842" d="M147.6,98.6v3.7c0,2-1.6,3.6-3.6,3.6l0,0c-2,0-3.6-1.6-3.6-3.6v-3.7"/>
		</g>
		<g>
			<path fill="#FDD842" d="M166.8,98.6v3.7c0,2-1.6,3.6-3.6,3.6l0,0c-2,0-3.6-1.6-3.6-3.6v-3.7"/>
		</g>
	</g>
	<g>
		<path fill="#36613F" d="M106.6,13.6c-2.9,0-4.5-0.6-5.9-1.2c-1.2-0.5-2.1-0.8-4.1-0.8c-2.1,0-3,0.4-4.1,0.8
			c-1.4,0.6-2.9,1.2-5.9,1.2c-2.9,0-4.5-0.6-5.9-1.2c-1.2-0.5-2.1-0.8-4.1-0.8c-2.1,0-3,0.4-4.1,0.8c-1.4,0.6-2.9,1.2-5.9,1.2
			c-2.9,0-4.5-0.6-5.9-1.2c-1.2-0.5-2.1-0.8-4.1-0.8c-2.1,0-3,0.4-4.1,0.8c-0.2,0.1-0.4,0.1-0.5,0.2c-1.2,0.5-2.5-0.1-3-1.3
			c-0.5-1.2,0.1-2.5,1.3-3c0.2-0.1,0.3-0.1,0.5-0.2C52.1,7.7,53.7,7,56.6,7c2.9,0,4.5,0.6,5.9,1.2C63.6,8.7,64.6,9,66.6,9
			c2.1,0,3-0.4,4.1-0.8C72.1,7.7,73.7,7,76.6,7c2.9,0,4.5,0.6,5.9,1.2C83.6,8.7,84.5,9,86.6,9c2.1,0,3-0.4,4.1-0.8
			C92.1,7.7,93.6,7,96.6,7s4.5,0.6,5.9,1.2c1.2,0.5,2.1,0.8,4.1,0.8c2.1,0,3-0.4,4.1-0.8c1.4-0.6,2.9-1.2,5.9-1.2
			c2.9,0,4.5,0.6,5.9,1.2c0.2,0.1,0.3,0.1,0.5,0.2c1.2,0.5,1.8,1.8,1.3,3c-0.5,1.2-1.8,1.8-3,1.3c-0.2-0.1-0.4-0.1-0.5-0.2
			c-1.2-0.5-2.1-0.8-4.1-0.8c-2.1,0-3,0.4-4.1,0.8C111.1,13,109.5,13.6,106.6,13.6z"/>
	</g>
	<g>
		<circle fill="#36613F" cx="-2" cy="23.7" r="3.4"/>
	</g>
	<g>
		<path fill="#7DA887" d="M-19.6,41.9c0-0.9,0.5-1.7,1.3-2.1c-0.3-0.2-0.7-0.3-1.1-0.3c-1.3,0-2.4,1.1-2.4,2.3
			c0,1.3,1.1,2.4,2.4,2.4c0.4,0,0.7-0.1,1.1-0.3C-19.1,43.6-19.6,42.8-19.6,41.9z"/>
	</g>
	<g>
		<path fill="#7DA887" d="M-5.1,9.2c0-0.9,0.5-1.7,1.3-2.1c-0.3-0.2-0.7-0.3-1.1-0.3c-1.3,0-2.3,1.1-2.3,2.4c0,1.3,1.1,2.4,2.3,2.4
			c0.4,0,0.7-0.1,1.1-0.3C-4.5,10.9-5.1,10.1-5.1,9.2z"/>
	</g>
	<g>
		<path fill="#7DA887" d="M145.9,28.8c0-0.9,0.5-1.7,1.3-2.1c-0.3-0.2-0.7-0.3-1.1-0.3c-1.3,0-2.3,1.1-2.3,2.3
			c0,1.3,1.1,2.3,2.3,2.3c0.4,0,0.7-0.1,1.1-0.3C146.4,30.5,145.9,29.7,145.9,28.8z"/>
	</g>
	<g>
		<path fill="#7DA887" d="M187.3,14.7c0-0.9,0.5-1.7,1.3-2.1c-0.3-0.2-0.7-0.3-1.1-0.3c-1.3,0-2.4,1.1-2.4,2.3
			c0,1.3,1.1,2.4,2.4,2.4c0.4,0,0.7-0.1,1.1-0.3C187.8,16.4,187.3,15.6,187.3,14.7z"/>
	</g>
	<g>
		<circle fill="#36613F" cx="26.3" cy="12.6" r="3.4"/>
	</g>
	<g>
		<circle fill="#36613F" cx="169.1" cy="20.9" r="3.4"/>
	</g>
	<g>
		<circle fill="#7DA887" cx="7.9" cy="43.5" r="2.1"/>
	</g>
	<g>
		<circle fill="#36613F" cx="155.4" cy="33.9" r="2.1"/>
	</g>
	<g>
		<circle fill="#36613F" cx="186.1" cy="52.6" r="2.1"/>
	</g>
	<g>
		<circle fill="#36613F" cx="188.9" cy="23" r="2.1"/>
	</g>
	<g>
		<circle fill="#7DA887" cx="154.4" cy="12.6" r="2.1"/>
	</g>
	<g>
		<circle fill="#7DA887" cx="140.5" cy="17.8" r="1"/>
	</g>
	<g>
		<circle fill="#7DA887" cx="165.6" cy="9.2" r="1"/>
	</g>
	<g>
		<circle fill="#7DA887" cx="129.5" cy="4.9" r="1"/>
	</g>
	<g>
		<circle fill="#7DA887" cx="165.6" cy="33.9" r="1"/>
	</g>
	<g>
		<circle fill="#7DA887" cx="178.6" cy="42.9" r="1"/>
	</g>
	<g>
		<circle fill="#7DA887" cx="171.5" cy="62.5" r="1"/>
	</g>
	<g>
		<circle fill="#7DA887" cx="31.3" cy="23" r="1"/>
	</g>
	<g>
		<circle fill="#7DA887" cx="35.8" cy="6" r="1"/>
	</g>
	<g>
		<circle fill="#7DA887" cx="5.8" cy="30.1" r="1"/>
	</g>
	<g>
		<circle fill="#7DA887" cx="12.7" cy="53.7" r="1"/>
	</g>
	<g>
		<circle fill="#36613F" cx="-21" cy="29.8" r="1"/>
	</g>
	<g>
		<circle fill="#36613F" cx="15.4" cy="41.4" r="1"/>
	</g>
	<g>
		<circle fill="#36613F" cx="10" cy="65.7" r="1"/>
	</g>
	<g>
		<circle fill="#53855F" cx="-12.9" cy="96.4" r="1"/>
	</g>
	<g>
		<circle fill="#53855F" cx="-10.6" cy="109.9" r="1"/>
	</g>
	<g>
		<circle fill="#53855F" cx="179.6" cy="97.5" r="1"/>
	</g>
	<g>
		<circle fill="#53855F" cx="188.2" cy="111" r="1"/>
	</g>
	<g>
		<circle fill="#53855F" cx="194.2" cy="103.9" r="1"/>
	</g>
	<g>
		<circle fill="#53855F" cx="-17.1" cy="107.3" r="1"/>
	</g>
	<g>
		<circle fill="#53855F" cx="-21" cy="102.3" r="1.6"/>
	</g>
	<g>
		<circle fill="#53855F" cx="-8.5" cy="103" r="1.6"/>
	</g>
	<g>
		<circle fill="#53855F" cx="181.7" cy="112.6" r="1.6"/>
	</g>
	<g>
		<circle fill="#53855F" cx="192.8" cy="98.6" r="1.6"/>
	</g>
	<g>
		<circle fill="#53855F" cx="183.3" cy="102.3" r="1.6"/>
	</g>
	<g>
		<circle fill="#36613F" cx="172.6" cy="38.1" r="1"/>
	</g>
	<g>
		<circle fill="#36613F" cx="188.2" cy="69" r="1"/>
	</g>
	<g>
		<circle fill="#7DA887" cx="12.7" cy="8.2" r="1"/>
	</g>
	<g>
		<circle fill="#7DA887" cx="-9.6" cy="52.6" r="1"/>
	</g>
	<g>
		<circle fill="#36613F" cx="143.8" cy="8.2" r="1"/>
	</g>
	<g>
		<circle fill="#7DA887" cx="194.4" cy="44.3" r="1"/>
	</g>
	<g>
		<circle fill="#7DA887" cx="165.6" cy="69" r="1"/>
	</g>
	<g>
		<circle fill="#7DA887" cx="-10.6" cy="39.2" r="2.1"/>
	</g>
	<g>
		<circle fill="#7DA887" cx="15.4" cy="20.9" r="2.1"/>
	</g>
	<g>
		<circle fill="#36613F" cx="20.6" cy="31.9" r="2.1"/>
	</g>
	<g>
		<circle fill="#36613F" cx="0.4" cy="50" r="2.1"/>
	</g>
	<g>
		<circle fill="#36613F" cx="4.6" cy="12.3" r="2.1"/>
	</g>
	<g>
		<circle fill="#7DA887" cx="178.6" cy="28.8" r="2.1"/>
	</g>
	<g>
		<circle fill="#36613F" cx="186.1" cy="39.2" r="2.1"/>
	</g>
	<g>
		<circle fill="#7DA887" cx="178.6" cy="9.2" r="2.1"/>
	</g>
	<g>
		<circle fill="#7DA887" cx="161.9" cy="43.5" r="2.1"/>
	</g>
	<g>
		<circle fill="#7DA887" cx="-15" cy="23.7" r="2.1"/>
	</g>
	<g>
		<path fill="#FFFFFF" d="M96.4,43.3c0,0.8-0.7,1.5-1.5,1.5H78.2c-0.8,0-1.5-0.7-1.5-1.5l0,0c0-0.8,0.6-1.5,1.5-1.5H95
			C95.8,41.9,96.4,42.5,96.4,43.3L96.4,43.3z"/>
	</g>
	<g>
		<polygon fill="#36613F" points="-2,39.7 -1.3,38.2 -2.5,37 -0.8,37.2 -0.1,35.7 0.2,37.3 1.9,37.5 0.4,38.4 0.8,40 -0.5,38.9 		
			"/>
	</g>
	<g>
		<polygon fill="#36613F" points="22.8,6.9 21.1,6.6 20.4,8.2 20.1,6.5 18.4,6.2 19.9,5.4 19.7,3.8 20.9,5 22.4,4.2 21.6,5.7 		"/>
	</g>
	<g>
		<polygon fill="#36613F" points="-11.7,13.6 -13.3,13.3 -14.1,14.8 -14.4,13.1 -16,12.9 -14.5,12.1 -14.8,10.4 -13.6,11.6 
			-12.1,10.8 -12.9,12.4 		"/>
	</g>
	<g>
		<polygon fill="#36613F" points="157.2,26.8 156.5,25.3 154.8,25.4 156.1,24.3 155.4,22.7 156.8,23.6 158.1,22.5 157.7,24.1 
			159.2,25 157.5,25.2 		"/>
	</g>
	<g>
		<polygon fill="#36613F" points="192.2,36 192.3,34.3 190.7,33.7 192.3,33.2 192.4,31.5 193.3,32.9 195,32.5 193.9,33.8 
			194.9,35.2 193.3,34.6 		"/>
	</g>
	<g>
		<polygon fill="#36613F" points="169.9,52.8 170,51.1 168.4,50.5 170,50 170.1,48.3 171,49.7 172.7,49.3 171.6,50.6 172.6,52 
			171,51.4 		"/>
	</g>
	<g>
		<path fill="#7DA887" d="M66.9,75.5h-4.1c-0.4,0-0.7-0.3-0.7-0.7c0-0.4,0.3-0.7,0.7-0.7h4.1c0.4,0,0.7,0.3,0.7,0.7
			C67.6,75.2,67.3,75.5,66.9,75.5z"/>
	</g>
	<g>
		<path fill="#7DA887" d="M110.5,75.5h-4.1c-0.4,0-0.7-0.3-0.7-0.7c0-0.4,0.3-0.7,0.7-0.7h4.1c0.4,0,0.7,0.3,0.7,0.7
			C111.2,75.2,110.9,75.5,110.5,75.5z"/>
	</g>
	<g>
		<path fill="#7DA887" d="M147,39.8c-0.4,0-0.7-0.3-0.7-0.7V36c0-0.4,0.3-0.7,0.7-0.7c0.4,0,0.7,0.3,0.7,0.7v3.2
			C147.7,39.5,147.4,39.8,147,39.8z"/>
	</g>
	<g>
		<path fill="#7DA887" d="M26.3,39.8c-0.4,0-0.7-0.3-0.7-0.7V36c0-0.4,0.3-0.7,0.7-0.7c0.4,0,0.7,0.3,0.7,0.7v3.2
			C27,39.5,26.7,39.8,26.3,39.8z"/>
	</g>
	<g>
		<path fill="#36613F" d="M41.9,79.2c-0.1,0-0.2,0-0.2,0c-8.3-3-15-9.3-18.6-17.4c-0.2-0.4,0-0.8,0.4-0.9c0.4-0.2,0.8,0,0.9,0.4
			c3.4,7.7,9.9,13.8,17.8,16.6c0.4,0.1,0.6,0.5,0.4,0.9C42.4,79,42.2,79.2,41.9,79.2z"/>
	</g>
	<g>
		<path fill="#36613F" d="M130.7,79.2c-0.3,0-0.6-0.2-0.7-0.5c-0.1-0.4,0.1-0.8,0.4-0.9c7.9-2.8,14.4-8.9,17.8-16.6
			c0.2-0.4,0.6-0.5,0.9-0.4c0.4,0.2,0.5,0.6,0.4,0.9c-3.5,8.1-10.3,14.4-18.6,17.4C130.9,79.2,130.8,79.2,130.7,79.2z"/>
	</g>
</g>
<g>
	<g>
		<g>
			<path fill="#1A2636" d="M364.8,117.7c-11.7,0-21.2-9.5-21.2-21.2V24.2c0-11.7,9.5-21.2,21.2-21.2h178.8
				c11.7,0,21.2,9.5,21.2,21.2v72.3c0,11.7-9.5,21.2-21.2,21.2H364.8z"/>
		</g>
		<g>
			<path fill="#53855F" d="M543.6,6c10.1,0,18.2,8.2,18.2,18.2v72.3c0,10.1-8.2,18.2-18.2,18.2H364.8c-10.1,0-18.2-8.2-18.2-18.2
				V24.2c0-10.1,8.2-18.2,18.2-18.2H543.6 M543.6,0H364.8c-3.3,0-6.4,0.6-9.4,1.9c-2.9,1.2-5.5,3-7.7,5.2c-2.2,2.2-4,4.8-5.2,7.7
				c-1.3,3-1.9,6.2-1.9,9.4v72.3c0,3.3,0.6,6.4,1.9,9.4c1.2,2.9,3,5.5,5.2,7.7c2.2,2.2,4.8,4,7.7,5.2c3,1.3,6.2,1.9,9.4,1.9h178.8
				c3.3,0,6.4-0.6,9.4-1.9c2.9-1.2,5.5-3,7.7-5.2c2.2-2.2,4-4.8,5.2-7.7c1.3-3,1.9-6.2,1.9-9.4V24.2c0-3.3-0.6-6.4-1.9-9.4
				c-1.2-2.9-3-5.5-5.2-7.7c-2.2-2.2-4.8-4-7.7-5.2C550.1,0.6,546.9,0,543.6,0L543.6,0z"/>
		</g>
	</g>
	<g>
		<path fill="#101720" d="M346.6,76.3v20.4c0,10.1,8.2,18.2,18.2,18.2h178.8c10.1,0,18.2-8.2,18.2-18.2V76.3H346.6z"/>
	</g>
	<g>
		<path fill="#FDD842" d="M480.8,107.8v-7.3c0-4-3.2-7.3-7.3-7.3h-38.6c-4,0-7.3,3.2-7.3,7.3v7.3"/>
	</g>
	<g>
		<path fill="#F05123" d="M465.5,93.2v-3.1c0-1.7-1.4-3.1-3.1-3.1H446c-1.7,0-3.1,1.4-3.1,3.1v3.1H465.5z"/>
	</g>
	<g>
		<rect x="346.6" y="76.3" fill="#36475A" width="215.3" height="2.7"/>
	</g>
	<g>
		<rect x="427.7" y="107.8" fill="#F05123" width="4" height="7.3"/>
	</g>
	<g>
		<path fill="#FFFFFF" d="M433.3,114.4c0,0.4-0.3,0.7-0.7,0.7h-5.9c-0.4,0-0.7-0.3-0.7-0.7l0,0c0-0.4,0.3-0.7,0.7-0.7h5.9
			C433,113.6,433.3,114,433.3,114.4L433.3,114.4z"/>
	</g>
	<g>
		<circle fill="#FFFFFF" cx="522.7" cy="24.6" r="2.3"/>
	</g>
	<g>
		<rect x="476.8" y="107.8" fill="#F05123" width="4" height="7.3"/>
	</g>
	<g>
		<path fill="#FFFFFF" d="M482.4,114.4c0,0.4-0.3,0.7-0.7,0.7h-5.9c-0.4,0-0.7-0.3-0.7-0.7l0,0c0-0.4,0.3-0.7,0.7-0.7h5.9
			C482.1,113.6,482.4,114,482.4,114.4L482.4,114.4z"/>
	</g>
	<g>
		<rect x="427.7" y="105.2" fill="#FFFFFF" width="53.1" height="2.6"/>
	</g>
	<g>
		<rect x="416.1" y="22.3" fill="#010101" width="76.2" height="38.2"/>
	</g>
	<g>
		<rect x="429.4" y="49.2" fill="#101720" width="0.2" height="1.5"/>
	</g>
	<g>
		<rect x="430.1" y="49.2" fill="#101720" width="0.2" height="1.2"/>
	</g>
	<g>
		<g>
			<path fill="#101720" d="M424.5,29.6c0-0.2-0.2-0.4-0.4-0.4l0,0c-0.2,0-0.4,0.2-0.4,0.4v31.2c0,0.2,0.2,0.4,0.4,0.4l0,0
				c0.2,0,0.4-0.2,0.4-0.4V29.6z"/>
		</g>
		<g>
			<path fill="#101720" d="M430.4,50.5c0.2-0.2,0.2-0.4,0-0.6l0,0c-0.2-0.2-0.4-0.2-0.6,0l-6,6c-0.2,0.2-0.2,0.4,0,0.6l0,0
				c0.2,0.2,0.4,0.2,0.6,0L430.4,50.5z"/>
		</g>
		<g>
			<path fill="#101720" d="M430.4,40.1c0.2-0.2,0.2-0.4,0-0.6l0,0c-0.2-0.2-0.4-0.2-0.6,0l-6,6c-0.2,0.2-0.2,0.4,0,0.6l0,0
				c0.2,0.2,0.4,0.2,0.6,0L430.4,40.1z"/>
		</g>
		<g>
			<path fill="#101720" d="M427.9,32.3c0.2-0.2,0.2-0.4,0-0.6l0,0c-0.2-0.2-0.4-0.2-0.6,0l-3.5,3.5c-0.2,0.2-0.2,0.4,0,0.6l0,0
				c0.2,0.2,0.4,0.2,0.6,0L427.9,32.3z"/>
		</g>
		<g>
			<path fill="#101720" d="M419.5,37.7c-0.2-0.2-0.2-0.4,0-0.6l0,0c0.2-0.2,0.4-0.2,0.6,0l4.3,4.3c0.2,0.2,0.2,0.4,0,0.6l0,0
				c-0.2,0.2-0.4,0.2-0.6,0L419.5,37.7z"/>
		</g>
		<g>
			<path fill="#101720" d="M419.7,47.7c-0.2-0.2-0.2-0.4,0-0.6l0,0c0.2-0.2,0.4-0.2,0.6,0l4.2,4.2c0.2,0.2,0.2,0.4,0,0.6l0,0
				c-0.2,0.2-0.4,0.2-0.6,0L419.7,47.7z"/>
		</g>
	</g>
	<g>
		<g>
			<path fill="#101720" d="M446.4,37.9c0-0.2-0.1-0.3-0.3-0.3l0,0c-0.2,0-0.3,0.1-0.3,0.3v23c0,0.2,0.1,0.3,0.3,0.3l0,0
				c0.2,0,0.3-0.1,0.3-0.3V37.9z"/>
		</g>
		<g>
			<path fill="#101720" d="M450.7,53.3c0.1-0.1,0.1-0.3,0-0.4l0,0c-0.1-0.1-0.3-0.1-0.4,0l-4.4,4.4c-0.1,0.1-0.1,0.3,0,0.4l0,0
				c0.1,0.1,0.3,0.1,0.4,0L450.7,53.3z"/>
		</g>
		<g>
			<path fill="#101720" d="M450.7,45.7c0.1-0.1,0.1-0.3,0-0.4l0,0c-0.1-0.1-0.3-0.1-0.4,0l-4.4,4.4c-0.1,0.1-0.1,0.3,0,0.4l0,0
				c0.1,0.1,0.3,0.1,0.4,0L450.7,45.7z"/>
		</g>
		<g>
			<path fill="#101720" d="M448.9,39.9c0.1-0.1,0.1-0.3,0-0.4l0,0c-0.1-0.1-0.3-0.1-0.4,0l-2.6,2.6c-0.1,0.1-0.1,0.3,0,0.4l0,0
				c0.1,0.1,0.3,0.1,0.4,0L448.9,39.9z"/>
		</g>
		<g>
			<path fill="#101720" d="M442.7,43.9c-0.1-0.1-0.1-0.3,0-0.4l0,0c0.1-0.1,0.3-0.1,0.4,0l3.2,3.2c0.1,0.1,0.1,0.3,0,0.4l0,0
				c-0.1,0.1-0.3,0.1-0.4,0L442.7,43.9z"/>
		</g>
		<g>
			<path fill="#101720" d="M442.8,51.3c-0.1-0.1-0.1-0.3,0-0.4l0,0c0.1-0.1,0.3-0.1,0.4,0l3.1,3.1c0.1,0.1,0.1,0.3,0,0.4l0,0
				c-0.1,0.1-0.3,0.1-0.4,0L442.8,51.3z"/>
		</g>
	</g>
	<g>
		<g>
			<path fill="#101720" d="M481.1,26.9c0-0.2-0.2-0.4-0.4-0.4l0,0c-0.2,0-0.4,0.2-0.4,0.4v33.9c0,0.2,0.2,0.4,0.4,0.4l0,0
				c0.2,0,0.4-0.2,0.4-0.4V26.9z"/>
		</g>
		<g>
			<path fill="#101720" d="M487.6,49.6c0.2-0.2,0.2-0.5,0-0.6l0,0c-0.2-0.2-0.5-0.2-0.6,0l-6.6,6.5c-0.2,0.2-0.2,0.5,0,0.6l0,0
				c0.2,0.2,0.5,0.2,0.6,0L487.6,49.6z"/>
		</g>
		<g>
			<path fill="#101720" d="M487.6,38.3c0.2-0.2,0.2-0.5,0-0.6l0,0c-0.2-0.2-0.5-0.2-0.6,0l-6.6,6.5c-0.2,0.2-0.2,0.5,0,0.6l0,0
				c0.2,0.2,0.5,0.2,0.6,0L487.6,38.3z"/>
		</g>
		<g>
			<path fill="#101720" d="M484.8,29.8c0.2-0.2,0.2-0.5,0-0.6l0,0c-0.2-0.2-0.5-0.2-0.6,0l-3.8,3.8c-0.2,0.2-0.2,0.5,0,0.6l0,0
				c0.2,0.2,0.5,0.2,0.6,0L484.8,29.8z"/>
		</g>
		<g>
			<path fill="#101720" d="M475.7,35.7c-0.2-0.2-0.2-0.5,0-0.6l0,0c0.2-0.2,0.5-0.2,0.6,0l4.7,4.7c0.2,0.2,0.2,0.5,0,0.6l0,0
				c-0.2,0.2-0.5,0.2-0.6,0L475.7,35.7z"/>
		</g>
		<g>
			<path fill="#101720" d="M475.9,46.6c-0.2-0.2-0.2-0.5,0-0.6l0,0c0.2-0.2,0.5-0.2,0.6,0l4.5,4.5c0.2,0.2,0.2,0.5,0,0.6l0,0
				c-0.2,0.2-0.5,0.2-0.6,0L475.9,46.6z"/>
		</g>
	</g>
	<g>
		<g>
			<path fill="#101720" d="M471.4,45.4c0-0.1,0.1-0.2,0.2-0.2l0,0c0.1,0,0.2,0.1,0.2,0.2V61c0,0.1-0.1,0.2-0.2,0.2l0,0
				c-0.1,0-0.2-0.1-0.2-0.2V45.4z"/>
		</g>
		<g>
			<path fill="#101720" d="M468.4,55.9c-0.1-0.1-0.1-0.2,0-0.3l0,0c0.1-0.1,0.2-0.1,0.3,0l3,3c0.1,0.1,0.1,0.2,0,0.3l0,0
				c-0.1,0.1-0.2,0.1-0.3,0L468.4,55.9z"/>
		</g>
		<g>
			<path fill="#101720" d="M468.4,50.7c-0.1-0.1-0.1-0.2,0-0.3l0,0c0.1-0.1,0.2-0.1,0.3,0l3,3c0.1,0.1,0.1,0.2,0,0.3l0,0
				c-0.1,0.1-0.2,0.1-0.3,0L468.4,50.7z"/>
		</g>
		<g>
			<path fill="#101720" d="M469.7,46.7c-0.1-0.1-0.1-0.2,0-0.3l0,0c0.1-0.1,0.2-0.1,0.3,0l1.8,1.8c0.1,0.1,0.1,0.2,0,0.3l0,0
				c-0.1,0.1-0.2,0.1-0.3,0L469.7,46.7z"/>
		</g>
		<g>
			<path fill="#101720" d="M473.9,49.5c0.1-0.1,0.1-0.2,0-0.3l0,0c-0.1-0.1-0.2-0.1-0.3,0l-2.2,2.2c-0.1,0.1-0.1,0.2,0,0.3l0,0
				c0.1,0.1,0.2,0.1,0.3,0L473.9,49.5z"/>
		</g>
		<g>
			<path fill="#101720" d="M473.8,54.5c0.1-0.1,0.1-0.2,0-0.3l0,0c-0.1-0.1-0.2-0.1-0.3,0l-2.1,2.1c-0.1,0.1-0.1,0.2,0,0.3l0,0
				c0.1,0.1,0.2,0.1,0.3,0L473.8,54.5z"/>
		</g>
	</g>
	<g>
		<g>
			<path fill="#101720" d="M460.5,25.8c0-0.3,0.2-0.5,0.5-0.5l0,0c0.3,0,0.5,0.2,0.5,0.5v34.9c0,0.3-0.2,0.5-0.5,0.5l0,0
				c-0.3,0-0.5-0.2-0.5-0.5V25.8z"/>
		</g>
		<g>
			<path fill="#101720" d="M453.9,49.2c-0.2-0.2-0.2-0.5,0-0.6l0,0c0.2-0.2,0.5-0.2,0.6,0l6.7,6.7c0.2,0.2,0.2,0.5,0,0.6l0,0
				c-0.2,0.2-0.5,0.2-0.6,0L453.9,49.2z"/>
		</g>
		<g>
			<path fill="#101720" d="M453.9,37.6c-0.2-0.2-0.2-0.5,0-0.6l0,0c0.2-0.2,0.5-0.2,0.6,0l6.7,6.7c0.2,0.2,0.2,0.5,0,0.6l0,0
				c-0.2,0.2-0.5,0.2-0.6,0L453.9,37.6z"/>
		</g>
		<g>
			<path fill="#101720" d="M456.7,28.9c-0.2-0.2-0.2-0.5,0-0.6l0,0c0.2-0.2,0.5-0.2,0.6,0l3.9,3.9c0.2,0.2,0.2,0.5,0,0.6l0,0
				c-0.2,0.2-0.5,0.2-0.6,0L456.7,28.9z"/>
		</g>
		<g>
			<path fill="#101720" d="M466,35c0.2-0.2,0.2-0.5,0-0.6l0,0c-0.2-0.2-0.5-0.2-0.6,0l-4.8,4.8c-0.2,0.2-0.2,0.5,0,0.6l0,0
				c0.2,0.2,0.5,0.2,0.6,0L466,35z"/>
		</g>
		<g>
			<path fill="#101720" d="M465.9,46.2c0.2-0.2,0.2-0.5,0-0.6l0,0c-0.2-0.2-0.5-0.2-0.6,0l-4.7,4.7c-0.2,0.2-0.2,0.5,0,0.6l0,0
				c0.2,0.2,0.5,0.2,0.6,0L465.9,46.2z"/>
		</g>
	</g>
	<g>
		<path fill="#53855F" d="M491.1,23.6v35.8h-73.8V23.6H491.1 M493.6,21.1h-2.5h-73.8h-2.5v2.5v35.8v2.5h2.5h73.8h2.5v-2.5V23.6V21.1
			L493.6,21.1z"/>
	</g>
	<g>
		<line fill="#010101" x1="454.2" y1="23.6" x2="454.2" y2="59.3"/>
		<rect x="453.2" y="23.6" fill="#1A2636" width="2.1" height="35.8"/>
	</g>
	<g>
		<line fill="#010101" x1="417.3" y1="41.4" x2="491.1" y2="41.4"/>
		<rect x="417.3" y="40.4" fill="#1A2636" width="73.8" height="2.1"/>
	</g>
	<g>
		<path fill="#010101" d="M395.9,108.2c0,0.8-0.7,1.5-1.5,1.5h-26.5c-0.8,0-1.5-0.7-1.5-1.5V70.5c0-0.8,0.7-1.5,1.5-1.5h26.5
			c0.8,0,1.5,0.7,1.5,1.5V108.2z"/>
	</g>
	<g>
		<rect x="366.4" y="108.2" fill="#010101" width="3.8" height="6.9"/>
	</g>
	<g>
		<rect x="392.1" y="108.2" fill="#010101" width="3.8" height="6.9"/>
	</g>
	<g>
		<g>
			<g>
				<path fill="#010101" d="M392.9,81.2c0,0.6-0.5,1.1-1.1,1.1h-21.4c-0.6,0-1.1-0.5-1.1-1.1V74c0-0.6,0.5-1.1,1.1-1.1h21.4
					c0.6,0,1.1,0.5,1.1,1.1V81.2z"/>
				<path fill="#1A2636" d="M391.8,82.7h-21.4c-0.8,0-1.5-0.7-1.5-1.5V74c0-0.8,0.7-1.5,1.5-1.5h21.4c0.8,0,1.5,0.7,1.5,1.5v7.3
					C393.3,82,392.6,82.7,391.8,82.7z M370.4,73.2c-0.4,0-0.7,0.3-0.7,0.7v7.3c0,0.4,0.3,0.7,0.7,0.7h21.4c0.4,0,0.7-0.3,0.7-0.7V74
					c0-0.4-0.3-0.7-0.7-0.7H370.4z"/>
			</g>
			<g>
				<circle fill="#1A2636" cx="381.1" cy="77.6" r="1.3"/>
			</g>
		</g>
		<g>
			<g>
				<path fill="#010101" d="M392.9,93.2c0,0.6-0.5,1.1-1.1,1.1h-21.4c-0.6,0-1.1-0.5-1.1-1.1V86c0-0.6,0.5-1.1,1.1-1.1h21.4
					c0.6,0,1.1,0.5,1.1,1.1V93.2z"/>
				<path fill="#1A2636" d="M391.8,94.7h-21.4c-0.8,0-1.5-0.7-1.5-1.5V86c0-0.8,0.7-1.5,1.5-1.5h21.4c0.8,0,1.5,0.7,1.5,1.5v7.3
					C393.3,94,392.6,94.7,391.8,94.7z M370.4,85.2c-0.4,0-0.7,0.3-0.7,0.7v7.3c0,0.4,0.3,0.7,0.7,0.7h21.4c0.4,0,0.7-0.3,0.7-0.7V86
					c0-0.4-0.3-0.7-0.7-0.7H370.4z"/>
			</g>
			<g>
				<circle fill="#1A2636" cx="381.1" cy="89.7" r="1.3"/>
			</g>
		</g>
		<g>
			<g>
				<path fill="#010101" d="M392.9,105.2c0,0.6-0.5,1.1-1.1,1.1h-21.4c-0.6,0-1.1-0.5-1.1-1.1v-7.3c0-0.6,0.5-1.1,1.1-1.1h21.4
					c0.6,0,1.1,0.5,1.1,1.1V105.2z"/>
				<path fill="#1A2636" d="M391.8,106.7h-21.4c-0.8,0-1.5-0.7-1.5-1.5v-7.3c0-0.8,0.7-1.5,1.5-1.5h21.4c0.8,0,1.5,0.7,1.5,1.5v7.3
					C393.3,106,392.6,106.7,391.8,106.7z M370.4,97.2c-0.4,0-0.7,0.3-0.7,0.7v7.3c0,0.4,0.3,0.7,0.7,0.7h21.4c0.4,0,0.7-0.3,0.7-0.7
					v-7.3c0-0.4-0.3-0.7-0.7-0.7H370.4z"/>
			</g>
			<g>
				<circle fill="#1A2636" cx="381.1" cy="101.8" r="1.3"/>
			</g>
		</g>
	</g>
	<g>
		<rect x="400.9" y="102.9" fill="#53855F" width="5" height="7.4"/>
	</g>
	<g>
		<rect x="550.1" y="86.1" fill="#F05123" width="5" height="7.4"/>
	</g>
	<g>
		<circle fill="#FFFFFF" cx="403.4" cy="106.6" r="1.5"/>
	</g>
	<g>
		<path fill="#010101" d="M403.4,107c-0.2,0-0.4-0.2-0.4-0.3v-4.6c0-0.8-0.6-1.4-1.4-1.4h-1.2c-0.2,0-0.4-0.2-0.4-0.4
			c0-0.2,0.2-0.4,0.4-0.4h1.2c1.2,0,2.1,0.9,2.1,2.1v4.6C403.8,106.9,403.6,107,403.4,107z"/>
	</g>
	<g>
		<path fill="#010101" d="M399,71.6c-0.2,0-0.4-0.2-0.4-0.4v-4.6c0-0.8-0.6-1.4-1.4-1.4h-11.4c-0.2,0-0.4-0.2-0.4-0.3
			c0-0.2,0.2-0.4,0.4-0.4h11.4c1.2,0,2.1,0.9,2.1,2.1v4.6C399.3,71.4,399.2,71.6,399,71.6z"/>
	</g>
	<g>
		<path fill="#010101" d="M383.1,68.1c-0.2,0-0.4-0.2-0.4-0.4v-1.1c0-1.2,0.9-2.1,2.1-2.1h1.8c0.2,0,0.4,0.2,0.4,0.4
			c0,0.2-0.2,0.3-0.4,0.3h-1.8c-0.8,0-1.4,0.6-1.4,1.4v1.1C383.4,67.9,383.2,68.1,383.1,68.1z"/>
	</g>
	<g>
		<path fill="#010101" d="M401.9,100.7h-1.2c-1.2,0-2.1-0.9-2.1-2.1V70.1c0-0.2,0.2-0.4,0.4-0.4c0.2,0,0.4,0.2,0.4,0.4v28.5
			c0,0.8,0.6,1.4,1.4,1.4h1.2c0.2,0,0.4,0.2,0.4,0.4C402.3,100.5,402.1,100.7,401.9,100.7z"/>
	</g>
	<g>
		<path fill="#53855F" d="M385.1,68.2c0,0.4-0.4,0.8-0.8,0.8H378c-0.4,0-0.8-0.4-0.8-0.8l0,0c0-0.4,0.4-0.8,0.8-0.8h6.3
			C384.7,67.4,385.1,67.8,385.1,68.2L385.1,68.2z"/>
	</g>
	<g>
		<rect x="380.2" y="54.7" fill="#010101" width="1.7" height="12.7"/>
	</g>
	<g>
		<polygon fill="#F05123" points="377.5,53.6 384.8,53.6 388.3,60.9 374,60.9 		"/>
	</g>
	<g>
		<path fill="#FDD842" d="M389,61c0,0.2-0.2,0.4-0.4,0.4h-15c-0.2,0-0.4-0.2-0.4-0.4l0,0c0-0.2,0.2-0.4,0.4-0.4h15
			C388.8,60.6,389,60.8,389,61L389,61z"/>
	</g>
	<g>
		
			<path fill="none" stroke="#FDD842" stroke-width="3.9753" stroke-linecap="round" stroke-linejoin="round" stroke-miterlimit="10" d="
			M403.4,106.6"/>
	</g>
	<g>
		<path fill="#F05123" d="M397.8,83.5c0-0.6,0.5-1.1,1.1-1.1l0,0c0.6,0,1.1,0.5,1.1,1.1v2.8c0,0.6-0.5,1.1-1.1,1.1l0,0
			c-0.6,0-1.1-0.5-1.1-1.1V83.5z"/>
	</g>
	<g>
		<circle fill="#FFFFFF" cx="399" cy="83.5" r="0.7"/>
	</g>
	<g>
		<path fill="#FFFFFF" d="M551.5,88.3c0-0.6,0.5-1.1,1.1-1.1l0,0c0.6,0,1.1,0.5,1.1,1.1v2.8c0,0.6-0.5,1.1-1.1,1.1l0,0
			c-0.6,0-1.1-0.5-1.1-1.1V88.3z"/>
	</g>
	<g>
		<circle fill="#101720" cx="552.6" cy="88.3" r="0.7"/>
	</g>
	<g>
		<g>
			<path fill="#010101" d="M544.2,99.9c0,0.6-0.5,1.1-1.1,1.1h-40.9c-0.6,0-1.1-0.5-1.1-1.1v-5.5c0-0.6,0.5-1.1,1.1-1.1h40.9
				c0.6,0,1.1,0.5,1.1,1.1V99.9z"/>
		</g>
		<g>
			<rect x="501.2" y="94.4" fill="#010101" width="2.8" height="20.3"/>
		</g>
		<g>
			<rect x="541.4" y="94.4" fill="#010101" width="2.8" height="20.3"/>
		</g>
	</g>
	<g>
		<g>
			<path fill="#010101" d="M532.2,98.7c0,0.2-0.2,0.4-0.4,0.4h-18.1c-0.2,0-0.4-0.2-0.4-0.4v-2.9c0-0.2,0.2-0.4,0.4-0.4h18.1
				c0.2,0,0.4,0.2,0.4,0.4V98.7z"/>
			<path fill="#1A2636" d="M531.8,99.6h-18.1c-0.5,0-0.8-0.4-0.8-0.8v-2.9c0-0.5,0.4-0.8,0.8-0.8h18.1c0.5,0,0.8,0.4,0.8,0.8v2.9
				C532.6,99.2,532.2,99.6,531.8,99.6z M513.6,95.8C513.6,95.8,513.5,95.8,513.6,95.8l-0.1,3c0,0,0,0.1,0.1,0.1h18.1
				c0,0,0.1,0,0.1-0.1v-2.9c0,0,0-0.1-0.1-0.1H513.6z"/>
		</g>
		<g>
			<circle fill="#1A2636" cx="522.7" cy="97.3" r="0.8"/>
		</g>
	</g>
	<g>
		<g>
			<g>
				<rect x="367.9" y="21.5" fill="#010101" width="28.5" height="20.1"/>
			</g>
			<g>
				<path fill="#53855F" d="M395.9,22.1v19h-27.4v-19H395.9 M396.9,21h-29.5v21.1h29.5V21L396.9,21z"/>
			</g>
		</g>
		<g>
			<circle fill="#1A2636" cx="378.2" cy="31.6" r="5.8"/>
		</g>
		<g>
			<circle fill="#53855F" cx="386.1" cy="31.6" r="5.8"/>
		</g>
		<g>
			<path fill="#82BC8F" d="M380.4,31.6c0,1.6,0.7,3.1,1.8,4.2c1.1-1,1.8-2.5,1.8-4.2c0-1.6-0.7-3.1-1.8-4.2
				C381.1,28.5,380.4,29.9,380.4,31.6z"/>
		</g>
	</g>
	<g>
		<g>
			<path fill="#FFFFFF" d="M515.3,92.8h-9.6c-0.9,0-1.7-0.8-1.7-1.7l0,0c0-0.9,0.8-1.7,1.7-1.7h9.6"/>
		</g>
		<g>
			<path fill="#F05123" d="M516.7,93.3h-11c-1.2,0-2.2-1-2.2-2.2c0-1.2,1-2.2,2.2-2.2h11c0.3,0,0.5,0.2,0.5,0.5
				c0,0.3-0.2,0.5-0.5,0.5h-11c-0.7,0-1.2,0.5-1.2,1.2c0,0.7,0.5,1.2,1.2,1.2h11c0.3,0,0.5,0.2,0.5,0.5
				C517.2,93.1,516.9,93.3,516.7,93.3z"/>
		</g>
	</g>
	<g>
		<path fill="#36475A" d="M509.1,72.1c0,0.3-0.2,0.5-0.5,0.5l0,0c-0.3,0-0.5-0.2-0.5-0.5V69c0-0.3,0.2-0.5,0.5-0.5l0,0
			c0.3,0,0.5,0.2,0.5,0.5V72.1z"/>
	</g>
	<g>
		<path fill="#36475A" d="M537.8,72.1c0,0.3-0.2,0.5-0.5,0.5l0,0c-0.3,0-0.5-0.2-0.5-0.5V69c0-0.3,0.2-0.5,0.5-0.5l0,0
			c0.3,0,0.5,0.2,0.5,0.5V72.1z"/>
	</g>
	<g>
		<g>
			<path fill="#FFFFFF" d="M515.3,88.5h-9.6c-0.9,0-1.7-0.8-1.7-1.7l0,0c0-0.9,0.8-1.7,1.7-1.7h9.6"/>
		</g>
		<g>
			<path fill="#53855F" d="M516.7,89h-11c-1.2,0-2.2-1-2.2-2.2c0-1.2,1-2.2,2.2-2.2h11c0.3,0,0.5,0.2,0.5,0.5c0,0.3-0.2,0.5-0.5,0.5
				h-11c-0.7,0-1.2,0.5-1.2,1.2c0,0.7,0.5,1.2,1.2,1.2h11c0.3,0,0.5,0.2,0.5,0.5C517.2,88.8,516.9,89,516.7,89z"/>
		</g>
	</g>
	<g>
		<rect x="509.1" y="53.3" fill="#36475A" width="27.9" height="12.5"/>
	</g>
	<g>
		<g>
			<path fill="#FDD842" d="M540.4,92.3h-5.9c-0.1,0-0.2-0.1-0.2-0.1c0-0.1,0-0.2,0-0.3l3-4.3c0.1-0.1,0.1-0.1,0.2-0.1h0
				c0.1,0,0.2,0,0.2,0.1l3,4.3c0.1,0.1,0.1,0.2,0,0.3C540.6,92.2,540.5,92.3,540.4,92.3z M535,91.7h4.9l-2.4-3.5L535,91.7z"/>
		</g>
		<g>
			<circle fill="#53855F" cx="534.5" cy="92" r="1.2"/>
		</g>
		<g>
			<circle fill="#FFFFFF" cx="540.4" cy="92" r="1.2"/>
		</g>
		<g>
			<circle fill="#F05123" cx="537.4" cy="87.7" r="1.2"/>
		</g>
	</g>
	<g>
		<rect x="522.2" y="6.2" fill="#010101" width="1" height="14.8"/>
	</g>
	<g>
		<path fill="#53855F" d="M523.6,22.2c0,0.2-0.2,0.4-0.4,0.4h-1.2c-0.2,0-0.3-0.2-0.3-0.4v-1.6c0-0.2,0.2-0.4,0.3-0.4h1.2
			c0.2,0,0.4,0.2,0.4,0.4V22.2z"/>
	</g>
	<g>
		<path fill="#010101" d="M508.6,50.3c-0.3,0-0.5-0.2-0.5-0.5l0,0c0-0.3,0.2-0.5,0.5-0.5H537c0.3,0,0.5,0.2,0.5,0.5l0,0
			c0,0.3-0.2,0.5-0.5,0.5H508.6z"/>
	</g>
	<g>
		<path fill="#010101" d="M544.2,68.3c0,0.6-0.5,1.1-1.1,1.1h-40.9c-0.6,0-1.1-0.5-1.1-1.1v-0.5c0-0.6,0.5-1.1,1.1-1.1h40.9
			c0.6,0,1.1,0.5,1.1,1.1V68.3z"/>
	</g>
	<g>
		<path fill="#53855F" d="M509.1,66.2c0,0.3-0.2,0.5-0.5,0.5l0,0c-0.3,0-0.5-0.2-0.5-0.5V49.9c0-0.3,0.2-0.5,0.5-0.5l0,0
			c0.3,0,0.5,0.2,0.5,0.5V66.2z"/>
	</g>
	<g>
		<path fill="#53855F" d="M537.8,66.2c0,0.3-0.2,0.5-0.5,0.5l0,0c-0.3,0-0.5-0.2-0.5-0.5V49.9c0-0.3,0.2-0.5,0.5-0.5l0,0
			c0.3,0,0.5,0.2,0.5,0.5V66.2z"/>
	</g>
	<g>
		<path fill="#53855F" d="M508.6,66.7c-0.3,0-0.5-0.2-0.5-0.5l0,0c0-0.3,0.2-0.5,0.5-0.5H537c0.3,0,0.5,0.2,0.5,0.5l0,0
			c0,0.3-0.2,0.5-0.5,0.5H508.6z"/>
	</g>
	<g>
		<path fill="#FDD842" d="M529.2,59.3c0,1-0.8,1.8-1.8,1.8h-5.8c-1,0-1.8-0.8-1.8-1.8l0,0c0-1,0.8-1.8,1.8-1.8h5.8
			C528.4,57.5,529.2,58.3,529.2,59.3L529.2,59.3z"/>
	</g>
	<g>
		<path fill="#FDD842" d="M530.7,56.8c0.2,0.2,0.2,0.6,0,0.9l-1.4,1.4c-0.2,0.2-0.6,0.2-0.9,0l0,0c-0.2-0.2-0.2-0.6,0-0.9l1.4-1.4
			C530.1,56.6,530.5,56.6,530.7,56.8L530.7,56.8z"/>
	</g>
	<g>
		<path fill="#FDD842" d="M530.7,61.7c0.2-0.2,0.2-0.6,0-0.9l-1.4-1.4c-0.2-0.2-0.6-0.2-0.9,0l0,0c-0.2,0.2-0.2,0.6,0,0.9l1.4,1.4
			C530.1,62,530.5,62,530.7,61.7L530.7,61.7z"/>
	</g>
	<g>
		<circle fill="#FFFFFF" cx="521.5" cy="59.3" r="1.2"/>
	</g>
	<g>
		<circle fill="#36475A" cx="521.5" cy="59.3" r="0.6"/>
	</g>
	<g>
		<path fill="#F05123" d="M511.6,65.7c-0.1,0-0.2-0.1-0.2-0.2c0-0.3,0.2-0.5,0.3-0.6c0.1-0.1,0.2-0.2,0.2-0.3c0-0.1-0.1-0.2-0.2-0.3
			c-0.1-0.1-0.3-0.3-0.3-0.6c0-0.3,0.2-0.5,0.3-0.6c0.1-0.1,0.2-0.2,0.2-0.3c0-0.1-0.1-0.2-0.2-0.3c-0.1-0.1-0.3-0.3-0.3-0.6
			c0-0.3,0.2-0.5,0.3-0.6c0.1-0.1,0.2-0.2,0.2-0.3c0-0.1-0.1-0.2-0.2-0.3c-0.1-0.1-0.3-0.3-0.3-0.6c0-0.3,0.2-0.5,0.3-0.6
			c0.1-0.1,0.2-0.2,0.2-0.3c0-0.1-0.1-0.2-0.2-0.3c-0.1-0.1-0.3-0.3-0.3-0.6c0-0.3,0.2-0.5,0.3-0.6c0.1-0.1,0.2-0.2,0.2-0.3
			c0-0.1,0.1-0.2,0.2-0.2c0.1,0,0.2,0.1,0.2,0.2c0,0.3-0.2,0.5-0.3,0.6c-0.1,0.1-0.2,0.2-0.2,0.3c0,0.1,0.1,0.2,0.2,0.3
			c0.1,0.1,0.3,0.3,0.3,0.6c0,0.3-0.2,0.5-0.3,0.6c-0.1,0.1-0.2,0.2-0.2,0.3c0,0.1,0.1,0.2,0.2,0.3c0.1,0.1,0.3,0.3,0.3,0.6
			c0,0.3-0.2,0.5-0.3,0.6c-0.1,0.1-0.2,0.2-0.2,0.3c0,0.1,0.1,0.2,0.2,0.3c0.1,0.1,0.3,0.3,0.3,0.6c0,0.3-0.2,0.5-0.3,0.6
			c-0.1,0.1-0.2,0.2-0.2,0.3c0,0.1,0.1,0.2,0.2,0.3c0.1,0.1,0.3,0.3,0.3,0.6c0,0.3-0.2,0.5-0.3,0.6c-0.1,0.1-0.2,0.2-0.2,0.3
			C511.7,65.6,511.7,65.7,511.6,65.7z"/>
	</g>
	<g>
		<path fill="#F05123" d="M513.2,63.6c-0.1,0-0.2-0.1-0.2-0.2c0-0.3,0.2-0.5,0.3-0.6c0.1-0.1,0.2-0.2,0.2-0.3c0-0.1-0.1-0.2-0.2-0.3
			c-0.1-0.1-0.3-0.3-0.3-0.6c0-0.3,0.2-0.5,0.3-0.6c0.1-0.1,0.2-0.2,0.2-0.3c0-0.1-0.1-0.2-0.2-0.3c-0.1-0.1-0.3-0.3-0.3-0.6
			c0-0.3,0.2-0.5,0.3-0.6c0.1-0.1,0.2-0.2,0.2-0.3c0-0.1-0.1-0.2-0.2-0.3c-0.1-0.1-0.3-0.3-0.3-0.6c0-0.3,0.2-0.5,0.3-0.6
			c0.1-0.1,0.2-0.2,0.2-0.3c0-0.1-0.1-0.2-0.2-0.3c-0.1-0.1-0.3-0.3-0.3-0.6s0.2-0.5,0.3-0.6c0.1-0.1,0.2-0.2,0.2-0.3
			c0-0.1,0.1-0.2,0.2-0.2c0.1,0,0.2,0.1,0.2,0.2c0,0.3-0.2,0.5-0.3,0.6c-0.1,0.1-0.2,0.2-0.2,0.3c0,0.1,0.1,0.2,0.2,0.3
			c0.1,0.1,0.3,0.3,0.3,0.6c0,0.3-0.2,0.5-0.3,0.6c-0.1,0.1-0.2,0.2-0.2,0.3c0,0.1,0.1,0.2,0.2,0.3c0.1,0.1,0.3,0.3,0.3,0.6
			c0,0.3-0.2,0.5-0.3,0.6c-0.1,0.1-0.2,0.2-0.2,0.3c0,0.1,0.1,0.2,0.2,0.3c0.1,0.1,0.3,0.3,0.3,0.6c0,0.3-0.2,0.5-0.3,0.6
			c-0.1,0.1-0.2,0.2-0.2,0.3c0,0.1,0.1,0.2,0.2,0.3c0.1,0.1,0.3,0.3,0.3,0.6c0,0.3-0.2,0.5-0.3,0.6c-0.1,0.1-0.2,0.2-0.2,0.3
			C513.4,63.5,513.3,63.6,513.2,63.6z"/>
	</g>
	<g>
		<path fill="#F05123" d="M514.9,65.7c-0.1,0-0.2-0.1-0.2-0.2c0-0.3,0.2-0.5,0.3-0.6c0.1-0.1,0.2-0.2,0.2-0.3c0-0.1-0.1-0.2-0.2-0.3
			c-0.1-0.1-0.3-0.3-0.3-0.6c0-0.3,0.2-0.5,0.3-0.6c0.1-0.1,0.2-0.2,0.2-0.3c0-0.1-0.1-0.2-0.2-0.3c-0.1-0.1-0.3-0.3-0.3-0.6
			c0-0.3,0.2-0.5,0.3-0.6c0.1-0.1,0.2-0.2,0.2-0.3c0-0.1-0.1-0.2-0.2-0.3c-0.1-0.1-0.3-0.3-0.3-0.6c0-0.3,0.2-0.5,0.3-0.6
			c0.1-0.1,0.2-0.2,0.2-0.3c0-0.1-0.1-0.2-0.2-0.3c-0.1-0.1-0.3-0.3-0.3-0.6c0-0.3,0.2-0.5,0.3-0.6c0.1-0.1,0.2-0.2,0.2-0.3
			c0-0.1,0.1-0.2,0.2-0.2c0.1,0,0.2,0.1,0.2,0.2c0,0.3-0.2,0.5-0.3,0.6c-0.1,0.1-0.2,0.2-0.2,0.3c0,0.1,0.1,0.2,0.2,0.3
			c0.1,0.1,0.3,0.3,0.3,0.6c0,0.3-0.2,0.5-0.3,0.6c-0.1,0.1-0.2,0.2-0.2,0.3c0,0.1,0.1,0.2,0.2,0.3c0.1,0.1,0.3,0.3,0.3,0.6
			c0,0.3-0.2,0.5-0.3,0.6c-0.1,0.1-0.2,0.2-0.2,0.3c0,0.1,0.1,0.2,0.2,0.3c0.1,0.1,0.3,0.3,0.3,0.6c0,0.3-0.2,0.5-0.3,0.6
			c-0.1,0.1-0.2,0.2-0.2,0.3c0,0.1,0.1,0.2,0.2,0.3c0.1,0.1,0.3,0.3,0.3,0.6c0,0.3-0.2,0.5-0.3,0.6c-0.1,0.1-0.2,0.2-0.2,0.3
			C515.1,65.6,515,65.7,514.9,65.7z"/>
	</g>
	<g>
		<path fill="#010101" d="M510.8,65.8c0-1.5,1.2-2.6,2.6-2.6c1.5,0,2.6,1.2,2.6,2.6"/>
	</g>
	<g>
		<rect x="541.4" y="28.5" fill="#36475A" width="8.7" height="11.8"/>
	</g>
	<g>
		<rect x="352.7" y="58.5" fill="#36475A" width="8.7" height="11.7"/>
	</g>
	<g>
		<rect x="550.9" y="56.7" fill="#36475A" width="5.7" height="7.7"/>
	</g>
	<g>
		<rect x="394.1" y="51.3" fill="#36475A" width="5.7" height="7.7"/>
	</g>
	<g>
		<rect x="545.8" y="46.3" fill="#101720" width="8.7" height="5.9"/>
	</g>
	<g>
		<rect x="356.1" y="47.4" fill="#101720" width="8.7" height="5.9"/>
	</g>
	<g>
		<path fill="#010101" d="M532.2,105.1c0,0.8-0.6,1.4-1.4,1.4h-16.3c-0.8,0-1.4-0.6-1.4-1.4l0,0c0-0.8,0.6-1.4,1.4-1.4h16.3
			C531.6,103.7,532.2,104.4,532.2,105.1L532.2,105.1z"/>
	</g>
	<g>
		<rect x="514.6" y="106.5" fill="#010101" width="1.3" height="8.4"/>
	</g>
	<g>
		<rect x="529.6" y="106.5" fill="#010101" width="1.3" height="8.4"/>
	</g>
	<g>
		<path fill="#101720" d="M428.8,49.2v-2.9c0-0.6,0.4-1,1-1l0,0c0.6,0,1,0.4,1,1v2.9"/>
	</g>
	<g>
		<circle fill="#53855F" cx="429.4" cy="46.6" r="0.2"/>
	</g>
	<g>
		<circle fill="#53855F" cx="430.3" cy="46.6" r="0.2"/>
	</g>
	<g>
		<path fill="#010101" d="M441.1,79.3"/>
	</g>
	<g>
		<rect x="433.9" y="93.2" fill="#FFFFFF" width="0.8" height="12"/>
	</g>
	<g>
		<rect x="437.3" y="93.2" fill="#FFFFFF" width="0.8" height="12"/>
	</g>
	<g>
		<rect x="440.7" y="93.2" fill="#FFFFFF" width="0.8" height="12"/>
	</g>
	<g>
		<rect x="444.1" y="93.2" fill="#FFFFFF" width="0.8" height="12"/>
	</g>
	<g>
		<rect x="447.5" y="93.2" fill="#FFFFFF" width="0.8" height="12"/>
	</g>
	<g>
		<rect x="450.9" y="93.2" fill="#FFFFFF" width="0.8" height="12"/>
	</g>
	<g>
		<rect x="454.3" y="93.2" fill="#FFFFFF" width="0.8" height="12"/>
	</g>
	<g>
		<rect x="457.7" y="93.2" fill="#FFFFFF" width="0.8" height="12"/>
	</g>
	<g>
		<rect x="461.1" y="93.2" fill="#FFFFFF" width="0.8" height="12"/>
	</g>
	<g>
		<rect x="464.5" y="93.2" fill="#FFFFFF" width="0.8" height="12"/>
	</g>
	<g>
		<rect x="467.9" y="93.2" fill="#FFFFFF" width="0.8" height="12"/>
	</g>
	<g>
		<rect x="471.2" y="93.2" fill="#FFFFFF" width="0.8" height="12"/>
	</g>
	<g>
		<g>
			<path fill="#FFFFFF" d="M475.4,93.4c-0.2-0.1-0.5-0.1-0.8-0.2v11.9h0.8V93.4z"/>
		</g>
		<g>
			<path fill="#FFFFFF" d="M431.3,94.2c-0.3,0.2-0.5,0.3-0.8,0.5v10.5h0.8V94.2z"/>
		</g>
		<g>
			<path fill="#FFFFFF" d="M478,94.8v10.5h0.8v-9.8C478.6,95.2,478.3,95,478,94.8z"/>
		</g>
	</g>
</g>
</svg>
