<?xml version="1.0" encoding="utf-8"?>
<!-- Generator: Adobe Illustrator 18.1.1, SVG Export Plug-In . SVG Version: 6.00 Build 0)  -->
<svg version="1.1" id="Layer_1" xmlns="http://www.w3.org/2000/svg" xmlns:xlink="http://www.w3.org/1999/xlink" x="0px" y="0px"
	 viewBox="0 0 388.4 275.3" enable-background="new 0 0 388.4 275.3" xml:space="preserve">
<g>
	<g>
		<g>
			<g>
				<g>
					
						<rect x="-1.8" y="239.5" transform="matrix(0.7034 0.7108 -0.7108 0.7034 181.6841 50.7505)" fill="#4E4F96" width="63.6" height="7.2"/>
				</g>
				<g>
					<g>
						<path fill="#4E4F96" d="M362.2,275.3H67c-14.4,0-26.2-11.7-26.2-26.2V67.7c0-14.4,11.7-26.2,26.2-26.2h295.3
							c14.4,0,26.2,11.7,26.2,26.2v181.4C388.4,263.6,376.7,275.3,362.2,275.3z M67,48.8C56.5,48.8,48,57.3,48,67.7v181.4
							c0,10.4,8.5,18.9,18.9,18.9h295.3c10.4,0,18.9-8.5,18.9-18.9V67.7c0-10.5-8.5-18.9-18.9-18.9H67z"/>
					</g>
					<g>
						<path fill="#4E4F96" d="M321.5,233.7H26.2C11.7,233.7,0,222,0,207.6V26.2C0,11.7,11.7,0,26.2,0h295.3
							c14.4,0,26.2,11.7,26.2,26.2v181.4C347.6,222,335.9,233.7,321.5,233.7z M26.2,7.2c-10.4,0-18.9,8.5-18.9,18.9v181.4
							c0,10.4,8.5,18.9,18.9,18.9h295.3c10.4,0,18.9-8.5,18.9-18.9V26.2c0-10.4-8.5-18.9-18.9-18.9H26.2z"/>
					</g>
					<g>
						
							<rect x="328.2" y="241.3" transform="matrix(0.7073 0.7069 -0.7069 0.7073 277.7605 -181.0774)" fill="#4E4F96" width="58.8" height="7.2"/>
					</g>
					<g>
						
							<rect x="328.2" y="26.8" transform="matrix(0.7071 0.7071 -0.7071 0.7071 126.2113 -243.9223)" fill="#4E4F96" width="58.8" height="7.2"/>
					</g>
					<g>
						
							<rect x="2.2" y="26.8" transform="matrix(0.7068 0.7074 -0.7074 0.7068 30.7745 -13.4621)" fill="#4E4F96" width="58.8" height="7.2"/>
					</g>
				</g>
			</g>
			<g>
				<path fill="#4E4F96" d="M311.6,179.1h-194c-10.7,0-19.4,8.7-19.4,19.4v37.1c0,10.7,8.7,19.4,19.4,19.4h194
					c10.7,0,19.4-8.7,19.4-19.4v-37.1C331.1,187.8,322.3,179.1,311.6,179.1z M152.2,195c0,5-4,9-9,9c-5,0-9-4-9-9v-8.6h18V195z
					 M187,195c0,5-4,9-9,9c-5,0-9-4-9-9v-8.6h18V195z M221.9,195c0,5-4,9-9,9c-5,0-9-4-9-9v-8.6h18V195z M256.7,195c0,5-4,9-9,9
					c-5,0-9-4-9-9v-8.6h18V195z M291.5,195c0,5-4,9-9,9c-5,0-9-4-9-9v-8.6h18V195z"/>
				<path fill="#F8ACA8" d="M132.2,74.7c-16.2,0-29.4,13.1-29.4,29.4c0,16.2,13.1,29.4,29.4,29.4c16.2,0,29.4-13.1,29.4-29.4
					C161.6,87.9,148.4,74.7,132.2,74.7z M132.2,112c-4.4,0-7.9-3.6-7.9-7.9c0-4.4,3.6-7.9,7.9-7.9c4.4,0,7.9,3.6,7.9,7.9
					C140.2,108.5,136.6,112,132.2,112z"/>
				<path fill="#F8ACA8" d="M297,74.7c-16.2,0-29.4,13.1-29.4,29.4c0,16.2,13.1,29.4,29.4,29.4c16.2,0,29.4-13.1,29.4-29.4
					C326.3,87.9,313.2,74.7,297,74.7z M297,112c-4.4,0-7.9-3.6-7.9-7.9c0-4.4,3.6-7.9,7.9-7.9c4.4,0,7.9,3.6,7.9,7.9
					C304.9,108.5,301.4,112,297,112z"/>
				<g>
					<g>
						<path fill="#4E4F96" d="M208.7,152c-2.1,2.1-5.4,2.1-7.5,0l0,0c-2.1-2.1-2.1-5.4,0-7.5l23.1-23.1c2.1-2.1,5.4-2.1,7.5,0l0,0
							c2.1,2.1,2.1,5.4,0,7.5L208.7,152z"/>
					</g>
					<g>
						<path fill="#4E4F96" d="M231.8,144.5c2.1,2.1,2.1,5.4,0,7.5l0,0c-2.1,2.1-5.4,2.1-7.5,0l-23.1-23.1c-2.1-2.1-2.1-5.4,0-7.5
							l0,0c2.1-2.1,5.4-2.1,7.5,0L231.8,144.5z"/>
					</g>
				</g>
			</g>
		</g>
	</g>
</g>
</svg>
