<?xml version="1.0" encoding="utf-8"?>
<!-- Generator: Adobe Illustrator 18.1.1, SVG Export Plug-In . SVG Version: 6.00 Build 0)  -->
<svg version="1.1" id="Layer_1" xmlns="http://www.w3.org/2000/svg" xmlns:xlink="http://www.w3.org/1999/xlink" x="0px" y="0px"
	 viewBox="0 0 612 792" enable-background="new 0 0 612 792" xml:space="preserve">
<g>
	<linearGradient id="SVGID_1_" gradientUnits="userSpaceOnUse" x1="306" y1="48.2802" x2="306" y2="872.0694">
		<stop  offset="0" style="stop-color:#FFD76C"/>
		<stop  offset="1" style="stop-color:#F37763"/>
	</linearGradient>
	<path fill="url(#SVGID_1_)" d="M0,0v792h612V0H0z M503.3,755.3l-391.2,0.9c-34.5,0-62.7-26.6-65.4-60.3V136.7
		c0-35.2,27.7-63.9,62.5-65.5l398-0.9c31.4,1.5,56.9,25,61.7,55.4v564C568.9,725.9,539.5,755.3,503.3,755.3z"/>
	<path fill="#F37763" d="M152.5,70.2v12.4c0,3-2.5,5.5-5.5,5.5h-23.5c-3,0-5.5-2.5-5.5-5.5V70.2"/>
	<path fill="#F37763" d="M219.9,70.2v12.4c0,3-2.5,5.5-5.5,5.5H191c-3,0-5.5-2.5-5.5-5.5V70.2"/>
	<path fill="#F37763" d="M287.3,70.2v12.4c0,3-2.5,5.5-5.5,5.5h-23.5c-3,0-5.5-2.5-5.5-5.5V70.2"/>
	<path fill="#F37763" d="M354.8,70.2v12.4c0,3-2.5,5.5-5.5,5.5h-23.5c-3,0-5.5-2.5-5.5-5.5V70.2"/>
	<path fill="#F37763" d="M422.2,70.2v12.4c0,3-2.5,5.5-5.5,5.5h-23.5c-3,0-5.5-2.5-5.5-5.5V70.2"/>
	<path fill="#F37763" d="M489.6,70.2v12.4c0,3-2.5,5.5-5.5,5.5h-23.5c-3,0-5.5-2.5-5.5-5.5V70.2"/>
	<g>
		<path fill="#F5F6F6" d="M105.9,44.4c-5.4,0-9.7-4.4-9.7-9.7s4.4-9.7,9.7-9.7h135.8c5.4,0,9.7,4.4,9.7,9.7s-4.4,9.7-9.7,9.7H105.9z
			"/>
		<g>
			<path fill="#131B26" d="M241.7,30c2.6,0,4.7,2.1,4.7,4.7s-2.1,4.7-4.7,4.7H105.9c-2.6,0-4.7-2.1-4.7-4.7s2.1-4.7,4.7-4.7H241.7
				 M241.7,20H105.9c-8.1,0-14.7,6.6-14.7,14.7s6.6,14.7,14.7,14.7h135.8c8.1,0,14.7-6.6,14.7-14.7S249.8,20,241.7,20L241.7,20z"/>
		</g>
	</g>
	<g>
		<path fill="#F5F6F6" d="M366.6,44.4c-5.4,0-9.7-4.4-9.7-9.7s4.4-9.7,9.7-9.7h135.8c5.4,0,9.7,4.4,9.7,9.7s-4.4,9.7-9.7,9.7H366.6z
			"/>
		<g>
			<path fill="#131B26" d="M502.4,30c2.6,0,4.7,2.1,4.7,4.7s-2.1,4.7-4.7,4.7H366.6c-2.6,0-4.7-2.1-4.7-4.7s2.1-4.7,4.7-4.7H502.4
				 M502.4,20H366.6c-8.1,0-14.7,6.6-14.7,14.7s6.6,14.7,14.7,14.7h135.8c8.1,0,14.7-6.6,14.7-14.7S510.6,20,502.4,20L502.4,20z"/>
		</g>
	</g>
	<circle fill="#8A66AC" cx="173.8" cy="34.7" r="3.9"/>
	<circle fill="#8A66AC" cx="434.5" cy="34.7" r="3.9"/>
</g>
</svg>
