<?xml version="1.0" encoding="utf-8"?>
<!-- Generator: Adobe Illustrator 18.1.1, SVG Export Plug-In . SVG Version: 6.00 Build 0)  -->
<svg version="1.1" id="Layer_1" xmlns="http://www.w3.org/2000/svg" xmlns:xlink="http://www.w3.org/1999/xlink" x="0px" y="0px"
	 viewBox="0 0 981.6 265.6" enable-background="new 0 0 981.6 265.6" xml:space="preserve">
<g>
	<g>
		<g>
			<path fill="#F04D6D" d="M181.1,162.2h-51.5c-10.6,0-19.3-8.7-19.3-19.3s8.7-19.3,19.3-19.3h73.5c10.6,0,20.8,9.1,20.8,20.1v60.6
				c0,8.7-1.9,14.4-6.4,20.1c-18.2,24.2-58.3,41.3-98.9,41.3C43.2,265.6,0,225.8,0,133C0,43.2,43.2,0,118.6,0
				c45.8,0,75.8,18.2,91.3,40.9c3,4.5,4.2,8.3,4.2,12.5c0,11-9.1,20.1-20.5,20.1c-5.3,0-10.6-2.3-15.5-7.6
				c-15.5-17-31.8-26.5-59.5-26.5c-50.4,0-73.1,31.1-73.1,93.6c0,66.3,22.7,93.2,73.1,93.2c28,0,47.7-6.4,62.5-21.6V162.2z"/>
			<path fill="#56C9E9" d="M458,23.9v217.8c0,11.7-9.9,21.6-21.6,21.6c-7.2,0-14-3.8-17.8-9.5L306.9,92.4v149.3
				c0,11.7-9.8,21.6-21.6,21.6c-11.7,0-21.6-9.9-21.6-21.6V23.9c0-11.7,9.9-21.6,21.6-21.6c7.6,0,13.6,3.4,17.4,9.1l112.1,162.5
				v-150c0-11.7,9.9-21.6,21.6-21.6C448.2,2.3,458,12.1,458,23.9z"/>
			<path fill="#59BC69" d="M491.8,133c0-89.8,43.6-133,120.1-133c76.5,0,120.1,43.2,120.1,133c0,88.6-43.6,132.6-120.1,132.6
				C535.3,265.6,491.8,221.6,491.8,133z M537.2,133c0,62.5,24.6,93.2,74.6,93.2c50,0,74.6-30.7,74.6-93.2
				c0-62.9-24.6-93.6-74.6-93.6C561.8,39.4,537.2,70.1,537.2,133z"/>
			<path fill="#AE98C9" d="M938.8,162.2h-51.5c-10.6,0-19.3-8.7-19.3-19.3s8.7-19.3,19.3-19.3h73.5c10.6,0,20.8,9.1,20.8,20.1v60.6
				c0,8.7-1.9,14.4-6.4,20.1c-18.2,24.2-58.3,41.3-98.9,41.3c-75.4,0-118.6-39.8-118.6-132.6c0-89.8,43.2-133,118.6-133
				c45.8,0,75.8,18.2,91.3,40.9c3,4.5,4.2,8.3,4.2,12.5c0,11-9.1,20.1-20.5,20.1c-5.3,0-10.6-2.3-15.5-7.6
				c-15.5-17-31.8-26.5-59.5-26.5c-50.4,0-73.1,31.1-73.1,93.6c0,66.3,22.7,93.2,73.1,93.2c28,0,47.7-6.4,62.5-21.6V162.2z"/>
		</g>
	</g>
</g>
</svg>
