<?xml version="1.0" encoding="utf-8"?>
<!-- Generator: Adobe Illustrator 18.1.1, SVG Export Plug-In . SVG Version: 6.00 Build 0)  -->
<svg version="1.1" id="Layer_1" xmlns="http://www.w3.org/2000/svg" xmlns:xlink="http://www.w3.org/1999/xlink" x="0px" y="0px"
	 viewBox="0 142.2 612 334.8" enable-background="new 0 142.2 612 334.8" xml:space="preserve">
<g>
	<path fill="#F37763" d="M154.7,177.6V189c0,3-2.5,5.5-5.5,5.5h-23.5c-3,0-5.5-2.5-5.5-5.5v-11.4"/>
	<path fill="#F37763" d="M222.1,177.6V189c0,3-2.5,5.5-5.5,5.5h-23.4c-3,0-5.5-2.5-5.5-5.5v-11.4"/>
	<path fill="#F37763" d="M289.5,177.6V189c0,3-2.5,5.5-5.5,5.5h-23.5c-3,0-5.5-2.5-5.5-5.5v-11.4"/>
	<path fill="#F37763" d="M357,177.6V189c0,3-2.5,5.5-5.5,5.5H328c-3,0-5.5-2.5-5.5-5.5v-11.4"/>
	<path fill="#F37763" d="M424.4,177.6V189c0,3-2.5,5.5-5.5,5.5h-23.5c-3,0-5.5-2.5-5.5-5.5v-11.4"/>
	<path fill="#F37763" d="M491.8,177.6V189c0,3-2.5,5.5-5.5,5.5h-23.5c-3,0-5.5-2.5-5.5-5.5v-11.4"/>
	
		<linearGradient id="SVGID_1_" gradientUnits="userSpaceOnUse" x1="306" y1="829.0532" x2="306" y2="5.264" gradientTransform="matrix(1 0 0 -1 0 1019.5)">
		<stop  offset="0" style="stop-color:#FFD76C"/>
		<stop  offset="1" style="stop-color:#F37763"/>
	</linearGradient>
	<path fill="url(#SVGID_1_)" d="M0,142.2v792h612v-792H0z M503.3,897.5l-391.2,0.9c-34.5,0-62.7-26.6-65.4-60.3V328.5
		c-2.5-40-8.5-149.3,26.3-150.9h439.1c31.4,1.5,55.9,32.4,56.8,122.4v531.9C568.9,868.1,539.5,897.5,503.3,897.5z"/>
	<g>
		<path fill="#F5F6F6" d="M105.9,166.6c-5.4,0-9.7-4.4-9.7-9.7s4.4-9.7,9.7-9.7h135.8c5.4,0,9.7,4.4,9.7,9.7s-4.4,9.7-9.7,9.7H105.9
			z"/>
		<g>
			<path fill="#131B26" d="M241.7,152.2c2.6,0,4.7,2.1,4.7,4.7s-2.1,4.7-4.7,4.7H105.9c-2.6,0-4.7-2.1-4.7-4.7s2.1-4.7,4.7-4.7
				H241.7 M241.7,142.2H105.9c-8.1,0-14.7,6.6-14.7,14.7c0,8.1,6.6,14.7,14.7,14.7h135.8c8.1,0,14.7-6.6,14.7-14.7
				S249.8,142.2,241.7,142.2L241.7,142.2z"/>
		</g>
	</g>
	<g>
		<path fill="#F5F6F6" d="M366.6,166.6c-5.4,0-9.7-4.4-9.7-9.7s4.4-9.7,9.7-9.7h135.8c5.4,0,9.7,4.4,9.7,9.7s-4.4,9.7-9.7,9.7H366.6
			z"/>
		<g>
			<path fill="#131B26" d="M502.4,152.2c2.6,0,4.7,2.1,4.7,4.7s-2.1,4.7-4.7,4.7H366.6c-2.6,0-4.7-2.1-4.7-4.7s2.1-4.7,4.7-4.7
				H502.4 M502.4,142.2H366.6c-8.1,0-14.7,6.6-14.7,14.7c0,8.1,6.6,14.7,14.7,14.7h135.8c8.1,0,14.7-6.6,14.7-14.7
				S510.6,142.2,502.4,142.2L502.4,142.2z"/>
		</g>
	</g>
	<circle fill="#8A66AC" cx="173.8" cy="156.9" r="3.9"/>
	<circle fill="#8A66AC" cx="434.5" cy="156.9" r="3.9"/>
</g>
</svg>
