<?xml version="1.0" encoding="utf-8"?>
<!-- Generator: Adobe Illustrator 18.1.0, SVG Export Plug-In . SVG Version: 6.00 Build 0)  -->
<svg version="1.0" id="Layer_1" xmlns="http://www.w3.org/2000/svg" xmlns:xlink="http://www.w3.org/1999/xlink" x="0px" y="0px"
	 viewBox="0 0 198.4 198.4" enable-background="new 0 0 198.4 198.4" xml:space="preserve">
<g>
	<rect x="0" y="0" fill="#E95251" width="198.4" height="198.4"/>
	<g>
		<path fill="#FFFFFF" d="M94.7,15.4L66.9,53.5l27.4,39.7H83.5L61.2,61v32.1l-8.8,0V15.4h8.8v30.4l22.6-30.4H94.7z"/>
		<path fill="#FFFFFF" d="M146,93.1h-41.4V15.4H146V93.1z M137.2,84.2V24.4h-23.7v59.8H137.2z"/>
		<path fill="#FFFFFF" d="M93.7,183.1H52.3v-77.8h41.4V183.1z M84.8,174.2v-59.8H61.2v59.8H84.8z"/>
		<path fill="#FFFFFF" d="M146,148.1h-32.5v35h-8.8v-77.8H146V148.1z M137.2,140v-26.5h-23.7V140H137.2z"/>
		<g>
			<path fill="#FFFFFF" d="M61.1,140.1v8.1l-61.1,0v-8.1H61.1z"/>
		</g>
		<g>
			<path fill="#FFFFFF" d="M198.2,50.2v8.1h-60.8v-8.1H198.2z"/>
		</g>
	</g>
</g>
</svg>
