<?xml version="1.0" encoding="utf-8"?>
<!-- Generator: Adobe Illustrator 18.1.0, SVG Export Plug-In . SVG Version: 6.00 Build 0)  -->
<svg version="1.0" id="Layer_1" xmlns="http://www.w3.org/2000/svg" xmlns:xlink="http://www.w3.org/1999/xlink" x="0px" y="0px"
	 viewBox="0 0 677.6 30.5" enable-background="new 0 0 677.6 30.5" xml:space="preserve">
<g id="Awards_9_">
	<g>
		<path fill="#FFEE71" d="M28.6,12.3c0,0.3-0.2,0.6-0.6,0.6s-0.6-0.2-0.6-0.6V6.8c0-0.3,0.2-0.6,0.6-0.6s0.6,0.2,0.6,0.6V12.3z"/>
		<path fill="#FFEE71" d="M34.6,6.8v5.5c0,0.3-0.2,0.5-0.5,0.5c-0.2,0-0.4-0.1-0.5-0.2l-2.8-4.1v3.8c0,0.3-0.2,0.5-0.5,0.5
			s-0.5-0.2-0.5-0.5V6.8c0-0.3,0.2-0.5,0.5-0.5c0.2,0,0.3,0.1,0.4,0.2l2.8,4.1V6.8c0-0.3,0.2-0.5,0.5-0.5S34.6,6.5,34.6,6.8z"/>
		<path fill="#FFEE71" d="M37.5,6.3c1.9,0,3.1,0.9,3.1,3.2c0,2.4-1.2,3.2-3.1,3.2h-1.3c-0.3,0-0.6-0.2-0.6-0.6V6.9
			c0-0.3,0.2-0.6,0.6-0.6H37.5z M36.8,11.8h0.7c1.2,0,2-0.6,2-2.2s-0.7-2.2-2-2.2h-0.7V11.8z"/>
		<path fill="#FFEE71" d="M42.7,12.3c0,0.3-0.2,0.6-0.6,0.6s-0.6-0.2-0.6-0.6V6.8c0-0.3,0.2-0.6,0.6-0.6s0.6,0.2,0.6,0.6V12.3z"/>
		<path fill="#FFEE71" d="M44.9,9h1.8c0.3,0,0.5,0.2,0.5,0.5c0,0.3-0.2,0.5-0.5,0.5h-1.8v1.8h2.5c0.3,0,0.5,0.2,0.5,0.5
			c0,0.3-0.2,0.5-0.5,0.5h-3.1c-0.3,0-0.6-0.2-0.6-0.6V6.9c0-0.3,0.2-0.6,0.6-0.6h3c0.3,0,0.5,0.2,0.5,0.5c0,0.3-0.2,0.5-0.5,0.5
			h-2.4V9z"/>
		<path fill="#FFEE71" d="M53.6,11.5l-1.5-2.7v3.5c0,0.3-0.2,0.5-0.5,0.5S51,12.6,51,12.3V6.8c0-0.3,0.2-0.5,0.5-0.5
			c0.2,0,0.4,0.1,0.5,0.3l2,3.7l2-3.7c0.1-0.2,0.2-0.3,0.5-0.3c0.3,0,0.5,0.2,0.5,0.5v5.5c0,0.3-0.2,0.5-0.5,0.5
			c-0.3,0-0.5-0.2-0.5-0.5V8.8l-1.5,2.7c-0.1,0.2-0.3,0.3-0.5,0.3S53.7,11.7,53.6,11.5z"/>
		<path fill="#FFEE71" d="M59.4,9h1.8c0.3,0,0.5,0.2,0.5,0.5c0,0.3-0.2,0.5-0.5,0.5h-1.8v1.8H62c0.3,0,0.5,0.2,0.5,0.5
			c0,0.3-0.2,0.5-0.5,0.5h-3.1c-0.3,0-0.6-0.2-0.6-0.6V6.9c0-0.3,0.2-0.6,0.6-0.6h3c0.3,0,0.5,0.2,0.5,0.5c0,0.3-0.2,0.5-0.5,0.5
			h-2.4V9z"/>
		<path fill="#FFEE71" d="M67.7,10.3h-1.3c-0.3,0-0.5-0.2-0.5-0.5c0-0.3,0.2-0.5,0.5-0.5h1.9c0.3,0,0.5,0.2,0.5,0.5v1.5
			c0,0.2,0,0.4-0.2,0.5c-0.5,0.6-1.5,1-2.5,1c-1.9,0-3-1-3-3.4c0-2.3,1.1-3.4,3-3.4c1.2,0,1.9,0.5,2.3,1c0.1,0.1,0.1,0.2,0.1,0.3
			c0,0.3-0.2,0.5-0.5,0.5c-0.1,0-0.3-0.1-0.4-0.2c-0.4-0.4-0.8-0.7-1.5-0.7c-1.3,0-1.9,0.8-1.9,2.4c0,1.7,0.6,2.4,1.9,2.4
			c0.7,0,1.2-0.2,1.6-0.5V10.3z"/>
		<path fill="#FFEE71" d="M71,11.1l-0.6,1.4c-0.1,0.2-0.3,0.4-0.5,0.4c-0.3,0-0.5-0.2-0.5-0.5c0-0.1,0-0.1,0-0.2l2.3-5.5
			c0.1-0.1,0.2-0.3,0.5-0.3s0.5,0.2,0.5,0.3l2.3,5.5c0,0.1,0,0.1,0,0.2c0,0.3-0.2,0.5-0.5,0.5c-0.2,0-0.4-0.2-0.5-0.4l-0.6-1.4H71z
			 M72.2,8.1l-0.8,2H73L72.2,8.1z"/>
		<path fill="#FFEE71" d="M76.3,12.8c-0.3,0-0.6-0.2-0.6-0.6V6.9c0-0.3,0.2-0.6,0.6-0.6H78c1.5,0,2,0.8,2,1.7c0,0.6-0.3,1.1-0.7,1.3
			c0.7,0.3,1,0.8,1,1.5c0,1.2-0.7,1.9-2.1,1.9H76.3z M76.9,9H78c0.6,0,0.9-0.3,0.9-0.8c0-0.5-0.2-0.8-0.9-0.8h-1.2V9z M76.9,11.8
			h1.3c0.7,0,1-0.4,1-0.9c0-0.6-0.3-0.9-1-0.9h-1.3V11.8z"/>
		<path fill="#FFEE71" d="M81,9.6c0-2.3,1.1-3.4,3-3.4c1.9,0,3,1.1,3,3.4c0,2.2-1.1,3.4-3,3.4C82.1,12.9,81,11.8,81,9.6z M82.1,9.6
			c0,1.6,0.6,2.4,1.9,2.4s1.9-0.8,1.9-2.4c0-1.6-0.6-2.4-1.9-2.4S82.1,8,82.1,9.6z"/>
		<path fill="#FFEE71" d="M87.7,9.6c0-2.3,1.1-3.4,3-3.4c1.9,0,3,1.1,3,3.4c0,2.2-1.1,3.4-3,3.4C88.8,12.9,87.7,11.8,87.7,9.6z
			 M88.9,9.6c0,1.6,0.6,2.4,1.9,2.4s1.9-0.8,1.9-2.4c0-1.6-0.6-2.4-1.9-2.4S88.9,8,88.9,9.6z"/>
		<path fill="#FFEE71" d="M97.1,7.3v5c0,0.3-0.2,0.6-0.6,0.6S96,12.6,96,12.3v-5h-1.5c-0.3,0-0.5-0.2-0.5-0.5c0-0.3,0.2-0.5,0.5-0.5
			h4.1c0.3,0,0.5,0.2,0.5,0.5c0,0.3-0.2,0.5-0.5,0.5H97.1z"/>
		<path fill="#FFEE71" d="M104.8,12.3c0,0.3-0.2,0.6-0.6,0.6s-0.6-0.2-0.6-0.6V10H101v2.3c0,0.3-0.2,0.6-0.6,0.6s-0.6-0.2-0.6-0.6
			V6.8c0-0.3,0.2-0.6,0.6-0.6s0.6,0.2,0.6,0.6V9h2.8V6.8c0-0.3,0.2-0.6,0.6-0.6s0.6,0.2,0.6,0.6V12.3z"/>
		<path fill="#FFEE71" d="M33.5,21.1c0-2.3,1.1-3.4,3-3.4c1.9,0,3,1.1,3,3.4c0,2.2-1.1,3.4-3,3.4C34.6,24.5,33.5,23.3,33.5,21.1z
			 M34.6,21.1c0,1.6,0.6,2.4,1.9,2.4c1.3,0,1.9-0.8,1.9-2.4c0-1.6-0.6-2.4-1.9-2.4C35.3,18.7,34.6,19.5,34.6,21.1z"/>
		<path fill="#FFEE71" d="M47.4,23.9c0,0.3-0.2,0.5-0.5,0.5c-0.3,0-0.5-0.2-0.5-0.5v-3.1h-1.7v3.1c0,0.3-0.2,0.5-0.5,0.5
			c-0.3,0-0.5-0.2-0.5-0.5v-3.1h-1.9v3.1c0,0.3-0.2,0.5-0.5,0.5c-0.3,0-0.5-0.2-0.5-0.5v-3.1h-0.2c-0.2,0-0.4-0.2-0.4-0.4
			s0.2-0.4,0.4-0.4h0.2v-0.5c0-0.9,0.6-1.7,1.8-1.7c0.2,0,0.5,0.2,0.5,0.5s-0.2,0.5-0.5,0.5c-0.5,0-0.8,0.3-0.8,0.7V20h1.9v-0.5
			c0-0.9,0.7-1.8,1.9-1.8c0.4,0,0.9,0.1,1.1,0.2c0.2,0.1,0.3,0.2,0.3,0.4c0,0.3-0.2,0.5-0.5,0.5c-0.1,0-0.1,0-0.2-0.1
			c-0.2-0.1-0.4-0.1-0.6-0.1c-0.5,0-0.9,0.3-0.9,0.7V20h2.2c0.3,0,0.5,0.2,0.5,0.5V23.9z"/>
		<path fill="#FFEE71" d="M50.3,19.8c0.9,0,1.4,0.4,1.6,0.7c0.1,0.1,0.1,0.2,0.1,0.3c0,0.3-0.2,0.5-0.5,0.5c-0.2,0-0.3-0.1-0.4-0.2
			c-0.1-0.1-0.4-0.4-0.9-0.4c-0.7,0-1,0.5-1,1.4c0,0.9,0.4,1.4,1,1.4c0.4,0,0.7-0.2,1-0.4c0.1-0.1,0.2-0.1,0.3-0.1
			c0.3,0,0.5,0.2,0.5,0.5c0,0.1,0,0.2-0.2,0.4c-0.2,0.2-0.8,0.5-1.5,0.5c-1.3,0-2.1-0.8-2.1-2.3C48.2,20.6,49,19.8,50.3,19.8z"/>
		<path fill="#FFEE71" d="M52.7,18.8c0-0.4,0.2-0.6,0.6-0.6c0.4,0,0.6,0.2,0.6,0.6c0,0.4-0.2,0.6-0.6,0.6
			C52.9,19.4,52.7,19.1,52.7,18.8z M53.8,23.9c0,0.3-0.2,0.5-0.5,0.5c-0.3,0-0.5-0.2-0.5-0.5v-3.5c0-0.3,0.2-0.5,0.5-0.5
			c0.3,0,0.5,0.2,0.5,0.5V23.9z"/>
		<path fill="#FFEE71" d="M55.5,21.1c-0.1,0.1-0.2,0.1-0.3,0.1c-0.2,0-0.5-0.2-0.5-0.5c0-0.1,0-0.2,0.1-0.3c0.3-0.3,0.8-0.6,1.6-0.6
			c1.2,0,1.9,0.6,1.9,1.6v2.5c0,0.3-0.2,0.5-0.5,0.5c-0.3,0-0.5-0.2-0.5-0.5c-0.3,0.4-0.7,0.6-1.3,0.6c-0.9,0-1.6-0.6-1.6-1.5
			c0-0.9,0.7-1.4,1.6-1.4h1.3v-0.2c0-0.4-0.3-0.7-0.9-0.7C56.1,20.8,55.8,20.9,55.5,21.1z M57.4,22.7v-0.3h-1.1
			c-0.4,0-0.7,0.2-0.7,0.5c0,0.4,0.3,0.6,0.8,0.6C56.9,23.6,57.4,23.3,57.4,22.7z"/>
		<path fill="#FFEE71" d="M60.4,18v5.3c0,0.1,0.1,0.2,0.2,0.2c0.3,0,0.5,0.2,0.5,0.5c0,0.3-0.2,0.5-0.5,0.5c-0.8,0-1.2-0.4-1.2-1.2
			V18c0-0.3,0.2-0.5,0.5-0.5C60.2,17.5,60.4,17.7,60.4,18z"/>
		<path fill="#FFEE71" d="M66.1,18.7c-0.8,0-1.1,0.4-1.1,0.8c0,1.3,3.5,0.7,3.5,3.1c0,1.2-0.8,1.9-2.4,1.9c-1.1,0-2.1-0.6-2.4-1.2
			c0-0.1-0.1-0.2-0.1-0.3c0-0.3,0.2-0.5,0.5-0.5c0.2,0,0.3,0.1,0.4,0.2c0.4,0.4,0.9,0.7,1.6,0.7c0.9,0,1.3-0.3,1.3-0.9
			c0-1.4-3.5-0.8-3.5-3.1c0-1,0.7-1.8,2.2-1.8c1,0,1.8,0.4,2.2,0.9c0.1,0.1,0.1,0.2,0.1,0.3c0,0.3-0.2,0.5-0.5,0.5
			c-0.1,0-0.3-0.1-0.4-0.2C67.2,18.9,66.7,18.7,66.1,18.7z"/>
		<path fill="#FFEE71" d="M71.2,19.8c1.6,0,1.9,1.2,1.9,1.9c0,0.4,0,0.8-0.6,0.8h-2.4c0,0.7,0.5,1,1.1,1c0.4,0,0.7-0.1,1-0.3
			c0.1-0.1,0.2-0.1,0.3-0.1c0.2,0,0.5,0.2,0.5,0.5c0,0.2-0.1,0.3-0.2,0.4c-0.2,0.2-0.7,0.5-1.5,0.5c-1.3,0-2.2-0.7-2.2-2.3
			C69.1,20.7,69.9,19.8,71.2,19.8z M70.2,21.6h1.9c0-0.5-0.3-0.9-0.9-0.9C70.6,20.7,70.2,21,70.2,21.6z"/>
		<path fill="#FFEE71" d="M74.9,18v5.3c0,0.1,0.1,0.2,0.2,0.2c0.3,0,0.5,0.2,0.5,0.5c0,0.3-0.2,0.5-0.5,0.5c-0.8,0-1.2-0.4-1.2-1.2
			V18c0-0.3,0.2-0.5,0.5-0.5C74.7,17.5,74.9,17.7,74.9,18z"/>
		<path fill="#FFEE71" d="M78.1,19.8c1.6,0,1.9,1.2,1.9,1.9c0,0.4,0,0.8-0.6,0.8H77c0,0.7,0.5,1,1.1,1c0.4,0,0.7-0.1,1-0.3
			c0.1-0.1,0.2-0.1,0.3-0.1c0.2,0,0.5,0.2,0.5,0.5c0,0.2-0.1,0.3-0.2,0.4c-0.2,0.2-0.7,0.5-1.5,0.5c-1.3,0-2.2-0.7-2.2-2.3
			C76,20.7,76.8,19.8,78.1,19.8z M77.1,21.6H79c0-0.5-0.3-0.9-0.9-0.9C77.5,20.7,77.1,21,77.1,21.6z"/>
		<path fill="#FFEE71" d="M82.6,19.8c0.9,0,1.4,0.4,1.6,0.7c0.1,0.1,0.1,0.2,0.1,0.3c0,0.3-0.2,0.5-0.5,0.5c-0.2,0-0.3-0.1-0.4-0.2
			c-0.1-0.1-0.4-0.4-0.9-0.4c-0.7,0-1,0.5-1,1.4c0,0.9,0.4,1.4,1,1.4c0.4,0,0.7-0.2,1-0.4c0.1-0.1,0.2-0.1,0.3-0.1
			c0.3,0,0.5,0.2,0.5,0.5c0,0.1,0,0.2-0.2,0.4c-0.2,0.2-0.8,0.5-1.5,0.5c-1.3,0-2.1-0.8-2.1-2.3C80.5,20.6,81.3,19.8,82.6,19.8z"/>
		<path fill="#FFEE71" d="M85.4,19.2c0-0.3,0.2-0.5,0.5-0.5c0.3,0,0.5,0.2,0.5,0.5V20h0.4c0.2,0,0.4,0.2,0.4,0.4s-0.2,0.4-0.4,0.4
			h-0.4v2.3c0,0.2,0.2,0.3,0.4,0.3c0.2,0,0.5,0.2,0.5,0.5s-0.2,0.5-0.5,0.5c-0.9,0-1.4-0.5-1.4-1.3v-2.3h-0.2
			c-0.2,0-0.4-0.2-0.4-0.4s0.2-0.4,0.4-0.4h0.2V19.2z"/>
		<path fill="#FFEE71" d="M87.9,18.8c0-0.4,0.2-0.6,0.6-0.6c0.4,0,0.6,0.2,0.6,0.6c0,0.4-0.2,0.6-0.6,0.6
			C88.2,19.4,87.9,19.1,87.9,18.8z M89.1,23.9c0,0.3-0.2,0.5-0.5,0.5c-0.3,0-0.5-0.2-0.5-0.5v-3.5c0-0.3,0.2-0.5,0.5-0.5
			c0.3,0,0.5,0.2,0.5,0.5V23.9z"/>
		<path fill="#FFEE71" d="M91.9,24.5c-1.3,0-2.1-0.7-2.1-2.3c0-1.6,0.8-2.3,2.1-2.3s2.1,0.7,2.1,2.3C94,23.7,93.2,24.5,91.9,24.5z
			 M91.9,20.7c-0.7,0-1.1,0.5-1.1,1.4c0,0.9,0.4,1.4,1.1,1.4s1.1-0.5,1.1-1.4C93,21.2,92.6,20.7,91.9,20.7z"/>
		<path fill="#FFEE71" d="M98.7,21.5v2.4c0,0.3-0.2,0.5-0.5,0.5c-0.3,0-0.5-0.2-0.5-0.5v-2.2c0-0.5-0.2-0.9-0.8-0.9
			c-0.7,0-1,0.4-1,1v2.1c0,0.3-0.2,0.5-0.5,0.5s-0.5-0.2-0.5-0.5v-3.5c0-0.3,0.2-0.5,0.5-0.5s0.5,0.2,0.5,0.5
			c0.2-0.3,0.6-0.6,1.2-0.6C98.4,19.8,98.7,20.7,98.7,21.5z"/>
	</g>
	<g id="Laurels_18_">
		<g id="layer1_10_" transform="translate(91.8807,-228.748)" inkscape:label="Warstwa 1" inkscape:groupmode="layer">
			<g id="path1872_5_">
				<path inkscape:connector-curvature="0" sodipodi:nodetypes="ccc" fill="#FFEE71" d="M-73.2,257.4c-2.2-1.5-3.9-0.2-5.6,1.3
					C-76.7,259.2-74.4,259.5-73.2,257.4z"/>
			</g>
			<g id="path2784_5_">
				<path inkscape:connector-curvature="0" sodipodi:nodetypes="ccc" fill="#FFEE71" d="M-73.7,256.1c-0.1-2.6-2.2-3.3-4.4-3.7
					C-77.3,254.4-76.2,256.4-73.7,256.1z"/>
			</g>
			<g id="path2790_5_">
				<path inkscape:connector-curvature="0" sodipodi:nodetypes="ccc" fill="#FFEE71" d="M-77,256.2c-2-1.7-3.9-0.5-5.7,0.8
					C-80.7,257.7-78.4,258.2-77,256.2z"/>
			</g>
			<g id="path2796_5_">
				<path inkscape:connector-curvature="0" sodipodi:nodetypes="ccc" fill="#FFEE71" d="M-78.9,254.9c1.3-2.3-0.2-3.9-1.8-5.4
					C-81.1,251.7-81.2,253.9-78.9,254.9z"/>
			</g>
			<g id="path2802_5_">
				<path inkscape:connector-curvature="0" sodipodi:nodetypes="ccc" fill="#FFEE71" d="M-80.6,254.9c-1.5-2.2-3.6-1.6-5.7-0.8
					C-84.5,255.4-82.5,256.4-80.6,254.9z"/>
			</g>
			<g id="path2808_5_">
				<path inkscape:connector-curvature="0" sodipodi:nodetypes="ccc" fill="#FFEE71" d="M-82.7,253c1.9-1.8,1.1-3.8,0-5.7
					C-83.7,249.2-84.5,251.3-82.7,253z"/>
			</g>
			<g id="path2814_5_">
				<path inkscape:connector-curvature="0" sodipodi:nodetypes="ccc" fill="#FFEE71" d="M-83.7,252.7c-1.1-2.4-3.3-2.2-5.4-1.8
					C-87.6,252.5-85.8,253.9-83.7,252.7z"/>
			</g>
			<g id="path2820_5_">
				<path inkscape:connector-curvature="0" sodipodi:nodetypes="ccc" fill="#FFEE71" d="M-85.4,250.4c2.2-1.4,1.7-3.5,1-5.6
					C-85.8,246.5-86.9,248.4-85.4,250.4z"/>
			</g>
			<g id="path2826_5_">
				<path inkscape:connector-curvature="0" sodipodi:nodetypes="ccc" fill="#FFEE71" d="M-86.2,250.1c-0.6-2.6-2.8-2.8-5-2.8
					C-90,249.1-88.6,250.8-86.2,250.1z"/>
			</g>
			<g id="path2832_5_">
				<path inkscape:connector-curvature="0" sodipodi:nodetypes="ccc" fill="#FFEE71" d="M-86.9,246.3c2.4-1.1,2.1-3.3,1.7-5.5
					C-86.7,242.4-88.1,244.2-86.9,246.3z"/>
			</g>
			<g id="path2838_5_">
				<path inkscape:connector-curvature="0" sodipodi:nodetypes="ccc" fill="#FFEE71" d="M-87.3,247.1c-0.3-2.6-2.4-3.1-4.6-3.4
					C-90.9,245.7-89.7,247.5-87.3,247.1z"/>
			</g>
			<g id="path2844_5_">
				<path inkscape:connector-curvature="0" sodipodi:nodetypes="ccc" fill="#FFEE71" d="M-87.9,242.1c2.6-0.6,2.8-2.8,2.9-5
					C-86.9,238.3-88.6,239.7-87.9,242.1z"/>
			</g>
			<g id="path2850_5_">
				<path inkscape:connector-curvature="0" sodipodi:nodetypes="ccc" fill="#FFEE71" d="M-88.4,244c0.7-2.5-1.1-3.8-3-4.9
					C-91.2,241.3-90.8,243.5-88.4,244z"/>
			</g>
			<g id="path2856_5_">
				<path inkscape:connector-curvature="0" sodipodi:nodetypes="ccc" fill="#FFEE71" d="M-86.9,237.1c2.6,0.1,3.5-1.9,4.1-4
					C-84.9,233.7-86.9,234.7-86.9,237.1L-86.9,237.1z"/>
			</g>
			<g id="path2862_5_">
				<path inkscape:connector-curvature="0" sodipodi:nodetypes="ccc" fill="#FFEE71" d="M-88.5,240c1.6-2.1,0.3-3.9-1.1-5.6
					C-90.3,236.4-90.6,238.6-88.5,240z"/>
			</g>
			<g id="path2868_5_">
				<path inkscape:connector-curvature="0" sodipodi:nodetypes="ccc" fill="#FFEE71" d="M-85.7,233.4c2.6-0.2,3.2-2.3,3.6-4.5
					C-84.1,229.8-86.1,231-85.7,233.4z"/>
			</g>
			<g id="path2874_5_">
				<path inkscape:connector-curvature="0" sodipodi:nodetypes="ccc" fill="#FFEE71" d="M-87.4,235.7c2-1.7,1.1-3.8,0.1-5.7
					C-88.4,231.9-89.2,234-87.4,235.7z"/>
			</g>
		</g>
		<g id="layer1_9_" transform="translate(91.8807,-228.748)" inkscape:label="Warstwa 1" inkscape:groupmode="layer">
			<g id="path1872-7_5_">
				<path inkscape:connector-curvature="0" sodipodi:nodetypes="ccc" fill="#FFEE71" d="M16.3,257.5c2.2-1.5,4-0.2,5.7,1.3
					C19.8,259.4,17.5,259.7,16.3,257.5z"/>
			</g>
			<g id="path2784-4_5_">
				<path inkscape:connector-curvature="0" sodipodi:nodetypes="ccc" fill="#FFEE71" d="M16.8,256.2c0.1-2.7,2.2-3.3,4.4-3.8
					C20.4,254.5,19.3,256.5,16.8,256.2z"/>
			</g>
			<g id="path2790-0_5_">
				<path inkscape:connector-curvature="0" sodipodi:nodetypes="ccc" fill="#FFEE71" d="M20.1,256.3c2-1.7,4-0.5,5.7,0.8
					C23.8,257.9,21.6,258.3,20.1,256.3z"/>
			</g>
			<g id="path2796-9_5_">
				<path inkscape:connector-curvature="0" sodipodi:nodetypes="ccc" fill="#FFEE71" d="M22,255c-1.3-2.3,0.2-4,1.9-5.5
					C24.3,251.7,24.3,254,22,255z"/>
			</g>
			<g id="path2802-4_5_">
				<path inkscape:connector-curvature="0" sodipodi:nodetypes="ccc" fill="#FFEE71" d="M23.7,255c1.5-2.2,3.7-1.6,5.8-0.8
					C27.7,255.5,25.6,256.6,23.7,255z"/>
			</g>
			<g id="path2808-8_5_">
				<path inkscape:connector-curvature="0" sodipodi:nodetypes="ccc" fill="#FFEE71" d="M25.8,253.1c-2-1.8-1.1-3.9,0-5.8
					C26.9,249.2,27.7,251.4,25.8,253.1z"/>
			</g>
			<g id="path2814-8_5_">
				<path inkscape:connector-curvature="0" sodipodi:nodetypes="ccc" fill="#FFEE71" d="M26.9,252.8c1.1-2.4,3.3-2.3,5.5-1.9
					C30.9,252.6,29.1,254,26.9,252.8z"/>
			</g>
			<g id="path2820-2_5_">
				<path inkscape:connector-curvature="0" sodipodi:nodetypes="ccc" fill="#FFEE71" d="M28.7,250.5c-2.3-1.4-1.8-3.6-1.1-5.7
					C29,246.5,30.1,248.5,28.7,250.5z"/>
			</g>
			<g id="path2826-4_5_">
				<path inkscape:connector-curvature="0" sodipodi:nodetypes="ccc" fill="#FFEE71" d="M29.4,250.2c0.6-2.6,2.8-2.8,5-2.9
					C33.3,249.2,31.8,250.9,29.4,250.2z"/>
			</g>
			<g id="path2832-5_5_">
				<path inkscape:connector-curvature="0" sodipodi:nodetypes="ccc" fill="#FFEE71" d="M30.1,246.4c-2.4-1.1-2.2-3.4-1.7-5.6
					C30,242.4,31.4,244.2,30.1,246.4z"/>
			</g>
			<g id="path2838-5_5_">
				<path inkscape:connector-curvature="0" sodipodi:nodetypes="ccc" fill="#FFEE71" d="M30.5,247.1c0.3-2.6,2.5-3.2,4.7-3.5
					C34.2,245.6,33,247.5,30.5,247.1z"/>
			</g>
			<g id="path2844-1_5_">
				<path inkscape:connector-curvature="0" sodipodi:nodetypes="ccc" fill="#FFEE71" d="M31.1,242c-2.6-0.6-2.9-2.8-2.9-5
					C30.1,238.2,31.8,239.6,31.1,242z"/>
			</g>
			<g id="path2850-7_5_">
				<path inkscape:connector-curvature="0" sodipodi:nodetypes="ccc" fill="#FFEE71" d="M31.6,244c-0.7-2.5,1.1-3.9,3-5
					C34.5,241.2,34.1,243.5,31.6,244z"/>
			</g>
			<g id="path2856-1_5_">
				<path inkscape:connector-curvature="0" sodipodi:nodetypes="ccc" fill="#FFEE71" d="M30.1,237c-2.6,0.1-3.5-1.9-4.1-4.1
					C28.1,233.6,30.2,234.5,30.1,237L30.1,237z"/>
			</g>
			<g id="path2862-1_5_">
				<path inkscape:connector-curvature="0" sodipodi:nodetypes="ccc" fill="#FFEE71" d="M31.8,239.9c-1.6-2.1-0.3-4,1.1-5.7
					C33.5,236.3,33.9,238.6,31.8,239.9z"/>
			</g>
			<g id="path2868-5_5_">
				<path inkscape:connector-curvature="0" sodipodi:nodetypes="ccc" fill="#FFEE71" d="M28.9,233.3c-2.6-0.2-3.3-2.3-3.7-4.5
					C27.3,229.6,29.3,230.8,28.9,233.3z"/>
			</g>
			<g id="path2874-2_5_">
				<path inkscape:connector-curvature="0" sodipodi:nodetypes="ccc" fill="#FFEE71" d="M30.6,235.5c-2-1.8-1.1-3.8-0.1-5.8
					C31.6,231.7,32.4,233.8,30.6,235.5z"/>
			</g>
		</g>
	</g>
</g>
<g id="Awards_8_">
	<g>
		<path fill="#FFEE71" d="M150.8,6.9c1.8,0,2.9,0.8,2.9,3c0,2.2-1.1,3-2.9,3h-1.2c-0.3,0-0.5-0.2-0.5-0.5V7.4c0-0.3,0.2-0.5,0.5-0.5
			H150.8z M150.2,11.9h0.7c1.1,0,1.8-0.5,1.8-2c0-1.5-0.7-2.1-1.8-2.1h-0.7V11.9z"/>
		<path fill="#FFEE71" d="M156.2,12.9c-1.2,0-1.9-0.7-1.9-2.1c0-1.4,0.7-2.1,1.9-2.1s1.9,0.7,1.9,2.1
			C158.1,12.2,157.4,12.9,156.2,12.9z M156.2,9.5c-0.6,0-1,0.4-1,1.3c0,0.9,0.3,1.3,1,1.3s1-0.4,1-1.3
			C157.1,9.9,156.8,9.5,156.2,9.5z"/>
		<path fill="#FFEE71" d="M159.7,9.2v2.1c0,0.4,0.1,0.8,0.8,0.8c0.6,0,0.8-0.4,0.8-0.8V9.2c0-0.3,0.2-0.5,0.5-0.5
			c0.3,0,0.5,0.2,0.5,0.5v2.1c0,0.9-0.3,1.7-1.7,1.7c-1.4,0-1.7-0.8-1.7-1.7V9.2c0-0.3,0.2-0.5,0.5-0.5
			C159.5,8.7,159.7,8.9,159.7,9.2z"/>
		<path fill="#FFEE71" d="M166.8,10.8c0,1.4-0.7,2.1-1.9,2.1c-1.1,0-1.8-0.6-1.8-1.8V7c0-0.3,0.2-0.5,0.5-0.5c0.3,0,0.5,0.2,0.5,0.5
			v2c0.2-0.2,0.5-0.4,1-0.4C166.1,8.7,166.8,9.4,166.8,10.8z M164,11.1c0,0.6,0.4,1,0.9,1c0.6,0,0.9-0.4,0.9-1.3
			c0-0.9-0.3-1.3-0.9-1.3c-0.5,0-0.9,0.4-0.9,0.4V11.1z"/>
		<path fill="#FFEE71" d="M168.4,7v4.8c0,0.1,0.1,0.2,0.2,0.2c0.2,0,0.4,0.2,0.4,0.4s-0.2,0.4-0.4,0.4c-0.7,0-1.1-0.4-1.1-1.1V7
			c0-0.3,0.2-0.5,0.5-0.5C168.2,6.5,168.4,6.7,168.4,7z"/>
		<path fill="#FFEE71" d="M171.3,8.7c1.5,0,1.8,1.1,1.8,1.8c0,0.3,0,0.7-0.5,0.7h-2.2c0,0.6,0.4,0.9,1,0.9c0.4,0,0.7-0.1,0.9-0.3
			c0.1-0.1,0.2-0.1,0.3-0.1c0.2,0,0.4,0.2,0.4,0.4c0,0.1-0.1,0.3-0.1,0.3c-0.2,0.1-0.6,0.5-1.4,0.5c-1.2,0-2-0.7-2-2.1
			C169.4,9.4,170.1,8.7,171.3,8.7z M170.3,10.3h1.7c0-0.4-0.2-0.9-0.8-0.9C170.8,9.5,170.4,9.8,170.3,10.3z"/>
		<path fill="#FFEE71" d="M176.8,12.4c0,0.3-0.2,0.5-0.5,0.5c-0.3,0-0.5-0.2-0.5-0.5v-5c0-0.3,0.2-0.5,0.5-0.5h2.7
			c0.3,0,0.5,0.2,0.5,0.5s-0.2,0.5-0.5,0.5h-2.2v1.6h1.7c0.2,0,0.4,0.2,0.4,0.4c0,0.2-0.2,0.4-0.4,0.4h-1.7V12.4z"/>
		<path fill="#FFEE71" d="M180,7.7c0-0.4,0.2-0.6,0.6-0.6c0.4,0,0.6,0.2,0.6,0.6c0,0.3-0.2,0.6-0.6,0.6C180.2,8.3,180,8,180,7.7z
			 M181,12.4c0,0.3-0.2,0.5-0.5,0.5c-0.3,0-0.5-0.2-0.5-0.5V9.2c0-0.3,0.2-0.5,0.5-0.5c0.3,0,0.5,0.2,0.5,0.5V12.4z"/>
		<path fill="#FFEE71" d="M185.5,10.2v2.2c0,0.3-0.2,0.5-0.5,0.5c-0.3,0-0.5-0.2-0.5-0.5v-2c0-0.5-0.2-0.8-0.8-0.8
			c-0.7,0-0.9,0.4-0.9,0.9v2c0,0.3-0.2,0.5-0.5,0.5c-0.3,0-0.5-0.2-0.5-0.5V9.2c0-0.3,0.2-0.5,0.5-0.5c0.3,0,0.5,0.2,0.5,0.5
			c0.2-0.3,0.5-0.5,1.1-0.5C185.2,8.7,185.5,9.4,185.5,10.2z"/>
		<path fill="#FFEE71" d="M188,8.7c1.5,0,1.8,1.1,1.8,1.8c0,0.3,0,0.7-0.5,0.7h-2.2c0,0.6,0.4,0.9,1,0.9c0.4,0,0.7-0.1,0.9-0.3
			c0.1-0.1,0.2-0.1,0.3-0.1c0.2,0,0.4,0.2,0.4,0.4c0,0.1-0.1,0.3-0.2,0.3c-0.1,0.1-0.6,0.5-1.4,0.5c-1.2,0-2-0.7-2-2.1
			C186.1,9.4,186.8,8.7,188,8.7z M187.1,10.3h1.7c0-0.4-0.2-0.9-0.8-0.9C187.5,9.5,187.1,9.8,187.1,10.3z"/>
		<path fill="#FFEE71" d="M194.5,11h-1.8c-0.2,0-0.4-0.2-0.4-0.4s0.2-0.4,0.4-0.4h1.8c0.2,0,0.4,0.2,0.4,0.4S194.8,11,194.5,11z"/>
		<path fill="#FFEE71" d="M199.5,6.9c1.8,0,2.9,0.8,2.9,3c0,2.2-1.1,3-2.9,3h-1.2c-0.3,0-0.5-0.2-0.5-0.5V7.4c0-0.3,0.2-0.5,0.5-0.5
			H199.5z M198.9,11.9h0.7c1.1,0,1.8-0.5,1.8-2c0-1.5-0.7-2.1-1.8-2.1h-0.7V11.9z"/>
		<path fill="#FFEE71" d="M203.8,9.9c-0.1,0.1-0.2,0.1-0.3,0.1c-0.2,0-0.4-0.2-0.4-0.4c0-0.1,0-0.2,0.1-0.3c0.2-0.3,0.7-0.6,1.4-0.6
			c1.1,0,1.7,0.5,1.7,1.5v2.3c0,0.3-0.2,0.5-0.5,0.5c-0.3,0-0.5-0.2-0.5-0.5c-0.2,0.4-0.6,0.5-1.2,0.5c-0.9,0-1.4-0.5-1.4-1.3
			c0-0.8,0.7-1.2,1.4-1.2h1.2v-0.2c0-0.4-0.3-0.7-0.8-0.7C204.3,9.5,204.1,9.7,203.8,9.9z M205.5,11.3v-0.2h-1
			c-0.4,0-0.6,0.2-0.6,0.5c0,0.3,0.2,0.5,0.7,0.5C205.1,12.1,205.5,11.8,205.5,11.3z"/>
		<path fill="#FFEE71" d="M208.4,12.5L207,9.4c0,0,0-0.1,0-0.2c0-0.3,0.2-0.5,0.5-0.5c0.3,0,0.4,0.2,0.4,0.3l1,2.4l1-2.4
			c0-0.1,0.2-0.3,0.4-0.3c0.3,0,0.5,0.2,0.5,0.5c0,0.1,0,0.1,0,0.2l-1.6,3.7c-0.4,0.9-0.9,1.5-1.8,1.5c-0.3,0-0.5-0.2-0.5-0.4
			s0.2-0.4,0.5-0.4C207.8,13.7,208.1,13.2,208.4,12.5z"/>
		<path fill="#FFEE71" d="M215,12.9c-1.2,0-1.9-0.7-1.9-2.1c0-1.4,0.7-2.1,1.9-2.1s1.9,0.7,1.9,2.1C216.9,12.2,216.2,12.9,215,12.9z
			 M215,9.5c-0.6,0-1,0.4-1,1.3c0,0.9,0.3,1.3,1,1.3c0.6,0,1-0.4,1-1.3C216,9.9,215.6,9.5,215,9.5z"/>
		<path fill="#FFEE71" d="M217.7,9.6c-0.2,0-0.4-0.2-0.4-0.4s0.2-0.4,0.4-0.4h0.2V8.3c0-0.8,0.5-1.6,1.7-1.6c0.2,0,0.4,0.2,0.4,0.4
			s-0.2,0.4-0.4,0.4c-0.5,0-0.7,0.3-0.7,0.7v0.5h0.6c0.2,0,0.4,0.2,0.4,0.4s-0.2,0.4-0.4,0.4h-0.6v2.8c0,0.3-0.2,0.5-0.5,0.5
			c-0.3,0-0.5-0.2-0.5-0.5V9.6H217.7z"/>
		<path fill="#FFEE71" d="M222.8,8.1c0-0.3,0.2-0.5,0.5-0.5c0.3,0,0.5,0.2,0.5,0.5v0.7h0.4c0.2,0,0.4,0.2,0.4,0.4s-0.2,0.4-0.4,0.4
			h-0.4v2.1c0,0.2,0.2,0.3,0.3,0.3c0.2,0,0.4,0.2,0.4,0.4s-0.2,0.4-0.4,0.4c-0.8,0-1.3-0.5-1.3-1.2V9.6h-0.2c-0.2,0-0.4-0.2-0.4-0.4
			s0.2-0.4,0.4-0.4h0.2V8.1z"/>
		<path fill="#FFEE71" d="M226.1,9.2c0.2-0.3,0.5-0.5,1.1-0.5c1.2,0,1.5,0.8,1.5,1.5v2.2c0,0.3-0.2,0.5-0.5,0.5
			c-0.3,0-0.5-0.2-0.5-0.5v-2c0-0.5-0.2-0.8-0.8-0.8c-0.7,0-0.9,0.4-0.9,0.9v2c0,0.3-0.2,0.5-0.5,0.5c-0.3,0-0.5-0.2-0.5-0.5V7
			c0-0.3,0.2-0.5,0.5-0.5c0.3,0,0.5,0.2,0.5,0.5V9.2z"/>
		<path fill="#FFEE71" d="M231.3,8.7c1.5,0,1.8,1.1,1.8,1.8c0,0.3,0,0.7-0.5,0.7h-2.2c0,0.6,0.4,0.9,1,0.9c0.4,0,0.7-0.1,0.9-0.3
			c0.1-0.1,0.2-0.1,0.3-0.1c0.2,0,0.4,0.2,0.4,0.4c0,0.1-0.1,0.3-0.1,0.3c-0.2,0.1-0.6,0.5-1.4,0.5c-1.2,0-2-0.7-2-2.1
			C229.4,9.4,230.1,8.7,231.3,8.7z M230.4,10.3h1.7c0-0.4-0.2-0.9-0.8-0.9C230.8,9.5,230.4,9.8,230.4,10.3z"/>
		<path fill="#FFEE71" d="M237.5,6.9c1.8,0,2.9,0.8,2.9,3c0,2.2-1.1,3-2.9,3h-1.2c-0.3,0-0.5-0.2-0.5-0.5V7.4c0-0.3,0.2-0.5,0.5-0.5
			H237.5z M236.8,11.9h0.7c1.1,0,1.8-0.5,1.8-2c0-1.5-0.7-2.1-1.8-2.1h-0.7V11.9z"/>
		<path fill="#FFEE71" d="M242.8,8.7c1.5,0,1.8,1.1,1.8,1.8c0,0.3,0,0.7-0.5,0.7h-2.2c0,0.6,0.4,0.9,1,0.9c0.4,0,0.7-0.1,0.9-0.3
			c0.1-0.1,0.2-0.1,0.3-0.1c0.2,0,0.4,0.2,0.4,0.4c0,0.1-0.1,0.3-0.1,0.3c-0.2,0.1-0.6,0.5-1.4,0.5c-1.2,0-2-0.7-2-2.1
			C240.9,9.4,241.6,8.7,242.8,8.7z M241.9,10.3h1.7c0-0.4-0.2-0.9-0.8-0.9C242.3,9.5,241.9,9.8,241.9,10.3z"/>
		<path fill="#FFEE71" d="M246.3,12.6l-1.4-3.2c0,0,0-0.1,0-0.2c0-0.3,0.2-0.5,0.5-0.5c0.3,0,0.4,0.2,0.4,0.3l1,2.4l1-2.4
			c0-0.1,0.2-0.3,0.4-0.3c0.3,0,0.5,0.2,0.5,0.5c0,0.1,0,0.1,0,0.2l-1.4,3.2c-0.1,0.2-0.2,0.3-0.4,0.3
			C246.6,12.9,246.4,12.8,246.3,12.6z"/>
		<path fill="#FFEE71" d="M250.1,9.8c0,0.7,2.2,0.4,2.2,1.8c0,0.8-0.7,1.2-1.6,1.2c-0.8,0-1.3-0.3-1.6-0.6c-0.1-0.1-0.1-0.2-0.1-0.3
			c0-0.2,0.2-0.4,0.4-0.4c0.1,0,0.2,0,0.3,0.1c0.2,0.2,0.5,0.4,1,0.4c0.4,0,0.7-0.1,0.7-0.4c0-0.7-2.2-0.3-2.2-1.8
			c0-0.8,0.7-1.2,1.5-1.2c0.6,0,1.2,0.2,1.4,0.5c0.1,0.1,0.1,0.1,0.1,0.3c0,0.2-0.2,0.4-0.4,0.4c-0.1,0-0.2-0.1-0.3-0.1
			c-0.2-0.1-0.4-0.3-0.8-0.3C250.3,9.5,250.1,9.6,250.1,9.8z"/>
		<path fill="#FFEE71" d="M167.9,21.1c0-2.3,1.1-3.4,3-3.4c1.9,0,3,1.1,3,3.4c0,2.2-1.1,3.4-3,3.4C169,24.5,167.9,23.3,167.9,21.1z
			 M169.1,21.1c0,1.6,0.6,2.4,1.9,2.4s1.9-0.8,1.9-2.4c0-1.6-0.6-2.4-1.9-2.4S169.1,19.5,169.1,21.1z"/>
		<path fill="#FFEE71" d="M181.9,23.9c0,0.3-0.2,0.5-0.5,0.5s-0.5-0.2-0.5-0.5v-3.1h-1.7v3.1c0,0.3-0.2,0.5-0.5,0.5
			c-0.3,0-0.5-0.2-0.5-0.5v-3.1h-1.9v3.1c0,0.3-0.2,0.5-0.5,0.5c-0.3,0-0.5-0.2-0.5-0.5v-3.1h-0.2c-0.2,0-0.4-0.2-0.4-0.4
			s0.2-0.4,0.4-0.4h0.2v-0.5c0-0.9,0.6-1.7,1.8-1.7c0.2,0,0.5,0.2,0.5,0.5c0,0.2-0.2,0.5-0.5,0.5c-0.5,0-0.8,0.3-0.8,0.7V20h1.9
			v-0.5c0-0.9,0.7-1.8,1.9-1.8c0.4,0,0.9,0.1,1.1,0.2c0.2,0.1,0.3,0.2,0.3,0.4c0,0.3-0.2,0.5-0.5,0.5c-0.1,0-0.1,0-0.2-0.1
			c-0.2-0.1-0.4-0.1-0.6-0.1c-0.5,0-0.9,0.3-0.9,0.7V20h2.2c0.3,0,0.5,0.2,0.5,0.5V23.9z"/>
		<path fill="#FFEE71" d="M184.7,19.8c0.9,0,1.4,0.4,1.6,0.7c0.1,0.1,0.1,0.2,0.1,0.3c0,0.3-0.2,0.5-0.5,0.5c-0.2,0-0.3-0.1-0.4-0.2
			c-0.1-0.1-0.4-0.4-0.9-0.4c-0.7,0-1,0.5-1,1.4c0,0.9,0.4,1.4,1,1.4c0.4,0,0.7-0.2,1-0.4c0.1-0.1,0.2-0.1,0.3-0.1
			c0.3,0,0.5,0.2,0.5,0.5c0,0.1,0,0.2-0.2,0.4c-0.2,0.2-0.8,0.5-1.5,0.5c-1.3,0-2.1-0.8-2.1-2.3S183.4,19.8,184.7,19.8z"/>
		<path fill="#FFEE71" d="M187.1,18.8c0-0.4,0.2-0.6,0.6-0.6c0.4,0,0.6,0.2,0.6,0.6c0,0.4-0.2,0.6-0.6,0.6
			C187.3,19.4,187.1,19.1,187.1,18.8z M188.2,23.9c0,0.3-0.2,0.5-0.5,0.5c-0.3,0-0.5-0.2-0.5-0.5v-3.5c0-0.3,0.2-0.5,0.5-0.5
			c0.3,0,0.5,0.2,0.5,0.5V23.9z"/>
		<path fill="#FFEE71" d="M190,21.1c-0.1,0.1-0.2,0.1-0.3,0.1c-0.2,0-0.5-0.2-0.5-0.5c0-0.1,0-0.2,0.1-0.3c0.3-0.3,0.7-0.6,1.6-0.6
			c1.2,0,1.9,0.6,1.9,1.6v2.5c0,0.3-0.2,0.5-0.5,0.5c-0.3,0-0.5-0.2-0.5-0.5c-0.3,0.4-0.7,0.6-1.3,0.6c-0.9,0-1.6-0.6-1.6-1.5
			c0-0.9,0.7-1.4,1.6-1.4h1.3v-0.2c0-0.4-0.3-0.7-0.9-0.7C190.5,20.8,190.2,20.9,190,21.1z M191.8,22.7v-0.3h-1.1
			c-0.4,0-0.7,0.2-0.7,0.5c0,0.4,0.3,0.6,0.8,0.6C191.3,23.6,191.8,23.3,191.8,22.7z"/>
		<path fill="#FFEE71" d="M194.8,18v5.3c0,0.1,0.1,0.2,0.2,0.2c0.3,0,0.5,0.2,0.5,0.5s-0.2,0.5-0.5,0.5c-0.8,0-1.2-0.4-1.2-1.2V18
			c0-0.3,0.2-0.5,0.5-0.5C194.6,17.5,194.8,17.7,194.8,18z"/>
		<path fill="#FFEE71" d="M200.5,18.7c-0.8,0-1.1,0.4-1.1,0.8c0,1.3,3.5,0.7,3.5,3.1c0,1.2-0.8,1.9-2.4,1.9c-1.1,0-2.1-0.6-2.4-1.2
			c0-0.1-0.1-0.2-0.1-0.3c0-0.3,0.2-0.5,0.5-0.5c0.2,0,0.3,0.1,0.4,0.2c0.4,0.4,0.9,0.7,1.6,0.7c0.9,0,1.3-0.3,1.3-0.9
			c0-1.4-3.5-0.8-3.5-3.1c0-1,0.7-1.8,2.2-1.8c1,0,1.8,0.4,2.2,0.9c0.1,0.1,0.1,0.2,0.1,0.3c0,0.3-0.2,0.5-0.5,0.5
			c-0.1,0-0.3-0.1-0.4-0.2C201.6,18.9,201.1,18.7,200.5,18.7z"/>
		<path fill="#FFEE71" d="M205.6,19.8c1.6,0,1.9,1.2,1.9,1.9c0,0.4,0,0.8-0.6,0.8h-2.4c0,0.7,0.5,1,1.1,1c0.4,0,0.7-0.1,1-0.3
			c0.1-0.1,0.2-0.1,0.3-0.1c0.2,0,0.5,0.2,0.5,0.5c0,0.2-0.1,0.3-0.2,0.4c-0.2,0.2-0.7,0.5-1.5,0.5c-1.3,0-2.2-0.7-2.2-2.3
			C203.6,20.7,204.3,19.8,205.6,19.8z M204.6,21.6h1.9c0-0.5-0.3-0.9-0.9-0.9C205.1,20.7,204.7,21,204.6,21.6z"/>
		<path fill="#FFEE71" d="M209.4,18v5.3c0,0.1,0.1,0.2,0.2,0.2c0.3,0,0.5,0.2,0.5,0.5s-0.2,0.5-0.5,0.5c-0.8,0-1.2-0.4-1.2-1.2V18
			c0-0.3,0.2-0.5,0.5-0.5C209.1,17.5,209.4,17.7,209.4,18z"/>
		<path fill="#FFEE71" d="M212.5,19.8c1.6,0,1.9,1.2,1.9,1.9c0,0.4,0,0.8-0.6,0.8h-2.4c0,0.7,0.5,1,1.1,1c0.4,0,0.7-0.1,1-0.3
			c0.1-0.1,0.2-0.1,0.3-0.1c0.2,0,0.5,0.2,0.5,0.5c0,0.2-0.1,0.3-0.2,0.4c-0.2,0.2-0.7,0.5-1.5,0.5c-1.3,0-2.2-0.7-2.2-2.3
			C210.4,20.7,211.2,19.8,212.5,19.8z M211.5,21.6h1.9c0-0.5-0.3-0.9-0.9-0.9C211.9,20.7,211.5,21,211.5,21.6z"/>
		<path fill="#FFEE71" d="M217,19.8c0.9,0,1.4,0.4,1.6,0.7c0.1,0.1,0.1,0.2,0.1,0.3c0,0.3-0.2,0.5-0.5,0.5c-0.2,0-0.3-0.1-0.4-0.2
			c-0.1-0.1-0.4-0.4-0.9-0.4c-0.7,0-1,0.5-1,1.4c0,0.9,0.4,1.4,1,1.4c0.4,0,0.7-0.2,1-0.4c0.1-0.1,0.2-0.1,0.3-0.1
			c0.3,0,0.5,0.2,0.5,0.5c0,0.1,0,0.2-0.2,0.4c-0.2,0.2-0.8,0.5-1.5,0.5c-1.3,0-2.1-0.8-2.1-2.3S215.7,19.8,217,19.8z"/>
		<path fill="#FFEE71" d="M219.8,19.2c0-0.3,0.2-0.5,0.5-0.5c0.3,0,0.5,0.2,0.5,0.5V20h0.4c0.2,0,0.4,0.2,0.4,0.4s-0.2,0.4-0.4,0.4
			h-0.4v2.3c0,0.2,0.2,0.3,0.4,0.3c0.2,0,0.5,0.2,0.5,0.5s-0.2,0.5-0.5,0.5c-0.9,0-1.4-0.5-1.4-1.3v-2.3h-0.2
			c-0.2,0-0.4-0.2-0.4-0.4s0.2-0.4,0.4-0.4h0.2V19.2z"/>
		<path fill="#FFEE71" d="M222.4,18.8c0-0.4,0.2-0.6,0.6-0.6c0.4,0,0.6,0.2,0.6,0.6c0,0.4-0.2,0.6-0.6,0.6
			C222.6,19.4,222.4,19.1,222.4,18.8z M223.5,23.9c0,0.3-0.2,0.5-0.5,0.5c-0.3,0-0.5-0.2-0.5-0.5v-3.5c0-0.3,0.2-0.5,0.5-0.5
			c0.3,0,0.5,0.2,0.5,0.5V23.9z"/>
		<path fill="#FFEE71" d="M226.4,24.5c-1.3,0-2.1-0.7-2.1-2.3c0-1.6,0.8-2.3,2.1-2.3c1.3,0,2.1,0.7,2.1,2.3
			C228.5,23.7,227.7,24.5,226.4,24.5z M226.4,20.7c-0.7,0-1.1,0.5-1.1,1.4c0,0.9,0.4,1.4,1.1,1.4c0.7,0,1.1-0.5,1.1-1.4
			C227.4,21.2,227,20.7,226.4,20.7z"/>
		<path fill="#FFEE71" d="M233.1,21.5v2.4c0,0.3-0.2,0.5-0.5,0.5c-0.3,0-0.5-0.2-0.5-0.5v-2.2c0-0.5-0.2-0.9-0.8-0.9
			c-0.7,0-1,0.4-1,1v2.1c0,0.3-0.2,0.5-0.5,0.5c-0.3,0-0.5-0.2-0.5-0.5v-3.5c0-0.3,0.2-0.5,0.5-0.5c0.3,0,0.5,0.2,0.5,0.5
			c0.2-0.3,0.6-0.6,1.2-0.6C232.8,19.8,233.1,20.7,233.1,21.5z"/>
	</g>
	<g id="Laurels_16_">
		<g id="layer1_8_" transform="translate(91.8807,-228.748)" inkscape:label="Warstwa 1" inkscape:groupmode="layer">
			<g id="path1872_4_">
				<path inkscape:connector-curvature="0" sodipodi:nodetypes="ccc" fill="#FFEE71" d="M64.4,257.4c-2.2-1.5-3.9-0.2-5.6,1.3
					C61,259.2,63.2,259.5,64.4,257.4z"/>
			</g>
			<g id="path2784_4_">
				<path inkscape:connector-curvature="0" sodipodi:nodetypes="ccc" fill="#FFEE71" d="M63.9,256.1c-0.1-2.6-2.2-3.3-4.4-3.7
					C60.3,254.4,61.5,256.4,63.9,256.1z"/>
			</g>
			<g id="path2790_4_">
				<path inkscape:connector-curvature="0" sodipodi:nodetypes="ccc" fill="#FFEE71" d="M60.6,256.2c-2-1.7-3.9-0.5-5.7,0.8
					C57,257.7,59.2,258.2,60.6,256.2z"/>
			</g>
			<g id="path2796_4_">
				<path inkscape:connector-curvature="0" sodipodi:nodetypes="ccc" fill="#FFEE71" d="M58.7,254.9c1.3-2.3-0.2-3.9-1.8-5.4
					C56.5,251.7,56.5,253.9,58.7,254.9z"/>
			</g>
			<g id="path2802_4_">
				<path inkscape:connector-curvature="0" sodipodi:nodetypes="ccc" fill="#FFEE71" d="M57.1,254.9c-1.5-2.2-3.6-1.6-5.7-0.8
					C53.2,255.4,55.2,256.4,57.1,254.9z"/>
			</g>
			<g id="path2808_4_">
				<path inkscape:connector-curvature="0" sodipodi:nodetypes="ccc" fill="#FFEE71" d="M55,253c1.9-1.8,1.1-3.8,0-5.7
					C53.9,249.2,53.2,251.3,55,253z"/>
			</g>
			<g id="path2814_4_">
				<path inkscape:connector-curvature="0" sodipodi:nodetypes="ccc" fill="#FFEE71" d="M53.9,252.7c-1.1-2.4-3.3-2.2-5.4-1.8
					C50,252.5,51.8,253.9,53.9,252.7z"/>
			</g>
			<g id="path2820_4_">
				<path inkscape:connector-curvature="0" sodipodi:nodetypes="ccc" fill="#FFEE71" d="M52.2,250.4c2.2-1.4,1.7-3.5,1-5.6
					C51.9,246.5,50.7,248.4,52.2,250.4z"/>
			</g>
			<g id="path2826_4_">
				<path inkscape:connector-curvature="0" sodipodi:nodetypes="ccc" fill="#FFEE71" d="M51.4,250.1c-0.6-2.6-2.8-2.8-5-2.8
					C47.6,249.1,49.1,250.8,51.4,250.1z"/>
			</g>
			<g id="path2832_4_">
				<path inkscape:connector-curvature="0" sodipodi:nodetypes="ccc" fill="#FFEE71" d="M50.8,246.3c2.4-1.1,2.1-3.3,1.7-5.5
					C50.9,242.4,49.5,244.2,50.8,246.3z"/>
			</g>
			<g id="path2838_4_">
				<path inkscape:connector-curvature="0" sodipodi:nodetypes="ccc" fill="#FFEE71" d="M50.4,247.1c-0.3-2.6-2.4-3.1-4.6-3.4
					C46.7,245.7,47.9,247.5,50.4,247.1z"/>
			</g>
			<g id="path2844_4_">
				<path inkscape:connector-curvature="0" sodipodi:nodetypes="ccc" fill="#FFEE71" d="M49.8,242.1c2.6-0.6,2.8-2.8,2.9-5
					C50.8,238.3,49,239.7,49.8,242.1z"/>
			</g>
			<g id="path2850_4_">
				<path inkscape:connector-curvature="0" sodipodi:nodetypes="ccc" fill="#FFEE71" d="M49.3,244c0.7-2.5-1.1-3.8-3-4.9
					C46.4,241.3,46.9,243.5,49.3,244z"/>
			</g>
			<g id="path2856_4_">
				<path inkscape:connector-curvature="0" sodipodi:nodetypes="ccc" fill="#FFEE71" d="M50.8,237.1c2.6,0.1,3.5-1.9,4.1-4
					C52.7,233.7,50.7,234.7,50.8,237.1L50.8,237.1z"/>
			</g>
			<g id="path2862_4_">
				<path inkscape:connector-curvature="0" sodipodi:nodetypes="ccc" fill="#FFEE71" d="M49.1,240c1.6-2.1,0.3-3.9-1.1-5.6
					C47.4,236.4,47,238.6,49.1,240z"/>
			</g>
			<g id="path2868_4_">
				<path inkscape:connector-curvature="0" sodipodi:nodetypes="ccc" fill="#FFEE71" d="M51.9,233.4c2.6-0.2,3.2-2.3,3.6-4.5
					C53.5,229.8,51.6,231,51.9,233.4z"/>
			</g>
			<g id="path2874_4_">
				<path inkscape:connector-curvature="0" sodipodi:nodetypes="ccc" fill="#FFEE71" d="M50.2,235.7c2-1.7,1.1-3.8,0.1-5.7
					C49.3,231.9,48.5,234,50.2,235.7z"/>
			</g>
		</g>
		<g id="layer1_7_" transform="translate(91.8807,-228.748)" inkscape:label="Warstwa 1" inkscape:groupmode="layer">
			<g id="path1872-7_4_">
				<path inkscape:connector-curvature="0" sodipodi:nodetypes="ccc" fill="#FFEE71" d="M153.9,257.5c2.2-1.5,4-0.2,5.7,1.3
					C157.4,259.4,155.1,259.7,153.9,257.5z"/>
			</g>
			<g id="path2784-4_4_">
				<path inkscape:connector-curvature="0" sodipodi:nodetypes="ccc" fill="#FFEE71" d="M154.4,256.2c0.1-2.7,2.2-3.3,4.4-3.8
					C158,254.5,156.9,256.5,154.4,256.2z"/>
			</g>
			<g id="path2790-0_4_">
				<path inkscape:connector-curvature="0" sodipodi:nodetypes="ccc" fill="#FFEE71" d="M157.8,256.3c2-1.7,4-0.5,5.7,0.8
					C161.4,257.9,159.2,258.3,157.8,256.3z"/>
			</g>
			<g id="path2796-9_4_">
				<path inkscape:connector-curvature="0" sodipodi:nodetypes="ccc" fill="#FFEE71" d="M159.7,255c-1.3-2.3,0.2-4,1.9-5.5
					C161.9,251.7,162,254,159.7,255z"/>
			</g>
			<g id="path2802-4_4_">
				<path inkscape:connector-curvature="0" sodipodi:nodetypes="ccc" fill="#FFEE71" d="M161.3,255c1.5-2.2,3.7-1.6,5.8-0.8
					C165.3,255.5,163.3,256.6,161.3,255z"/>
			</g>
			<g id="path2808-8_4_">
				<path inkscape:connector-curvature="0" sodipodi:nodetypes="ccc" fill="#FFEE71" d="M163.5,253.1c-2-1.8-1.1-3.9,0-5.8
					C164.5,249.2,165.3,251.4,163.5,253.1z"/>
			</g>
			<g id="path2814-8_4_">
				<path inkscape:connector-curvature="0" sodipodi:nodetypes="ccc" fill="#FFEE71" d="M164.5,252.8c1.1-2.4,3.3-2.3,5.5-1.9
					C168.5,252.6,166.7,254,164.5,252.8z"/>
			</g>
			<g id="path2820-2_4_">
				<path inkscape:connector-curvature="0" sodipodi:nodetypes="ccc" fill="#FFEE71" d="M166.3,250.5c-2.3-1.4-1.8-3.6-1.1-5.7
					C166.6,246.5,167.8,248.5,166.3,250.5z"/>
			</g>
			<g id="path2826-4_4_">
				<path inkscape:connector-curvature="0" sodipodi:nodetypes="ccc" fill="#FFEE71" d="M167.1,250.2c0.6-2.6,2.8-2.8,5-2.9
					C170.9,249.2,169.4,250.9,167.1,250.2z"/>
			</g>
			<g id="path2832-5_4_">
				<path inkscape:connector-curvature="0" sodipodi:nodetypes="ccc" fill="#FFEE71" d="M167.7,246.4c-2.4-1.1-2.2-3.4-1.7-5.6
					C167.6,242.4,169,244.2,167.7,246.4z"/>
			</g>
			<g id="path2838-5_4_">
				<path inkscape:connector-curvature="0" sodipodi:nodetypes="ccc" fill="#FFEE71" d="M168.1,247.1c0.3-2.6,2.5-3.2,4.7-3.5
					C171.9,245.6,170.6,247.5,168.1,247.1z"/>
			</g>
			<g id="path2844-1_4_">
				<path inkscape:connector-curvature="0" sodipodi:nodetypes="ccc" fill="#FFEE71" d="M168.7,242c-2.6-0.6-2.9-2.8-2.9-5
					C167.7,238.2,169.5,239.6,168.7,242z"/>
			</g>
			<g id="path2850-7_4_">
				<path inkscape:connector-curvature="0" sodipodi:nodetypes="ccc" fill="#FFEE71" d="M169.3,244c-0.7-2.5,1.1-3.9,3-5
					C172.1,241.2,171.7,243.5,169.3,244z"/>
			</g>
			<g id="path2856-1_4_">
				<path inkscape:connector-curvature="0" sodipodi:nodetypes="ccc" fill="#FFEE71" d="M167.7,237c-2.6,0.1-3.5-1.9-4.1-4.1
					C165.7,233.6,167.8,234.5,167.7,237L167.7,237z"/>
			</g>
			<g id="path2862-1_4_">
				<path inkscape:connector-curvature="0" sodipodi:nodetypes="ccc" fill="#FFEE71" d="M169.4,239.9c-1.6-2.1-0.3-4,1.1-5.7
					C171.2,236.3,171.5,238.6,169.4,239.9z"/>
			</g>
			<g id="path2868-5_4_">
				<path inkscape:connector-curvature="0" sodipodi:nodetypes="ccc" fill="#FFEE71" d="M166.6,233.3c-2.6-0.2-3.3-2.3-3.7-4.5
					C165,229.6,166.9,230.8,166.6,233.3z"/>
			</g>
			<g id="path2874-2_4_">
				<path inkscape:connector-curvature="0" sodipodi:nodetypes="ccc" fill="#FFEE71" d="M168.3,235.5c-2-1.8-1.1-3.8-0.1-5.8
					C169.2,231.7,170,233.8,168.3,235.5z"/>
			</g>
		</g>
	</g>
</g>
<g id="Awards_7_">
	<g>
		<path fill="#FFEE71" d="M563.3,11.6l-1.4-2.5v3.2c0,0.3-0.2,0.5-0.5,0.5c-0.3,0-0.5-0.2-0.5-0.5V7.3c0-0.3,0.2-0.5,0.5-0.5
			c0.2,0,0.4,0.1,0.4,0.3l1.9,3.3l1.9-3.3c0.1-0.2,0.2-0.3,0.4-0.3c0.3,0,0.5,0.2,0.5,0.5v5.1c0,0.3-0.2,0.5-0.5,0.5
			c-0.3,0-0.5-0.2-0.5-0.5V9.2l-1.4,2.5c-0.1,0.2-0.3,0.2-0.4,0.2C563.6,11.9,563.4,11.8,563.3,11.6z"/>
		<path fill="#FFEE71" d="M569.3,12.9c-1.2,0-1.9-0.7-1.9-2.1c0-1.4,0.7-2.1,1.9-2.1s1.9,0.7,1.9,2.1
			C571.2,12.2,570.5,12.9,569.3,12.9z M569.3,9.5c-0.6,0-1,0.4-1,1.3c0,0.9,0.3,1.3,1,1.3c0.6,0,1-0.4,1-1.3
			C570.3,9.9,569.9,9.5,569.3,9.5z"/>
		<path fill="#FFEE71" d="M575.5,10.2v2.2c0,0.3-0.2,0.5-0.5,0.5c-0.3,0-0.5-0.2-0.5-0.5v-2c0-0.5-0.2-0.8-0.8-0.8
			c-0.7,0-0.9,0.4-0.9,0.9v2c0,0.3-0.2,0.5-0.5,0.5c-0.3,0-0.5-0.2-0.5-0.5V9.2c0-0.3,0.2-0.5,0.5-0.5c0.3,0,0.5,0.2,0.5,0.5
			c0.2-0.3,0.5-0.5,1.1-0.5C575.2,8.7,575.5,9.4,575.5,10.2z"/>
		<path fill="#FFEE71" d="M576.6,8.1c0-0.3,0.2-0.5,0.5-0.5c0.3,0,0.5,0.2,0.5,0.5v0.7h0.4c0.2,0,0.4,0.2,0.4,0.4s-0.2,0.4-0.4,0.4
			h-0.4v2.1c0,0.2,0.2,0.3,0.3,0.3c0.2,0,0.4,0.2,0.4,0.4s-0.2,0.4-0.4,0.4c-0.8,0-1.3-0.5-1.3-1.2V9.6h-0.2c-0.2,0-0.4-0.2-0.4-0.4
			s0.2-0.4,0.4-0.4h0.2V8.1z"/>
		<path fill="#FFEE71" d="M580,9.2c0.2-0.3,0.6-0.6,1-0.6c0.2,0,0.4,0.2,0.4,0.4s-0.2,0.4-0.4,0.4c-0.6,0-1,0.4-1,1v1.8
			c0,0.3-0.2,0.5-0.5,0.5c-0.3,0-0.5-0.2-0.5-0.5V9.2c0-0.3,0.2-0.5,0.5-0.5C579.7,8.7,580,8.9,580,9.2L580,9.2z"/>
		<path fill="#FFEE71" d="M583.5,8.7c1.5,0,1.8,1.1,1.8,1.8c0,0.3,0,0.7-0.5,0.7h-2.2c0,0.6,0.4,0.9,1,0.9c0.4,0,0.7-0.1,0.9-0.3
			c0.1-0.1,0.2-0.1,0.3-0.1c0.2,0,0.4,0.2,0.4,0.4c0,0.1-0.1,0.3-0.2,0.3c-0.1,0.1-0.6,0.5-1.4,0.5c-1.2,0-2-0.7-2-2.1
			C581.6,9.4,582.3,8.7,583.5,8.7z M582.6,10.3h1.7c0-0.4-0.2-0.9-0.8-0.9C583,9.5,582.6,9.8,582.6,10.3z"/>
		<path fill="#FFEE71" d="M586.6,9.9c-0.1,0.1-0.2,0.1-0.3,0.1c-0.2,0-0.4-0.2-0.4-0.4c0-0.1,0-0.2,0.1-0.3c0.2-0.3,0.7-0.6,1.4-0.6
			c1.1,0,1.7,0.5,1.7,1.5v2.3c0,0.3-0.2,0.5-0.5,0.5c-0.3,0-0.5-0.2-0.5-0.5c-0.2,0.4-0.6,0.5-1.2,0.5c-0.9,0-1.4-0.5-1.4-1.3
			c0-0.8,0.7-1.2,1.4-1.2h1.2v-0.2c0-0.4-0.3-0.7-0.8-0.7C587.1,9.5,586.8,9.7,586.6,9.9z M588.3,11.3v-0.2h-1
			c-0.4,0-0.6,0.2-0.6,0.5c0,0.3,0.2,0.5,0.7,0.5C587.9,12.1,588.3,11.8,588.3,11.3z"/>
		<path fill="#FFEE71" d="M591.1,7v4.8c0,0.1,0.1,0.2,0.2,0.2c0.2,0,0.4,0.2,0.4,0.4s-0.2,0.4-0.4,0.4c-0.7,0-1.1-0.4-1.1-1.1V7
			c0-0.3,0.2-0.5,0.5-0.5C590.9,6.5,591.1,6.7,591.1,7z"/>
		<path fill="#FFEE71" d="M595.3,12.4c0,0.3-0.2,0.5-0.5,0.5c-0.3,0-0.5-0.2-0.5-0.5v-5c0-0.3,0.2-0.5,0.5-0.5
			c0.3,0,0.5,0.2,0.5,0.5V12.4z"/>
		<path fill="#FFEE71" d="M599.8,10.2v2.2c0,0.3-0.2,0.5-0.5,0.5c-0.3,0-0.5-0.2-0.5-0.5v-2c0-0.5-0.2-0.8-0.8-0.8
			c-0.7,0-0.9,0.4-0.9,0.9v2c0,0.3-0.2,0.5-0.5,0.5c-0.3,0-0.5-0.2-0.5-0.5V9.2c0-0.3,0.2-0.5,0.5-0.5c0.3,0,0.5,0.2,0.5,0.5
			c0.2-0.3,0.5-0.5,1.1-0.5C599.6,8.7,599.8,9.4,599.8,10.2z"/>
		<path fill="#FFEE71" d="M603.3,9V7c0-0.3,0.2-0.5,0.5-0.5c0.3,0,0.5,0.2,0.5,0.5v4.1c0,1.2-0.8,1.8-1.8,1.8
			c-1.2,0-1.9-0.7-1.9-2.1s0.7-2.1,1.8-2.1C602.7,8.7,603.1,8.8,603.3,9z M603.3,9.9c0,0-0.3-0.4-0.9-0.4c-0.6,0-0.9,0.4-0.9,1.3
			c0,0.9,0.3,1.3,0.9,1.3c0.5,0,0.9-0.3,0.9-1V9.9z"/>
		<path fill="#FFEE71" d="M605,7.7c0-0.4,0.2-0.6,0.6-0.6c0.4,0,0.6,0.2,0.6,0.6c0,0.3-0.2,0.6-0.6,0.6C605.2,8.3,605,8,605,7.7z
			 M606,12.4c0,0.3-0.2,0.5-0.5,0.5c-0.3,0-0.5-0.2-0.5-0.5V9.2c0-0.3,0.2-0.5,0.5-0.5c0.3,0,0.5,0.2,0.5,0.5V12.4z"/>
		<path fill="#FFEE71" d="M608.7,8.7c1.5,0,1.8,1.1,1.8,1.8c0,0.3,0,0.7-0.5,0.7h-2.2c0,0.6,0.4,0.9,1,0.9c0.4,0,0.7-0.1,0.9-0.3
			c0.1-0.1,0.2-0.1,0.3-0.1c0.2,0,0.4,0.2,0.4,0.4c0,0.1-0.1,0.3-0.2,0.3c-0.1,0.1-0.6,0.5-1.4,0.5c-1.2,0-2-0.7-2-2.1
			C606.7,9.4,607.5,8.7,608.7,8.7z M607.7,10.3h1.7c0-0.4-0.2-0.9-0.8-0.9C608.1,9.5,607.8,9.8,607.7,10.3z"/>
		<path fill="#FFEE71" d="M617.1,10.5h-1.2c-0.2,0-0.4-0.2-0.4-0.4s0.2-0.4,0.4-0.4h1.7c0.2,0,0.5,0.2,0.5,0.5v1.4
			c0,0.2,0,0.3-0.2,0.5c-0.4,0.6-1.4,1-2.3,1c-1.8,0-2.8-0.9-2.8-3.1c0-2.1,1-3.1,2.8-3.1c1.1,0,1.8,0.4,2.1,1
			c0.1,0.1,0.1,0.2,0.1,0.3c0,0.3-0.2,0.5-0.5,0.5c-0.1,0-0.2-0.1-0.4-0.2c-0.4-0.4-0.7-0.6-1.4-0.6c-1.2,0-1.7,0.7-1.7,2.2
			c0,1.5,0.5,2.2,1.7,2.2c0.7,0,1.1-0.1,1.5-0.5V10.5z"/>
		<path fill="#FFEE71" d="M619.7,9.9c-0.1,0.1-0.2,0.1-0.3,0.1c-0.2,0-0.4-0.2-0.4-0.4c0-0.1,0-0.2,0.1-0.3c0.2-0.3,0.7-0.6,1.4-0.6
			c1.1,0,1.7,0.5,1.7,1.5v2.3c0,0.3-0.2,0.5-0.5,0.5c-0.3,0-0.5-0.2-0.5-0.5c-0.2,0.4-0.6,0.5-1.2,0.5c-0.9,0-1.4-0.5-1.4-1.3
			c0-0.8,0.7-1.2,1.4-1.2h1.2v-0.2c0-0.4-0.3-0.7-0.8-0.7C620.2,9.5,619.9,9.7,619.7,9.9z M621.4,11.3v-0.2h-1
			c-0.4,0-0.6,0.2-0.6,0.5c0,0.3,0.2,0.5,0.7,0.5C621,12.1,621.4,11.8,621.4,11.3z"/>
		<path fill="#FFEE71" d="M629.3,10.2v2.2c0,0.3-0.2,0.5-0.5,0.5c-0.3,0-0.5-0.2-0.5-0.5v-2c0-0.5-0.2-0.8-0.8-0.8
			c-0.6,0-0.9,0.3-0.9,0.8v2c0,0.3-0.2,0.5-0.5,0.5c-0.3,0-0.5-0.2-0.5-0.5v-2c0-0.5-0.2-0.8-0.8-0.8c-0.7,0-0.9,0.4-0.9,0.9v2
			c0,0.3-0.2,0.5-0.5,0.5c-0.3,0-0.5-0.2-0.5-0.5V9.2c0-0.3,0.2-0.5,0.5-0.5c0.3,0,0.5,0.2,0.5,0.5c0.2-0.3,0.5-0.5,1.1-0.5
			c0.7,0,1.1,0.2,1.3,0.6c0.3-0.4,0.7-0.6,1.3-0.6C629,8.7,629.3,9.4,629.3,10.2z"/>
		<path fill="#FFEE71" d="M631.9,8.7c1.5,0,1.8,1.1,1.8,1.8c0,0.3,0,0.7-0.5,0.7h-2.2c0,0.6,0.4,0.9,1,0.9c0.4,0,0.7-0.1,0.9-0.3
			c0.1-0.1,0.2-0.1,0.3-0.1c0.2,0,0.4,0.2,0.4,0.4c0,0.1-0.1,0.3-0.1,0.3c-0.2,0.1-0.6,0.5-1.4,0.5c-1.2,0-2-0.7-2-2.1
			C630,9.4,630.7,8.7,631.9,8.7z M631,10.3h1.7c0-0.4-0.2-0.9-0.8-0.9C631.4,9.5,631,9.8,631,10.3z"/>
		<path fill="#FFEE71" d="M635.2,9.8c0,0.7,2.2,0.4,2.2,1.8c0,0.8-0.7,1.2-1.6,1.2c-0.8,0-1.3-0.3-1.6-0.6c-0.1-0.1-0.1-0.2-0.1-0.3
			c0-0.2,0.2-0.4,0.4-0.4c0.1,0,0.2,0,0.3,0.1c0.2,0.2,0.5,0.4,1,0.4c0.4,0,0.7-0.1,0.7-0.4c0-0.7-2.2-0.3-2.2-1.8
			c0-0.8,0.7-1.2,1.5-1.2c0.6,0,1.2,0.2,1.4,0.5c0.1,0.1,0.1,0.1,0.1,0.3c0,0.2-0.2,0.4-0.4,0.4c-0.1,0-0.2-0.1-0.3-0.1
			c-0.2-0.1-0.4-0.3-0.8-0.3C635.4,9.5,635.2,9.6,635.2,9.8z"/>
		<path fill="#FFEE71" d="M641.2,12.4c0,0.3-0.2,0.5-0.5,0.5c-0.3,0-0.5-0.2-0.5-0.5v-5c0-0.3,0.2-0.5,0.5-0.5h2.7
			c0.3,0,0.5,0.2,0.5,0.5c0,0.3-0.2,0.5-0.5,0.5h-2.2v1.6h1.7c0.2,0,0.4,0.2,0.4,0.4c0,0.2-0.2,0.4-0.4,0.4h-1.7V12.4z"/>
		<path fill="#FFEE71" d="M645.9,8.7c1.5,0,1.8,1.1,1.8,1.8c0,0.3,0,0.7-0.5,0.7h-2.2c0,0.6,0.4,0.9,1,0.9c0.4,0,0.7-0.1,0.9-0.3
			c0.1-0.1,0.2-0.1,0.3-0.1c0.2,0,0.4,0.2,0.4,0.4c0,0.1-0.1,0.3-0.1,0.3c-0.2,0.1-0.6,0.5-1.4,0.5c-1.2,0-2-0.7-2-2.1
			C644,9.4,644.7,8.7,645.9,8.7z M644.9,10.3h1.7c0-0.4-0.2-0.9-0.8-0.9C645.4,9.5,645,9.8,644.9,10.3z"/>
		<path fill="#FFEE71" d="M649.2,9.8c0,0.7,2.2,0.4,2.2,1.8c0,0.8-0.7,1.2-1.6,1.2c-0.8,0-1.3-0.3-1.6-0.6c-0.1-0.1-0.1-0.2-0.1-0.3
			c0-0.2,0.2-0.4,0.4-0.4c0.1,0,0.2,0,0.3,0.1c0.2,0.2,0.5,0.4,1,0.4c0.4,0,0.7-0.1,0.7-0.4c0-0.7-2.2-0.3-2.2-1.8
			c0-0.8,0.7-1.2,1.5-1.2c0.6,0,1.2,0.2,1.4,0.5c0.1,0.1,0.1,0.1,0.1,0.3c0,0.2-0.2,0.4-0.4,0.4c-0.1,0-0.2-0.1-0.3-0.1
			c-0.2-0.1-0.4-0.3-0.8-0.3C649.4,9.5,649.2,9.6,649.2,9.8z"/>
		<path fill="#FFEE71" d="M652.3,8.1c0-0.3,0.2-0.5,0.5-0.5c0.3,0,0.5,0.2,0.5,0.5v0.7h0.4c0.2,0,0.4,0.2,0.4,0.4s-0.2,0.4-0.4,0.4
			h-0.4v2.1c0,0.2,0.2,0.3,0.3,0.3c0.2,0,0.4,0.2,0.4,0.4s-0.2,0.4-0.4,0.4c-0.8,0-1.3-0.5-1.3-1.2V9.6h-0.2c-0.2,0-0.4-0.2-0.4-0.4
			s0.2-0.4,0.4-0.4h0.2V8.1z"/>
		<path fill="#FFEE71" d="M654.7,7.7c0-0.4,0.2-0.6,0.6-0.6c0.4,0,0.6,0.2,0.6,0.6c0,0.3-0.2,0.6-0.6,0.6
			C654.9,8.3,654.7,8,654.7,7.7z M655.7,12.4c0,0.3-0.2,0.5-0.5,0.5c-0.3,0-0.5-0.2-0.5-0.5V9.2c0-0.3,0.2-0.5,0.5-0.5
			c0.3,0,0.5,0.2,0.5,0.5V12.4z"/>
		<path fill="#FFEE71" d="M657.7,12.6l-1.4-3.2c0,0,0-0.1,0-0.2c0-0.3,0.2-0.5,0.5-0.5c0.3,0,0.4,0.2,0.4,0.3l1,2.4l1-2.4
			c0-0.1,0.2-0.3,0.4-0.3c0.3,0,0.5,0.2,0.5,0.5c0,0.1,0,0.1,0,0.2l-1.4,3.2c-0.1,0.2-0.2,0.3-0.4,0.3
			C658,12.9,657.8,12.8,657.7,12.6z"/>
		<path fill="#FFEE71" d="M661.3,9.9c-0.1,0.1-0.2,0.1-0.3,0.1c-0.2,0-0.4-0.2-0.4-0.4c0-0.1,0-0.2,0.1-0.3c0.2-0.3,0.7-0.6,1.4-0.6
			c1.1,0,1.7,0.5,1.7,1.5v2.3c0,0.3-0.2,0.5-0.5,0.5c-0.3,0-0.5-0.2-0.5-0.5c-0.2,0.4-0.6,0.5-1.2,0.5c-0.9,0-1.4-0.5-1.4-1.3
			c0-0.8,0.7-1.2,1.4-1.2h1.2v-0.2c0-0.4-0.3-0.7-0.8-0.7C661.8,9.5,661.5,9.7,661.3,9.9z M663,11.3v-0.2h-1c-0.4,0-0.6,0.2-0.6,0.5
			c0,0.3,0.2,0.5,0.7,0.5C662.5,12.1,663,11.8,663,11.3z"/>
		<path fill="#FFEE71" d="M665.7,7v4.8c0,0.1,0.1,0.2,0.2,0.2c0.2,0,0.4,0.2,0.4,0.4s-0.2,0.4-0.4,0.4c-0.7,0-1.1-0.4-1.1-1.1V7
			c0-0.3,0.2-0.5,0.5-0.5C665.5,6.5,665.7,6.7,665.7,7z"/>
		<path fill="#FFEE71" d="M576.2,22.6l-0.6,1.4c-0.1,0.2-0.3,0.4-0.5,0.4c-0.3,0-0.5-0.2-0.5-0.5c0-0.1,0-0.1,0-0.2l2.3-5.5
			c0.1-0.1,0.2-0.3,0.5-0.3s0.5,0.2,0.5,0.3l2.3,5.5c0,0.1,0,0.1,0,0.2c0,0.3-0.2,0.5-0.5,0.5c-0.2,0-0.4-0.2-0.5-0.4l-0.6-1.4
			H576.2z M577.3,19.6l-0.8,2h1.6L577.3,19.6z"/>
		<path fill="#FFEE71" d="M581.9,20.5c0.2-0.4,0.6-0.6,1-0.6c0.3,0,0.5,0.2,0.5,0.5s-0.2,0.5-0.5,0.5c-0.7,0-1,0.4-1,1.1v2
			c0,0.3-0.2,0.5-0.5,0.5c-0.3,0-0.5-0.2-0.5-0.5v-3.5c0-0.3,0.2-0.5,0.5-0.5C581.6,19.9,581.9,20.1,581.9,20.5L581.9,20.5z"/>
		<path fill="#FFEE71" d="M584.5,19.2c0-0.3,0.2-0.5,0.5-0.5c0.3,0,0.5,0.2,0.5,0.5V20h0.4c0.2,0,0.4,0.2,0.4,0.4s-0.2,0.4-0.4,0.4
			h-0.4v2.3c0,0.2,0.2,0.3,0.4,0.3c0.2,0,0.5,0.2,0.5,0.5s-0.2,0.5-0.5,0.5c-0.9,0-1.4-0.5-1.4-1.3v-2.3h-0.2
			c-0.2,0-0.4-0.2-0.4-0.4s0.2-0.4,0.4-0.4h0.2V19.2z"/>
		<path fill="#FFEE71" d="M591.2,17.9c1.9,0,3.1,0.9,3.1,3.2s-1.2,3.2-3.1,3.2h-1.3c-0.3,0-0.6-0.2-0.6-0.6v-5.4
			c0-0.3,0.2-0.6,0.6-0.6H591.2z M590.4,23.3h0.7c1.2,0,2-0.6,2-2.2s-0.7-2.2-2-2.2h-0.7V23.3z"/>
		<path fill="#FFEE71" d="M595.1,18.8c0-0.4,0.2-0.6,0.6-0.6c0.4,0,0.6,0.2,0.6,0.6c0,0.4-0.2,0.6-0.6,0.6
			C595.3,19.4,595.1,19.1,595.1,18.8z M596.2,23.9c0,0.3-0.2,0.5-0.5,0.5c-0.3,0-0.5-0.2-0.5-0.5v-3.5c0-0.3,0.2-0.5,0.5-0.5
			c0.3,0,0.5,0.2,0.5,0.5V23.9z"/>
		<path fill="#FFEE71" d="M598.2,20.5c0.2-0.4,0.6-0.6,1-0.6c0.3,0,0.5,0.2,0.5,0.5s-0.2,0.5-0.5,0.5c-0.7,0-1,0.4-1,1.1v2
			c0,0.3-0.2,0.5-0.5,0.5s-0.5-0.2-0.5-0.5v-3.5c0-0.3,0.2-0.5,0.5-0.5S598.2,20.1,598.2,20.5L598.2,20.5z"/>
		<path fill="#FFEE71" d="M602.1,19.8c1.6,0,1.9,1.2,1.9,1.9c0,0.4,0,0.8-0.6,0.8H601c0,0.7,0.5,1,1.1,1c0.4,0,0.7-0.1,1-0.3
			c0.1-0.1,0.2-0.1,0.3-0.1c0.2,0,0.5,0.2,0.5,0.5c0,0.2-0.1,0.3-0.2,0.4c-0.2,0.2-0.7,0.5-1.5,0.5c-1.3,0-2.2-0.7-2.2-2.3
			C600,20.7,600.7,19.8,602.1,19.8z M601,21.6h1.9c0-0.5-0.3-0.9-0.9-0.9C601.5,20.7,601.1,21,601,21.6z"/>
		<path fill="#FFEE71" d="M606.6,19.8c0.9,0,1.4,0.4,1.6,0.7c0.1,0.1,0.1,0.2,0.1,0.3c0,0.3-0.2,0.5-0.5,0.5c-0.2,0-0.3-0.1-0.4-0.2
			c-0.1-0.1-0.4-0.4-0.9-0.4c-0.7,0-1,0.5-1,1.4c0,0.9,0.4,1.4,1,1.4c0.4,0,0.7-0.2,1-0.4c0.1-0.1,0.2-0.1,0.3-0.1
			c0.3,0,0.5,0.2,0.5,0.5c0,0.1,0,0.2-0.2,0.4c-0.2,0.2-0.8,0.5-1.5,0.5c-1.3,0-2.1-0.8-2.1-2.3S605.3,19.8,606.6,19.8z"/>
		<path fill="#FFEE71" d="M609.4,19.2c0-0.3,0.2-0.5,0.5-0.5c0.3,0,0.5,0.2,0.5,0.5V20h0.4c0.2,0,0.4,0.2,0.4,0.4s-0.2,0.4-0.4,0.4
			h-0.4v2.3c0,0.2,0.2,0.3,0.4,0.3c0.2,0,0.5,0.2,0.5,0.5s-0.2,0.5-0.5,0.5c-0.9,0-1.4-0.5-1.4-1.3v-2.3h-0.2
			c-0.2,0-0.4-0.2-0.4-0.4s0.2-0.4,0.4-0.4h0.2V19.2z"/>
		<path fill="#FFEE71" d="M611.9,18.8c0-0.4,0.2-0.6,0.6-0.6c0.4,0,0.6,0.2,0.6,0.6c0,0.4-0.2,0.6-0.6,0.6
			C612.1,19.4,611.9,19.1,611.9,18.8z M613.1,23.9c0,0.3-0.2,0.5-0.5,0.5c-0.3,0-0.5-0.2-0.5-0.5v-3.5c0-0.3,0.2-0.5,0.5-0.5
			c0.3,0,0.5,0.2,0.5,0.5V23.9z"/>
		<path fill="#FFEE71" d="M615.9,24.5c-1.3,0-2.1-0.7-2.1-2.3c0-1.6,0.8-2.3,2.1-2.3c1.3,0,2.1,0.7,2.1,2.3
			C618,23.7,617.2,24.5,615.9,24.5z M615.9,20.7c-0.7,0-1.1,0.5-1.1,1.4c0,0.9,0.4,1.4,1.1,1.4c0.7,0,1.1-0.5,1.1-1.4
			C617,21.2,616.6,20.7,615.9,20.7z"/>
		<path fill="#FFEE71" d="M622.7,21.5v2.4c0,0.3-0.2,0.5-0.5,0.5c-0.3,0-0.5-0.2-0.5-0.5v-2.2c0-0.5-0.2-0.9-0.8-0.9
			c-0.7,0-1,0.4-1,1v2.1c0,0.3-0.2,0.5-0.5,0.5c-0.3,0-0.5-0.2-0.5-0.5v-3.5c0-0.3,0.2-0.5,0.5-0.5c0.3,0,0.5,0.2,0.5,0.5
			c0.2-0.3,0.6-0.6,1.2-0.6C622.4,19.8,622.7,20.7,622.7,21.5z"/>
		<path fill="#FFEE71" d="M629.3,20l-1.1,3.9c-0.1,0.2-0.3,0.4-0.5,0.4c-0.2,0-0.5-0.2-0.5-0.4l-1.6-5.5c0-0.1,0-0.1,0-0.2
			c0-0.3,0.2-0.6,0.6-0.6s0.5,0.2,0.5,0.4l1.1,4l1.1-4c0.1-0.2,0.3-0.4,0.5-0.4s0.5,0.2,0.5,0.4l1.1,4l1.1-4c0-0.2,0.2-0.4,0.5-0.4
			s0.6,0.2,0.6,0.6c0,0.1,0,0.1,0,0.2l-1.6,5.5c-0.1,0.2-0.3,0.4-0.5,0.4c-0.3,0-0.5-0.2-0.5-0.4L629.3,20z"/>
		<path fill="#FFEE71" d="M633.7,18.8c0-0.4,0.2-0.6,0.6-0.6c0.4,0,0.6,0.2,0.6,0.6c0,0.4-0.2,0.6-0.6,0.6
			C633.9,19.4,633.7,19.1,633.7,18.8z M634.8,23.9c0,0.3-0.2,0.5-0.5,0.5c-0.3,0-0.5-0.2-0.5-0.5v-3.5c0-0.3,0.2-0.5,0.5-0.5
			c0.3,0,0.5,0.2,0.5,0.5V23.9z"/>
		<path fill="#FFEE71" d="M639.7,21.5v2.4c0,0.3-0.2,0.5-0.5,0.5c-0.3,0-0.5-0.2-0.5-0.5v-2.2c0-0.5-0.2-0.9-0.8-0.9
			c-0.7,0-1,0.4-1,1v2.1c0,0.3-0.2,0.5-0.5,0.5s-0.5-0.2-0.5-0.5v-3.5c0-0.3,0.2-0.5,0.5-0.5s0.5,0.2,0.5,0.5
			c0.2-0.3,0.6-0.6,1.2-0.6C639.4,19.8,639.7,20.7,639.7,21.5z"/>
		<path fill="#FFEE71" d="M644.5,21.5v2.4c0,0.3-0.2,0.5-0.5,0.5c-0.3,0-0.5-0.2-0.5-0.5v-2.2c0-0.5-0.2-0.9-0.8-0.9
			c-0.7,0-1,0.4-1,1v2.1c0,0.3-0.2,0.5-0.5,0.5s-0.5-0.2-0.5-0.5v-3.5c0-0.3,0.2-0.5,0.5-0.5s0.5,0.2,0.5,0.5
			c0.2-0.3,0.6-0.6,1.2-0.6C644.2,19.8,644.5,20.7,644.5,21.5z"/>
		<path fill="#FFEE71" d="M647.3,19.8c1.6,0,1.9,1.2,1.9,1.9c0,0.4,0,0.8-0.6,0.8h-2.4c0,0.7,0.5,1,1.1,1c0.4,0,0.7-0.1,1-0.3
			c0.1-0.1,0.2-0.1,0.3-0.1c0.2,0,0.5,0.2,0.5,0.5c0,0.2-0.1,0.3-0.2,0.4c-0.2,0.2-0.7,0.5-1.5,0.5c-1.3,0-2.2-0.7-2.2-2.3
			C645.2,20.7,646,19.8,647.3,19.8z M646.3,21.6h1.9c0-0.5-0.3-0.9-0.9-0.9C646.7,20.7,646.3,21,646.3,21.6z"/>
		<path fill="#FFEE71" d="M651,20.5c0.2-0.4,0.6-0.6,1-0.6c0.3,0,0.5,0.2,0.5,0.5s-0.2,0.5-0.5,0.5c-0.7,0-1,0.4-1,1.1v2
			c0,0.3-0.2,0.5-0.5,0.5c-0.3,0-0.5-0.2-0.5-0.5v-3.5c0-0.3,0.2-0.5,0.5-0.5C650.7,19.9,651,20.1,651,20.5L651,20.5z"/>
	</g>
	<g id="Laurels_14_">
		<g id="layer1_6_" transform="translate(91.8807,-228.748)" inkscape:label="Warstwa 1" inkscape:groupmode="layer">
			<g id="path1872_3_">
				<path inkscape:connector-curvature="0" sodipodi:nodetypes="ccc" fill="#FFEE71" d="M477.3,257.4c-2.2-1.5-3.9-0.2-5.6,1.3
					C473.9,259.2,476.1,259.5,477.3,257.4z"/>
			</g>
			<g id="path2784_3_">
				<path inkscape:connector-curvature="0" sodipodi:nodetypes="ccc" fill="#FFEE71" d="M476.8,256.1c-0.1-2.6-2.2-3.3-4.4-3.7
					C473.2,254.4,474.4,256.4,476.8,256.1z"/>
			</g>
			<g id="path2790_3_">
				<path inkscape:connector-curvature="0" sodipodi:nodetypes="ccc" fill="#FFEE71" d="M473.5,256.2c-2-1.7-3.9-0.5-5.7,0.8
					C469.9,257.7,472.1,258.2,473.5,256.2z"/>
			</g>
			<g id="path2796_3_">
				<path inkscape:connector-curvature="0" sodipodi:nodetypes="ccc" fill="#FFEE71" d="M471.6,254.9c1.3-2.3-0.2-3.9-1.8-5.4
					C469.4,251.7,469.4,253.9,471.6,254.9z"/>
			</g>
			<g id="path2802_3_">
				<path inkscape:connector-curvature="0" sodipodi:nodetypes="ccc" fill="#FFEE71" d="M470,254.9c-1.5-2.2-3.6-1.6-5.7-0.8
					C466.1,255.4,468.1,256.4,470,254.9z"/>
			</g>
			<g id="path2808_3_">
				<path inkscape:connector-curvature="0" sodipodi:nodetypes="ccc" fill="#FFEE71" d="M467.9,253c1.9-1.8,1.1-3.8,0-5.7
					C466.8,249.2,466.1,251.3,467.9,253z"/>
			</g>
			<g id="path2814_3_">
				<path inkscape:connector-curvature="0" sodipodi:nodetypes="ccc" fill="#FFEE71" d="M466.8,252.7c-1.1-2.4-3.3-2.2-5.4-1.8
					C462.9,252.5,464.7,253.9,466.8,252.7z"/>
			</g>
			<g id="path2820_3_">
				<path inkscape:connector-curvature="0" sodipodi:nodetypes="ccc" fill="#FFEE71" d="M465.1,250.4c2.2-1.4,1.7-3.5,1-5.6
					C464.8,246.5,463.6,248.4,465.1,250.4z"/>
			</g>
			<g id="path2826_3_">
				<path inkscape:connector-curvature="0" sodipodi:nodetypes="ccc" fill="#FFEE71" d="M464.3,250.1c-0.6-2.6-2.8-2.8-5-2.8
					C460.5,249.1,462,250.8,464.3,250.1z"/>
			</g>
			<g id="path2832_3_">
				<path inkscape:connector-curvature="0" sodipodi:nodetypes="ccc" fill="#FFEE71" d="M463.6,246.3c2.4-1.1,2.1-3.3,1.7-5.5
					C463.8,242.4,462.4,244.2,463.6,246.3z"/>
			</g>
			<g id="path2838_3_">
				<path inkscape:connector-curvature="0" sodipodi:nodetypes="ccc" fill="#FFEE71" d="M463.3,247.1c-0.3-2.6-2.4-3.1-4.6-3.4
					C459.6,245.7,460.8,247.5,463.3,247.1z"/>
			</g>
			<g id="path2844_3_">
				<path inkscape:connector-curvature="0" sodipodi:nodetypes="ccc" fill="#FFEE71" d="M462.7,242.1c2.6-0.6,2.8-2.8,2.9-5
					C463.6,238.3,461.9,239.7,462.7,242.1z"/>
			</g>
			<g id="path2850_3_">
				<path inkscape:connector-curvature="0" sodipodi:nodetypes="ccc" fill="#FFEE71" d="M462.2,244c0.7-2.5-1.1-3.8-3-4.9
					C459.3,241.3,459.7,243.5,462.2,244z"/>
			</g>
			<g id="path2856_3_">
				<path inkscape:connector-curvature="0" sodipodi:nodetypes="ccc" fill="#FFEE71" d="M463.7,237.1c2.6,0.1,3.5-1.9,4.1-4
					C465.6,233.7,463.6,234.7,463.7,237.1L463.7,237.1z"/>
			</g>
			<g id="path2862_3_">
				<path inkscape:connector-curvature="0" sodipodi:nodetypes="ccc" fill="#FFEE71" d="M462,240c1.6-2.1,0.3-3.9-1.1-5.6
					C460.2,236.4,459.9,238.6,462,240z"/>
			</g>
			<g id="path2868_3_">
				<path inkscape:connector-curvature="0" sodipodi:nodetypes="ccc" fill="#FFEE71" d="M464.8,233.4c2.6-0.2,3.2-2.3,3.6-4.5
					C466.4,229.8,464.5,231,464.8,233.4z"/>
			</g>
			<g id="path2874_3_">
				<path inkscape:connector-curvature="0" sodipodi:nodetypes="ccc" fill="#FFEE71" d="M463.1,235.7c2-1.7,1.1-3.8,0.1-5.7
					C462.2,231.9,461.4,234,463.1,235.7z"/>
			</g>
		</g>
		<g id="layer1_5_" transform="translate(91.8807,-228.748)" inkscape:label="Warstwa 1" inkscape:groupmode="layer">
			<g id="path1872-7_3_">
				<path inkscape:connector-curvature="0" sodipodi:nodetypes="ccc" fill="#FFEE71" d="M566.8,257.5c2.2-1.5,4-0.2,5.7,1.3
					C570.3,259.4,568,259.7,566.8,257.5z"/>
			</g>
			<g id="path2784-4_3_">
				<path inkscape:connector-curvature="0" sodipodi:nodetypes="ccc" fill="#FFEE71" d="M567.3,256.2c0.1-2.7,2.2-3.3,4.4-3.8
					C570.9,254.5,569.8,256.5,567.3,256.2z"/>
			</g>
			<g id="path2790-0_3_">
				<path inkscape:connector-curvature="0" sodipodi:nodetypes="ccc" fill="#FFEE71" d="M570.7,256.3c2-1.7,4-0.5,5.7,0.8
					C574.3,257.9,572.1,258.3,570.7,256.3z"/>
			</g>
			<g id="path2796-9_3_">
				<path inkscape:connector-curvature="0" sodipodi:nodetypes="ccc" fill="#FFEE71" d="M572.6,255c-1.3-2.3,0.2-4,1.9-5.5
					C574.8,251.7,574.8,254,572.6,255z"/>
			</g>
			<g id="path2802-4_3_">
				<path inkscape:connector-curvature="0" sodipodi:nodetypes="ccc" fill="#FFEE71" d="M574.2,255c1.5-2.2,3.7-1.6,5.8-0.8
					C578.2,255.5,576.2,256.6,574.2,255z"/>
			</g>
			<g id="path2808-8_3_">
				<path inkscape:connector-curvature="0" sodipodi:nodetypes="ccc" fill="#FFEE71" d="M576.4,253.1c-2-1.8-1.1-3.9,0-5.8
					C577.4,249.2,578.2,251.4,576.4,253.1z"/>
			</g>
			<g id="path2814-8_3_">
				<path inkscape:connector-curvature="0" sodipodi:nodetypes="ccc" fill="#FFEE71" d="M577.4,252.8c1.1-2.4,3.3-2.3,5.5-1.9
					C581.4,252.6,579.6,254,577.4,252.8z"/>
			</g>
			<g id="path2820-2_3_">
				<path inkscape:connector-curvature="0" sodipodi:nodetypes="ccc" fill="#FFEE71" d="M579.2,250.5c-2.3-1.4-1.8-3.6-1.1-5.7
					C579.5,246.5,580.7,248.5,579.2,250.5z"/>
			</g>
			<g id="path2826-4_3_">
				<path inkscape:connector-curvature="0" sodipodi:nodetypes="ccc" fill="#FFEE71" d="M580,250.2c0.6-2.6,2.8-2.8,5-2.9
					C583.8,249.2,582.3,250.9,580,250.2z"/>
			</g>
			<g id="path2832-5_3_">
				<path inkscape:connector-curvature="0" sodipodi:nodetypes="ccc" fill="#FFEE71" d="M580.6,246.4c-2.4-1.1-2.2-3.4-1.7-5.6
					C580.5,242.4,581.9,244.2,580.6,246.4z"/>
			</g>
			<g id="path2838-5_3_">
				<path inkscape:connector-curvature="0" sodipodi:nodetypes="ccc" fill="#FFEE71" d="M581,247.1c0.3-2.6,2.5-3.2,4.7-3.5
					C584.7,245.6,583.5,247.5,581,247.1z"/>
			</g>
			<g id="path2844-1_3_">
				<path inkscape:connector-curvature="0" sodipodi:nodetypes="ccc" fill="#FFEE71" d="M581.6,242c-2.6-0.6-2.9-2.8-2.9-5
					C580.6,238.2,582.4,239.6,581.6,242z"/>
			</g>
			<g id="path2850-7_3_">
				<path inkscape:connector-curvature="0" sodipodi:nodetypes="ccc" fill="#FFEE71" d="M582.1,244c-0.7-2.5,1.1-3.9,3-5
					C585,241.2,584.6,243.5,582.1,244z"/>
			</g>
			<g id="path2856-1_3_">
				<path inkscape:connector-curvature="0" sodipodi:nodetypes="ccc" fill="#FFEE71" d="M580.6,237c-2.6,0.1-3.5-1.9-4.1-4.1
					C578.6,233.6,580.7,234.5,580.6,237L580.6,237z"/>
			</g>
			<g id="path2862-1_3_">
				<path inkscape:connector-curvature="0" sodipodi:nodetypes="ccc" fill="#FFEE71" d="M582.3,239.9c-1.6-2.1-0.3-4,1.1-5.7
					C584.1,236.3,584.4,238.6,582.3,239.9z"/>
			</g>
			<g id="path2868-5_3_">
				<path inkscape:connector-curvature="0" sodipodi:nodetypes="ccc" fill="#FFEE71" d="M579.5,233.3c-2.6-0.2-3.3-2.3-3.7-4.5
					C577.8,229.6,579.8,230.8,579.5,233.3z"/>
			</g>
			<g id="path2874-2_3_">
				<path inkscape:connector-curvature="0" sodipodi:nodetypes="ccc" fill="#FFEE71" d="M581.1,235.5c-2-1.8-1.1-3.8-0.1-5.8
					C582.1,231.7,582.9,233.8,581.1,235.5z"/>
			</g>
		</g>
	</g>
</g>
<g id="Awards_6_">
	<g>
		<path fill="#FFEE71" d="M294.5,12.5L292.3,7c0-0.1,0-0.1,0-0.2c0-0.3,0.2-0.6,0.6-0.6c0.3,0,0.5,0.2,0.5,0.3L295,11l1.7-4.4
			c0.1-0.1,0.2-0.3,0.5-0.3c0.3,0,0.6,0.2,0.6,0.6c0,0.1,0,0.1,0,0.2l-2.2,5.5c-0.1,0.2-0.2,0.4-0.5,0.4
			C294.7,12.9,294.6,12.7,294.5,12.5z"/>
		<path fill="#FFEE71" d="M299.8,8.3c1.6,0,1.9,1.2,1.9,1.9c0,0.4,0,0.8-0.6,0.8h-2.4c0,0.7,0.5,1,1.1,1c0.4,0,0.7-0.1,1-0.3
			c0.1-0.1,0.2-0.1,0.3-0.1c0.2,0,0.5,0.2,0.5,0.5c0,0.2-0.1,0.3-0.2,0.4c-0.2,0.2-0.7,0.5-1.5,0.5c-1.3,0-2.2-0.7-2.2-2.3
			C297.8,9.1,298.5,8.3,299.8,8.3z M298.8,10.1h1.9c0-0.5-0.3-0.9-0.9-0.9C299.3,9.2,298.9,9.5,298.8,10.1z"/>
		<path fill="#FFEE71" d="M306.4,10v2.4c0,0.3-0.2,0.5-0.5,0.5c-0.3,0-0.5-0.2-0.5-0.5v-2.2c0-0.5-0.2-0.9-0.8-0.9c-0.7,0-1,0.4-1,1
			v2.1c0,0.3-0.2,0.5-0.5,0.5s-0.5-0.2-0.5-0.5V8.9c0-0.3,0.2-0.5,0.5-0.5s0.5,0.2,0.5,0.5c0.2-0.3,0.6-0.6,1.2-0.6
			C306.1,8.3,306.4,9.1,306.4,10z"/>
		<path fill="#FFEE71" d="M308.2,8.9v2.2c0,0.4,0.2,0.9,0.9,0.9c0.7,0,0.9-0.4,0.9-0.9V8.9c0-0.3,0.2-0.5,0.5-0.5s0.5,0.2,0.5,0.5
			v2.2c0,0.9-0.4,1.8-1.9,1.8c-1.5,0-1.9-0.9-1.9-1.8V8.9c0-0.3,0.2-0.5,0.5-0.5C308,8.4,308.2,8.6,308.2,8.9z"/>
		<path fill="#FFEE71" d="M312.9,9.6c0,0.7,2.4,0.4,2.4,2c0,0.9-0.8,1.4-1.8,1.4c-0.8,0-1.5-0.4-1.7-0.7c-0.1-0.1-0.1-0.2-0.1-0.3
			c0-0.2,0.2-0.5,0.5-0.5c0.1,0,0.2,0,0.3,0.1c0.3,0.2,0.6,0.4,1.1,0.4c0.4,0,0.7-0.1,0.7-0.4c0-0.8-2.4-0.4-2.4-2
			c0-0.9,0.7-1.3,1.6-1.3c0.7,0,1.3,0.3,1.6,0.6c0.1,0.1,0.1,0.1,0.1,0.3c0,0.2-0.2,0.5-0.5,0.5c-0.1,0-0.2-0.1-0.3-0.1
			c-0.2-0.2-0.5-0.3-0.9-0.3C313.1,9.2,312.9,9.3,312.9,9.6z"/>
		<path fill="#FFEE71" d="M319.4,10.3v2c0,0.3-0.2,0.6-0.6,0.6s-0.6-0.2-0.6-0.6V6.9c0-0.3,0.2-0.6,0.6-0.6h1.8c1.1,0,2,0.6,2,2
			c0,1.3-0.9,2-2,2H319.4z M319.4,7.3v2h1.2c0.6,0,1-0.4,1-1c0-0.6-0.4-1-1-1H319.4z"/>
		<path fill="#FFEE71" d="M324,9.6c-0.1,0.1-0.2,0.1-0.3,0.1c-0.2,0-0.5-0.2-0.5-0.5c0-0.1,0-0.2,0.1-0.3c0.3-0.3,0.7-0.6,1.6-0.6
			c1.2,0,1.9,0.6,1.9,1.6v2.5c0,0.3-0.2,0.5-0.5,0.5c-0.3,0-0.5-0.2-0.5-0.5c-0.3,0.4-0.7,0.6-1.3,0.6c-0.9,0-1.6-0.6-1.6-1.5
			c0-0.9,0.7-1.4,1.6-1.4h1.3V9.9c0-0.4-0.3-0.7-0.9-0.7C324.6,9.2,324.3,9.4,324,9.6z M325.9,11.2v-0.3h-1.1
			c-0.4,0-0.7,0.2-0.7,0.5c0,0.4,0.3,0.6,0.8,0.6C325.4,12.1,325.9,11.7,325.9,11.2z"/>
		<path fill="#FFEE71" d="M328.1,7.6c0-0.3,0.2-0.5,0.5-0.5c0.3,0,0.5,0.2,0.5,0.5v0.8h0.4c0.2,0,0.4,0.2,0.4,0.4s-0.2,0.4-0.4,0.4
			h-0.4v2.3c0,0.2,0.2,0.3,0.4,0.3c0.2,0,0.5,0.2,0.5,0.5s-0.2,0.5-0.5,0.5c-0.9,0-1.4-0.5-1.4-1.3V9.3h-0.2c-0.2,0-0.4-0.2-0.4-0.4
			s0.2-0.4,0.4-0.4h0.2V7.6z"/>
		<path fill="#FFEE71" d="M331.8,8.9c0.2-0.4,0.6-0.6,1-0.6c0.3,0,0.5,0.2,0.5,0.5c0,0.3-0.2,0.5-0.5,0.5c-0.7,0-1,0.4-1,1.1v2
			c0,0.3-0.2,0.5-0.5,0.5c-0.3,0-0.5-0.2-0.5-0.5V8.9c0-0.3,0.2-0.5,0.5-0.5C331.6,8.4,331.8,8.6,331.8,8.9L331.8,8.9z"/>
		<path fill="#FFEE71" d="M335.7,12.9c-1.3,0-2.1-0.7-2.1-2.3c0-1.6,0.8-2.3,2.1-2.3c1.3,0,2.1,0.7,2.1,2.3
			C337.8,12.2,337,12.9,335.7,12.9z M335.7,9.2c-0.7,0-1.1,0.5-1.1,1.4c0,0.9,0.4,1.4,1.1,1.4c0.7,0,1.1-0.5,1.1-1.4
			C336.8,9.7,336.4,9.2,335.7,9.2z"/>
		<path fill="#FFEE71" d="M339.6,6.5v5.3c0,0.1,0.1,0.2,0.2,0.2c0.3,0,0.5,0.2,0.5,0.5c0,0.3-0.2,0.5-0.5,0.5
			c-0.8,0-1.2-0.4-1.2-1.2V6.5c0-0.3,0.2-0.5,0.5-0.5C339.4,5.9,339.6,6.2,339.6,6.5z"/>
		<path fill="#FFEE71" d="M345.3,10.8h-1.9c-0.2,0-0.4-0.2-0.4-0.4s0.2-0.4,0.4-0.4h1.9c0.2,0,0.4,0.2,0.4,0.4
			S345.6,10.8,345.3,10.8z"/>
		<path fill="#FFEE71" d="M353.9,12.3c0,0.3-0.2,0.6-0.6,0.6s-0.6-0.2-0.6-0.6V10h-2.7v2.3c0,0.3-0.2,0.6-0.6,0.6s-0.6-0.2-0.6-0.6
			V6.8c0-0.3,0.2-0.6,0.6-0.6s0.6,0.2,0.6,0.6V9h2.7V6.8c0-0.3,0.2-0.6,0.6-0.6s0.6,0.2,0.6,0.6V12.3z"/>
		<path fill="#FFEE71" d="M354.8,9.6c0-2.3,1.1-3.4,3-3.4c1.9,0,3,1.1,3,3.4c0,2.2-1.1,3.4-3,3.4C355.9,12.9,354.8,11.8,354.8,9.6z
			 M356,9.6c0,1.6,0.6,2.4,1.9,2.4c1.3,0,1.9-0.8,1.9-2.4c0-1.6-0.6-2.4-1.9-2.4C356.6,7.2,356,8,356,9.6z"/>
		<path fill="#FFEE71" d="M362.9,10.3v2c0,0.3-0.2,0.6-0.6,0.6s-0.6-0.2-0.6-0.6V6.9c0-0.3,0.2-0.6,0.6-0.6h1.8c1.3,0,2,0.9,2,2
			c0,0.9-0.6,1.8-1.5,1.9l1.4,1.7c0.1,0.1,0.1,0.2,0.1,0.3c0,0.3-0.2,0.6-0.6,0.6c-0.2,0-0.3-0.1-0.4-0.2l-1.7-2.4H362.9z
			 M362.9,7.3v2h1.3c0.6,0,0.9-0.5,0.9-1c0-0.5-0.3-1-0.9-1H362.9z"/>
		<path fill="#FFEE71" d="M368.3,12.3c0,0.3-0.2,0.6-0.6,0.6s-0.6-0.2-0.6-0.6V6.8c0-0.3,0.2-0.6,0.6-0.6s0.6,0.2,0.6,0.6V12.3z"/>
		<path fill="#FFEE71" d="M369.5,12.8c-0.3,0-0.5-0.2-0.5-0.5c0-0.1,0-0.2,0.1-0.3l3.2-4.7h-2.6c-0.3,0-0.5-0.2-0.5-0.5
			s0.2-0.5,0.5-0.5h3.6c0.3,0,0.5,0.2,0.5,0.5c0,0.1,0,0.2-0.1,0.3l-3.2,4.7h2.9c0.3,0,0.5,0.2,0.5,0.5c0,0.3-0.2,0.5-0.5,0.5H369.5
			z"/>
		<path fill="#FFEE71" d="M374.3,9.6c0-2.3,1.1-3.4,3-3.4c1.9,0,3,1.1,3,3.4c0,2.2-1.1,3.4-3,3.4C375.4,12.9,374.3,11.8,374.3,9.6z
			 M375.5,9.6c0,1.6,0.6,2.4,1.9,2.4s1.9-0.8,1.9-2.4c0-1.6-0.6-2.4-1.9-2.4S375.5,8,375.5,9.6z"/>
		<path fill="#FFEE71" d="M386.2,6.8v5.5c0,0.3-0.2,0.5-0.5,0.5c-0.2,0-0.4-0.1-0.5-0.2l-2.8-4.1v3.8c0,0.3-0.2,0.5-0.5,0.5
			s-0.5-0.2-0.5-0.5V6.8c0-0.3,0.2-0.5,0.5-0.5c0.2,0,0.3,0.1,0.4,0.2l2.8,4.1V6.8c0-0.3,0.2-0.5,0.5-0.5S386.2,6.5,386.2,6.8z"/>
		<path fill="#FFEE71" d="M306.8,21.1c0-2.3,1.1-3.4,3-3.4c1.9,0,3,1.1,3,3.4c0,2.2-1.1,3.4-3,3.4C307.9,24.5,306.8,23.3,306.8,21.1
			z M307.9,21.1c0,1.6,0.6,2.4,1.9,2.4s1.9-0.8,1.9-2.4c0-1.6-0.6-2.4-1.9-2.4S307.9,19.5,307.9,21.1z"/>
		<path fill="#FFEE71" d="M320.7,23.9c0,0.3-0.2,0.5-0.5,0.5s-0.5-0.2-0.5-0.5v-3.1H318v3.1c0,0.3-0.2,0.5-0.5,0.5
			c-0.3,0-0.5-0.2-0.5-0.5v-3.1H315v3.1c0,0.3-0.2,0.5-0.5,0.5c-0.3,0-0.5-0.2-0.5-0.5v-3.1h-0.2c-0.2,0-0.4-0.2-0.4-0.4
			s0.2-0.4,0.4-0.4h0.2v-0.5c0-0.9,0.6-1.7,1.8-1.7c0.2,0,0.5,0.2,0.5,0.5c0,0.2-0.2,0.5-0.5,0.5c-0.5,0-0.8,0.3-0.8,0.7V20h1.9
			v-0.5c0-0.9,0.7-1.8,1.9-1.8c0.4,0,0.9,0.1,1.1,0.2c0.2,0.1,0.3,0.2,0.3,0.4c0,0.3-0.2,0.5-0.5,0.5c-0.1,0-0.1,0-0.2-0.1
			c-0.2-0.1-0.4-0.1-0.6-0.1c-0.5,0-0.9,0.3-0.9,0.7V20h2.2c0.3,0,0.5,0.2,0.5,0.5V23.9z"/>
		<path fill="#FFEE71" d="M323.5,19.8c0.9,0,1.4,0.4,1.6,0.7c0.1,0.1,0.1,0.2,0.1,0.3c0,0.3-0.2,0.5-0.5,0.5c-0.2,0-0.3-0.1-0.4-0.2
			c-0.1-0.1-0.4-0.4-0.9-0.4c-0.7,0-1,0.5-1,1.4c0,0.9,0.4,1.4,1,1.4c0.4,0,0.7-0.2,1-0.4c0.1-0.1,0.2-0.1,0.3-0.1
			c0.3,0,0.5,0.2,0.5,0.5c0,0.1,0,0.2-0.2,0.4c-0.2,0.2-0.8,0.5-1.5,0.5c-1.3,0-2.1-0.8-2.1-2.3C321.4,20.6,322.2,19.8,323.5,19.8z"
			/>
		<path fill="#FFEE71" d="M325.9,18.8c0-0.4,0.2-0.6,0.6-0.6c0.4,0,0.6,0.2,0.6,0.6c0,0.4-0.2,0.6-0.6,0.6
			C326.2,19.4,325.9,19.1,325.9,18.8z M327.1,23.9c0,0.3-0.2,0.5-0.5,0.5c-0.3,0-0.5-0.2-0.5-0.5v-3.5c0-0.3,0.2-0.5,0.5-0.5
			c0.3,0,0.5,0.2,0.5,0.5V23.9z"/>
		<path fill="#FFEE71" d="M328.8,21.1c-0.1,0.1-0.2,0.1-0.3,0.1c-0.2,0-0.5-0.2-0.5-0.5c0-0.1,0-0.2,0.1-0.3
			c0.3-0.3,0.7-0.6,1.6-0.6c1.2,0,1.9,0.6,1.9,1.6v2.5c0,0.3-0.2,0.5-0.5,0.5c-0.3,0-0.5-0.2-0.5-0.5c-0.3,0.4-0.7,0.6-1.3,0.6
			c-0.9,0-1.6-0.6-1.6-1.5c0-0.9,0.7-1.4,1.6-1.4h1.3v-0.2c0-0.4-0.3-0.7-0.9-0.7C329.3,20.8,329,20.9,328.8,21.1z M330.6,22.7v-0.3
			h-1.1c-0.4,0-0.7,0.2-0.7,0.5c0,0.4,0.3,0.6,0.8,0.6C330.2,23.6,330.6,23.3,330.6,22.7z"/>
		<path fill="#FFEE71" d="M333.7,18v5.3c0,0.1,0.1,0.2,0.2,0.2c0.3,0,0.5,0.2,0.5,0.5c0,0.3-0.2,0.5-0.5,0.5c-0.8,0-1.2-0.4-1.2-1.2
			V18c0-0.3,0.2-0.5,0.5-0.5C333.4,17.5,333.7,17.7,333.7,18z"/>
		<path fill="#FFEE71" d="M339.4,18.7c-0.8,0-1.1,0.4-1.1,0.8c0,1.3,3.5,0.7,3.5,3.1c0,1.2-0.8,1.9-2.4,1.9c-1.1,0-2.1-0.6-2.4-1.2
			c0-0.1-0.1-0.2-0.1-0.3c0-0.3,0.2-0.5,0.5-0.5c0.2,0,0.3,0.1,0.4,0.2c0.4,0.4,0.9,0.7,1.6,0.7c0.9,0,1.3-0.3,1.3-0.9
			c0-1.4-3.5-0.8-3.5-3.1c0-1,0.7-1.8,2.2-1.8c1,0,1.8,0.4,2.2,0.9c0.1,0.1,0.1,0.2,0.1,0.3c0,0.3-0.2,0.5-0.5,0.5
			c-0.1,0-0.3-0.1-0.4-0.2C340.4,18.9,339.9,18.7,339.4,18.7z"/>
		<path fill="#FFEE71" d="M344.5,19.8c1.6,0,1.9,1.2,1.9,1.9c0,0.4,0,0.8-0.6,0.8h-2.4c0,0.7,0.5,1,1.1,1c0.4,0,0.7-0.1,1-0.3
			c0.1-0.1,0.2-0.1,0.3-0.1c0.2,0,0.5,0.2,0.5,0.5c0,0.2-0.1,0.3-0.2,0.4c-0.2,0.2-0.7,0.5-1.5,0.5c-1.3,0-2.2-0.7-2.2-2.3
			C342.4,20.7,343.2,19.8,344.5,19.8z M343.5,21.6h1.9c0-0.5-0.3-0.9-0.9-0.9C343.9,20.7,343.5,21,343.5,21.6z"/>
		<path fill="#FFEE71" d="M348.2,18v5.3c0,0.1,0.1,0.2,0.2,0.2c0.3,0,0.5,0.2,0.5,0.5c0,0.3-0.2,0.5-0.5,0.5c-0.8,0-1.2-0.4-1.2-1.2
			V18c0-0.3,0.2-0.5,0.5-0.5C348,17.5,348.2,17.7,348.2,18z"/>
		<path fill="#FFEE71" d="M351.3,19.8c1.6,0,1.9,1.2,1.9,1.9c0,0.4,0,0.8-0.6,0.8h-2.4c0,0.7,0.5,1,1.1,1c0.4,0,0.7-0.1,1-0.3
			c0.1-0.1,0.2-0.1,0.3-0.1c0.2,0,0.5,0.2,0.5,0.5c0,0.2-0.1,0.3-0.2,0.4c-0.2,0.2-0.7,0.5-1.5,0.5c-1.3,0-2.2-0.7-2.2-2.3
			C349.3,20.7,350,19.8,351.3,19.8z M350.3,21.6h1.9c0-0.5-0.3-0.9-0.9-0.9C350.8,20.7,350.4,21,350.3,21.6z"/>
		<path fill="#FFEE71" d="M355.9,19.8c0.9,0,1.4,0.4,1.6,0.7c0.1,0.1,0.1,0.2,0.1,0.3c0,0.3-0.2,0.5-0.5,0.5c-0.2,0-0.3-0.1-0.4-0.2
			c-0.1-0.1-0.4-0.4-0.9-0.4c-0.7,0-1,0.5-1,1.4c0,0.9,0.4,1.4,1,1.4c0.4,0,0.7-0.2,1-0.4c0.1-0.1,0.2-0.1,0.3-0.1
			c0.3,0,0.5,0.2,0.5,0.5c0,0.1,0,0.2-0.2,0.4c-0.2,0.2-0.8,0.5-1.5,0.5c-1.3,0-2.1-0.8-2.1-2.3C353.8,20.6,354.5,19.8,355.9,19.8z"
			/>
		<path fill="#FFEE71" d="M358.6,19.2c0-0.3,0.2-0.5,0.5-0.5c0.3,0,0.5,0.2,0.5,0.5V20h0.4c0.2,0,0.4,0.2,0.4,0.4s-0.2,0.4-0.4,0.4
			h-0.4v2.3c0,0.2,0.2,0.3,0.4,0.3c0.2,0,0.5,0.2,0.5,0.5s-0.2,0.5-0.5,0.5c-0.9,0-1.4-0.5-1.4-1.3v-2.3h-0.2
			c-0.2,0-0.4-0.2-0.4-0.4s0.2-0.4,0.4-0.4h0.2V19.2z"/>
		<path fill="#FFEE71" d="M361.2,18.8c0-0.4,0.2-0.6,0.6-0.6c0.4,0,0.6,0.2,0.6,0.6c0,0.4-0.2,0.6-0.6,0.6
			C361.4,19.4,361.2,19.1,361.2,18.8z M362.3,23.9c0,0.3-0.2,0.5-0.5,0.5c-0.3,0-0.5-0.2-0.5-0.5v-3.5c0-0.3,0.2-0.5,0.5-0.5
			c0.3,0,0.5,0.2,0.5,0.5V23.9z"/>
		<path fill="#FFEE71" d="M365.2,24.5c-1.3,0-2.1-0.7-2.1-2.3c0-1.6,0.8-2.3,2.1-2.3c1.3,0,2.1,0.7,2.1,2.3
			C367.3,23.7,366.5,24.5,365.2,24.5z M365.2,20.7c-0.7,0-1.1,0.5-1.1,1.4c0,0.9,0.4,1.4,1.1,1.4c0.7,0,1.1-0.5,1.1-1.4
			C366.3,21.2,365.9,20.7,365.2,20.7z"/>
		<path fill="#FFEE71" d="M371.9,21.5v2.4c0,0.3-0.2,0.5-0.5,0.5c-0.3,0-0.5-0.2-0.5-0.5v-2.2c0-0.5-0.2-0.9-0.8-0.9
			c-0.7,0-1,0.4-1,1v2.1c0,0.3-0.2,0.5-0.5,0.5c-0.3,0-0.5-0.2-0.5-0.5v-3.5c0-0.3,0.2-0.5,0.5-0.5c0.3,0,0.5,0.2,0.5,0.5
			c0.2-0.3,0.6-0.6,1.2-0.6C371.6,19.8,371.9,20.7,371.9,21.5z"/>
	</g>
	<g id="Laurels_12_">
		<g id="layer1_4_" transform="translate(91.8807,-228.748)" inkscape:label="Warstwa 1" inkscape:groupmode="layer">
			<g id="path1872_2_">
				<path inkscape:connector-curvature="0" sodipodi:nodetypes="ccc" fill="#FFEE71" d="M202.1,257.4c-2.2-1.5-3.9-0.2-5.6,1.3
					C198.6,259.2,200.8,259.5,202.1,257.4z"/>
			</g>
			<g id="path2784_2_">
				<path inkscape:connector-curvature="0" sodipodi:nodetypes="ccc" fill="#FFEE71" d="M201.5,256.1c-0.1-2.6-2.2-3.3-4.4-3.7
					C198,254.4,199.1,256.4,201.5,256.1z"/>
			</g>
			<g id="path2790_2_">
				<path inkscape:connector-curvature="0" sodipodi:nodetypes="ccc" fill="#FFEE71" d="M198.2,256.2c-2-1.7-3.9-0.5-5.7,0.8
					C194.6,257.7,196.8,258.2,198.2,256.2z"/>
			</g>
			<g id="path2796_2_">
				<path inkscape:connector-curvature="0" sodipodi:nodetypes="ccc" fill="#FFEE71" d="M196.3,254.9c1.3-2.3-0.2-3.9-1.8-5.4
					C194.1,251.7,194.1,253.9,196.3,254.9z"/>
			</g>
			<g id="path2802_2_">
				<path inkscape:connector-curvature="0" sodipodi:nodetypes="ccc" fill="#FFEE71" d="M194.7,254.9c-1.5-2.2-3.6-1.6-5.7-0.8
					C190.8,255.4,192.8,256.4,194.7,254.9z"/>
			</g>
			<g id="path2808_2_">
				<path inkscape:connector-curvature="0" sodipodi:nodetypes="ccc" fill="#FFEE71" d="M192.6,253c1.9-1.8,1.1-3.8,0-5.7
					C191.5,249.2,190.8,251.3,192.6,253z"/>
			</g>
			<g id="path2814_2_">
				<path inkscape:connector-curvature="0" sodipodi:nodetypes="ccc" fill="#FFEE71" d="M191.6,252.7c-1.1-2.4-3.3-2.2-5.4-1.8
					C187.6,252.5,189.4,253.9,191.6,252.7z"/>
			</g>
			<g id="path2820_2_">
				<path inkscape:connector-curvature="0" sodipodi:nodetypes="ccc" fill="#FFEE71" d="M189.8,250.4c2.2-1.4,1.7-3.5,1-5.6
					C189.5,246.5,188.4,248.4,189.8,250.4z"/>
			</g>
			<g id="path2826_2_">
				<path inkscape:connector-curvature="0" sodipodi:nodetypes="ccc" fill="#FFEE71" d="M189,250.1c-0.6-2.6-2.8-2.8-5-2.8
					C185.2,249.1,186.7,250.8,189,250.1z"/>
			</g>
			<g id="path2832_2_">
				<path inkscape:connector-curvature="0" sodipodi:nodetypes="ccc" fill="#FFEE71" d="M188.4,246.3c2.4-1.1,2.1-3.3,1.7-5.5
					C188.5,242.4,187.2,244.2,188.4,246.3z"/>
			</g>
			<g id="path2838_2_">
				<path inkscape:connector-curvature="0" sodipodi:nodetypes="ccc" fill="#FFEE71" d="M188,247.1c-0.3-2.6-2.4-3.1-4.6-3.4
					C184.3,245.7,185.6,247.5,188,247.1z"/>
			</g>
			<g id="path2844_2_">
				<path inkscape:connector-curvature="0" sodipodi:nodetypes="ccc" fill="#FFEE71" d="M187.4,242.1c2.6-0.6,2.8-2.8,2.9-5
					C188.4,238.3,186.7,239.7,187.4,242.1z"/>
			</g>
			<g id="path2850_2_">
				<path inkscape:connector-curvature="0" sodipodi:nodetypes="ccc" fill="#FFEE71" d="M186.9,244c0.7-2.5-1.1-3.8-3-4.9
					C184,241.3,184.5,243.5,186.9,244z"/>
			</g>
			<g id="path2856_2_">
				<path inkscape:connector-curvature="0" sodipodi:nodetypes="ccc" fill="#FFEE71" d="M188.4,237.1c2.6,0.1,3.5-1.9,4.1-4
					C190.4,233.7,188.3,234.7,188.4,237.1L188.4,237.1z"/>
			</g>
			<g id="path2862_2_">
				<path inkscape:connector-curvature="0" sodipodi:nodetypes="ccc" fill="#FFEE71" d="M186.7,240c1.6-2.1,0.3-3.9-1.1-5.6
					C185,236.4,184.6,238.6,186.7,240z"/>
			</g>
			<g id="path2868_2_">
				<path inkscape:connector-curvature="0" sodipodi:nodetypes="ccc" fill="#FFEE71" d="M189.5,233.4c2.6-0.2,3.2-2.3,3.6-4.5
					C191.1,229.8,189.2,231,189.5,233.4z"/>
			</g>
			<g id="path2874_2_">
				<path inkscape:connector-curvature="0" sodipodi:nodetypes="ccc" fill="#FFEE71" d="M187.9,235.7c2-1.7,1.1-3.8,0.1-5.7
					C186.9,231.9,186.1,234,187.9,235.7z"/>
			</g>
		</g>
		<g id="layer1_3_" transform="translate(91.8807,-228.748)" inkscape:label="Warstwa 1" inkscape:groupmode="layer">
			<g id="path1872-7_2_">
				<path inkscape:connector-curvature="0" sodipodi:nodetypes="ccc" fill="#FFEE71" d="M291.5,257.5c2.2-1.5,4-0.2,5.7,1.3
					C295,259.4,292.8,259.7,291.5,257.5z"/>
			</g>
			<g id="path2784-4_2_">
				<path inkscape:connector-curvature="0" sodipodi:nodetypes="ccc" fill="#FFEE71" d="M292,256.2c0.1-2.7,2.2-3.3,4.4-3.8
					C295.7,254.5,294.5,256.5,292,256.2z"/>
			</g>
			<g id="path2790-0_2_">
				<path inkscape:connector-curvature="0" sodipodi:nodetypes="ccc" fill="#FFEE71" d="M295.4,256.3c2-1.7,4-0.5,5.7,0.8
					C299.1,257.9,296.8,258.3,295.4,256.3z"/>
			</g>
			<g id="path2796-9_2_">
				<path inkscape:connector-curvature="0" sodipodi:nodetypes="ccc" fill="#FFEE71" d="M297.3,255c-1.3-2.3,0.2-4,1.9-5.5
					C299.5,251.7,299.6,254,297.3,255z"/>
			</g>
			<g id="path2802-4_2_">
				<path inkscape:connector-curvature="0" sodipodi:nodetypes="ccc" fill="#FFEE71" d="M299,255c1.5-2.2,3.7-1.6,5.8-0.8
					C302.9,255.5,300.9,256.6,299,255z"/>
			</g>
			<g id="path2808-8_2_">
				<path inkscape:connector-curvature="0" sodipodi:nodetypes="ccc" fill="#FFEE71" d="M301.1,253.1c-2-1.8-1.1-3.9,0-5.8
					C302.2,249.2,302.9,251.4,301.1,253.1z"/>
			</g>
			<g id="path2814-8_2_">
				<path inkscape:connector-curvature="0" sodipodi:nodetypes="ccc" fill="#FFEE71" d="M302.1,252.8c1.1-2.4,3.3-2.3,5.5-1.9
					C306.1,252.6,304.3,254,302.1,252.8z"/>
			</g>
			<g id="path2820-2_2_">
				<path inkscape:connector-curvature="0" sodipodi:nodetypes="ccc" fill="#FFEE71" d="M303.9,250.5c-2.3-1.4-1.8-3.6-1.1-5.7
					C304.2,246.5,305.4,248.5,303.9,250.5z"/>
			</g>
			<g id="path2826-4_2_">
				<path inkscape:connector-curvature="0" sodipodi:nodetypes="ccc" fill="#FFEE71" d="M304.7,250.2c0.6-2.6,2.8-2.8,5-2.9
					C308.6,249.2,307.1,250.9,304.7,250.2z"/>
			</g>
			<g id="path2832-5_2_">
				<path inkscape:connector-curvature="0" sodipodi:nodetypes="ccc" fill="#FFEE71" d="M305.4,246.4c-2.4-1.1-2.2-3.4-1.7-5.6
					C305.2,242.4,306.6,244.2,305.4,246.4z"/>
			</g>
			<g id="path2838-5_2_">
				<path inkscape:connector-curvature="0" sodipodi:nodetypes="ccc" fill="#FFEE71" d="M305.8,247.1c0.3-2.6,2.5-3.2,4.7-3.5
					C309.5,245.6,308.2,247.5,305.8,247.1z"/>
			</g>
			<g id="path2844-1_2_">
				<path inkscape:connector-curvature="0" sodipodi:nodetypes="ccc" fill="#FFEE71" d="M306.4,242c-2.6-0.6-2.9-2.8-2.9-5
					C305.4,238.2,307.1,239.6,306.4,242z"/>
			</g>
			<g id="path2850-7_2_">
				<path inkscape:connector-curvature="0" sodipodi:nodetypes="ccc" fill="#FFEE71" d="M306.9,244c-0.7-2.5,1.1-3.9,3-5
					C309.8,241.2,309.3,243.5,306.9,244z"/>
			</g>
			<g id="path2856-1_2_">
				<path inkscape:connector-curvature="0" sodipodi:nodetypes="ccc" fill="#FFEE71" d="M305.4,237c-2.6,0.1-3.5-1.9-4.1-4.1
					C303.4,233.6,305.4,234.5,305.4,237L305.4,237z"/>
			</g>
			<g id="path2862-1_2_">
				<path inkscape:connector-curvature="0" sodipodi:nodetypes="ccc" fill="#FFEE71" d="M307.1,239.9c-1.6-2.1-0.3-4,1.1-5.7
					C308.8,236.3,309.2,238.6,307.1,239.9z"/>
			</g>
			<g id="path2868-5_2_">
				<path inkscape:connector-curvature="0" sodipodi:nodetypes="ccc" fill="#FFEE71" d="M304.2,233.3c-2.6-0.2-3.3-2.3-3.7-4.5
					C302.6,229.6,304.5,230.8,304.2,233.3z"/>
			</g>
			<g id="path2874-2_2_">
				<path inkscape:connector-curvature="0" sodipodi:nodetypes="ccc" fill="#FFEE71" d="M305.9,235.5c-2-1.8-1.1-3.8-0.1-5.8
					C306.9,231.7,307.7,233.8,305.9,235.5z"/>
			</g>
		</g>
	</g>
</g>
<g id="Awards_5_">
	<g>
		<path fill="#FFEE71" d="M434.4,5.7h-0.9c-0.2,0-0.3-0.2-0.3-0.3s0.2-0.3,0.3-0.3h1.3c0.2,0,0.4,0.2,0.4,0.4v1.1
			c0,0.2,0,0.3-0.1,0.4c-0.3,0.4-1.1,0.7-1.8,0.7c-1.4,0-2.1-0.7-2.1-2.4c0-1.6,0.8-2.4,2.1-2.4c0.8,0,1.4,0.3,1.6,0.7
			c0.1,0.1,0.1,0.2,0.1,0.2c0,0.2-0.2,0.4-0.4,0.4c-0.1,0-0.2,0-0.3-0.1c-0.3-0.3-0.6-0.5-1.1-0.5c-0.9,0-1.3,0.6-1.3,1.7
			c0,1.2,0.4,1.7,1.3,1.7c0.5,0,0.9-0.1,1.1-0.4V5.7z"/>
		<path fill="#FFEE71" d="M436.4,5.2c-0.1,0-0.1,0.1-0.2,0.1c-0.2,0-0.3-0.1-0.3-0.3c0-0.1,0-0.2,0.1-0.2c0.2-0.2,0.5-0.4,1.1-0.4
			c0.8,0,1.4,0.4,1.4,1.1v1.8c0,0.2-0.2,0.4-0.4,0.4s-0.4-0.2-0.4-0.4c-0.2,0.3-0.5,0.4-0.9,0.4c-0.7,0-1.1-0.4-1.1-1
			c0-0.6,0.5-1,1.1-1h0.9V5.4c0-0.3-0.2-0.5-0.6-0.5C436.8,4.9,436.6,5.1,436.4,5.2z M437.7,6.3V6.1h-0.8c-0.3,0-0.5,0.1-0.5,0.4
			c0,0.3,0.2,0.4,0.6,0.4C437.4,6.9,437.7,6.7,437.7,6.3z"/>
		<path fill="#FFEE71" d="M443.9,5.5v1.7c0,0.2-0.2,0.4-0.4,0.4c-0.2,0-0.4-0.2-0.4-0.4V5.6c0-0.4-0.2-0.7-0.6-0.7
			c-0.5,0-0.7,0.3-0.7,0.6v1.6c0,0.2-0.2,0.4-0.4,0.4c-0.2,0-0.4-0.2-0.4-0.4V5.6c0-0.4-0.2-0.7-0.6-0.7c-0.5,0-0.7,0.3-0.7,0.7v1.5
			c0,0.2-0.2,0.4-0.4,0.4s-0.4-0.2-0.4-0.4V4.7c0-0.2,0.2-0.4,0.4-0.4s0.4,0.2,0.4,0.4c0.1-0.2,0.4-0.4,0.9-0.4c0.6,0,0.8,0.2,1,0.4
			c0.2-0.3,0.5-0.4,1-0.4C443.6,4.3,443.9,4.9,443.9,5.5z"/>
		<path fill="#FFEE71" d="M445.8,4.3c1.2,0,1.4,0.9,1.4,1.4c0,0.3,0,0.5-0.4,0.5h-1.7c0,0.5,0.3,0.7,0.8,0.7c0.3,0,0.5-0.1,0.7-0.2
			c0.1,0,0.1-0.1,0.2-0.1c0.2,0,0.3,0.1,0.3,0.3c0,0.1-0.1,0.2-0.1,0.3c-0.1,0.1-0.5,0.4-1.1,0.4c-1,0-1.5-0.5-1.5-1.7
			C444.4,4.8,444.9,4.3,445.8,4.3z M445.1,5.6h1.4c0-0.3-0.2-0.7-0.6-0.7C445.4,4.9,445.2,5.1,445.1,5.6z"/>
		<path fill="#FFEE71" d="M449.7,3.6v3.6c0,0.2-0.2,0.4-0.4,0.4s-0.4-0.2-0.4-0.4V3.6h-1c-0.2,0-0.3-0.2-0.3-0.3s0.2-0.3,0.3-0.3
			h2.9c0.2,0,0.3,0.2,0.3,0.3s-0.2,0.3-0.3,0.3H449.7z"/>
		<path fill="#FFEE71" d="M451.8,4.7c0.1-0.3,0.5-0.4,0.7-0.4c0.2,0,0.3,0.2,0.3,0.3S452.7,5,452.5,5c-0.5,0-0.7,0.3-0.7,0.8v1.4
			c0,0.2-0.2,0.4-0.4,0.4S451,7.4,451,7.1V4.7c0-0.2,0.2-0.4,0.4-0.4S451.8,4.5,451.8,4.7L451.8,4.7z"/>
		<path fill="#FFEE71" d="M453.7,5.2c-0.1,0-0.1,0.1-0.2,0.1c-0.2,0-0.3-0.1-0.3-0.3c0-0.1,0-0.2,0.1-0.2c0.2-0.2,0.5-0.4,1.1-0.4
			c0.8,0,1.4,0.4,1.4,1.1v1.8c0,0.2-0.2,0.4-0.4,0.4S455,7.4,455,7.2c-0.2,0.3-0.5,0.4-0.9,0.4c-0.7,0-1.1-0.4-1.1-1
			c0-0.6,0.5-1,1.1-1h0.9V5.4c0-0.3-0.2-0.5-0.6-0.5C454.1,4.9,453.9,5.1,453.7,5.2z M455,6.3V6.1h-0.8c-0.3,0-0.5,0.1-0.5,0.4
			c0,0.3,0.2,0.4,0.6,0.4C454.7,6.9,455,6.7,455,6.3z"/>
		<path fill="#FFEE71" d="M456.4,3.5c0-0.3,0.2-0.5,0.4-0.5c0.3,0,0.4,0.1,0.4,0.5c0,0.3-0.2,0.4-0.4,0.4
			C456.5,3.9,456.4,3.8,456.4,3.5z M457.2,7.1c0,0.2-0.2,0.4-0.4,0.4s-0.4-0.2-0.4-0.4V4.7c0-0.2,0.2-0.4,0.4-0.4s0.4,0.2,0.4,0.4
			V7.1z"/>
		<path fill="#FFEE71" d="M458.6,3v3.7c0,0.1,0.1,0.1,0.1,0.1c0.2,0,0.3,0.2,0.3,0.3s-0.2,0.3-0.3,0.3c-0.5,0-0.9-0.3-0.9-0.9V3
			c0-0.2,0.2-0.4,0.4-0.4S458.6,2.8,458.6,3z"/>
		<path fill="#FFEE71" d="M460.9,4.3c1.2,0,1.4,0.9,1.4,1.4c0,0.3,0,0.5-0.4,0.5h-1.7c0,0.5,0.3,0.7,0.8,0.7c0.3,0,0.5-0.1,0.7-0.2
			c0.1,0,0.1-0.1,0.2-0.1c0.2,0,0.3,0.1,0.3,0.3c0,0.1-0.1,0.2-0.1,0.3c-0.1,0.1-0.5,0.4-1.1,0.4c-1,0-1.5-0.5-1.5-1.7
			C459.4,4.8,459.9,4.3,460.9,4.3z M460.2,5.6h1.4c0-0.3-0.2-0.7-0.6-0.7C460.5,4.9,460.2,5.1,460.2,5.6z"/>
		<path fill="#FFEE71" d="M463.5,4.7c0.1-0.3,0.5-0.4,0.7-0.4c0.2,0,0.3,0.2,0.3,0.3S464.4,5,464.2,5c-0.5,0-0.7,0.3-0.7,0.8v1.4
			c0,0.2-0.2,0.4-0.4,0.4s-0.4-0.2-0.4-0.4V4.7c0-0.2,0.2-0.4,0.4-0.4S463.5,4.5,463.5,4.7L463.5,4.7z"/>
		<path fill="#FFEE71" d="M465.6,5.2c0,0.5,1.7,0.3,1.7,1.4c0,0.6-0.5,1-1.3,1c-0.6,0-1-0.3-1.2-0.5c-0.1-0.1-0.1-0.1-0.1-0.2
			c0-0.2,0.2-0.3,0.3-0.3c0.1,0,0.1,0,0.2,0.1c0.2,0.2,0.4,0.3,0.8,0.3c0.3,0,0.5-0.1,0.5-0.3c0-0.6-1.7-0.3-1.7-1.4
			c0-0.6,0.5-0.9,1.1-0.9c0.5,0,0.9,0.2,1.1,0.4c0,0.1,0.1,0.1,0.1,0.2c0,0.2-0.2,0.3-0.3,0.3c-0.1,0-0.2,0-0.2-0.1
			c-0.2-0.1-0.3-0.2-0.6-0.2C465.8,4.9,465.6,5,465.6,5.2z"/>
		<path fill="#FFEE71" d="M471,6.1h-1.4c-0.2,0-0.3-0.1-0.3-0.3s0.1-0.3,0.3-0.3h1.4c0.2,0,0.3,0.1,0.3,0.3S471.2,6.1,471,6.1z"/>
		<path fill="#FFEE71" d="M473.7,3.8c0-0.2,0.2-0.4,0.4-0.4s0.4,0.2,0.4,0.4v0.6h0.3c0.2,0,0.3,0.1,0.3,0.3S475,5,474.8,5h-0.3v1.7
			c0,0.2,0.1,0.2,0.3,0.2c0.2,0,0.3,0.1,0.3,0.3s-0.1,0.3-0.3,0.3c-0.6,0-1-0.4-1-0.9V5h-0.2c-0.2,0-0.3-0.1-0.3-0.3
			s0.1-0.3,0.3-0.3h0.2V3.8z"/>
		<path fill="#FFEE71" d="M477,7.6c-0.9,0-1.5-0.5-1.5-1.6c0-1.1,0.6-1.6,1.5-1.6s1.5,0.5,1.5,1.6C478.5,7,477.9,7.6,477,7.6z
			 M477,4.9c-0.5,0-0.8,0.3-0.8,1c0,0.7,0.3,1,0.8,1s0.8-0.3,0.8-1C477.7,5.2,477.4,4.9,477,4.9z"/>
		<path fill="#FFEE71" d="M480.6,4.3c0.9,0,1.4,0.5,1.4,1.6s-0.5,1.6-1.4,1.6c-0.3,0-0.6-0.1-0.8-0.3v1.2c0,0.2-0.2,0.4-0.4,0.4
			S479,8.7,479,8.5V4.7c0-0.2,0.2-0.4,0.4-0.4s0.4,0.2,0.4,0.4C479.9,4.5,480.2,4.3,480.6,4.3z M480.5,4.9c-0.5,0-0.7,0.3-0.7,1
			c0,0.7,0.3,1,0.7,1s0.7-0.3,0.7-1C481.2,5.2,481,4.9,480.5,4.9z"/>
		<path fill="#FFEE71" d="M487.3,5.9c0,1.1-0.7,1.6-1.7,1.6c-0.9,0-1.4-0.5-1.7-0.9c0-0.1,0-0.1,0-0.2c0-0.2,0.2-0.4,0.4-0.4
			c0.1,0,0.2,0,0.3,0.2c0.3,0.4,0.5,0.6,1,0.6c0.5,0,0.9-0.3,0.9-1c0-0.6-0.4-0.9-0.9-0.9c-0.4,0-0.6,0.1-0.9,0.3
			c-0.1,0.1-0.2,0.1-0.3,0.1c-0.2,0-0.4-0.2-0.4-0.4c0,0,0-0.1,0-0.1l0.3-1.8c0-0.1,0.2-0.3,0.3-0.3h2.1c0.2,0,0.3,0.2,0.3,0.3
			s-0.2,0.3-0.3,0.3H485l-0.2,0.9c0.2-0.1,0.4-0.2,0.8-0.2C486.6,4.3,487.3,4.8,487.3,5.9z"/>
		<path fill="#FFEE71" d="M490.4,7.1c0,0.2-0.2,0.4-0.4,0.4s-0.4-0.2-0.4-0.4V3.2c0-0.2,0.2-0.4,0.4-0.4s0.4,0.2,0.4,0.4V7.1z"/>
		<path fill="#FFEE71" d="M493.9,5.5v1.7c0,0.2-0.2,0.4-0.4,0.4c-0.2,0-0.4-0.2-0.4-0.4V5.6c0-0.4-0.2-0.7-0.6-0.7
			c-0.5,0-0.7,0.3-0.7,0.7v1.5c0,0.2-0.2,0.4-0.4,0.4s-0.4-0.2-0.4-0.4V4.7c0-0.2,0.2-0.4,0.4-0.4s0.4,0.2,0.4,0.4
			c0.1-0.2,0.4-0.4,0.9-0.4C493.7,4.3,493.9,4.9,493.9,5.5z"/>
		<path fill="#FFEE71" d="M496.5,4.5V3c0-0.2,0.2-0.4,0.4-0.4s0.4,0.2,0.4,0.4v3.2c0,0.9-0.6,1.4-1.4,1.4c-0.9,0-1.5-0.5-1.5-1.6
			s0.5-1.6,1.4-1.6C496.1,4.3,496.4,4.4,496.5,4.5z M496.5,5.2c0,0-0.3-0.3-0.7-0.3c-0.5,0-0.7,0.3-0.7,1c0,0.7,0.3,1,0.7,1
			c0.4,0,0.7-0.3,0.7-0.7V5.2z"/>
		<path fill="#FFEE71" d="M497.9,3.5c0-0.3,0.2-0.5,0.4-0.5c0.3,0,0.4,0.1,0.4,0.5c0,0.3-0.2,0.4-0.4,0.4
			C498.1,3.9,497.9,3.8,497.9,3.5z M498.7,7.1c0,0.2-0.2,0.4-0.4,0.4S498,7.4,498,7.1V4.7c0-0.2,0.2-0.4,0.4-0.4s0.4,0.2,0.4,0.4
			V7.1z"/>
		<path fill="#FFEE71" d="M500.7,4.3c1.2,0,1.4,0.9,1.4,1.4c0,0.3,0,0.5-0.4,0.5H500c0,0.5,0.3,0.7,0.8,0.7c0.3,0,0.5-0.1,0.7-0.2
			c0.1,0,0.1-0.1,0.2-0.1c0.2,0,0.3,0.1,0.3,0.3c0,0.1-0.1,0.2-0.1,0.3c-0.1,0.1-0.5,0.4-1.1,0.4c-1,0-1.5-0.5-1.5-1.7
			C499.3,4.8,499.8,4.3,500.7,4.3z M500,5.6h1.4c0-0.3-0.2-0.7-0.6-0.7C500.3,4.9,500,5.1,500,5.6z"/>
		<path fill="#FFEE71" d="M507.3,5.7h-0.9c-0.2,0-0.3-0.2-0.3-0.3s0.2-0.3,0.3-0.3h1.3c0.2,0,0.4,0.2,0.4,0.4v1.1
			c0,0.2,0,0.3-0.1,0.4c-0.3,0.4-1.1,0.7-1.8,0.7c-1.4,0-2.1-0.7-2.1-2.4c0-1.6,0.8-2.4,2.1-2.4c0.8,0,1.4,0.3,1.6,0.7
			c0.1,0.1,0.1,0.2,0.1,0.2c0,0.2-0.2,0.4-0.4,0.4c-0.1,0-0.2,0-0.3-0.1c-0.3-0.3-0.6-0.5-1.1-0.5c-0.9,0-1.3,0.6-1.3,1.7
			c0,1.2,0.4,1.7,1.3,1.7c0.5,0,0.9-0.1,1.1-0.4V5.7z"/>
		<path fill="#FFEE71" d="M509.3,5.2c-0.1,0-0.1,0.1-0.2,0.1c-0.2,0-0.3-0.1-0.3-0.3c0-0.1,0-0.2,0.1-0.2c0.2-0.2,0.5-0.4,1.1-0.4
			c0.8,0,1.4,0.4,1.4,1.1v1.8c0,0.2-0.2,0.4-0.4,0.4s-0.4-0.2-0.4-0.4c-0.2,0.3-0.5,0.4-0.9,0.4c-0.7,0-1.1-0.4-1.1-1
			c0-0.6,0.5-1,1.1-1h0.9V5.4c0-0.3-0.2-0.5-0.6-0.5C509.7,4.9,509.5,5.1,509.3,5.2z M510.6,6.3V6.1h-0.8c-0.3,0-0.5,0.1-0.5,0.4
			c0,0.3,0.2,0.4,0.6,0.4C510.3,6.9,510.6,6.7,510.6,6.3z"/>
		<path fill="#FFEE71" d="M516.8,5.5v1.7c0,0.2-0.2,0.4-0.4,0.4c-0.2,0-0.4-0.2-0.4-0.4V5.6c0-0.4-0.2-0.7-0.6-0.7
			c-0.5,0-0.7,0.3-0.7,0.6v1.6c0,0.2-0.2,0.4-0.4,0.4c-0.2,0-0.4-0.2-0.4-0.4V5.6c0-0.4-0.2-0.7-0.6-0.7c-0.5,0-0.7,0.3-0.7,0.7v1.5
			c0,0.2-0.2,0.4-0.4,0.4S512,7.4,512,7.2V4.7c0-0.2,0.2-0.4,0.4-0.4s0.4,0.2,0.4,0.4c0.1-0.2,0.4-0.4,0.9-0.4c0.6,0,0.8,0.2,1,0.4
			c0.2-0.3,0.5-0.4,1-0.4C516.5,4.3,516.8,4.9,516.8,5.5z"/>
		<path fill="#FFEE71" d="M518.8,4.3c1.2,0,1.4,0.9,1.4,1.4c0,0.3,0,0.5-0.4,0.5H518c0,0.5,0.3,0.7,0.8,0.7c0.3,0,0.5-0.1,0.7-0.2
			c0.1,0,0.1-0.1,0.2-0.1c0.2,0,0.3,0.1,0.3,0.3c0,0.1-0.1,0.2-0.1,0.3c-0.1,0.1-0.5,0.4-1.1,0.4c-1,0-1.5-0.5-1.5-1.7
			C517.3,4.8,517.8,4.3,518.8,4.3z M518.1,5.6h1.4c0-0.3-0.2-0.7-0.6-0.7C518.4,4.9,518.1,5.1,518.1,5.6z"/>
		<path fill="#FFEE71" d="M521.3,5.2c0,0.5,1.7,0.3,1.7,1.4c0,0.6-0.5,1-1.3,1c-0.6,0-1-0.3-1.2-0.5c-0.1-0.1-0.1-0.1-0.1-0.2
			c0-0.2,0.2-0.3,0.3-0.3c0.1,0,0.1,0,0.2,0.1c0.2,0.2,0.4,0.3,0.8,0.3c0.3,0,0.5-0.1,0.5-0.3c0-0.6-1.7-0.3-1.7-1.4
			c0-0.6,0.5-0.9,1.1-0.9c0.5,0,0.9,0.2,1.1,0.4c0,0.1,0.1,0.1,0.1,0.2c0,0.2-0.2,0.3-0.3,0.3c-0.1,0-0.2,0-0.2-0.1
			c-0.2-0.1-0.3-0.2-0.6-0.2C521.5,4.9,521.3,5,521.3,5.2z"/>
		<path fill="#FFEE71" d="M453.4,13.5c-0.1,0-0.1,0.1-0.2,0.1c-0.1,0-0.2-0.1-0.2-0.2c0-0.1,0-0.1,0.1-0.2c0.2-0.2,0.4-0.3,0.9-0.3
			c0.7,0,1.1,0.3,1.1,0.9v0.8c0,0.2,0.1,0.3,0.3,0.3c0.3,0,0.5-0.2,0.5-0.8c0-1.2-0.7-1.7-1.8-1.7c-1.1,0-1.9,0.6-1.9,1.9
			c0,1.3,0.7,1.9,1.9,1.9c0.5,0,1-0.1,1.4-0.3c0,0,0.1,0,0.2,0c0.2,0,0.3,0.1,0.3,0.3c0,0.1,0,0.2-0.2,0.3c-0.5,0.3-1,0.4-1.7,0.4
			c-1.5,0-2.5-0.9-2.5-2.5s1-2.4,2.5-2.4c1.4,0,2.5,0.8,2.5,2.3c0,0.6-0.3,1.4-1.2,1.4c-0.4,0-0.6-0.3-0.7-0.4
			c-0.2,0.2-0.4,0.4-0.8,0.4c-0.5,0-0.9-0.3-0.9-0.8c0-0.5,0.4-0.7,0.9-0.7h0.7v-0.1c0-0.2-0.2-0.4-0.5-0.4
			C453.7,13.3,453.5,13.4,453.4,13.5z M454.4,14.4v-0.1h-0.6c-0.2,0-0.4,0.1-0.4,0.3c0,0.2,0.1,0.3,0.4,0.3
			C454.1,14.8,454.4,14.7,454.4,14.4z"/>
		<path fill="#FFEE71" d="M459.4,13.5v1.4c0,0.2-0.2,0.4-0.4,0.4s-0.4-0.2-0.4-0.4v-3.9c0-0.2,0.2-0.4,0.4-0.4h1.3
			c0.8,0,1.4,0.4,1.4,1.4c0,0.9-0.6,1.4-1.4,1.4H459.4z M459.4,11.4v1.4h0.8c0.4,0,0.7-0.3,0.7-0.7c0-0.5-0.3-0.7-0.7-0.7H459.4z"/>
		<path fill="#FFEE71" d="M462.8,14.1l-0.4,1c-0.1,0.1-0.2,0.3-0.4,0.3c-0.2,0-0.4-0.2-0.4-0.4c0,0,0-0.1,0-0.1l1.6-3.9
			c0-0.1,0.2-0.2,0.4-0.2s0.3,0.2,0.4,0.2l1.6,3.9c0,0,0,0.1,0,0.1c0,0.2-0.2,0.4-0.4,0.4c-0.2,0-0.3-0.1-0.4-0.3l-0.4-1H462.8z
			 M463.6,11.9l-0.6,1.4h1.1L463.6,11.9z"/>
		<path fill="#FFEE71" d="M467.6,13.6l-1.1,1.6c-0.1,0.1-0.2,0.2-0.3,0.2c-0.2,0-0.4-0.2-0.4-0.4c0-0.1,0-0.2,0.1-0.2l1.3-1.8
			l-1.2-1.7c0-0.1-0.1-0.1-0.1-0.2c0-0.2,0.2-0.4,0.4-0.4c0.1,0,0.2,0.1,0.3,0.2l1,1.5l1-1.5c0.1-0.1,0.2-0.2,0.3-0.2
			c0.2,0,0.4,0.2,0.4,0.4c0,0.1,0,0.2-0.1,0.2l-1.2,1.7l1.3,1.8c0,0.1,0.1,0.1,0.1,0.2c0,0.2-0.2,0.4-0.4,0.4
			c-0.1,0-0.2-0.1-0.3-0.2L467.6,13.6z"/>
		<path fill="#FFEE71" d="M472.2,12.6h1.3c0.2,0,0.3,0.2,0.3,0.3s-0.2,0.3-0.3,0.3h-1.3v1.3h1.8c0.2,0,0.4,0.2,0.4,0.4
			s-0.2,0.4-0.4,0.4h-2.2c-0.2,0-0.4-0.2-0.4-0.4v-3.8c0-0.2,0.2-0.4,0.4-0.4h2.1c0.2,0,0.4,0.2,0.4,0.4s-0.2,0.4-0.4,0.4h-1.7V12.6
			z"/>
		<path fill="#FFEE71" d="M475.9,14.1l-0.4,1c-0.1,0.1-0.2,0.3-0.4,0.3c-0.2,0-0.4-0.2-0.4-0.4c0,0,0-0.1,0-0.1l1.6-3.9
			c0-0.1,0.2-0.2,0.4-0.2s0.3,0.2,0.4,0.2l1.6,3.9c0,0,0,0.1,0,0.1c0,0.2-0.2,0.4-0.4,0.4c-0.2,0-0.3-0.1-0.4-0.3l-0.4-1H475.9z
			 M476.7,11.9l-0.6,1.4h1.1L476.7,11.9z"/>
		<path fill="#FFEE71" d="M480.8,11.3c-0.6,0-0.8,0.3-0.8,0.5c0,0.9,2.5,0.5,2.5,2.2c0,0.8-0.6,1.4-1.7,1.4c-0.8,0-1.5-0.4-1.7-0.8
			c0-0.1-0.1-0.1-0.1-0.2c0-0.2,0.2-0.4,0.4-0.4c0.2,0,0.2,0.1,0.3,0.2c0.3,0.3,0.6,0.5,1.1,0.5c0.6,0,0.9-0.2,0.9-0.6
			c0-1-2.5-0.5-2.5-2.2c0-0.7,0.5-1.3,1.6-1.3c0.7,0,1.3,0.3,1.6,0.6c0,0.1,0.1,0.1,0.1,0.2c0,0.2-0.2,0.4-0.4,0.4
			c-0.1,0-0.2-0.1-0.3-0.2C481.6,11.4,481.2,11.3,480.8,11.3z"/>
		<path fill="#FFEE71" d="M484.9,11.4v3.6c0,0.2-0.2,0.4-0.4,0.4s-0.4-0.2-0.4-0.4v-3.6h-1c-0.2,0-0.3-0.2-0.3-0.3s0.2-0.3,0.3-0.3
			h2.9c0.2,0,0.3,0.2,0.3,0.3s-0.2,0.3-0.3,0.3H484.9z"/>
		<path fill="#FFEE71" d="M489.9,10.6c1,0,1.6,0.6,1.6,1.4c0,1.4-2.4,2-2.4,2.6h2.1c0.2,0,0.3,0.2,0.3,0.3s-0.2,0.3-0.3,0.3h-2.6
			c-0.2,0-0.3-0.2-0.3-0.3c0-1.5,2.5-1.7,2.5-2.9c0-0.4-0.3-0.7-0.8-0.7c-0.4,0-0.7,0.2-0.8,0.5c-0.1,0.1-0.2,0.2-0.3,0.2
			c-0.2,0-0.4-0.2-0.4-0.4c0-0.1,0-0.1,0-0.2C488.7,10.9,489.2,10.6,489.9,10.6z"/>
		<path fill="#FFEE71" d="M495.6,13c0,1.6-0.6,2.4-1.8,2.4c-1.2,0-1.8-0.8-1.8-2.4c0-1.6,0.6-2.4,1.8-2.4
			C495.1,10.6,495.6,11.3,495.6,13z M494.9,13c0-1.2-0.3-1.7-1-1.7s-1,0.5-1,1.7c0,1.2,0.3,1.7,1,1.7S494.9,14.2,494.9,13z"/>
		<path fill="#FFEE71" d="M496.7,12c-0.1,0-0.1,0.1-0.2,0.1c-0.2,0-0.4-0.2-0.4-0.4c0-0.1,0.1-0.3,0.2-0.3l1-0.6
			c0.1,0,0.1-0.1,0.2-0.1c0.2,0,0.4,0.2,0.4,0.4v3.9c0,0.2-0.2,0.4-0.4,0.4s-0.4-0.2-0.4-0.4v-3.3L496.7,12z"/>
		<path fill="#FFEE71" d="M502,13.7c0,1.1-0.7,1.6-1.7,1.6c-0.9,0-1.4-0.5-1.7-0.9c0-0.1,0-0.1,0-0.2c0-0.2,0.2-0.4,0.4-0.4
			c0.1,0,0.2,0,0.3,0.2c0.3,0.4,0.5,0.6,1,0.6c0.5,0,0.9-0.3,0.9-1c0-0.6-0.4-0.9-0.9-0.9c-0.4,0-0.6,0.1-0.9,0.3
			c-0.1,0.1-0.2,0.1-0.3,0.1c-0.2,0-0.4-0.2-0.4-0.4c0,0,0-0.1,0-0.1l0.3-1.8c0-0.1,0.2-0.3,0.3-0.3h2.1c0.2,0,0.3,0.2,0.3,0.3
			s-0.2,0.3-0.3,0.3h-1.8l-0.2,0.9c0.2-0.1,0.4-0.2,0.8-0.2C501.3,12.1,502,12.6,502,13.7z"/>
		<path fill="#FFEE71" d="M445.2,23.6c0-2.3,1.1-3.4,3-3.4c1.9,0,3,1.1,3,3.4c0,2.2-1.1,3.4-3,3.4C446.3,26.9,445.2,25.8,445.2,23.6
			z M446.3,23.6c0,1.6,0.6,2.4,1.9,2.4s1.9-0.8,1.9-2.4c0-1.6-0.6-2.4-1.9-2.4S446.3,22,446.3,23.6z"/>
		<path fill="#FFEE71" d="M459.1,26.4c0,0.3-0.2,0.5-0.5,0.5s-0.5-0.2-0.5-0.5v-3.1h-1.7v3.1c0,0.3-0.2,0.5-0.5,0.5
			c-0.3,0-0.5-0.2-0.5-0.5v-3.1h-1.9v3.1c0,0.3-0.2,0.5-0.5,0.5c-0.3,0-0.5-0.2-0.5-0.5v-3.1h-0.2c-0.2,0-0.4-0.2-0.4-0.4
			s0.2-0.4,0.4-0.4h0.2v-0.5c0-0.9,0.6-1.7,1.8-1.7c0.2,0,0.5,0.2,0.5,0.5c0,0.2-0.2,0.5-0.5,0.5c-0.5,0-0.8,0.3-0.8,0.7v0.6h1.9V22
			c0-0.9,0.7-1.8,1.9-1.8c0.4,0,0.9,0.1,1.1,0.2c0.2,0.1,0.3,0.2,0.3,0.4c0,0.3-0.2,0.5-0.5,0.5c-0.1,0-0.1,0-0.2-0.1
			c-0.2-0.1-0.4-0.1-0.6-0.1c-0.5,0-0.9,0.3-0.9,0.7v0.5h2.2c0.3,0,0.5,0.2,0.5,0.5V26.4z"/>
		<path fill="#FFEE71" d="M462,22.3c0.9,0,1.4,0.4,1.6,0.7c0.1,0.1,0.1,0.2,0.1,0.3c0,0.3-0.2,0.5-0.5,0.5c-0.2,0-0.3-0.1-0.4-0.2
			c-0.1-0.1-0.4-0.4-0.9-0.4c-0.7,0-1,0.5-1,1.4c0,0.9,0.4,1.4,1,1.4c0.4,0,0.7-0.2,1-0.4c0.1-0.1,0.2-0.1,0.3-0.1
			c0.3,0,0.5,0.2,0.5,0.5c0,0.1,0,0.2-0.2,0.4c-0.2,0.2-0.8,0.5-1.5,0.5c-1.3,0-2.1-0.8-2.1-2.3C459.9,23,460.6,22.3,462,22.3z"/>
		<path fill="#FFEE71" d="M464.4,21.2c0-0.4,0.2-0.6,0.6-0.6c0.4,0,0.6,0.2,0.6,0.6c0,0.4-0.2,0.6-0.6,0.6
			C464.6,21.8,464.4,21.6,464.4,21.2z M465.5,26.4c0,0.3-0.2,0.5-0.5,0.5c-0.3,0-0.5-0.2-0.5-0.5v-3.5c0-0.3,0.2-0.5,0.5-0.5
			c0.3,0,0.5,0.2,0.5,0.5V26.4z"/>
		<path fill="#FFEE71" d="M467.2,23.6c-0.1,0.1-0.2,0.1-0.3,0.1c-0.2,0-0.5-0.2-0.5-0.5c0-0.1,0-0.2,0.1-0.3
			c0.3-0.3,0.7-0.6,1.6-0.6c1.2,0,1.9,0.6,1.9,1.6v2.5c0,0.3-0.2,0.5-0.5,0.5c-0.3,0-0.5-0.2-0.5-0.5c-0.3,0.4-0.7,0.6-1.3,0.6
			c-0.9,0-1.6-0.6-1.6-1.5c0-0.9,0.7-1.4,1.6-1.4h1.3V24c0-0.4-0.3-0.7-0.9-0.7C467.8,23.2,467.5,23.4,467.2,23.6z M469,25.2v-0.3
			h-1.1c-0.4,0-0.7,0.2-0.7,0.5c0,0.4,0.3,0.6,0.8,0.6C468.6,26.1,469,25.7,469,25.2z"/>
		<path fill="#FFEE71" d="M472.1,20.5v5.3c0,0.1,0.1,0.2,0.2,0.2c0.3,0,0.5,0.2,0.5,0.5c0,0.3-0.2,0.5-0.5,0.5
			c-0.8,0-1.2-0.4-1.2-1.2v-5.2c0-0.3,0.2-0.5,0.5-0.5C471.8,20,472.1,20.2,472.1,20.5z"/>
		<path fill="#FFEE71" d="M477.8,21.2c-0.8,0-1.1,0.4-1.1,0.8c0,1.3,3.5,0.7,3.5,3.1c0,1.2-0.8,1.9-2.4,1.9c-1.1,0-2.1-0.6-2.4-1.2
			c0-0.1-0.1-0.2-0.1-0.3c0-0.3,0.2-0.5,0.5-0.5c0.2,0,0.3,0.1,0.4,0.2c0.4,0.4,0.9,0.7,1.6,0.7c0.9,0,1.3-0.3,1.3-0.9
			c0-1.4-3.5-0.8-3.5-3.1c0-1,0.7-1.8,2.2-1.8c1,0,1.8,0.4,2.2,0.9c0.1,0.1,0.1,0.2,0.1,0.3c0,0.3-0.2,0.5-0.5,0.5
			c-0.1,0-0.3-0.1-0.4-0.2C478.9,21.4,478.4,21.2,477.8,21.2z"/>
		<path fill="#FFEE71" d="M482.9,22.3c1.6,0,1.9,1.2,1.9,1.9c0,0.4,0,0.8-0.6,0.8h-2.4c0,0.7,0.5,1,1.1,1c0.4,0,0.7-0.1,1-0.3
			c0.1-0.1,0.2-0.1,0.3-0.1c0.2,0,0.5,0.2,0.5,0.5c0,0.2-0.1,0.3-0.2,0.4c-0.2,0.2-0.7,0.5-1.5,0.5c-1.3,0-2.2-0.7-2.2-2.3
			C480.8,23.1,481.6,22.3,482.9,22.3z M481.9,24.1h1.9c0-0.5-0.3-0.9-0.9-0.9C482.3,23.2,481.9,23.5,481.9,24.1z"/>
		<path fill="#FFEE71" d="M486.6,20.5v5.3c0,0.1,0.1,0.2,0.2,0.2c0.3,0,0.5,0.2,0.5,0.5c0,0.3-0.2,0.5-0.5,0.5
			c-0.8,0-1.2-0.4-1.2-1.2v-5.2c0-0.3,0.2-0.5,0.5-0.5C486.4,20,486.6,20.2,486.6,20.5z"/>
		<path fill="#FFEE71" d="M489.7,22.3c1.6,0,1.9,1.2,1.9,1.9c0,0.4,0,0.8-0.6,0.8h-2.4c0,0.7,0.5,1,1.1,1c0.4,0,0.7-0.1,1-0.3
			c0.1-0.1,0.2-0.1,0.3-0.1c0.2,0,0.5,0.2,0.5,0.5c0,0.2-0.1,0.3-0.2,0.4c-0.2,0.2-0.7,0.5-1.5,0.5c-1.3,0-2.2-0.7-2.2-2.3
			C487.7,23.1,488.4,22.3,489.7,22.3z M488.7,24.1h1.9c0-0.5-0.3-0.9-0.9-0.9C489.2,23.2,488.8,23.5,488.7,24.1z"/>
		<path fill="#FFEE71" d="M494.3,22.3c0.9,0,1.4,0.4,1.6,0.7c0.1,0.1,0.1,0.2,0.1,0.3c0,0.3-0.2,0.5-0.5,0.5c-0.2,0-0.3-0.1-0.4-0.2
			c-0.1-0.1-0.4-0.4-0.9-0.4c-0.7,0-1,0.5-1,1.4c0,0.9,0.4,1.4,1,1.4c0.4,0,0.7-0.2,1-0.4c0.1-0.1,0.2-0.1,0.3-0.1
			c0.3,0,0.5,0.2,0.5,0.5c0,0.1,0,0.2-0.2,0.4c-0.2,0.2-0.8,0.5-1.5,0.5c-1.3,0-2.1-0.8-2.1-2.3C492.2,23,493,22.3,494.3,22.3z"/>
		<path fill="#FFEE71" d="M497.1,21.6c0-0.3,0.2-0.5,0.5-0.5c0.3,0,0.5,0.2,0.5,0.5v0.8h0.4c0.2,0,0.4,0.2,0.4,0.4s-0.2,0.4-0.4,0.4
			h-0.4v2.3c0,0.2,0.2,0.3,0.4,0.3c0.2,0,0.5,0.2,0.5,0.5s-0.2,0.5-0.5,0.5c-0.9,0-1.4-0.5-1.4-1.3v-2.3h-0.2
			c-0.2,0-0.4-0.2-0.4-0.4s0.2-0.4,0.4-0.4h0.2V21.6z"/>
		<path fill="#FFEE71" d="M499.6,21.2c0-0.4,0.2-0.6,0.6-0.6c0.4,0,0.6,0.2,0.6,0.6c0,0.4-0.2,0.6-0.6,0.6
			C499.8,21.8,499.6,21.6,499.6,21.2z M500.8,26.4c0,0.3-0.2,0.5-0.5,0.5c-0.3,0-0.5-0.2-0.5-0.5v-3.5c0-0.3,0.2-0.5,0.5-0.5
			c0.3,0,0.5,0.2,0.5,0.5V26.4z"/>
		<path fill="#FFEE71" d="M503.6,26.9c-1.3,0-2.1-0.7-2.1-2.3c0-1.6,0.8-2.3,2.1-2.3c1.3,0,2.1,0.7,2.1,2.3
			C505.7,26.2,504.9,26.9,503.6,26.9z M503.6,23.2c-0.7,0-1.1,0.5-1.1,1.4c0,0.9,0.4,1.4,1.1,1.4c0.7,0,1.1-0.5,1.1-1.4
			C504.7,23.7,504.3,23.2,503.6,23.2z"/>
		<path fill="#FFEE71" d="M510.4,24v2.4c0,0.3-0.2,0.5-0.5,0.5c-0.3,0-0.5-0.2-0.5-0.5v-2.2c0-0.5-0.2-0.9-0.8-0.9c-0.7,0-1,0.4-1,1
			v2.1c0,0.3-0.2,0.5-0.5,0.5c-0.3,0-0.5-0.2-0.5-0.5v-3.5c0-0.3,0.2-0.5,0.5-0.5c0.3,0,0.5,0.2,0.5,0.5c0.2-0.3,0.6-0.6,1.2-0.6
			C510.1,22.3,510.4,23.1,510.4,24z"/>
	</g>
	<g id="Laurels_4_">
		<g id="layer1_2_" transform="translate(91.8807,-228.748)" inkscape:label="Warstwa 1" inkscape:groupmode="layer">
			<g id="path1872_1_">
				<path inkscape:connector-curvature="0" sodipodi:nodetypes="ccc" fill="#FFEE71" d="M338.5,257.4c-2.2-1.5-3.9-0.2-5.6,1.3
					C335,259.2,337.3,259.5,338.5,257.4z"/>
			</g>
			<g id="path2784_1_">
				<path inkscape:connector-curvature="0" sodipodi:nodetypes="ccc" fill="#FFEE71" d="M338,256.1c-0.1-2.6-2.2-3.3-4.4-3.7
					C334.4,254.4,335.5,256.4,338,256.1z"/>
			</g>
			<g id="path2790_1_">
				<path inkscape:connector-curvature="0" sodipodi:nodetypes="ccc" fill="#FFEE71" d="M334.6,256.2c-2-1.7-3.9-0.5-5.7,0.8
					C331,257.7,333.2,258.2,334.6,256.2z"/>
			</g>
			<g id="path2796_1_">
				<path inkscape:connector-curvature="0" sodipodi:nodetypes="ccc" fill="#FFEE71" d="M332.8,254.9c1.3-2.3-0.2-3.9-1.8-5.4
					C330.6,251.7,330.5,253.9,332.8,254.9z"/>
			</g>
			<g id="path2802_1_">
				<path inkscape:connector-curvature="0" sodipodi:nodetypes="ccc" fill="#FFEE71" d="M331.1,254.9c-1.5-2.2-3.6-1.6-5.7-0.8
					C327.2,255.4,329.2,256.4,331.1,254.9z"/>
			</g>
			<g id="path2808_1_">
				<path inkscape:connector-curvature="0" sodipodi:nodetypes="ccc" fill="#FFEE71" d="M329,253c1.9-1.8,1.1-3.8,0-5.7
					C328,249.2,327.2,251.3,329,253z"/>
			</g>
			<g id="path2814_1_">
				<path inkscape:connector-curvature="0" sodipodi:nodetypes="ccc" fill="#FFEE71" d="M328,252.7c-1.1-2.4-3.3-2.2-5.4-1.8
					C324.1,252.5,325.8,253.9,328,252.7z"/>
			</g>
			<g id="path2820_1_">
				<path inkscape:connector-curvature="0" sodipodi:nodetypes="ccc" fill="#FFEE71" d="M326.3,250.4c2.2-1.4,1.7-3.5,1-5.6
					C325.9,246.5,324.8,248.4,326.3,250.4z"/>
			</g>
			<g id="path2826_1_">
				<path inkscape:connector-curvature="0" sodipodi:nodetypes="ccc" fill="#FFEE71" d="M325.5,250.1c-0.6-2.6-2.8-2.8-5-2.8
					C321.7,249.1,323.1,250.8,325.5,250.1z"/>
			</g>
			<g id="path2832_1_">
				<path inkscape:connector-curvature="0" sodipodi:nodetypes="ccc" fill="#FFEE71" d="M324.8,246.3c2.4-1.1,2.1-3.3,1.7-5.5
					C324.9,242.4,323.6,244.2,324.8,246.3z"/>
			</g>
			<g id="path2838_1_">
				<path inkscape:connector-curvature="0" sodipodi:nodetypes="ccc" fill="#FFEE71" d="M324.4,247.1c-0.3-2.6-2.4-3.1-4.6-3.4
					C320.7,245.7,322,247.5,324.4,247.1z"/>
			</g>
			<g id="path2844_1_">
				<path inkscape:connector-curvature="0" sodipodi:nodetypes="ccc" fill="#FFEE71" d="M323.8,242.1c2.6-0.6,2.8-2.8,2.9-5
					C324.8,238.3,323.1,239.7,323.8,242.1z"/>
			</g>
			<g id="path2850_1_">
				<path inkscape:connector-curvature="0" sodipodi:nodetypes="ccc" fill="#FFEE71" d="M323.3,244c0.7-2.5-1.1-3.8-3-4.9
					C320.5,241.3,320.9,243.5,323.3,244z"/>
			</g>
			<g id="path2856_1_">
				<path inkscape:connector-curvature="0" sodipodi:nodetypes="ccc" fill="#FFEE71" d="M324.8,237.1c2.6,0.1,3.5-1.9,4.1-4
					C326.8,233.7,324.8,234.7,324.8,237.1L324.8,237.1z"/>
			</g>
			<g id="path2862_1_">
				<path inkscape:connector-curvature="0" sodipodi:nodetypes="ccc" fill="#FFEE71" d="M323.1,240c1.6-2.1,0.3-3.9-1.1-5.6
					C321.4,236.4,321.1,238.6,323.1,240z"/>
			</g>
			<g id="path2868_1_">
				<path inkscape:connector-curvature="0" sodipodi:nodetypes="ccc" fill="#FFEE71" d="M326,233.4c2.6-0.2,3.2-2.3,3.6-4.5
					C327.6,229.8,325.6,231,326,233.4z"/>
			</g>
			<g id="path2874_1_">
				<path inkscape:connector-curvature="0" sodipodi:nodetypes="ccc" fill="#FFEE71" d="M324.3,235.7c2-1.7,1.1-3.8,0.1-5.7
					C323.3,231.9,322.5,234,324.3,235.7z"/>
			</g>
		</g>
		<g id="layer1_1_" transform="translate(91.8807,-228.748)" inkscape:label="Warstwa 1" inkscape:groupmode="layer">
			<g id="path1872-7_1_">
				<path inkscape:connector-curvature="0" sodipodi:nodetypes="ccc" fill="#FFEE71" d="M430.3,257.5c2.2-1.5,4-0.2,5.7,1.3
					C433.9,259.4,431.6,259.7,430.3,257.5z"/>
			</g>
			<g id="path2784-4_1_">
				<path inkscape:connector-curvature="0" sodipodi:nodetypes="ccc" fill="#FFEE71" d="M430.9,256.2c0.1-2.7,2.2-3.3,4.4-3.8
					C434.5,254.5,433.3,256.5,430.9,256.2z"/>
			</g>
			<g id="path2790-0_1_">
				<path inkscape:connector-curvature="0" sodipodi:nodetypes="ccc" fill="#FFEE71" d="M434.2,256.3c2-1.7,4-0.5,5.7,0.8
					C437.9,257.9,435.7,258.3,434.2,256.3z"/>
			</g>
			<g id="path2796-9_1_">
				<path inkscape:connector-curvature="0" sodipodi:nodetypes="ccc" fill="#FFEE71" d="M436.1,255c-1.3-2.3,0.2-4,1.9-5.5
					C438.4,251.7,438.4,254,436.1,255z"/>
			</g>
			<g id="path2802-4_1_">
				<path inkscape:connector-curvature="0" sodipodi:nodetypes="ccc" fill="#FFEE71" d="M437.8,255c1.5-2.2,3.7-1.6,5.8-0.8
					C441.8,255.5,439.7,256.6,437.8,255z"/>
			</g>
			<g id="path2808-8_1_">
				<path inkscape:connector-curvature="0" sodipodi:nodetypes="ccc" fill="#FFEE71" d="M439.9,253.1c-2-1.8-1.1-3.9,0-5.8
					C441,249.2,441.8,251.4,439.9,253.1z"/>
			</g>
			<g id="path2814-8_1_">
				<path inkscape:connector-curvature="0" sodipodi:nodetypes="ccc" fill="#FFEE71" d="M441,252.8c1.1-2.4,3.3-2.3,5.5-1.9
					C444.9,252.6,443.2,254,441,252.8z"/>
			</g>
			<g id="path2820-2_1_">
				<path inkscape:connector-curvature="0" sodipodi:nodetypes="ccc" fill="#FFEE71" d="M442.7,250.5c-2.3-1.4-1.8-3.6-1.1-5.7
					C443.1,246.5,444.2,248.5,442.7,250.5z"/>
			</g>
			<g id="path2826-4_1_">
				<path inkscape:connector-curvature="0" sodipodi:nodetypes="ccc" fill="#FFEE71" d="M443.5,250.2c0.6-2.6,2.8-2.8,5-2.9
					C447.4,249.2,445.9,250.9,443.5,250.2z"/>
			</g>
			<g id="path2832-5_1_">
				<path inkscape:connector-curvature="0" sodipodi:nodetypes="ccc" fill="#FFEE71" d="M444.2,246.4c-2.4-1.1-2.2-3.4-1.7-5.6
					C444.1,242.4,445.4,244.2,444.2,246.4z"/>
			</g>
			<g id="path2838-5_1_">
				<path inkscape:connector-curvature="0" sodipodi:nodetypes="ccc" fill="#FFEE71" d="M444.6,247.1c0.3-2.6,2.5-3.2,4.7-3.5
					C448.3,245.6,447,247.5,444.6,247.1z"/>
			</g>
			<g id="path2844-1_1_">
				<path inkscape:connector-curvature="0" sodipodi:nodetypes="ccc" fill="#FFEE71" d="M445.2,242c-2.6-0.6-2.9-2.8-2.9-5
					C444.2,238.2,445.9,239.6,445.2,242z"/>
			</g>
			<g id="path2850-7_1_">
				<path inkscape:connector-curvature="0" sodipodi:nodetypes="ccc" fill="#FFEE71" d="M445.7,244c-0.7-2.5,1.1-3.9,3-5
					C448.6,241.2,448.1,243.5,445.7,244z"/>
			</g>
			<g id="path2856-1_1_">
				<path inkscape:connector-curvature="0" sodipodi:nodetypes="ccc" fill="#FFEE71" d="M444.2,237c-2.6,0.1-3.5-1.9-4.1-4.1
					C442.2,233.6,444.3,234.5,444.2,237L444.2,237z"/>
			</g>
			<g id="path2862-1_1_">
				<path inkscape:connector-curvature="0" sodipodi:nodetypes="ccc" fill="#FFEE71" d="M445.9,239.9c-1.6-2.1-0.3-4,1.1-5.7
					C447.6,236.3,448,238.6,445.9,239.9z"/>
			</g>
			<g id="path2868-5_1_">
				<path inkscape:connector-curvature="0" sodipodi:nodetypes="ccc" fill="#FFEE71" d="M443,233.3c-2.6-0.2-3.3-2.3-3.7-4.5
					C441.4,229.6,443.4,230.8,443,233.3z"/>
			</g>
			<g id="path2874-2_1_">
				<path inkscape:connector-curvature="0" sodipodi:nodetypes="ccc" fill="#FFEE71" d="M444.7,235.5c-2-1.8-1.1-3.8-0.1-5.8
					C445.7,231.7,446.5,233.8,444.7,235.5z"/>
			</g>
		</g>
	</g>
</g>
</svg>
