<?xml version="1.0" encoding="utf-8"?>
<!-- Generator: Adobe Illustrator 18.1.1, SVG Export Plug-In . SVG Version: 6.00 Build 0)  -->
<svg version="1.1" id="Layer_1" xmlns="http://www.w3.org/2000/svg" xmlns:xlink="http://www.w3.org/1999/xlink" x="0px" y="0px"
	 viewBox="0 0 211 160.4" enable-background="new 0 0 211 160.4" xml:space="preserve">
<path fill-rule="evenodd" clip-rule="evenodd" fill="#FFFFFF" d="M144.9,14.3c21.3,0,42.6,0,63.9,0c0.7,0,1.5-0.1,2.2-0.1
	c0-0.6,0-1.3,0-1.9c-0.7,0-1.5-0.1-2.2-0.1c-19.7,0.4-39.4-0.2-59.1,0.5c-22.1,0.8-44.2,0.2-66.3,0.2c-0.5,0-1-0.1-1.4-0.1
	c0-0.2,0-0.4,0-0.6c9.6-0.8,19.3,0.1,29-0.1c9.7-0.2,19.4,0,29.5,0c-0.4-0.9-0.6-1.3-0.9-1.7c-6.8-11.4-23-13.9-32.7-4.8
	c-1.1,1-1.6,0.9-2.7,0c-3.8-3.4-8.3-5.4-13.4-5.5C82-0.2,75.4,3.6,71,11.2c-0.8,1.3-1.6,1.8-3.1,1.8c-15.3-0.1-30.5,0-45.8,0
	c-7.4,0-14.7,0-22.1,0c0,0.4,0,0.8,0,1.3c0.6,0,1.3,0.1,1.9,0.1c21.4,0,42.9,0,64.3,0c1.6,0,2.1,0.4,2.1,2c0,31.4,0,62.7,0,94.1
	c0,1.9-0.1,2-2.1,2c-4.2,0-8.5,0-12.7,0c-10.5-0.1-21.1-0.1-31.6-0.2c-1.1,0-2.2,0-3.3,0c0,0.2,0,0.3,0,0.5c2,0,4,0,6,0
	c14,0,28.1,0,42.1,0c0.7,0,1.4,0,2.1-0.1c3.3-0.2,0.7,0.2,0.2,2.4c-0.2,1.1-0.5,2.2-0.5,3.3c0,13.1,0,26.2,0,39.2
	c0,1.9,0.9,2.8,2.9,2.9c1.5,0.1,3.1,0,4.6,0c3.4,0,4.2-0.8,4.2-4.2c0-12,0-23.9,0-35.9c0-2.3,0.7-4.4,2-6.2c0.7-0.9,1.5-1.4,2.7-1.4
	c3.4,0.1,6.9,0.1,10.3,0c1.3,0,2.1,0.5,2.8,1.5c1.6,2.2,2,4.7,2,7.4c0,11.3,0,22.7,0,34c0,0.6,0,1.2,0,1.7c0.1,2.3,0.9,3.1,3.2,3.2
	c1.4,0,2.9,0,4.3,0c3.4,0,4-0.6,4-4c0-11.7,0-23.3,0-35c0-2.7,0.3-5.3,2.2-7.5c0.6-0.7,1.6-1.2,2.5-1.3c3.5-0.1,7.1-0.1,10.6,0
	c0.8,0,1.8,0.6,2.4,1.2c1.6,1.9,2.2,4.3,2.1,6.8c-0.1,2.5,0,2.6-2.5,2.5c-4.6,0-9.1-0.1-13.7-0.2c-0.8,0-1.5,0.1-2.3,0.1
	c0,0.2,0,0.3,0,0.5c0.6,0,1.2,0.1,1.8,0.1c4.9-0.1,9.8-0.1,14.8-0.2c1.4,0,1.9,0.5,1.9,1.9c-0.1,5.1,0,10.3,0,15.4
	c0,5.3,0,10.7,0,16c0,2.4,1,3.4,3.4,3.4c1.4,0,2.9,0,4.3,0c3.1,0,3.9-0.9,3.9-4c0-9.7,0-19.5,0-29.2c0-3.4,0-3.4,3.3-3.3
	c0.4,0,0.7,0,1.1,0c4.5-0.1,9-0.2,13.5-0.2c6.6,0,13.1,0.2,19.7,0.2c7.2,0,14.4-0.2,21.6-0.2c3.1,0,6.1,0,9.2,0c0-0.1,0-0.2,0-0.3
	c-8.3,0-16.5-0.1-24.8-0.1c-8.9,0-17.9,0.1-26.8,0.1c-5.1,0-10.3,0-15.4-0.1c-0.5,0-1.2-0.7-1.3-1.1c-0.3-3-0.5-6-0.7-9.1
	c0.4,0,0.9-0.1,1.5-0.1c21.9,0,43.8,0,65.8,0c0.6,0,1.2,0.1,1.7,0.1c0-0.3,0-0.6,0-1c-8.9,0-17.8,0-26.7,0c-13.2,0-26.5,0-39.7,0
	c-1.6,0-2-0.5-2-2c0.1-2.4,0-4.9,0-7.3c0-5.5-2-10.2-5.7-14.3c-0.9-1-0.8-1.5,0-2.5c3.6-3.8,5.6-8.4,5.6-13.6c0-3.5,0-6.9,0-10.4
	h0.1V16.6h-0.1c0-0.1,0-0.2,0-0.3C142.4,14.5,143.4,14.3,144.9,14.3z M113.2,14.3c5.3,0.1,10.6,0.1,15.9,0c1.6,0,2,0.5,1.9,2
	c-0.1,3.5,0,7,0,10.5c0,0.2,0,0.5,0,0.8v18.7c-0.1,0.3-0.1,0.7-0.1,1.1c0.1,8,0,16.1,0,24.2c0,5.7-4.3,10-10,10.1
	c-2.6,0-5.2-0.1-7.8,0c-1,0-1.6-0.2-1.8-0.8h0V35.3h-0.2c0-6.3,0-12.7,0-19C111.2,14.8,111.6,14.3,113.2,14.3z M129.1,112.5
	c-6.4,0-12.8,0.1-19.2,0.1c-0.3,0-0.6,0-0.9,0c-0.5,0-1,0-1.5,0c-2.3,0-4.7,0-7,0c-5.9,0-11.9-0.1-17.8-0.2c-2.6,0-2.6,0-2.6-2.5
	c0-20.4,0-40.8,0-61.2c0-10.7,0-21.4,0-32.1c0-2.4,0-2.4,2.3-2.4c5,0,10,0,14.9,0c2.5,0,2.5,0,2.5,2.5c0,6.1,0,12.3,0,18.5h0v45.6h0
	c0,9.9,0,20.2,0,30.1c0,1.2,0.4,1.7,1.7,1.7c2,0,4,0,5.9,0c0.8,0,1.6,0,2.5,0c1.4-0.1,1.4-0.4,1.4-2.3c0-4.9,0-10.3,0-15.3
	c0-1.3,0.4-1.9,1.8-1.9c2.8,0.1,5.6,0,8.4,0c5.2,0.1,9.4,4.3,9.5,9.6c0,2.6-0.1,5.2,0,7.8C131.1,112.2,130.4,112.5,129.1,112.5z
	 M139,112.3c0,0.1,0,0.1,0,0.2c-2.2,0-4.5,0-6.7,0c0-0.1,0-0.1,0-0.2C134.6,112.3,136.8,112.3,139,112.3z"/>
</svg>
