<?xml version="1.0" encoding="utf-8"?>
<!-- Generator: Adobe Illustrator 18.1.1, SVG Export Plug-In . SVG Version: 6.00 Build 0)  -->
<svg version="1.1" id="PS4_x5F_A_x5F_neg" xmlns="http://www.w3.org/2000/svg" xmlns:xlink="http://www.w3.org/1999/xlink" x="0px"
	 y="0px" viewBox="0 0 211.3 42.3" enable-background="new 0 0 211.3 42.3" xml:space="preserve">
<g>
	<g>
		<g>
			<polygon fill="#FFFFFF" points="204.1,38.1 202.6,38.1 202.6,37.6 206.3,37.6 206.3,38.1 204.7,38.1 204.7,42.3 204.1,42.3 			
				"/>
			<polygon fill="#FFFFFF" points="208.8,42.3 207.5,38.5 207.5,42.3 206.9,42.3 206.9,37.6 207.8,37.6 209.1,41.6 210.5,37.6 
				211.3,37.6 211.3,42.3 210.7,42.3 210.7,38.5 209.4,42.3 			"/>
		</g>
	</g>
	<g>
		<g>
			<g>
				<path fill="#FFFFFF" d="M132.1,0l-27.7,0c-8,0-12,4.9-12,11.4V31c0,4-1.9,6.9-5.9,6.9h-26c-0.2,0-0.3,0.1-0.3,0.3V42
					c0,0.2,0.1,0.3,0.3,0.3h29c8,0,12-4.9,12-11.4V11.4c0-4,1.9-6.9,5.9-6.9h24.7c0.2,0,0.3-0.1,0.3-0.3V0.3
					C132.4,0.1,132.3,0,132.1,0"/>
				<path fill="#FFFFFF" d="M50.4,0L0.3,0C0.1,0,0,0.1,0,0.3v3.9c0,0.2,0.1,0.3,0.3,0.3h47.1c4,0,5.9,2.9,5.9,6.9
					c0,4-1.9,6.9-5.9,6.9H10.1C4.4,18.2,0,23.1,0,29.5L0,42c0,0.2,0.1,0.3,0.3,0.3h8.5c0.2,0,0.3-0.1,0.3-0.3V29.5
					c0-4,2.3-6.8,5.6-6.8h35.7c8,0,12-4.9,12-11.4C62.3,5,58.4,0,50.4,0"/>
				<path fill="#FFFFFF" d="M197.8,33.3l-8.8,0h0.3c-0.2,0-0.3-0.1-0.3-0.3V4.5c0-4.4-3-5.8-7.3-3.2l-51,31.3
					c-2,1.2-2.7,2.6-2.2,3.6c0.4,0.9,1.5,1.5,3.7,1.5l47.4,0c0.1,0,0.2,0.1,0.3,0.2v4c0,0.2,0.1,0.3,0.3,0.3h8.5
					c0.2,0,0.3-0.1,0.3-0.3v-3.9c0-0.2,0.1-0.3,0.3-0.3h8.5c0.2,0,0.3-0.1,0.3-0.3v-3.9C198.1,33.4,198,33.3,197.8,33.3 M179.9,33
					c0,0.2-0.1,0.3-0.3,0.3h-39.7c-0.3,0-0.5-0.1-0.5-0.2c0-0.2,0.1-0.3,0.3-0.5l39.5-24.3c0.3-0.2,0.7-0.1,0.7,0.4V33z"/>
			</g>
		</g>
	</g>
</g>
</svg>
