<?xml version="1.0" encoding="utf-8"?>
<!-- Generator: Adobe Illustrator 18.1.1, SVG Export Plug-In . SVG Version: 6.00 Build 0)  -->
<svg version="1.1" id="PS4_x5F_F_x5F_A_x5F_neg" xmlns="http://www.w3.org/2000/svg" xmlns:xlink="http://www.w3.org/1999/xlink"
	 x="0px" y="0px" viewBox="0 0 329.9 68.7" enable-background="new 0 0 329.9 68.7" xml:space="preserve">
<g>
	<g>
		<g>
			<g>
				<polygon fill="#FFFFFF" points="322.7,54.4 321.1,54.4 321.1,53.8 324.8,53.8 324.8,54.4 323.3,54.4 323.3,58.6 322.7,58.6 				
					"/>
				<polygon fill="#FFFFFF" points="327.4,58.6 326.1,54.7 326.1,58.6 325.4,58.6 325.4,53.8 326.3,53.8 327.7,57.9 329,53.8 
					329.9,53.8 329.9,58.6 329.3,58.6 329.3,54.7 328,58.6 				"/>
			</g>
		</g>
		<g>
			<g>
				<g>
					<path fill="#FFFFFF" d="M250.7,16.3l-27.7,0c-8,0-12,4.9-12,11.4v19.6c0,4-1.9,6.9-5.9,6.9h-26c-0.2,0-0.3,0.1-0.3,0.3v3.9
						c0,0.2,0.1,0.3,0.3,0.3h29c8,0,12-4.9,12-11.4V27.6c0-4,1.9-6.9,5.9-6.9h24.7c0.2,0,0.3-0.1,0.3-0.3v-3.9
						C251,16.4,250.8,16.3,250.7,16.3"/>
					<path fill="#FFFFFF" d="M168.9,16.3l-50.1,0c-0.2,0-0.3,0.1-0.3,0.3v3.9c0,0.2,0.1,0.3,0.3,0.3h47.1c4,0,5.9,2.9,5.9,6.9
						c0,4-1.9,6.9-5.9,6.9h-37.2c-5.8,0-10.1,4.9-10.1,11.3l0,12.5c0,0.2,0.1,0.3,0.3,0.3h8.5c0.2,0,0.3-0.1,0.3-0.3V45.8
						c0-4,2.3-6.8,5.6-6.8h35.7c8,0,12-4.9,12-11.4C180.9,21.2,176.9,16.3,168.9,16.3"/>
					<path fill="#FFFFFF" d="M316.3,49.5l-8.8,0h0.3c-0.2,0-0.3-0.1-0.3-0.3V20.8c0-4.4-3-5.8-7.3-3.2l-51,31.3
						c-2,1.2-2.7,2.6-2.2,3.6c0.4,0.9,1.5,1.5,3.7,1.5l47.4,0c0.1,0,0.2,0.1,0.3,0.2v4c0,0.2,0.1,0.3,0.3,0.3h8.5
						c0.2,0,0.3-0.1,0.3-0.3v-3.9c0-0.2,0.1-0.3,0.3-0.3h8.5c0.2,0,0.3-0.1,0.3-0.3v-3.9C316.6,49.7,316.5,49.5,316.3,49.5
						 M298.5,49.2c0,0.2-0.1,0.3-0.3,0.3h-39.7c-0.3,0-0.5-0.1-0.5-0.2c0-0.2,0.1-0.3,0.3-0.5l39.5-24.3c0.3-0.2,0.7-0.1,0.7,0.4
						V49.2z"/>
				</g>
			</g>
		</g>
	</g>
	<g>
		<g>
			<g>
				<path fill="#FFFFFF" d="M33.3,0v64.1l14.5,4.6V14.9c0-2.5,1.1-4.2,2.9-3.6c2.4,0.7,2.8,3,2.8,5.5v21.5c9,4.4,16.1,0,16.1-11.5
					c0-11.8-4.2-17.1-16.4-21.3C48.4,3.8,39.4,1.1,33.3,0z"/>
				<path fill="#FFFFFF" d="M50.5,59.3L73.8,51c2.6-0.9,3.1-2.3,0.9-3c-2.1-0.7-6-0.5-8.7,0.4l-15.5,5.5v-8.7l0.9-0.3
					c0,0,4.5-1.6,10.8-2.3c6.3-0.7,14,0.1,20.1,2.4c6.8,2.2,7.6,5.3,5.9,7.5c-1.7,2.2-6,3.8-6,3.8L50.5,67.7V59.3z"/>
				<path fill="#FFFFFF" d="M6.7,58.4c-7-2-8.2-6.1-5-8.5c3-2.2,8-3.8,8-3.8l20.8-7.4v8.4l-15,5.4c-2.6,0.9-3,2.3-0.9,3
					c2.2,0.7,6,0.5,8.7-0.4l7.2-2.6V60c-0.5,0.1-1,0.2-1.4,0.2C21.9,61.4,14.2,60.9,6.7,58.4"/>
				<path fill="#FFFFFF" d="M80.8,65.2c0-0.8,0.3-1.5,0.8-2c0.5-0.5,1.2-0.8,2-0.8c0.8,0,1.5,0.3,2,0.8c0.5,0.5,0.8,1.2,0.8,2
					c0,1.6-1.3,2.8-2.8,2.8c-0.8,0-1.5-0.3-2-0.8C81.1,66.6,80.8,65.9,80.8,65.2z M83.6,68.6c0.9,0,1.8-0.4,2.4-1
					c0.6-0.6,1-1.5,1-2.4c0-0.9-0.4-1.7-1-2.4c-0.6-0.7-1.5-1-2.4-1c-1.9,0-3.4,1.5-3.4,3.4c0,0.9,0.4,1.8,1,2.4
					C81.8,68.2,82.7,68.6,83.6,68.6"/>
				<path fill="#FFFFFF" d="M84.5,64.3c0,0.2-0.1,0.4-0.2,0.4c-0.1,0.1-0.3,0.1-0.5,0.1h-1v-1.1h1.1c0.1,0,0.3,0,0.4,0.1
					C84.4,63.9,84.5,64.1,84.5,64.3z M85.3,66.7c0,0-0.1-0.1-0.1-0.2c0-0.1,0-0.2,0-0.3l0-0.5c0-0.2,0-0.4-0.1-0.5
					c-0.1-0.1-0.1-0.1-0.2-0.2c0.1-0.1,0.2-0.2,0.3-0.3c0.1-0.2,0.1-0.3,0.1-0.6c0-0.5-0.2-0.8-0.6-0.9c-0.2-0.1-0.4-0.1-0.7-0.1
					h-1.7h-0.1v0.1v3.6V67h0.1h0.5h0.1v-0.1v-1.5h1c0.2,0,0.3,0,0.4,0.1c0.1,0.1,0.2,0.2,0.2,0.4l0,0.6c0,0.1,0,0.2,0,0.3
					c0,0.1,0,0.1,0,0.1l0,0h0h0.6h0.1v-0.1L85.3,66.7L85.3,66.7L85.3,66.7"/>
			</g>
		</g>
	</g>
</g>
</svg>
