<?xml version="1.0" encoding="utf-8"?>
<!-- Generator: Adobe Illustrator 18.1.1, SVG Export Plug-In . SVG Version: 6.00 Build 0)  -->
<svg version="1.1" id="Layer_1" xmlns="http://www.w3.org/2000/svg" xmlns:xlink="http://www.w3.org/1999/xlink" x="0px" y="0px"
	 viewBox="0 0 375.7 247.1" enable-background="new 0 0 375.7 247.1" xml:space="preserve">
<g>
	<polyline fill="none" stroke="#A38FC4" stroke-width="2" stroke-miterlimit="10" points="206.7,77.3 206.1,38.8 168.2,13.4 	"/>
	<polyline fill="none" stroke="#A38FC4" stroke-width="2" stroke-miterlimit="10" points="294.6,188.8 237.2,205.8 294.6,240.2 	"/>
	<polyline fill="none" stroke="#A38FC4" stroke-width="2" stroke-miterlimit="10" points="66.5,130 68.2,176.5 9.9,200 7.8,234.7 	
		"/>
	<line fill="none" stroke="#A38FC4" stroke-width="2" stroke-miterlimit="10" x1="137.1" y1="193.9" x2="91.4" y2="208.5"/>
	<polyline fill="none" stroke="#A38FC4" stroke-width="2" stroke-miterlimit="10" points="137.1,193.9 161.7,164.7 188.7,193.9 	"/>
	<line fill="none" stroke="#A38FC4" stroke-width="2" stroke-miterlimit="10" x1="161.7" y1="106.4" x2="161.7" y2="162.1"/>
	<line fill="none" stroke="#A38FC4" stroke-width="2" stroke-miterlimit="10" x1="294.6" y1="188.8" x2="355.8" y2="154.2"/>
	<line fill="none" stroke="#A38FC4" stroke-width="2" stroke-miterlimit="10" x1="294.6" y1="188.8" x2="331.9" y2="201.6"/>
	<line fill="none" stroke="#A38FC4" stroke-width="2" stroke-miterlimit="10" x1="294.6" y1="130" x2="294.6" y2="188.8"/>
	<line fill="none" stroke="#A38FC4" stroke-width="2" stroke-miterlimit="10" x1="206.7" y1="106.4" x2="294.6" y2="130"/>
	<line fill="none" stroke="#A38FC4" stroke-width="2" stroke-miterlimit="10" x1="206.7" y1="77.3" x2="294.6" y2="48"/>
	<line fill="none" stroke="#A38FC4" stroke-width="2" stroke-miterlimit="10" x1="161.7" y1="106.4" x2="66.5" y2="130"/>
	<line fill="none" stroke="#A38FC4" stroke-width="2" stroke-miterlimit="10" x1="66.5" y1="48" x2="66.5" y2="131.3"/>
	<line fill="none" stroke="#A38FC4" stroke-width="2" stroke-miterlimit="10" x1="68.2" y1="49" x2="161.7" y2="77.3"/>
	<line fill="none" x1="184.7" y1="0" x2="184.7" y2="35.8"/>
	<path fill="#B4D674" d="M176,89.5h-28.7c-3.1,0-5.6-2.5-5.6-5.6V70.6c0-3.1,2.5-5.6,5.6-5.6H176c3.1,0,5.6,2.5,5.6,5.6v13.4
		C181.6,87,179.1,89.5,176,89.5z"/>
	<path fill="#8A66AC" d="M176,118.7h-28.7c-3.1,0-5.6-2.5-5.6-5.6V99.8c0-3.1,2.5-5.6,5.6-5.6H176c3.1,0,5.6,2.5,5.6,5.6v13.4
		C181.6,116.2,179.1,118.7,176,118.7z"/>
	<path fill="#F37763" d="M221,89.5h-28.7c-3.1,0-5.6-2.5-5.6-5.6V70.6c0-3.1,2.5-5.6,5.6-5.6H221c3.1,0,5.6,2.5,5.6,5.6v13.4
		C226.6,87,224.1,89.5,221,89.5z"/>
	<path fill="#8FD6E6" d="M221,118.7h-28.7c-3.1,0-5.6-2.5-5.6-5.6V99.8c0-3.1,2.5-5.6,5.6-5.6H221c3.1,0,5.6,2.5,5.6,5.6v13.4
		C226.6,116.2,224.1,118.7,221,118.7z"/>
	<polyline fill="none" stroke="#A38FC4" stroke-width="2" stroke-miterlimit="10" points="57.7,53.7 66.5,48 30.9,29.7 	"/>
	<polyline fill="none" stroke="#A38FC4" stroke-width="2" stroke-miterlimit="10" points="103.9,70.8 66.5,48 103.9,29.7 	"/>
	<polyline fill="none" stroke="#A38FC4" stroke-width="2" stroke-miterlimit="10" points="30.9,154 66.5,131.3 30.9,113 	"/>
	<polyline fill="none" stroke="#A38FC4" stroke-width="2" stroke-miterlimit="10" points="103.9,154 66.5,131.3 103.9,113 	"/>
	<path fill="#81C452" d="M111.1,35.8H96.7c-1.5,0-2.8-1.2-2.8-2.8v-6.7c0-1.5,1.2-2.8,2.8-2.8h14.3c1.5,0,2.8,1.2,2.8,2.8V33
		C113.8,34.6,112.6,35.8,111.1,35.8z"/>
	<path fill="#81C452" d="M38.1,35.8H23.7c-1.5,0-2.8-1.2-2.8-2.8v-6.7c0-1.5,1.2-2.8,2.8-2.8h14.3c1.5,0,2.8,1.2,2.8,2.8V33
		C40.8,34.6,39.6,35.8,38.1,35.8z"/>
	<path fill="#81C452" d="M111.1,76.9H96.7c-1.5,0-2.8-1.2-2.8-2.8v-6.7c0-1.5,1.2-2.8,2.8-2.8h14.3c1.5,0,2.8,1.2,2.8,2.8v6.7
		C113.8,75.6,112.6,76.9,111.1,76.9z"/>
	<path fill="#6E499D" d="M111.1,117.5H96.7c-1.5,0-2.8-1.2-2.8-2.8v-6.7c0-1.5,1.2-2.8,2.8-2.8h14.3c1.5,0,2.8,1.2,2.8,2.8v6.7
		C113.8,116.3,112.6,117.5,111.1,117.5z"/>
	<path fill="#6E499D" d="M111.1,160.3H96.7c-1.5,0-2.8-1.2-2.8-2.8v-6.7c0-1.5,1.2-2.8,2.8-2.8h14.3c1.5,0,2.8,1.2,2.8,2.8v6.7
		C113.8,159.1,112.6,160.3,111.1,160.3z"/>
	<path fill="#6E499D" d="M75.4,182.8H61c-1.5,0-2.8-1.2-2.8-2.8v-6.7c0-1.5,1.2-2.8,2.8-2.8h14.3c1.5,0,2.8,1.2,2.8,2.8v6.7
		C78.1,181.5,76.9,182.8,75.4,182.8z"/>
	<path fill="#6E499D" d="M17.1,206.3H2.8c-1.5,0-2.8-1.2-2.8-2.8v-6.7c0-1.5,1.2-2.8,2.8-2.8h14.3c1.5,0,2.8,1.2,2.8,2.8v6.7
		C19.9,205,18.6,206.3,17.1,206.3z"/>
	<path fill="#6E499D" d="M38.1,117.5H23.7c-1.5,0-2.8-1.2-2.8-2.8v-6.7c0-1.5,1.2-2.8,2.8-2.8h14.3c1.5,0,2.8,1.2,2.8,2.8v6.7
		C40.8,116.3,39.6,117.5,38.1,117.5z"/>
	<path fill="#B4D674" d="M195.9,200h-14.3c-1.5,0-2.8-1.2-2.8-2.8v-6.7c0-1.5,1.2-2.8,2.8-2.8h14.3c1.5,0,2.8,1.2,2.8,2.8v6.7
		C198.7,198.7,197.4,200,195.9,200z"/>
	<path fill="#F37763" d="M144.2,200h-14.3c-1.5,0-2.8-1.2-2.8-2.8v-6.7c0-1.5,1.2-2.8,2.8-2.8h14.3c1.5,0,2.8,1.2,2.8,2.8v6.7
		C147,198.7,145.8,200,144.2,200z"/>
	<path fill="#F37763" d="M98.5,214.6H84.2c-1.5,0-2.8-1.2-2.8-2.8v-6.7c0-1.5,1.2-2.8,2.8-2.8h14.3c1.5,0,2.8,1.2,2.8,2.8v6.7
		C101.3,213.4,100.1,214.6,98.5,214.6z"/>
	<path fill="#F37763" d="M17.1,240.9H2.8c-1.5,0-2.8-1.2-2.8-2.8v-6.7c0-1.5,1.2-2.8,2.8-2.8h14.3c1.5,0,2.8,1.2,2.8,2.8v6.7
		C19.9,239.6,18.6,240.9,17.1,240.9z"/>
	<path fill="#6E499D" d="M38.1,158.6H23.7c-1.5,0-2.8-1.2-2.8-2.8v-6.7c0-1.5,1.2-2.8,2.8-2.8h14.3c1.5,0,2.8,1.2,2.8,2.8v6.7
		C40.8,157.3,39.6,158.6,38.1,158.6z"/>
	<path fill="#B4D674" d="M80.9,60.3H52.2c-3.1,0-5.6-2.5-5.6-5.6V41.4c0-3.1,2.5-5.6,5.6-5.6h28.7c3.1,0,5.6,2.5,5.6,5.6v13.4
		C86.4,57.8,83.9,60.3,80.9,60.3z"/>
	<path fill="#8A66AC" d="M80.9,142.2H52.2c-3.1,0-5.6-2.5-5.6-5.6v-13.4c0-3.1,2.5-5.6,5.6-5.6h28.7c3.1,0,5.6,2.5,5.6,5.6v13.4
		C86.4,139.8,83.9,142.2,80.9,142.2z"/>
	<path fill="none" stroke="#A38FC4" stroke-width="2" stroke-miterlimit="10" d="M294.6,131.3"/>
	<path fill="none" stroke="#A38FC4" stroke-width="2" stroke-miterlimit="10" d="M294.6,48"/>
	<polyline fill="none" stroke="#A38FC4" stroke-width="2" stroke-miterlimit="10" points="258.9,70.8 294.6,48 258.9,29.7 	"/>
	<polyline fill="none" stroke="#A38FC4" stroke-width="2" stroke-miterlimit="10" points="331.9,70.8 294.6,48 331.9,29.7 	"/>
	<polyline fill="none" stroke="#A38FC4" stroke-width="2" stroke-miterlimit="10" points="258.9,154 294.6,131.3 258.9,113 	"/>
	<polyline fill="none" stroke="#A38FC4" stroke-width="2" stroke-miterlimit="10" points="294.6,131.3 294.6,131.3 331.9,113 	"/>
	<path fill="#CA473A" d="M339.1,35.8h-14.3c-1.5,0-2.8-1.2-2.8-2.8v-6.7c0-1.5,1.2-2.8,2.8-2.8h14.3c1.5,0,2.8,1.2,2.8,2.8V33
		C341.9,34.6,340.6,35.8,339.1,35.8z"/>
	<path fill="#CA473A" d="M266.1,35.8h-14.3c-1.5,0-2.8-1.2-2.8-2.8v-6.7c0-1.5,1.2-2.8,2.8-2.8h14.3c1.5,0,2.8,1.2,2.8,2.8V33
		C268.9,34.6,267.6,35.8,266.1,35.8z"/>
	<path fill="#CA473A" d="M213.3,44.9h-14.3c-1.5,0-2.8-1.2-2.8-2.8v-6.7c0-1.5,1.2-2.8,2.8-2.8h14.3c1.5,0,2.8,1.2,2.8,2.8v6.7
		C216,43.6,214.8,44.9,213.3,44.9z"/>
	<path fill="#CA473A" d="M175.4,19.5H161c-1.5,0-2.8-1.2-2.8-2.8V10c0-1.5,1.2-2.8,2.8-2.8h14.3c1.5,0,2.8,1.2,2.8,2.8v6.7
		C178.2,18.2,176.9,19.5,175.4,19.5z"/>
	<path fill="#CA473A" d="M339.1,76.9h-14.3c-1.5,0-2.8-1.2-2.8-2.8v-6.7c0-1.5,1.2-2.8,2.8-2.8h14.3c1.5,0,2.8,1.2,2.8,2.8v6.7
		C341.9,75.6,340.6,76.9,339.1,76.9z"/>
	<path fill="#CA473A" d="M266.1,76.9h-14.3c-1.5,0-2.8-1.2-2.8-2.8v-6.7c0-1.5,1.2-2.8,2.8-2.8h14.3c1.5,0,2.8,1.2,2.8,2.8v6.7
		C268.9,75.6,267.6,76.9,266.1,76.9z"/>
	<path fill="#49A5AF" d="M339.1,117.5h-14.3c-1.5,0-2.8-1.2-2.8-2.8v-6.7c0-1.5,1.2-2.8,2.8-2.8h14.3c1.5,0,2.8,1.2,2.8,2.8v6.7
		C341.9,116.3,340.6,117.5,339.1,117.5z"/>
	<path fill="#49A5AF" d="M339.1,208.5h-14.3c-1.5,0-2.8-1.2-2.8-2.8V199c0-1.5,1.2-2.8,2.8-2.8h14.3c1.5,0,2.8,1.2,2.8,2.8v6.7
		C341.9,207.2,340.6,208.5,339.1,208.5z"/>
	<path fill="#49A5AF" d="M304.4,247.1h-14.3c-1.5,0-2.8-1.2-2.8-2.8v-6.7c0-1.5,1.2-2.8,2.8-2.8h14.3c1.5,0,2.8,1.2,2.8,2.8v6.7
		C307.2,245.8,306,247.1,304.4,247.1z"/>
	<path fill="#49A5AF" d="M266.1,117.5h-14.3c-1.5,0-2.8-1.2-2.8-2.8v-6.7c0-1.5,1.2-2.8,2.8-2.8h14.3c1.5,0,2.8,1.2,2.8,2.8v6.7
		C268.9,116.3,267.6,117.5,266.1,117.5z"/>
	<path fill="#49A5AF" d="M266.1,158.6h-14.3c-1.5,0-2.8-1.2-2.8-2.8v-6.7c0-1.5,1.2-2.8,2.8-2.8h14.3c1.5,0,2.8,1.2,2.8,2.8v6.7
		C268.9,157.3,267.6,158.6,266.1,158.6z"/>
	<path fill="#49A5AF" d="M247.8,212.2h-14.3c-1.5,0-2.8-1.2-2.8-2.8v-6.7c0-1.5,1.2-2.8,2.8-2.8h14.3c1.5,0,2.8,1.2,2.8,2.8v6.7
		C250.6,211,249.4,212.2,247.8,212.2z"/>
	<path fill="#F37763" d="M308.9,60.3h-28.7c-3.1,0-5.6-2.5-5.6-5.6V41.4c0-3.1,2.5-5.6,5.6-5.6h28.7c3.1,0,5.6,2.5,5.6,5.6v13.4
		C314.5,57.8,312,60.3,308.9,60.3z"/>
	<path fill="#8A66AC" d="M176,176.9h-28.7c-3.1,0-5.6-2.5-5.6-5.6V158c0-3.1,2.5-5.6,5.6-5.6H176c3.1,0,5.6,2.5,5.6,5.6v13.4
		C181.6,174.4,179.1,176.9,176,176.9z"/>
	<path fill="#F37763" d="M370.2,166.3h-28.7c-3.1,0-5.6-2.5-5.6-5.6v-13.4c0-3.1,2.5-5.6,5.6-5.6h28.7c3.1,0,5.6,2.5,5.6,5.6v13.4
		C375.7,163.8,373.2,166.3,370.2,166.3z"/>
	<path fill="#8FD6E6" d="M308.9,142.2h-28.7c-3.1,0-5.6-2.5-5.6-5.6v-13.4c0-3.1,2.5-5.6,5.6-5.6h28.7c3.1,0,5.6,2.5,5.6,5.6v13.4
		C314.5,139.8,312,142.2,308.9,142.2z"/>
	<path fill="#8A66AC" d="M308.9,201h-28.7c-3.1,0-5.6-2.5-5.6-5.6v-13.4c0-3.1,2.5-5.6,5.6-5.6h28.7c3.1,0,5.6,2.5,5.6,5.6v13.4
		C314.5,198.5,312,201,308.9,201z"/>
	<path fill="#1A2635" d="M160.7,70.8h1.9c3.1,0,5.6,2.5,5.6,5.6v1.9c0,3.1-2.5,5.6-5.6,5.6h-1.9c-3.1,0-5.6-2.5-5.6-5.6v-1.9
		C155.2,73.2,157.7,70.8,160.7,70.8z"/>
	<path fill="#1A2635" d="M205.7,70.8h1.9c3.1,0,5.6,2.5,5.6,5.6v1.9c0,3.1-2.5,5.6-5.6,5.6h-1.9c-3.1,0-5.6-2.5-5.6-5.6v-1.9
		C200.2,73.2,202.7,70.8,205.7,70.8z"/>
	<path fill="#1A2635" d="M182.9,113.1h-17.2c-2.2,0-3.9-1.8-3.9-3.9v0c0-2.2,1.8-3.9,3.9-3.9h17.2"/>
	<path fill="#1A2635" d="M184.9,105.3h17.2c2.2,0,3.9,1.8,3.9,3.9v0c0,2.2-1.8,3.9-3.9,3.9h-17.2"/>
</g>
</svg>
