<?xml version="1.0" encoding="utf-8"?>
<!-- Generator: Adobe Illustrator 18.1.1, SVG Export Plug-In . SVG Version: 6.00 Build 0)  -->
<svg version="1.1" id="YouTube_Logo" xmlns="http://www.w3.org/2000/svg" xmlns:xlink="http://www.w3.org/1999/xlink" x="0px"
	 y="0px" viewBox="0 0 298.6 358.6" enable-background="new 0 0 298.6 358.6" xml:space="preserve">
<g id="You">
</g>
<g id="Tube">
	<g>
		<g>
			<path id="u_2_" fill="#FFFFFF" d="M242.8,135h-19v-11c-7.2,8.3-13.3,12.4-20,12.4c-5.8,0-9.9-2.8-11.9-7.7
				c-1.2-3-2.1-7.8-2.1-14.7V34h19v75c0,4.2,0,6,0,7c0.4,2.8,1.6,3.8,4.1,3.8c3.6,0,6.9-3.2,10.9-8.8V34h19V135z"/>
			<path id="o_2_" fill="#FFFFFF" d="M175.8,67c0-10.8-2.2-18.9-6-24c-5.1-6.9-13-9.7-21-9.7c-9.1,0-15.9,2.8-21,9.7
				c-3.9,5.1-6,13.3-6,24.1l0,35.9c0,10.7,1.9,18.1,5.8,23.2c5.1,6.9,13.2,10.5,21.2,10.5s16.3-3.6,21.4-10.5
				c3.8-5.1,5.6-12.5,5.6-23.2V67z M156.8,105c1,10-2.1,15-8,15s-9-5-8-15V65c-1-10,2.1-14.7,8-14.7c5.9,0,9,4.7,8,14.7L156.8,105z"
				/>
			<path id="y_2_" fill="#FFFFFF" d="M100.8,80v55h-20V80c0,0-20.7-67.4-25-80h21l14,52.7l14-52.7h21L100.8,80z"/>
		</g>
		<g>
			<path fill="#FFFFFF" d="M180,233.8c-3,0-6.4,1.6-9.4,4.6l0,60.6c3,3,6.5,4.6,9.4,4.6c5.2,0,7.6-3.8,7.6-13.8v-43
				C187.6,236.7,185.2,233.8,180,233.8z"/>
			<path fill="#FFFFFF" d="M254.6,245.8c0-9.2-2.4-12-8.4-12c-6,0-8.6,2.5-8.6,11.9v11.1l17,0V245.8z"/>
			<path fill="#FFFFFF" d="M295.6,194.6c0,0-2.9-20.5-11.9-29.5c-11.4-11.8-24.1-11.9-29.9-12.6c-41.8-3-104.5-3-104.5-3h-0.1
				c0,0-62.7,0-104.5,3c-5.8,0.7-18.6,0.8-29.9,12.6c-9,9-11.9,29.5-11.9,29.5s-3,24.1-3,48.1v22.6c0,24.1,3,48.1,3,48.1
				s2.9,20.5,11.9,29.5c11.4,11.8,26.3,11.5,32.9,12.7c23.9,2.3,101.5,3,101.5,3s62.7-0.1,104.5-3.1c5.8-0.7,18.6-0.8,29.9-12.6
				c9-9,11.9-29.5,11.9-29.5s3-24.1,3-48.1v-22.6C298.6,218.7,295.6,194.6,295.6,194.6z M65.6,318.7h-20v-115h-21v-19l63,0v19h-22
				V318.7z M137.6,318.7h-19v-11c-7.2,8.3-13.3,12.4-20,12.4c-5.8,0-9.9-2.8-11.9-7.7c-1.2-3-2.1-7.8-2.1-14.7v-79h19v74
				c0,4.2,0,6,0,7c0.4,2.8,1.6,3.8,4.1,3.8c3.6,0,6.9-3.2,10.9-8.8v-76h19V318.7z M206.6,288.7c0,9.2-0.8,15.8-2,20
				c-2.4,7.4-7.7,11.3-14.9,11.3c-6.4,0-13-3.9-19.1-11.4l0,10.1h-18v-134h18l0,43.7c5.8-7.2,12.5-11.3,19.1-11.3
				c7.2,0,12.1,4.2,14.5,11.6c1.2,4,2.4,10.5,2.4,20V288.7z M246.4,303.6c4.5,0,7.1-2.4,8.1-7.3c0.2-1,0.1-5.3,0.1-12.6h19v2.8
				c0,5.8-0.5,10-0.6,11.8c-0.6,4-2,7.6-4.2,10.8c-5,7.3-12.4,10.8-21.9,10.8c-9.5,0-16.7-3.4-21.9-10.2c-3.8-5-6.3-12.4-6.3-23.1
				v-35c0-10.7,2.2-18.9,6.1-24c5.2-6.8,12.4-10.5,21.7-10.5c9.1,0,16.3,3.6,21.4,10.5c3.8,5.1,5.9,12.9,5.9,23.5l0,20.4h-36v18
				C237.5,298.9,240.1,303.6,246.4,303.6z"/>
		</g>
	</g>
</g>
</svg>
